<svg width="212" height="49" viewBox="0 0 212 49" fill="none" xmlns="http://www.w3.org/2000/svg">
<path d="M201.507 0L211.89 18.9641L190.065 37.9636L201.507 0Z" fill="#2B8B4B"/>
<path d="M194.232 0L204.615 18.9641L182.79 37.9636L194.232 0Z" fill="#D9782D"/>
<path d="M50.7472 36.6922C51.7713 35.9506 52.4423 35.0677 52.7601 34.0083L56.221 22.6369C56.5388 21.6127 56.3976 20.7299 55.7972 20.0236C55.1969 19.3173 54.3493 18.9641 53.1839 18.9641C54.314 18.9641 55.4088 18.611 56.4329 17.8694C57.457 17.1631 58.128 16.2802 58.4105 15.2207L61.8714 3.84933C62.1892 2.75457 62.0833 1.83638 61.5182 1.09477C60.9532 0.353152 60.0703 0 58.9049 0H13.9137L2.47168 37.681H47.4982C48.6283 37.787 49.7231 37.4338 50.7472 36.6922ZM19.8466 7.45145H41.3534H48.0986H49.5112C50.3234 7.62803 50.9944 8.12244 51.3829 8.79342C51.5241 9.25252 51.5947 9.74692 51.5947 10.2413C51.5947 10.5238 51.5594 10.7711 51.5241 11.0183L51.4535 11.2655L51.171 12.219C50.394 13.8788 48.7342 15.0795 46.7213 15.2914H45.344H17.4805L19.8466 7.45145ZM46.5447 27.5456C45.7325 29.0995 44.1433 30.1943 42.201 30.4415H40.7884H12.8896L15.2557 22.6722H36.7625H43.4017H44.8496C45.9444 22.9194 46.7566 23.6963 47.0038 24.6851C47.0391 24.897 47.0744 25.1442 47.0744 25.3561C47.0744 25.4621 47.0744 25.6033 47.0391 25.7093V25.8505L46.5447 27.5456ZM117.139 0.141263L105.909 37.7164H97.822L102.342 22.6369H69.8526L65.3323 37.7164H57.2805L68.5106 0.141263H76.5977L72.0774 15.2914H104.567L109.087 0.141263H117.139ZM119.505 37.8223H111.383L122.684 0.282521H130.806L119.505 37.8223ZM187.345 0.211892L183.99 11.3714L176.115 37.6457H168.028L173.361 19.7057L152.03 37.681L139.14 17.375L133.066 37.6457H124.979L133.667 8.72279L136.209 0.176575H136.351L141.789 8.47558L153.549 26.4509L187.345 0.211892Z" fill="#6D6E71"/>
<path d="M0 47.8871L1.44791 42.3426H3.0724C3.53149 42.3426 3.88464 42.3426 4.06122 42.4132C4.27311 42.4486 4.44968 42.5192 4.55562 42.6251C4.7322 42.7664 4.83814 42.9076 4.87346 43.1195C4.94409 43.3314 4.94409 43.5433 4.87346 43.7905C4.80283 44.073 4.66157 44.3202 4.44968 44.5321C4.23779 44.744 3.99059 44.8853 3.67275 44.9559C4.0259 44.9912 4.27311 45.1678 4.44968 45.415C4.59094 45.6622 4.62625 45.98 4.52031 46.3332C4.44968 46.5451 4.37905 46.757 4.20247 46.9689C4.06121 47.1808 3.88464 47.3573 3.67275 47.4986C3.46086 47.6398 3.21366 47.7458 2.93114 47.8164C2.64862 47.887 2.22484 47.9224 1.58917 47.9224H0V47.8871ZM1.20071 47.1454H1.55385C1.907 47.1454 2.18952 47.1454 2.3661 47.1101C2.54267 47.0748 2.71925 47.0395 2.82519 46.9689C2.96645 46.8982 3.10771 46.7923 3.21366 46.6863C3.3196 46.5451 3.39023 46.4391 3.42555 46.2626C3.46086 46.086 3.46086 45.9447 3.42555 45.8035C3.39023 45.6622 3.28429 45.5563 3.14303 45.4856C3.03708 45.4503 2.93114 45.415 2.82519 45.3797C2.68393 45.3797 2.54267 45.3444 2.33079 45.3444H2.01295H1.6598L1.20071 47.1454ZM1.83638 44.6734H2.22484C2.71925 44.6734 3.0724 44.6028 3.3196 44.4968C3.56681 44.3909 3.70807 44.179 3.7787 43.8965C3.84933 43.5786 3.81401 43.3667 3.67275 43.2608C3.49618 43.1548 3.17834 43.0842 2.64862 43.0842H2.26015L1.83638 44.6734ZM8.89936 47.8871L9.60566 45.2031H12.7487L12.0424 47.8871H13.0665L14.5144 42.3426H13.4903L12.9606 44.3909H9.81755L10.3473 42.3426H9.32314L7.87523 47.8871H8.89936ZM21.5068 47.8871L21.1536 46.4391H18.611L17.5162 47.8871H16.4214L21.0124 42.0954L22.6016 47.8871H21.5068ZM19.176 45.6975H20.9771L20.6592 44.4262C20.6592 44.3556 20.6239 44.2496 20.6239 44.1437C20.6239 44.0377 20.5886 43.9318 20.5886 43.7905C20.518 43.8965 20.4473 44.0377 20.3767 44.1437C20.3061 44.2496 20.2355 44.3556 20.1648 44.4262L19.176 45.6975ZM27.5103 45.415L26.8747 47.8871H25.8858L27.3338 42.3426H28.7817C29.2055 42.3426 29.5233 42.3779 29.7705 42.4132C29.9824 42.4486 30.159 42.5545 30.3002 42.6604C30.4768 42.8017 30.5827 42.9783 30.618 43.1902C30.6534 43.4021 30.6534 43.6493 30.5827 43.8965C30.4768 44.3556 30.2649 44.6734 29.9471 44.9559C29.6292 45.2031 29.2408 45.3797 28.7464 45.415L30.3002 47.9577H29.1348L27.6516 45.4856H27.5103V45.415ZM27.7575 44.7087H27.9341C28.4638 44.7087 28.8523 44.6381 29.0642 44.5321C29.2761 44.4262 29.4173 44.2143 29.488 43.9318C29.5586 43.6139 29.5233 43.4021 29.382 43.2961C29.2054 43.1549 28.8876 43.1195 28.3579 43.1195H28.1813L27.7575 44.7087ZM37.8223 47.8871L37.4691 46.4391H34.9265L33.7964 47.8871H32.7016L37.2926 42.0954L38.8817 47.8871H37.8223ZM35.5268 45.6975H37.3279L37.01 44.4262C36.9747 44.3556 36.9747 44.2496 36.9747 44.1437C36.9747 44.0377 36.9394 43.9318 36.9394 43.7905C36.8688 43.8965 36.7982 44.0377 36.7628 44.1437C36.6922 44.2496 36.6216 44.3556 36.551 44.4262L35.5268 45.6975ZM46.757 43.0842L46.9689 42.3073H42.5192L42.3073 43.0842H44.0024L42.7664 47.8871H43.7905L45.0265 43.0842H46.757ZM55.4798 47.8871L56.9277 42.3426H55.8682L54.4203 47.8871H55.4798ZM60.6357 47.8871L61.6599 44.0377C61.7305 44.1437 61.8011 44.2496 61.8718 44.3556C61.9424 44.4615 62.0483 44.5674 62.119 44.6381L65.3679 48.0989L66.8865 42.3426H65.933L64.9442 46.1919C64.8382 46.0507 64.7676 45.9447 64.697 45.8035C64.6263 45.6975 64.5204 45.5916 64.4498 45.4856L61.2714 42.0954L59.7529 47.8871H60.6357ZM74.5851 43.0842L74.7617 42.3073H70.3473L70.1355 43.0842H71.8306L70.5946 47.8871H71.654L72.89 43.0842H74.5851ZM80.4121 47.8871L80.624 47.0748H78.0813L78.5404 45.2738H81.0831L81.295 44.4968H78.7523L79.1054 43.0842H81.6481L81.86 42.3073H78.2579L76.81 47.8517H80.4121V47.8871ZM85.9212 45.415L85.2856 47.8871H84.2967L85.7447 42.3426H87.1926C87.6163 42.3426 87.9342 42.3779 88.1461 42.4132C88.358 42.4486 88.5345 42.5545 88.6758 42.6604C88.8524 42.8017 88.9583 42.9783 88.9936 43.1902C89.0289 43.4021 89.0289 43.6493 88.9583 43.8965C88.8524 44.3556 88.6405 44.6734 88.3226 44.9559C88.0048 45.2031 87.6163 45.3797 87.1219 45.415L88.6758 47.9577H87.5104L86.0272 45.4856H85.9212V45.415ZM86.1684 44.7087H86.345C86.91 44.7087 87.2632 44.6381 87.4751 44.5321C87.687 44.4262 87.8282 44.2143 87.8989 43.9318C87.9695 43.6139 87.9342 43.4021 87.7929 43.2961C87.6163 43.1549 87.2985 43.1195 86.7688 43.1195H86.5922L86.1684 44.7087ZM93.0548 47.8871L93.7258 45.2738H96.2685L96.4804 44.4968H93.9377L94.2909 43.1195H96.8335L97.0454 42.3426H93.4786L92.0307 47.8871H93.0548ZM103.331 47.8871L102.978 46.4391H100.436L99.3056 47.8871H98.2108L102.802 42.0954L104.391 47.8871H103.331ZM101.001 45.6975H102.802L102.484 44.4262C102.449 44.3556 102.449 44.2496 102.449 44.1437C102.449 44.0377 102.413 43.9318 102.413 43.7905C102.343 43.8965 102.272 44.0377 102.201 44.1437C102.131 44.2496 102.06 44.3556 102.025 44.4262L101.001 45.6975ZM114.103 42.7664C113.82 42.5898 113.537 42.4485 113.22 42.3426C112.902 42.2367 112.549 42.2013 112.16 42.2013C111.701 42.2013 111.242 42.272 110.783 42.4132C110.324 42.5545 109.9 42.7664 109.547 43.0489C109.158 43.3314 108.841 43.6493 108.558 44.0024C108.311 44.3556 108.099 44.744 107.993 45.1325C107.887 45.5563 107.887 45.9094 107.958 46.2979C108.028 46.651 108.205 46.9689 108.417 47.2514C108.664 47.5339 108.982 47.7105 109.37 47.8517C109.759 47.993 110.183 48.0636 110.677 48.0636C111.065 48.0636 111.419 48.0283 111.772 47.9224C112.125 47.8517 112.478 47.7105 112.796 47.5339L113.043 46.5098C112.655 46.757 112.301 46.9336 111.913 47.0395C111.525 47.1454 111.171 47.2161 110.783 47.2161C110.147 47.2161 109.653 47.0042 109.335 46.6157C109.017 46.2272 108.911 45.7328 109.088 45.1325C109.264 44.4968 109.618 44.0024 110.147 43.6139C110.677 43.2255 111.313 43.0136 112.019 43.0136C112.372 43.0136 112.725 43.0842 113.008 43.1902C113.29 43.2961 113.573 43.4727 113.82 43.6846L114.103 42.7664ZM120.283 47.8871L120.495 47.0748H117.952L118.411 45.2738H120.954L121.166 44.4968H118.623L118.976 43.0842H121.519L121.731 42.3073H118.164L116.716 47.8517H120.283V47.8871ZM130.63 47.8871L131.301 45.2738H133.844L134.055 44.4968H131.513L131.866 43.1195H134.409L134.621 42.3426H131.054L129.606 47.8871H130.63ZM144.262 45.1325C144.156 45.521 143.979 45.9094 143.696 46.2626C143.449 46.6157 143.096 46.9336 142.708 47.2161C142.319 47.4986 141.895 47.7105 141.436 47.8517C140.977 47.993 140.518 48.0636 140.094 48.0636C139.635 48.0636 139.211 47.993 138.823 47.8517C138.435 47.7105 138.117 47.4986 137.87 47.2161C137.622 46.9336 137.446 46.6157 137.375 46.2979C137.304 45.9447 137.304 45.5563 137.41 45.1678C137.516 44.7793 137.693 44.3909 137.94 44.0377C138.187 43.6846 138.54 43.3667 138.929 43.0842C139.317 42.8017 139.741 42.5898 140.2 42.4486C140.659 42.3073 141.118 42.2367 141.578 42.2367C142.037 42.2367 142.46 42.3073 142.849 42.4486C143.237 42.5898 143.52 42.8017 143.802 43.0842C144.05 43.3667 144.226 43.6846 144.297 44.0377C144.367 44.3556 144.367 44.744 144.262 45.1325ZM143.167 45.1325C143.237 44.85 143.237 44.5674 143.202 44.3202C143.167 44.073 143.061 43.8258 142.884 43.6493C142.708 43.4374 142.496 43.2961 142.249 43.1902C142.001 43.0842 141.719 43.0489 141.401 43.0489C141.083 43.0489 140.765 43.0842 140.483 43.1902C140.165 43.2961 139.882 43.4374 139.6 43.6493C139.317 43.8258 139.106 44.073 138.929 44.3202C138.752 44.5674 138.611 44.85 138.54 45.1325C138.47 45.415 138.47 45.6975 138.505 45.9447C138.54 46.1919 138.682 46.4391 138.823 46.6157C139 46.8276 139.211 46.9689 139.459 47.0748C139.706 47.1808 139.988 47.2161 140.306 47.2161C140.624 47.2161 140.942 47.1454 141.224 47.0748C141.542 46.9689 141.825 46.8276 142.107 46.6157C142.39 46.4038 142.602 46.1919 142.814 45.9447C142.955 45.6622 143.096 45.415 143.167 45.1325ZM149.064 45.415L148.429 47.8871H147.44L148.888 42.3426H150.336C150.759 42.3426 151.077 42.3779 151.324 42.4132C151.536 42.4486 151.713 42.5545 151.854 42.6604C152.031 42.8017 152.137 42.9783 152.172 43.1902C152.207 43.4021 152.207 43.6493 152.137 43.8965C152.031 44.3556 151.819 44.6734 151.501 44.9559C151.183 45.2031 150.795 45.3797 150.3 45.415L151.854 47.9577H150.689L149.206 45.4856H149.064V45.415ZM149.312 44.7087H149.488C150.053 44.7087 150.406 44.6381 150.618 44.5321C150.83 44.4262 150.971 44.2143 151.042 43.9318C151.113 43.6139 151.077 43.4021 150.936 43.2961C150.759 43.1549 150.442 43.1195 149.912 43.1195H149.735L149.312 44.7087ZM166.475 47.8871H167.428L167.393 42.0954L164.638 45.5916L164.532 45.7328C164.32 45.98 164.179 46.1919 164.073 46.3332C164.038 46.1566 164.003 45.9801 163.967 45.8388C163.932 45.6975 163.932 45.6269 163.897 45.5563L162.943 42.0601L159.906 47.8517H160.86L162.272 45.0972C162.343 44.9559 162.413 44.8147 162.449 44.7087C162.484 44.5674 162.555 44.4615 162.59 44.3556C162.59 44.4615 162.625 44.6028 162.625 44.7087C162.661 44.8147 162.661 44.9559 162.696 45.0619L163.579 48.0989L166.015 45.1325C166.121 44.9912 166.227 44.8853 166.298 44.744C166.369 44.6028 166.439 44.4968 166.51 44.3556C166.51 44.4615 166.475 44.6028 166.475 44.744C166.439 44.9559 166.439 45.0619 166.439 45.0972V47.8871H166.475ZM178.27 45.1325C178.164 45.521 177.987 45.9094 177.74 46.2626C177.493 46.6157 177.14 46.9336 176.751 47.2161C176.363 47.4986 175.939 47.7105 175.48 47.8517C175.021 47.993 174.562 48.0636 174.103 48.0636C173.644 48.0636 173.22 47.993 172.831 47.8517C172.443 47.7105 172.125 47.4986 171.878 47.2161C171.631 46.9336 171.454 46.6157 171.383 46.2979C171.313 45.9447 171.313 45.5563 171.419 45.1678C171.525 44.7793 171.701 44.3909 171.948 44.0377C172.196 43.6846 172.549 43.3667 172.937 43.0842C173.326 42.8017 173.749 42.5898 174.209 42.4486C174.668 42.3073 175.127 42.2367 175.586 42.2367C176.045 42.2367 176.469 42.3073 176.822 42.4486C177.21 42.5898 177.528 42.8017 177.775 43.0842C178.023 43.3667 178.199 43.6846 178.27 44.0377C178.376 44.3556 178.376 44.744 178.27 45.1325ZM177.175 45.1325C177.246 44.85 177.246 44.5674 177.21 44.3202C177.175 44.073 177.034 43.8258 176.893 43.6493C176.716 43.4374 176.504 43.2961 176.257 43.1902C176.01 43.0842 175.727 43.0489 175.409 43.0489C175.091 43.0489 174.774 43.0842 174.456 43.1902C174.138 43.2961 173.855 43.4374 173.573 43.6493C173.29 43.8258 173.078 44.073 172.902 44.3202C172.725 44.5674 172.584 44.85 172.513 45.1325C172.443 45.415 172.443 45.6975 172.478 45.9447C172.549 46.1919 172.655 46.4391 172.796 46.6157C172.973 46.8276 173.184 46.9689 173.432 47.0748C173.679 47.1808 173.961 47.2161 174.279 47.2161C174.597 47.2161 174.915 47.1454 175.233 47.0748C175.551 46.9689 175.833 46.8276 176.116 46.6157C176.398 46.4038 176.61 46.1919 176.787 45.9447C176.963 45.6622 177.104 45.415 177.175 45.1325ZM182.402 47.8871L183.39 44.0377C183.461 44.1437 183.532 44.2496 183.602 44.3556C183.673 44.4615 183.744 44.5674 183.85 44.6381L187.099 48.0989L188.617 42.3426H187.664L186.675 46.1919C186.569 46.0507 186.498 45.9447 186.392 45.8035C186.322 45.6975 186.216 45.5916 186.145 45.4856L182.967 42.0954L181.448 47.8871H182.402ZM194.903 47.8871L195.115 47.0748H192.572L193.031 45.2738H195.574L195.786 44.4968H193.243L193.596 43.0842H196.139L196.351 42.3073H192.784L191.336 47.8517H194.903V47.8871ZM201.224 47.8871L201.895 45.3444L204.897 42.3426H203.838L201.966 44.2143C201.895 44.2849 201.825 44.3556 201.754 44.4262C201.684 44.4968 201.613 44.6028 201.542 44.6734C201.507 44.5674 201.507 44.4968 201.472 44.4262C201.436 44.3556 201.401 44.2849 201.401 44.2496L200.554 42.3779H199.459L200.836 45.3797L200.165 47.9224H201.224V47.8871Z" fill="#6D6E71"/>
</svg>
