<svg width="35" height="41" viewBox="0 0 35 41" fill="none" xmlns="http://www.w3.org/2000/svg">
<path d="M22.007 41H6.49652C2.91423 41 0 38.1263 0 34.5938V12.8926C0 9.36007 2.91423 6.48633 6.49652 6.48633H22.007C25.5892 6.48633 28.5035 9.36007 28.5035 12.8926V34.5938C28.5035 38.1263 25.5892 41 22.007 41ZM6.49652 9.68945C4.70554 9.68945 3.24826 11.1265 3.24826 12.8926V34.5938C3.24826 36.3598 4.70554 37.7969 6.49652 37.7969H22.007C23.7979 37.7969 25.2552 36.3598 25.2552 34.5938V12.8926C25.2552 11.1265 23.7979 9.68945 22.007 9.68945H6.49652ZM35 30.5898V6.40625C35 2.87374 32.0858 0 28.5035 0H10.4756C9.57856 0 8.85151 0.716949 8.85151 1.60156C8.85151 2.48618 9.57856 3.20312 10.4756 3.20312H28.5035C30.2945 3.20312 31.7517 4.64015 31.7517 6.40625V30.5898C31.7517 31.4745 32.4788 32.1914 33.3759 32.1914C34.2729 32.1914 35 31.4745 35 30.5898Z" fill="url(#paint0_linear_3976_102859)"/>
<defs>
<linearGradient id="paint0_linear_3976_102859" x1="0" y1="20.5" x2="35.0001" y2="20.5" gradientUnits="userSpaceOnUse">
<stop stop-color="#F2D71A"/>
<stop offset="1" stop-color="#ECB024"/>
</linearGradient>
</defs>
</svg>
