<svg width="12" height="12" viewBox="0 0 12 12" fill="none" xmlns="http://www.w3.org/2000/svg">
<g clip-path="url(#clip0_4450_141131)">
<path d="M11.9993 5.99573C11.9952 9.00324 9.76642 11.5435 6.78473 11.9391C5.26557 12.1465 3.72559 11.755 2.49044 10.8464C2.21725 10.6482 2.21725 10.6432 2.44713 10.4091C5.10399 7.7506 7.76252 5.09207 10.4219 2.43437C10.6476 2.20866 10.6518 2.20866 10.8442 2.47101C11.5862 3.49711 11.9902 4.72977 12.0002 5.99573H11.9993ZM7.22698 6.74199C7.21366 6.63288 7.1437 6.5346 7.0196 6.58374C6.82721 6.66453 6.67312 6.81611 6.589 7.00767C6.5332 7.12761 6.61899 7.21423 6.75058 7.22339C6.88218 7.23255 7.22032 6.88024 7.22782 6.74115V6.74282L7.22698 6.74199ZM8.12566 5.84831C8.12732 5.78835 8.09734 5.73254 8.04653 5.7009C7.98323 5.65425 7.89495 5.66092 7.83998 5.71755C7.72504 5.81333 7.6201 5.91994 7.52432 6.03488C7.46186 6.10817 7.47018 6.21894 7.54431 6.28141C7.57679 6.30889 7.61844 6.32388 7.66091 6.32305C7.77668 6.32472 8.12649 5.97075 8.12566 5.84748V5.84915V5.84831ZM6.32332 7.65565C6.3 7.54071 6.23337 7.4341 6.09345 7.49574C5.91854 7.57569 5.77695 7.71562 5.6945 7.88885C5.6287 8.02544 5.71532 8.11123 5.85857 8.11956C5.96685 8.12539 6.31499 7.78058 6.32332 7.65398V7.65565ZM4.95741 9.02156C5.06901 9.0149 5.41549 8.67425 5.41632 8.56515C5.41632 8.49768 5.38051 8.43522 5.32054 8.40274C5.26307 8.36359 5.18561 8.36859 5.13481 8.41606C5.01987 8.521 4.9091 8.63344 4.80416 8.74921C4.75752 8.80085 4.75169 8.87747 4.79083 8.93494C4.82581 8.99657 4.89494 9.02989 4.96407 9.0199L4.95741 9.02156ZM9.01766 4.92299C8.99684 4.81389 8.92188 4.72477 8.80028 4.7864C8.61622 4.86469 8.4688 5.01211 8.39051 5.19617C8.34387 5.31194 8.42299 5.40523 8.55292 5.41772C8.68285 5.43021 9.02682 5.06541 9.02433 4.92716L9.01766 4.92299ZM9.91633 4.01849C9.89051 3.89273 9.7989 3.81777 9.67064 3.8819C9.51489 3.96352 9.38912 4.09262 9.3125 4.25086C9.26419 4.33082 9.29001 4.43493 9.36997 4.48324C9.39412 4.49739 9.42161 4.50572 9.44909 4.50739C9.57902 4.53487 9.92883 4.16008 9.923 4.02266L9.91633 4.01849ZM4.30776 9.29308C4.13453 9.32306 4.04125 9.49547 3.91548 9.62123C3.84802 9.67953 3.84052 9.78114 3.89799 9.8486C3.90299 9.85443 3.90882 9.86026 3.91548 9.86609C3.97795 9.93439 4.08289 9.93855 4.15118 9.87692C4.15452 9.87359 4.15868 9.87026 4.16201 9.86609C4.27695 9.77115 4.38189 9.66371 4.47517 9.54794C4.57179 9.44133 4.4885 9.3064 4.31526 9.29807L4.3086 9.29391L4.30776 9.29308ZM3.15757 10.8222C3.32997 10.7756 3.43075 10.6107 3.56068 10.4708C3.62064 10.4125 3.62148 10.3158 3.56318 10.2567C3.55984 10.2534 3.55651 10.25 3.55318 10.2467C3.49571 10.1793 3.39577 10.1701 3.32664 10.2251C3.20171 10.3208 3.0901 10.4324 2.99432 10.5574C2.91104 10.6848 2.99432 10.8256 3.16506 10.8264L3.1584 10.8222H3.15757ZM10.3694 3.58207C10.506 3.58207 10.82 3.26641 10.8217 3.13148C10.8283 3.07651 10.805 3.02321 10.76 2.99073C10.6934 2.94992 10.6085 2.95658 10.5493 3.00738C10.4452 3.1015 10.3461 3.20144 10.2511 3.30555C10.1995 3.36385 10.192 3.44881 10.232 3.51627C10.2611 3.56708 10.3169 3.59623 10.3752 3.59123L10.3686 3.5829L10.3694 3.58207Z" fill="#100F0F"/>
<path d="M0 6.10401C0 3.00406 2.22377 0.452132 5.21212 0.0556844C6.79958 -0.155865 8.24378 0.239749 9.54806 1.16757C9.74378 1.30416 9.74462 1.39578 9.57554 1.56402C6.90202 4.22921 4.23183 6.89857 1.56663 9.57376C1.39423 9.74616 1.30595 9.732 1.16935 9.54211C0.438091 8.54266 0.0299834 7.34249 0 6.10401ZM6.32317 4.00434C6.28736 3.91272 6.2099 3.8211 6.07748 3.8894C5.91756 3.97768 5.78597 4.10761 5.69602 4.26669C5.62106 4.39495 5.69602 4.49073 5.83261 4.51572C5.9692 4.54071 6.32567 4.17174 6.32317 4.00517V4.00434ZM5.42117 4.93882C5.40035 4.82805 5.32706 4.7256 5.20629 4.78057C5.01306 4.86303 4.86065 5.01877 4.78236 5.21367C4.73572 5.33693 4.83733 5.41439 4.96559 5.41606C5.09385 5.41772 5.41784 5.06208 5.42034 4.93965L5.42117 4.93882ZM4.52084 5.85165C4.5225 5.75587 4.44588 5.67674 4.3501 5.67508C4.31678 5.67508 4.2843 5.68341 4.25598 5.7009C4.12355 5.80084 4.00612 5.91828 3.90618 6.05071C3.84871 6.12483 3.86203 6.23144 3.93616 6.28807C3.96697 6.31139 4.00445 6.32389 4.04277 6.32389C4.1627 6.32222 4.51917 5.97408 4.52084 5.85082V5.85165ZM2.23127 8.12539C2.36786 8.12539 2.69684 7.80057 2.69601 7.66065C2.69518 7.52073 2.55942 7.42161 2.44698 7.5074C2.31622 7.60735 2.19962 7.72478 2.10134 7.85721C2.04304 7.9255 2.05137 8.02795 2.11966 8.08625C2.15048 8.1129 2.19046 8.12623 2.23043 8.12456L2.23127 8.12539ZM6.73961 3.60706C6.89286 3.61372 7.24933 3.25225 7.22434 3.11899C7.22601 3.03237 7.15688 2.96075 7.06943 2.95908C7.03944 2.95908 7.01029 2.96658 6.98447 2.9824C6.8229 3.06735 6.68964 3.19811 6.60052 3.35803C6.5239 3.49878 6.61801 3.57541 6.73545 3.60706H6.73794H6.73961ZM3.13993 7.22589C3.26819 7.22589 3.61384 6.88691 3.61134 6.75865C3.61134 6.69035 3.57303 6.62872 3.51306 6.59707C3.45392 6.56042 3.37813 6.57042 3.32983 6.62039C3.22155 6.72117 3.11495 6.82528 3.01417 6.93438C2.9617 6.99185 2.9542 7.07764 2.99668 7.14343C3.025 7.19591 3.0808 7.22755 3.13993 7.22506V7.22589ZM9.02751 1.30666C9.00419 1.17007 8.89092 1.13009 8.77598 1.19339C8.62107 1.27584 8.49447 1.40327 8.41285 1.55819C8.34206 1.69478 8.41285 1.7839 8.5661 1.79306C8.71935 1.80222 9.03584 1.45991 9.02751 1.30083V1.30666ZM8.12551 2.23698C8.12135 2.14286 8.04139 2.0704 7.94728 2.07457C7.91313 2.07623 7.87981 2.08789 7.85233 2.10872C7.72656 2.20366 7.61413 2.31444 7.51751 2.43937C7.4209 2.56763 7.49419 2.66091 7.63245 2.69339C7.77071 2.72588 8.1355 2.3819 8.12551 2.23198V2.23781V2.23698ZM1.6316 8.38525C1.49501 8.39358 1.17269 8.73256 1.17102 8.85249C1.15769 8.93578 1.21433 9.01407 1.29762 9.02739C1.31844 9.03073 1.34009 9.02989 1.36091 9.02406C1.48085 9.01324 1.78984 8.69591 1.79401 8.57847C1.8115 8.48852 1.75236 8.40191 1.66325 8.38442C1.65242 8.38275 1.64243 8.38108 1.6316 8.38108V8.38358V8.38525Z" fill="#100F0F"/>
<path d="M10.3683 1.92212C10.3492 1.9596 10.3267 1.99542 10.3025 2.0304C10.2642 2.07537 10.2217 2.11535 10.1809 2.15616C7.50489 4.83218 4.82887 7.50904 2.15285 10.1842C2.02875 10.3083 1.9313 10.4258 1.75557 10.2317C1.63147 10.0951 1.63563 10.0143 1.7639 9.88606C4.47823 7.17755 7.19006 4.46738 9.90107 1.75638C9.95604 1.70058 10.0077 1.6023 10.1043 1.65394C10.2126 1.72057 10.3033 1.81218 10.3683 1.92212Z" fill="#100F0F"/>
</g>
<defs>
<clipPath id="clip0_4450_141131">
<rect width="11.97" height="11.9675" fill="white"/>
</clipPath>
</defs>
</svg>
