<svg width="12" height="12" viewBox="0 0 12 12" fill="none" xmlns="http://www.w3.org/2000/svg">
<path d="M5.98043 11.9667C2.71014 12.0057 0 9.26152 0 5.98625C0.021608 2.68355 2.69768 0.0141283 6.00038 0C9.29643 0.032412 11.955 2.70516 11.97 6.00121C11.9725 9.26817 9.25903 12.0124 5.98126 11.9667H5.98043ZM6.23225 2.75918V3.57363C6.22394 3.67585 6.26798 3.77475 6.34943 3.83791C6.91456 4.2867 7.47803 4.73714 8.0415 5.19008C8.1163 5.25739 8.22268 5.27651 8.31659 5.23994C8.87341 5.04879 9.43272 4.86263 9.99453 4.67979C10.1017 4.6532 10.1832 4.56677 10.204 4.45873C10.312 3.98917 10.4225 3.52127 10.5356 3.05421C10.5655 2.94866 10.543 2.83563 10.4749 2.75003C9.94882 2.0245 9.25654 1.4361 8.45704 1.0322C8.34817 0.969867 8.21686 0.961556 8.10051 1.01059C7.54119 1.23914 6.97938 1.46353 6.41425 1.68293C6.29125 1.71784 6.2123 1.83834 6.22975 1.96467C6.23806 2.23144 6.23225 2.49572 6.23225 2.76001V2.75918ZM5.74357 2.75918C5.74357 2.5032 5.73526 2.2464 5.74357 1.99043C5.76767 1.84665 5.67626 1.70953 5.53414 1.67711C4.97732 1.46519 4.42216 1.24578 3.86866 1.01973C3.74649 0.968205 3.60687 0.978178 3.49302 1.04716C2.70765 1.44691 2.02783 2.0245 1.50674 2.73507C1.43111 2.82483 1.40452 2.94534 1.43527 3.05836C1.5483 3.51712 1.65551 3.97504 1.75856 4.4338C1.781 4.55763 1.87491 4.65652 1.99791 4.68395C2.54808 4.86014 3.09244 5.04381 3.63181 5.23412C3.74068 5.27983 3.86617 5.25739 3.9526 5.17595C4.50278 4.73298 5.05295 4.29168 5.60312 3.85287C5.69288 3.79054 5.7444 3.68666 5.74108 3.57779C5.73942 3.30104 5.74274 3.02928 5.74357 2.75834V2.76001V2.75918ZM0.497815 6.6536C0.589234 7.45725 0.860996 8.23015 1.29316 8.91496C1.34219 8.98643 1.42114 9.03214 1.50757 9.03879C2.0511 9.12439 2.59545 9.20251 3.13898 9.29227C3.23871 9.31637 3.34176 9.27233 3.39495 9.18506C3.63929 8.85429 3.88612 8.52519 4.13627 8.19857C4.20691 8.11547 4.23018 8.00161 4.19777 7.89772C4.02989 7.23619 3.86118 6.57465 3.69995 5.91145C3.6825 5.80258 3.60189 5.71532 3.49468 5.68872L1.81757 5.12858C1.73113 5.08702 1.62725 5.11528 1.57572 5.19589C1.24828 5.59897 0.910029 5.99622 0.580092 6.3968C0.517761 6.46744 0.487842 6.56052 0.497815 6.65443V6.6536ZM11.4705 6.68934C11.4938 6.57299 11.4581 6.45248 11.3741 6.36771C11.0483 5.98375 10.7234 5.5973 10.4109 5.20504C10.3552 5.1186 10.2439 5.08702 10.1508 5.13107C9.6006 5.31474 9.05043 5.49757 8.50025 5.68124C8.3864 5.71033 8.29996 5.80341 8.28002 5.91893C8.12212 6.57465 7.95507 7.22871 7.78636 7.88027C7.75229 8.00078 7.78304 8.13043 7.86781 8.22268C8.10716 8.52685 8.34484 8.83352 8.56923 9.15016C8.63655 9.26651 8.77368 9.32302 8.90333 9.28812C9.42192 9.20168 9.943 9.12606 10.4649 9.04461C10.5597 9.03713 10.6453 8.98643 10.6976 8.90665C11.1173 8.23431 11.3824 7.4772 11.4722 6.68934H11.4705ZM6.00038 8.36645H4.81443C4.68894 8.35648 4.56843 8.41465 4.49779 8.51937C4.27506 8.8277 4.04568 9.13187 3.80966 9.43106C3.72073 9.52248 3.71408 9.66709 3.79553 9.76515C4.11882 10.258 4.43546 10.7558 4.75044 11.2536C4.80861 11.3542 4.91 11.4232 5.02552 11.4389C5.72196 11.5611 6.43503 11.5503 7.12732 11.4057C7.242 11.3833 7.34007 11.3085 7.3916 11.2037C7.66669 10.7234 7.93346 10.2405 8.21686 9.77014C8.29082 9.66626 8.27836 9.52414 8.18694 9.43605C7.9559 9.14434 7.72902 8.84848 7.51294 8.54763C7.43232 8.42213 7.28855 8.35149 7.13978 8.36479C6.75499 8.37144 6.37353 8.36645 5.99954 8.36645H6.00038Z" fill="#454545"/>
</svg>
