<svg width="12" height="12" viewBox="0 0 12 12" fill="none" xmlns="http://www.w3.org/2000/svg">
<path d="M5.70014 6.3825C6.42931 7.37916 7.11514 8.39916 8.09347 9.16166C8.65597 9.6 8.90847 10.1592 8.82931 10.8742C8.80431 11.1 8.82597 11.33 8.82514 11.5583C8.82347 11.9925 8.82347 11.9942 8.40097 11.9942C7.00014 11.9942 5.60014 11.9942 4.19931 11.9942C2.92347 11.9942 1.64681 11.9867 0.370973 12C0.0843062 12.0025 -0.00402709 11.9108 0.000139579 11.6275C0.0159729 10.4867 -0.00569375 9.345 0.0176396 8.20416C0.0468062 6.79833 0.245973 5.415 0.70764 4.08083C0.950973 3.3775 1.30264 2.73416 1.83931 2.20583C2.22764 1.82416 2.69681 1.60916 3.23931 1.63166C3.90514 1.65833 4.37264 1.39916 4.68181 0.809996C4.89514 0.404162 5.25431 0.159162 5.68764 0.028329C5.93847 -0.0475044 6.05514 0.0366623 6.03014 0.292496C5.95931 1.02083 6.28514 1.54416 6.83681 1.975C8.04597 2.92083 9.24847 3.87583 10.4535 4.8275C10.5426 4.89833 10.6335 4.9675 10.7201 5.0425C11.0735 5.35166 11.1101 5.77833 10.8118 6.14666C10.6293 6.3725 10.4418 6.595 10.2526 6.815C9.87681 7.2525 9.37264 7.3625 8.84931 7.125C8.80181 7.10333 8.75264 7.08416 8.71097 7.05416C8.17597 6.6775 7.60597 6.535 6.94764 6.68666C6.50597 6.7875 6.09514 6.59 5.70014 6.3825Z" fill="#1A1A1A"/>
</svg>
