<svg width="208" height="55" viewBox="0 0 208 55" fill="none" xmlns="http://www.w3.org/2000/svg">
<g clip-path="url(#clip0_4038_103127)">
<path d="M142.834 43.213V33.2277C142.834 30.7701 141.887 29.5413 139.521 29.5413C138.574 29.5413 137.47 29.6952 136.838 29.8483V44.4418C136.838 44.9027 136.365 45.3636 135.891 45.3636H132.262C131.789 45.3636 131.315 44.9027 131.315 44.4418V27.3907C131.315 26.7758 131.789 26.3157 132.262 26.1618C134.629 25.3939 136.995 24.933 139.52 24.933C145.2 24.933 148.356 27.8516 148.356 33.2285V44.5957C148.356 45.0566 147.882 45.5175 147.409 45.5175H145.2C143.78 45.5167 142.834 44.4418 142.834 43.213ZM157.034 37.222L156.876 38.6047C156.876 40.4484 158.139 41.5233 160.189 41.5233C161.767 41.5233 163.187 41.0624 164.766 40.2944C164.924 40.2944 165.081 40.1405 165.239 40.1405C165.554 40.1405 165.712 40.2945 165.87 40.4475C166.029 40.6015 166.344 41.0624 166.344 41.0624C166.659 41.5233 166.975 42.1373 166.975 42.5982C166.975 43.3661 166.502 44.134 165.871 44.4418C164.136 45.3636 162.085 45.8245 159.876 45.8245C157.351 45.8245 155.3 45.2097 153.722 43.9809C152.145 42.5982 151.198 40.7554 151.198 38.4508V32.4598C151.198 27.6977 154.354 24.7791 159.719 24.7791C164.925 24.7791 167.923 27.5446 167.923 32.4598V36.1463C167.923 36.6072 167.45 37.0681 166.976 37.0681H157.036L157.034 37.222ZM156.876 33.8426H162.872V32.3067C162.872 30.4631 161.768 29.2343 159.874 29.2343C157.98 29.2343 156.876 30.3092 156.876 32.3067V33.8426ZM197.112 37.222L196.954 38.6047C196.954 40.4484 198.216 41.5233 200.267 41.5233C201.844 41.5233 203.265 41.0624 204.843 40.2944C205.001 40.2944 205.158 40.1405 205.316 40.1405C205.632 40.1405 205.79 40.2945 205.948 40.4475C206.106 40.6015 206.421 41.0624 206.421 41.0624C206.737 41.5233 207.053 42.1373 207.053 42.5982C207.053 43.3661 206.579 44.134 205.949 44.4418C204.213 45.3636 202.162 45.8245 199.953 45.8245C197.429 45.8245 195.377 45.2097 193.8 43.9809C192.222 42.5982 191.275 40.7554 191.275 38.4508V32.4598C191.275 27.6977 194.431 24.7791 199.796 24.7791C205.003 24.7791 208 27.5446 208 32.4598V36.1463C208 36.6072 207.527 37.0681 207.054 37.0681H197.114V37.222H197.112ZM196.954 33.8426H202.949V32.3067C202.949 30.4631 201.845 29.2343 199.952 29.2343C198.058 29.2343 196.954 30.3092 196.954 32.3067V33.8426ZM104.176 45.5167H106.385C106.859 45.5167 107.332 45.0558 107.332 44.5949V33.2277C107.332 28.0047 104.492 24.9322 99.7584 24.9322C98.3382 24.9322 96.7607 25.2392 95.8138 25.547V19.863C95.8138 18.6342 94.7097 17.5585 93.4467 17.5585H91.2377C90.7643 17.5585 90.2909 18.0194 90.2909 18.4803V44.5949C90.2909 45.0558 90.7643 45.5167 91.2377 45.5167H94.867C95.3404 45.5167 95.8138 45.0558 95.8138 44.5949V30.1553C96.6026 29.8483 97.7075 29.6944 98.4963 29.6944C100.863 29.6944 101.809 30.7693 101.809 33.3808V43.3661C101.967 44.4418 102.914 45.5167 104.176 45.5167ZM128.002 32.6129V38.2969C128.002 43.0591 124.689 45.9776 119.166 45.9776C113.801 45.9776 110.33 43.0591 110.33 38.2969V32.6129C110.33 27.8508 113.643 24.9322 119.166 24.9322C124.689 24.9322 128.002 27.8516 128.002 32.6129ZM122.48 32.6129C122.48 30.7693 121.376 29.5405 119.324 29.5405C117.272 29.5405 116.168 30.6154 116.168 32.6129V38.2969C116.168 40.1405 117.272 41.2155 119.324 41.2155C121.376 41.2155 122.48 40.1405 122.48 38.2969V32.6129ZM87.294 30.0022C87.294 34.9183 83.5075 38.2977 78.458 38.2977C77.1958 38.2977 76.0909 38.1438 74.9868 37.6829V44.5957C74.9868 45.0566 74.5134 45.5175 74.04 45.5175H70.4107C69.9373 45.5175 69.4639 45.0566 69.4639 44.5957V20.1709C69.4639 19.556 69.9373 19.0959 70.4107 18.942C72.7778 18.1741 75.144 17.7132 77.6684 17.7132C83.3486 17.7132 87.2932 21.0927 87.2932 26.3157C87.294 26.3149 87.294 30.0022 87.294 30.0022ZM81.6138 26.0079C81.6138 23.5503 79.8782 22.3215 77.5111 22.3215C76.0909 22.3215 75.144 22.7824 75.144 22.7824V32.9207C76.0909 33.3816 76.5643 33.5356 77.6684 33.5356C80.0355 33.5356 81.7711 32.1528 81.7711 29.8491V26.0087H81.6138V26.0079ZM189.223 30.0022C189.223 34.9183 185.436 38.2977 180.387 38.2977C179.124 38.2977 178.02 38.1438 176.915 37.6829V44.5957C176.915 45.0566 176.442 45.5175 175.969 45.5175H172.339C171.866 45.5175 171.393 45.0566 171.393 44.5957V20.1709C171.393 19.556 171.866 19.0959 172.339 18.942C174.706 18.1741 177.073 17.7132 179.597 17.7132C185.277 17.7132 189.222 21.0927 189.222 26.3157C189.223 26.3149 189.223 30.0022 189.223 30.0022ZM183.543 26.0079C183.543 23.5503 181.807 22.3215 179.44 22.3215C178.02 22.3215 177.073 22.7824 177.073 22.7824V32.9207C178.02 33.3816 178.493 33.5356 179.597 33.5356C181.964 33.5356 183.7 32.1528 183.7 29.8491V26.0087H183.543V26.0079Z" fill="#5F259F"/>
<path d="M28.2436 54.9978C43.8422 54.9978 56.4873 42.6868 56.4873 27.5005C56.4873 12.3141 43.8422 0.00317383 28.2436 0.00317383C12.6451 0.00317383 0 12.3141 0 27.5005C0 42.6868 12.6451 54.9978 28.2436 54.9978Z" fill="#5F259F"/>
<path d="M41.0626 20.3239C41.0626 19.249 40.1158 18.3272 39.0117 18.3272H35.2252L26.5473 8.64978C25.7585 7.72797 24.4964 7.42097 23.2342 7.72797L20.2364 8.64978C19.763 8.80369 19.6049 9.41769 19.9211 9.72469L29.3878 18.4811H15.028C14.5546 18.4811 14.2393 18.7881 14.2393 19.249V20.7849C14.2393 21.8598 15.1861 22.7816 16.2902 22.7816H18.4992V30.1553C18.4992 35.6854 21.4969 38.9117 26.5464 38.9117C28.124 38.9117 29.387 38.7578 30.9645 38.1438V43.0599C30.9645 44.4426 32.0685 45.5175 33.4888 45.5175H35.6978C36.1712 45.5175 36.6446 45.0566 36.6446 44.5957V22.6285H40.2739C40.7473 22.6285 41.0626 22.3215 41.0626 21.8606V20.3239ZM30.9645 33.5347C30.0176 33.9957 28.7555 34.1496 27.8086 34.1496C25.2843 34.1496 24.0221 32.9207 24.0221 30.1553V22.7816H30.9645V33.5347Z" fill="black"/>
</g>
<defs>
<clipPath id="clip0_4038_103127">
<rect width="208" height="55" fill="white"/>
</clipPath>
</defs>
</svg>
