<svg width="12" height="12" viewBox="0 0 12 12" fill="none" xmlns="http://www.w3.org/2000/svg">
<g clip-path="url(#clip0_4450_141138)">
<path d="M6.66883 11.8861C6.55218 11.925 6.48682 11.8588 6.46283 11.7008C6.23779 10.2224 5.56105 8.96568 4.55751 7.87776C3.41995 6.64423 2.05487 5.79291 0.387829 5.48433C-0.0597505 5.40159 0.00560763 5.42393 0.0668292 5.03344C0.496207 2.30991 2.67288 0.345026 5.21606 0.0389178C5.3749 0.0198895 5.44026 0.0579462 5.46425 0.217619C5.67356 1.61248 6.29405 2.81622 7.21238 3.8694C8.30278 5.12031 9.63311 5.99726 11.2646 6.38031C11.4069 6.4134 11.5525 6.44153 11.6973 6.45725C11.8528 6.47463 11.9041 6.53667 11.8818 6.70048C11.6427 8.47012 10.7905 9.86746 9.32948 10.8867C8.5427 11.4361 7.66492 11.7628 6.66717 11.8853L6.66883 11.8861Z" fill="#100F0F"/>
<path d="M11.9183 5.48017C11.9249 5.78959 11.905 5.80945 11.6353 5.75733C9.96745 5.43053 8.6545 4.52628 7.58726 3.23897C6.87163 2.37525 6.36614 1.4015 6.1651 0.286271C6.11629 0.0165655 6.13449 -0.0156999 6.41495 0.00581032C7.72873 0.106743 8.89194 0.586587 9.88224 1.45196C11.062 2.4828 11.7247 3.79327 11.91 5.34698C11.9166 5.40075 11.9174 5.45453 11.9191 5.48017H11.9183Z" fill="#100F0F"/>
<path d="M5.45367 11.9117C4.17298 11.7984 2.99653 11.3136 2.00044 10.4242C0.848815 9.39667 0.201025 8.10192 0.0190146 6.57303C-0.0355884 6.11304 0.00246823 6.07912 0.497204 6.19826C1.96073 6.54987 3.16117 7.33665 4.14981 8.4527C4.95893 9.36606 5.53392 10.4052 5.75977 11.618C5.81272 11.9051 5.79783 11.9208 5.45367 11.9117Z" fill="#100F0F"/>
</g>
<defs>
<clipPath id="clip0_4450_141138">
<rect width="11.92" height="11.9134" fill="white"/>
</clipPath>
</defs>
</svg>
