<svg width="36" height="36" viewBox="0 0 36 36" fill="none" xmlns="http://www.w3.org/2000/svg">
<path fill-rule="evenodd" clip-rule="evenodd" d="M30.7546 5.23132C27.3709 1.85953 22.8706 0.0017107 18.0756 0C8.1951 0 0.153846 8.00181 0.150408 17.8375C0.148689 20.9817 0.974646 24.0507 2.54319 26.7554L0 36L9.50236 33.5195C12.1203 34.9411 15.0683 35.6895 18.0679 35.6904H18.0756C27.9544 35.6904 35.9966 27.6877 36 17.852C36.0017 13.0852 34.1392 8.60398 30.7546 5.23218V5.23132ZM26.2475 21.5737C25.7997 21.3504 23.5978 20.2726 23.1869 20.1239C22.7761 19.975 22.4779 19.9006 22.1796 20.3471C21.8814 20.7936 21.0228 21.7978 20.7615 22.0946C20.5002 22.3922 20.2389 22.429 19.7911 22.2057C19.3434 21.9825 17.9003 21.5121 16.1891 19.9938C14.8578 18.8117 13.9587 17.3525 13.6975 16.906C13.4362 16.4595 13.67 16.2183 13.8934 15.9968C14.0945 15.7966 14.3412 15.4759 14.5655 15.2158C14.7899 14.9558 14.8638 14.7694 15.0133 14.4725C15.1629 14.1748 15.0881 13.9149 14.9764 13.6916C14.8646 13.4684 13.9691 11.2743 13.5952 10.3822C13.2316 9.51322 12.8621 9.63126 12.5879 9.61672C12.3266 9.60388 12.0284 9.60132 11.7293 9.60132C11.4302 9.60132 10.9454 9.71251 10.5346 10.159C10.1238 10.6055 8.96691 11.6841 8.96691 13.8772C8.96691 16.0703 10.5716 18.1908 10.7959 18.4884C11.0202 18.7861 13.9544 23.2878 18.4469 25.2192C19.5153 25.6785 20.3498 25.953 21.0004 26.1584C22.0731 26.4979 23.0494 26.4501 23.8212 26.3354C24.6816 26.2071 26.471 25.2568 26.844 24.2158C27.217 23.1748 27.217 22.2819 27.1053 22.0962C26.9936 21.9106 26.6945 21.7986 26.2467 21.5754L26.2475 21.5737Z" fill="url(#paint0_linear_4763_111713)"/>
<defs>
<linearGradient id="paint0_linear_4763_111713" x1="9.68304" y1="21.3022" x2="36.0438" y2="21.3022" gradientUnits="userSpaceOnUse">
<stop stop-color="#25CF43"/>
<stop offset="1" stop-color="#61FD7D"/>
</linearGradient>
</defs>
</svg>
