<svg width="33" height="30" viewBox="0 0 33 30" fill="none" xmlns="http://www.w3.org/2000/svg">
<path d="M30.1949 25.9854L20.0188 26.913L28.1114 1.05587L31.9846 23.6559C32.1817 24.8058 31.3568 25.8795 30.1949 25.9854Z" fill="#FB774B"/>
<mask id="mask0_835_826" style="mask-type:alpha" maskUnits="userSpaceOnUse" x="20" y="1" width="13" height="26">
<path d="M30.1949 25.9854L20.0188 26.913L28.1114 1.05587L31.9846 23.6559C32.1817 24.8058 31.3568 25.8795 30.1949 25.9854Z" fill="#A09F9F"/>
</mask>
<g mask="url(#mask0_835_826)">
<path opacity="0.4" d="M29.0713 2.11088L11.0261 3.7557C10.4138 3.81151 10.0001 4.41332 10.1383 5.01241C13.0027 17.4257 9.75806 23.7711 7.15544 26.6829C6.49214 27.425 6.92583 29.0492 7.91923 29.1112C12.4948 29.3971 20.7238 29.459 25.9994 26.8577C33.6744 23.0732 32.3298 10.586 30.1112 2.81624C29.9811 2.36077 29.543 2.06789 29.0713 2.11088Z" fill="#170A38"/>
</g>
<path d="M27.0713 1.11088L9.02613 2.7557C8.41383 2.81151 8.00011 3.41332 8.13835 4.01241C11.0027 16.4257 7.75806 22.7711 5.15544 25.6829C4.49214 26.425 4.92583 28.0492 5.91923 28.1112C10.4948 28.3971 18.7238 28.459 23.9994 25.8577C31.6744 22.0732 30.3298 9.58604 28.1112 1.81624C27.9811 1.36077 27.543 1.06789 27.0713 1.11088Z" fill="white"/>
<mask id="mask1_835_826" style="mask-type:alpha" maskUnits="userSpaceOnUse" x="4" y="1" width="26" height="28">
<path d="M27.0713 1.11088L9.02613 2.7557C8.41383 2.81151 8.00011 3.41332 8.13835 4.01241C11.0027 16.4257 7.75806 22.7711 5.15544 25.6829C4.49214 26.425 4.92583 28.0492 5.91923 28.1112C10.4948 28.3971 18.7238 28.459 23.9994 25.8577C31.6744 22.0732 30.3298 9.58604 28.1112 1.81624C27.9811 1.36077 27.543 1.06789 27.0713 1.11088Z" fill="white"/>
</mask>
<g mask="url(#mask1_835_826)">
<path d="M21.4022 13.3805L18.7363 20.4377L17.1563 20.5046L19.852 13.6246L16.0468 13.7858L15.9902 12.4506L21.3532 12.2234L21.4022 13.3805Z" fill="#0BAFFF"/>
<path d="M3.35742 1.99731L33.2166 -0.724346L33.7799 5.4561L3.92077 8.17776L3.35742 1.99731Z" fill="#FB774B"/>
</g>
</svg>
