<?xml version="1.0" encoding="utf-8"?>
<!-- Generator: Adobe Illustrator 23.1.0, SVG Export Plug-In . SVG Version: 6.00 Build 0)  -->
<svg version="1.1" id="Layer_1" xmlns="http://www.w3.org/2000/svg" xmlns:xlink="http://www.w3.org/1999/xlink" x="0px" y="0px"
	 viewBox="0 0 1080 1080" enable-background="new 0 0 1080 1080" xml:space="preserve">
<g>
	<g>
		<linearGradient id="SVGID_1_" gradientUnits="userSpaceOnUse" x1="226.0465" y1="201.2855" x2="903.2938" y2="878.5329">
			<stop  offset="0" style="stop-color:#FCC32B"/>
			<stop  offset="0.3089" style="stop-color:#FEE882"/>
			<stop  offset="0.6492" style="stop-color:#FCC32B"/>
			<stop  offset="1" style="stop-color:#FEE882"/>
		</linearGradient>
		<path fill="url(#SVGID_1_)" d="M283.673,276.537c0,0,5.575-23.775,28.114-21.736c0,0,14.361,9.859,55.457,25.25l3.623,4.686
			c0,0,5.477,9.989,29.502,73.017l67.921,188.552c0,0,31.378-1.052,110.849-34.795c0,0,150.72-62.627,214.898-89.038
			c0,0,50.034-21.465,85.035-17.832c0.326,0.351,25.465,0.457,39.416,21.931c12.018,11.671,8.2,74.514,8.2,74.514
			s-7.95-17.061-27.571-22.105c-2.358-0.271-16.617-2.126-46.672,8.384l-68.95,24.112l-78.321,31.357l-89.547,33.299
			c0,0-24.751,8.655-61.878,21.639L521.925,608.9c0,0,45.598,39.611,64.775,54.73c19.176,15.12,101.978,87.356,101.978,87.356
			l92.433,82.757c0,0,108.16,105.035,108.507,128.724c0,0,1.942,11.226-21.66,17.495c0,0-22.249,1.69-40.541-0.093
			c-4.655-0.454-8.885-2.881-11.723-6.599c-8.53-11.176-27.454-35.695-34.345-42.387l-52.93-54.904l-73.875-69.405l-101.446-91.51
			L523.14,691.81c0,0,81.793,205.527,76.576,213.304c0,0,2.473,7.072-12.82,14.404c0,0-27.669,11.66-51.531,0.163
			c0,0-27.571-22.105-43.212-38.461c-18.047-18.155-36.825-37.445-46.835-43.147c-7.048-5.817-29.871-17.332-29.871-17.332
			s-16.563-8.11-18.829,8.569c-0.384,3.128,0.491,6.095,3.091,8.84c0,0-13.081-3.362-22.799-19.805c0,0-15.196-26.432,3.46-46.845
			c0,0,11.584-17.94,46.585-14.306c16.546,3.857,46.798,15.132,73.17,61.715L439.71,657.492l-13.515-32.973
			c0,0-5.922,0.087-25.543-4.957c0,0-24.925-3.189-34.112-23.786c0,0-14.578-24.664-1.139-37.301l10.608-3.709l5.922-0.087
			l13.699,5.13l-47.963-120.134L283.673,276.537z"/>
		<g>
			<linearGradient id="SVGID_2_" gradientUnits="userSpaceOnUse" x1="283.6729" y1="617.6818" x2="927.264" y2="617.6818">
				<stop  offset="0" style="stop-color:#FCC32B"/>
				<stop  offset="0.3089" style="stop-color:#FFEA81"/>
				<stop  offset="0.6325" style="stop-color:#FCC32B"/>
				<stop  offset="0.8702" style="stop-color:#FFEA81"/>
				<stop  offset="1" style="stop-color:#FFE575"/>
			</linearGradient>
			<path fill="url(#SVGID_2_)" d="M309.095,258.553c0.463,0,0.935,0.014,1.413,0.04c3.743,2.366,19.166,11.462,54.342,24.7
				l2.738,3.542c0.965,1.897,7.358,15.111,29.144,72.263l67.91,188.522l0.957,2.655l2.821-0.094
				c1.311-0.044,33.01-1.463,112.207-35.09c1.507-0.626,151.448-62.927,214.886-89.033l0.027-0.011l0.026-0.011
				c0.418-0.18,42.214-17.932,75.07-17.932c2.735,0,5.362,0.125,7.814,0.371c0.386,0.075,0.788,0.117,1.208,0.161
				c15.828,1.652,28.131,8.585,35.579,20.049l0.238,0.366l0.313,0.304c1.919,1.863,6.484,9.385,7.431,38.923
				c0.25,7.781,0.184,15.309,0.041,21.165c-4.831-5.369-12.367-11.436-23.178-14.214l-0.258-0.066l-0.264-0.03l-0.101-0.012
				c-0.796-0.093-2.66-0.309-5.588-0.309c-7.876,0-21.678,1.543-42.706,8.897l-68.95,24.112l-0.081,0.028l-0.08,0.032l-78.277,31.34
				l-89.465,33.268l-61.843,21.626l-31.823,11.128l-6.306,2.205l5.043,4.381c0.457,0.396,45.888,39.844,64.917,54.847
				c18.882,14.888,101.002,86.512,101.792,87.2l92.373,82.704c1.383,1.345,27.817,27.11,53.945,55.3
				c47.959,51.745,53.273,66.642,53.331,70.646l-0.058,0.158l0.095,0.371c0.002,0.808-0.489,8.202-18.467,13.07
				c-1.82,0.127-10.428,0.688-20.605,0.688c-7.11,0-13.474-0.269-18.913-0.799c-3.523-0.343-6.809-2.2-9.017-5.093
				c-9.993-13.093-27.764-36.031-34.68-42.771l-52.886-54.858l-0.067-0.069l-0.07-0.065l-73.875-69.405l-0.029-0.027l-0.029-0.026
				l-101.446-91.51l-0.106-0.096l-0.113-0.088l-29.958-23.254l-11.24-8.725l5.261,13.221c0.196,0.492,19.788,49.75,38.944,100.3
				c32.633,86.116,37.364,105.536,37.597,109.785l-1.124,1.009l1.038,1.937c0.06,1.38-1.693,5.37-10.674,9.699
				c-1.034,0.417-12.465,4.898-26.204,4.898c-8.026,0-15.316-1.513-21.674-4.497c-3.236-2.613-28.141-22.833-42.487-37.835
				l-0.026-0.027l-0.027-0.026c-1.399-1.408-2.803-2.822-4.206-4.236c-17.194-17.326-33.443-33.7-43.171-39.38
				c-7.555-6.073-29.395-17.119-30.373-17.612c-0.495-0.242-4.98-2.366-10.084-2.366c-7.882,0-13.091,5.064-14.297,13.944
				c-0.058,0.473-0.095,0.94-0.109,1.403c-3.802-2.706-8.376-7.038-12.39-13.829c-0.138-0.24-13.592-24.186,2.961-42.298
				l0.201-0.212l0.176-0.273c0.357-0.533,9.038-13.046,34.275-13.046c2.705,0,5.54,0.148,8.429,0.44
				c11.346,2.676,21.589,7.313,31.307,14.171c14.701,10.375,27.867,25.725,39.131,45.623l7.004-3.269L443.34,656.133l-0.021-0.056
				l-0.023-0.055l-13.515-32.973l-0.96-2.447l-2.644,0.041c-0.059,0-6.08-0.084-24.561-4.835l-0.234-0.059l-0.232-0.031
				c-0.228-0.03-22.908-3.221-31.071-21.521l-0.091-0.202l-0.11-0.188c-0.127-0.216-12.395-21.407-2.372-31.962l9.187-3.212
				l4.562-0.067l13.014,4.874l8.211,3.075l-3.251-8.143l-47.954-120.112l-63.52-161.93c1.267-4.072,6.627-17.777,21.338-17.777
				H309.095 M309.092,254.677c-20.292,0.001-25.419,21.86-25.419,21.86l63.994,163.139L395.63,559.81l-13.699-5.13l-5.922,0.086
				l-10.608,3.709c-13.438,12.636,1.139,37.301,1.139,37.301c9.187,20.597,34.112,23.786,34.112,23.786
				c18.972,4.876,25.136,4.957,25.523,4.957c0.013,0,0.02,0,0.02,0l13.515,32.973l60.415,161.415
				c-26.372-46.583-56.624-57.858-73.17-61.715c-3.219-0.334-6.239-0.486-9.072-0.486c-27.961,0-37.513,14.792-37.513,14.792
				c-18.656,20.413-3.46,46.845-3.46,46.845c9.718,16.443,22.799,19.806,22.799,19.806c-2.6-2.745-3.476-5.711-3.091-8.84
				c1.149-8.457,5.972-10.541,10.449-10.541c4.353,0,8.38,1.972,8.38,1.972s22.823,11.515,29.871,17.333
				c10.01,5.701,28.787,24.992,46.835,43.146c15.641,16.356,43.212,38.461,43.212,38.461c7.881,3.797,16.173,5.068,23.75,5.068
				c15.366,0,27.78-5.231,27.78-5.231c15.293-7.332,12.82-14.404,12.82-14.404c5.217-7.777-76.576-213.304-76.576-213.304
				l29.958,23.254l101.446,91.51l73.875,69.405l52.93,54.904c6.891,6.692,25.815,31.211,34.345,42.387
				c2.837,3.717,7.068,6.145,11.723,6.599c6.318,0.616,13.107,0.817,19.29,0.817c11.717,0,21.251-0.724,21.251-0.724
				c23.602-6.27,21.66-17.496,21.66-17.496C889.27,938.779,781.11,833.744,781.11,833.744l-92.433-82.757
				c0,0-82.801-72.236-101.978-87.356c-19.176-15.12-64.775-54.73-64.775-54.73l31.823-11.128
				c37.127-12.983,61.878-21.639,61.878-21.639l89.547-33.299l78.321-31.357l68.95-24.112c21.239-7.427,34.589-8.68,41.426-8.68
				c2.838,0,4.554,0.216,5.246,0.295c19.621,5.043,27.571,22.104,27.571,22.104s3.818-62.844-8.2-74.514
				c-13.951-21.474-39.09-21.581-39.416-21.931c-2.732-0.284-5.552-0.414-8.437-0.414c-34.067,0-76.598,18.246-76.598,18.246
				c-64.178,26.411-214.898,89.039-214.898,89.039c-79.471,33.743-110.849,34.795-110.849,34.795l-67.921-188.552
				c-24.025-63.028-29.502-73.018-29.502-73.018l-3.623-4.686c-41.097-15.391-55.457-25.25-55.457-25.25
				C310.859,254.717,309.962,254.677,309.092,254.677L309.092,254.677z"/>
		</g>
	</g>
	<g>
		<linearGradient id="SVGID_3_" gradientUnits="userSpaceOnUse" x1="301.6252" y1="125.7068" x2="978.8725" y2="802.9542">
			<stop  offset="0" style="stop-color:#FCC32B"/>
			<stop  offset="0.3089" style="stop-color:#FEE882"/>
			<stop  offset="0.6492" style="stop-color:#FCC32B"/>
			<stop  offset="1" style="stop-color:#FEE882"/>
		</linearGradient>
		<path fill="url(#SVGID_3_)" d="M49.26,377.601C142.45,208.3,340.254,100.272,540,99.313
			c199.746,0.827,397.69,108.888,490.74,278.287c-66.141-69.01-145.137-119.8-228.216-156.933
			C718.914,184.625,629.561,163.991,540,164.19c-89.561-0.298-178.923,20.336-262.564,56.378
			C194.323,257.702,115.344,308.525,49.26,377.601z"/>
		<g>
			<linearGradient id="SVGID_4_" gradientUnits="userSpaceOnUse" x1="49.2605" y1="238.457" x2="1030.7396" y2="238.457">
				<stop  offset="0" style="stop-color:#FCC32B"/>
				<stop  offset="0.3089" style="stop-color:#FFEA81"/>
				<stop  offset="0.6325" style="stop-color:#FCC32B"/>
				<stop  offset="0.8702" style="stop-color:#FFEA81"/>
				<stop  offset="1" style="stop-color:#FFE575"/>
			</linearGradient>
			<path fill="url(#SVGID_4_)" d="M540.003,103.19c49.005,0.205,98.414,6.892,146.855,19.877
				c47.776,12.807,93.744,31.498,136.627,55.556c43.229,24.251,82.493,53.495,116.702,86.919
				c27.661,27.025,51.693,56.485,71.702,87.858c-57.605-54.563-127.359-100.326-207.783-136.272l-0.024-0.011l-0.024-0.01
				c-87.419-37.684-175.83-56.793-262.778-56.795l-1.266,0.001c-0.639-0.002-1.285-0.003-1.923-0.003
				c-86.668,0-174.88,19.076-262.188,56.698l-0.024,0.01l-0.024,0.01c-80.363,35.905-150.062,81.65-207.609,136.209
				c20.009-31.292,44.014-60.673,71.626-87.634c34.218-33.411,73.48-62.646,116.697-86.894
				c42.875-24.056,88.832-42.753,136.595-55.573C441.592,110.138,490.997,103.427,540.003,103.19 M540,99.313
				C340.254,100.272,142.45,208.3,49.26,377.601c66.083-69.076,145.063-119.899,228.175-157.033
				c83.05-35.787,171.731-56.382,260.654-56.382c0.634,0,1.276,0.001,1.91,0.003c0.432-0.001,0.848-0.001,1.279-0.001
				c89.127,0.002,178.038,20.611,261.244,56.479c83.079,37.134,162.075,87.924,228.217,156.934
				C937.69,208.201,739.746,100.14,540,99.313L540,99.313z"/>
		</g>
	</g>
</g>
</svg>
