<?xml version="1.0" encoding="utf-8"?>
<!-- Generator: Adobe Illustrator 23.1.0, SVG Export Plug-In . SVG Version: 6.00 Build 0)  -->
<svg version="1.1" id="Layer_1" xmlns="http://www.w3.org/2000/svg" xmlns:xlink="http://www.w3.org/1999/xlink" x="0px" y="0px"
	 viewBox="0 0 301.9 304.2" style="enable-background:new 0 0 301.9 304.2;" xml:space="preserve">
<style type="text/css">
	.st0{fill:#F8AD1C;}
	.st1{fill:#FACA6D;}
	.st2{fill:#FBD68F;}
	.st3{fill:#FAC152;}
	.st4{fill:#FAC154;}
	.st5{fill:#FBD387;}
	.st6{fill:#FBD488;}
	.st7{fill:#FABF4E;}
	.st8{fill:#FDE9C3;}
	.st9{fill:#050607;}
	.st10{fill:#E4BCAC;}
	.st11{fill:#F2C7B6;}
	.st12{fill:#74411A;}
	.st13{fill:#6E3D18;}
	.st14{fill:#EFC5B4;}
	.st15{fill:#CDA99C;}
	.st16{fill:#CDAA9C;}
	.st17{fill:#C1A093;}
	.st18{fill:#DBB4A5;}
	.st19{fill:#F1C4AE;}
	.st20{fill:#F0C5AF;}
	.st21{fill:#F0C4AC;}
	.st22{fill:#F0C4AB;}
	.st23{fill:#E0B9A9;}
	.st24{fill:#A17357;}
	.st25{fill:#E2BAAB;}
	.st26{fill:#E0B8A8;}
	.st27{fill:#E5BCAC;}
</style>
<g>
	<path class="st0" d="M299.9,145.1c0,4.6,0,9.1,0,13.7c-0.2,0.8-0.2,1.6,0,2.4c0,0.2,0,0.5,0,0.7c-0.3,1.9-0.3,3.8-0.3,5.7
		c-0.2,5.2-1.1,10.2-2.2,15.3c-1.1,5.4-2.6,10.7-4.3,16c-1.6,4.8-3.4,9.5-5.5,14.1c-3.7,8.2-8,16-13.1,23.4
		c-3.3,4.8-6.9,9.3-10.6,13.7c-3.5,4-7.2,7.8-11.1,11.4c-4.5,4.3-9.4,8.3-14.5,11.9c-6,4.3-12.4,8.2-19,11.6
		c-10.7,5.5-21.9,9.6-33.5,12.3c-5.1,1.2-10.2,2.2-15.4,2.8c-2.6,0.3-5.3,0.3-8,0.4c-0.4,0-0.9-0.1-1.3,0.1c-0.2,0-0.5,0-0.7,0
		c-0.7-0.2-1.4-0.2-2.2,0c-4.6,0-9.1,0-13.7,0c-0.4-0.2-0.8-0.1-1.2-0.1c-0.5,0.1-1-0.1-1.4,0.1c-0.2,0-0.5,0-0.7,0
		c-1.8-0.3-3.6-0.3-5.3-0.3c-5.2-0.1-10.3-1.1-15.4-2.2c-11.2-2.3-21.9-6-32.3-10.8c-10-4.7-19.4-10.5-28.2-17.2
		c-3.6-2.8-7.1-5.8-10.5-8.9c-3.9-3.6-7.6-7.4-11.1-11.4c-6-6.9-11.3-14.2-15.9-22c-5.9-10.1-10.7-20.8-14.1-32.1
		c-2.5-8-4.2-16.2-5.3-24.6c-0.4-3.5-0.5-7.1-0.6-10.6c-0.2-4.7-0.1-9.4-0.1-14.1c0-9.9,1.3-19.6,3.6-29.2c2-8.2,4.6-16.1,7.9-23.9
		c3-7.1,6.6-13.9,10.6-20.4c4.3-6.9,9.2-13.5,14.6-19.6c3.9-4.4,8-8.5,12.3-12.4c6-5.5,12.4-10.3,19.2-14.7
		c6.5-4.2,13.3-7.9,20.4-11c7.6-3.4,15.5-6.1,23.5-8.1c6.1-1.5,12.2-2.8,18.5-3.4c2.9-0.3,5.9-0.4,8.8-0.4c0.4,0,0.9,0.1,1.3-0.1
		c0.2,0,0.3,0,0.5,0c0.5,0.3,1.1,0.1,1.7,0.1c0.6-0.1,1.1,0.1,1.7-0.1c2.9,0,5.8,0,8.6,0c0.6,0.3,1.1,0.1,1.7,0.1c0.5,0,0.9,0,1.4,0
		c0.4,0,0.8,0,1.1,0c8.1,0,16.1,1,24.1,2.8c9.4,2.1,18.5,5,27.3,8.9c9.6,4.2,18.7,9.3,27.2,15.5c5.2,3.8,10.1,7.8,14.8,12.2
		c11,10.2,20.1,21.8,27.6,34.7c5.6,9.6,9.9,19.8,13.3,30.4c2.5,8.2,4.4,16.5,5.4,25c0.3,2.7,0.3,5.4,0.4,8.1c0,0.4-0.1,0.8,0.1,1.2
		c0,0.2,0,0.3,0,0.5c-0.3,0.5-0.1,0.9-0.1,1.4C299.8,144.3,299.7,144.7,299.9,145.1z"/>
	<path class="st1" d="M299.9,161.2c-0.5-0.8-0.3-1.6,0-2.4C299.9,159.6,299.9,160.4,299.9,161.2z"/>
	<path class="st1" d="M158.2,300.6c0.7-0.3,1.4-0.5,2.2,0C159.6,300.6,158.9,300.6,158.2,300.6z"/>
	<path class="st2" d="M145.2,3.3c-0.6,0-1.2,0.2-1.7-0.2c0.6,0,1.1,0,1.7,0C145.4,3.2,145.4,3.2,145.2,3.3z"/>
	<path class="st3" d="M157.3,3.3c-0.6,0-1.2,0.2-1.7-0.2c0.6,0,1.1,0,1.7,0C157.3,3.1,157.4,3.1,157.3,3.3
		C157.3,3.2,157.3,3.3,157.3,3.3z"/>
	<path class="st4" d="M145.2,3.3c0-0.1,0-0.1,0-0.2c0.6,0,1.1,0,1.7,0C146.4,3.5,145.8,3.3,145.2,3.3z"/>
	<path class="st5" d="M299.7,143.9c0-0.5-0.2-1,0.2-1.4c0,0.5,0,1,0,1.4C299.8,144.1,299.7,144.1,299.7,143.9z"/>
	<path class="st6" d="M157.3,3.3c0-0.1,0-0.1,0-0.2c0.5,0,1,0,1.4,0c0.2,0.1,0.2,0.1,0,0.2C158.2,3.3,157.8,3.3,157.3,3.3z"/>
	<path class="st5" d="M141.9,300.6c0.4-0.4,0.9-0.2,1.4-0.2c0.2,0,0.2,0.1,0,0.2C142.9,300.6,142.4,300.6,141.9,300.6z"/>
	<path class="st7" d="M299.7,143.9c0.1,0,0.1,0,0.2,0c0,0.4,0,0.8,0,1.2C299.6,144.8,299.7,144.3,299.7,143.9z"/>
	<path class="st8" d="M158.7,3.3c0-0.1,0-0.1,0-0.2c0.4,0,0.8,0,1.2,0c0,0.1,0,0.1,0,0.2C159.5,3.3,159.1,3.3,158.7,3.3z"/>
	<path class="st7" d="M143.3,300.6c0-0.1,0-0.1,0-0.2c0.4,0,0.9-0.1,1.2,0.2C144.1,300.6,143.7,300.6,143.3,300.6z"/>
	<path class="st9" d="M198.8,242.5c8-1.1,16.1-1.9,24.2-2.5c9.6-0.7,18.5,1.3,27.1,5.4c1,0.5,1,0.9,0.6,1.8
		c-2.2,4.6-5.2,8.5-8.6,12.2c-8.4,8.8-18.6,14.9-29.4,20c-8.1,3.8-16.4,7.3-25.1,9.7c-9.6,2.6-19.4,4.2-29.3,4.8
		c-15,0.9-29.8-0.2-44.3-3.9c-18.5-4.7-34.5-14-48.2-27.2c-4.7-4.5-8.5-9.6-11.2-15.6c-0.4-1-0.3-1.4,0.7-1.9
		c8.8-4.3,18-6.1,27.9-5.4c7.3,0.5,14.6,1.1,21.9,2c0.5,0.1,0.9,0.3,1.2,0.7c0.7,0,1,0.6,1.4,1c2.2,2.7,4.7,5,7.4,7.2
		c4.6,3.6,9.7,6.3,15.1,8.4c5.6,2.2,11.5,3.4,17.5,3.8c7.1,0.4,14.2-0.3,21.1-2.3c8.8-2.6,16.7-7,23.7-12.9c1.7-1.4,3.4-2.9,5-4.5
		C197.7,242.9,198.1,242.5,198.8,242.5z"/>
	<path class="st10" d="M197.7,184.2c-3.5,5.3-7.5,10.1-11.9,14.7c-0.4,0.4-0.8,0.8-1.1,1.2c-0.2,0.9-0.9,1.5-1.6,2.2
		c-2.3,2.1-4.7,4.2-7.2,6.1c-5.1,3.7-10.4,6.9-16.6,8.6c-1.7,0.5-3.4,0.7-5.1,0.9c-0.6,0.1-1.3,0.1-1.8-0.4
		c-0.1-0.1-0.1-0.3-0.2-0.4c-0.2-0.7-0.2-1.3-0.2-2c0-37.7,0-75.5,0-113.2c0-0.8,0-1.5,0.2-2.3c0-0.4,0.2-0.7,0.5-0.9
		c2.5-1.5,4.9-3.1,7-5.2c1.6-1.7,3-3.4,4.1-5.4c0.8-1.5,1.4-1.5,2.7-0.4c3.1,2.9,6.4,5.6,10.3,7.5c3.2,1.5,6.6,2.4,10.1,2.7
		c4.2,0.4,8.4,0.7,12.4,2.3c5.3,2.2,9.2,5.9,12.1,10.8c2.8,4.7,4.3,9.8,5.5,15c0.2,1.1,0.2,2.3,0.7,3.4c-0.7,8.6-2.6,17-5.7,25.1
		c-0.2,0.7-0.3,1.3-0.2,2c-0.1,0.2-0.2,0.4-0.2,0.5c-0.7,1.2-1.1,2.6-1.6,4c-2.9,7-6.3,13.8-10.4,20.1
		C199,182.1,198.2,183.1,197.7,184.2z"/>
	<path class="st11" d="M152.7,99.3c0,39.3,0,78.7,0,118c-0.5,0.8-1.3,0.6-1.9,0.5c-2.7-0.3-5.4-0.8-7.9-1.8
		c-6.6-2.5-12.4-6.4-17.7-10.9c-1.2-1-2.2-2.2-3.5-3.1c-0.6-0.4-0.8-1.1-1-1.7c-2.3-2.5-4.7-5-6.9-7.7
		c-8.8-10.8-15.6-22.7-20.3-35.8c-0.1-0.1-0.1-0.3-0.1-0.5c0.4-0.6,0.1-1.1-0.1-1.6c-1.9-5.6-3.7-11.2-4.7-17.1
		c-0.4-2.2-0.6-4.3-1-6.5c-0.1-0.5-0.1-0.9-0.1-1.4c-0.1-1.9-0.4-3.8-0.1-5.7c0.1-0.6-0.2-1.3-0.3-1.9c1-4.1,2.9-7.7,5.6-10.8
		c4.5-5.2,10.5-7.5,17.2-8.4c3.3-0.4,6.6-0.5,9.9-0.5c5.1,0,10.1,0,15.2,0c5.6,0,10.9-1,16.1-3.3C151.7,99.1,152.2,98.8,152.7,99.3z
		"/>
	<path class="st12" d="M152.7,99.3c-7.3,3.5-15.1,4.1-23,3.9c-6.5-0.2-13.1-0.4-19.6,0.4c-6.6,0.9-12.6,3-17,8.3
		c-2.5,3-4.3,6.4-5.3,10.2c-0.4,1.8-0.4,3.6-0.9,5.4c-0.1,0.5-0.2,1.1-0.7,1.4c-0.4,0.1-0.7-0.2-0.9-0.5c-1-4.8-2.1-9.7-2.8-14.6
		c-0.1-0.7-0.2-1.4,0.3-1.9c-0.3-3.5-0.7-7.1-1-10.6c-0.7-7.4-0.8-14.8-0.3-22.3c0.5-7.4,1.6-14.8,3.7-21.9
		c2.8-9.4,7.2-17.9,14.5-24.7c7.3-6.8,16.1-10.7,25.8-12.5c7.2-1.4,14.4-2.1,21.7-1.4c2.1,0.2,4.1,0.4,6.1,0.9
		c0.3,0.6,0.3,1.3,0.3,2c0,25.2,0,50.3,0,75.5c0,0.7-0.1,1.4-0.2,2C153.1,99,152.9,99.2,152.7,99.3z"/>
	<path class="st13" d="M153.3,98.9c-0.4-0.4-0.3-0.9-0.3-1.4c0-25.6,0-51.3,0-76.9c0-0.4,0-0.9,0.3-1.3c7.2,1.3,14.1,3.1,19.5,8.4
		c1,1,1.9,2.1,2.6,3.3c0.3,0.4,0.5,0.5,0.9,0.2c4.4-3,9.2-3.2,14.1-2.1c7.1,1.5,13,5.2,18.2,10.1c8.5,8.1,13.4,18.1,15,29.7
		c0.7,5.3,0.3,10.5-0.1,15.8c-0.6,8.3-1.9,16.5-2.9,24.7c-0.1,0.5,0,1-0.1,1.6c0.5,0.8,0.3,1.6,0.2,2.4c-0.5,3.9-1.4,7.8-2.1,11.6
		c-0.2,1.1-0.4,2.2-0.6,3.3c-0.1,0.4-0.1,0.9-0.7,0.9c-0.9-4.5-1.9-8.9-3.7-13.1c-1.4-3.4-3.2-6.6-5.6-9.4
		c-4.3-4.9-9.9-7.2-16.3-7.9c-3.8-0.4-7.6-0.6-11.3-1.8c-5.6-1.8-10-5.2-14.2-9.1c-0.9-0.8-1.2-0.7-1.7,0.3
		C161.8,92.9,158.1,96.5,153.3,98.9z"/>
	<path class="st14" d="M109.5,239.2c5.4-7.8,7.4-16.7,9.2-25.8c0.3-1.5,0.5-3.1,0.8-4.6c0.9-0.3,1.3,0.5,1.8,1
		c3.8,3.8,7.9,7.2,12.4,10.1c5,3.2,10.2,5.7,16.2,6.5c0.6,0.1,1.3,0.1,1.9,0.2c1.1,0.3,1.5,1,1.5,2.1c0,8.6,0,17.2,0,25.8
		c0,0.4,0,0.9-0.2,1.3c-0.1,0.1-0.1,0.3-0.2,0.4c-1,0.3-2,0.3-3,0.5c-4.2-0.1-8.3-0.6-12.3-1.6c-8.8-2-16.8-5.7-23.9-11.4
		c-1.2-1-2.4-2-3.6-3.1C109.6,240.2,109.3,239.8,109.5,239.2z"/>
	<path class="st15" d="M109.5,239.2c3.3,3.5,7.1,6.4,11.3,8.8c7.6,4.4,15.7,6.9,24.4,7.9c1.5,0.2,2.9,0.1,4.4,0.2
		c1,0.2,2.1,0.2,3.1,0v0c0.4-0.5,0.9-0.5,1.4-0.5c9-0.3,17.5-2.7,25.6-6.8c5.1-2.6,9.7-5.8,14-9.6c0.4-0.3,0.7-0.7,1.3-0.7
		c0.1,0,0.2,0,0.4,0.1c1.1,1.4,2.2,2.8,3.5,4c-4.7,5.1-10.1,9.3-16,12.8c-9.2,5.3-19.2,8.2-29.9,8.4c-15,0.2-28.4-4.1-40-13.7
		c-2.6-2.1-4.9-4.5-6.8-7.2C107.4,241.7,108.4,240.4,109.5,239.2z"/>
	<path class="st16" d="M151.3,227c-4-0.2-7.8-1.4-11.5-3.1c-5.8-2.7-11-6.4-15.7-10.7c-1.6-1.4-3-3-4.6-4.4c0.4-2.8,0.8-5.6,1.2-8.4
		c4,3.6,8,7.2,12.5,10.1c4,2.6,8.2,4.8,12.8,6c2.2,0.6,4.4,1,6.7,0.9v0.1c0.4,0.3,0.5,0.7,0.5,1.1c0.1,2.5,0.1,4.9,0,7.4
		c0,0.4-0.1,0.7-0.4,1C152.3,227.2,151.8,227.1,151.3,227z"/>
	<path class="st17" d="M152.7,226.9c0-3.2,0-6.4,0-9.6c6.5-0.2,12.3-2.7,17.8-6c4.2-2.6,8.1-5.6,11.7-9c0.8-0.8,1.7-1.5,2.5-2.2
		c0.4,2.9,0.7,5.7,1.1,8.6c-0.1,0.2-0.1,0.4-0.2,0.5c-2.5,3.3-5.8,5.8-9,8.3c-4.8,3.8-10,6.8-15.9,8.7c-2.1,0.7-4.3,1.2-6.6,1.2
		C153.6,227.5,153.1,227.5,152.7,226.9z"/>
	<path class="st11" d="M86.5,152.4c-6.9-5-11.8-11.4-13.2-20.1c-0.8-5.2-0.4-10.1,2.6-14.6c1.5-2.2,3.3-4.1,5.8-5.3
		c0.4,0.2,0.5,0.6,0.5,1c-0.2,1.3-0.1,2.5-0.1,3.8c-0.5,2.5-0.6,5,0,7.5c0.2,8.3,1.8,16.3,4.1,24.3c0.2,0.7,0.4,1.3,0.5,2
		C86.8,151.5,86.9,152,86.5,152.4z"/>
	<path class="st17" d="M217.2,129.2c1-5.7,2.4-11.3,3.1-17c0-0.4,0.1-0.8,0.2-1.2c1,0.3,2,0.8,2.9,1.4c0.6,0.8,0.8,1.6,0.8,2.6
		c0,1.9,0.2,3.8,0.2,5.7c0,3.3-0.1,6.5-0.5,9.8c-0.7,6.6-2,13.1-3.9,19.4c-0.3,1-0.8,1.7-1.4,2.5c-2,1.7-4.4,2.8-6.7,3.9
		c-0.4-0.1-0.7,0.3-1.1,0C214.2,147.6,216.4,138.6,217.2,129.2z"/>
	<path class="st10" d="M218.6,152.4c2.4-7.3,4-14.7,4.7-22.3c0.6-5.9,0.6-11.8,0-17.7c2.5,1.3,4.5,3.2,5.9,5.6
		c0.7,1.6,1.6,3.1,2,4.9c1.5,6.4,0.3,12.5-2.7,18.3c-0.2,0.4-0.5,0.7-0.5,1.1C225.7,146.3,222.5,149.7,218.6,152.4z"/>
	<path class="st18" d="M81.5,117.3c0-1.6,0-3.2,0.2-4.8c0.3-0.2,0.6-0.4,1-0.6c0.7,5.5,2.1,10.9,2.9,16.4c0.2,0.1-0.1,0.6,0.4,0.5
		c0.4-2.3,0.9-4.5,1.7-6.7c-0.1,2.6,0.1,5.3,0.3,7.9c0.3,0.4-0.1,0.8,0.2,1.2c0.5,5.4,1.6,10.6,3.1,15.8c0.8,2.9,1.8,5.7,2.8,8.5
		c0.1,0.3,0.4,0.7,0.1,1c-0.3,0.2-0.6-0.1-0.9-0.1c-1.9-1-3.9-1.9-5.6-3.1c-0.4-0.3-0.7-0.6-1.1-0.9c-2.2-6.8-3.8-13.7-4.6-20.9
		c-0.2-2.2-0.5-4.4-0.5-6.5C81.3,122.4,81.3,119.8,81.5,117.3z"/>
	<path class="st19" d="M197.7,184.2c0.2-1.3,1.1-2.2,1.8-3.2c4.7-7.4,8.6-15.2,11.6-23.4c0.1-0.3,0-0.8,0.6-0.7
		c-1.4,4.4-3.4,8.7-5.4,12.8C203.7,174.8,200.9,179.6,197.7,184.2z"/>
	<path class="st20" d="M228.2,142.2c-0.2-0.7,0.3-1.2,0.6-1.7c2-3.9,3-8.1,3-12.4c0-3-0.6-5.9-2-8.6c-0.2-0.4-0.7-0.8-0.4-1.4
		c2.2,3.4,2.9,7.2,2.8,11.2C231.9,133.9,230.7,138.3,228.2,142.2z"/>
	<path class="st21" d="M185.5,208.9c0.1-0.1,0.2-0.2,0.2-0.3c0.6,3.1,1.1,6.2,1.8,9.3c0.7,3.6,1.8,7.1,2.8,10.6
		c0.1,0.1,0.1,0.3,0,0.4c-0.9,0.1-1-0.7-1.2-1.3c-1.2-3.7-2.2-7.5-2.9-11.3c-0.4-1.8-0.7-3.6-1-5.4
		C185.1,210.2,185.1,209.5,185.5,208.9z"/>
	<path class="st22" d="M190.3,228.9c0-0.1,0-0.2,0-0.3c1.4,3.4,2.8,6.8,4.9,9.9c-0.1,0-0.1,0-0.2,0c-0.7,0.1-1-0.3-1.3-0.8
		c-1.5-2.3-2.7-4.8-3.7-7.4C189.9,229.8,189.8,229.3,190.3,228.9z"/>
	<path class="st23" d="M88.2,131.2c-0.3-0.4-0.2-0.8-0.2-1.2C88.2,130.4,88.2,130.8,88.2,131.2z"/>
	<path class="st24" d="M86,128.8c0,0.2,0,0.4-0.2,0.3c-0.4-0.1-0.3-0.5-0.2-0.8C85.7,128.5,85.9,128.6,86,128.8z"/>
	<path class="st25" d="M190.3,228.9c1,3.5,2.5,6.7,4.8,9.6c-5,4.6-10.5,8.5-16.6,11.4c-6.5,3.2-13.4,5.1-20.6,5.9
		c-1.8,0.2-3.5,0.2-5.2,0.2c0-9,0-18,0-27c0-1.2-0.2-1.9-1.5-2c0.5,0,1,0,1.4,0c4.4,0.1,8.5-1.2,12.4-3c5.8-2.7,10.9-6.4,15.7-10.6
		c1.6-1.4,3.1-3,4.7-4.4c0.6,4.8,1.6,9.6,2.9,14.3C189,225.1,189.3,227.1,190.3,228.9z"/>
	<path class="st26" d="M152.7,256c-1,0.4-2.1,0.4-3.1,0C150.6,256,151.7,256,152.7,256z"/>
	<path class="st27" d="M81.5,117.3c0,2.6,0,5.1,0,7.7c-0.5-1.6-0.2-3.3-0.2-5C81.2,119.1,81,118.2,81.5,117.3z"/>
</g>
</svg>
