<svg width="309" height="183" viewBox="0 0 309 183" fill="none" xmlns="http://www.w3.org/2000/svg">
<path d="M272.703 1.50032e-06H73.4146C70.9243 -0.00120278 68.4878 0.722612 66.404 2.08267C64.3202 3.44272 62.6796 5.37988 61.6835 7.65653L24.7333 92.3037C19.275 102.002 27.2919 104.571 31.9826 104.639H202.555C212.576 104.639 210.87 102.725 218.972 92.5164C225.454 84.3495 216.273 82.4523 210.87 82.5204H96.1604C78.6767 83.5838 45.8842 78.7772 54.5834 51.0435C63.2826 23.3099 95.3075 16.6615 110.233 16.8018H237.522L240.081 11.6975L281.871 28.0739L226.648 43.5997L228.993 38.708H105.115C99.5718 39.5587 88.4846 43.2169 88.4846 51.0435C88.4846 58.8702 93.6018 60.8269 96.1604 60.8269H221.318C240.251 60.8269 249.249 69.4788 251.381 73.8005C254.507 80.2532 257.479 96.0469 244.345 107.617C231.211 119.187 218.972 126.12 197.651 126.758H116.842L85.2864 145.687H213.216C233.471 145.687 264.6 132.288 277.82 107.617C288.395 87.88 282.225 76.2846 277.82 72.9497C284.928 71.1079 300.89 60.9545 307.883 35.0924C314.877 9.23037 287.342 0.923039 272.703 1.50032e-06Z" fill="#FF9E00"/>
<path d="M0 145.687L10.4475 126.758H98.2922L66.0967 145.687H0Z" fill="#FF9E00"/>
<path d="M3.94021 182.004C2.92941 182.033 1.94064 181.706 1.1471 181.081C0.793635 180.825 0.505612 180.489 0.306334 180.101C0.107056 179.713 0.0021185 179.284 0 178.848V178.112H2.66092V178.848C2.66189 178.989 2.6964 179.129 2.76161 179.254C2.82683 179.38 2.92091 179.489 3.03618 179.571C3.29329 179.773 3.61287 179.88 3.94021 179.873H19.7181C20.0455 179.88 20.3651 179.773 20.6222 179.571C20.7374 179.489 20.8315 179.38 20.8967 179.254C20.962 179.129 20.9965 178.989 20.9974 178.848V174.616C20.9983 174.476 20.9646 174.337 20.8991 174.213C20.8336 174.09 20.7385 173.984 20.6222 173.905C20.3619 173.71 20.0435 173.608 19.7181 173.616H3.94021C2.92814 173.644 1.93876 173.314 1.1471 172.684C0.796254 172.428 0.510016 172.093 0.310954 171.707C0.111892 171.321 0.00544515 170.894 0 170.46V166.227C0.0021185 165.792 0.107056 165.362 0.306334 164.974C0.505612 164.586 0.793635 164.251 1.1471 163.994C1.94209 163.372 2.9302 163.047 3.94021 163.076H19.7181C20.727 163.046 21.714 163.372 22.507 163.994C22.8617 164.25 23.151 164.585 23.351 164.973C23.5511 165.361 23.6564 165.791 23.6584 166.227V166.963H20.9974V166.227C20.9961 166.086 20.9615 165.947 20.8963 165.821C20.8311 165.696 20.7372 165.587 20.6222 165.504C20.3651 165.302 20.0455 165.195 19.7181 165.202H3.94021C3.61287 165.195 3.29329 165.302 3.03618 165.504C2.92116 165.587 2.82726 165.696 2.76208 165.821C2.69689 165.947 2.66223 166.086 2.66092 166.227V170.46C2.66001 170.6 2.69379 170.738 2.75925 170.862C2.82472 170.986 2.91984 171.092 3.03618 171.17C3.29549 171.367 3.61457 171.469 3.94021 171.459H19.7181C20.7296 171.431 21.7181 171.763 22.507 172.395C22.8593 172.65 23.1469 172.984 23.3468 173.369C23.5467 173.755 23.6534 174.182 23.6584 174.616V178.848C23.6564 179.284 23.5511 179.714 23.351 180.102C23.151 180.49 22.8617 180.826 22.507 181.081C21.7155 181.707 20.7278 182.034 19.7181 182.004H3.94021Z" fill="#FF9E00"/>
<path d="M27.1553 182.004V163.101H46.8564C47.8673 163.072 48.8558 163.402 49.6452 164.032C49.9968 164.288 50.2838 164.622 50.4837 165.007C50.6835 165.392 50.7906 165.819 50.7966 166.253V171.821C50.7913 172.255 50.6845 172.682 50.4846 173.067C50.2847 173.453 49.9972 173.786 49.6452 174.041C48.8558 174.672 47.8673 175.002 46.8564 174.973H29.7991V182.021L27.1553 182.004ZM31.0955 172.799H46.8734C47.199 172.808 47.5178 172.706 47.7775 172.51C47.8932 172.432 47.988 172.327 48.0534 172.204C48.1188 172.08 48.1529 171.943 48.1527 171.804V166.253C48.1507 166.112 48.1158 165.973 48.0507 165.847C47.9855 165.722 47.892 165.613 47.7775 165.53C47.52 165.328 47.2006 165.221 46.8734 165.228H31.0955C30.7682 165.221 30.4486 165.328 30.1915 165.53C30.0769 165.613 29.9834 165.722 29.9183 165.847C29.8531 165.973 29.8182 166.112 29.8162 166.253V171.821C29.816 171.96 29.8501 172.097 29.9155 172.221C29.981 172.344 30.0757 172.449 30.1915 172.527C30.453 172.718 30.7719 172.814 31.0955 172.799V172.799Z" fill="#FF9E00"/>
<path d="M57.0008 182.004C55.9911 182.034 55.0034 181.707 54.2119 181.081C53.8572 180.826 53.568 180.49 53.3679 180.102C53.1678 179.714 53.0625 179.284 53.0605 178.848V166.227C53.0625 165.791 53.1678 165.361 53.3679 164.973C53.568 164.585 53.8572 164.25 54.2119 163.994C55.0049 163.372 55.9919 163.046 57.0008 163.076H72.7787C73.7875 163.046 74.7746 163.372 75.5675 163.994C75.9223 164.25 76.2115 164.585 76.4116 164.973C76.6117 165.361 76.717 165.791 76.7189 166.227V178.848C76.717 179.284 76.6117 179.714 76.4116 180.102C76.2115 180.49 75.9223 180.826 75.5675 181.081C74.776 181.707 73.7883 182.034 72.7787 182.004H57.0008ZM57.0008 179.877H72.7787C73.106 179.884 73.4256 179.778 73.6827 179.575C73.798 179.493 73.8921 179.384 73.9573 179.259C74.0225 179.133 74.057 178.994 74.058 178.852V166.227C74.0567 166.086 74.022 165.947 73.9568 165.821C73.8916 165.696 73.7977 165.587 73.6827 165.504C73.4256 165.302 73.106 165.195 72.7787 165.202H57.0008C56.6734 165.195 56.3538 165.302 56.0967 165.504C55.9817 165.587 55.8878 165.696 55.8226 165.821C55.7574 165.947 55.7228 166.086 55.7215 166.227V178.848C55.7224 178.989 55.757 179.129 55.8222 179.254C55.8874 179.38 55.9815 179.489 56.0967 179.571C56.3538 179.773 56.6734 179.88 57.0008 179.873V179.877Z" fill="#FF9E00"/>
<path d="M80.3008 182.004V163.101H100.002C101.014 163.073 102.003 163.403 102.795 164.033C103.145 164.289 103.431 164.623 103.63 165.009C103.829 165.394 103.936 165.82 103.942 166.253V171.821C103.937 172.255 103.83 172.681 103.631 173.066C103.432 173.452 103.146 173.786 102.795 174.042C102.003 174.671 101.014 175.001 100.002 174.973H96.39L103.81 181.992V182.021H100.296L92.9103 174.973L82.9617 174.948V182.021L80.3008 182.004ZM84.241 172.8H100.019C100.34 172.811 100.654 172.709 100.906 172.51C101.017 172.429 101.108 172.323 101.171 172.2C101.234 172.077 101.267 171.942 101.268 171.804V166.253C101.266 166.113 101.233 165.976 101.17 165.85C101.107 165.725 101.017 165.616 100.906 165.53C100.656 165.326 100.341 165.219 100.019 165.228H84.241C83.9137 165.221 83.5941 165.328 83.337 165.53C83.2224 165.613 83.1289 165.722 83.0638 165.847C82.9986 165.973 82.9637 166.112 82.9617 166.253V171.821C82.9615 171.961 82.9956 172.098 83.061 172.221C83.1265 172.344 83.2212 172.449 83.337 172.527C83.5927 172.713 83.9033 172.809 84.2197 172.8H84.241Z" fill="#FF9E00"/>
<path d="M116.727 182.004V165.202H106.22V163.076H129.861V165.202H119.388V182.004H116.727Z" fill="#FF9E00"/>
<path d="M136.099 182.004C135.09 182.034 134.102 181.707 133.311 181.081C132.956 180.826 132.667 180.49 132.467 180.102C132.266 179.714 132.161 179.284 132.159 178.848V178.112H134.82V178.848C134.821 178.989 134.856 179.129 134.921 179.254C134.986 179.38 135.08 179.489 135.195 179.571C135.452 179.773 135.772 179.88 136.099 179.873H151.877C152.205 179.88 152.524 179.773 152.781 179.571C152.897 179.489 152.991 179.38 153.056 179.254C153.121 179.129 153.156 178.989 153.157 178.848V174.616C153.158 174.476 153.124 174.337 153.058 174.213C152.993 174.09 152.898 173.984 152.781 173.905C152.521 173.71 152.203 173.608 151.877 173.616H136.099C135.088 173.645 134.1 173.315 133.311 172.684C132.958 172.429 132.671 172.094 132.471 171.708C132.271 171.322 132.164 170.894 132.159 170.46V166.227C132.161 165.791 132.266 165.361 132.467 164.973C132.667 164.585 132.956 164.25 133.311 163.994C134.104 163.372 135.091 163.046 136.099 163.076H151.877C152.887 163.047 153.875 163.372 154.67 163.994C155.024 164.251 155.312 164.586 155.511 164.974C155.711 165.362 155.815 165.792 155.818 166.227V166.963H153.157V166.227C153.155 166.086 153.121 165.947 153.055 165.821C152.99 165.696 152.896 165.587 152.781 165.504C152.524 165.302 152.205 165.195 151.877 165.202H136.099C135.772 165.195 135.452 165.302 135.195 165.504C135.08 165.587 134.986 165.696 134.921 165.821C134.856 165.947 134.821 166.086 134.82 166.227V170.46C134.819 170.6 134.853 170.738 134.918 170.862C134.984 170.986 135.079 171.092 135.195 171.17C135.455 171.367 135.774 171.469 136.099 171.459H151.877C152.89 171.43 153.88 171.762 154.67 172.395C155.021 172.651 155.308 172.985 155.507 173.37C155.706 173.756 155.812 174.182 155.818 174.616V178.848C155.815 179.284 155.711 179.713 155.511 180.101C155.312 180.489 155.024 180.825 154.67 181.081C153.877 181.706 152.888 182.033 151.877 182.004H136.099Z" fill="#FF9E00"/>
<path d="M159.412 182.004V163.075H178.094C179.104 163.047 180.092 163.372 180.887 163.994C181.241 164.251 181.529 164.586 181.728 164.974C181.927 165.362 182.032 165.791 182.034 166.227V170.251C182.034 170.497 181.995 170.741 181.919 170.974C181.843 171.209 181.739 171.433 181.608 171.642C182.011 172.111 182.374 172.613 182.691 173.144C182.922 173.53 183.047 173.97 183.053 174.42V178.835C183.051 179.272 182.946 179.701 182.746 180.089C182.546 180.477 182.257 180.813 181.902 181.068C181.11 181.694 180.123 182.021 179.113 181.991L159.412 182.004ZM163.352 171.276H178.094C178.416 171.286 178.731 171.178 178.981 170.974C179.093 170.89 179.185 170.781 179.248 170.655C179.31 170.53 179.343 170.392 179.343 170.251V166.227C179.343 166.087 179.31 165.949 179.247 165.824C179.184 165.698 179.093 165.589 178.981 165.504C178.731 165.3 178.416 165.193 178.094 165.202H163.352C163.025 165.195 162.705 165.302 162.448 165.504C162.333 165.587 162.239 165.696 162.174 165.821C162.109 165.947 162.074 166.086 162.073 166.227V170.251C162.074 170.393 162.108 170.532 162.174 170.658C162.239 170.783 162.333 170.892 162.448 170.974C162.705 171.177 163.025 171.283 163.352 171.276V171.276ZM163.352 179.873H179.13C179.458 179.88 179.777 179.773 180.034 179.571C180.15 179.488 180.244 179.38 180.309 179.254C180.374 179.129 180.409 178.989 180.41 178.848V174.433C180.409 174.291 180.374 174.152 180.309 174.026C180.244 173.9 180.15 173.792 180.034 173.71C179.778 173.505 179.458 173.398 179.13 173.407H163.352C163.025 173.398 162.704 173.505 162.448 173.71C162.333 173.792 162.239 173.9 162.174 174.026C162.108 174.152 162.074 174.291 162.073 174.433V178.848C162.074 178.989 162.108 179.129 162.174 179.254C162.239 179.38 162.333 179.488 162.448 179.571C162.705 179.773 163.025 179.88 163.352 179.873Z" fill="#FF9E00"/>
<path d="M186.482 182.004V163.076H189.177V182.004H186.482Z" fill="#FF9E00"/>
<path d="M193.493 182.004V179.086L214.115 165.202H193.493V163.076H217.135V165.994L196.517 179.873H217.135V182L193.493 182.004Z" fill="#FF9E00"/>
<path d="M220.452 182.004V179.086L241.066 165.202H220.452V163.076H244.093V165.994L223.471 179.873H244.093V182L220.452 182.004Z" fill="#FF9E00"/>
</svg>
