<svg width="581" height="500" viewBox="0 0 581 500" fill="none" xmlns="http://www.w3.org/2000/svg">
<g clip-path="url(#clip0_938_1889)">
<path d="M579.648 236.48C572.218 159.13 503.488 102.45 426.138 109.88C423.538 110.13 420.948 110.45 418.368 110.85C394.918 114.16 372.718 123.45 353.898 137.83C361.248 164.45 367.228 191.27 372.168 218.36C389.728 181.28 434.028 165.46 471.108 183.03C508.188 200.59 524.008 244.89 506.438 281.97C493.768 308.72 466.428 325.39 436.848 324.41C417.008 324.01 398.188 315.51 384.768 300.89C386.378 313.94 387.938 327.07 389.438 340.26C390.368 341.01 391.368 341.66 392.428 342.2C398.308 345.34 404.458 347.94 410.798 349.97C412.528 350.44 414.478 350.81 413.788 352.96C412.788 357.63 411.898 361.83 411.058 366.03C410.538 368.55 408.958 368.5 407.018 367.92C401.768 366.29 396.838 364.46 391.898 362.36C392.638 369.45 393.418 376.53 394.158 383.36C408.158 387.99 422.778 390.47 437.518 390.71C459.338 391.23 480.958 386.44 500.518 376.75C531.328 362 555.708 336.55 569.138 305.14C573.648 293.69 577.068 281.84 579.378 269.76L580.318 239.52C579.638 238.58 579.638 237.47 579.638 236.48H579.648ZM422.148 147.55C409.658 149.36 397.708 153.82 387.078 160.62C385.448 161.62 384.138 161.83 382.978 159.99C380.618 156.37 378.248 152.8 375.788 149.49C374.528 147.6 375.268 146.6 376.998 145.66C390.458 138.08 405.078 132.76 420.258 129.91C422.198 129.54 423.358 129.91 423.568 132.22C424.038 136.31 424.618 140.41 425.138 144.56C425.668 146.97 423.878 147.34 422.148 147.55ZM507.148 155.27C504.628 158.19 502.268 161.24 500.058 164.4C498.538 166.45 497.228 166.92 494.808 165.24C486.378 158.9 476.828 154.2 466.668 151.38C464.518 150.75 463.048 149.86 463.568 147.39C464.458 143.19 465.408 138.99 466.298 134.79C466.298 133.53 466.928 132.43 468.658 132.69C472.278 133.9 476.008 135 479.578 136.36C488.858 139.76 497.758 144.11 506.138 149.33C508.868 151.11 509.708 152.53 507.288 155.26H507.128L507.148 155.27ZM500.378 355.19C489.108 361.15 476.888 365.09 464.258 366.84C461.738 367.21 461.058 366.16 460.798 364.11C460.428 360.75 460.008 357.34 459.588 353.24C459.118 351.66 460.328 350.72 462.368 350.25C472.148 347.86 481.568 344.21 490.398 339.38C492.288 338.44 493.498 338.17 494.758 340.27C496.958 343.94 499.378 347.46 501.848 350.77C502.898 352.92 502.688 354.08 500.538 355.18H500.378V355.19ZM528.938 190.5C531.928 188.61 534.928 186.67 537.758 184.57C540.588 182.47 541.278 183.47 542.688 185.72C550.548 198.56 555.778 212.84 558.068 227.72C558.538 230.66 558.068 231.92 555.018 232.23L541.838 233.7C541.098 233.7 540.688 232.34 540.418 230.76C538.138 218.23 533.828 206.15 527.658 195.01C526.608 192.6 527.138 191.6 529.078 190.5H528.918H528.938ZM552.038 294.97C548.918 301.53 545.228 307.8 541.018 313.71C539.128 316.33 537.608 316.39 535.348 314.44C532.298 311.82 527.788 309.93 526.418 306.67C525.048 303.42 529.408 299.79 531.088 296.17C534.628 289.33 537.558 282.2 539.858 274.86C540.648 272.18 541.858 271.29 544.688 272.08C548.368 273.18 552.198 273.71 555.978 274.49C557.348 274.49 558.658 274.96 558.498 276.64C557.078 282.96 554.968 289.11 552.198 294.96H552.038V294.97Z" fill="#F2D71A"/>
<path d="M493.553 251.71C492.673 281.76 467.593 305.42 437.543 304.53C437.433 304.53 437.333 304.53 437.223 304.52C407.103 304.18 382.953 279.49 383.293 249.37C383.633 219.25 408.323 195.1 438.443 195.44C439.353 195.45 440.253 195.48 441.163 195.54C471.043 196.47 494.503 221.45 493.573 251.33C493.573 251.46 493.573 251.58 493.563 251.71H493.553Z" fill="#F2D71A"/>
<path d="M0 86.6698C0 58.7898 17.8 36.5898 43.57 32.6998C98.69 24.3498 153.82 16.9498 209.26 8.96982C228.84 6.18982 248.48 3.71981 268.06 0.729815C298.4 -3.94019 324.97 14.1698 329.48 44.5098C339.4 111.08 348.54 177.7 357.93 244.32C365.49 298.03 372.73 351.79 380.56 405.44C384.97 435.57 368.43 461.98 338.56 466.92C289.74 474.95 240.65 481.25 191.56 488.23C165.73 491.9 139.85 495.32 114.02 499.25C82.99 503.92 56.64 485.92 51.97 454.73C42.1 389 33.02 323.11 23.73 257.28C16.12 203.63 8.72 149.87 1.21 96.2098C0.74 92.2698 0.21 88.3398 0 86.6598L0 86.6698ZM262.08 224.74C262.77 208.44 253.36 193.4 238.4 186.89C223.14 178.94 204.53 181.42 191.89 193.08C187.16 197.23 183.65 199.96 176.46 196.7C153.83 186.52 131.21 193.45 119.76 212.92C108.32 232.4 113.09 254.92 133.09 270.67C148.03 282.36 163.19 293.82 178.55 305.06C193.67 316.14 206.01 314.56 217.61 299.81C230.1 284.06 241.97 267.63 254.36 251.51C259.96 243.75 262.69 234.29 262.08 224.74ZM334.84 382.24C335.15 374.1 332.42 370.43 327.75 368.33C323.61 365.99 318.36 367.44 316.01 371.57C315.84 371.86 315.7 372.16 315.57 372.47C310.32 388.22 304.44 393.47 293.47 376.14C290.33 372.19 284.59 371.53 280.64 374.66C280.27 374.95 279.93 375.27 279.61 375.61C275.11 378.47 273.77 384.44 276.63 388.94C276.71 389.07 276.79 389.19 276.88 389.31C285.02 401.49 292.94 413.83 301.92 425.32C307.17 432.35 315.99 431.99 319.56 424.22C326.12 409.84 330.43 394.51 334.84 382.12V382.22V382.24ZM46.72 117.65C46.72 126.05 49.03 130.25 54.65 131.82C59.77 133.28 65.19 130.81 67.46 125.99C70.4 121.37 69.51 113.02 74.76 111.92C81.38 110.5 82.32 119.53 86.62 123.21C90.93 126.88 95.07 129.3 100.37 125.68C105.32 123.4 107.49 117.54 105.2 112.59C105.03 112.22 104.83 111.86 104.62 111.51C97.34 98.4398 88.78 86.1298 79.05 74.7598C75.95 70.2098 69.75 69.0298 65.19 72.1298C63.44 73.3198 62.12 75.0298 61.41 77.0198C55.16 90.5598 50.96 105.47 46.71 117.65H46.72Z" fill="#F2D71A"/>
</g>
<defs>
<clipPath id="clip0_938_1889">
<rect width="580.33" height="500" fill="white"/>
</clipPath>
</defs>
</svg>
