<svg width="144" height="144" viewBox="0 0 144 144" fill="none" xmlns="http://www.w3.org/2000/svg">
<path d="M20.221 68.3647C22.301 68.3307 24.084 70.0857 24.07 72.1547C24.057 74.1717 22.352 75.8787 20.325 75.9037C18.23 75.9287 16.48 74.2047 16.487 72.1227C16.495 70.0857 18.172 68.3987 20.221 68.3647Z" fill="white"/>
<path d="M101.798 116.95C101.757 119.073 100.03 120.703 97.892 120.637C95.824 120.573 94.227 118.895 94.26 116.822C94.294 114.71 96.02 113.078 98.159 113.136C100.21 113.191 101.837 114.897 101.798 116.95Z" fill="white"/>
<path d="M123.828 68.2306C125.922 68.2116 127.67 69.9446 127.654 72.0236C127.638 74.0576 125.949 75.7456 123.905 75.7686C121.819 75.7926 120.046 74.0336 120.071 71.9636C120.095 69.9336 121.79 68.2486 123.828 68.2306Z" fill="white"/>
<path d="M49.989 116.953C49.991 119 48.337 120.702 46.299 120.75C44.233 120.798 42.474 119.055 42.474 116.959C42.474 114.853 44.206 113.138 46.295 113.174C48.34 113.209 49.987 114.893 49.989 116.953Z" fill="white"/>
<path d="M46.16 23.4895C48.23 23.5105 49.87 25.1555 49.883 27.2205C49.895 29.3375 48.203 31.0165 46.074 30.9995C44.016 30.9825 42.353 29.3255 42.335 27.2735C42.317 25.1735 44.041 23.4675 46.16 23.4895Z" fill="white"/>
<path d="M101.667 27.1209C101.692 29.2299 99.9899 30.9629 97.8989 30.9579C95.8539 30.9529 94.1809 29.2899 94.1509 27.2339C94.1199 25.1409 95.8559 23.3699 97.9249 23.3809C99.9479 23.3919 101.644 25.0859 101.667 27.1209Z" fill="white"/>
<path fill-rule="evenodd" clip-rule="evenodd" d="M1.797 71.9999C1.797 33.2279 33.228 1.79688 72 1.79688C110.772 1.79688 142.203 33.2279 142.203 71.9999C142.203 110.772 110.772 142.203 72 142.203C33.228 142.203 1.797 110.772 1.797 71.9999ZM82.971 16.3627C81.9751 21.5372 80.9791 26.7118 79.935 31.8769C79.761 32.7389 79.963 32.9729 80.727 33.1409C88.851 34.9219 95.723 38.9029 101.352 45.0119C101.984 45.6979 102.322 45.7569 103.051 45.1129C108.047 40.7029 113.074 36.3289 118.139 31.9999C119.001 31.2629 119.175 30.9049 118.303 29.9649C111.972 23.1399 104.544 17.9059 95.951 14.3459C92.329 12.8459 88.589 11.6919 84.703 10.9429C84.0282 10.7002 83.96 11.1312 83.891 11.5673C83.881 11.6307 83.8709 11.6943 83.859 11.7559C83.5622 13.2913 83.2666 14.827 82.971 16.3627ZM58.975 10.9909C45.783 13.8489 34.671 20.3079 25.545 30.2409C24.887 30.9569 25.165 31.2129 25.72 31.6929C30.898 36.1699 36.066 40.6579 41.205 45.1789C41.828 45.7279 42.148 45.7409 42.706 45.1079C44.889 42.6309 47.406 40.5259 50.165 38.7159C54.241 36.0429 58.654 34.1639 63.425 33.1319C63.4853 33.1188 63.5467 33.1078 63.6077 33.097C64.0407 33.0196 64.4505 32.9465 64.291 32.1479C63.2715 27.0561 62.2881 21.9561 61.3048 16.8565C60.9601 15.0684 60.6153 13.2805 60.269 11.4929C60.2614 11.4532 60.2547 11.4122 60.248 11.371C60.1968 11.0569 60.1438 10.7321 59.646 10.8639C59.5766 10.8769 59.5071 10.8894 59.4376 10.9019C59.2829 10.9299 59.1282 10.9577 58.975 10.9909ZM12.557 91.3899C12.818 92.2069 13.063 92.3389 13.844 92.0659C20.324 89.8019 26.813 87.5649 33.312 85.3569C34.053 85.1049 34.298 84.8979 34.034 84.0469C31.559 76.0769 31.543 68.0849 34.026 60.1109C34.27 59.3299 34.172 59.0429 33.363 58.7689C26.862 56.5679 20.37 54.3369 13.899 52.0459C12.957 51.7129 12.791 52.0039 12.532 52.8039C10.512 59.0569 9.51 65.4599 9.536 70.9749C9.529 78.6409 10.549 85.0869 12.557 91.3899ZM63.3042 116.822C63.6285 115.159 63.9533 113.492 64.279 111.821L64.2794 111.818C64.347 111.234 64.3494 111.214 63.43 111.011C55.26 109.205 48.363 105.19 42.705 99.0449C42.179 98.4729 41.886 98.3189 41.209 98.9149C36.038 103.468 30.828 107.978 25.608 112.476C25.054 112.954 24.908 113.209 25.479 113.831C34.659 123.834 45.818 130.384 59.113 133.272C59.927 133.449 60.153 133.278 60.27 132.534C60.4234 131.563 60.6149 130.598 60.8064 129.634C60.8633 129.347 60.9201 129.061 60.976 128.774C61.7499 124.796 62.5252 120.818 63.3042 116.822ZM84.928 133.278C98.228 130.425 109.416 123.926 118.571 113.89C118.755 113.688 118.937 113.484 119.113 113.286C119.102 112.979 118.9 112.832 118.703 112.69C118.645 112.647 118.587 112.606 118.535 112.56C117.061 111.276 115.586 109.993 114.112 108.71C110.354 105.441 106.596 102.173 102.856 98.8839C102.241 98.3429 101.946 98.4789 101.461 99.0069C95.772 105.192 88.829 109.212 80.612 111.013C80.018 111.144 79.716 111.286 79.876 112.085C81.245 118.917 82.553 125.762 83.848 132.609C83.986 133.335 84.205 133.433 84.928 133.278ZM110.823 85.3789C117.321 87.5899 123.812 89.8219 130.291 92.0889C131.081 92.3659 131.325 92.2499 131.591 91.4259C133.607 85.1719 134.619 78.7719 134.596 72.2039C134.62 65.5439 133.572 59.0559 131.562 52.7079C131.289 51.8459 130.975 51.8289 130.249 52.0819C123.769 54.3439 117.286 56.5959 110.783 58.7909C109.948 59.0729 109.889 59.3719 110.124 60.1319C112.588 68.1079 112.592 76.0989 110.099 84.0669C109.828 84.9329 110.099 85.1319 110.823 85.3789ZM67.1918 90.9231H72.0589H76.8082C77.5671 90.9231 78.1822 90.3178 78.1822 89.571C78.1822 89.2317 78.0557 88.9052 77.8199 88.6578C76.1848 86.9416 73.7326 81.9834 73.7326 81.9834C76.4291 84.3957 80.5715 84 80.5715 84C85.261 83.8474 89.0232 80.2267 88.9999 75.6235C88.9735 70.3539 84.8879 66.6361 79.7895 62.0504C73.4321 56.333 71.9999 53 71.9999 53C71.9999 53 70.5676 56.333 64.2105 62.0504C59.1121 66.6361 55.0267 70.3542 55.0001 75.6235C54.9768 80.2267 58.7388 83.8474 63.4285 84C63.4285 84 67.5709 84.3957 70.2674 81.9834C70.2674 81.9834 67.8152 86.9416 66.1801 88.6578C65.9443 88.9052 65.8178 89.2317 65.8178 89.571C65.8178 90.3178 66.4329 90.9231 67.1918 90.9231Z" fill="white"/>
</svg>
