<svg width="450" height="500" viewBox="0 0 450 500" fill="none" xmlns="http://www.w3.org/2000/svg">
<g clip-path="url(#clip0_938_1893)">
<path d="M129.16 500C120.45 494.61 114.259 486.5 107.219 479.35C83.3895 455.15 59.7695 430.73 36.0795 406.39C26.0995 396.14 16.1895 385.83 6.1395 375.65C0.9095 370.35 -1.5705 364.36 1.0595 357.09C3.6895 349.84 9.2895 346.33 16.8195 346.2C30.7895 345.97 44.7695 345.99 58.7495 345.92C66.6195 345.88 66.6295 345.9 66.6295 338.23C66.6295 296.46 66.6295 254.68 66.6295 212.91C66.6295 197.66 72.6995 191.58 87.8795 191.57C119.409 191.57 150.949 191.56 182.479 191.57C196.559 191.57 202.63 197.67 202.63 211.76C202.63 253.53 202.629 295.31 202.639 337.08C202.639 346.33 201.53 345.91 211.71 345.91C224.39 345.91 237.07 345.81 249.74 345.95C260.16 346.07 266.08 349.78 268.66 357.44C271.03 364.45 268.58 370.12 263.7 375.13C238.74 400.73 213.8 426.36 188.85 451.97C175.58 465.59 162.259 479.16 149.059 492.85C146.319 495.69 143.4 498.19 139.88 499.98H129.149L129.16 500Z" fill="#F2D71A"/>
<path d="M246.901 226.18C246.901 204.4 246.761 182.63 247.011 160.85C247.071 155.87 245.491 154.4 240.611 154.5C226.961 154.77 213.311 154.7 199.661 154.55C189.451 154.44 183.691 150.85 181.001 143.42C178.391 136.24 180.891 130.44 185.901 125.3C210.401 100.17 234.901 75.03 259.371 49.87C273.421 35.43 287.451 20.97 301.451 6.47002C309.541 -1.90998 319.461 -2.23998 327.541 6.03002C366.371 45.79 405.121 85.62 443.911 125.42C448.851 130.49 450.931 136.36 448.551 143.22C446.101 150.27 440.871 154.06 433.451 154.21C419.321 154.49 405.191 154.51 391.051 154.59C382.931 154.64 382.921 154.61 382.921 162.52C382.921 204.28 382.921 246.05 382.921 287.81C382.921 302.86 376.901 308.94 361.991 308.94C330.301 308.95 298.611 308.96 266.921 308.94C253.131 308.94 246.931 302.75 246.931 289.07C246.931 268.11 246.931 247.14 246.931 226.18H246.901Z" fill="#F2D71A"/>
</g>
<defs>
<clipPath id="clip0_938_1893">
<rect width="449.51" height="500" fill="white"/>
</clipPath>
</defs>
</svg>
