<svg width="501" height="500" viewBox="0 0 501 500" fill="none" xmlns="http://www.w3.org/2000/svg">
<g clip-path="url(#clip0_938_1896)">
<path d="M235.856 267.97L199.126 305.13C195.516 308.79 191.906 312.56 188.086 316.07C172.536 330.51 153.796 330.56 138.716 315.54C96.2464 273.28 53.7764 230.82 11.3164 188.14C-3.49364 173.22 -3.86364 153.58 10.8364 138.67C53.0464 95.9 95.5163 53.44 138.226 11.25C150.656 -2.65004 172.006 -3.83004 185.896 8.59996C186.826 9.42996 187.716 10.32 188.546 11.25C231.016 53.72 273.486 96.1899 315.946 138.65C330.756 153.62 330.706 172.68 315.946 188.02C302.466 202.09 288.446 215.57 274.756 229.43C272.636 231.61 269.446 233.25 268.966 236.97C272.326 238.34 276.026 238.69 279.586 237.98H460.606C488.366 237.98 500.576 250.03 500.576 277.42V461.36C500.576 487.9 488.476 500.01 461.926 500.01H276.716C251.446 500.01 238.286 487 238.226 461.79V269.2L235.836 267.98L235.856 267.97ZM389.796 369.1C389.326 357.97 380.336 349.09 369.196 348.77C358.056 349.48 349.276 358.53 348.916 369.69C349.446 380.86 358.546 389.7 369.726 389.92C380.876 389.36 389.686 380.27 389.896 369.11H389.786L389.796 369.1ZM183.616 77.13C184.146 66.15 175.666 56.82 164.686 56.29C164.426 56.28 164.176 56.27 163.916 56.27C153.296 55.65 144.176 63.77 143.566 74.39C143.546 74.67 143.536 74.94 143.536 75.22C142.126 85.44 149.266 94.87 159.496 96.28C160.486 96.42 161.486 96.47 162.486 96.45C173.056 97.65 182.606 90.05 183.806 79.48C183.886 78.77 183.926 78.05 183.926 77.34L183.606 77.13H183.616ZM324.186 434.49C325.056 424.18 317.396 415.11 307.086 414.24C306.186 414.16 305.286 414.15 304.386 414.21C293.336 414.05 284.246 422.88 284.086 433.93C283.926 444.98 292.756 454.07 303.806 454.23C314.106 455.21 323.256 447.65 324.236 437.35C324.316 436.47 324.336 435.58 324.296 434.7L324.186 434.49ZM454.666 304.65C454.696 293.6 445.756 284.62 434.706 284.59C423.656 284.56 414.676 293.5 414.646 304.55V304.65C414.346 315.23 422.686 324.05 433.266 324.34C433.586 324.34 433.916 324.34 434.236 324.34C444.506 325.33 453.636 317.8 454.616 307.52C454.706 306.56 454.726 305.6 454.666 304.64V304.65ZM143.856 163.34C143.446 174.18 151.896 183.3 162.736 183.71C163.116 183.72 163.486 183.73 163.866 183.72C174.976 183.67 183.936 174.61 183.886 163.5C183.886 163.36 183.886 163.21 183.886 163.07C184.036 152.46 175.556 143.73 164.946 143.58C164.676 143.58 164.406 143.58 164.136 143.58C153.866 142.56 144.716 150.06 143.696 160.33C143.596 161.32 143.576 162.33 143.636 163.32H143.846L143.856 163.34ZM304.756 284.16C293.686 283.59 284.256 292.1 283.686 303.17C283.116 314.24 291.626 323.67 302.696 324.24C303.386 324.28 304.076 324.28 304.756 324.24C314.976 324.78 323.696 316.94 324.236 306.72C324.276 306.05 324.266 305.37 324.236 304.7C324.976 294.11 316.986 284.93 306.396 284.2C305.776 284.16 305.156 284.14 304.536 284.16H304.746H304.756ZM164.246 269.93C174.706 270.32 183.496 262.15 183.886 251.69C183.906 251.26 183.906 250.83 183.886 250.39C183.916 239.34 174.976 230.36 163.926 230.33C152.876 230.3 143.896 239.24 143.866 250.29V250.39C143.396 260.73 151.396 269.49 161.736 269.96C162.506 269.99 163.276 269.98 164.036 269.92H164.246V269.93ZM414.646 433.85C414.176 444.75 422.626 453.96 433.526 454.43C433.836 454.44 434.136 454.45 434.446 454.45C445.496 454.76 454.706 446.05 455.016 434.99C455.326 423.94 446.616 414.73 435.556 414.42C424.646 413.69 415.206 421.93 414.466 432.85C414.446 433.18 414.426 433.52 414.426 433.85H414.636H414.646Z" fill="#F2D71A"/>
</g>
<defs>
<clipPath id="clip0_938_1896">
<rect width="500.59" height="500" fill="white"/>
</clipPath>
</defs>
</svg>
