<svg width="655" height="500" viewBox="0 0 655 500" fill="none" xmlns="http://www.w3.org/2000/svg">
<g clip-path="url(#clip0_938_1898)">
<path d="M453.531 220.57C452.151 220.53 450.781 220.52 449.401 220.55C406.231 221.47 371.981 257.22 372.901 300.39C373.821 343.56 409.571 377.81 452.741 376.89C452.851 376.89 452.971 376.89 453.081 376.89C496.201 376.83 531.101 341.82 531.041 298.7C531.041 298.57 531.041 298.44 531.041 298.3C531.101 255.43 496.401 220.63 453.531 220.57ZM475.591 305.66C471.771 311.41 464.431 313.67 458.031 311.08C455.991 310.25 455.721 310.92 455.901 312.67V314.43C455.901 316.85 457.078 318.14 459.431 318.3C461.531 318.2 463.331 319.82 463.431 321.92C463.431 322.02 463.431 322.13 463.431 322.23C463.571 324.3 462.001 326.09 459.931 326.23C459.761 326.24 459.601 326.24 459.431 326.23C456.961 326.3 454.411 326.23 451.891 326.23C449.371 326.23 446.861 326.31 444.341 326.23C442.281 326.32 440.531 324.73 440.441 322.67C440.441 322.52 440.441 322.38 440.441 322.23C440.401 320.14 442.071 318.41 444.161 318.38C444.191 318.38 444.221 318.38 444.251 318.38C446.724 318.166 447.961 316.833 447.961 314.38V312.37C448.121 310.66 447.631 310.42 445.991 311.04C438.131 314.06 429.311 310.14 426.291 302.27C425.691 300.72 425.361 299.08 425.291 297.41C424.891 291.17 427.291 286.12 431.291 281.67C436.631 275.65 443.081 270.73 449.181 265.47C450.641 264 453.011 263.96 454.521 265.38C461.351 271.3 468.771 276.64 474.331 283.88C479.671 290.79 480.051 299.24 475.581 305.66H475.591Z" fill="#F2D71A"/>
<path d="M270.723 164.87C256.993 138.45 229.103 122.49 199.373 124.02C157.273 125.19 123.873 159.87 124.293 201.98C124.263 209.77 125.403 217.51 127.673 224.96C140.213 266.18 183.803 289.43 225.023 276.89C230.073 275.93 233.833 271.68 234.173 266.55C238.533 233.29 250.923 201.59 270.273 174.18C272.493 171.52 272.673 167.72 270.723 164.86V164.87ZM223.583 202.51C217.693 208.94 211.843 215.4 205.933 221.81C203.833 224.03 201.923 224.03 199.893 221.81C194.223 215.45 188.603 209.07 183.013 202.66C181.183 200.56 181.203 199.04 183.013 196.9C188.613 190.5 194.233 184.12 199.893 177.76C201.863 175.54 203.793 175.54 205.793 177.69C211.763 184.15 217.673 190.64 223.573 197.13C224.293 197.79 224.743 198.69 224.833 199.66C224.833 200.74 224.383 201.77 223.603 202.5L223.583 202.51Z" fill="#F2D71A"/>
<path d="M654.419 320.51C651.629 337.83 647.219 354.85 641.259 371.35C623.579 417.07 589.809 454.76 546.289 477.33C518.769 491.98 488.099 499.74 456.919 499.93C407.439 501.22 359.289 483.9 321.959 451.4C237.309 378.86 227.499 251.43 300.039 166.78C330.109 131.69 371.309 107.98 416.759 99.6095C526.479 79.5295 631.699 152.19 651.789 261.91C652.419 265.36 652.959 268.83 653.409 272.31C653.639 273.77 653.979 275.2 654.429 276.6V320.5L654.419 320.51ZM559.679 298.7C559.709 239.86 512.029 192.13 453.189 192.1C394.349 192.07 346.619 239.75 346.589 298.59C346.559 357.43 394.239 405.16 453.079 405.19H453.139C511.889 405.28 559.589 357.73 559.689 298.98C559.689 298.89 559.689 298.79 559.689 298.7H559.679ZM599.619 270.11L618.379 267.45C622.389 266.89 623.409 265.08 622.619 260.9C618.589 239.8 610.449 219.71 598.669 201.75C596.579 198.59 594.769 197.85 591.609 200.34C588.449 202.83 583.419 206.38 579.179 209.21C576.689 210.85 575.789 212.37 577.539 215.37C586.949 231.1 593.669 248.28 597.429 266.21C597.879 268.24 598.619 270.16 599.629 270.11H599.619ZM428.439 147.91C427.539 142.26 426.519 136.16 425.669 130.34C425.269 127.18 423.579 126.55 420.809 127.12C399.219 131.84 378.539 140.03 359.569 151.36C357.139 152.77 356.119 154.24 358.039 157.01C361.659 161.92 365.269 166.95 368.769 171.98C370.519 174.58 372.389 174.24 374.419 172.71C389.349 162.52 406.279 155.61 424.079 152.43C426.619 152.09 429.109 151.47 428.429 147.91H428.439ZM490.579 128.98C488.149 128.7 487.639 130.28 487.299 132.09C486.169 138.13 485.039 144.18 483.969 150.22C483.349 153.84 485.499 155.02 488.549 155.87C503.249 159.48 517.159 165.78 529.559 174.46C532.839 176.72 534.699 176.04 536.789 172.99C539.799 168.36 543.039 163.9 546.509 159.6C549.839 155.65 548.599 153.67 544.589 151.3C532.489 144.21 519.719 138.35 506.459 133.79C501.089 132.1 495.779 130.97 490.469 129.16L490.579 128.99V128.98ZM421.209 447.32C422.059 444.21 419.289 443.76 416.749 443.14C407.579 440.51 398.659 437.09 390.079 432.91C383.869 430.09 378.159 421.61 372.229 424.21C366.299 426.81 363.359 435.11 359.069 440.88L358.339 441.9C356.419 444.16 357.269 445.52 359.529 446.93C376.009 456.63 393.719 464.06 412.179 469.02C414.999 469.81 417.259 469.75 417.829 466.2C418.899 459.87 420.029 453.83 421.219 447.33L421.209 447.32ZM625.379 331.73C625.379 329.3 623.629 329.07 621.649 328.74C615.999 327.84 610.689 327.16 605.379 325.8C601.259 324.78 599.729 326.08 598.599 329.98C595.679 340.61 591.799 350.95 587.019 360.88C584.759 365.96 578.429 370.88 580.809 375.96C583.179 381.04 589.449 383.02 593.859 386.64C597.249 389.35 599.509 389.18 601.999 385.34C607.769 376.67 612.779 367.53 616.969 358C620.729 349.5 623.559 340.62 625.389 331.5V331.73H625.379ZM487.029 445.34C487.879 451.27 488.559 456.07 489.289 460.88C489.689 463.82 490.759 465.34 494.319 464.67C512.329 461.57 529.669 455.35 545.559 446.31C548.549 444.62 548.839 443.03 546.859 440.32C543.189 435.41 539.569 430.43 536.239 425.24C534.319 422.3 532.619 422.7 529.969 424.17C517.729 431.46 504.609 437.16 490.929 441.12C488.109 441.68 486.469 443.15 487.029 445.36V445.34ZM304.839 328.68C299.189 329.53 293.539 330.6 287.889 331.22C283.819 331.67 282.859 333.65 283.939 337.26C288.929 354.41 295.999 370.88 305.009 386.3C306.699 389.18 308.459 389.52 311.109 387.49C315.009 384.5 318.959 381.84 323.029 378.96C325.969 376.98 326.019 374.84 324.439 371.95C317.729 359.86 313.069 346.75 310.659 333.14C310.569 330.52 308.379 328.47 305.759 328.56C305.449 328.57 305.139 328.61 304.839 328.68ZM304.109 262.41C308.119 263.37 308.739 260.49 309.419 257.78C312.329 246.68 316.559 235.96 322.019 225.86C324.389 221.23 330.439 217.22 329.029 212.24C327.619 207.27 320.669 205.57 316.599 201.9C312.529 198.23 310.949 199.58 308.919 203.48C300.559 218.25 293.909 233.93 289.089 250.2C287.316 256.153 289.406 259.673 295.359 260.76L304.119 262.4L304.109 262.41Z" fill="#F2D71A"/>
<path d="M0 201.76C4.52 115.83 43.78 51.9401 123.27 16.4601C211.5 -21.6799 314.38 8.24008 368.4 87.7601C373.09 94.6501 373.03 94.6001 365.35 97.8201C361.45 99.4601 357.55 101.21 353.71 102.96C351 104.2 348.46 106.01 345.8 102.96C344.61 101.49 343.09 102.34 341.85 103.24C336.82 106.8 329.7 109.28 327.16 114.2C320.38 127.02 306.37 131.49 298.01 142.05C294.62 146.34 292.36 145.21 289.25 141.15C269.75 112.38 237.06 95.3801 202.31 95.9601C143.43 95.8001 95.57 143.39 95.41 202.27C95.27 253.05 130.97 296.88 180.73 307.02C195.12 310.16 210.03 309.98 224.34 306.51C229.99 305.15 232.19 306.51 232.53 312.72C233.19 321.4 234.3 330.03 235.86 338.59C237.16 346.89 236.2 355.54 238.29 363.79C238.91 366.28 238.74 368.93 242.3 369.44C244.5 369.44 245.07 371.81 245.86 373.56C248.52 379.55 251 385.71 253.83 391.58C255.81 395.59 255.41 397.51 250.55 398.7C225.51 404.84 199.52 406.12 174 402.49C86.49 390.09 17.19 322.26 2.94 235.03C1.13 224.03 0.15 212.9 0 201.76ZM177.73 53.0701C176.54 45.7301 175.64 39.6801 174.68 33.6401C174.28 31.0401 172.87 30.2501 170.16 30.8201C148.54 35.4001 127.83 43.5301 108.86 54.8901C106.09 56.4701 105.41 58.3401 107.45 61.0501C110.95 65.8501 114.4 70.6501 117.79 75.5701C119.2 77.7201 120.61 78.4501 122.93 76.8101C138.34 66.1401 155.88 58.9501 174.34 55.7401C176.32 55.4001 177.84 54.2101 177.73 53.0801V53.0701ZM240.55 33.0101C237.44 32.1601 236.43 33.8601 235.97 36.5701C235.07 42.2201 234.11 48.3201 232.86 54.1401C232.18 57.1901 233.48 58.4301 236.14 59.0501C251.42 62.8601 265.9 69.3701 278.91 78.2601C281.11 79.7301 283.15 80.0701 284.95 77.5801C288.9 71.9301 292.86 66.2801 296.93 61.1401C298.34 59.1601 298.17 57.8601 296.03 56.5101C278.85 45.8901 260.14 37.9601 240.55 33.0101ZM169.99 352.37C170.5 348.47 168.86 347.17 166.32 346.72C151.67 343.04 137.83 336.71 125.48 328.02C123.95 326.51 121.48 326.52 119.97 328.05C119.62 328.4 119.35 328.81 119.16 329.26C115.49 334.46 111.76 339.65 107.86 344.68C105.71 347.45 106.45 349.09 109.22 350.72C125.69 360.42 143.43 367.8 161.93 372.64C164.02 373.2 166.11 373.6 166.68 370.38C167.81 363.88 169.05 357.67 170.01 352.36L169.99 352.37ZM32.48 238.59C32.76 239.78 33.1 241.02 33.44 242.26C37.99 257.49 44.25 272.16 52.08 285.99C56.26 293.5 56.2 293.5 62.93 288.76C66.21 286.39 69.48 284.01 72.82 281.75C74.6 280.93 75.38 278.81 74.56 277.03C74.45 276.8 74.33 276.59 74.18 276.39C66.95 263.65 61.93 249.79 59.32 235.38C58.87 232.89 57.63 231.43 55.03 231.76L35.6 234.81C33.68 235.15 31.81 235.88 32.49 238.6L32.48 238.59ZM53.95 165.71C57.45 166.27 57.96 163 58.7 160.06C61.65 149 65.93 138.33 71.47 128.31C73.79 123.9 79.94 119.84 78.08 115.43C76.22 111.02 70.11 108.88 66.16 105.43C62.21 101.98 59.89 103.28 57.46 107.52C50.21 120.01 44.39 133.27 40.12 147.07C34.47 166.22 33.23 161.48 51.93 165.49C52.6 165.61 53.28 165.69 53.96 165.72L53.95 165.71Z" fill="#F2D71A"/>
</g>
<defs>
<clipPath id="clip0_938_1898">
<rect width="654.42" height="500" fill="white"/>
</clipPath>
</defs>
</svg>
