<svg width="576" height="576" viewBox="0 0 576 576" fill="none" xmlns="http://www.w3.org/2000/svg">
<path d="M569.677 55.0309C559.217 34.8189 541.813 25.3949 518.937 26.6309C498.181 27.7509 478.845 43.6029 473.061 64.1309C467.057 85.4349 474.969 108.615 492.761 120.315C496.429 122.727 497.317 125.207 497.305 129.203C497.193 175.383 497.233 221.563 497.233 267.743C497.233 316.171 497.233 364.599 497.237 413.023C497.237 416.063 497.965 418.931 492.869 418.871C469.581 418.603 446.289 418.707 422.997 418.811C419.913 418.827 418.677 418.095 418.713 414.759C418.865 399.843 418.809 384.927 418.745 370.011C418.737 367.711 419.005 366.623 421.845 366.103C438.085 363.127 444.809 354.827 444.817 338.199C444.841 261.371 444.837 184.539 444.821 107.711C444.817 87.9029 435.405 78.5549 415.453 78.5349C385.421 78.5069 355.385 78.4469 325.353 78.6189C321.101 78.6429 318.465 77.5509 315.805 73.9469C268.973 10.5469 175.181 10.8229 128.857 74.4749C126.445 77.7869 123.989 78.5989 120.249 78.5869C89.605 78.4709 58.957 78.4829 28.309 78.5429C14.625 78.5709 5.957 83.9469 2.033 94.5149C0.369 99.0029 0.125 103.663 0.125 108.379C0.141 184.387 0.133 260.399 0.157 336.411C0.157 339.059 0.237 341.731 0.617 344.347C2.349 356.235 9.173 364.007 20.865 365.671C26.193 366.431 26.601 368.535 26.589 372.979C26.449 429.579 26.573 486.179 26.365 542.779C26.345 548.051 27.441 549.483 32.933 549.463C95.857 549.235 158.785 549.319 221.713 549.319C285.049 549.319 348.385 549.219 411.721 549.475C417.821 549.499 419.021 547.783 418.929 542.035C418.569 520.179 418.933 498.307 418.665 476.447C418.609 471.763 419.925 470.691 424.469 470.739C447.553 470.979 470.641 470.899 493.729 470.807C498.205 470.791 502.785 470.755 507.133 469.855C533.065 464.487 549.305 443.743 549.321 415.963C549.373 321.767 549.393 227.567 549.225 133.371C549.213 126.859 549.681 121.663 556.389 118.407C559.341 116.975 561.737 113.967 563.813 111.239C577.153 93.7349 579.825 74.6349 569.677 55.0309ZM308.737 470.963C279.949 470.755 251.157 470.855 222.365 470.855C193.573 470.855 164.785 470.783 135.993 470.939C132.129 470.959 130.809 470.143 130.893 465.999C131.169 451.711 131.101 437.411 130.925 423.119C130.885 419.755 131.693 418.659 135.249 418.667C193.441 418.779 251.637 418.783 309.829 418.663C313.605 418.655 314.057 420.115 314.025 423.295C313.885 437.383 313.789 451.479 314.069 465.563C314.157 469.823 313.085 470.991 308.737 470.963ZM392.533 308.035C392.549 312.811 391.377 314.051 386.557 314.035C331.813 313.851 277.065 313.919 222.321 313.919C167.781 313.919 113.237 313.839 58.697 314.047C53.609 314.067 52.393 312.875 52.409 307.771C52.613 250.771 52.601 193.771 52.425 136.775C52.409 132.019 53.557 130.811 58.357 130.819C167.645 130.967 276.929 130.971 386.217 130.815C391.221 130.807 392.569 131.855 392.549 137.039C392.341 194.035 392.357 251.035 392.533 308.035Z" fill="#F2D71A"/>
<path d="M340.147 183.346C324.115 183.346 309.055 183.078 294.011 183.49C288.691 183.634 287.415 181.978 287.819 177.022C288.267 171.542 288.019 165.998 287.879 160.486C287.811 157.906 288.571 156.922 291.311 156.934C315.207 157.026 339.099 157.026 362.995 156.934C365.751 156.922 366.367 157.942 366.431 160.494C366.751 173.554 365.979 185.858 359.315 198.126C344.167 226.014 330.491 254.71 316.503 283.218C314.647 287.002 312.615 288.154 308.647 287.954C302.131 287.63 295.591 287.866 287.975 287.866C305.415 252.926 322.579 218.542 340.147 183.346Z" fill="#F2D71A"/>
<path d="M183.328 287.866C200.832 252.818 217.968 218.502 235.528 183.346C219.94 183.346 205.132 183.094 190.34 183.478C184.872 183.618 182.672 182.354 183.288 176.554C183.824 171.506 183.528 166.35 183.352 161.254C183.248 158.262 183.908 156.898 187.348 156.918C210.828 157.058 234.308 157.046 257.788 156.926C261.076 156.91 261.788 158.062 261.944 161.166C262.62 174.566 260.764 186.89 254.088 199.218C239.268 226.578 225.864 254.71 212.16 282.666C210.144 286.782 207.924 288.294 203.404 287.978C197.104 287.538 190.756 287.866 183.328 287.866Z" fill="#F2D71A"/>
<path d="M78.7178 287.866C96.2258 252.81 113.35 218.53 130.922 183.346C115.662 183.346 101.278 183.346 86.8938 183.346C78.5938 183.346 78.5378 183.346 78.6138 174.83C78.6618 169.154 76.7458 161.634 79.6138 158.282C82.9618 154.37 90.7178 157.106 96.5418 157.05C115.106 156.87 133.678 157.078 152.242 156.902C155.902 156.866 156.938 157.77 157.186 161.594C158.09 175.514 155.454 188.11 148.69 200.702C134.166 227.734 120.982 255.494 107.39 283.022C105.69 286.47 103.95 288.302 99.6858 287.99C93.0578 287.51 86.3658 287.866 78.7178 287.866Z" fill="#F2D71A"/>
</svg>
