<?xml version="1.0" encoding="utf-8"?>
<!-- Generator: Adobe Illustrator 27.1.0, SVG Export Plug-In . SVG Version: 6.00 Build 0)  -->
<svg version="1.1" id="Layer_1" xmlns="http://www.w3.org/2000/svg" xmlns:xlink="http://www.w3.org/1999/xlink" x="0px" y="0px"
	 viewBox="0 0 450 500" style="enable-background:new 0 0 450 500;" xml:space="preserve">
<style type="text/css">
	.st0{fill:#F2D71A;}
</style>
<g>
	<defs>
		<rect id="SVGID_1_" width="449.5" height="500"/>
	</defs>
	<clipPath id="SVGID_00000012462653457374453030000000578427779050556564_">
		<use xlink:href="#SVGID_1_"  style="overflow:visible;"/>
	</clipPath>
</g>
<path class="st0" d="M443.4,124.3c-10-10.2-20-20.5-29.9-30.7c-23.7-24.3-47.3-48.8-71.1-73c-7-7.1-13.2-15.3-21.9-20.6l0,0h-10.7
	c-3.5,1.8-6.4,4.3-9.2,7.1c-13.2,13.7-26.5,27.3-39.8,40.9c-23.8,24.4-47.5,48.8-71.3,73.1c11.3-3.1,23.3-4.8,35.6-4.8
	c73.8,0,133.6,59.8,133.6,133.6c0,21-4.8,40.8-13.4,58.4c5.5,0,11,0,16.4,0c15.2,0,21.2-6.1,21.2-21.3c0-41.8,0-83.5,0-125.3
	c0-7.7,0-7.6,7.9-7.7c14-0.1,28,0,41.9-0.3c7.5-0.1,13.1-3.6,15.8-10.9C451.1,135.6,448.6,129.6,443.4,124.3z"/>
<path class="st0" d="M225,383.6c-73.8,0-133.6-59.8-133.6-133.6c0-21.2,4.9-41.2,13.7-58.9c-5.8,0-11.7,0-17.5,0
	c-14.9,0-20.9,6.1-20.9,21.1c0,41.8,0,83.5,0,125.3c0,7.9,0,7.9-8.1,7.9c-14.1,0.1-28.3,0.1-42.4,0.4c-7.4,0.2-12.7,3.9-15.1,11
	c-2.4,6.9-0.3,12.7,4.6,17.8C44.4,414.4,83.1,454.2,122,494c8.1,8.3,18,7.9,26.1-0.4c14-14.5,28-29,42.1-43.4
	c23-23.7,46.1-47.3,69.1-70.9C248.3,382.1,236.8,383.6,225,383.6z"/>
<g>
	<path class="st0" d="M152.4,308.4l25.7-30.6c16.9,13.3,34.9,20,53.9,20c12.6,0,19.2-4,19.2-11.4v-0.5c0-7.1-5.5-10.5-28.3-16.2
		c-35.2-8.1-62.7-17.8-62.7-52v-0.5c0-31.1,24.5-53.2,64.4-53.2c28.5,0,50.4,7.6,68.4,22.1l-23,32.5c-15.2-11.2-31.6-16.4-46.6-16.4
		c-11.2,0-16.6,4.3-16.6,10.7v0.5c0,7.4,5.7,11.2,29,16.2c38,8.3,61.8,20.7,61.8,51.8v0.5c0,34-26.8,54.2-67.2,54.2
		C200.6,336,173.3,326.7,152.4,308.4z"/>
</g>
</svg>
