<svg width="512" height="512" viewBox="0 0 512 512" fill="none" xmlns="http://www.w3.org/2000/svg">
<path d="M251.852 224.431C252.439 224.462 253.026 224.473 253.613 224.515V224.473C263.78 225.311 273.277 229.881 280.277 237.302C284.894 242.001 288.29 247.758 290.171 254.071C291.387 258.038 292.009 262.164 292.015 266.313V270.841H319.015C325.882 270.804 332.456 268.056 337.308 263.196C342.16 258.336 344.897 251.757 344.923 244.89V188.628C344.821 181.785 342.059 175.249 337.224 170.406C332.388 165.562 325.858 162.79 319.014 162.677H262.752C255.909 162.79 249.379 165.562 244.543 170.406C239.707 175.249 236.946 181.785 236.844 188.628V224.389H250.092C250.678 224.389 251.265 224.41 251.852 224.431ZM299.73 216.759C299.747 218.504 299.244 220.214 298.287 221.673C297.33 223.132 295.961 224.274 294.354 224.953C292.746 225.633 290.973 225.819 289.26 225.489C287.546 225.159 285.97 224.327 284.73 223.099C283.49 221.871 282.643 220.303 282.296 218.592C281.95 216.882 282.119 215.108 282.783 213.494C283.447 211.88 284.575 210.5 286.025 209.529C287.475 208.557 289.18 208.039 290.925 208.039C292.076 208.032 293.218 208.252 294.284 208.686C295.35 209.121 296.319 209.762 297.137 210.572C297.955 211.382 298.605 212.345 299.05 213.407C299.495 214.469 299.726 215.608 299.73 216.759Z" fill="#F2D71A"/>
<path d="M192.319 349.155H250.089C253.396 349.166 256.672 348.524 259.729 347.264C262.786 346.004 265.564 344.151 267.902 341.813C270.24 339.475 272.092 336.698 273.352 333.641C274.612 330.584 275.255 327.308 275.244 324.001V266.272C275.265 262.211 274.286 258.208 272.393 254.617L272.372 254.628C270.548 251.063 267.889 247.992 264.623 245.676C261.356 243.36 257.579 241.868 253.611 241.326C253.024 241.285 252.437 241.274 251.85 241.243C251.263 241.201 250.676 241.117 250.089 241.117H236.841L236.849 241.159H192.319C189.012 241.148 185.736 241.79 182.679 243.05C179.622 244.31 176.844 246.163 174.506 248.501C172.168 250.839 170.316 253.617 169.055 256.674C167.795 259.731 167.153 263.007 167.164 266.314V324.001C167.153 327.308 167.796 330.584 169.056 333.641C170.316 336.698 172.168 339.475 174.506 341.813C176.844 344.151 179.622 346.004 182.679 347.264C185.736 348.524 189.012 349.167 192.319 349.155ZM238.705 315.616H234.975C232.855 315.167 230.976 313.946 229.704 312.191C228.431 310.436 227.856 308.271 228.088 306.116C228.32 303.96 229.344 301.968 230.962 300.524C232.579 299.081 234.674 298.289 236.842 298.302C238.567 298.297 240.256 298.792 241.705 299.727V299.769C242.916 300.571 243.911 301.661 244.598 302.941C245.286 304.222 245.646 305.652 245.646 307.105C245.646 308.559 245.286 309.989 244.598 311.27C243.911 312.55 242.916 313.64 241.705 314.442V314.4C240.778 314.966 239.764 315.377 238.705 315.616ZM219.051 274.698H223.275C225.187 275.154 226.888 276.243 228.103 277.788C229.318 279.333 229.974 281.243 229.966 283.209C229.963 284.848 229.5 286.454 228.63 287.844C227.759 289.233 226.516 290.351 225.042 291.069C223.568 291.787 221.922 292.077 220.291 291.906C218.66 291.736 217.11 291.11 215.817 290.102C214.523 289.094 213.539 287.743 212.976 286.203C212.412 284.663 212.292 282.996 212.629 281.391C212.966 279.787 213.746 278.309 214.882 277.125C216.017 275.942 217.461 275.101 219.051 274.698ZM200.703 299.769V299.727C202.153 298.792 203.842 298.297 205.566 298.302C207.734 298.289 209.83 299.081 211.447 300.525C213.064 301.968 214.088 303.961 214.32 306.116C214.553 308.271 213.977 310.436 212.704 312.191C211.432 313.946 209.553 315.167 207.433 315.616H203.703C202.644 315.377 201.631 314.966 200.703 314.4V314.442C199.492 313.64 198.498 312.55 197.81 311.27C197.122 309.989 196.762 308.559 196.762 307.105C196.762 305.652 197.122 304.222 197.81 302.941C198.498 301.661 199.492 300.571 200.703 299.769Z" fill="#F2D71A"/>
<path d="M32 127.376V201.92H48.768H110.736V127.376H48.768H32Z" fill="#F2D71A"/>
<path d="M438.077 32.042H401.352V110.608H480.001V73.966C479.997 62.8483 475.579 52.1872 467.717 44.3258C459.856 36.4644 449.195 32.0461 438.077 32.042Z" fill="#F2D71A"/>
<path d="M32 401.225V438.034C32.0183 449.147 36.4411 459.8 44.2994 467.659C52.1578 475.517 62.8107 479.94 73.924 479.958H110.733V401.225H32Z" fill="#F2D71A"/>
<path d="M32 73.966V110.608H48.7696V110.566H110.733V32.042H73.924C62.8107 32.0603 52.1578 36.4831 44.2994 44.3414C36.4411 52.1998 32.0183 62.8527 32 73.966Z" fill="#F2D71A"/>
<path d="M32 218.688V293.232H48.768H110.736V218.688H48.768H32Z" fill="#F2D71A"/>
<path d="M310.117 48.808V110.608H384.581V48.808V32.04H310.117V48.808Z" fill="#F2D71A"/>
<path d="M32 310V384.456H48.768H110.736V310H48.768H32Z" fill="#F2D71A"/>
<path d="M127.508 463.192V479.96H201.964V463.192V401.224H127.508V463.192Z" fill="#F2D71A"/>
<path d="M218.727 463.192V479.96H293.351V463.192V401.224H218.727V463.192Z" fill="#F2D71A"/>
<path d="M310.117 463.192V479.96H384.581V463.192V401.224H310.117V463.192Z" fill="#F2D71A"/>
<path d="M401.352 401.225V479.958H438.077C449.195 479.954 459.856 475.536 467.717 467.674C475.579 459.813 479.997 449.152 480.001 438.034V401.225H401.352Z" fill="#F2D71A"/>
<path d="M401.352 127.376V201.92H463.232H480V127.376H463.232H401.352Z" fill="#F2D71A"/>
<path d="M401.352 310V384.456H463.232H480V310H463.232H401.352Z" fill="#F2D71A"/>
<path d="M401.352 218.688V293.232H463.232H480V218.688H463.232H401.352Z" fill="#F2D71A"/>
<path d="M293.351 48.808V32.04H218.727V48.808V110.608H293.351V48.808Z" fill="#F2D71A"/>
<path d="M201.964 48.808V32.04H127.508V48.808V110.608H201.964V48.808Z" fill="#F2D71A"/>
<path d="M127.5 384.455H384.578V127.377H127.5V384.455ZM150.391 266.313C150.395 255.196 154.813 244.534 162.675 236.673C170.536 228.811 181.197 224.393 192.315 224.389H220.069V188.67C220.068 177.343 224.562 166.479 232.564 158.462C240.565 150.445 251.42 145.929 262.747 145.907H319.009C330.336 145.929 341.191 150.445 349.192 158.462C357.194 166.479 361.688 177.343 361.687 188.67V244.848C361.695 250.458 360.596 256.015 358.455 261.201C356.314 266.387 353.171 271.1 349.208 275.071C345.245 279.043 340.538 282.194 335.356 284.345C330.174 286.497 324.62 287.606 319.009 287.61H292.01V324C292.006 335.118 287.587 345.779 279.726 353.64C271.864 361.502 261.203 365.92 250.086 365.924H192.315C181.197 365.92 170.536 361.502 162.675 353.64C154.813 345.779 150.395 335.118 150.391 324V266.313Z" fill="#F2D71A"/>
</svg>
