<svg width="664" height="500" viewBox="0 0 664 500" fill="none" xmlns="http://www.w3.org/2000/svg">
<g clip-path="url(#clip0_938_1971)">
<path d="M663.192 127.37C661.332 134.23 658.762 145.93 655.102 157.32C622.932 256.82 590.592 356.27 558.072 455.67C544.412 497.38 523.012 507.9 481.562 494.54C413.822 472.68 346.072 450.87 278.382 428.65C236.362 414.83 226.102 394.31 239.712 352.19C272.712 250.21 305.822 148.29 339.062 46.41C353.392 2.54005 373.552 -7.61995 416.962 6.40005C485.532 28.52 553.942 50.89 622.462 73.06C646.542 80.9 663.452 94.4 663.192 127.35V127.37ZM552.292 227.28C552.292 188.56 517.492 164.64 483.362 182.53C465.322 192.02 461.292 185.37 453.662 171.39C436.082 140.46 399.472 137.88 376.332 165.46C363.462 180.81 357.942 201.02 361.222 220.78C366.382 259.5 385.352 291.77 408.292 322.34C413.552 331.62 425.022 335.35 434.742 330.95C461.152 323.29 486.242 311.64 509.132 296.41C532.742 279.65 552.182 259.03 552.282 227.27L552.292 227.28Z" fill="#F2D71A"/>
<path d="M193.31 440.23C145.78 464.15 120.15 453.84 104.69 406.87C72.0695 307.58 39.7495 208.09 7.70953 108.42C-9.14048 56.0902 -0.0204735 39.2803 51.5395 22.1603C71.0295 15.7203 90.8795 10.0403 110.11 2.83025C128.15 -3.97975 135.89 1.33026 135.48 20.4603C135.12 44.4303 135.48 68.4603 135.48 92.6403V326.7C135.58 374.714 154.863 412.557 193.33 440.23H193.31Z" fill="#F2D71A"/>
<path d="M241.622 445.73C194.242 458.52 164.962 437.95 164.962 390.82C164.752 281.01 164.752 171.16 164.962 61.2799C164.962 22.2499 182.492 4.56987 221.002 3.73987C244.152 3.27987 267.402 4.66987 290.502 3.32987C314.992 1.93987 317.462 11.7299 310.562 32.4599C280.142 123.61 250.762 215.02 220.902 306.32C195.902 383.65 195.592 383.65 241.632 445.73H241.622Z" fill="#F2D71A"/>
</g>
<defs>
<clipPath id="clip0_938_1971">
<rect width="663.2" height="500" fill="white"/>
</clipPath>
</defs>
</svg>
