<svg width="501" height="500" viewBox="0 0 501 500" fill="none" xmlns="http://www.w3.org/2000/svg">
<g clip-path="url(#clip0_938_1975)">
<path d="M249.031 499.79C170.521 499.79 92.0113 499.79 13.5013 499.79C0.131311 499.79 0.101312 499.74 0.0813117 486.43C0.0513117 470.53 -0.0886883 454.63 0.121312 438.74C0.471312 411.95 13.1513 391.98 37.6213 382.48C70.8413 369.59 105.141 359.51 138.891 347.98C145.381 345.76 148.461 349.96 152.201 353.41C179.241 378.4 211.101 392.58 247.941 393.11C286.301 393.67 319.581 379.55 347.471 353.34C353.221 347.94 358.101 346.7 365.561 349.3C395.261 359.65 425.211 369.28 455.011 379.36C484.401 389.3 499.741 410.72 499.811 441.52C499.841 456.77 499.291 472.04 500.011 487.25C500.471 496.97 497.471 500.04 487.491 499.99C408.011 499.61 328.521 499.78 249.041 499.78L249.031 499.79Z" fill="#F2D71A"/>
<path d="M249.73 250.62C209.54 250.62 169.34 250.67 129.15 250.61C102.41 250.57 85.5103 237 83.1703 210.76C81.0803 187.27 80.4703 163.43 83.7403 139.96C86.8103 117.93 103.86 103.56 126.16 103.5C208.49 103.28 290.82 103.29 373.16 103.48C396.03 103.53 413.29 117.81 416.18 140.37C419.26 164.48 419.04 188.95 416.32 213.08C413.66 236.69 396.83 250.51 373.23 250.59C332.06 250.72 290.9 250.63 249.73 250.63V250.62ZM145.78 186.92C168.46 186.59 165.6 190.01 165.62 166.72C165.64 144.63 168.28 147.35 145.9 147.36C122.93 147.36 126.15 144.57 126.13 167.56C126.1 189.8 123.23 186.62 145.78 186.92Z" fill="#F2D71A"/>
<path d="M249.961 74.9597C215.291 74.9597 180.621 75.0097 145.961 74.9297C134.251 74.8997 133.161 73.0297 139.031 62.7197C161.991 22.4097 197.381 2.33969 243.121 0.189691C287.381 -1.89031 324.441 13.0597 351.961 48.7797C355.311 53.1197 358.121 57.9097 360.821 62.6997C366.671 73.0597 365.651 74.9097 353.961 74.9297C319.291 75.0097 284.621 74.9597 249.961 74.9597Z" fill="#F2D71A"/>
<path d="M249.583 280.35C279.073 280.35 308.573 280.32 338.063 280.36C349.153 280.38 350.313 281.7 345.403 291.07C325.013 330 293.803 353.83 248.843 353.38C204.783 352.93 174.233 329.13 154.363 290.84C149.673 281.8 150.813 280.4 161.093 280.37C190.583 280.31 220.083 280.35 249.573 280.35H249.583Z" fill="#F2D71A"/>
</g>
<defs>
<clipPath id="clip0_938_1975">
<rect width="500.04" height="500" fill="white"/>
</clipPath>
</defs>
</svg>
