<svg width="131" height="52" viewBox="0 0 131 52" fill="none" xmlns="http://www.w3.org/2000/svg">
<g filter="url(#filter0_d_8538_134434)">
<path d="M8.42676 15.5297C8.42676 10.6803 12.358 6.74902 17.2075 6.74902H112.269C117.119 6.74902 121.05 10.6803 121.05 15.5297V33.4802C121.05 38.3296 117.119 42.2609 112.269 42.2609H17.2075C12.358 42.2609 8.42676 38.3296 8.42676 33.4802V15.5297Z" fill="url(#paint0_linear_8538_134434)"/>
<path d="M10.7807 1.43904H118.694C123.301 1.43904 127.036 5.17373 127.036 9.78071V39.5684C127.036 44.1754 123.301 47.9101 118.694 47.9101H10.7807C6.17373 47.9101 2.43904 44.1754 2.43904 39.5684V9.7807C2.43904 5.17373 6.17373 1.43904 10.7807 1.43904Z" stroke="url(#paint1_linear_8538_134434)" stroke-width="0.878071"/>
<g style="mix-blend-mode:screen" opacity="0.4">
<path fill-rule="evenodd" clip-rule="evenodd" d="M121.05 28.1143V15.8686C121.05 11.0191 117.119 7.08789 112.269 7.08789H17.2075C12.358 7.08789 8.42676 11.0191 8.42676 15.8686V24.3705C10.8739 18.1303 15.4507 13.9337 20.699 13.9337L107.613 13.118C113.863 13.118 119.171 19.6336 121.05 28.1143Z" fill="url(#paint2_linear_8538_134434)"/>
</g>
</g>
<g clip-path="url(#clip0_8538_134434)">
<path d="M52.2057 30.0171C54.0412 32.1585 55.7879 32.1159 57.2007 31.5338C58.4959 30.9943 59.1716 29.5627 58.9474 27.9609C58.9168 27.9746 58.8571 27.9746 58.8571 28.0035C58.0297 29.9031 55.9379 30.1737 54.2976 29.7481C52.838 29.3788 52.0848 28.3864 51.859 27.0262C51.7832 26.5293 51.738 26.0186 51.738 25.5095C51.7235 23.4533 51.738 21.4107 51.738 19.3135H54.3412C54.3557 19.4974 54.3718 19.6965 54.3718 19.8955V24.9153C54.3718 25.2694 54.4024 25.625 54.4621 25.9791C54.6734 27.312 55.5459 27.8363 56.9604 27.4822C58.1039 27.198 58.8716 26.2056 58.9474 24.7451C59.0233 23.1858 59.0071 21.6266 59.0233 20.0658V19.2998H61.5506C61.5812 19.3849 61.5957 19.47 61.6103 19.5688C61.6103 22.6174 61.6861 25.6661 61.5812 28.7147C61.4458 32.3165 58.1959 34.5141 54.4331 33.6782C53.1847 33.394 52.0396 32.9259 51.138 32.0338C50.8671 31.7648 50.8219 31.5658 51.1074 31.2679C51.4993 30.8986 51.8138 30.4731 52.2057 30.0202V30.0171Z" fill="#0F0F0F"/>
<path d="M36.5256 19.4243V20.9835C35.7128 19.8771 34.5547 19.1826 33.2596 19.1826C30.8371 19.1826 28.8662 21.6355 28.8662 24.6553C28.8662 27.675 30.8371 30.1279 33.2596 30.1279C34.5531 30.1279 35.7128 29.4334 36.5256 28.327V30.1279H39.1739V19.4243H36.5256ZM34.0128 27.8756C32.5838 27.8756 31.4097 26.4288 31.4097 24.6431C31.4097 22.8574 32.5677 21.4091 34.0128 21.4091C35.4579 21.4091 36.616 22.8559 36.616 24.6431C36.616 26.4303 35.4579 27.8756 34.0128 27.8756Z" fill="#0F0F0F"/>
<path d="M82.662 19.4243V20.9835C81.8636 19.8771 80.6911 19.1826 79.396 19.1826C76.9735 19.1826 75.001 21.6355 75.001 24.6553C75.001 27.675 76.9719 30.1279 79.396 30.1279C80.6895 30.1279 81.8491 29.4334 82.662 28.327V30.1279H85.3103V19.4243H82.662ZM80.1637 27.8756C78.7347 27.8756 77.5606 26.4288 77.5606 24.6431C77.5606 22.8574 78.7186 21.4091 80.1637 21.4091C81.6088 21.4091 82.7668 22.8559 82.7668 24.6431C82.7668 26.4303 81.5927 27.8756 80.1637 27.8756Z" fill="#0F0F0F"/>
<path d="M110.352 19.4243V20.9835C109.553 19.8771 108.381 19.1826 107.086 19.1826C104.663 19.1826 102.692 21.6355 102.692 24.6553C102.692 27.675 104.663 30.1279 107.086 30.1279C108.379 30.1279 109.539 29.4334 110.352 28.327V30.1279H113V19.4243H110.352ZM107.853 27.8756C106.425 27.8756 105.25 26.4288 105.25 24.6431C105.25 22.8574 106.408 21.4091 107.853 21.4091C109.299 21.4091 110.457 22.8559 110.457 24.6431C110.457 26.4303 109.282 27.8756 107.853 27.8756Z" fill="#0F0F0F"/>
<path d="M87.2666 30.1294H89.9762V19.1826H87.2666V30.1294Z" fill="#0F0F0F"/>
<path d="M90.293 16.5745C90.293 15.7052 89.5446 15 88.6221 15C87.6995 15 86.9512 15.7052 86.9512 16.5745C86.9512 17.4438 87.6995 18.1489 88.6221 18.1489C89.5446 18.1489 90.293 17.4438 90.293 16.5745Z" fill="#0F0F0F"/>
<path d="M69.5419 19.3528C68.2774 19.3528 67.1339 19.9759 66.321 20.9835V19.1826H63.6582V34.0002H66.321V28.5124C67.1339 29.52 68.2774 30.1431 69.5419 30.1431C72.024 30.1431 74.0417 27.7328 74.0417 24.754C74.0417 21.7753 72.0257 19.3528 69.5419 19.3528ZM68.7887 27.8741C67.6597 27.8741 66.7113 27.0656 66.321 25.903V23.6066C66.7129 22.4577 67.6758 21.6355 68.7887 21.6355C70.2628 21.6355 71.4515 23.0246 71.4515 24.754C71.4515 26.4835 70.2483 27.8741 68.7887 27.8741Z" fill="#0F0F0F"/>
<path d="M48.3236 23.053L50.2203 22.1168C50.1897 21.2946 49.6026 20.5423 48.8655 20.1031C48.1284 19.6639 47.2398 19.48 46.3527 19.3934C44.9382 19.2521 43.4189 19.3645 42.2593 20.1168C41.0996 20.8676 40.4077 22.4284 41.0706 23.6047C41.6125 24.5834 42.8157 25.0363 43.9592 25.2354C45.1027 25.4344 46.3059 25.5043 47.3301 26.0013C47.5865 26.129 47.8575 26.3129 47.872 26.5834C47.8865 26.8524 47.6914 27.0651 47.4962 27.2354C46.1414 28.2992 44.1253 28.129 42.9963 26.8524C42.6802 26.4846 42.4399 26.0575 42.3351 25.591L40.2432 26.6259C39.8061 26.8524 41.4319 28.7536 41.6432 28.9238C43.1931 30.2004 45.5253 30.398 47.4365 29.8037C48.7752 29.3782 50.0397 28.442 50.3106 27.1381C50.4767 26.3022 50.2203 25.436 49.6187 24.7992C48.972 24.132 48.0236 23.8205 47.0752 23.6366C46.1269 23.4527 45.1785 23.3949 44.2608 23.1259C43.8689 23.0119 43.4173 22.7581 43.4334 22.36C43.4479 22.0059 43.8689 21.7794 44.2302 21.6654C44.9979 21.4238 45.8398 21.325 46.622 21.5378C47.4043 21.7505 48.1123 22.3326 48.322 23.0545L48.3236 23.053Z" fill="#0F0F0F"/>
<path d="M99.457 23.053L101.352 22.1168C101.323 21.2946 100.736 20.5423 99.9973 20.1031C99.2603 19.6639 98.3716 19.48 97.4845 19.3934C96.0701 19.2521 94.5508 19.3645 93.3911 20.1168C92.2331 20.8676 91.5396 22.4284 92.2024 23.6047C92.7444 24.5834 93.9475 25.0363 95.0911 25.2354C96.2346 25.4344 97.4377 25.5043 98.4619 26.0013C98.7184 26.129 98.9877 26.3129 99.0038 26.5834C99.0183 26.8524 98.8232 27.0651 98.628 27.2354C97.2732 28.2992 95.2572 28.129 94.1282 26.8524C93.8121 26.4846 93.5717 26.0575 93.4669 25.591L91.3751 26.6259C90.938 26.8524 92.5637 28.7536 92.775 28.9238C94.325 30.2004 96.6571 30.398 98.5684 29.8037C99.907 29.3782 101.171 28.442 101.442 27.1381C101.609 26.3022 101.352 25.436 100.736 24.7992C100.089 24.132 99.1409 23.8205 98.1926 23.6366C97.2442 23.4527 96.2959 23.4101 95.3943 23.1411C95.0023 23.0271 94.5508 22.7718 94.5669 22.3752C94.5814 22.0211 95.004 21.7946 95.3636 21.6806C96.1313 21.439 96.9732 21.3402 97.7571 21.553C98.5393 21.7657 99.2474 22.3326 99.457 23.056V23.053Z" fill="#0F0F0F"/>
<path d="M26.6091 21.0415C26.6091 21.0415 24.6382 18.2057 20.3642 19.6236C20.3642 19.6236 18.0465 20.2193 17.0078 23.7072C17.0078 23.7072 19.1448 26.926 24.3511 25.8911C24.3511 25.8911 28.8058 24.7999 26.6091 21.0415ZM23.8108 23.8774C22.9383 24.2604 21.6141 24.1616 20.6964 23.9336C20.6367 23.9199 19.4481 23.5218 19.5077 23.423C20.3803 21.9063 22.6528 20.5157 24.2334 22.0613C24.3995 22.2026 24.5189 22.4017 24.5785 22.6008C24.714 23.1388 24.3076 23.6646 23.8108 23.8774Z" fill="#0F0F0F"/>
<path d="M17.0245 24.7549C17.0245 24.7549 16.5132 28.5558 20.2599 29.8035C24.0065 31.0512 26.9564 28.7686 27.829 27.3506L25.6919 26.1591C25.6919 26.1591 24.021 29.4205 19.2212 27.3081C19.2212 27.3081 17.4761 26.3445 17.0245 24.7549Z" fill="#0F0F0F"/>
</g>
<defs>
<filter id="filter0_d_8538_134434" x="0.647168" y="0.323584" width="129.534" height="51.4081" filterUnits="userSpaceOnUse" color-interpolation-filters="sRGB">
<feFlood flood-opacity="0" result="BackgroundImageFix"/>
<feColorMatrix in="SourceAlpha" type="matrix" values="0 0 0 0 0 0 0 0 0 0 0 0 0 0 0 0 0 0 127 0" result="hardAlpha"/>
<feOffset dx="0.676416" dy="1.35283"/>
<feGaussianBlur stdDeviation="1.01462"/>
<feComposite in2="hardAlpha" operator="out"/>
<feColorMatrix type="matrix" values="0 0 0 0 0 0 0 0 0 0 0 0 0 0 0 0 0 0 0.32 0"/>
<feBlend mode="normal" in2="BackgroundImageFix" result="effect1_dropShadow_8538_134434"/>
<feBlend mode="normal" in="SourceGraphic" in2="effect1_dropShadow_8538_134434" result="shape"/>
</filter>
<linearGradient id="paint0_linear_8538_134434" x1="8.42676" y1="24.5049" x2="121.05" y2="24.5049" gradientUnits="userSpaceOnUse">
<stop stop-color="#F2D71A"/>
<stop offset="1" stop-color="#ECB024"/>
</linearGradient>
<linearGradient id="paint1_linear_8538_134434" x1="2" y1="24.6746" x2="127.475" y2="24.6746" gradientUnits="userSpaceOnUse">
<stop stop-color="#F2D71A"/>
<stop offset="1" stop-color="#ECB024"/>
</linearGradient>
<linearGradient id="paint2_linear_8538_134434" x1="8.42676" y1="17.6011" x2="121.05" y2="17.6011" gradientUnits="userSpaceOnUse">
<stop stop-color="#F2D71A"/>
<stop offset="1" stop-color="#ECB024"/>
</linearGradient>
<clipPath id="clip0_8538_134434">
<rect width="96" height="19" fill="white" transform="translate(17 15)"/>
</clipPath>
</defs>
</svg>
