<svg width="131" height="52" viewBox="0 0 131 52" fill="none" xmlns="http://www.w3.org/2000/svg">
<g filter="url(#filter0_d_8538_134447)">
<path d="M8.42676 15.5297C8.42676 10.6803 12.358 6.74902 17.2075 6.74902H112.269C117.119 6.74902 121.05 10.6803 121.05 15.5297V33.4802C121.05 38.3296 117.119 42.2609 112.269 42.2609H17.2075C12.358 42.2609 8.42676 38.3296 8.42676 33.4802V15.5297Z" fill="url(#paint0_linear_8538_134447)"/>
<path d="M10.7807 1.43904H118.694C123.301 1.43904 127.036 5.17373 127.036 9.78071V39.5684C127.036 44.1754 123.301 47.9101 118.694 47.9101H10.7807C6.17373 47.9101 2.43904 44.1754 2.43904 39.5684V9.7807C2.43904 5.17373 6.17373 1.43904 10.7807 1.43904Z" stroke="url(#paint1_linear_8538_134447)" stroke-width="0.878071"/>
<g style="mix-blend-mode:screen" opacity="0.4">
<path fill-rule="evenodd" clip-rule="evenodd" d="M121.05 28.1143V15.8686C121.05 11.0191 117.119 7.08789 112.269 7.08789H17.2075C12.358 7.08789 8.42676 11.0191 8.42676 15.8686V24.3705C10.8739 18.1303 15.4507 13.9337 20.699 13.9337L107.613 13.118C113.863 13.118 119.171 19.6336 121.05 28.1143Z" fill="url(#paint2_linear_8538_134447)"/>
</g>
</g>
<g clip-path="url(#clip0_8538_134447)">
<path d="M69.934 32.328C68.7117 31.967 67.6236 31.3099 66.7011 30.3728C65.2187 28.8837 64.5066 27.003 64.5861 24.784C64.6689 22.4403 65.4854 20.5272 67.0108 19.0964C68.5378 17.6527 70.5104 16.9616 72.8738 17.0425C73.5578 17.0668 74.1806 17.159 74.7205 17.3176C75.229 17.4682 75.6795 17.6802 76.062 17.9505C76.9216 18.5591 77.339 19.4056 77.2992 20.4641L77.2512 21.8479L76.7742 21.8334L76.703 21.7363C76.3237 21.2151 75.7209 20.7991 74.911 20.5013C74.7801 20.4544 74.6476 20.4107 74.5135 20.3702C73.9603 20.2067 73.3806 20.1145 72.786 20.0934C71.4876 20.0481 70.3978 20.4301 69.5498 21.228C68.667 22.0292 68.1966 23.1201 68.1486 24.4732C68.0906 26.0998 68.4765 27.3752 69.2964 28.2622C69.78 28.8044 70.3978 29.188 71.1331 29.4049C71.5604 29.5311 72.0391 29.604 72.5542 29.6218C74.2203 29.68 75.5254 29.2689 76.4347 28.403L76.5092 28.3318L76.9713 28.3464L76.9233 29.6881C76.8868 30.7143 76.3237 31.5074 75.2488 32.0463C74.3578 32.4947 73.2796 32.7018 72.0457 32.6581C71.3021 32.6322 70.5915 32.5206 69.9324 32.3263L69.934 32.328Z" fill="#0F0F0F"/>
<path d="M61.129 30.065C61.0909 30.4341 60.8805 30.7545 60.5029 31.0281C60.1402 31.287 59.7559 31.3971 59.3469 31.355L53.1344 30.7286C51.6852 30.583 51.0194 29.9631 51.1336 28.8722C51.2314 27.948 51.9965 26.8749 53.4308 25.6513L57.0016 22.5583C57.265 22.3203 57.4952 22.1035 57.6923 21.9044C57.9407 21.6487 58.1229 21.435 58.2372 21.2586L51.9783 20.629L52.0777 19.6821C52.1936 18.5896 52.9505 18.1138 54.3533 18.2546L60.1385 18.8373C60.8159 18.9052 61.3161 19.1351 61.6424 19.5251C61.8941 19.8456 62.0001 20.2146 61.9554 20.629C61.8444 21.6762 61.1853 22.7217 59.9779 23.7657L56.4336 26.815C55.8009 27.3734 55.3454 27.8493 55.0655 28.241L61.2532 28.8641L61.1273 30.065H61.129Z" fill="#0F0F0F"/>
<path d="M61.129 30.065C61.0909 30.4341 60.8805 30.7545 60.5029 31.0281C60.1402 31.287 59.7559 31.3971 59.3469 31.355L53.1344 30.7286C51.6852 30.583 51.0194 29.9631 51.1336 28.8722C51.2314 27.948 51.9965 26.8749 53.4308 25.6513L57.0016 22.5583C57.265 22.3203 57.4952 22.1035 57.6923 21.9044C57.9407 21.6487 58.1229 21.435 58.2372 21.2586L51.9783 20.629L52.0777 19.6821C52.1936 18.5896 52.9505 18.1138 54.3533 18.2546L60.1385 18.8373C60.8159 18.9052 61.3161 19.1351 61.6424 19.5251C61.8941 19.8456 62.0001 20.2146 61.9554 20.629C61.8444 21.6762 61.1853 22.7217 59.9779 23.7657L56.4336 26.815C55.8009 27.3734 55.3454 27.8493 55.0655 28.241L61.2532 28.8641L61.1273 30.065H61.129Z" fill="#0F0F0F"/>
<path d="M52.8876 30.6286C52.8611 30.9992 52.6623 31.3262 52.293 31.611C51.9402 31.8813 51.5593 32.0027 51.1486 31.9736L44.9195 31.5479C43.467 31.4492 42.7797 30.8519 42.8575 29.7562C42.9238 28.8304 43.6525 27.733 45.0454 26.4641L48.5119 23.2578C48.7669 23.0117 48.9905 22.7868 49.1793 22.5828C49.4195 22.3206 49.595 22.0989 49.7027 21.9209L43.4256 21.4919L43.4935 20.5419C43.5713 19.4461 44.3133 18.946 45.7195 19.0431L51.5229 19.4396C52.2019 19.4866 52.7104 19.7002 53.0482 20.079C53.3116 20.3913 53.4275 20.7555 53.3977 21.1731C53.3232 22.2235 52.6988 23.2885 51.5262 24.3713L48.0862 27.5323C47.4734 28.1118 47.0345 28.6006 46.7662 29.0019L52.9721 29.426L52.8859 30.6302L52.8876 30.6286Z" fill="#0F0F0F"/>
<path d="M52.8876 30.6286C52.8611 30.9992 52.6623 31.3262 52.293 31.611C51.9402 31.8813 51.5593 32.0027 51.1486 31.9736L44.9195 31.5479C43.467 31.4492 42.7797 30.8519 42.8575 29.7562C42.9238 28.8304 43.6525 27.733 45.0454 26.4641L48.5119 23.2578C48.7669 23.0117 48.9905 22.7868 49.1793 22.5828C49.4195 22.3206 49.595 22.0989 49.7027 21.9209L43.4256 21.4919L43.4935 20.5419C43.5713 19.4461 44.3133 18.946 45.7195 19.0431L51.5229 19.4396C52.2019 19.4866 52.7104 19.7002 53.0482 20.079C53.3116 20.3913 53.4275 20.7555 53.3977 21.1731C53.3232 22.2235 52.6988 23.2885 51.5262 24.3713L48.0862 27.5323C47.4734 28.1118 47.0345 28.6006 46.7662 29.0019L52.9721 29.426L52.8859 30.6302L52.8876 30.6286Z" fill="#0F0F0F"/>
<path d="M38.1406 27.1455C38.1456 27.1455 38.1506 27.1487 38.1539 27.1504C38.1489 27.1504 38.1439 27.1471 38.1406 27.1455Z" fill="#0F0F0F"/>
<path d="M37.9863 28.8047L37.9996 28.8257L37.9863 28.8047Z" fill="#0F0F0F"/>
<path d="M37.5277 26.7881C37.5277 26.7881 37.5261 26.7897 37.5244 26.7913C37.5244 26.7913 37.5261 26.7913 37.5277 26.7881Z" fill="#0F0F0F"/>
<path d="M42.8557 21.5728C42.0855 20.7506 40.961 20.2618 39.4786 20.1032C38.0394 19.9494 36.8982 20.1404 36.0519 20.6746C35.3331 21.1342 34.9307 21.7379 34.8478 22.4825L34.7452 23.4083L34.8561 23.4196C35.1725 23.1056 35.623 22.8628 36.2059 22.6929C36.9595 22.4549 37.8141 22.3853 38.7665 22.4873C40.4691 22.6686 41.2409 23.4681 41.0819 24.8876L41.0653 25.0381L40.0302 24.9281C37.9615 24.7079 36.3981 24.8892 35.3381 25.4735C34.3891 25.9963 33.8525 26.8169 33.7282 27.9353C33.609 29.01 33.9502 29.9391 34.7534 30.7208C35.5716 31.5042 36.678 31.9703 38.0725 32.1176L38.6671 32.1807C39.9871 32.3199 41.11 32.048 42.0309 31.3634C42.9534 30.6787 43.4834 29.727 43.6175 28.5083L43.914 25.8409C44.121 23.978 43.7683 22.5537 42.854 21.5712L42.8557 21.5728ZM40.8301 28.2574C40.8301 28.2574 40.8218 28.2687 40.8169 28.272C40.8169 28.272 40.8136 28.272 40.8119 28.2736C40.8086 28.2736 40.8053 28.2752 40.802 28.2736C40.802 28.2736 40.7987 28.2736 40.797 28.2736C40.792 28.2736 40.7887 28.2703 40.7871 28.2687C40.7755 28.259 40.6993 28.1441 40.6281 28.068C40.6181 28.0567 40.5999 28.0373 40.58 28.0146C40.5684 28.0017 40.5568 27.9887 40.5419 27.9725C40.5337 27.9628 40.5221 27.9515 40.5121 27.9402C40.4989 27.9256 40.484 27.9094 40.4691 27.8932C40.4575 27.8803 40.4426 27.8657 40.4293 27.8511C40.4128 27.8333 40.3945 27.8155 40.3747 27.7961C40.3581 27.7799 40.3399 27.7637 40.3233 27.7459C40.3034 27.7265 40.2803 27.7055 40.2587 27.6861C40.2389 27.6666 40.2173 27.6472 40.1941 27.6278C40.1693 27.6067 40.1444 27.5841 40.1179 27.563C40.0931 27.542 40.0666 27.521 40.0384 27.4983C40.0103 27.4756 39.9805 27.453 39.949 27.4303C39.9175 27.406 39.8877 27.3834 39.8546 27.3591C39.7917 27.3138 39.7254 27.2669 39.6542 27.2183C39.4571 27.1001 39.1573 26.9124 38.8112 26.7813C38.7996 26.8234 38.7797 26.914 38.7946 27.0192C38.8112 27.1244 38.846 27.2636 38.9768 27.5323C38.9735 27.5307 38.9702 27.5291 38.9669 27.5274C39.2385 27.6861 39.5184 27.8754 39.7834 28.0891C39.7834 28.0891 40.2604 28.4532 40.537 28.8287C40.5154 28.8028 40.4939 28.7753 40.4724 28.7494C40.4939 28.7753 40.5154 28.8012 40.537 28.8271C40.5751 28.8789 40.6098 28.9291 40.6397 28.9809C40.7457 29.1573 40.7192 29.1913 40.7142 29.222C40.7092 29.2528 40.633 29.4859 40.3846 29.7999C40.1345 30.1122 39.7751 30.321 39.7006 30.3388C39.7039 30.3388 39.7072 30.3372 39.7089 30.3356C39.6708 30.3534 39.6062 30.3405 39.525 30.3032L39.5151 30.2984C39.2584 30.1786 38.8493 29.8387 38.581 29.5636L38.5677 29.5474C38.2282 29.1978 38.0079 28.8417 37.9996 28.8271C37.9003 28.7802 37.7678 28.7235 37.6154 28.675C37.5193 28.6442 37.3388 28.5924 37.2013 28.6005C37.1864 28.6005 37.1715 28.6054 37.155 28.6086C37.1964 28.7073 37.7727 29.9876 38.8228 30.4975C38.8443 30.5072 38.8658 30.525 38.8609 30.5412C38.8592 30.546 38.8543 30.5476 38.8509 30.5476C38.8543 30.5476 38.8576 30.5476 38.8592 30.5444C38.8592 30.5444 38.8576 30.546 38.8559 30.5476C38.846 30.5557 38.8377 30.559 38.8079 30.5654H38.8046C38.8046 30.5654 38.7946 30.5687 38.7913 30.5687H38.788C38.6787 30.5865 38.4468 30.5881 38.094 30.4861C37.4415 30.2984 37.0589 29.8112 37.0589 29.8112C37.0125 29.7562 36.9728 29.7011 36.933 29.6429C36.9247 29.6315 36.9165 29.6186 36.9098 29.6073C36.8734 29.5522 36.8419 29.4956 36.8121 29.4373C36.8055 29.426 36.8005 29.413 36.7956 29.4017C36.7856 29.3807 36.7757 29.3612 36.7658 29.3402H36.7691C36.5968 28.9582 36.5504 28.5471 36.6001 28.1927C36.6713 27.6828 36.9645 27.3106 36.9645 27.3106C36.9645 27.3106 37.0506 27.1956 37.1666 27.1438C37.1931 27.1309 37.2212 27.1212 37.2477 27.1115C37.2974 27.0953 37.3587 27.0823 37.4183 27.0726C37.4051 27.0726 37.3935 27.0759 37.3802 27.0791C37.3802 27.0791 37.3802 27.0759 37.3802 27.0742C37.3802 27.0726 37.3802 27.0662 37.3819 27.0581C37.3819 27.05 37.3852 27.0403 37.3885 27.0273C37.3885 27.0273 37.3885 27.0273 37.3885 27.0257C37.3951 27.0014 37.4067 26.969 37.4249 26.9318C37.4266 26.927 37.4299 26.9221 37.4332 26.9172C37.4398 26.9043 37.4498 26.8897 37.4581 26.8752C37.4614 26.8703 37.4647 26.8638 37.4696 26.859C37.4829 26.8412 37.4961 26.8234 37.5127 26.804C37.5127 26.804 37.516 26.8007 37.516 26.7991C37.516 26.7991 37.5193 26.7959 37.5193 26.7942C37.5193 26.7942 37.521 26.7926 37.5226 26.791C37.5226 26.791 37.521 26.7926 37.5193 26.7942C37.521 26.7942 37.5226 26.791 37.5243 26.7894C37.5624 26.7489 37.6071 26.7101 37.6667 26.6728C37.67 26.6712 37.6734 26.668 37.6767 26.6664C37.6949 26.655 37.7148 26.6437 37.738 26.6324C37.7495 26.6259 37.7628 26.6194 37.7744 26.6146C37.7876 26.6081 37.8009 26.6016 37.8175 26.5935C37.8191 26.5935 37.8224 26.5919 37.8241 26.5903C37.8373 26.5838 37.8506 26.579 37.8638 26.5725C37.8738 26.5676 37.8837 26.5644 37.8936 26.5596C37.9201 26.5498 37.9466 26.5385 37.9765 26.5288C37.988 26.5239 38.0013 26.5207 38.0129 26.5175C38.0311 26.511 38.051 26.5045 38.0709 26.4997C38.0858 26.4948 38.1007 26.4916 38.1156 26.4867C38.1338 26.4819 38.1537 26.477 38.1735 26.4722C38.1901 26.4689 38.205 26.4641 38.2216 26.4608C38.2414 26.456 38.263 26.4527 38.2829 26.4479C38.2994 26.4446 38.316 26.4414 38.3342 26.4382C38.3574 26.4349 38.3789 26.4317 38.4021 26.4285C38.4187 26.4268 38.4352 26.4236 38.4518 26.422C38.4783 26.4187 38.5064 26.4171 38.5346 26.4139C38.5495 26.4139 38.5628 26.4106 38.5777 26.4106C38.6207 26.4074 38.6638 26.4058 38.7068 26.4058C38.7151 26.4058 38.7234 26.4058 38.7317 26.4058C38.7681 26.4058 38.8046 26.4058 38.8427 26.409C38.8576 26.409 38.8741 26.4123 38.8907 26.4123C38.9222 26.4139 38.952 26.4171 38.9834 26.4204C39.0017 26.422 39.0199 26.4252 39.0381 26.4285C39.0679 26.4333 39.0994 26.4382 39.1292 26.443C39.1474 26.4463 39.1673 26.4495 39.1855 26.4543C39.217 26.4608 39.2484 26.4689 39.2799 26.477C39.2981 26.4819 39.3163 26.4867 39.3362 26.4916C39.371 26.5013 39.4041 26.5126 39.4389 26.5239C39.4555 26.5288 39.4704 26.5337 39.4869 26.5401C39.5383 26.5579 39.5896 26.579 39.641 26.6016C40.4227 26.9529 40.797 27.7346 40.8334 28.2153C40.8334 28.2315 40.8318 28.2444 40.8285 28.2525L40.8301 28.2574Z" fill="#0F0F0F"/>
<path d="M38.627 27.3448C38.5939 27.3286 38.5608 27.3124 38.5293 27.2979C38.5608 27.3124 38.5939 27.3302 38.627 27.3448Z" fill="#0F0F0F"/>
<path d="M39.8066 28.1235C39.2401 27.6703 38.624 27.2996 38.1338 27.1523C38.624 27.3012 39.2401 27.6703 39.8066 28.1235Z" fill="#0F0F0F"/>
<path d="M38.8191 27.4434C38.7926 27.4289 38.7677 27.4143 38.7412 27.4014C38.7661 27.4143 38.7926 27.4289 38.8191 27.4434Z" fill="#0F0F0F"/>
<path d="M34.3393 27.3588L33.4499 17.7026C33.3207 16.309 32.7179 15.4447 31.6562 15.1307C31.2405 15.0077 30.747 14.9705 30.1921 15.0207L28.7777 15.1469C28.6916 15.155 28.6303 15.2278 28.6369 15.312L29.7698 27.5821C29.8427 28.3574 29.692 28.9611 29.3243 29.3755C28.9566 29.7914 28.3504 30.0407 27.524 30.1135C26.2056 30.2301 25.1456 30.107 24.3755 29.7477C24.3506 29.7364 24.3225 29.7315 24.2943 29.7332L24.1403 29.7461C24.0542 29.7542 23.9929 29.827 23.9995 29.9112L24.1751 31.8049C24.2397 32.4976 24.6802 33.0625 25.4868 33.4833C25.7286 33.6079 25.987 33.7099 26.2553 33.7892C26.9078 33.9818 27.6531 34.0417 28.4697 33.9689C30.5747 33.7827 32.163 33.0544 33.1882 31.8065C34.1174 30.6493 34.5033 29.1521 34.3377 27.3571L34.3393 27.3588Z" fill="#0F0F0F"/>
<path d="M34.3393 27.3588L33.4499 17.7026C33.3207 16.309 32.7179 15.4447 31.6562 15.1307C31.2405 15.0077 30.747 14.9705 30.1921 15.0207L28.7777 15.1469C28.6916 15.155 28.6303 15.2278 28.6369 15.312L29.7698 27.5821C29.8427 28.3574 29.692 28.9611 29.3243 29.3755C28.9566 29.7914 28.3504 30.0407 27.524 30.1135C26.2056 30.2301 25.1456 30.107 24.3755 29.7477C24.3506 29.7364 24.3225 29.7315 24.2943 29.7332L24.1403 29.7461C24.0542 29.7542 23.9929 29.827 23.9995 29.9112L24.1751 31.8049C24.2397 32.4976 24.6802 33.0625 25.4868 33.4833C25.7286 33.6079 25.987 33.7099 26.2553 33.7892C26.9078 33.9818 27.6531 34.0417 28.4697 33.9689C30.5747 33.7827 32.163 33.0544 33.1882 31.8065C34.1174 30.6493 34.5033 29.1521 34.3377 27.3571L34.3393 27.3588Z" fill="#0F0F0F"/>
<path d="M79.7821 32.385C79.05 32.1697 78.4074 31.8282 77.8708 31.3686C76.9516 30.5706 76.5177 29.5736 76.5789 28.4034C76.6435 27.1846 77.1818 26.2475 78.1822 25.6211C79.2637 24.943 80.9066 24.6549 83.0647 24.7617L83.8763 24.8022C83.9011 23.8408 83.4771 23.2451 82.5844 22.9829C82.3062 22.9004 81.9782 22.8502 81.6089 22.8308C80.6731 22.7838 79.8351 22.8988 79.1179 23.1691C78.5714 23.3633 78.159 23.6158 77.884 23.9201L77.8062 24.0075L77.3309 23.9816L77.3938 22.7984C77.4385 21.9649 77.8459 21.2624 78.6078 20.7105C79.4806 20.089 80.693 19.8122 82.2151 19.8883C82.8444 19.919 83.4258 20.0129 83.9425 20.1651C84.716 20.3933 85.3718 20.7607 85.8935 21.2576C86.9303 22.2497 87.404 23.7517 87.2997 25.7215L87.1556 28.4487C87.086 29.7581 86.5726 30.8215 85.6269 31.6113C84.6861 32.398 83.4937 32.7605 82.0842 32.6893L81.4764 32.6585C80.8669 32.6278 80.2972 32.5355 79.7837 32.3834L79.7821 32.385ZM82.9272 27.3514C81.8789 27.2996 81.1236 27.3773 80.6864 27.5844C80.3551 27.7544 80.1796 28.0473 80.1564 28.4714C80.1233 29.0929 80.4147 29.4733 81.0723 29.6659C81.3141 29.7371 81.6056 29.7808 81.9401 29.7986C82.5165 29.8277 82.9554 29.7177 83.2419 29.4733C83.5268 29.2305 83.6858 28.8356 83.7139 28.2966L83.762 27.3918L82.9256 27.3497L82.9272 27.3514Z" fill="#0F0F0F"/>
<path d="M89.184 32.2115C88.6805 32.0626 88.2218 31.8457 87.8193 31.5657C87.0641 31.0186 86.703 30.3955 86.7444 29.7157L86.8388 28.1765L87.2893 28.2024L87.3556 28.2703C87.7762 28.7009 88.341 29.0213 89.0383 29.2269C89.5136 29.3661 90.0602 29.4567 90.663 29.4907C92.5561 29.6008 92.6025 28.8336 92.619 28.5827C92.6339 28.3286 92.5379 28.1441 92.3176 28.0033C92.1536 27.8964 91.8953 27.7912 91.5491 27.6893C91.2493 27.6003 90.8783 27.5145 90.4494 27.4319C90.1479 27.372 89.8664 27.3041 89.6047 27.2264C87.6123 26.6388 86.6517 25.5253 86.7494 23.9181C86.8206 22.7414 87.3721 21.7687 88.3924 21.0274C89.4291 20.257 90.726 19.909 92.248 19.998C92.788 20.0304 93.2848 20.1113 93.7221 20.2392C94.315 20.414 94.8218 20.6826 95.2276 21.0371C95.8387 21.5761 96.1253 22.2105 96.0805 22.9227L96.001 24.2499L95.5456 24.2224L95.4777 24.1479C95.0951 23.7271 94.5601 23.4131 93.8877 23.214C93.4405 23.0829 92.9238 22.9988 92.3507 22.9648C91.6104 22.9227 91.0506 22.9874 90.6846 23.159C90.3583 23.3128 90.1976 23.5426 90.1761 23.8825C90.1629 24.0913 90.2473 24.2337 90.4494 24.347C90.5984 24.4344 90.8452 24.5283 91.1881 24.6302C91.4829 24.7176 91.8439 24.8083 92.2729 24.9022C92.5097 24.9539 92.735 25.0122 92.9486 25.0753C95.0901 25.7066 96.1219 26.9043 96.0159 28.6329C95.9331 29.9957 95.4263 31.0121 94.5088 31.6531C93.6078 32.2827 92.2961 32.5514 90.61 32.4526C90.0983 32.4235 89.618 32.3426 89.1824 32.2147L89.184 32.2115Z" fill="#0F0F0F"/>
<path d="M97.0424 32.4965C96.1 32.2181 95.628 31.4962 95.6429 30.3519L95.8367 16.1201L97.0358 16.1347C97.4035 16.1395 97.7331 16.1849 98.0163 16.2674C98.6622 16.4584 99.429 16.9666 99.4108 18.3149L99.3727 21.0324C99.5765 20.8284 99.8083 20.6439 100.068 20.4788C100.64 20.1066 101.224 19.9204 101.802 19.9285C102.531 19.9382 103.194 20.0289 103.77 20.1988C105.95 20.8414 107.034 22.6169 106.996 25.4785L106.897 32.736L105.651 32.7198C105.32 32.715 105.019 32.6745 104.759 32.5984C103.82 32.3217 103.353 31.5998 103.369 30.4523L103.435 25.5659C103.447 24.7016 103.242 24.0461 102.826 23.6139C102.611 23.3987 102.342 23.2417 102.028 23.1494C101.806 23.0847 101.554 23.0491 101.281 23.0458C100.772 23.0394 100.353 23.2125 99.9988 23.5751C99.5367 24.0283 99.2999 24.7097 99.2883 25.6015L99.1922 32.6373L97.9484 32.6211C97.6105 32.6162 97.3058 32.5742 97.0408 32.4965H97.0424Z" fill="#0F0F0F"/>
</g>
<defs>
<filter id="filter0_d_8538_134447" x="0.647168" y="0.323584" width="129.534" height="51.4081" filterUnits="userSpaceOnUse" color-interpolation-filters="sRGB">
<feFlood flood-opacity="0" result="BackgroundImageFix"/>
<feColorMatrix in="SourceAlpha" type="matrix" values="0 0 0 0 0 0 0 0 0 0 0 0 0 0 0 0 0 0 127 0" result="hardAlpha"/>
<feOffset dx="0.676416" dy="1.35283"/>
<feGaussianBlur stdDeviation="1.01462"/>
<feComposite in2="hardAlpha" operator="out"/>
<feColorMatrix type="matrix" values="0 0 0 0 0 0 0 0 0 0 0 0 0 0 0 0 0 0 0.32 0"/>
<feBlend mode="normal" in2="BackgroundImageFix" result="effect1_dropShadow_8538_134447"/>
<feBlend mode="normal" in="SourceGraphic" in2="effect1_dropShadow_8538_134447" result="shape"/>
</filter>
<linearGradient id="paint0_linear_8538_134447" x1="8.42676" y1="24.5049" x2="121.05" y2="24.5049" gradientUnits="userSpaceOnUse">
<stop stop-color="#F2D71A"/>
<stop offset="1" stop-color="#ECB024"/>
</linearGradient>
<linearGradient id="paint1_linear_8538_134447" x1="2" y1="24.6746" x2="127.475" y2="24.6746" gradientUnits="userSpaceOnUse">
<stop stop-color="#F2D71A"/>
<stop offset="1" stop-color="#ECB024"/>
</linearGradient>
<linearGradient id="paint2_linear_8538_134447" x1="8.42676" y1="17.6011" x2="121.05" y2="17.6011" gradientUnits="userSpaceOnUse">
<stop stop-color="#F2D71A"/>
<stop offset="1" stop-color="#ECB024"/>
</linearGradient>
<clipPath id="clip0_8538_134447">
<rect width="83" height="19" fill="white" transform="translate(24 15)"/>
</clipPath>
</defs>
</svg>
