<svg width="37" height="37" viewBox="0 0 37 37" fill="none" xmlns="http://www.w3.org/2000/svg">
<path d="M23.1885 29.3895C23.1885 27.4385 23.207 25.483 23.1793 23.5321C23.17 22.9218 23.378 22.6999 23.988 22.7276C24.8244 22.7646 25.6608 22.7276 26.4972 22.7369C26.8392 22.7369 27.0656 22.6675 27.1072 22.2561C27.2227 21.1974 27.3614 20.1341 27.5231 19.0801C27.6063 18.553 27.3845 18.4421 26.9178 18.456C25.9196 18.4791 24.9214 18.4467 23.9233 18.4652C23.3919 18.4744 23.1654 18.2757 23.1839 17.7255C23.2116 16.935 23.1793 16.1444 23.1978 15.3539C23.2301 13.9392 23.8956 13.2874 25.3235 13.2504C25.9519 13.2319 26.5804 13.2319 27.2043 13.2504C27.6202 13.2596 27.7911 13.0978 27.7819 12.6771C27.7634 11.771 27.7727 10.8649 27.7819 9.95879C27.7819 9.63055 27.6849 9.43638 27.3244 9.3994C25.8641 9.24684 24.3993 9.13589 22.9529 9.41327C20.4991 9.88482 18.9233 11.7387 18.8123 14.2444C18.7615 15.3816 18.7708 16.5235 18.7892 17.6608C18.7985 18.2664 18.5536 18.4929 17.9621 18.4698C17.1488 18.4421 16.3354 18.4744 15.5221 18.4606C15.0739 18.4513 14.8983 18.6362 14.9075 19.0847C14.926 20.0833 14.9306 21.0818 14.9075 22.0804C14.8983 22.5566 15.06 22.7554 15.5499 22.7369C16.3863 22.7092 17.2227 22.7461 18.0591 22.723C18.5489 22.7092 18.7892 22.8756 18.7892 23.398C18.78 27.6281 18.78 31.8582 18.7892 36.0883C18.7892 36.6615 18.512 36.7863 18.0083 36.7725C11.548 36.5506 6.511 33.7166 3.12373 28.2614C-3.65079 17.3788 2.90192 3.19989 15.5499 1.15188C25.4529 -0.452318 34.903 6.62095 36.1091 16.542C37.1535 25.1363 32.2875 32.9862 24.1405 35.8432C23.2671 36.1484 23.1931 36.1021 23.1885 35.1729C23.1885 33.2451 23.1885 31.3126 23.1885 29.3848V29.3895Z" fill="white"/>
</svg>
