<svg width="37" height="37" viewBox="0 0 37 37" fill="none" xmlns="http://www.w3.org/2000/svg">
<path d="M18.5113 0.926705C28.308 0.774144 36.4781 9.02166 36.4642 18.8595C36.4503 28.6465 28.3172 36.7738 18.5251 36.7692C8.70529 36.7646 0.530576 28.5864 0.618377 18.7717C0.706177 8.88297 8.60824 0.931328 18.5113 0.926705ZM28.6961 18.8595C28.6222 17.1444 28.7516 15.4292 28.5529 13.7094C28.2387 11.0142 26.3579 9.04478 23.6592 8.83212C20.2534 8.55936 16.843 8.55936 13.4373 8.83212C10.7247 9.0494 8.77923 10.9587 8.54355 13.6909C8.2478 17.0935 8.26629 20.5099 8.53893 23.9171C8.75612 26.6725 10.7016 28.6188 13.4512 28.8361C16.8569 29.1088 20.2673 29.1088 23.673 28.8361C26.3579 28.6188 28.2479 26.6401 28.5575 23.9449C28.7562 22.2528 28.6222 20.5562 28.7008 18.8641L28.6961 18.8595Z" fill="white"/>
<path d="M10.0315 18.8367C9.98066 17.325 10.0546 15.8178 10.1332 14.3107C10.2579 11.9992 11.7367 10.5429 14.0565 10.4227C17.0509 10.2702 20.0408 10.2656 23.0353 10.4227C25.355 10.5429 26.8153 12.0131 26.9355 14.3338C27.0926 17.3296 27.0926 20.3207 26.9355 23.3164C26.8153 25.6557 25.3227 27.1258 22.9706 27.2414C19.9992 27.3893 17.0325 27.3893 14.0611 27.2414C11.7136 27.1212 10.2348 25.6464 10.1239 23.2933C10.05 21.8093 9.98066 20.3253 10.0269 18.8367H10.0315ZM18.5528 23.9775C21.4548 23.9729 23.6914 21.7122 23.6822 18.7997C23.673 15.9288 21.4317 13.6912 18.5574 13.6866C15.6369 13.682 13.391 15.9149 13.391 18.8274C13.391 21.7353 15.6415 23.9821 18.5528 23.9775ZM24.0149 12.2026C23.4049 12.2026 22.8781 12.7574 22.8966 13.3861C22.9105 14.0333 23.368 14.4772 24.0057 14.4725C24.6388 14.4679 25.1841 13.927 25.1656 13.3214C25.1471 12.7666 24.5648 12.2026 24.0195 12.2072L24.0149 12.2026Z" fill="white"/>
<path d="M18.5575 15.323C20.4706 15.3369 22.0603 16.9457 22.0464 18.8504C22.0325 20.7597 20.4244 22.3547 18.5251 22.3454C16.6259 22.3316 15.0177 20.7089 15.0316 18.8181C15.0454 16.918 16.6675 15.3092 18.5575 15.323Z" fill="white"/>
</svg>
