<svg width="38" height="37" viewBox="0 0 38 37" fill="none" xmlns="http://www.w3.org/2000/svg">
<path d="M19.0245 0.46891C28.3868 0.353334 37.153 7.92589 37.1854 18.582C37.2177 29.2058 28.5254 36.8985 18.9274 36.8431C8.92738 36.7876 0.766533 28.6325 0.79426 18.5913C0.821986 8.38819 9.25546 0.325596 19.0245 0.464287V0.46891ZM24.7592 14.486C24.7454 13.284 24.6668 12.2947 24.1724 11.3839C22.8507 8.96145 19.9025 7.83805 17.0282 8.73492C14.8978 9.40064 13.5808 10.8199 13.2342 13.0945C13.0679 14.1763 13.262 15.2303 13.2804 16.2982C13.2897 16.9963 13.0309 17.2413 12.3516 17.1442C12.0189 17.098 11.6954 16.9686 11.3719 16.8715C10.9884 16.7559 10.6695 16.8854 10.4893 17.2043C10.2814 17.5881 10.6048 17.8007 10.8867 17.9348C11.3211 18.1475 11.7925 18.2908 12.2361 18.4896C13.1187 18.8918 13.3266 19.4511 12.9061 20.3157C12.0143 22.1371 10.725 23.5333 8.7102 24.1158C8.52535 24.1713 8.28503 24.1898 8.25269 24.4163C8.21572 24.6844 8.46988 24.7769 8.65934 24.8694C9.16304 25.119 9.70835 25.2669 10.2629 25.3409C10.8405 25.4195 11.201 25.6692 11.2795 26.284C11.3304 26.6724 11.4782 26.9821 12.0004 26.848C13.6409 26.4181 15.0272 26.9035 16.3581 27.9067C17.9478 29.1087 19.8886 29.1226 21.5291 27.9344C22.8415 26.9821 24.177 26.4181 25.8082 26.8018C26.2611 26.9081 26.5846 26.7463 26.6447 26.2517C26.7232 25.6229 27.1299 25.4149 27.6936 25.3409C28.2482 25.2669 28.7935 25.119 29.2925 24.8601C29.4635 24.7723 29.6715 24.6844 29.6715 24.4533C29.6715 24.2036 29.4404 24.1713 29.2556 24.1204C27.1946 23.561 25.9053 22.1371 24.9996 20.2925C24.5975 19.4696 24.8008 18.901 25.6419 18.5127C26.0624 18.3185 26.5106 18.1937 26.9265 17.9949C27.2269 17.8516 27.6197 17.6574 27.4349 17.2413C27.2593 16.8438 26.8618 16.742 26.4367 16.8622C26.1779 16.9362 25.933 17.0472 25.6696 17.098C24.884 17.2552 24.6114 17.0425 24.6345 16.2566C24.6576 15.6002 24.7269 14.9483 24.7592 14.486Z" fill="white"/>
</svg>
