<svg width="38" height="38" viewBox="0 0 38 38" fill="none" xmlns="http://www.w3.org/2000/svg">
<path fill-rule="evenodd" clip-rule="evenodd" d="M37.4821 18.9361C37.4821 29.1389 29.2146 37.4098 19.0162 37.4098C8.81774 37.4098 0.550293 29.1389 0.550293 18.9361C0.550293 8.73336 8.81774 0.462402 19.0162 0.462402C29.2146 0.462402 37.4821 8.73336 37.4821 18.9361ZM18.0723 30.0912C18.3804 30.1811 18.69 30.2715 19.021 30.2301L19.0349 30.2347C19.0395 30.2485 19.0395 30.2623 19.0395 30.2761V30.2763C19.1552 30.2555 19.2697 30.2346 19.3842 30.2138C19.4984 30.193 19.6127 30.1723 19.7281 30.1515C20.2965 30.0498 20.8325 29.8464 21.3547 29.6106C22.2419 29.2084 23.0553 28.6813 23.8362 28.1081C24.4139 27.6828 24.9592 27.2112 25.4952 26.7304C26.6551 25.6856 27.6856 24.5298 28.5728 23.2446C29.1505 22.4032 29.6681 21.5341 30.0054 20.5679C30.1487 20.1611 30.2642 19.7404 30.3243 19.315C30.4028 18.7834 30.3058 18.2564 30.1579 17.7432C29.9869 17.1376 29.7466 16.5551 29.4278 16.0096C29.0766 15.4132 28.7161 14.8214 28.3141 14.2621C27.9074 13.698 27.4684 13.1618 27.0063 12.6486C26.2207 11.7749 25.3751 10.9658 24.4601 10.2261C23.8362 9.72222 23.1893 9.25529 22.5007 8.84384C21.9786 8.5341 21.4471 8.25672 20.8834 8.03019C20.4074 7.83602 19.9222 7.70195 19.4231 7.6326C18.8963 7.55863 18.3695 7.63723 17.8658 7.79441C17.4637 7.91923 17.0756 8.08566 16.692 8.25672C15.9989 8.56184 15.3611 8.96404 14.7419 9.38936C14.0025 9.8979 13.3048 10.4619 12.6486 11.0675C11.4286 12.1909 10.3149 13.4207 9.38608 14.803C8.7114 15.8062 8.12451 16.851 7.85187 18.0437C7.83728 18.1055 7.82051 18.1667 7.80374 18.2279C7.75147 18.4186 7.69925 18.6092 7.71324 18.8158C7.7271 19.0885 7.74097 19.352 7.80104 19.6248C7.93968 20.2489 8.14761 20.8407 8.42488 21.4139C9.021 22.6436 9.8112 23.7439 10.6938 24.7749C11.5164 25.7365 12.4175 26.6287 13.3972 27.4377C13.9979 27.9324 14.6218 28.3993 15.2826 28.82C16.0913 29.3332 16.9323 29.7816 17.8611 30.0313C17.9316 30.0502 18.0019 30.0707 18.0723 30.0912ZM29.6713 18.559C29.6838 18.6385 29.6948 18.7085 29.705 18.7649L29.7143 18.7603C29.6958 19.5601 29.5294 20.1472 29.2984 20.7251C28.9564 21.5896 28.4851 22.3755 27.949 23.1291C27.2466 24.1184 26.461 25.043 25.5784 25.8705C24.9961 26.4161 24.3908 26.9385 23.7715 27.447C23.4865 27.6803 23.1834 27.8954 22.8812 28.1098C22.7522 28.2014 22.6233 28.2928 22.4961 28.3855C22.4945 28.3867 22.4926 28.3882 22.4905 28.3898C22.4692 28.4064 22.426 28.4401 22.3713 28.4317C22.2383 28.414 22.1691 28.1621 22.1433 28.0683C22.1422 28.0643 22.1412 28.0606 22.1403 28.0572C21.952 27.4003 21.0473 26.7845 20.2696 26.2551L20.2549 26.245C20.2092 26.2139 20.1642 26.1799 20.1188 26.1456C20.0494 26.0932 19.9791 26.0401 19.9037 25.9954C19.85 25.9629 19.7991 25.9342 19.7524 25.9079C19.5861 25.8141 19.4719 25.7497 19.4647 25.6486C19.4647 25.6024 19.4832 25.5654 19.497 25.5423C19.8852 24.9274 21.2114 23.8919 21.2114 23.8919C22.1398 23.165 22.2651 22.9476 22.3537 22.794C22.3868 22.7366 22.4147 22.6881 22.4776 22.6252C22.6209 22.4772 22.6209 22.4449 22.4684 22.2923L22.4604 22.2843C21.3725 21.2005 20.2845 20.1168 19.1966 19.0284C19.058 18.8851 19.058 18.8111 19.1966 18.6771C19.8528 18.028 20.288 17.5576 20.6496 17.1668C21.2076 16.5639 21.5904 16.1501 22.339 15.5611C22.3898 15.5241 22.5423 15.4039 22.5192 15.293C22.51 15.2514 22.4822 15.2236 22.4268 15.1728C22.2998 15.053 22.2213 14.9817 22.1911 14.9543C22.1829 14.9468 22.1783 14.9426 22.1773 14.9416C22.0452 14.8433 21.8336 14.6062 21.6034 14.3483C21.4872 14.2181 21.3663 14.0826 21.2484 13.9569C21.022 13.7165 20.6615 13.3837 19.9314 12.7226C19.8508 12.6508 19.8104 12.616 19.7718 12.5826C19.711 12.53 19.6545 12.4812 19.4508 12.2973C19.3168 12.1724 19.2891 12.1493 19.229 12.1031C19.2199 12.0965 19.2111 12.09 19.2022 12.0835C19.1435 12.0407 19.0881 12.0004 19.0118 11.932C19.0076 11.928 19.0034 11.9241 18.9994 11.9203C18.9245 11.8497 18.887 11.8143 18.887 11.7749C18.887 11.6773 19.0815 11.6031 19.1493 11.5772C19.1554 11.5749 19.1605 11.573 19.1643 11.5714C19.7328 11.3627 20.7523 10.1562 21.3002 9.50784C21.456 9.32345 21.5737 9.18419 21.632 9.12585C21.7105 9.05188 21.766 9.07499 21.8307 9.1166C22.0054 9.22986 22.1818 9.34143 22.3583 9.45309C22.7655 9.71063 23.1736 9.96869 23.5636 10.2492C24.5802 10.9843 25.4998 11.8396 26.3501 12.7596C27.2512 13.735 28.0645 14.7798 28.7253 15.9402C29.0627 16.5366 29.3584 17.1515 29.5294 17.8126C29.5962 18.0798 29.6388 18.3519 29.6713 18.559Z" fill="white"/>
<path d="M20.0791 29.1299C19.1918 29.1114 18.3693 28.8294 17.616 28.4041C14.3166 26.5271 11.7103 23.9706 9.98197 20.5542C9.27032 19.1487 9.33039 17.7803 9.97735 16.3842C10.213 15.871 10.4117 15.8433 10.7445 16.3241C13.8822 20.8454 17.9718 24.4005 22.3157 27.6875C22.8055 28.0574 22.8009 28.2423 22.2602 28.5104C21.4839 28.8941 20.726 29.1345 20.0837 29.1345L20.0791 29.1299ZM20.1992 28.5058C20.6151 28.5382 21.1558 28.4041 21.6733 28.1776C21.983 28.0435 22.0477 27.8447 21.7704 27.6043C21.6364 27.4887 21.4931 27.3824 21.3499 27.2761C17.4681 24.2295 13.7805 20.9841 10.8507 16.9667C10.7306 16.8049 10.6151 16.5876 10.384 16.6246C10.116 16.6708 10.0883 16.9436 10.0236 17.1562C9.60305 18.5246 9.97272 19.7682 10.6705 20.9425C12.2602 23.6054 14.3951 25.7505 16.9829 27.4425C17.9025 28.0389 18.8961 28.5104 20.19 28.5104L20.1992 28.5058Z" fill="white"/>
<path d="M22.8655 22.4083C22.8655 22.6117 22.7223 22.7272 22.6021 22.8521C21.7426 23.7166 20.8784 24.5718 20.0235 25.441C19.7647 25.7045 19.543 25.7507 19.238 25.4965C16.0217 22.7966 12.9764 19.9395 10.5734 16.463C10.139 15.8389 10.139 15.3812 10.6196 14.7802C11.2065 14.0452 11.7749 13.3055 12.3987 12.6028C12.6852 12.2792 12.9163 12.2976 13.2167 12.6028C16.3359 15.7326 19.4644 18.8531 22.5883 21.9737C22.713 22.0985 22.8517 22.2141 22.8748 22.4083H22.8655ZM12.773 12.7646C12.5974 12.76 12.505 12.8802 12.4033 12.9957C11.969 13.5228 11.5392 14.059 11.091 14.5722C10.5826 15.1547 10.5873 15.6817 11.0494 16.3336C13.3276 19.5466 16.1742 22.2048 19.1363 24.7568C19.506 25.0711 19.8294 24.9787 20.1391 24.6689C20.7306 24.0772 21.3128 23.4716 21.9228 22.8983C22.348 22.5007 22.3572 22.1725 21.932 21.7564C19.0346 18.8809 16.1511 15.9868 13.2583 13.1021C13.115 12.9587 12.9856 12.7969 12.7684 12.76L12.773 12.7646Z" fill="white"/>
<path d="M22.602 15.2425C22.6159 15.506 22.468 15.6215 22.3432 15.7417C21.4144 16.6756 20.4717 17.6002 19.5521 18.5479C19.2332 18.8762 18.9837 18.89 18.6648 18.5618C16.8164 16.6479 14.8432 14.8495 13.0595 12.8662C12.7083 12.4779 12.6852 12.2097 13.0826 11.8676C13.8543 11.2065 14.6445 10.5778 15.4763 9.99067C15.8229 9.74565 16.1186 9.82424 16.456 10.0277C17.6297 10.7442 18.6972 11.6041 19.7369 12.4917C20.6057 13.2314 21.4098 14.0405 22.237 14.8264C22.3802 14.9604 22.5003 15.1269 22.602 15.2425ZM16.0031 10.0924C15.8229 10.1617 15.6473 10.2033 15.4994 10.2865C14.7277 10.7396 14.0853 11.3498 13.4153 11.9324C13.101 12.2051 13.2905 12.427 13.4984 12.6304C15.2175 14.3502 16.9458 16.07 18.6602 17.7944C18.9883 18.1272 19.2887 18.1735 19.6353 17.8221C20.3469 17.1009 21.0632 16.3797 21.7887 15.6724C22.0798 15.3858 22.1029 15.1407 21.8072 14.831C20.2037 13.1667 18.4892 11.6272 16.5484 10.3559C16.382 10.2449 16.1926 10.1756 16.0031 10.0831V10.0924Z" fill="white"/>
<path d="M19.3254 8.5434C20.1157 8.59425 20.9243 8.77455 21.7145 9.07042C22.1535 9.23685 22.2136 9.46338 21.8763 9.80087C21.1877 10.4851 20.4992 11.1693 19.8245 11.8627C19.5149 12.1817 19.233 12.2095 18.8679 11.9275C18.0731 11.3172 17.2644 10.7209 16.4373 10.1568C15.7857 9.71765 15.9982 9.45876 16.5666 9.21374C17.4354 8.83927 18.3319 8.6035 19.33 8.5434H19.3254ZM21.1646 9.56047C21.16 9.41715 21.123 9.31545 21.063 9.23685C20.9382 9.07042 20.7441 9.01957 20.6286 8.99645C19.5287 8.76993 18.757 8.8855 18.757 8.8855C18.2764 8.95485 16.6313 9.19525 16.6313 9.56047C16.6313 9.61594 16.6729 9.64831 17.0934 9.9488C17.8513 10.4897 17.8005 10.4573 17.9114 10.5359C19.2145 11.4374 18.4752 10.8873 18.8033 11.1231C19.0251 11.2802 19.1406 11.3727 19.3116 11.3727C19.5565 11.3727 19.7413 11.197 19.8522 11.0861C20.4021 10.5359 20.9474 9.84247 21.1646 9.56047Z" fill="white"/>
</svg>
