<svg width="38" height="38" viewBox="0 0 38 38" fill="none" xmlns="http://www.w3.org/2000/svg">
<path fill-rule="evenodd" clip-rule="evenodd" d="M18.6969 37.4099C28.8953 37.4099 37.1627 29.139 37.1627 18.9362C37.1627 8.73348 28.8953 0.462524 18.6969 0.462524C8.49842 0.462524 0.230957 8.73348 0.230957 18.9362C0.230957 29.139 8.49842 37.4099 18.6969 37.4099ZM27.3383 20.4202V26.2036C27.3383 26.9156 26.9594 27.2993 26.2477 27.2993C22.4045 27.2993 18.5614 27.3039 14.7182 27.3085L14.7135 27.3085C14.2514 27.3085 13.8817 27.1652 13.6876 26.7168C13.5074 26.3053 13.5998 25.9447 13.9972 25.5518L14.0032 25.5457C17.8922 21.6644 21.7811 17.783 25.6655 13.8971C25.9751 13.5873 26.3216 13.4717 26.7329 13.6243C27.1396 13.7722 27.329 14.1005 27.329 14.6044V20.4202H27.3383ZM22.5417 8.78412H19.3855L19.3808 8.77949C19.0702 8.77949 18.7591 8.78249 18.4478 8.78549C17.7358 8.79234 17.023 8.7992 16.3124 8.77025C15.7209 8.74714 15.2819 9.16783 15.2912 9.78269C15.307 10.7496 15.3047 11.7164 15.3025 12.6833C15.3008 13.4085 15.2991 14.1336 15.305 14.8588C15.3097 15.1454 15.2219 15.2194 14.94 15.2194C13.5942 15.2083 12.2485 15.209 10.9028 15.2098C10.5664 15.21 10.2301 15.2102 9.89373 15.2102C9.14511 15.2102 8.82163 15.5338 8.82163 16.2873V22.3112C8.82163 22.3374 8.82112 22.3636 8.82061 22.3898C8.81958 22.4421 8.81855 22.4945 8.82163 22.5469C8.8586 23.0277 9.21905 23.393 9.67192 23.4068C10.1571 23.4253 10.5222 23.1109 10.5869 22.6024C10.6054 22.4591 10.6054 22.3112 10.6054 22.1632C10.6054 21.8424 10.6056 21.5216 10.6057 21.2008C10.6065 19.9174 10.6072 18.634 10.5961 17.3506C10.5961 17.0594 10.6655 16.9623 10.9751 16.9623C12.1567 16.9722 13.336 16.9703 14.5163 16.9684C14.9885 16.9677 15.4608 16.9669 15.9335 16.9669C16.7098 16.9669 17.0379 16.6433 17.0379 15.8574C17.0379 14.1977 17.0379 12.5334 17.0287 10.8691C17.0287 10.601 17.098 10.5178 17.3753 10.5178C19.0973 10.527 20.8147 10.5224 22.5367 10.5178L22.5417 10.5178C23.0823 10.5131 23.4936 10.1156 23.4844 9.62551C23.4751 9.14472 23.0777 8.78412 22.5417 8.78412Z" fill="white"/>
</svg>
