<svg width="37" height="37" viewBox="0 0 37 37" fill="none" xmlns="http://www.w3.org/2000/svg">
<path d="M18.7956 0.926704C28.5923 0.774143 36.7393 9.02629 36.7208 18.841C36.7023 28.6141 28.5923 36.7276 18.8048 36.723C9.01736 36.7183 0.879614 28.5679 0.911961 18.7439C0.944309 9.00317 9.04509 0.801881 18.7956 0.926704ZM15.6671 26.1038C15.7087 26.298 15.5192 26.6355 15.8104 26.7511C16.0691 26.8528 16.2586 26.5661 16.4388 26.3951C16.9656 25.905 17.5202 25.4381 17.9962 24.9018C18.4444 24.3933 18.7817 24.4673 19.2716 24.851C20.4592 25.7802 21.6792 26.6678 22.913 27.5416C23.7355 28.1287 24.3039 27.9114 24.5627 26.936C24.7337 26.2841 24.8538 25.623 24.9925 24.9666C25.8243 21.0416 26.6607 17.1166 27.4786 13.187C27.7097 12.0914 27.169 11.6291 26.1108 11.9758C25.9352 12.0313 25.7642 12.1052 25.5886 12.1746C21.8455 13.617 18.0978 15.0594 14.3547 16.5064C12.6033 17.1813 10.8473 17.8609 9.10054 18.5544C8.78169 18.6792 8.40276 18.8225 8.42587 19.2525C8.44897 19.6593 8.83713 19.7194 9.1375 19.8119C10.2882 20.1771 11.4481 20.5053 12.5849 20.9029C13.1209 21.0878 13.5275 21.0231 14.0081 20.718C17.0581 18.767 20.1265 16.8485 23.1949 14.9253C23.4768 14.7496 23.8696 14.3844 24.1145 14.6941C24.401 15.0501 23.8788 15.2628 23.6524 15.4708C21.2725 17.6483 18.8742 19.8026 16.4804 21.9708C16.2078 22.2158 15.9351 22.447 15.912 22.8816C15.852 23.9449 15.7503 25.0082 15.6625 26.1131L15.6671 26.1038Z" fill="white"/>
</svg>
