<svg width="37" height="37" viewBox="0 0 37 37" fill="none" xmlns="http://www.w3.org/2000/svg">
<path fill-rule="evenodd" clip-rule="evenodd" d="M36.9318 18.4737C36.9318 28.6764 28.6643 36.9474 18.4659 36.9474C8.26746 36.9474 0 28.6764 0 18.4737C0 8.27096 8.26746 0 18.4659 0C28.6643 0 36.9318 8.27096 36.9318 18.4737ZM28 13.1812C24.949 12.9832 23.1942 11.1219 22.8286 8V8.0066H19.1661V21.1476C19.7178 28.1637 13.084 27.101 12.5722 23.5105C12.3063 21.636 13.2635 20.5734 14.9518 20.0058C15.5168 19.8144 16.135 19.6692 16.7133 19.5768V15.8741C9.12236 16.1447 7.6733 22.8967 10.0397 26.7446C13.7221 32.7244 22.8818 30.1173 22.8818 21.7746V15.2074C24.6831 16.2899 26.2319 16.8641 28 16.6925V13.1812Z" fill="white"/>
</svg>
