<svg width="36" height="37" viewBox="0 0 36 37" fill="none" xmlns="http://www.w3.org/2000/svg">
<path d="M18.057 0.926593C27.7659 0.778656 35.9453 8.97532 35.9176 18.8039C35.8945 28.6094 27.7151 36.6443 18.0385 36.6258C8.23258 36.6027 0.164137 28.4152 0.205726 18.6837C0.247316 9.02618 8.2834 0.811017 18.0524 0.926593H18.057ZM12.0912 20.3896C11.6845 20.6855 11.3287 20.6162 11.0052 20.6115C10.5477 20.6023 10.483 20.7549 10.6956 21.1432C11.264 22.1788 12.1374 22.8029 13.2557 23.1357C13.5237 23.2143 13.9766 23.0525 14.0136 23.4131C14.0413 23.6905 13.6115 23.8107 13.3666 23.9725C13.2326 24.0603 13.0847 24.1297 12.9415 24.2083C11.6337 24.9017 10.2243 25.1884 8.74089 25.2068C8.81483 25.4288 8.99505 25.4565 9.12906 25.5258C11.9525 26.9405 14.887 27.167 17.8953 26.2701C22.521 24.8879 25.8667 20.385 25.9268 15.4707C25.936 14.8836 26.0746 14.4583 26.5691 14.1208C27.0035 13.8203 27.3454 13.4088 27.6689 12.9003C27.0219 12.9465 26.4905 13.3302 25.7974 13.1684C26.3103 12.5813 26.9573 12.1698 27.1606 11.3285C26.5414 11.5365 25.9961 11.7075 25.46 11.8971C25.095 12.0265 24.8131 11.9572 24.5035 11.7075C23.1495 10.6119 21.6476 10.4038 20.0949 11.1898C18.5931 11.9479 17.8906 13.2331 17.9322 14.9298C17.9553 15.7296 17.8444 15.8128 17.0635 15.7019C14.24 15.295 11.8185 14.093 9.88693 11.9711C9.54034 11.592 9.38323 11.6659 9.25384 12.1051C8.78249 13.7001 9.05975 15.1194 10.215 16.3491C10.3537 16.497 10.6448 16.5664 10.5616 16.8761C10.0117 16.9778 9.54035 16.6542 8.9812 16.571C9.15218 18.545 10.252 19.7147 12.0912 20.3943V20.3896Z" fill="white"/>
</svg>
