<svg width="37" height="37" viewBox="0 0 37 37" fill="none" xmlns="http://www.w3.org/2000/svg">
<path d="M18.3608 0.926361C28.0974 0.792293 36.2398 9.00283 36.2074 18.8222C36.1751 28.5537 28.0743 36.6487 18.3099 36.6209C8.54556 36.5978 0.449406 28.4566 0.500238 18.6604C0.55107 8.96122 8.61487 0.78767 18.3654 0.926361H18.3608ZM18.3792 11C15.8885 11.1063 13.4347 11.171 10.9901 11.319C8.79508 11.453 7.92171 12.1881 7.62596 14.2731C7.19158 17.3336 7.1777 20.4079 7.67216 23.4637C7.95405 25.2159 8.69342 25.8631 10.4679 26.1035C11.0409 26.1821 11.6186 26.2144 12.1916 26.2561C16.7203 26.5704 21.2536 26.5196 25.7776 26.1913C27.9588 26.0341 28.7813 25.3037 29.0725 23.2511C29.4976 20.26 29.5068 17.2504 29.0725 14.2592C28.7859 12.3037 28.0928 11.675 26.1658 11.4022C23.5687 11.0323 20.9439 11.208 18.3792 11Z" fill="white"/>
<path d="M16.0823 18.7161C16.0823 17.7915 16.0869 16.8622 16.0823 15.9376C16.0823 15.4984 16.2394 15.3967 16.6276 15.6186C18.2912 16.5802 19.9547 17.5372 21.623 18.4942C21.9603 18.6883 21.9141 18.8594 21.6091 19.0351C19.9455 19.992 18.2773 20.9444 16.6137 21.906C16.1932 22.1464 16.0869 21.9615 16.0869 21.5593C16.0915 20.6115 16.0869 19.6592 16.0869 18.7115L16.0823 18.7161Z" fill="white"/>
</svg>
