<svg width="33" height="22" viewBox="0 0 33 22" fill="none" xmlns="http://www.w3.org/2000/svg">
<path d="M18.2764 10.7951C18.8107 10.5052 19.2633 10.2584 19.717 10.0138C20.4853 9.59966 21.2565 9.19064 22.0213 8.77018C22.1808 8.68247 22.2812 8.69605 22.419 8.81916C22.8515 9.45548 22.9502 9.60897 22.8033 10.4194C22.6718 11.1449 22.5306 11.1084 21.7685 11.0536C20.636 10.9722 19.5038 10.8862 18.2764 10.7951Z" fill="white"/>
<path d="M27.9299 5.95658C27.6253 5.31075 27.3123 4.66705 27.0489 4.00443C26.7192 3.17483 26.2368 2.45562 25.6367 1.79599C25.1083 1.21519 24.6185 0.599947 24.1117 0C24.0409 0.00812908 23.9702 0.0162582 23.8993 0.0243872C23.7811 0.284411 23.7082 0.5393 23.8102 0.833551C24.5001 2.82261 25.5205 4.62694 26.8775 6.24527C26.9293 6.30699 26.9559 6.43588 27.0907 6.35919C27.304 6.23778 27.5456 6.24046 27.7791 6.2196C27.9771 6.20174 28.0188 6.14516 27.9299 5.95658ZM26.1981 3.17227C25.9241 2.88925 25.6472 2.6089 25.3769 2.32246C24.9817 1.90359 24.5912 1.48035 24.1985 1.05913C24.0261 0.874197 23.9575 0.669045 24.0846 0.355861C24.8682 1.27348 25.6584 2.12447 26.3567 3.04851C26.3038 3.0898 26.2509 3.13109 26.1981 3.17227Z" fill="white"/>
<path d="M27.9633 8.7313C27.5285 7.95251 27.0702 7.18624 26.6068 6.42349C26.2644 5.85991 25.8325 5.70696 25.1813 5.87735C23.8006 6.23877 22.5143 6.84877 21.2032 7.3869C20.4181 7.70906 19.6751 7.83913 18.8734 7.50338C18.406 7.30764 17.9524 7.3961 17.5044 7.61986C16.4889 8.12696 15.6162 8.82435 14.768 9.56035C14.4531 9.83353 14.3049 10.1545 14.2754 10.5696C14.2568 10.8317 14.3465 10.8718 14.563 10.8638C15.2151 10.8398 15.8674 10.8153 16.5198 10.8066C16.8063 10.8027 17.0165 10.7317 17.2729 10.5501C19.1996 9.18535 21.1809 7.90063 23.3426 6.91723C23.893 6.66683 24.4596 6.45975 25.0742 6.41472C25.2727 6.40018 25.4251 6.44927 25.518 6.63078C26.0539 7.67719 26.6464 8.68958 27.361 9.62849C27.4064 9.68817 27.4459 9.74882 27.3902 9.81631C27.337 9.88092 27.2697 9.93665 27.1757 9.89921C27.099 9.86872 27.0091 9.8453 26.9546 9.79022C26.7201 9.55287 26.5343 9.65833 26.3158 9.82947C25.3487 10.5868 24.3102 11.2416 23.2792 11.91C22.6143 12.341 21.975 12.5248 21.2319 12.1891C21.2213 12.1843 21.209 12.1823 21.1973 12.181C20.9966 12.1603 20.9102 12.1005 21.0138 11.8744C21.1214 11.6395 21.0457 11.458 20.7464 11.4398C20.6281 11.4326 20.5096 11.4245 20.3911 11.4215C19.1346 11.3894 17.8781 11.3615 16.6217 11.3262C14.0731 11.2544 11.5243 11.1913 8.97462 11.1825C8.12477 11.1796 7.4046 11.4872 6.82331 12.109C6.66647 12.2768 6.62094 12.4009 6.84917 12.5514C7.05544 12.6875 7.23553 12.8622 7.42958 13.0169C7.66008 13.2009 7.87177 13.4835 8.13082 13.5367C8.4166 13.5953 8.65316 13.2691 8.92681 13.1394C9.00794 13.1009 9.09274 12.9865 9.17322 13.0561C9.27262 13.1419 9.2777 13.2902 9.25607 13.4188C9.23898 13.5205 9.13136 13.5535 9.05553 13.6052C8.38242 14.0639 7.7106 14.5245 7.03132 14.9742C6.82926 15.1079 6.70044 15.2722 6.67697 15.5111C6.6509 15.7767 6.62905 16.0428 6.59865 16.3842C6.83727 16.2306 7.00417 16.1221 7.17215 16.0153C7.83964 15.5907 8.512 15.1735 9.173 14.7393C9.46656 14.5465 9.6022 14.8026 9.73005 14.9392C9.8923 15.1125 9.63173 15.1451 9.5479 15.2219C9.41843 15.3406 9.26397 15.4324 9.12054 15.5362C8.98176 15.6366 9.0127 15.7687 9.08149 15.8812C9.17625 16.0363 9.27089 15.8906 9.34293 15.8467C10.1399 15.3621 10.932 14.8695 11.7263 14.3804C11.7909 14.3406 11.8643 14.2486 11.9378 14.3225C12.0166 14.4016 11.9641 14.4992 11.8953 14.5712C11.847 14.6218 11.7915 14.6673 11.7337 14.7073C10.1715 15.7898 8.58296 16.8319 6.9397 17.7918C6.63932 17.9672 6.34868 17.9918 6.0231 17.9004C5.50456 17.7548 5.03295 17.5104 4.5686 17.2507C4.00073 16.933 3.43956 16.6037 2.87342 16.2831C2.45482 16.0461 2.03471 16.0735 1.61848 16.2928C1.25083 16.4866 0.929144 16.7472 0.590909 16.9841C0.382257 17.1302 0.319305 17.2969 0.457865 17.5578C0.765813 17.3581 1.065 17.1533 1.3763 16.9688C1.47095 16.9128 1.58528 16.7206 1.69507 16.8716C1.8081 17.0269 1.61275 17.1144 1.5048 17.1902C1.1379 17.4479 0.778685 17.7218 0.387882 17.939C0.0432656 18.1304 -0.0110336 18.3876 0.0418595 18.7323C0.0759317 18.9546 0.15035 18.9472 0.31076 18.8411C0.546886 18.685 0.802157 18.5565 1.03406 18.3949C1.21989 18.2655 1.3564 18.2836 1.53509 18.4198C2.32459 19.0219 3.13886 19.5928 3.91538 20.2105C4.19867 20.4359 4.40797 20.409 4.67136 20.2026C4.58093 20.1233 4.49461 20.0447 4.40505 19.9697C3.73453 19.4086 3.06877 18.8418 2.38971 18.291C2.1499 18.0964 2.22118 18.0105 2.45969 17.9176C2.75347 17.8031 2.99122 17.9323 3.22842 18.0694C3.8679 18.4386 4.52457 18.7635 5.28487 18.7858C5.53755 18.7932 5.79141 18.7592 6.04474 18.7441C5.78828 18.9901 5.51278 19.1818 5.23457 19.3696C5.05253 19.4924 5.02365 19.655 5.13495 19.8261C5.2627 20.0225 5.38655 19.8382 5.48617 19.7836C7.35138 18.7635 9.21865 17.7466 11.0693 16.701C11.425 16.5 11.7035 16.4491 12.0103 16.7329C12.3426 17.0403 12.677 16.9977 13.073 16.8101C15.2319 15.7873 17.3458 14.6832 19.3911 13.4533C19.9602 13.1112 20.5854 13.2189 21.1944 13.1489C21.1405 13.2295 21.0785 13.2788 21.0095 13.3149C17.2519 15.2818 13.4708 17.203 9.57105 18.8826C7.87858 19.6115 6.18795 20.3634 4.34102 20.6594C4.0931 20.6992 3.90197 20.8838 3.68142 20.9953C3.62658 21.023 3.58872 21.0514 3.62907 21.1285C3.78158 21.4195 4.19294 21.589 4.49591 21.4444C4.64518 21.3732 4.71354 21.3974 4.76708 21.5287C4.92976 21.9275 5.19228 21.8613 5.5117 21.7193C8.63325 20.3325 11.7642 18.9661 14.8812 17.5696C17.7063 16.304 20.5753 15.1271 23.2856 13.6237C24.7627 12.8044 26.2512 11.9974 27.5532 10.9092C28.4139 10.1901 28.5074 9.70572 27.9633 8.7313ZM16.3396 9.7008C16.0106 9.93707 15.5788 9.78818 15.1884 9.8069C15.582 8.91623 17.2024 8.19307 18.2164 8.49266C17.558 8.89655 16.9341 9.27413 16.3396 9.7008ZM19.6851 8.35158C19.2754 8.62786 18.8591 8.89473 18.4491 9.17048C18.3677 9.22524 18.3039 9.24065 18.2346 9.16342C18.1536 9.07336 18.1777 8.98725 18.2591 8.92008C18.3495 8.84553 18.4597 8.79376 18.546 8.71557C18.6604 8.61182 18.8983 8.58658 18.8584 8.38196C18.8233 8.20194 18.6092 8.23852 18.472 8.19371C18.2058 8.10664 17.9322 8.04182 17.632 7.95957C17.8587 7.75655 18.0824 7.66157 18.3409 7.72479C18.7761 7.83121 19.2067 7.95572 19.6388 8.07391C19.8537 8.13274 19.8542 8.23767 19.6851 8.35158ZM20.4631 12.0464C20.227 12.3687 19.9473 12.5643 19.5079 12.527C16.111 12.2394 12.7127 11.9651 9.31524 11.6833C9.22027 11.6754 9.10107 11.7004 8.99312 11.5072C9.66916 11.5185 10.2933 11.5265 10.9173 11.5398C13.4517 11.5937 15.9863 11.6492 18.5207 11.704C19.1129 11.7168 19.705 11.7322 20.2973 11.7393C20.5569 11.7424 20.6247 11.8258 20.4631 12.0464Z" fill="white"/>
<path d="M32.2414 13.3578C31.5045 11.2392 30.3421 9.3637 28.8741 7.62793C28.8327 7.68676 28.8037 7.75553 28.7522 7.79704C28.1575 8.27569 28.3188 8.78418 28.6248 9.35643C28.9998 10.0579 29.1713 10.8736 29.6484 11.5105C30.3379 12.4313 31.1251 13.2806 31.8765 14.1556C32.0411 14.3471 32.186 14.2907 32.2757 14.0741C32.3759 13.8318 32.3256 13.6 32.2414 13.3578ZM32.002 13.9586C31.6969 13.6091 31.411 13.2868 31.1307 12.9597C30.7177 12.4777 30.308 11.9927 29.8985 11.5076C29.8211 11.416 29.7392 11.2909 29.852 11.204C29.9435 11.1334 30.0075 11.2749 30.0663 11.3365C30.6755 11.9753 31.2815 12.6168 31.8858 13.2601C32.0626 13.4482 32.1602 13.657 32.002 13.9586Z" fill="white"/>
<path d="M28.8659 6.31305C28.5678 6.28855 28.2761 6.33048 27.9826 6.35904C27.7947 6.38065 27.6073 6.40707 27.4188 6.42258C27.1696 6.44301 27.1028 6.56163 27.2266 6.77138C27.4764 7.19409 27.7347 7.61188 27.9879 8.03256C28.0954 8.21108 28.2179 8.22167 28.3483 8.06251C28.6942 7.64076 28.9509 7.1697 29.1205 6.65372C29.1935 6.43177 29.1009 6.33241 28.8659 6.31305ZM27.8645 7.16339C27.7362 7.2419 27.6889 7.19291 27.6198 7.09162C27.3227 6.6565 27.3267 6.63725 27.8448 6.56195C28.1785 6.51339 28.5138 6.47445 28.8503 6.49617C28.8564 6.52504 28.8624 6.55392 28.8685 6.5828C28.5331 6.77533 28.194 6.96155 27.8645 7.16339Z" fill="white"/>
</svg>
