<svg width="22" height="24" viewBox="0 0 22 24" fill="none" xmlns="http://www.w3.org/2000/svg">
<path d="M15.2567 -2.66954e-07C15.6705 0.250062 15.9677 0.630592 16.3009 0.962197C17.4367 2.0902 18.5615 3.22907 19.689 4.36251C20.1638 4.84089 20.636 5.32198 21.1136 5.79493C21.3636 6.04227 21.4802 6.32224 21.3552 6.65928C21.2303 6.99632 20.9637 7.16212 20.6054 7.16756C19.9389 7.17843 19.2752 7.17843 18.6087 7.18115C18.2338 7.18115 18.2338 7.18115 18.2338 7.53993C18.2338 9.48607 18.2338 11.4349 18.2338 13.3811C18.2338 14.0905 17.9449 14.3759 17.2229 14.3759C15.7205 14.3759 14.2181 14.3759 12.7184 14.3759C12.0492 14.3759 11.7576 14.0905 11.7576 13.4354C11.7576 11.4893 11.7576 9.54043 11.7576 7.59429C11.7576 7.16212 11.8103 7.18386 11.3271 7.18386C10.7245 7.18386 10.1191 7.1893 9.51645 7.18386C9.01935 7.17843 8.73886 7.00447 8.61667 6.6484C8.50281 6.32223 8.61945 6.05858 8.85272 5.82483C10.0413 4.63159 11.2299 3.43564 12.4185 2.24241C13.0517 1.60638 13.6849 0.975787 14.3125 0.337041C14.443 0.203855 14.5819 0.086978 14.7485 0.00543585L15.2595 0.00543588L15.2567 -2.66954e-07Z" fill="white"/>
<path d="M9.64976 12.7643C9.64976 13.7781 9.65531 14.7947 9.6442 15.8085C9.6442 16.0396 9.71641 16.1102 9.94969 16.1048C10.5995 16.0912 11.2494 16.0966 11.8992 16.1048C12.3852 16.1102 12.6601 16.276 12.7879 16.624C12.9128 16.9583 12.7934 17.2301 12.5546 17.4693C11.3882 18.6408 10.2218 19.8123 9.05546 20.9865C8.38618 21.6605 7.7169 22.3346 7.05039 23.0087C6.66438 23.4001 6.19227 23.4137 5.80903 23.0277C3.95948 21.174 2.11549 19.3176 0.265942 17.4611C0.0298887 17.2246 -0.0673097 16.9501 0.0465514 16.6321C0.16319 16.3032 0.413128 16.1265 0.765819 16.1211C1.43788 16.1075 2.11271 16.1075 2.78477 16.1021C3.17079 16.1021 3.17079 16.1021 3.17079 15.7324C3.17079 13.7863 3.17079 11.8374 3.17079 9.89129C3.17079 9.19003 3.45683 8.90735 4.16776 8.90735C5.67573 8.90735 7.18647 8.90735 8.69444 8.90735C9.34983 8.90735 9.64698 9.19546 9.64698 9.83421C9.64698 10.8127 9.64698 11.7885 9.64698 12.767L9.64976 12.7643Z" fill="white"/>
</svg>
