<svg width="28" height="24" viewBox="0 0 28 24" fill="none" xmlns="http://www.w3.org/2000/svg">
<path d="M27.6538 11.216C27.3015 7.54658 24.0344 4.85772 20.3573 5.21202C20.2334 5.22301 20.1095 5.23949 19.9884 5.25871C18.8737 5.41527 17.8196 5.85746 16.925 6.5386C17.2746 7.80201 17.5581 9.07366 17.7948 10.359C18.6288 8.60125 20.7343 7.85145 22.4986 8.68365C24.2601 9.51585 25.0115 11.617 24.1775 13.3775C23.5748 14.6464 22.2757 15.4374 20.8692 15.3907C19.9251 15.3715 19.0306 14.9677 18.3948 14.2756C18.4719 14.8936 18.5462 15.517 18.6178 16.1432C18.6618 16.179 18.7086 16.2092 18.7609 16.2366C19.0416 16.3849 19.3334 16.5085 19.6334 16.6047C19.7159 16.6266 19.8068 16.6459 19.7765 16.7475C19.7297 16.97 19.6857 17.1677 19.6471 17.3682C19.6224 17.4891 19.5481 17.4863 19.4545 17.4588C19.204 17.3819 18.9701 17.2941 18.7361 17.1952C18.7719 17.5303 18.8077 17.8681 18.8434 18.1922C19.5095 18.4119 20.2031 18.53 20.905 18.541C21.9426 18.5657 22.9692 18.3377 23.8995 17.8791C25.3638 17.1787 26.5226 15.973 27.1611 14.4816C27.3758 13.9378 27.5382 13.3775 27.6483 12.8035L27.6923 11.3698C27.6593 11.3258 27.6593 11.2736 27.6593 11.2242L27.6538 11.216ZM20.1673 6.99727C19.5728 7.08241 19.0058 7.2939 18.4994 7.61799C18.4223 7.66468 18.359 7.67567 18.304 7.58778C18.1911 7.41475 18.0783 7.24721 17.9627 7.09065C17.9021 7.00002 17.9379 6.95333 18.0205 6.90938C18.659 6.54959 19.3554 6.2969 20.0765 6.16232C20.1701 6.14584 20.2224 6.16232 20.2334 6.27219C20.2554 6.46719 20.2829 6.65945 20.3077 6.8572C20.3325 6.97255 20.2472 6.98903 20.1646 7.00002L20.1673 6.99727ZM24.2078 7.36256C24.0867 7.49989 23.9766 7.64546 23.872 7.79651C23.8005 7.89264 23.7372 7.91736 23.6216 7.83771C23.2197 7.53834 22.7683 7.31312 22.2839 7.18129C22.1821 7.15108 22.1105 7.10988 22.138 6.99178C22.1793 6.79128 22.2261 6.59353 22.2674 6.39303C22.2674 6.33261 22.2977 6.28043 22.3802 6.29416C22.5536 6.35184 22.7298 6.40402 22.9004 6.46719C23.3408 6.62924 23.7647 6.83523 24.1638 7.08241C24.2931 7.16756 24.3344 7.23347 24.2188 7.36256H24.2106H24.2078ZM23.8858 16.8436C23.3491 17.1265 22.7683 17.3133 22.1683 17.3957C22.0472 17.4122 22.0169 17.3627 22.0032 17.2666C21.9867 17.1073 21.9646 16.9452 21.9454 16.7502C21.9233 16.6761 21.9811 16.6294 22.0775 16.6074C22.5426 16.4948 22.9913 16.3218 23.4096 16.0911C23.5005 16.0471 23.5555 16.0334 23.6161 16.1323C23.7206 16.3053 23.8362 16.4728 23.9518 16.6294C24.0014 16.731 23.9931 16.7859 23.8885 16.8381H23.8803L23.8858 16.8436ZM25.2427 9.03246C25.3858 8.94182 25.5262 8.85119 25.6611 8.75231C25.7959 8.65344 25.829 8.70013 25.895 8.80724C26.2693 9.41697 26.5171 10.0926 26.6271 10.7985C26.6492 10.9386 26.6271 10.999 26.4813 11.0127L25.8537 11.0814C25.8179 11.0814 25.7987 11.0155 25.7877 10.9413C25.6803 10.3481 25.4739 9.77402 25.1822 9.24669C25.1326 9.13133 25.1574 9.08464 25.2482 9.03246H25.24H25.2427ZM26.3409 13.9872C26.1923 14.2976 26.0161 14.5969 25.8179 14.8771C25.7271 15.0007 25.6556 15.0034 25.5482 14.9128C25.4023 14.7892 25.1877 14.6986 25.1244 14.5448C25.061 14.391 25.2675 14.2179 25.3473 14.0476C25.5152 13.7235 25.6556 13.3857 25.7629 13.0369C25.8014 12.9106 25.8565 12.8666 25.9913 12.9051C26.1647 12.9573 26.3492 12.982 26.5281 13.0204C26.5941 13.0204 26.6547 13.0424 26.6492 13.1221C26.5831 13.4214 26.4813 13.7126 26.3492 13.99H26.3409V13.9872Z" fill="white"/>
<path d="M23.5608 11.9384C23.5195 13.3639 22.3277 14.4845 20.8992 14.4433C20.8937 14.4433 20.8882 14.4433 20.8827 14.4433C19.4515 14.4268 18.3037 13.2568 18.3202 11.8286C18.3368 10.4004 19.5093 9.25506 20.9405 9.27154C20.9845 9.27154 21.0258 9.27154 21.0699 9.27703C22.4901 9.32098 23.6048 10.5075 23.5608 11.9247C23.5608 11.9302 23.5608 11.9357 23.5608 11.9439V11.9384Z" fill="white"/>
<path d="M0.102295 4.11073C0.102295 2.7869 0.947272 1.73498 2.17483 1.55096C4.79508 1.15546 7.41534 0.8039 10.0494 0.424877C10.9797 0.293043 11.9127 0.174942 12.843 0.0348686C14.2852 -0.187601 15.5486 0.672066 15.7633 2.11125C16.2339 5.26977 16.6688 8.4283 17.1147 11.5896C17.4752 14.1356 17.8193 16.6871 18.1909 19.2304C18.4 20.6586 17.6156 21.9111 16.1954 22.1473C13.8751 22.529 11.5411 22.8284 9.20713 23.158C7.97957 23.331 6.74926 23.4931 5.52171 23.6798C4.04644 23.9023 2.79411 23.0481 2.57117 21.5677C2.10327 18.4504 1.67114 15.3249 1.22801 12.202C0.867453 9.65874 0.517902 7.10721 0.160095 4.56391C0.138076 4.37715 0.113304 4.19038 0.102295 4.11073ZM12.5595 10.6585C12.5925 9.88671 12.1439 9.17261 11.4338 8.86225C10.7072 8.48597 9.82366 8.60133 9.22364 9.15613C8.99795 9.35388 8.8328 9.48297 8.48876 9.32916C7.41258 8.84577 6.33641 9.17535 5.79419 10.0982C5.25197 11.021 5.47767 12.0894 6.42724 12.8365C7.13735 13.3913 7.85847 13.9351 8.58784 14.4679C9.30621 14.9925 9.89247 14.9184 10.4457 14.218C11.0402 13.4709 11.6044 12.6909 12.1934 11.9274C12.4604 11.5594 12.5898 11.1117 12.5595 10.6585ZM16.0192 18.1291C16.033 17.7418 15.9036 17.5688 15.6834 17.4699C15.488 17.36 15.2376 17.4287 15.1247 17.6237C15.1165 17.6374 15.111 17.6512 15.1027 17.6677C14.8522 18.4147 14.5742 18.6646 14.0513 17.8407C13.9027 17.6539 13.6302 17.621 13.4403 17.772C13.4238 17.7858 13.4072 17.8022 13.3907 17.816C13.176 17.9506 13.1127 18.2334 13.2504 18.4477C13.2531 18.4532 13.2586 18.4587 13.2614 18.4642C13.6494 19.0409 14.0238 19.6259 14.4504 20.1725C14.7009 20.5048 15.1192 20.4884 15.2899 20.1203C15.6009 19.4392 15.8073 18.7113 16.0165 18.1236V18.1291H16.0192ZM2.32346 5.58013C2.32346 5.97838 2.43355 6.17888 2.70053 6.25304C2.94274 6.3217 3.20146 6.20634 3.3088 5.97563C3.44917 5.75591 3.40514 5.36041 3.6556 5.30823C3.96937 5.24231 4.01616 5.66802 4.21984 5.8438C4.42351 6.01958 4.62168 6.13219 4.8749 5.9619C5.1116 5.85479 5.21344 5.57464 5.10335 5.34118C5.09509 5.3247 5.08683 5.30548 5.07582 5.289C4.72902 4.66828 4.32167 4.08602 3.85928 3.54495C3.71065 3.32797 3.41615 3.27304 3.20146 3.42135C3.11889 3.47903 3.05559 3.55868 3.02256 3.65206C2.7253 4.29475 2.52713 5.00061 2.32346 5.58013Z" fill="white"/>
</svg>
