<svg width="24" height="23" viewBox="0 0 24 23" fill="none" xmlns="http://www.w3.org/2000/svg">
<path d="M23.9973 16.2092C23.7473 16.623 23.3667 16.9202 23.0351 17.2534C21.9071 18.3893 20.7682 19.514 19.6348 20.6415C19.1564 21.1164 18.6753 21.5885 18.2024 22.0661C17.955 22.3161 17.6751 22.4327 17.338 22.3077C17.001 22.1828 16.8352 21.9162 16.8298 21.5579C16.8189 20.8914 16.8189 20.2277 16.8162 19.5612C16.8162 19.1863 16.8162 19.1863 16.4574 19.1863C14.5112 19.1863 12.5624 19.1863 10.6162 19.1863C9.90683 19.1863 9.62143 18.8975 9.62143 18.1754C9.62143 16.673 9.62143 15.1706 9.62143 13.671C9.62143 13.0017 9.90683 12.7101 10.5619 12.7101C12.508 12.7101 14.4569 12.7101 16.403 12.7101C16.8352 12.7101 16.8135 12.7628 16.8135 12.2796C16.8135 11.677 16.808 11.0716 16.8135 10.469C16.8189 9.97186 16.9928 9.69138 17.3489 9.56918C17.6751 9.45532 17.9387 9.57196 18.1725 9.80524C19.3657 10.9938 20.5617 12.1824 21.7549 13.371C22.3909 14.0042 23.0215 14.6374 23.6603 15.265C23.7935 15.3955 23.9103 15.5344 23.9919 15.701L23.9919 16.212L23.9973 16.2092Z" fill="white"/>
<path d="M11.2329 10.6024C10.2191 10.6024 9.2025 10.6079 8.18866 10.5968C7.95762 10.5968 7.88695 10.669 7.89239 10.9023C7.90598 11.5522 7.90054 12.202 7.89239 12.8518C7.88695 13.3378 7.72115 13.6128 7.37324 13.7405C7.03891 13.8655 6.76711 13.7461 6.52792 13.5072C5.35643 12.3409 4.18494 11.1745 3.01073 10.0081C2.33665 9.33881 1.66257 8.66953 0.988485 8.00303C0.597083 7.61701 0.583493 7.14491 0.969459 6.76167C2.82318 4.91212 4.67963 3.06813 6.53607 1.21858C6.77254 0.982525 7.04707 0.885327 7.36508 0.999188C7.69397 1.11583 7.87064 1.36576 7.87608 1.71846C7.88967 2.39051 7.88967 3.06535 7.89511 3.73741C7.89511 4.12342 7.89511 4.12342 8.26477 4.12342C10.2109 4.12342 12.1598 4.12342 14.1059 4.12342C14.8072 4.12342 15.0898 4.40946 15.0898 5.1204C15.0898 6.62837 15.0898 8.13911 15.0898 9.64707C15.0898 10.3025 14.8017 10.5996 14.163 10.5996C13.1845 10.5996 12.2087 10.5996 11.2302 10.5996L11.2329 10.6024Z" fill="white"/>
</svg>
