<svg width="31" height="24" viewBox="0 0 31 24" fill="none" xmlns="http://www.w3.org/2000/svg">
<path d="M30.8504 6.72439C30.7652 7.0339 30.647 7.55873 30.4794 8.0728C29.0006 12.5487 27.5163 17.0218 26.021 21.4923C25.3944 23.3682 24.4103 23.8419 22.5055 23.2417C19.394 22.2594 16.2825 21.277 13.1711 20.2785C11.2415 19.6567 10.7687 18.7336 11.3954 16.8388C12.9099 12.2526 14.4327 7.66639 15.9582 3.08556C16.6179 1.11274 17.5414 0.655192 19.537 1.28499C22.6869 2.28082 25.8286 3.28742 28.9759 4.28325C30.0808 4.63583 30.8587 5.24409 30.8477 6.72439H30.8504ZM25.7572 11.2191C25.7572 9.47773 24.1575 8.40115 22.5907 9.20589C21.7606 9.63383 21.5765 9.33239 21.2274 8.70528C20.4193 7.31381 18.7371 7.19808 17.6761 8.43883C17.0852 9.13053 16.8323 10.0375 16.9834 10.9284C17.2198 12.6698 18.0912 14.1205 19.1466 15.4958C19.3885 15.913 19.9163 16.0798 20.3616 15.8834C21.5737 15.5388 22.7282 15.014 23.7781 14.3304C24.8639 13.5768 25.7544 12.6482 25.7599 11.2218L25.7572 11.2191Z" fill="white"/>
<path d="M9.26813 20.7952C7.08569 21.8718 5.90651 21.4061 5.19736 19.2961C3.69934 14.8283 2.21231 10.3551 0.741778 5.87116C-0.033345 3.51615 0.3872 2.75986 2.7538 1.99011C3.64986 1.69943 4.55967 1.44644 5.44474 1.12077C6.27483 0.813947 6.62941 1.05349 6.61017 1.91475C6.59368 2.99401 6.61017 4.07328 6.61017 5.16062V15.6895C6.61567 17.8499 7.50165 19.5517 9.26813 20.7952Z" fill="white"/>
<path d="M11.4862 21.0427C9.30926 21.6187 7.96517 20.6928 7.96517 18.572C7.95692 13.6332 7.95692 8.6917 7.96517 3.75022C7.96517 1.9954 8.77053 1.19874 10.5407 1.16106C11.6044 1.13953 12.6709 1.20412 13.7319 1.14222C14.8561 1.08031 14.9715 1.51902 14.6527 2.45295C13.2563 6.55201 11.9067 10.6645 10.5352 14.7717C9.38623 18.249 9.37248 18.249 11.4862 21.0427Z" fill="white"/>
</svg>
