<?xml version="1.0" encoding="utf-8"?>
<!-- Generator: Adobe Illustrator 23.1.0, SVG Export Plug-In . SVG Version: 6.00 Build 0)  -->
<svg version="1.1" xmlns="http://www.w3.org/2000/svg" xmlns:xlink="http://www.w3.org/1999/xlink" x="0px" y="0px"
	 viewBox="0 0 144 144" enable-background="new 0 0 144 144" xml:space="preserve">
<g id="BG">
</g>
<g id="Object">
	<g>
		<linearGradient id="SVGID_1_" gradientUnits="userSpaceOnUse" x1="26.8102" y1="142.8532" x2="28.2376" y2="142.8532">
			<stop  offset="0" style="stop-color:#FAC63A"/>
			<stop  offset="1" style="stop-color:#FCE335"/>
		</linearGradient>
		<path fill="url(#SVGID_1_)" d="M26.853,143c0.003-0.083-0.011-0.163-0.042-0.24c0.505-0.092,0.994-0.095,1.427,0.24
			C27.776,143,27.314,143,26.853,143z"/>
		<linearGradient id="SVGID_2_" gradientUnits="userSpaceOnUse" x1="13.0167" y1="72" x2="130.9834" y2="72">
			<stop  offset="0" style="stop-color:#FAC63A"/>
			<stop  offset="1" style="stop-color:#FCE335"/>
		</linearGradient>
		<path fill="url(#SVGID_2_)" d="M130.968,15.822C130.793,9.02,124.571,0.963,115.9,1C95.315,1.09,74.73,1.032,54.145,1.027
			c-3.352-0.001-6.35,0.966-8.939,3.136c-3.894,3.265-6.023,7.39-6.146,12.508c-0.039,1.624-0.093,1.675-1.772,1.687
			c-2.723,0.019-5.446-0.001-8.169,0.007c-9.047,0.029-16.086,7.045-16.089,16.083c-0.01,30.926-0.001,61.852-0.012,92.779
			c-0.001,1.585,0.207,3.128,0.618,4.65c1.604,5.943,7.133,10.62,12.98,10.984c0.54,0.066,1.103-0.146,1.623,0.14
			c20.867,0,41.734,0,62.601,0c1.788-0.355,3.656-0.287,5.325-1.246c4.203-2.414,7.103-5.826,8.31-10.574
			c0.331-1.3,0.521-2.631,0.468-3.976c-0.039-0.995,0.347-1.432,1.372-1.404c1.244,0.035,2.492,0.024,3.738-0.001
			c2.444-0.049,4.905,0.223,7.329-0.151c7.901-1.219,13.594-7.908,13.597-15.94c0.008-30.834,0.003-61.668,0.003-92.502
			C130.982,16.745,130.98,16.283,130.968,15.822z M94.063,128.915c-0.734,2.484-2.837,3.932-5.83,3.934
			c-19.527,0.013-39.054,0.018-58.581-0.003c-3.894-0.004-6.072-2.304-6.073-6.3c-0.007-15.235-0.003-30.47-0.003-45.705
			c0-15.05-0.001-30.101,0-45.151c0-4.656,2.123-6.795,6.741-6.796c19.112-0.001,38.223-0.001,57.335,0
			c4.548,0,6.692,2.142,6.692,6.698c0.002,30.193,0,60.386,0.004,90.579C94.348,127.098,94.326,128.025,94.063,128.915z
			 M120.431,108.503c0,4.639-2.129,6.767-6.766,6.769c-2.631,0.001-5.264-0.057-7.892,0.028c-1.1,0.035-1.362-0.285-1.36-1.368
			c0.032-23.172,0.025-46.344,0.024-69.515c0-3.508,0.052-7.018-0.032-10.524c-0.194-8.042-6.787-14.884-14.832-14.996
			c-12.69-0.177-25.384-0.071-38.077-0.085c-1.979-0.002-1.979-0.001-1.817-1.982c0.289-3.519,2.463-5.502,6.149-5.514
			c7.2-0.023,14.4-0.007,21.601-0.007c12.093,0,24.185-0.001,36.278,0.001c4.653,0.001,6.724,2.087,6.724,6.767
			c0.001,15.094,0,30.188,0,45.282C120.431,78.408,120.432,93.456,120.431,108.503z"/>
	</g>
</g>
</svg>
