<?xml version="1.0" encoding="utf-8"?>
<!-- Generator: Adobe Illustrator 23.1.0, SVG Export Plug-In . SVG Version: 6.00 Build 0)  -->
<!DOCTYPE svg PUBLIC "-//W3C//DTD SVG 1.1//EN" "http://www.w3.org/Graphics/SVG/1.1/DTD/svg11.dtd" [
	<!ENTITY ns_extend "http://ns.adobe.com/Extensibility/1.0/">
	<!ENTITY ns_ai "http://ns.adobe.com/AdobeIllustrator/10.0/">
	<!ENTITY ns_graphs "http://ns.adobe.com/Graphs/1.0/">
	<!ENTITY ns_vars "http://ns.adobe.com/Variables/1.0/">
	<!ENTITY ns_imrep "http://ns.adobe.com/ImageReplacement/1.0/">
	<!ENTITY ns_sfw "http://ns.adobe.com/SaveForWeb/1.0/">
	<!ENTITY ns_custom "http://ns.adobe.com/GenericCustomNamespace/1.0/">
	<!ENTITY ns_adobe_xpath "http://ns.adobe.com/XPath/1.0/">
]>
<svg version="1.1" xmlns:x="&ns_extend;" xmlns:i="&ns_ai;" xmlns:graph="&ns_graphs;"
	 xmlns="http://www.w3.org/2000/svg" xmlns:xlink="http://www.w3.org/1999/xlink" x="0px" y="0px" viewBox="0 0 144 144"
	 enable-background="new 0 0 144 144" xml:space="preserve">
<metadata>
	<sfw  xmlns="&ns_sfw;">
		<slices></slices>
		<sliceSourceBounds  bottomLeftOrigin="true" height="8730.6" width="9423.617" x="-6910.837" y="-517.757"></sliceSourceBounds>
	</sfw>
</metadata>
<g id="BG">
</g>
<g id="Object">
	<g>
		<g>
			<g>
				<g>
					<defs>
						<path id="SVGID_122_" d="M131.563,72c-0.414,38.868-38.054,67.991-75.829,57.316C18.5,118.793,1.024,74.279,21.016,41.185
							C31.803,23.33,51.251,12.658,72,12.437c6.431-0.069,6.447-10.069,0-10C50.414,2.667,30.037,12.52,16.839,29.68
							C3.578,46.923-0.882,69.964,5.042,90.924c12.247,43.336,64.191,64.032,102.82,40.695
							c20.863-12.604,33.443-35.348,33.702-59.619C141.632,65.563,131.632,65.559,131.563,72L131.563,72z"/>
					</defs>
					<linearGradient id="SVGID_1_" gradientUnits="userSpaceOnUse" x1="24.8207" y1="119.1833" x2="138.299" y2="5.7051">
						<stop  offset="0" style="stop-color:#FAC63A"/>
						<stop  offset="1" style="stop-color:#FCE335"/>
					</linearGradient>
					<use xlink:href="#SVGID_122_"  overflow="visible" fill="url(#SVGID_1_)"/>
					<clipPath id="SVGID_2_">
						<use xlink:href="#SVGID_122_"  overflow="visible"/>
					</clipPath>
					<linearGradient id="SVGID_3_" gradientUnits="userSpaceOnUse" x1="-6.3367" y1="88.0259" x2="107.1416" y2="-25.4523">
						<stop  offset="0" style="stop-color:#FAC63A"/>
						<stop  offset="1" style="stop-color:#FCE335"/>
					</linearGradient>
					<rect x="-0.882" y="2.368" clip-path="url(#SVGID_2_)" fill="url(#SVGID_3_)" width="7.818" height="152.588"/>
					<linearGradient id="SVGID_4_" gradientUnits="userSpaceOnUse" x1="-3.2604" y1="91.1023" x2="110.2179" y2="-22.376">
						<stop  offset="0" style="stop-color:#FAC63A"/>
						<stop  offset="1" style="stop-color:#FCE335"/>
					</linearGradient>
					<rect x="6.937" y="2.368" clip-path="url(#SVGID_2_)" fill="url(#SVGID_4_)" width="4.487" height="152.588"/>
					<linearGradient id="SVGID_5_" gradientUnits="userSpaceOnUse" x1="-1.0168" y1="93.3458" x2="112.4615" y2="-20.1324">
						<stop  offset="0" style="stop-color:#FAC63A"/>
						<stop  offset="1" style="stop-color:#FCE335"/>
					</linearGradient>
					<rect x="11.424" y="2.368" clip-path="url(#SVGID_2_)" fill="url(#SVGID_5_)" width="4.487" height="152.588"/>
					<linearGradient id="SVGID_6_" gradientUnits="userSpaceOnUse" x1="1.2268" y1="95.5894" x2="114.705" y2="-17.8889">
						<stop  offset="0" style="stop-color:#FAC63A"/>
						<stop  offset="1" style="stop-color:#FCE335"/>
					</linearGradient>
					<rect x="15.911" y="2.368" clip-path="url(#SVGID_2_)" fill="url(#SVGID_6_)" width="4.487" height="152.588"/>
					<linearGradient id="SVGID_7_" gradientUnits="userSpaceOnUse" x1="3.4703" y1="97.833" x2="116.9486" y2="-15.6453">
						<stop  offset="0" style="stop-color:#FAC63A"/>
						<stop  offset="1" style="stop-color:#FCE335"/>
					</linearGradient>
					<rect x="20.398" y="2.368" clip-path="url(#SVGID_2_)" fill="url(#SVGID_7_)" width="4.487" height="152.588"/>
					<linearGradient id="SVGID_8_" gradientUnits="userSpaceOnUse" x1="5.7139" y1="100.0765" x2="119.1922" y2="-13.4017">
						<stop  offset="0" style="stop-color:#FAC63A"/>
						<stop  offset="1" style="stop-color:#FCE335"/>
					</linearGradient>
					<rect x="24.885" y="2.368" clip-path="url(#SVGID_2_)" fill="url(#SVGID_8_)" width="4.487" height="152.588"/>
					<linearGradient id="SVGID_9_" gradientUnits="userSpaceOnUse" x1="7.9575" y1="102.3201" x2="121.4357" y2="-11.1582">
						<stop  offset="0" style="stop-color:#FAC63A"/>
						<stop  offset="1" style="stop-color:#FCE335"/>
					</linearGradient>
					<rect x="29.372" y="2.368" clip-path="url(#SVGID_2_)" fill="url(#SVGID_9_)" width="4.487" height="152.588"/>
					<linearGradient id="SVGID_10_" gradientUnits="userSpaceOnUse" x1="10.201" y1="104.5637" x2="123.6793" y2="-8.9146">
						<stop  offset="0" style="stop-color:#FAC63A"/>
						<stop  offset="1" style="stop-color:#FCE335"/>
					</linearGradient>
					<rect x="33.859" y="2.368" clip-path="url(#SVGID_2_)" fill="url(#SVGID_10_)" width="4.487" height="152.588"/>
					<linearGradient id="SVGID_11_" gradientUnits="userSpaceOnUse" x1="12.4446" y1="106.8072" x2="125.9229" y2="-6.671">
						<stop  offset="0" style="stop-color:#FAC63A"/>
						<stop  offset="1" style="stop-color:#FCE335"/>
					</linearGradient>
					<rect x="38.347" y="2.368" clip-path="url(#SVGID_2_)" fill="url(#SVGID_11_)" width="4.487" height="152.588"/>
					<linearGradient id="SVGID_12_" gradientUnits="userSpaceOnUse" x1="14.6882" y1="109.0508" x2="128.1664" y2="-4.4275">
						<stop  offset="0" style="stop-color:#FAC63A"/>
						<stop  offset="1" style="stop-color:#FCE335"/>
					</linearGradient>
					<rect x="42.834" y="2.368" clip-path="url(#SVGID_2_)" fill="url(#SVGID_12_)" width="4.487" height="152.588"/>
					<linearGradient id="SVGID_13_" gradientUnits="userSpaceOnUse" x1="16.9317" y1="111.2944" x2="130.41" y2="-2.1839">
						<stop  offset="0" style="stop-color:#FAC63A"/>
						<stop  offset="1" style="stop-color:#FCE335"/>
					</linearGradient>
					<rect x="47.321" y="2.368" clip-path="url(#SVGID_2_)" fill="url(#SVGID_13_)" width="4.487" height="152.588"/>
					<linearGradient id="SVGID_14_" gradientUnits="userSpaceOnUse" x1="19.1753" y1="113.5379" x2="132.6535" y2="0.0597">
						<stop  offset="0" style="stop-color:#FAC63A"/>
						<stop  offset="1" style="stop-color:#FCE335"/>
					</linearGradient>
					<rect x="51.808" y="2.368" clip-path="url(#SVGID_2_)" fill="url(#SVGID_14_)" width="4.487" height="152.588"/>
					<linearGradient id="SVGID_15_" gradientUnits="userSpaceOnUse" x1="21.4189" y1="115.7815" x2="134.8971" y2="2.3032">
						<stop  offset="0" style="stop-color:#FAC63A"/>
						<stop  offset="1" style="stop-color:#FCE335"/>
					</linearGradient>
					<rect x="56.295" y="2.368" clip-path="url(#SVGID_2_)" fill="url(#SVGID_15_)" width="4.487" height="152.588"/>
					<linearGradient id="SVGID_16_" gradientUnits="userSpaceOnUse" x1="23.6624" y1="118.025" x2="137.1407" y2="4.5468">
						<stop  offset="0" style="stop-color:#FAC63A"/>
						<stop  offset="1" style="stop-color:#FCE335"/>
					</linearGradient>
					<rect x="60.782" y="2.368" clip-path="url(#SVGID_2_)" fill="url(#SVGID_16_)" width="4.487" height="152.588"/>
					<linearGradient id="SVGID_17_" gradientUnits="userSpaceOnUse" x1="25.906" y1="120.2686" x2="139.3842" y2="6.7904">
						<stop  offset="0" style="stop-color:#FAC63A"/>
						<stop  offset="1" style="stop-color:#FCE335"/>
					</linearGradient>
					<rect x="65.269" y="2.368" clip-path="url(#SVGID_2_)" fill="url(#SVGID_17_)" width="4.487" height="152.588"/>
					<linearGradient id="SVGID_18_" gradientUnits="userSpaceOnUse" x1="28.1495" y1="122.5122" x2="141.6278" y2="9.0339">
						<stop  offset="0" style="stop-color:#FAC63A"/>
						<stop  offset="1" style="stop-color:#FCE335"/>
					</linearGradient>
					<rect x="69.756" y="2.368" clip-path="url(#SVGID_2_)" fill="url(#SVGID_18_)" width="4.487" height="152.588"/>
					<linearGradient id="SVGID_19_" gradientUnits="userSpaceOnUse" x1="30.3931" y1="124.7557" x2="143.8714" y2="11.2775">
						<stop  offset="0" style="stop-color:#FAC63A"/>
						<stop  offset="1" style="stop-color:#FCE335"/>
					</linearGradient>
					<rect x="74.244" y="2.368" clip-path="url(#SVGID_2_)" fill="url(#SVGID_19_)" width="4.487" height="152.588"/>
					<linearGradient id="SVGID_20_" gradientUnits="userSpaceOnUse" x1="32.6367" y1="126.9993" x2="146.1149" y2="13.521">
						<stop  offset="0" style="stop-color:#FAC63A"/>
						<stop  offset="1" style="stop-color:#FCE335"/>
					</linearGradient>
					<rect x="78.731" y="2.368" clip-path="url(#SVGID_2_)" fill="url(#SVGID_20_)" width="4.487" height="152.588"/>
					<linearGradient id="SVGID_21_" gradientUnits="userSpaceOnUse" x1="34.8802" y1="129.2429" x2="148.3585" y2="15.7646">
						<stop  offset="0" style="stop-color:#FAC63A"/>
						<stop  offset="1" style="stop-color:#FCE335"/>
					</linearGradient>
					<rect x="83.218" y="2.368" clip-path="url(#SVGID_2_)" fill="url(#SVGID_21_)" width="4.487" height="152.588"/>
					<linearGradient id="SVGID_22_" gradientUnits="userSpaceOnUse" x1="37.1238" y1="131.4864" x2="150.6021" y2="18.0082">
						<stop  offset="0" style="stop-color:#FAC63A"/>
						<stop  offset="1" style="stop-color:#FCE335"/>
					</linearGradient>
					<rect x="87.705" y="2.368" clip-path="url(#SVGID_2_)" fill="url(#SVGID_22_)" width="4.487" height="152.588"/>
					<linearGradient id="SVGID_23_" gradientUnits="userSpaceOnUse" x1="39.3674" y1="133.73" x2="152.8456" y2="20.2517">
						<stop  offset="0" style="stop-color:#FAC63A"/>
						<stop  offset="1" style="stop-color:#FCE335"/>
					</linearGradient>
					<rect x="92.192" y="2.368" clip-path="url(#SVGID_2_)" fill="url(#SVGID_23_)" width="4.487" height="152.588"/>
					<linearGradient id="SVGID_24_" gradientUnits="userSpaceOnUse" x1="41.6109" y1="135.9736" x2="155.0892" y2="22.4953">
						<stop  offset="0" style="stop-color:#FAC63A"/>
						<stop  offset="1" style="stop-color:#FCE335"/>
					</linearGradient>
					<rect x="96.679" y="2.368" clip-path="url(#SVGID_2_)" fill="url(#SVGID_24_)" width="4.487" height="152.588"/>
					<linearGradient id="SVGID_25_" gradientUnits="userSpaceOnUse" x1="43.8545" y1="138.2171" x2="157.3328" y2="24.7389">
						<stop  offset="0" style="stop-color:#FAC63A"/>
						<stop  offset="1" style="stop-color:#FCE335"/>
					</linearGradient>
					<rect x="101.166" y="2.368" clip-path="url(#SVGID_2_)" fill="url(#SVGID_25_)" width="4.487" height="152.588"/>
					<linearGradient id="SVGID_26_" gradientUnits="userSpaceOnUse" x1="46.0981" y1="140.4607" x2="159.5763" y2="26.9824">
						<stop  offset="0" style="stop-color:#FAC63A"/>
						<stop  offset="1" style="stop-color:#FCE335"/>
					</linearGradient>
					<rect x="105.653" y="2.368" clip-path="url(#SVGID_2_)" fill="url(#SVGID_26_)" width="4.487" height="152.588"/>
					<linearGradient id="SVGID_27_" gradientUnits="userSpaceOnUse" x1="48.3416" y1="142.7043" x2="161.8199" y2="29.226">
						<stop  offset="0" style="stop-color:#FAC63A"/>
						<stop  offset="1" style="stop-color:#FCE335"/>
					</linearGradient>
					<rect x="110.141" y="2.368" clip-path="url(#SVGID_2_)" fill="url(#SVGID_27_)" width="4.487" height="152.588"/>
					<linearGradient id="SVGID_28_" gradientUnits="userSpaceOnUse" x1="50.5852" y1="144.9478" x2="164.0635" y2="31.4696">
						<stop  offset="0" style="stop-color:#FAC63A"/>
						<stop  offset="1" style="stop-color:#FCE335"/>
					</linearGradient>
					<rect x="114.628" y="2.368" clip-path="url(#SVGID_2_)" fill="url(#SVGID_28_)" width="4.487" height="152.588"/>
					<linearGradient id="SVGID_29_" gradientUnits="userSpaceOnUse" x1="52.8288" y1="147.1914" x2="166.307" y2="33.7131">
						<stop  offset="0" style="stop-color:#FAC63A"/>
						<stop  offset="1" style="stop-color:#FCE335"/>
					</linearGradient>
					<rect x="119.115" y="2.368" clip-path="url(#SVGID_2_)" fill="url(#SVGID_29_)" width="4.487" height="152.588"/>
					<linearGradient id="SVGID_30_" gradientUnits="userSpaceOnUse" x1="55.0723" y1="149.435" x2="168.5506" y2="35.9567">
						<stop  offset="0" style="stop-color:#FAC63A"/>
						<stop  offset="1" style="stop-color:#FCE335"/>
					</linearGradient>
					<rect x="123.602" y="2.368" clip-path="url(#SVGID_2_)" fill="url(#SVGID_30_)" width="4.487" height="152.588"/>
					<linearGradient id="SVGID_31_" gradientUnits="userSpaceOnUse" x1="57.3159" y1="151.6785" x2="170.7941" y2="38.2003">
						<stop  offset="0" style="stop-color:#FAC63A"/>
						<stop  offset="1" style="stop-color:#FCE335"/>
					</linearGradient>
					<rect x="128.089" y="2.368" clip-path="url(#SVGID_2_)" fill="url(#SVGID_31_)" width="4.487" height="152.588"/>
					<linearGradient id="SVGID_32_" gradientUnits="userSpaceOnUse" x1="59.5595" y1="153.9221" x2="173.0377" y2="40.4438">
						<stop  offset="0" style="stop-color:#FAC63A"/>
						<stop  offset="1" style="stop-color:#FCE335"/>
					</linearGradient>
					<rect x="132.576" y="2.368" clip-path="url(#SVGID_2_)" fill="url(#SVGID_32_)" width="4.487" height="152.588"/>
					<linearGradient id="SVGID_33_" gradientUnits="userSpaceOnUse" x1="61.8234" y1="156.186" x2="175.3017" y2="42.7077">
						<stop  offset="0" style="stop-color:#FAC63A"/>
						<stop  offset="1" style="stop-color:#FCE335"/>
					</linearGradient>
					<rect x="137.063" y="2.368" clip-path="url(#SVGID_2_)" fill="url(#SVGID_33_)" width="4.569" height="152.588"/>
				</g>
			</g>
		</g>
		<g>
			<linearGradient id="SVGID_34_" gradientUnits="userSpaceOnUse" x1="24.2338" y1="118.5964" x2="137.712" y2="5.1181">
				<stop  offset="0" style="stop-color:#FAC63A"/>
				<stop  offset="1" style="stop-color:#FCE335"/>
			</linearGradient>
			<path fill="url(#SVGID_34_)" d="M69.03,103.688V98.22c-3.659-0.082-6.926-0.433-9.8-1.052c-2.875-0.619-5.494-1.45-7.859-2.496
				V83.78c2.337,1.128,5.129,2.152,8.375,3.074c3.245,0.922,6.34,1.479,9.284,1.671V75.734c-4.347-1.705-7.819-3.362-10.419-4.972
				c-2.599-1.609-4.47-3.397-5.611-5.364c-1.142-1.966-1.712-4.325-1.712-7.076c0-2.806,0.749-5.233,2.249-7.282
				c1.498-2.049,3.582-3.693,6.251-4.931c2.667-1.238,5.748-2.007,9.242-2.311v-3.486c0-1.561,1.265-2.826,2.826-2.826l0,0
				c1.561,0,2.826,1.265,2.826,2.826v3.321c3.19,0.11,6.168,0.475,8.933,1.094c2.765,0.619,5.48,1.52,8.148,2.702l-3.878,9.655
				c-2.256-0.935-4.519-1.664-6.787-2.187c-2.27-0.522-4.408-0.867-6.416-1.032v12.172c3.053,1.128,5.955,2.352,8.706,3.672
				c2.75,1.32,4.992,2.999,6.725,5.034c1.733,2.036,2.6,4.704,2.6,8.005c0,4.099-1.492,7.537-4.477,10.314
				c-2.985,2.779-7.503,4.442-13.554,4.992v5.633c0,1.561-1.265,2.826-2.826,2.826l0,0C70.295,106.514,69.03,105.249,69.03,103.688z
				 M69.03,63.727v-9.696c-1.129,0.165-2.091,0.434-2.889,0.805c-0.798,0.372-1.402,0.846-1.815,1.423
				c-0.412,0.578-0.619,1.266-0.619,2.063c0,0.798,0.186,1.5,0.558,2.104c0.371,0.605,0.948,1.169,1.732,1.691
				C66.781,62.641,67.792,63.177,69.03,63.727z M74.682,88.236c1.925-0.33,3.342-0.9,4.25-1.712
				c0.907-0.812,1.361-1.863,1.361-3.157c0-0.77-0.206-1.457-0.619-2.063c-0.412-0.604-1.038-1.176-1.877-1.712
				c-0.84-0.537-1.878-1.08-3.115-1.63V88.236z"/>
		</g>
	</g>
	<g>
		<linearGradient id="SVGID_35_" gradientUnits="userSpaceOnUse" x1="35.4792" y1="114.817" x2="141.3807" y2="8.9154">
			<stop  offset="0" style="stop-color:#FAC63A"/>
			<stop  offset="1" style="stop-color:#FCE335"/>
		</linearGradient>
		<path fill="url(#SVGID_35_)" d="M106.063,20.179L106.063,20.179c0-1.709,1.385-3.094,3.094-3.094h28.147
			c1.709,0,3.094,1.385,3.094,3.094v0c0,1.709-1.385,3.094-3.094,3.094h-28.147C107.448,23.273,106.063,21.888,106.063,20.179z
			 M106.063,33.952L106.063,33.952c0-1.709,1.385-3.094,3.094-3.094h28.147c1.709,0,3.094,1.385,3.094,3.094v0
			c0,1.709-1.385,3.094-3.094,3.094h-28.147C107.448,37.047,106.063,35.661,106.063,33.952z"/>
	</g>
</g>
</svg>
