<?xml version="1.0" encoding="utf-8"?>
<!-- Generator: Adobe Illustrator 23.1.0, SVG Export Plug-In . SVG Version: 6.00 Build 0)  -->
<!DOCTYPE svg PUBLIC "-//W3C//DTD SVG 1.1//EN" "http://www.w3.org/Graphics/SVG/1.1/DTD/svg11.dtd" [
	<!ENTITY ns_extend "http://ns.adobe.com/Extensibility/1.0/">
	<!ENTITY ns_ai "http://ns.adobe.com/AdobeIllustrator/10.0/">
	<!ENTITY ns_graphs "http://ns.adobe.com/Graphs/1.0/">
	<!ENTITY ns_vars "http://ns.adobe.com/Variables/1.0/">
	<!ENTITY ns_imrep "http://ns.adobe.com/ImageReplacement/1.0/">
	<!ENTITY ns_sfw "http://ns.adobe.com/SaveForWeb/1.0/">
	<!ENTITY ns_custom "http://ns.adobe.com/GenericCustomNamespace/1.0/">
	<!ENTITY ns_adobe_xpath "http://ns.adobe.com/XPath/1.0/">
]>
<svg version="1.1" xmlns:x="&ns_extend;" xmlns:i="&ns_ai;" xmlns:graph="&ns_graphs;"
	 xmlns="http://www.w3.org/2000/svg" xmlns:xlink="http://www.w3.org/1999/xlink" x="0px" y="0px" viewBox="0 0 100 49"
	 enable-background="new 0 0 100 49" xml:space="preserve">
<metadata>
	<sfw  xmlns="&ns_sfw;">
		<slices></slices>
		<sliceSourceBounds  bottomLeftOrigin="true" height="3000" width="16383" x="-6791" y="-2452"></sliceSourceBounds>
		<optimizationSettings>
			<targetSettings  fileFormat="JPEGFormat" targetSettingsID="0">
				
					<JPEGFormat  blurAmount="0" embedICCProfile="false" matteColor="#FFFFFF" noMatteColor="false" optimized="true" progressive="true" quality="100">
					</JPEGFormat>
			</targetSettings>
		</optimizationSettings>
	</sfw>
</metadata>
<g id="Guides_For_Artboard">
</g>
<g id="Layer_2">
	<g>
		<path fill="#FFF200" d="M30.862,7.176c1.816,0.896,3.218,2.149,4.207,3.758c0.988,1.609,1.483,3.449,1.483,5.518v0.621h-5.276
			v-0.517c0-1.379-0.316-2.54-0.949-3.483c-0.632-0.942-1.465-1.649-2.5-2.121c-1.034-0.471-2.15-0.707-3.345-0.707
			c-1.816,0-3.362,0.471-4.638,1.414c-1.276,0.943-1.971,2.345-2.086,4.207h3.414v4.518h-3.379v21h-5.414v-21H9v-4.518h3.379
			c0.092-2.022,0.638-3.793,1.638-5.31c1-1.518,2.396-2.684,4.19-3.5C20,6.24,22.092,5.831,24.483,5.831
			C26.919,5.831,29.046,6.279,30.862,7.176z"/>
		<path fill="#FFF200" d="M29.396,27.021c-0.402,0.265-0.604,0.684-0.604,1.258c0,0.667,0.311,1.161,0.931,1.483
			c0.483-0.069,0.988-0.104,1.517-0.104c2.437,0,4.328,0.586,5.673,1.759c1.345,1.172,2.132,2.724,2.362,4.655h-5.172
			c-0.138-0.574-0.472-1.074-1-1.5c-0.529-0.425-1.196-0.638-2-0.638c-0.92,0-1.678,0.31-2.276,0.931
			c-0.598,0.621-0.896,1.449-0.896,2.483c0,1.058,0.293,1.896,0.879,2.518c0.586,0.621,1.351,0.931,2.293,0.931
			c0.759,0,1.408-0.201,1.948-0.603c0.54-0.402,0.891-0.891,1.052-1.466h5.172c-0.184,1.978-1.017,3.557-2.5,4.742
			c-1.483,1.184-3.374,1.776-5.672,1.776c-1.724,0-3.224-0.328-4.5-0.983s-2.259-1.586-2.949-2.793
			c-0.689-1.207-1.034-2.615-1.034-4.225c0-1.333,0.27-2.517,0.81-3.552c0.54-1.034,1.305-1.874,2.293-2.517
			c-1.541-0.942-2.311-2.264-2.311-3.966c0-1.356,0.5-2.431,1.5-3.224s2.362-1.189,4.086-1.189h2.759v-2.414H19.999v-4.518h21.346
			v4.518h-4.414v6.242h-6C30.31,26.625,29.798,26.757,29.396,27.021z"/>
		<path fill="#FFF200" d="M66.862,28.746c-0.759,0.655-1.138,1.558-1.138,2.707c0,1.034,0.298,1.862,0.896,2.483
			c0.598,0.621,1.414,0.931,2.448,0.931c0.896,0,1.644-0.281,2.241-0.845c0.598-0.563,0.897-1.339,0.897-2.328h5.035v10.828h-5.311
			v-5.069c-0.483,0.529-1.104,0.943-1.862,1.241c-0.759,0.299-1.609,0.449-2.552,0.449c-1.333,0-2.558-0.293-3.672-0.879
			c-1.115-0.586-2.006-1.466-2.673-2.638c-0.667-1.172-1-2.609-1-4.311c0-0.965,0.115-1.804,0.345-2.517h-3.966
			c0.598,1.081,0.896,2.265,0.896,3.552c0,1.402-0.328,2.609-0.982,3.621c-0.655,1.012-1.529,1.771-2.621,2.276
			c-1.092,0.506-2.305,0.759-3.638,0.759c-1.379,0-2.662-0.293-3.845-0.879c-1.184-0.586-2.132-1.437-2.845-2.552
			c-0.713-1.115-1.069-2.419-1.069-3.914c0-1.586,0.368-2.936,1.104-4.052c0.736-1.115,1.725-1.948,2.966-2.5
			s2.621-0.828,4.138-0.828h13.552c1.448-0.758,3.161-1.138,5.138-1.138h1.311v-2.759H40.172v-4.518h39.863L80,20.383h-3.931v7.379
			h-6.138C68.644,27.763,67.621,28.09,66.862,28.746z M52.345,33.642c0.529-0.517,0.793-1.189,0.793-2.017s-0.264-1.505-0.793-2.035
			c-0.529-0.528-1.219-0.793-2.069-0.793c-0.851,0-1.552,0.265-2.104,0.793c-0.552,0.529-0.828,1.207-0.828,2.035
			s0.27,1.5,0.811,2.017c0.54,0.518,1.247,0.776,2.121,0.776C51.126,34.418,51.816,34.16,52.345,33.642z"/>
		<path fill="#FFF200" d="M91,15.866v4.518h-3.379v21h-5.414v-21h-3.379v-4.518h3.552v-1.31c0-2.781-0.966-4.173-2.897-4.173
			c-2.022,0-3.035,1.392-3.035,4.173v2.517h-5.241v-2.241c0-2.781,0.655-4.977,1.965-6.586c1.311-1.609,3.414-2.414,6.311-2.414
			c5.425,0,8.138,3,8.138,9v1.034H91z"/>
	</g>
</g>
</svg>
