<svg width="619" height="123" viewBox="0 0 619 123" fill="none" xmlns="http://www.w3.org/2000/svg">
<path d="M10.4059 7.61826C0.899524 16.7309 1.5702 23.0008 0.83184 27.757V93.2619C0.83184 93.2619 -0.0480391 110.232 17.1004 118.022C21.5305 120.034 26.3729 120.987 31.24 121.024L95.1266 121.486L58.8792 77.6825L33.1166 105.014V79.9345V72.2617V0.548461C33.0982 0.548461 31.8368 0.351562 29.8125 0.351562C25.2962 0.351562 16.9712 1.32989 10.4059 7.61826Z" fill="url(#paint0_linear_331_120510)"/>
<path d="M33.1504 80.0391V72.3478L52.44 51.5384L52.4154 0.351562H92.5515C108.525 0.351562 121.471 13.2975 121.471 29.2707V92.8127C121.471 92.8127 122.018 106.072 111.072 114.957L71.2005 64.6566L96.8032 37.7187L73.4772 37.6695L33.1504 80.0391Z" fill="url(#paint1_linear_331_120510)"/>
<mask id="mask0_331_120510" style="mask-type:luminance" maskUnits="userSpaceOnUse" x="52" y="0" width="70" height="115">
<path d="M121.471 92.8179V29.1343C121.471 13.2411 108.587 0.35675 92.6936 0.35675H52.416L52.4406 51.6235L53.6097 1.55659L93.1612 1.64273C94.4656 1.64888 95.7762 1.75963 97.056 2.01806C119.385 6.48514 119.822 27.2269 119.822 27.2269V93.3655C119.822 106.791 109.996 113.603 109.996 113.603L111.079 114.969C117.429 109.677 121.471 101.721 121.471 92.8179Z" fill="white"/>
</mask>
<g mask="url(#mask0_331_120510)">
<path d="M-3.66602 45.9016L94.0313 -33.4413L177.558 69.4123L79.861 148.755L-3.66602 45.9016Z" fill="url(#paint2_linear_331_120510)"/>
</g>
<mask id="mask1_331_120510" style="mask-type:luminance" maskUnits="userSpaceOnUse" x="33" y="51" width="20" height="23">
<path d="M52.4322 51.5378V53.1314L33.1426 73.9285V72.3472L52.4322 51.5378Z" fill="white"/>
</mask>
<g mask="url(#mask1_331_120510)">
<path d="M52.4322 51.5379H33.1426V73.9287H52.4322V51.5379Z" fill="url(#paint3_linear_331_120510)"/>
</g>
<path opacity="0.4" d="M73.4766 37.6632L74.9779 36.1619H98.3531L96.7964 37.7186L73.4766 37.6632Z" fill="url(#paint4_linear_331_120510)"/>
<path d="M93.0539 121.473L58.7878 80.0635L33.1113 107.42L33.1236 104.897L58.8739 77.5839L95.1336 121.492L93.0539 121.473Z" fill="url(#paint5_linear_331_120510)"/>
<path d="M95.1318 121.493L31.2329 122.674C26.0398 122.637 21.1666 121.603 16.7549 119.598C-0.701172 111.666 -0.00588146 94.2165 0.00642454 94.0442V28.5209L0.0187305 28.4593C0.117179 27.8256 0.191015 27.1549 0.264851 26.4473C0.750938 21.9987 1.41546 15.9134 9.83277 7.84678C16.6318 1.33075 25.2706 0.358582 29.8177 0.358582C31.799 0.358582 32.9865 0.537018 33.128 0.555477V2.16756C32.9988 2.1491 31.6821 2.00759 29.8177 2.00759C25.5229 2.00759 17.3579 2.91823 10.9711 9.04047C2.98448 16.6886 2.38148 22.1956 1.8954 26.6196C1.81541 27.321 1.74772 27.9917 1.64928 28.6439V94.0872C1.61236 94.801 1.02167 110.645 17.4317 118.102C21.6281 120.01 26.2736 120.994 31.2391 121.031L95.1318 121.493Z" fill="url(#paint6_linear_331_120510)"/>
<path d="M146.314 7.68591H162.761V31.7626L183.196 7.68591H202.694L180.23 33.1224L203.457 67.0316H183.786L168.779 44.9916L162.761 51.606V67.0378H146.314V7.68591Z" fill="white"/>
<path d="M208.203 7.68591H224.65V29.8982H245.761V7.68591H262.208V67.0316H245.761V44.4809H224.65V67.0316H208.203V7.68591Z" fill="white"/>
<path d="M272.723 7.68591H320.451V21.5917H288.997V30.6612H317.486V43.6317H288.997V53.0397H320.876V67.0254H272.723V7.68591Z" fill="white"/>
<path d="M329.354 7.68591H345.801V52.6213H374.541V67.0316H329.354V7.68591Z" fill="white"/>
<path d="M376.402 37.528V37.3557C376.402 20.3119 390.136 6.49841 408.447 6.49841C426.759 6.49841 440.326 20.2319 440.326 37.1896V37.3619C440.326 54.4057 426.592 68.2192 408.281 68.2192C389.97 68.2192 376.402 54.4857 376.402 37.528ZM423.46 37.528V37.3557C423.46 28.7107 417.357 21.3333 408.287 21.3333C399.218 21.3333 393.194 28.6246 393.194 37.1896V37.3619C393.194 45.8407 399.384 53.3843 408.453 53.3843C417.437 53.3843 423.46 46.093 423.46 37.528Z" fill="white"/>
<path d="M460.594 44.8193L437.957 7.68591H456.693L468.9 29.3076L481.194 7.68591H499.592L477.041 44.567V67.0316H460.594V44.8193Z" fill="white"/>
<path d="M515.948 7.26166H531.804L557.068 67.0319H539.434L535.194 56.3503H512.219L507.979 67.0319H490.77L515.948 7.26166ZM530.358 43.552L523.743 26.7667L517.049 43.552H530.358Z" fill="white"/>
<path d="M562.832 7.68591H590.896C600.052 7.68591 606.241 10.061 610.229 14.042C613.705 17.5184 615.483 22.1824 615.483 27.8616V28.0339C615.483 37.1896 610.733 43.2072 603.276 46.3452L617.434 67.0316H598.526L586.57 49.0587H579.279V67.0316H562.832V7.68591ZM590.219 36.1743C595.732 36.1743 599.036 33.4608 599.036 29.1353V28.963C599.036 24.2129 595.56 21.844 590.133 21.844H579.279V36.1743H590.219Z" fill="white"/>
<path d="M151.762 96.6952C152.039 97.2305 152.365 97.815 152.74 98.4488C153.11 99.0825 153.553 99.7225 154.069 100.369C154.58 101.015 155.159 101.636 155.798 102.245C156.438 102.848 157.177 103.39 158.007 103.857C158.838 104.325 159.755 104.7 160.758 104.977C161.761 105.254 162.881 105.396 164.111 105.396C165.323 105.396 166.345 105.285 167.182 105.069C168.018 104.854 168.701 104.559 169.218 104.196C169.741 103.833 170.117 103.402 170.35 102.91C170.584 102.417 170.701 101.907 170.701 101.365C170.701 100.19 170.006 99.2733 168.621 98.6088C167.237 97.9442 165.225 97.6181 162.604 97.6181C162.284 97.6181 161.97 97.6243 161.656 97.6366C161.336 97.6489 161.022 97.6673 160.709 97.6858V95.0831C160.856 95.0954 160.992 95.1016 161.115 95.1016C161.238 95.1016 161.305 95.1016 161.324 95.1016C162.628 95.1016 163.785 95.0031 164.8 94.8C165.816 94.6032 166.665 94.3263 167.354 93.9879C168.043 93.6494 168.566 93.2433 168.917 92.788C169.267 92.3327 169.446 91.8528 169.446 91.3482C169.446 90.8929 169.317 90.4868 169.052 90.1299C168.794 89.7792 168.437 89.4777 167.988 89.2377C167.538 88.9978 167.009 88.8193 166.394 88.6963C165.779 88.5732 165.108 88.5178 164.382 88.5178C163.877 88.5178 163.397 88.5363 162.93 88.5794C162.462 88.6224 161.97 88.684 161.447 88.7701C160.924 88.8562 160.37 88.967 159.786 89.1024C159.201 89.2377 158.53 89.41 157.786 89.6192L156.192 87.2749C157.644 86.8381 159.041 86.512 160.382 86.2904C161.724 86.0689 163.09 85.9582 164.487 85.9582C165.828 85.9582 167.071 86.0874 168.215 86.352C169.36 86.6166 170.344 86.9796 171.175 87.4411C172.005 87.9025 172.652 88.4563 173.113 89.0962C173.581 89.7361 173.808 90.4253 173.808 91.1698C173.808 93.2126 172.215 94.8554 169.034 96.1045V96.1722C170.283 96.4921 171.323 96.8859 172.159 97.3536C172.701 97.4089 173.273 97.4581 173.876 97.4889C174.479 97.5258 175.033 97.5381 175.537 97.5381C176.06 97.5381 176.608 97.5135 177.186 97.4704C177.765 97.4274 178.355 97.3412 178.958 97.212C179.561 97.089 180.177 96.9105 180.804 96.6829C181.426 96.4552 182.059 96.1599 182.687 95.7907V86.2966H193.135V88.8132H187.271V111.832H182.693V98.818L182.582 98.7995C181.524 99.2364 180.527 99.5194 179.592 99.6548C178.663 99.7901 177.703 99.8578 176.713 99.8578C176.393 99.8578 176.073 99.8517 175.734 99.8332C175.402 99.8148 175.057 99.7963 174.701 99.7717L174.67 99.8394C174.965 100.307 175.119 100.885 175.119 101.568C175.119 102.491 174.867 103.347 174.362 104.14C173.858 104.928 173.138 105.611 172.196 106.189C171.255 106.768 170.123 107.217 168.787 107.531C167.458 107.851 165.963 108.011 164.302 108.011C162.53 108.011 160.936 107.82 159.509 107.438C158.081 107.057 156.801 106.565 155.657 105.955C154.513 105.352 153.51 104.669 152.654 103.906C151.799 103.15 151.061 102.387 150.445 101.618C149.83 100.848 149.326 100.122 148.938 99.4333C148.544 98.7441 148.261 98.1719 148.07 97.7104L151.762 96.6952ZM208.013 88.8132H202.149V111.832H197.571V88.8132H191.203V86.2966H208.019V88.8132H208.013Z" fill="white"/>
<path d="M242.457 88.8128H236.593V111.831H231.985V103.648L231.874 103.629C230.625 104.312 229.228 104.804 227.684 105.094C226.139 105.383 224.614 105.531 223.106 105.531C221.506 105.531 220.042 105.389 218.719 105.1C217.396 104.817 216.264 104.38 215.31 103.789C214.363 103.199 213.618 102.46 213.089 101.562C212.56 100.664 212.295 99.599 212.295 98.3684V88.8128H206.068V86.2963H242.463V88.8128H242.457ZM231.979 88.8128H216.811V98.2146C216.811 98.9345 216.91 99.5806 217.107 100.153C217.304 100.725 217.636 101.211 218.11 101.611C218.584 102.011 219.211 102.319 219.993 102.528C220.774 102.737 221.752 102.848 222.928 102.848C224.847 102.848 226.576 102.571 228.121 102.017C229.665 101.463 230.951 100.737 231.972 99.8329V88.8128H231.979Z" fill="white"/>
<path d="M291.836 88.8132H268.233V95.5631L268.375 95.6C269.322 94.8001 270.504 94.1602 271.925 93.6741C273.34 93.188 274.897 92.9481 276.589 92.9481C277.93 92.9481 279.173 93.1142 280.318 93.4526C281.462 93.791 282.453 94.2525 283.29 94.837C284.126 95.4277 284.785 96.1169 285.259 96.9167C285.732 97.7166 285.972 98.578 285.972 99.501C285.972 100.553 285.677 101.519 285.08 102.405C284.483 103.291 283.72 104.091 282.791 104.811C281.862 105.531 280.81 106.165 279.635 106.718C278.46 107.272 277.309 107.746 276.171 108.134L273.685 105.494C274.054 105.371 274.515 105.205 275.051 104.996C275.592 104.793 276.152 104.553 276.743 104.276C277.327 103.999 277.906 103.691 278.472 103.34C279.038 102.99 279.549 102.614 280.01 102.202C280.465 101.79 280.835 101.347 281.111 100.867C281.388 100.387 281.53 99.8825 281.53 99.341C281.53 98.8488 281.407 98.3812 281.155 97.9381C280.902 97.4951 280.552 97.1075 280.109 96.7752C279.659 96.443 279.124 96.1845 278.503 95.9876C277.881 95.7907 277.192 95.6984 276.447 95.6984C275.481 95.6984 274.54 95.8523 273.629 96.1599C272.719 96.4676 271.888 96.8552 271.144 97.3167C270.399 97.7782 269.771 98.2704 269.261 98.7996C268.75 99.3226 268.412 99.8086 268.239 100.258V111.832H263.662V105.273L263.551 105.242C263.274 105.389 262.917 105.568 262.492 105.783C262.062 105.992 261.545 106.195 260.942 106.392C260.339 106.589 259.637 106.749 258.85 106.891C258.056 107.026 257.17 107.094 256.186 107.094C254.549 107.094 253.035 106.897 251.645 106.509C250.26 106.122 249.054 105.592 248.039 104.928C247.024 104.263 246.23 103.476 245.652 102.571C245.073 101.667 244.784 100.707 244.784 99.6794C244.784 98.695 245.049 97.7905 245.578 96.9598C246.107 96.1292 246.833 95.4093 247.756 94.8124C248.679 94.2156 249.756 93.7418 250.999 93.4095C252.235 93.0711 253.571 92.905 255.004 92.905C256.007 92.905 256.942 92.985 257.81 93.1388C258.678 93.2926 259.465 93.4834 260.185 93.7049C260.899 93.9264 261.545 94.1663 262.111 94.4248C262.677 94.6832 263.157 94.9109 263.551 95.1201L263.662 95.1016V88.8317H240.508V86.3151H291.848V88.8132H291.836ZM255.669 95.5631C254.604 95.5631 253.669 95.6984 252.863 95.963C252.057 96.2276 251.38 96.5722 250.839 96.9906C250.297 97.409 249.891 97.8766 249.62 98.3935C249.35 98.9103 249.214 99.421 249.214 99.9256C249.214 100.473 249.374 101.021 249.688 101.562C250.002 102.104 250.457 102.59 251.042 103.027C251.626 103.464 252.334 103.814 253.152 104.079C253.971 104.35 254.875 104.479 255.86 104.479C256.696 104.479 257.576 104.374 258.499 104.159C259.422 103.95 260.265 103.617 261.04 103.174C261.816 102.731 262.449 102.159 262.954 101.47C263.459 100.781 263.711 99.9563 263.711 98.9965V98.1596C263.262 97.8151 262.739 97.489 262.136 97.1752C261.533 96.8614 260.88 96.5845 260.179 96.3445C259.478 96.1045 258.751 95.9138 257.988 95.7723C257.219 95.6369 256.45 95.5631 255.669 95.5631Z" fill="white"/>
<path d="M306.692 88.8131H300.829V111.831H296.251V88.8131H289.882V86.2965H296.7C296.368 85.1336 295.937 84.1368 295.414 83.3062C294.891 82.4817 294.325 81.7864 293.709 81.2326C293.094 80.6788 292.454 80.242 291.784 79.922C291.113 79.6021 290.467 79.3621 289.845 79.2021C289.224 79.0422 288.633 78.9376 288.086 78.8945C287.538 78.8514 287.083 78.8268 286.732 78.8268C285.575 78.8268 284.652 78.9375 283.951 79.1591C283.256 79.3806 282.72 79.6451 282.345 79.9528C281.976 80.2604 281.723 80.5866 281.607 80.9188C281.483 81.2572 281.428 81.5464 281.428 81.7864C281.428 81.8787 281.453 82.0633 281.496 82.3402C281.545 82.6232 281.693 82.9739 281.945 83.3923C282.197 83.8169 282.585 84.2907 283.102 84.8137C283.625 85.3367 284.357 85.8904 285.311 86.475H280.561C279.385 85.6505 278.505 84.8014 277.921 83.9153C277.336 83.0293 277.041 82.174 277.041 81.3372C277.041 80.6419 277.244 79.9774 277.656 79.3498C278.069 78.7222 278.678 78.1746 279.502 77.7131C280.321 77.2516 281.348 76.8824 282.573 76.6117C283.803 76.3348 285.225 76.1995 286.849 76.1995C289.082 76.1995 291.008 76.464 292.633 76.9932C294.251 77.5224 295.617 78.2484 296.724 79.1591C297.832 80.0759 298.706 81.1403 299.352 82.3709C299.992 83.6015 300.447 84.906 300.705 86.2842H306.711V88.8131H306.692Z" fill="white"/>
<path d="M365.182 88.8128H359.318V111.831H354.74V96.9656H345.744L345.714 97.0332C345.935 97.1932 346.273 97.4332 346.716 97.7593C347.166 98.0854 347.609 98.4853 348.058 98.9591C348.507 99.4329 348.895 99.9682 349.233 100.571C349.565 101.168 349.738 101.82 349.738 102.516C349.738 103.211 349.547 103.9 349.165 104.577C348.784 105.254 348.218 105.869 347.461 106.41C346.704 106.952 345.75 107.389 344.6 107.721C343.443 108.053 342.102 108.219 340.576 108.219C339.068 108.219 337.684 108.059 336.429 107.733C335.173 107.407 334.029 106.97 332.995 106.423C331.962 105.875 331.032 105.241 330.214 104.521C329.396 103.802 328.664 103.039 328.024 102.239C327.384 101.433 326.824 100.62 326.35 99.7898C325.876 98.9653 325.47 98.1716 325.138 97.4086C324.806 96.6518 324.535 95.9503 324.326 95.3104C324.123 94.6705 323.963 94.1413 323.852 93.7168L327.987 93.2184C328.602 95.2735 329.353 97.0763 330.233 98.6207C331.119 100.165 332.097 101.463 333.18 102.497C334.257 103.537 335.426 104.312 336.669 104.835C337.918 105.352 339.222 105.617 340.582 105.617C341.548 105.617 342.329 105.5 342.926 105.266C343.523 105.032 343.991 104.749 344.323 104.411C344.655 104.072 344.889 103.728 345.006 103.365C345.129 103.008 345.191 102.694 345.191 102.429C345.191 101.962 345.037 101.463 344.729 100.928C344.421 100.399 343.972 99.8636 343.388 99.3345C342.803 98.8053 342.071 98.2946 341.197 97.8024C340.323 97.3101 339.314 96.8671 338.182 96.4672V94.4613H354.746V88.8128H320.406V86.2963H365.182V88.8128Z" fill="white"/>
<path d="M380.048 88.8131H374.184V111.831H369.606V88.8131H363.238V86.2965H370.055C369.723 85.1336 369.292 84.1368 368.769 83.3062C368.246 82.4817 367.68 81.7864 367.065 81.2326C366.45 80.6788 365.81 80.242 365.139 79.922C364.468 79.6021 363.822 79.3621 363.201 79.2021C362.579 79.0422 361.989 78.9376 361.441 78.8945C360.894 78.8514 360.438 78.8268 360.087 78.8268C358.931 78.8268 358.008 78.9375 357.306 79.1591C356.611 79.3806 356.076 79.6451 355.7 79.9528C355.331 80.2604 355.079 80.5866 354.962 80.9188C354.839 81.2572 354.784 81.5464 354.784 81.7864C354.784 81.8787 354.808 82.0633 354.851 82.3402C354.9 82.6232 355.048 82.9739 355.3 83.3923C355.553 83.8169 355.94 84.2907 356.457 84.8137C356.98 85.3367 357.712 85.8904 358.666 86.475H353.916C352.741 85.6505 351.861 84.8014 351.276 83.9153C350.692 83.0293 350.396 82.174 350.396 81.3372C350.396 80.6419 350.6 79.9774 351.012 79.3498C351.424 78.7222 352.033 78.1746 352.858 77.7131C353.676 77.2516 354.704 76.8824 355.928 76.6117C357.159 76.3348 358.58 76.1995 360.204 76.1995C362.438 76.1995 364.364 76.464 365.988 76.9932C367.606 77.5224 368.972 78.2484 370.08 79.1591C371.187 80.0759 372.061 81.1403 372.707 82.3709C373.347 83.6015 373.803 84.906 374.061 86.2842H380.066V88.8131H380.048Z" fill="white"/>
<path d="M415.043 88.8127H409.179V111.831H404.626V96.7931H395.55C394.301 96.7931 393.175 96.8423 392.172 96.9408C391.169 97.0392 390.308 97.23 389.6 97.5253C388.893 97.8145 388.345 98.2206 387.963 98.7436C387.582 99.2605 387.391 99.9434 387.391 100.793C387.391 101.888 387.687 102.897 388.271 103.826C388.856 104.755 389.606 105.598 390.517 106.367C391.428 107.136 392.437 107.85 393.544 108.496C394.652 109.148 395.716 109.745 396.744 110.293L393.95 112.243C393.784 112.188 393.384 112.016 392.763 111.739C392.141 111.462 391.415 111.08 390.585 110.6C389.754 110.121 388.88 109.536 387.957 108.853C387.034 108.17 386.185 107.395 385.416 106.533C384.641 105.672 384.001 104.718 383.49 103.684C382.98 102.645 382.721 101.525 382.721 100.325C382.721 99.1374 382.998 98.1529 383.546 97.3715C384.093 96.5901 384.875 95.9686 385.878 95.5071C386.881 95.0457 388.105 94.7195 389.539 94.5411C390.972 94.3565 392.572 94.2642 394.344 94.2642H404.626V88.8188H378.088V86.3022H415.043V88.8127Z" fill="white"/>
<path d="M480.1 88.8132H456.497V95.5631L456.639 95.6C457.586 94.8001 458.768 94.1602 460.189 93.6741C461.604 93.188 463.161 92.9481 464.853 92.9481C466.194 92.9481 467.437 93.1142 468.582 93.4526C469.726 93.791 470.717 94.2525 471.554 94.837C472.39 95.4216 473.049 96.1169 473.523 96.9167C473.996 97.7166 474.236 98.578 474.236 99.501C474.236 100.553 473.941 101.519 473.344 102.405C472.747 103.291 471.984 104.091 471.055 104.811C470.126 105.531 469.074 106.165 467.899 106.718C466.724 107.272 465.573 107.746 464.435 108.134L461.949 105.494C462.324 105.371 462.779 105.205 463.315 104.996C463.85 104.786 464.416 104.553 465.007 104.276C465.591 103.999 466.17 103.691 466.736 103.34C467.302 102.99 467.813 102.614 468.274 102.202C468.729 101.79 469.099 101.347 469.375 100.867C469.652 100.387 469.794 99.8825 469.794 99.341C469.794 98.8488 469.671 98.3812 469.419 97.9381C469.166 97.4951 468.815 97.1075 468.372 96.7752C467.923 96.443 467.388 96.1845 466.767 95.9876C466.145 95.7907 465.456 95.6984 464.711 95.6984C463.745 95.6984 462.804 95.8523 461.893 96.1599C460.983 96.4676 460.152 96.8552 459.408 97.3167C458.663 97.7782 458.035 98.2704 457.525 98.7996C457.014 99.3226 456.676 99.8086 456.503 100.258V111.832H451.919V105.273L451.809 105.242C451.532 105.389 451.175 105.568 450.75 105.783C450.32 105.992 449.803 106.195 449.2 106.392C448.597 106.589 447.895 106.749 447.108 106.891C446.314 107.026 445.428 107.094 444.443 107.094C442.807 107.094 441.293 106.897 439.903 106.509C438.518 106.122 437.312 105.592 436.297 104.928C435.282 104.263 434.488 103.476 433.91 102.571C433.331 101.667 433.042 100.707 433.042 99.6794C433.042 98.695 433.307 97.7905 433.836 96.9598C434.365 96.1292 435.091 95.4093 436.014 94.8124C436.937 94.2156 438.014 93.7418 439.256 93.4095C440.493 93.0711 441.828 92.905 443.262 92.905C444.265 92.905 445.206 92.985 446.068 93.1388C446.935 93.2926 447.723 93.4834 448.443 93.7049C449.163 93.9264 449.803 94.1663 450.369 94.4248C450.935 94.6832 451.415 94.9109 451.809 95.1201L451.919 95.1016V88.8317H428.766V86.3151H480.106V88.8132H480.1ZM443.927 95.5631C442.862 95.5631 441.927 95.6984 441.121 95.963C440.315 96.2276 439.638 96.5722 439.097 96.9906C438.555 97.409 438.149 97.8766 437.884 98.3935C437.614 98.9103 437.478 99.421 437.478 99.9256C437.478 100.473 437.638 101.021 437.952 101.562C438.266 102.104 438.721 102.59 439.306 103.027C439.89 103.464 440.592 103.814 441.416 104.079C442.241 104.343 443.139 104.479 444.124 104.479C444.96 104.479 445.84 104.374 446.763 104.159C447.686 103.95 448.535 103.617 449.304 103.174C450.08 102.731 450.713 102.159 451.218 101.47C451.722 100.781 451.975 99.9563 451.975 98.9965V98.1596C451.526 97.8151 451.003 97.489 450.4 97.1752C449.797 96.8614 449.144 96.5845 448.443 96.3445C447.742 96.1045 447.015 95.9138 446.252 95.7723C445.483 95.6369 444.708 95.5631 443.927 95.5631Z" fill="white"/>
<path d="M494.96 88.8128H489.097V111.831H484.519V88.8128H478.15V86.2963H494.967V88.8128H494.96Z" fill="white"/>
<path d="M551.827 86.2963V88.8128H545.963V111.831H541.324V100.325H525.154C524.169 100.725 522.982 100.965 521.604 101.045L521.548 101.131C523.357 102.866 525.338 104.485 527.498 105.98C529.658 107.475 532.119 108.865 534.869 110.139L531.879 112.243C530.298 111.524 528.79 110.748 527.369 109.911C525.948 109.075 524.606 108.213 523.345 107.315C522.09 106.417 520.908 105.512 519.813 104.595C518.712 103.678 517.709 102.774 516.798 101.882C515.887 100.99 515.069 100.134 514.337 99.3037C513.611 98.4792 512.977 97.7101 512.436 97.0025L516.263 95.735C516.613 96.2395 516.964 96.6579 517.309 96.9963C517.653 97.3347 518.004 97.5993 518.355 97.8024C518.705 98.0054 519.081 98.1469 519.475 98.2331C519.868 98.3192 520.287 98.3623 520.73 98.3623C522.016 98.3623 522.957 98.0546 523.566 97.4393C524.175 96.824 524.477 96.0118 524.477 95.0089C524.477 94.4182 524.385 93.8275 524.2 93.2553C524.016 92.6769 523.776 92.1232 523.486 91.594C523.197 91.0648 522.883 90.5664 522.551 90.0927C522.219 89.625 521.899 89.2005 521.604 88.8251H508.67V86.3086H551.827V86.2963ZM541.324 88.8128H526.434C527.215 89.8527 527.83 90.8987 528.28 91.9447C528.729 92.9907 528.95 94.0367 528.95 95.0766C528.95 95.5565 528.889 96.0242 528.766 96.4918C528.643 96.9533 528.446 97.3901 528.163 97.8024L528.218 97.8393H541.318V88.8128H541.324Z" fill="white"/>
<path d="M566.681 88.8128H560.818V111.831H556.234V88.8128H549.865V86.2963H566.681V88.8128Z" fill="white"/>
<path d="M583.611 91.5206C583.611 92.3451 583.445 93.1327 583.106 93.8834C582.768 94.634 582.27 95.3293 581.599 95.9631C580.928 96.5968 580.098 97.1629 579.101 97.6551C578.104 98.1535 576.935 98.5596 575.594 98.8796C575.87 99.6549 576.264 100.313 576.769 100.855C577.273 101.396 577.87 101.845 578.559 102.196C579.248 102.553 580.011 102.805 580.848 102.965C581.685 103.125 582.571 103.205 583.5 103.205C585.365 103.205 587.087 102.941 588.681 102.418C590.275 101.895 591.61 101.169 592.687 100.239V86.2967H603.134V88.8133H597.271V111.832H592.693V103.814L592.582 103.796C592.096 104.048 591.524 104.294 590.853 104.54C590.182 104.786 589.444 105.002 588.632 105.193C587.82 105.383 586.952 105.537 586.023 105.654C585.094 105.771 584.122 105.832 583.119 105.832C581.033 105.832 579.248 105.586 577.772 105.088C576.289 104.59 575.052 103.937 574.055 103.125C573.058 102.313 572.277 101.39 571.711 100.356C571.145 99.3226 570.739 98.2643 570.499 97.1814C572.136 96.9783 573.508 96.6768 574.621 96.2892C575.729 95.9015 576.621 95.4524 577.292 94.9478C577.962 94.4371 578.442 93.8895 578.732 93.305C579.021 92.7143 579.162 92.1236 579.162 91.5145C579.162 90.5115 578.842 89.7547 578.196 89.244C577.55 88.7333 576.75 88.481 575.778 88.481C574.923 88.481 574.234 88.6595 573.711 89.0102C573.188 89.367 572.929 89.8162 572.929 90.3638C572.929 90.4684 572.948 90.5915 572.985 90.7392C573.022 90.8868 573.114 91.0591 573.262 91.2437C573.409 91.4345 573.631 91.6437 573.932 91.8775C574.234 92.1113 574.634 92.3574 575.132 92.622L572.646 94.4864C571.791 94.2033 571.09 93.8834 570.554 93.5388C570.013 93.1881 569.594 92.8312 569.299 92.4682C569.004 92.1051 568.794 91.7483 568.684 91.3975C568.573 91.0468 568.518 90.7269 568.518 90.4315C568.518 89.8839 568.671 89.3424 568.979 88.8133C569.287 88.2841 569.748 87.8042 570.363 87.3735C570.979 86.9428 571.748 86.5982 572.683 86.3398C573.612 86.0752 574.701 85.946 575.95 85.946C577.199 85.946 578.295 86.0813 579.248 86.3582C580.196 86.6351 580.996 87.0166 581.648 87.5089C582.3 88.0011 582.793 88.5856 583.131 89.2625C583.445 89.9516 583.611 90.6961 583.611 91.5206Z" fill="white"/>
<path d="M617.998 88.8131H612.134V111.831H607.55V88.8131H601.181V86.2965H607.999C607.667 85.1336 607.236 84.1368 606.713 83.3062C606.19 82.4817 605.624 81.7864 605.009 81.2326C604.393 80.6788 603.753 80.242 603.083 79.922C602.412 79.6021 601.766 79.3621 601.138 79.2021C600.517 79.0422 599.926 78.9376 599.379 78.8945C598.831 78.8514 598.376 78.8268 598.025 78.8268C596.868 78.8268 595.945 78.9375 595.244 79.1591C594.549 79.3806 594.013 79.6451 593.638 79.9528C593.269 80.2604 593.016 80.5866 592.9 80.9188C592.776 81.2572 592.721 81.5464 592.721 81.7864C592.721 81.8787 592.746 82.0633 592.789 82.3402C592.838 82.6232 592.986 82.9739 593.238 83.3923C593.49 83.8169 593.878 84.2907 594.395 84.8137C594.918 85.3367 595.65 85.8904 596.604 86.475H591.853C590.678 85.6505 589.798 84.8014 589.214 83.9153C588.629 83.0293 588.334 82.174 588.334 81.3372C588.334 80.6419 588.537 79.9774 588.949 79.3498C589.362 78.7222 589.977 78.1746 590.795 77.7131C591.614 77.2516 592.641 76.8824 593.866 76.6117C595.09 76.341 596.517 76.1995 598.142 76.1995C600.375 76.1995 602.301 76.464 603.926 76.9932C605.544 77.5224 606.91 78.2484 608.017 79.1591C609.125 80.0759 609.999 81.1403 610.645 82.3709C611.285 83.6015 611.74 84.906 611.998 86.2842H618.004V88.8131H617.998Z" fill="white"/>
<defs>
<linearGradient id="paint0_linear_331_120510" x1="0.825872" y1="60.9216" x2="95.1314" y2="60.9216" gradientUnits="userSpaceOnUse">
<stop stop-color="#F1D618"/>
<stop offset="1" stop-color="#ECB023"/>
</linearGradient>
<linearGradient id="paint1_linear_331_120510" x1="33.1503" y1="57.6565" x2="121.479" y2="57.6565" gradientUnits="userSpaceOnUse">
<stop stop-color="#F1D618"/>
<stop offset="1" stop-color="#ECB023"/>
</linearGradient>
<linearGradient id="paint2_linear_331_120510" x1="76.638" y1="66.0379" x2="138.652" y2="15.6762" gradientUnits="userSpaceOnUse">
<stop stop-color="#F1D618"/>
<stop offset="1" stop-color="#ECB023"/>
</linearGradient>
<linearGradient id="paint3_linear_331_120510" x1="33.1161" y1="62.733" x2="52.4133" y2="62.733" gradientUnits="userSpaceOnUse">
<stop stop-color="#F1D618"/>
<stop offset="1" stop-color="#ECB023"/>
</linearGradient>
<linearGradient id="paint4_linear_331_120510" x1="73.475" y1="36.9394" x2="98.3528" y2="36.9394" gradientUnits="userSpaceOnUse">
<stop stop-color="#F1D618"/>
<stop offset="1" stop-color="#ECB023"/>
</linearGradient>
<linearGradient id="paint5_linear_331_120510" x1="33.1088" y1="99.5355" x2="95.1323" y2="99.5355" gradientUnits="userSpaceOnUse">
<stop stop-color="#F1D618"/>
<stop offset="1" stop-color="#ECB023"/>
</linearGradient>
<linearGradient id="paint6_linear_331_120510" x1="-0.000774488" y1="61.5135" x2="95.1305" y2="61.5135" gradientUnits="userSpaceOnUse">
<stop stop-color="#F1D618"/>
<stop offset="1" stop-color="#ECB023"/>
</linearGradient>
</defs>
</svg>
