<?xml version="1.0" encoding="utf-8"?>
<!-- Generator: Adobe Illustrator 23.1.0, SVG Export Plug-In . SVG Version: 6.00 Build 0)  -->
<!DOCTYPE svg PUBLIC "-//W3C//DTD SVG 1.1//EN" "http://www.w3.org/Graphics/SVG/1.1/DTD/svg11.dtd" [
	<!ENTITY ns_extend "http://ns.adobe.com/Extensibility/1.0/">
	<!ENTITY ns_ai "http://ns.adobe.com/AdobeIllustrator/10.0/">
	<!ENTITY ns_graphs "http://ns.adobe.com/Graphs/1.0/">
	<!ENTITY ns_vars "http://ns.adobe.com/Variables/1.0/">
	<!ENTITY ns_imrep "http://ns.adobe.com/ImageReplacement/1.0/">
	<!ENTITY ns_sfw "http://ns.adobe.com/SaveForWeb/1.0/">
	<!ENTITY ns_custom "http://ns.adobe.com/GenericCustomNamespace/1.0/">
	<!ENTITY ns_adobe_xpath "http://ns.adobe.com/XPath/1.0/">
]>
<svg version="1.1" xmlns:x="&ns_extend;" xmlns:i="&ns_ai;" xmlns:graph="&ns_graphs;"
	 xmlns="http://www.w3.org/2000/svg" xmlns:xlink="http://www.w3.org/1999/xlink" x="0px" y="0px" viewBox="0 0 100 100"
	 enable-background="new 0 0 100 100" xml:space="preserve">
<metadata>
	<sfw  xmlns="&ns_sfw;">
		<slices></slices>
		<sliceSourceBounds  bottomLeftOrigin="true" height="3000" width="16383" x="-6791" y="-2452"></sliceSourceBounds>
		<optimizationSettings>
			<targetSettings  fileFormat="JPEGFormat" targetSettingsID="0">
				
					<JPEGFormat  blurAmount="0" embedICCProfile="false" matteColor="#FFFFFF" noMatteColor="false" optimized="true" progressive="true" quality="100">
					</JPEGFormat>
			</targetSettings>
		</optimizationSettings>
	</sfw>
</metadata>
<g id="Guides_For_Artboard">
</g>
<g id="Layer_2">
	<g>
		<g>
			<path fill="#FFF200" d="M48.063,48.942c-0.079-2.796-0.405-5.614-0.981-8.431c-0.185-0.906-0.39-1.778-0.608-2.616
				c-2.077,0.499-4.189,0.857-6.328,1.068c-1.376,0.135-2.765,0.207-4.161,0.223v9.755H48.063z"/>
			<path fill="#FFF200" d="M33.874,39.167c-2.272-0.071-4.558-0.297-6.842-0.68c-1.222-0.205-2.372-0.443-3.444-0.698
				c-0.207,0.823-0.401,1.678-0.578,2.563c-0.571,2.87-0.893,5.741-0.968,8.59h11.831V39.167z"/>
			<path fill="#FFF200" d="M22.032,51.053c0.028,1.608,0.136,3.207,0.324,4.793c0.258,2.175,0.672,4.327,1.233,6.45
				c2.11-0.512,4.255-0.879,6.429-1.092c1.276-0.126,2.563-0.199,3.856-0.221v-9.929H22.032z"/>
			<path fill="#FFF200" d="M34.834,82.832c8.77,0,17.016-3.415,23.217-9.617c6.202-6.201,9.617-14.447,9.617-23.217
				c0-8.77-3.415-17.016-9.617-23.217c-6.201-6.202-14.447-9.617-23.217-9.617c-8.77,0-17.016,3.415-23.217,9.617
				C5.415,32.982,2,41.228,2,49.998C2,59.27,5.89,68.04,12.717,74.263C12.717,74.263,21.774,82.832,34.834,82.832z M61.123,51.053
				H50.188c-0.027,1.654-0.138,3.299-0.333,4.931c-0.279,2.326-0.733,4.625-1.354,6.89c4.371,1.216,7.022,2.576,7.171,2.653
				c0.517,0.269,0.719,0.906,0.45,1.423c-0.269,0.517-0.906,0.718-1.423,0.45c-0.059-0.031-2.62-1.335-6.802-2.499
				c-1.085,3.37-2.549,6.659-4.388,9.839c-0.196,0.338-0.55,0.527-0.915,0.527c-0.179,0-0.361-0.046-0.528-0.142
				c-0.505-0.292-0.677-0.938-0.385-1.442c1.741-3.01,3.13-6.12,4.166-9.306c-0.984-0.229-2.033-0.443-3.141-0.627
				c-2.245-0.374-4.491-0.588-6.72-0.647v13.089c0,0.583-0.473,1.056-1.056,1.056s-1.056-0.473-1.056-1.056V63.093
				c-1.241,0.023-2.475,0.094-3.699,0.216c-2.029,0.202-4.032,0.543-6.003,1.017c1.045,3.347,2.466,6.614,4.259,9.772
				c0.288,0.507,0.11,1.151-0.397,1.439c-0.165,0.093-0.344,0.138-0.52,0.138c-0.368,0-0.724-0.192-0.919-0.535
				c-1.883-3.317-3.373-6.751-4.465-10.272c-2.287,0.667-4.525,1.516-6.698,2.548c-0.146,0.07-0.301,0.103-0.452,0.103
				c-0.395,0-0.773-0.223-0.954-0.603c-0.25-0.527-0.026-1.156,0.5-1.406c2.278-1.083,4.624-1.973,7.023-2.671
				c-0.591-2.237-1.026-4.505-1.296-6.799c-0.194-1.651-0.305-3.315-0.332-4.988H8.736c-0.583,0-1.056-0.473-1.056-1.056
				s0.473-1.056,1.056-1.056H19.93c0.075-3.015,0.418-6.052,1.026-9.086c0.18-0.898,0.377-1.764,0.586-2.597
				c-4.3-1.207-6.903-2.543-7.05-2.62c-0.517-0.269-0.719-0.906-0.45-1.423c0.269-0.517,0.906-0.719,1.423-0.45
				c0.034,0.018,2.529,1.294,6.631,2.452c1.912-6.562,4.394-10.609,4.521-10.813c0.307-0.495,0.958-0.648,1.454-0.34
				c0.495,0.307,0.647,0.958,0.34,1.453c-0.029,0.048-2.423,3.962-4.267,10.231c1.034,0.245,2.14,0.473,3.314,0.669
				c2.143,0.356,4.286,0.569,6.416,0.639V23.804c0-0.583,0.473-1.056,1.056-1.056s1.056,0.473,1.056,1.056v13.274
				c1.343-0.016,2.679-0.089,4.003-0.221c1.998-0.199,3.971-0.533,5.913-0.995c-1.835-6.036-4.171-9.773-4.199-9.819
				c-0.312-0.493-0.165-1.145,0.328-1.456c0.493-0.311,1.145-0.165,1.456,0.328c0.126,0.198,2.557,4.088,4.461,10.408
				c2.317-0.67,4.584-1.528,6.784-2.573c0.526-0.25,1.156-0.026,1.406,0.5c0.25,0.527,0.026,1.156-0.5,1.406
				c-2.309,1.097-4.688,1.997-7.121,2.7c0.227,0.874,0.44,1.786,0.634,2.733c0.605,2.956,0.946,5.916,1.025,8.854h10.948
				c0.583,0,1.056,0.473,1.056,1.056S61.706,51.053,61.123,51.053z"/>
			<path fill="#FFF200" d="M35.985,60.99c2.372,0.06,4.76,0.289,7.147,0.69c1.176,0.198,2.286,0.425,3.323,0.669
				c0.599-2.176,1.036-4.384,1.303-6.616c0.185-1.548,0.291-3.11,0.318-4.68H35.985V60.99z"/>
		</g>
		<g>
			<polygon fill="#FFF200" points="83.625,27.783 81.966,31.867 85.284,31.867 			"/>
			<path fill="#FFF200" d="M73.582,42.143l-1.887,4.718c-0.184,0.46-0.065,0.986,0.298,1.323c0.226,0.21,0.518,0.319,0.814,0.319
				c0.179,0,0.36-0.04,0.528-0.123l5.958-2.93c1.354,0.41,2.761,0.617,4.189,0.617c7.968,0,14.451-6.483,14.451-14.451
				c0-7.968-6.483-14.451-14.451-14.451c-7.968,0-14.451,6.483-14.451,14.451C69.03,35.625,70.679,39.414,73.582,42.143z
				 M77.426,36.683l1.657-4.08c0.001-0.003,0.002-0.006,0.003-0.008l3.43-8.443c0.183-0.451,0.622-0.746,1.109-0.746
				c0.487,0,0.926,0.295,1.109,0.746l5.091,12.531c0.249,0.612-0.046,1.311-0.658,1.559c-0.148,0.06-0.3,0.088-0.45,0.088
				c-0.473,0-0.92-0.282-1.109-0.747l-1.35-3.323h-5.263l-1.35,3.323c-0.249,0.612-0.946,0.907-1.559,0.658
				C77.472,37.994,77.177,37.295,77.426,36.683z"/>
		</g>
		<path fill="#FFF200" d="M74.789,82.008c1.834-0.92,4.553-2.214,4.532-2.229c15.919,4.48,26.303-16.712,11.645-26.209
			c-14.535-8.346-29.852,10.172-17.356,22.903C72.806,78.505,69.392,85.146,74.789,82.008z M89.068,61.239h-2.2
			c0.132,3.031,0.288,10.767-3.561,6.091c1.787-0.815,1.374-4.451,1.399-6.091H80.65c-0.504,8.269,1.073,6.493,5.771,9.289
			c3.346,2.179,1.815,8.722-1.702,4.139c6.707-3.99-8.416-1.594-6.422-13.428c-5.083-2.21,0.009-2.149,5.006-1.983
			C87.52,59.499,88.908,58.24,89.068,61.239z"/>
	</g>
</g>
</svg>
