<svg width="104" height="92" viewBox="0 0 104 92" fill="none" xmlns="http://www.w3.org/2000/svg">
<path d="M94.8594 24.6839H88.477C83.0487 11.7948 71.0958 2.42811 57.3351 0.639188C43.6985 -1.17878 30.3 4.06997 21.5343 14.6357C18.9575 17.7421 16.9134 21.1192 15.4168 24.6839H9.14062C4.10028 24.6839 0 28.7842 0 33.8245V46.012C0 51.0524 4.10028 55.1526 9.14062 55.1526H21.6533L20.3442 51.1566C16.5325 39.5165 18.678 27.6235 26.2267 18.5276C33.6446 9.58623 44.9721 5.16177 56.5437 6.67931C68.7814 8.27344 79.4038 16.928 83.6125 28.7334L83.6381 28.8018C84.3166 30.605 84.7927 32.4587 85.0663 34.366C85.9798 40.0641 85.4592 45.8394 83.5638 51.0674L83.5504 51.1037C78.8458 64.461 66.1923 73.4339 52.0595 73.4339C46.9863 73.4339 42.8594 77.5342 42.8594 82.5745C42.8594 87.6149 46.9597 91.7151 52 91.7151C57.0403 91.7151 61.1406 87.6149 61.1406 82.5745V78.4653C73.3066 75.5736 83.5254 66.9495 88.4372 55.1524H94.8594C99.8997 55.1524 104 51.0522 104 46.0118V33.8243C104 28.784 99.8997 24.6839 94.8594 24.6839Z" fill="white"/>
<path d="M24.5781 61.2464V67.3401H52C67.1212 67.3401 79.4219 55.0395 79.4219 39.9182C79.4219 24.797 67.1212 12.4963 52 12.4963C36.8788 12.4963 24.5781 24.797 24.5781 39.9182C24.5781 46.0835 26.649 52.0403 30.4338 56.8576C29.6989 59.4253 27.3542 61.2464 24.5781 61.2464ZM61.1406 36.8714H67.2344V42.9651H61.1406V36.8714ZM48.9531 36.8714H55.0469V42.9651H48.9531V36.8714ZM36.7656 36.8714H42.8594V42.9651H36.7656V36.8714Z" fill="white"/>
</svg>
