<svg id="Layer_1" data-name="Layer 1" xmlns="http://www.w3.org/2000/svg" x="0px" y="0px" width="25px" height="25px" viewBox="0 0 536 554.03" style="transform: scale(0.9);"><defs><mask id="lotterymask" x="0" y="0"><g id="Layer3_0_FILL" data-name="Layer3 0 FILL"><path d="M688.6,623.9H674V605.65q-.6-12.1-15.4-11.75H627.15l-59.5-74q-5.35,4.4-10.8,8.45-52.15,38.05-120.1,38-68.55,0-121-38.75-5.5-4.1-10.75-8.55l-60.15,74.8H213.4q-14.81-.35-15.4,11.75V623.9H183.4q-14.81-.35-15.4,11.75v44.5a14.7,14.7,0,0,0,1.1,5.05q2.4,5.55,10.05,6.55c.7.07,1.42.12,2.15.15s1.37,0,2.1,0H688.6q1.1,0,2.1,0c.73,0,1.45-.08,2.15-.15q7.65-1,10-6.55a14.7,14.7,0,0,0,1.1-5.05v-44.5q-.6-12.1-15.4-11.75M663,615.65v8.25H209v-8.25q.6-12.1,15.4-11.75H647.6Q662.41,603.55,663,615.65Z" transform="translate(-168 -137.9)" fill="white"></path></g><g id="Layer2_0_FILL" data-name="Layer2 0 FILL"><path d="M583,198.45Q522.4,137.9,436.75,137.9t-146.2,60.55Q230,259,230,344.65t60.55,146.2q60.56,60.55,146.2,60.55T583,490.85q60.56-60.56,60.55-146.2T583,198.45M435.85,154.8q79.84,0,136.35,55.6t56.5,134.3q0,78.65-56.5,134.3T435.85,534.6q-80,0-136.4-55.6T243,344.7q0-78.7,56.5-134.3T435.85,154.8Z" transform="translate(-168 -137.9)" fill="white"></path></g><g id="Layer1_0_FILL" data-name="Layer1 0 FILL"><path d="M606,402.85a20.62,20.62,0,0,0-6.5-15.3,22.21,22.21,0,0,0-31.1,0,21.43,21.43,0,0,0,0,30.65,22.21,22.21,0,0,0,31.1,0,20.68,20.68,0,0,0,6.5-15.35m-107.6,54.7a21.43,21.43,0,0,0,0,30.65,22.21,22.21,0,0,0,31.1,0,21.32,21.32,0,0,0,0-30.65,22.21,22.21,0,0,0-31.1,0m-113.9-16a22.21,22.21,0,0,0-31.1,0,21.43,21.43,0,0,0,0,30.65,22.21,22.21,0,0,0,31.1,0,21.32,21.32,0,0,0,0-30.65m-62-66a22.21,22.21,0,0,0-31.1,0,21.43,21.43,0,0,0,0,30.65,22.21,22.21,0,0,0,31.1,0,21.32,21.32,0,0,0,0-30.65m43-155a22.21,22.21,0,0,0-31.1,0,21.43,21.43,0,0,0,0,30.65,22.21,22.21,0,0,0,31.1,0,21.32,21.32,0,0,0,0-30.65m172.9,37a21.43,21.43,0,0,0,0,30.65,22.21,22.21,0,0,0,31.1,0,21.32,21.32,0,0,0,0-30.65,22.21,22.21,0,0,0-31.1,0M526,212.85a20.62,20.62,0,0,0-6.5-15.3,22.21,22.21,0,0,0-31.1,0,21.43,21.43,0,0,0,0,30.65,22.21,22.21,0,0,0,31.1,0A20.68,20.68,0,0,0,526,212.85Z" transform="translate(-168 -137.9)" fill="white"></path></g><g id="Layer0_0_FILL" data-name="Layer0 0 FILL"><path d="M444.3,202.9a13.65,13.65,0,0,0-6.3-1.45,14.19,14.19,0,0,0-11.5,6.05,12.33,12.33,0,0,0-2.1,5.45c0,.23-.07.48-.1.75v81.65a48.65,48.65,0,0,0-20.95,12.45,47.93,47.93,0,0,0-13,21.7H307.75a13,13,0,0,0-7.55,4,14.94,14.94,0,0,0-2.5,3.4,13.65,13.65,0,0,0-1.45,6.3,14.19,14.19,0,0,0,6.05,11.5,12.33,12.33,0,0,0,5.45,2.1l.75.1h82.15a47.71,47.71,0,0,0,12.7,20.75,49.16,49.16,0,0,0,20.95,12.5v83.3a13,13,0,0,0,4,7.55,14.94,14.94,0,0,0,3.4,2.5A13.65,13.65,0,0,0,438,485a14.19,14.19,0,0,0,11.5-6.05,12.33,12.33,0,0,0,2.1-5.45c0-.23.07-.48.1-.75V390.6a48.77,48.77,0,0,0,22.6-13,47.54,47.54,0,0,0,12.75-20.75h81.2a13,13,0,0,0,7.55-4,14.94,14.94,0,0,0,2.5-3.4,13.65,13.65,0,0,0,1.45-6.3,14.19,14.19,0,0,0-6-11.5,12.33,12.33,0,0,0-5.45-2.1l-.75-.1H487.3a47.69,47.69,0,0,0-13-21.7,48.42,48.42,0,0,0-22.6-12.9V213a13,13,0,0,0-4-7.55,14.94,14.94,0,0,0-3.4-2.5m-2.95,4.15a12,12,0,0,1,2.85,2.3,12.36,12.36,0,0,1,3.35,6.2,4.4,4.4,0,0,0,.05.65v77.85a49.79,49.79,0,0,0-6.75-.65V216.2c0-.2-.07-.42-.1-.65a12.51,12.51,0,0,0-3.3-6.2,11.65,11.65,0,0,0-2.9-2.3,18.54,18.54,0,0,0-1.95-.8,11.46,11.46,0,0,1,3.4-.5,11.2,11.2,0,0,1,5.35,1.3m5.15,93.3q1.85.3,3.6.75a42.57,42.57,0,0,1,19.7,11.2,41.63,41.63,0,0,1,11.3,18.9c.33,1.17.62,2.37.85,3.6a55.15,55.15,0,0,1,.6,5.85c0,.7.05,1.4.05,2.1a43.82,43.82,0,0,1-1.7,12.35,41.73,41.73,0,0,1-11.1,18,42.77,42.77,0,0,1-19.7,11.3q-1.75.45-3.6.75-2.85.41-5.85.55H438.9a46.49,46.49,0,0,1-12.7-1.7A42.59,42.59,0,0,1,408,373.15a41.33,41.33,0,0,1-11.05-18,43.82,43.82,0,0,1-1.7-12.35c0-.7,0-1.4.05-2.1a37.4,37.4,0,0,1,.65-5.85,32.42,32.42,0,0,1,.8-3.6A41.79,41.79,0,0,1,408,312.3a42.27,42.27,0,0,1,18.25-10.8,45,45,0,0,1,12.7-1.75c.57,0,1.15,0,1.75.05a37.41,37.41,0,0,1,5.85.55m-57,33.25a49.78,49.78,0,0,0-.75,6.75H310.9l-.65.1a12.51,12.51,0,0,0-6.2,3.3,11.65,11.65,0,0,0-2.3,2.9,18.54,18.54,0,0,0-.8,2,11.46,11.46,0,0,1-.5-3.4,11.2,11.2,0,0,1,1.3-5.35,12,12,0,0,1,2.3-2.85,12.36,12.36,0,0,1,6.2-3.35,4.4,4.4,0,0,0,.65,0h78.6m51.35,58.5a64.3,64.3,0,0,0,6.75-.65V470a4.4,4.4,0,0,0-.05.65,12.36,12.36,0,0,1-3.35,6.2,12,12,0,0,1-2.85,2.3,11.2,11.2,0,0,1-5.35,1.3,11.46,11.46,0,0,1-3.4-.5,18.54,18.54,0,0,0,1.95-.8,11.65,11.65,0,0,0,2.9-2.3,12.51,12.51,0,0,0,3.3-6.2c0-.23.07-.45.1-.65V392.1M571.55,337a12,12,0,0,1,2.3,2.85,11.2,11.2,0,0,1,1.3,5.35,11.46,11.46,0,0,1-.5,3.4,18.54,18.54,0,0,0-.8-2,11.65,11.65,0,0,0-2.3-2.9,12.51,12.51,0,0,0-6.2-3.3l-.65-.1H489a55.09,55.09,0,0,0-.7-6.75H564.7a4.4,4.4,0,0,0,.65,0,12.36,12.36,0,0,1,6.2,3.35M451.7,319.9a27.35,27.35,0,0,0-27.4,1,29.26,29.26,0,0,0-4.15,3.4,27.53,27.53,0,0,0-4.2,5.2,26.21,26.21,0,0,0,.65,27.4,29.5,29.5,0,0,0,3.55,4.2,26.38,26.38,0,0,0,4.15,3.35,27,27,0,0,0,27.4,1,26.58,26.58,0,0,0,5.8-4.35,27.27,27.27,0,0,0,3.5-4.2,25.92,25.92,0,0,0,.65-27.4,26.11,26.11,0,0,0-4.15-5.2A27.84,27.84,0,0,0,451.7,319.9Z" transform="translate(-168 -137.9)" fill="white"></path></g><g><path id="Layer0_0_1_STROKES" data-name="Layer0 0 1 STROKES" class="cls-1" d="M465.25,342.7A24.75,24.75,0,0,1,461,356.9a28,28,0,0,1-3.52,4.2,27.39,27.39,0,0,1-5.8,4.38,27.22,27.22,0,0,1-27.4-1,28.81,28.81,0,0,1-7.68-7.58,26.06,26.06,0,0,1-.64-27.4,26.59,26.59,0,0,1,4.17-5.2,27.72,27.72,0,0,1,4.15-3.37,27.16,27.16,0,0,1,27.4-1,27,27,0,0,1,5.8,4.37,26.59,26.59,0,0,1,4.17,5.2A24.8,24.8,0,0,1,465.25,342.7Z" transform="translate(-168 -137.9)" fill="white"></path></g></mask><linearGradient id="categorySelected" gradientUnits="userSpaceOnUse" x1="0%" y1="100%" x2="0%" y2="0%"><stop offset="0%" stop-color="#f9bc3c" stop-opacity="1"></stop><stop offset="19%" stop-color="#fde635" stop-opacity="1"></stop><stop offset="100" stop-color="#f9bc3c" stop-opacity="1"></stop></linearGradient><linearGradient id="categoryNotSelected" gradientUnits="userSpaceOnUse" x1="0%" y1="100%" x2="0%" y2="0%"><stop offset="0%" stop-color="#f9bc3c" stop-opacity="0.5"></stop><stop offset="19%" stop-color="#fde635" stop-opacity="0.5"></stop><stop offset="100" stop-color="#f9bc3c" stop-opacity="0.5"></stop></linearGradient></defs><rect x="0" y="0" width="850" height="850" mask="url('#lotterymask')" fill="url('#categoryNotSelected')"></rect></svg>
