<?xml version="1.0" encoding="utf-8"?>
<!-- Generator: Adobe Illustrator 23.1.0, SVG Export Plug-In . SVG Version: 6.00 Build 0)  -->
<!DOCTYPE svg PUBLIC "-//W3C//DTD SVG 1.1//EN" "http://www.w3.org/Graphics/SVG/1.1/DTD/svg11.dtd" [
	<!ENTITY ns_extend "http://ns.adobe.com/Extensibility/1.0/">
	<!ENTITY ns_ai "http://ns.adobe.com/AdobeIllustrator/10.0/">
	<!ENTITY ns_graphs "http://ns.adobe.com/Graphs/1.0/">
	<!ENTITY ns_vars "http://ns.adobe.com/Variables/1.0/">
	<!ENTITY ns_imrep "http://ns.adobe.com/ImageReplacement/1.0/">
	<!ENTITY ns_sfw "http://ns.adobe.com/SaveForWeb/1.0/">
	<!ENTITY ns_custom "http://ns.adobe.com/GenericCustomNamespace/1.0/">
	<!ENTITY ns_adobe_xpath "http://ns.adobe.com/XPath/1.0/">
]>
<svg version="1.1" xmlns:x="&ns_extend;" xmlns:i="&ns_ai;" xmlns:graph="&ns_graphs;"
	 xmlns="http://www.w3.org/2000/svg" xmlns:xlink="http://www.w3.org/1999/xlink" x="0px" y="0px" viewBox="0 0 144 144"
	 enable-background="new 0 0 144 144" xml:space="preserve">
<metadata>
	<sfw  xmlns="&ns_sfw;">
		<slices></slices>
		<sliceSourceBounds  bottomLeftOrigin="true" height="8730.6" width="9423.617" x="-6910.837" y="-517.757"></sliceSourceBounds>
	</sfw>
</metadata>
<g id="BG">
</g>
<g id="Object">
	<g>
		<g>
			<g>
				<g>
					<defs>
						<path id="SVGID_59_" d="M131.563,72c-0.414,38.868-38.054,67.991-75.829,57.316C18.5,118.793,1.024,74.279,21.016,41.185
							C31.803,23.33,51.251,12.658,72,12.437c6.431-0.069,6.447-10.069,0-10C50.414,2.667,30.037,12.52,16.839,29.68
							C3.578,46.923-0.882,69.964,5.042,90.924c12.247,43.336,64.191,64.032,102.82,40.695
							c20.863-12.604,33.443-35.348,33.702-59.619C141.632,65.563,131.632,65.559,131.563,72L131.563,72z"/>
					</defs>
					<linearGradient id="SVGID_1_" gradientUnits="userSpaceOnUse" x1="31.2268" y1="122.1771" x2="123.9077" y2="8.0494">
						<stop  offset="0" style="stop-color:#FAC63A"/>
						<stop  offset="1" style="stop-color:#FCE335"/>
					</linearGradient>
					<use xlink:href="#SVGID_59_"  overflow="visible" fill="url(#SVGID_1_)"/>
					<clipPath id="SVGID_2_">
						<use xlink:href="#SVGID_59_"  overflow="visible"/>
					</clipPath>
					<linearGradient id="SVGID_3_" gradientUnits="userSpaceOnUse" x1="-7.0608" y1="91.0845" x2="85.6201" y2="-23.0432">
						<stop  offset="0" style="stop-color:#FAC63A"/>
						<stop  offset="1" style="stop-color:#FCE335"/>
					</linearGradient>
					<rect x="-0.882" y="2.368" clip-path="url(#SVGID_2_)" fill="url(#SVGID_3_)" width="7.818" height="152.588"/>
					<linearGradient id="SVGID_4_" gradientUnits="userSpaceOnUse" x1="-3.3532" y1="94.0954" x2="89.3277" y2="-20.0323">
						<stop  offset="0" style="stop-color:#FAC63A"/>
						<stop  offset="1" style="stop-color:#FCE335"/>
					</linearGradient>
					<rect x="6.937" y="2.368" clip-path="url(#SVGID_2_)" fill="url(#SVGID_4_)" width="4.487" height="152.588"/>
					<linearGradient id="SVGID_5_" gradientUnits="userSpaceOnUse" x1="-0.6492" y1="96.2912" x2="92.0316" y2="-17.8365">
						<stop  offset="0" style="stop-color:#FAC63A"/>
						<stop  offset="1" style="stop-color:#FCE335"/>
					</linearGradient>
					<rect x="11.424" y="2.368" clip-path="url(#SVGID_2_)" fill="url(#SVGID_5_)" width="4.487" height="152.588"/>
					<linearGradient id="SVGID_6_" gradientUnits="userSpaceOnUse" x1="2.0547" y1="98.487" x2="94.7356" y2="-15.6407">
						<stop  offset="0" style="stop-color:#FAC63A"/>
						<stop  offset="1" style="stop-color:#FCE335"/>
					</linearGradient>
					<rect x="15.911" y="2.368" clip-path="url(#SVGID_2_)" fill="url(#SVGID_6_)" width="4.487" height="152.588"/>
					<linearGradient id="SVGID_7_" gradientUnits="userSpaceOnUse" x1="4.7587" y1="100.6828" x2="97.4395" y2="-13.4448">
						<stop  offset="0" style="stop-color:#FAC63A"/>
						<stop  offset="1" style="stop-color:#FCE335"/>
					</linearGradient>
					<rect x="20.398" y="2.368" clip-path="url(#SVGID_2_)" fill="url(#SVGID_7_)" width="4.487" height="152.588"/>
					<linearGradient id="SVGID_8_" gradientUnits="userSpaceOnUse" x1="7.4626" y1="102.8786" x2="100.1435" y2="-11.249">
						<stop  offset="0" style="stop-color:#FAC63A"/>
						<stop  offset="1" style="stop-color:#FCE335"/>
					</linearGradient>
					<rect x="24.885" y="2.368" clip-path="url(#SVGID_2_)" fill="url(#SVGID_8_)" width="4.487" height="152.588"/>
					<linearGradient id="SVGID_9_" gradientUnits="userSpaceOnUse" x1="10.1666" y1="105.0745" x2="102.8474" y2="-9.0532">
						<stop  offset="0" style="stop-color:#FAC63A"/>
						<stop  offset="1" style="stop-color:#FCE335"/>
					</linearGradient>
					<rect x="29.372" y="2.368" clip-path="url(#SVGID_2_)" fill="url(#SVGID_9_)" width="4.487" height="152.588"/>
					<linearGradient id="SVGID_10_" gradientUnits="userSpaceOnUse" x1="12.8705" y1="107.2703" x2="105.5514" y2="-6.8574">
						<stop  offset="0" style="stop-color:#FAC63A"/>
						<stop  offset="1" style="stop-color:#FCE335"/>
					</linearGradient>
					<rect x="33.859" y="2.368" clip-path="url(#SVGID_2_)" fill="url(#SVGID_10_)" width="4.487" height="152.588"/>
					<linearGradient id="SVGID_11_" gradientUnits="userSpaceOnUse" x1="15.5745" y1="109.4661" x2="108.2553" y2="-4.6616">
						<stop  offset="0" style="stop-color:#FAC63A"/>
						<stop  offset="1" style="stop-color:#FCE335"/>
					</linearGradient>
					<rect x="38.347" y="2.368" clip-path="url(#SVGID_2_)" fill="url(#SVGID_11_)" width="4.487" height="152.588"/>
					<linearGradient id="SVGID_12_" gradientUnits="userSpaceOnUse" x1="18.2784" y1="111.6619" x2="110.9593" y2="-2.4657">
						<stop  offset="0" style="stop-color:#FAC63A"/>
						<stop  offset="1" style="stop-color:#FCE335"/>
					</linearGradient>
					<rect x="42.834" y="2.368" clip-path="url(#SVGID_2_)" fill="url(#SVGID_12_)" width="4.487" height="152.588"/>
					<linearGradient id="SVGID_13_" gradientUnits="userSpaceOnUse" x1="20.9824" y1="113.8577" x2="113.6632" y2="-0.2699">
						<stop  offset="0" style="stop-color:#FAC63A"/>
						<stop  offset="1" style="stop-color:#FCE335"/>
					</linearGradient>
					<rect x="47.321" y="2.368" clip-path="url(#SVGID_2_)" fill="url(#SVGID_13_)" width="4.487" height="152.588"/>
					<linearGradient id="SVGID_14_" gradientUnits="userSpaceOnUse" x1="23.6863" y1="116.0536" x2="116.3671" y2="1.9259">
						<stop  offset="0" style="stop-color:#FAC63A"/>
						<stop  offset="1" style="stop-color:#FCE335"/>
					</linearGradient>
					<rect x="51.808" y="2.368" clip-path="url(#SVGID_2_)" fill="url(#SVGID_14_)" width="4.487" height="152.588"/>
					<linearGradient id="SVGID_15_" gradientUnits="userSpaceOnUse" x1="26.3902" y1="118.2494" x2="119.0711" y2="4.1217">
						<stop  offset="0" style="stop-color:#FAC63A"/>
						<stop  offset="1" style="stop-color:#FCE335"/>
					</linearGradient>
					<rect x="56.295" y="2.368" clip-path="url(#SVGID_2_)" fill="url(#SVGID_15_)" width="4.487" height="152.588"/>
					<linearGradient id="SVGID_16_" gradientUnits="userSpaceOnUse" x1="29.0942" y1="120.4452" x2="121.775" y2="6.3175">
						<stop  offset="0" style="stop-color:#FAC63A"/>
						<stop  offset="1" style="stop-color:#FCE335"/>
					</linearGradient>
					<rect x="60.782" y="2.368" clip-path="url(#SVGID_2_)" fill="url(#SVGID_16_)" width="4.487" height="152.588"/>
					<linearGradient id="SVGID_17_" gradientUnits="userSpaceOnUse" x1="31.7981" y1="122.641" x2="124.479" y2="8.5134">
						<stop  offset="0" style="stop-color:#FAC63A"/>
						<stop  offset="1" style="stop-color:#FCE335"/>
					</linearGradient>
					<rect x="65.269" y="2.368" clip-path="url(#SVGID_2_)" fill="url(#SVGID_17_)" width="4.487" height="152.588"/>
					<linearGradient id="SVGID_18_" gradientUnits="userSpaceOnUse" x1="34.5021" y1="124.8369" x2="127.1829" y2="10.7092">
						<stop  offset="0" style="stop-color:#FAC63A"/>
						<stop  offset="1" style="stop-color:#FCE335"/>
					</linearGradient>
					<rect x="69.756" y="2.368" clip-path="url(#SVGID_2_)" fill="url(#SVGID_18_)" width="4.487" height="152.588"/>
					<linearGradient id="SVGID_19_" gradientUnits="userSpaceOnUse" x1="37.206" y1="127.0327" x2="129.8869" y2="12.905">
						<stop  offset="0" style="stop-color:#FAC63A"/>
						<stop  offset="1" style="stop-color:#FCE335"/>
					</linearGradient>
					<rect x="74.244" y="2.368" clip-path="url(#SVGID_2_)" fill="url(#SVGID_19_)" width="4.487" height="152.588"/>
					<linearGradient id="SVGID_20_" gradientUnits="userSpaceOnUse" x1="39.91" y1="129.2285" x2="132.5908" y2="15.1008">
						<stop  offset="0" style="stop-color:#FAC63A"/>
						<stop  offset="1" style="stop-color:#FCE335"/>
					</linearGradient>
					<rect x="78.731" y="2.368" clip-path="url(#SVGID_2_)" fill="url(#SVGID_20_)" width="4.487" height="152.588"/>
					<linearGradient id="SVGID_21_" gradientUnits="userSpaceOnUse" x1="42.6139" y1="131.4243" x2="135.2948" y2="17.2967">
						<stop  offset="0" style="stop-color:#FAC63A"/>
						<stop  offset="1" style="stop-color:#FCE335"/>
					</linearGradient>
					<rect x="83.218" y="2.368" clip-path="url(#SVGID_2_)" fill="url(#SVGID_21_)" width="4.487" height="152.588"/>
					<linearGradient id="SVGID_22_" gradientUnits="userSpaceOnUse" x1="45.3179" y1="133.6201" x2="137.9987" y2="19.4925">
						<stop  offset="0" style="stop-color:#FAC63A"/>
						<stop  offset="1" style="stop-color:#FCE335"/>
					</linearGradient>
					<rect x="87.705" y="2.368" clip-path="url(#SVGID_2_)" fill="url(#SVGID_22_)" width="4.487" height="152.588"/>
					<linearGradient id="SVGID_23_" gradientUnits="userSpaceOnUse" x1="48.0218" y1="135.816" x2="140.7027" y2="21.6883">
						<stop  offset="0" style="stop-color:#FAC63A"/>
						<stop  offset="1" style="stop-color:#FCE335"/>
					</linearGradient>
					<rect x="92.192" y="2.368" clip-path="url(#SVGID_2_)" fill="url(#SVGID_23_)" width="4.487" height="152.588"/>
					<linearGradient id="SVGID_24_" gradientUnits="userSpaceOnUse" x1="50.7257" y1="138.0118" x2="143.4066" y2="23.8841">
						<stop  offset="0" style="stop-color:#FAC63A"/>
						<stop  offset="1" style="stop-color:#FCE335"/>
					</linearGradient>
					<rect x="96.679" y="2.368" clip-path="url(#SVGID_2_)" fill="url(#SVGID_24_)" width="4.487" height="152.588"/>
					<linearGradient id="SVGID_25_" gradientUnits="userSpaceOnUse" x1="53.4297" y1="140.2076" x2="146.1105" y2="26.0799">
						<stop  offset="0" style="stop-color:#FAC63A"/>
						<stop  offset="1" style="stop-color:#FCE335"/>
					</linearGradient>
					<rect x="101.166" y="2.368" clip-path="url(#SVGID_2_)" fill="url(#SVGID_25_)" width="4.487" height="152.588"/>
					<linearGradient id="SVGID_26_" gradientUnits="userSpaceOnUse" x1="56.1336" y1="142.4034" x2="148.8145" y2="28.2758">
						<stop  offset="0" style="stop-color:#FAC63A"/>
						<stop  offset="1" style="stop-color:#FCE335"/>
					</linearGradient>
					<rect x="105.653" y="2.368" clip-path="url(#SVGID_2_)" fill="url(#SVGID_26_)" width="4.487" height="152.588"/>
					<linearGradient id="SVGID_27_" gradientUnits="userSpaceOnUse" x1="58.8376" y1="144.5992" x2="151.5184" y2="30.4716">
						<stop  offset="0" style="stop-color:#FAC63A"/>
						<stop  offset="1" style="stop-color:#FCE335"/>
					</linearGradient>
					<rect x="110.141" y="2.368" clip-path="url(#SVGID_2_)" fill="url(#SVGID_27_)" width="4.487" height="152.588"/>
					<linearGradient id="SVGID_28_" gradientUnits="userSpaceOnUse" x1="61.5415" y1="146.7951" x2="154.2224" y2="32.6674">
						<stop  offset="0" style="stop-color:#FAC63A"/>
						<stop  offset="1" style="stop-color:#FCE335"/>
					</linearGradient>
					<rect x="114.628" y="2.368" clip-path="url(#SVGID_2_)" fill="url(#SVGID_28_)" width="4.487" height="152.588"/>
					<linearGradient id="SVGID_29_" gradientUnits="userSpaceOnUse" x1="64.2455" y1="148.9909" x2="156.9263" y2="34.8632">
						<stop  offset="0" style="stop-color:#FAC63A"/>
						<stop  offset="1" style="stop-color:#FCE335"/>
					</linearGradient>
					<rect x="119.115" y="2.368" clip-path="url(#SVGID_2_)" fill="url(#SVGID_29_)" width="4.487" height="152.588"/>
					<linearGradient id="SVGID_30_" gradientUnits="userSpaceOnUse" x1="66.9494" y1="151.1867" x2="159.6303" y2="37.059">
						<stop  offset="0" style="stop-color:#FAC63A"/>
						<stop  offset="1" style="stop-color:#FCE335"/>
					</linearGradient>
					<rect x="123.602" y="2.368" clip-path="url(#SVGID_2_)" fill="url(#SVGID_30_)" width="4.487" height="152.588"/>
					<linearGradient id="SVGID_31_" gradientUnits="userSpaceOnUse" x1="69.6534" y1="153.3825" x2="162.3342" y2="39.2549">
						<stop  offset="0" style="stop-color:#FAC63A"/>
						<stop  offset="1" style="stop-color:#FCE335"/>
					</linearGradient>
					<rect x="128.089" y="2.368" clip-path="url(#SVGID_2_)" fill="url(#SVGID_31_)" width="4.487" height="152.588"/>
					<linearGradient id="SVGID_32_" gradientUnits="userSpaceOnUse" x1="72.3573" y1="155.5784" x2="165.0382" y2="41.4507">
						<stop  offset="0" style="stop-color:#FAC63A"/>
						<stop  offset="1" style="stop-color:#FCE335"/>
					</linearGradient>
					<rect x="132.576" y="2.368" clip-path="url(#SVGID_2_)" fill="url(#SVGID_32_)" width="4.487" height="152.588"/>
					<linearGradient id="SVGID_33_" gradientUnits="userSpaceOnUse" x1="75.0858" y1="157.7941" x2="167.7667" y2="43.6664">
						<stop  offset="0" style="stop-color:#FAC63A"/>
						<stop  offset="1" style="stop-color:#FCE335"/>
					</linearGradient>
					<rect x="137.063" y="2.368" clip-path="url(#SVGID_2_)" fill="url(#SVGID_33_)" width="4.569" height="152.588"/>
				</g>
			</g>
		</g>
		<g>
			<g>
				<path fill="#B74157" d="M134.293,2.712l5.656,5.657l-30.775,30.774c-1.562,1.562-4.095,1.562-5.657,0l0,0
					c-1.562-1.562-1.562-4.095,0-5.657L134.293,2.712z"/>
			</g>
			<g>
				<g>
					<g>
						<defs>
							<path id="SVGID_93_" d="M137.401,35.175L137.401,35.175c-1.57-0.056-2.797-1.375-2.739-2.944l0.921-25.144l-25.148,0.918
								c-1.57,0.057-2.888-1.17-2.944-2.739v0c-0.056-1.568,1.169-2.884,2.737-2.941l28.543-1.036
								c1.463-0.053,2.664,1.147,2.61,2.611l-1.04,28.539C140.285,34.005,138.968,35.23,137.401,35.175z"/>
						</defs>
						<use xlink:href="#SVGID_93_"  overflow="visible" fill="#B74157"/>
						<clipPath id="SVGID_34_">
							<use xlink:href="#SVGID_93_"  overflow="visible"/>
						</clipPath>
						<rect x="141.297" y="1.189" clip-path="url(#SVGID_34_)" fill="#B74157" width="0.183" height="34.086"/>
						<rect x="139.793" y="1.189" clip-path="url(#SVGID_34_)" fill="#B74157" width="1.504" height="34.086"/>
						<rect x="138.289" y="1.189" clip-path="url(#SVGID_34_)" fill="#B74157" width="1.504" height="34.086"/>
						<rect x="136.785" y="1.189" clip-path="url(#SVGID_34_)" fill="#B74157" width="1.504" height="34.086"/>
						<rect x="135.281" y="1.189" clip-path="url(#SVGID_34_)" fill="#B74157" width="1.504" height="34.086"/>
						<rect x="133.777" y="1.189" clip-path="url(#SVGID_34_)" fill="#B74157" width="1.504" height="34.086"/>
						<rect x="132.273" y="1.189" clip-path="url(#SVGID_34_)" fill="#B74157" width="1.504" height="34.086"/>
						<rect x="130.769" y="1.189" clip-path="url(#SVGID_34_)" fill="#B74157" width="1.504" height="34.086"/>
						<rect x="129.265" y="1.189" clip-path="url(#SVGID_34_)" fill="#B74157" width="1.504" height="34.086"/>
						<rect x="127.761" y="1.189" clip-path="url(#SVGID_34_)" fill="#B74157" width="1.504" height="34.086"/>
						<rect x="126.257" y="1.189" clip-path="url(#SVGID_34_)" fill="#B74157" width="1.504" height="34.086"/>
						<rect x="124.753" y="1.189" clip-path="url(#SVGID_34_)" fill="#B74157" width="1.504" height="34.086"/>
						<rect x="123.249" y="1.189" clip-path="url(#SVGID_34_)" fill="#B74157" width="1.504" height="34.086"/>
						<rect x="121.745" y="1.189" clip-path="url(#SVGID_34_)" fill="#B74157" width="1.504" height="34.086"/>
						<rect x="120.241" y="1.189" clip-path="url(#SVGID_34_)" fill="#B74157" width="1.504" height="34.086"/>
						<rect x="118.737" y="1.189" clip-path="url(#SVGID_34_)" fill="#B74157" width="1.504" height="34.086"/>
						<rect x="117.233" y="1.189" clip-path="url(#SVGID_34_)" fill="#B74157" width="1.504" height="34.086"/>
						<rect x="115.729" y="1.189" clip-path="url(#SVGID_34_)" fill="#B74157" width="1.504" height="34.086"/>
						<rect x="114.225" y="1.189" clip-path="url(#SVGID_34_)" fill="#B74157" width="1.504" height="34.086"/>
						<rect x="112.721" y="1.189" clip-path="url(#SVGID_34_)" fill="#B74157" width="1.504" height="34.086"/>
						<rect x="111.217" y="1.189" clip-path="url(#SVGID_34_)" fill="#B74157" width="1.504" height="34.086"/>
						<rect x="109.713" y="1.189" clip-path="url(#SVGID_34_)" fill="#B74157" width="1.504" height="34.086"/>
						<rect x="108.209" y="1.189" clip-path="url(#SVGID_34_)" fill="#B74157" width="1.504" height="34.086"/>
						<rect x="107.39" y="1.189" clip-path="url(#SVGID_34_)" fill="#B74157" width="0.819" height="34.086"/>
					</g>
				</g>
			</g>
		</g>
		<g>
			<linearGradient id="SVGID_35_" gradientUnits="userSpaceOnUse" x1="30.6484" y1="121.7074" x2="123.3293" y2="7.5797">
				<stop  offset="0" style="stop-color:#FAC63A"/>
				<stop  offset="1" style="stop-color:#FCE335"/>
			</linearGradient>
			<path fill="url(#SVGID_35_)" d="M69.03,103.688V98.22c-3.659-0.082-6.926-0.433-9.8-1.052c-2.875-0.619-5.494-1.45-7.859-2.496
				V83.78c2.337,1.128,5.129,2.152,8.375,3.074c3.245,0.922,6.34,1.479,9.284,1.671V75.734c-4.347-1.705-7.819-3.362-10.419-4.972
				c-2.599-1.609-4.47-3.397-5.611-5.364c-1.142-1.966-1.712-4.325-1.712-7.076c0-2.806,0.749-5.233,2.249-7.282
				c1.498-2.049,3.582-3.693,6.251-4.931c2.667-1.238,5.748-2.007,9.242-2.311v-3.486c0-1.561,1.265-2.826,2.826-2.826l0,0
				c1.561,0,2.826,1.265,2.826,2.826v3.321c3.19,0.11,6.168,0.475,8.933,1.094c2.765,0.619,5.48,1.52,8.148,2.702l-3.878,9.655
				c-2.256-0.935-4.519-1.664-6.787-2.187c-2.27-0.522-4.408-0.867-6.416-1.032v12.172c3.053,1.128,5.955,2.352,8.706,3.672
				c2.75,1.32,4.992,2.999,6.725,5.034c1.733,2.036,2.6,4.704,2.6,8.005c0,4.099-1.492,7.537-4.477,10.314
				c-2.985,2.779-7.503,4.442-13.554,4.992v5.633c0,1.561-1.265,2.826-2.826,2.826l0,0C70.295,106.514,69.03,105.249,69.03,103.688z
				 M69.03,63.727v-9.696c-1.129,0.165-2.091,0.434-2.889,0.805c-0.798,0.372-1.402,0.846-1.815,1.423
				c-0.412,0.578-0.619,1.266-0.619,2.063c0,0.798,0.186,1.5,0.558,2.104c0.371,0.605,0.948,1.169,1.732,1.691
				C66.781,62.641,67.792,63.177,69.03,63.727z M74.682,88.236c1.925-0.33,3.342-0.9,4.25-1.712
				c0.907-0.812,1.361-1.863,1.361-3.157c0-0.77-0.206-1.457-0.619-2.063c-0.412-0.604-1.038-1.176-1.877-1.712
				c-0.84-0.537-1.878-1.08-3.115-1.63V88.236z"/>
		</g>
	</g>
</g>
</svg>
