<?xml version="1.0" encoding="utf-8"?>
<!-- Generator: Adobe Illustrator 23.1.0, SVG Export Plug-In . SVG Version: 6.00 Build 0)  -->
<!DOCTYPE svg PUBLIC "-//W3C//DTD SVG 1.1//EN" "http://www.w3.org/Graphics/SVG/1.1/DTD/svg11.dtd" [
	<!ENTITY ns_extend "http://ns.adobe.com/Extensibility/1.0/">
	<!ENTITY ns_ai "http://ns.adobe.com/AdobeIllustrator/10.0/">
	<!ENTITY ns_graphs "http://ns.adobe.com/Graphs/1.0/">
	<!ENTITY ns_vars "http://ns.adobe.com/Variables/1.0/">
	<!ENTITY ns_imrep "http://ns.adobe.com/ImageReplacement/1.0/">
	<!ENTITY ns_sfw "http://ns.adobe.com/SaveForWeb/1.0/">
	<!ENTITY ns_custom "http://ns.adobe.com/GenericCustomNamespace/1.0/">
	<!ENTITY ns_adobe_xpath "http://ns.adobe.com/XPath/1.0/">
]>
<svg version="1.1" xmlns:x="&ns_extend;" xmlns:i="&ns_ai;" xmlns:graph="&ns_graphs;"
	 xmlns="http://www.w3.org/2000/svg" xmlns:xlink="http://www.w3.org/1999/xlink" x="0px" y="0px" viewBox="0 0 100 49"
	 enable-background="new 0 0 100 49" xml:space="preserve">
<metadata>
	<sfw  xmlns="&ns_sfw;">
		<slices></slices>
		<sliceSourceBounds  bottomLeftOrigin="true" height="3000" width="16383" x="-6791" y="-2452"></sliceSourceBounds>
		<optimizationSettings>
			<targetSettings  fileFormat="JPEGFormat" targetSettingsID="0">
				
					<JPEGFormat  blurAmount="0" embedICCProfile="false" matteColor="#FFFFFF" noMatteColor="false" optimized="true" progressive="true" quality="100">
					</JPEGFormat>
			</targetSettings>
		</optimizationSettings>
	</sfw>
</metadata>
<g id="Guides_For_Artboard">
</g>
<g id="Layer_2">
	<g>
		<path fill="#FFF200" d="M28.432,31.956c-4.817,0-7.226-2.784-7.226-6.319c0-2.659,0.813-4.942,2.471-6.913
			c1.658-1.752,3.41-2.878,5.255-2.878c3.472,0,6.506,5.224,6.506,12.606c0,4.567-1.283,7.945-3.253,10.854
			c-2.721,3.566-5.099,4.723-7.319,4.723c-3.003,0-6.162-1.345-9.322-3.503l0.657-1.72c1.126,0.438,2.315,0.719,3.629,0.719
			c2.596,0,5.224-1.063,7.726-2.909c2.033-1.501,3.535-3.222,4.504-5.067C31.091,31.831,29.746,31.956,28.432,31.956z M27.462,21.07
			c-2.127,0-3.472,1.22-3.472,2.252c0,1.439,2.409,2.94,5.756,2.94c1.001,0,1.845-0.063,2.596-0.188
			C31.56,23.26,29.371,21.07,27.462,21.07z"/>
		<path fill="#FFF200" d="M43.009,24.198c0,2.909,1.564,3.973,4.536,3.973c1.971,0,4.223-0.438,6.788-1.751
			c-0.938-3.566-3.91-6.475-8.258-8.884c-1.063-0.594-1.72-1.126-1.72-1.846c0-1.032,0.844-2.784,2.002-4.817h0.219
			c2.815,1.783,5.537,3.879,7.883,6.725c1.908,2.284,2.878,4.911,2.878,7.82c0,2.064-0.563,4.098-1.564,5.881
			c-2.471,1.939-5.349,3.097-8.759,3.097c-3.848,0-6.193-2.096-6.193-6.788c0-0.875,0.031-2.033,0.188-3.41H43.009z"/>
		<path fill="#FFF200" d="M68.283,17.411c2.722,4.473,3.816,7.194,3.816,9.759c0,1.47-0.125,2.284-0.125,2.878
			c0,3.003-0.563,5.787-2.002,8.29c-1.97,3.347-4.379,5.286-7.101,5.286c-2.409,0-5.724-1.001-8.571-2.721l0.594-1.658
			c0.938,0.25,1.971,0.375,3.128,0.375c2.565,0,5.224-1.47,7.601-3.785c2.127-2.127,3.441-4.286,3.441-5.287
			c0-1.126-1.189-3.316-4.192-7.82c0.876-1.877,1.877-3.691,2.815-5.318H68.283z"/>
		<path fill="#FFF200" d="M77.699,34.365c0.313-2.221,0.407-4.536,0.407-7.539c0-6.757-0.313-13.482-1.063-20.333
			c1.251-1.501,2.44-2.815,3.628-3.973l0.532,0.282c0.625,6.756,0.72,13.075,0.72,19.144c0,4.911-0.282,8.195-0.97,9.259
			c-0.657,1.189-1.501,2.409-2.565,3.66L77.699,34.365z"/>
	</g>
</g>
</svg>
