<svg xmlns="http://www.w3.org/2000/svg" width="25px" height="25px" viewBox="0 0 850 850"><defs><mask id="vgmask" x="0" y="0"><path d="M804.36,202.5q-3.75-8.59-8.6-7.35c-3.33.78-4.53,0-3.59-2.42q-10.36,10.86-21.89,1l-23.65-38q5.36-12.35-13.29-16.16,9.39,4.84-.37,11.61-10,.28-17.7-7.79,0-12.78-26.52-6.17,1.69,8.82-21.88,13.66l-6-4.77a88,88,0,0,0-29.6-7.05H607.6q-15.57,3.38-22.77,13.73a28.08,28.08,0,0,1,22-3.3q11.46,6.9-.66,16.6H588.65l-18.22,5Q496,125.23,402.68,125.23a345.23,345.23,0,0,0-40,2.28,121.73,121.73,0,0,1,11.09,25.41q14.25-1.17,28.94-1.18,86.9,0,156.07,43.26H548.32q-18.44,2.07-28,11.39,18.51-4.71,28.13-.81A34.24,34.24,0,0,1,564,218.21l5.21,9.48q-8.73-11.46-26.58-4.7l-29.38,14.17q32-7.2,44.14,3.82,10.8,8.82-4.33,7.49H527q-20.57.81-27,15.79h22.77q13.37.23,11.39,12.78-7.94-6.17-20.42-5.21-28,.44-39.37,17.55,19.54-2.49,31.8,1.4,11.31,3.6,10.95,21.37-25.35-12.56-37,17,28.43-8.29,28.42,16.08-13.29,46.2-58.39,42.9l-2.13-.59q-40-11.74-70.87-5.58-38.64,7.63-70.58,43-22.7-59.77-82.56-53.17-31.65-13.16-51.19,1.91-6.75,5.15-23.72,0,9.18,11.08,22.18,9,5.22,7.27-27.4,8.37Q126.23,389,126.23,415q9.69-27.68,27.76-14.9-4.34,20.26-30.7,21.15-14.83,4.41-12.34,20.93,9.18-18.51,26-15.5,15.06,9.84-2.35,12.12Q111,438.26,104.42,463q-.3-6.39-.3-12.71,0-93.57,50.09-166.43A129.67,129.67,0,0,1,137,262.43Q77.75,344,77.76,450.3q0,7.63.36,15.13h-.07q-25-6.17-33,21.3,18.21-21.37,34.08-5.58Q88.85,595.94,172.87,680q95.19,95.19,229.81,95.19,9.56,0,18.88-.52,72.93-3.68,133.89-36.57,41.28-22.33,77-58.1,37.25-37.23,59.94-80.5a5.8,5.8,0,0,0,2.93,0q17.26,21.3,0,53.11H682.07q-9.92,55,12.34,53.1L717.18,683q14.91,10.2,16.67-12.34-8.22-16.38,0-32.68a12,12,0,0,0,2.13-3.6A31.65,31.65,0,0,0,738,622.31,32.41,32.41,0,0,0,736,610.12q-2.13-4.92-5.07-4.92a1.35,1.35,0,0,0-.44.07q-14.91-22.54-2.86-40.83,4.18-.66,7.19-7.94,3.39-7.71,3.38-18.87t-3.38-19q-3.3-7.78-7.93-7.79a6.38,6.38,0,0,0-4.77,2.5,348.92,348.92,0,0,0,5.58-63.09q0-94.51-46.86-169.58a64.5,64.5,0,0,1,11.68-15.13q7.79,46.79,32.24,68.3l11.39,23.72v24.68l37,13.22,18.07-29.38-3.82-52.95,1.91-64.71L776,215.5q4.85,7.92,13.29,0,18.87-4.56,15.06-13m-116.86,340v.29q-21,65.88-73.73,118.62a305.28,305.28,0,0,1-70.22,53q-63.39,34.46-140.87,34.45-3.89,0-7.71-.15-48.56-1-91.51-15.93l-3.6-76.32,61.62-27.54q61.32-4.26,48.4-55,.08-15.64,15.2-19.9a131.39,131.39,0,0,0,42.38,8.52q51.35,1.61,105.62-38Q625.22,516,687.5,542.48M699,488.64,669.73,475.2q25-58.09-4.7-125.23a214.2,214.2,0,0,1,4.11-36.2q32.1,61.55,32.1,136.53a329.74,329.74,0,0,1-2.2,38.34m-535-19.46q14.17-36.8,33.71-18.07.36,9.11-4.78,12.85Q176,472,179.7,492.9q5.43-25.41,26.59-10.94Q225.39,495,230,475.79q1.4-13.29,12.78-8.52,17,3.23,13.29,27-13.95,12.56-14.1,49.2,1,28.21-6.83,48.92A77.33,77.33,0,0,1,223,613.72q-19,4.18-23.65,22.77L192,661.75l-.37-.36q-71.53-71.55-84.54-167.17,2.86-5.43,4.85-15.57,14.61-35.76,34.59-13.29,3.38,15.86-19.46,19.46,36.28,3.38,37-15.64m132,118q31.43-26.9,34.15,0L278,630.83l-11.38,21.82,12.78,70.58a293.19,293.19,0,0,1-68.23-43.7l11.75-25q26.44-14.47,27.54-29.46,7.5-2,13.74-4.26,36.06-13.07,31.8-33.63M338.71,280.5q36.57-35.34,36.58-85.2t-36.58-85.13q-36.57-35.4-88.43-35.4t-88.57,35.4Q125.2,145.44,125.2,195.3t36.51,85.2q36.64,35.33,88.57,35.32t88.43-35.32m3.75-154.76L324.31,177.6,294.42,186l-49.35-32.39-.66-37.6,43-28q25.2,7.94,45.54,27.69a101.14,101.14,0,0,1,9.48,10.06m-16.53,58.69L364.27,222q-7.2,29.74-31.29,52.81c-1.08,1.07-2.2,2.15-3.38,3.23l-40.1-3.31-14.91-25.63,22.18-56.33,29.16-8.3m-42.38,93.79L268,306.72a133.37,133.37,0,0,1-17.85,1.17q-31.42,0-56.92-13.95l-2.57-22.77L212,253.91H269.3l14.25,24.31M163,175.32l-5.51-49.06a124.63,124.63,0,0,1,10-10.58,114.34,114.34,0,0,1,34.08-23.35l35.84,23.5.15,37.38L188.15,185.6,163,175.32m21.88,91.44L158,264.48q-24.83-29.6-24.89-68.81l26.22-14.18,25.77,10.72L207.54,249Z" fill="white"></path></mask><linearGradient id="categorySelected" gradientUnits="userSpaceOnUse" x1="0%" y1="100%" x2="0%" y2="0%"><stop offset="0%" stop-color="#f9bc3c" stop-opacity="1"></stop><stop offset="19%" stop-color="#fde635" stop-opacity="1"></stop><stop offset="100" stop-color="#f9bc3c" stop-opacity="1"></stop></linearGradient><linearGradient id="categoryNotSelected" gradientUnits="userSpaceOnUse" x1="0%" y1="100%" x2="0%" y2="0%"><stop offset="0%" stop-color="#f9bc3c" stop-opacity="0.5"></stop><stop offset="19%" stop-color="#fde635" stop-opacity="0.5"></stop><stop offset="100" stop-color="#f9bc3c" stop-opacity="0.5"></stop></linearGradient></defs><rect x="0" y="0" width="850" height="850" mask="url('#vgmask')" fill="url('#categoryNotSelected')"></rect></svg>
