<svg width="350" height="180" viewBox="0 0 350 180" fill="none" xmlns="http://www.w3.org/2000/svg">
<g clip-path="url(#clip0_5244_105215)">
<rect width="350" height="180" fill="#F7F5F7"/>
<mask id="path-1-outside-1_5244_105215" maskUnits="userSpaceOnUse" x="-46.2588" y="113" width="443" height="75" fill="black">
<rect fill="white" x="-46.2588" y="113" width="443" height="75"/>
<path fill-rule="evenodd" clip-rule="evenodd" d="M175 150C194.882 150 211 133.882 211 114H395.258V187H-45.2588V114H139C139 133.882 155.118 150 175 150Z"/>
</mask>
<path fill-rule="evenodd" clip-rule="evenodd" d="M175 150C194.882 150 211 133.882 211 114H395.258V187H-45.2588V114H139C139 133.882 155.118 150 175 150Z" fill="white"/>
<path d="M211 114V113.75H210.75V114H211ZM395.258 114H395.508V113.75H395.258V114ZM395.258 187V187.25H395.508V187H395.258ZM-45.2588 187H-45.5088V187.25H-45.2588V187ZM-45.2588 114V113.75H-45.5088V114H-45.2588ZM139 114H139.25V113.75H139V114ZM210.75 114C210.75 114.786 210.725 115.567 210.675 116.341L211.174 116.373C211.224 115.588 211.25 114.797 211.25 114H210.75ZM210.07 120.977C209.764 122.522 209.359 124.03 208.862 125.496L209.335 125.656C209.84 124.17 210.25 122.64 210.56 121.074L210.07 120.977ZM207.071 129.815C206.377 131.219 205.594 132.571 204.729 133.863L205.144 134.141C206.022 132.831 206.816 131.46 207.519 130.037L207.071 129.815ZM201.879 137.572C200.85 138.745 199.745 139.849 198.572 140.879L198.902 141.255C200.091 140.211 201.211 139.091 202.255 137.902L201.879 137.572ZM194.863 143.729C193.571 144.594 192.219 145.377 190.815 146.071L191.037 146.519C192.46 145.815 193.831 145.021 195.141 144.144L194.863 143.729ZM186.496 147.862C185.03 148.359 183.522 148.764 181.978 149.07L182.075 149.56C183.641 149.25 185.17 148.84 186.657 148.335L186.496 147.862ZM177.341 149.675C176.567 149.725 175.787 149.75 175 149.75V150.25C175.797 150.25 176.589 150.224 177.373 150.174L177.341 149.675ZM175 149.75C174.214 149.75 173.433 149.725 172.66 149.675L172.627 150.174C173.412 150.224 174.203 150.25 175 150.25V149.75ZM168.023 149.07C166.479 148.764 164.97 148.359 163.505 147.862L163.344 148.335C164.83 148.84 166.36 149.25 167.926 149.56L168.023 149.07ZM159.185 146.071C157.781 145.377 156.429 144.594 155.137 143.729L154.859 144.144C156.169 145.021 157.54 145.815 158.964 146.519L159.185 146.071ZM151.429 140.879C150.256 139.849 149.151 138.745 148.121 137.572L147.746 137.902C148.789 139.091 149.91 140.211 151.099 141.255L151.429 140.879ZM145.272 133.863C144.406 132.571 143.623 131.219 142.93 129.815L142.481 130.037C143.185 131.46 143.979 132.831 144.856 134.141L145.272 133.863ZM141.139 125.496C140.641 124.03 140.236 122.522 139.931 120.977L139.44 121.074C139.75 122.64 140.161 124.17 140.665 125.656L141.139 125.496ZM139.326 116.341C139.276 115.567 139.25 114.786 139.25 114H138.75C138.75 114.797 138.776 115.588 138.827 116.373L139.326 116.341ZM139 113.75H136.441V114.25H139V113.75ZM131.323 113.75H126.204V114.25H131.323V113.75ZM121.086 113.75H115.968V114.25H121.086V113.75ZM110.85 113.75H105.731V114.25H110.85V113.75ZM100.613 113.75H95.4946V114.25H100.613V113.75ZM90.3763 113.75H85.258V114.25H90.3763V113.75ZM80.1397 113.75H75.0214V114.25H80.1397V113.75ZM69.9031 113.75H64.7848V114.25H69.9031V113.75ZM59.6665 113.75H54.5482V114.25H59.6665V113.75ZM49.4299 113.75H44.3116V114.25H49.4299V113.75ZM39.1933 113.75H34.0749V114.25H39.1933V113.75ZM28.9566 113.75H23.8383V114.25H28.9566V113.75ZM18.72 113.75H13.6017V114.25H18.72V113.75ZM8.4834 113.75H3.3651V114.25H8.4834V113.75ZM-1.7532 113.75H-6.87151V114.25H-1.7532V113.75ZM-11.9898 113.75H-17.1081V114.25H-11.9898V113.75ZM-22.2264 113.75H-27.3447V114.25H-22.2264V113.75ZM-32.463 113.75H-37.5813V114.25H-32.463V113.75ZM-42.6996 113.75H-45.2588V114.25H-42.6996V113.75ZM-45.5088 114V116.607H-45.0088V114H-45.5088ZM-45.5088 121.821V127.036H-45.0088V121.821H-45.5088ZM-45.5088 132.25V137.464H-45.0088V132.25H-45.5088ZM-45.5088 142.679V147.893H-45.0088V142.679H-45.5088ZM-45.5088 153.107V158.321H-45.0088V153.107H-45.5088ZM-45.5088 163.536V168.75H-45.0088V163.536H-45.5088ZM-45.5088 173.964V179.179H-45.0088V173.964H-45.5088ZM-45.5088 184.393V187H-45.0088V184.393H-45.5088ZM-45.2588 187.25H-42.7559V186.75H-45.2588V187.25ZM-37.75 187.25H-32.7441V186.75H-37.75V187.25ZM-27.7382 187.25H-22.7323V186.75H-27.7382V187.25ZM-17.7265 187.25H-12.7206V186.75H-17.7265V187.25ZM-7.7147 187.25H-2.70882V186.75H-7.7147V187.25ZM2.29706 187.25H7.30293V186.75H2.29706V187.25ZM12.3088 187.25H17.3147V186.75H12.3088V187.25ZM22.3206 187.25H27.3264V186.75H22.3206V187.25ZM32.3323 187.25H37.3382V186.75H32.3323V187.25ZM42.3441 187.25H47.3499V186.75H42.3441V187.25ZM52.3558 187.25H57.3617V186.75H52.3558V187.25ZM62.3676 187.25H67.3734V186.75H62.3676V187.25ZM72.3793 187.25H77.3852V186.75H72.3793V187.25ZM82.3911 187.25H87.3969V186.75H82.3911V187.25ZM92.4028 187.25H97.4087V186.75H92.4028V187.25ZM102.415 187.25H107.42V186.75H102.415V187.25ZM112.426 187.25H117.432V186.75H112.426V187.25ZM122.438 187.25H127.444V186.75H122.438V187.25ZM132.45 187.25H137.456V186.75H132.45V187.25ZM142.462 187.25H147.467V186.75H142.462V187.25ZM152.473 187.25H157.479V186.75H152.473V187.25ZM162.485 187.25H167.491V186.75H162.485V187.25ZM172.497 187.25H177.503V186.75H172.497V187.25ZM182.509 187.25H187.514V186.75H182.509V187.25ZM192.52 187.25H197.526V186.75H192.52V187.25ZM202.532 187.25H207.538V186.75H202.532V187.25ZM212.544 187.25H217.55V186.75H212.544V187.25ZM222.556 187.25H227.562V186.75H222.556V187.25ZM232.567 187.25H237.573V186.75H232.567V187.25ZM242.579 187.25H247.585V186.75H242.579V187.25ZM252.591 187.25H257.597V186.75H252.591V187.25ZM262.603 187.25H267.609V186.75H262.603V187.25ZM272.615 187.25H277.62V186.75H272.615V187.25ZM282.626 187.25H287.632V186.75H282.626V187.25ZM292.638 187.25H297.644V186.75H292.638V187.25ZM302.65 187.25H307.656V186.75H302.65V187.25ZM312.662 187.25H317.668V186.75H312.662V187.25ZM322.673 187.25H327.679V186.75H322.673V187.25ZM332.685 187.25H337.691V186.75H332.685V187.25ZM342.697 187.25H347.703V186.75H342.697V187.25ZM352.709 187.25H357.715V186.75H352.709V187.25ZM362.721 187.25H367.726V186.75H362.721V187.25ZM372.732 187.25H377.738V186.75H372.732V187.25ZM382.744 187.25H387.75V186.75H382.744V187.25ZM392.756 187.25H395.258V186.75H392.756V187.25ZM395.508 187V184.393H395.008V187H395.508ZM395.508 179.179V173.964H395.008V179.179H395.508ZM395.508 168.75V163.536H395.008V168.75H395.508ZM395.508 158.321V153.107H395.008V158.321H395.508ZM395.508 147.893V142.679H395.008V147.893H395.508ZM395.508 137.464V132.25H395.008V137.464H395.508ZM395.508 127.036V121.821H395.008V127.036H395.508ZM395.508 116.607V114H395.008V116.607H395.508ZM395.258 113.75H392.699V114.25H395.258V113.75ZM387.581 113.75H382.463V114.25H387.581V113.75ZM377.344 113.75H372.226V114.25H377.344V113.75ZM367.108 113.75H361.99V114.25H367.108V113.75ZM356.871 113.75H351.753V114.25H356.871V113.75ZM346.635 113.75H341.516V114.25H346.635V113.75ZM336.398 113.75H331.28V114.25H336.398V113.75ZM326.162 113.75H321.043V114.25H326.162V113.75ZM315.925 113.75H310.807V114.25H315.925V113.75ZM305.688 113.75H300.57V114.25H305.688V113.75ZM295.452 113.75H290.334V114.25H295.452V113.75ZM285.215 113.75H280.097V114.25H285.215V113.75ZM274.979 113.75H269.86V114.25H274.979V113.75ZM264.742 113.75H259.624V114.25H264.742V113.75ZM254.506 113.75H249.387V114.25H254.506V113.75ZM244.269 113.75H239.151V114.25H244.269V113.75ZM234.032 113.75H228.914V114.25H234.032V113.75ZM223.796 113.75H218.678V114.25H223.796V113.75ZM213.559 113.75H211V114.25H213.559V113.75ZM211 114V113.5H210.5V114H211ZM395.258 114H395.758V113.5H395.258V114ZM395.258 187V187.5H395.758V187H395.258ZM-45.2588 187H-45.7588V187.5H-45.2588V187ZM-45.2588 114V113.5H-45.7588V114H-45.2588ZM139 114H139.5V113.5H139V114ZM210.5 114C210.5 114.781 210.475 115.556 210.425 116.325L211.423 116.389C211.474 115.599 211.5 114.803 211.5 114H210.5ZM209.825 120.929C209.521 122.462 209.119 123.96 208.625 125.415L209.572 125.737C210.08 124.24 210.494 122.7 210.805 121.123L209.825 120.929ZM206.847 129.704C206.158 131.098 205.38 132.441 204.521 133.724L205.352 134.28C206.235 132.961 207.035 131.581 207.743 130.147L206.847 129.704ZM201.691 137.407C200.669 138.571 199.572 139.669 198.407 140.691L199.067 141.442C200.264 140.392 201.392 139.264 202.443 138.066L201.691 137.407ZM194.724 143.521C193.441 144.38 192.099 145.158 190.705 145.846L191.148 146.743C192.581 146.035 193.961 145.235 195.281 144.352L194.724 143.521ZM186.416 147.625C184.96 148.119 183.462 148.521 181.929 148.824L182.123 149.805C183.7 149.493 185.24 149.08 186.737 148.572L186.416 147.625ZM177.325 149.425C176.556 149.475 175.781 149.5 175 149.5V150.5C175.803 150.5 176.599 150.474 177.389 150.423L177.325 149.425ZM175 149.5C174.219 149.5 173.444 149.475 172.676 149.425L172.611 150.423C173.401 150.474 174.198 150.5 175 150.5V149.5ZM168.071 148.824C166.538 148.521 165.04 148.119 163.585 147.625L163.263 148.572C164.76 149.08 166.301 149.493 167.877 149.805L168.071 148.824ZM159.296 145.846C157.902 145.158 156.559 144.38 155.276 143.521L154.72 144.352C156.039 145.235 157.419 146.035 158.853 146.743L159.296 145.846ZM151.593 140.691C150.429 139.669 149.332 138.571 148.309 137.407L147.558 138.066C148.609 139.264 149.736 140.392 150.934 141.443L151.593 140.691ZM145.479 133.724C144.62 132.441 143.843 131.098 143.154 129.704L142.257 130.147C142.966 131.581 143.765 132.961 144.648 134.28L145.479 133.724ZM141.375 125.415C140.881 123.96 140.479 122.462 140.176 120.929L139.195 121.123C139.507 122.7 139.92 124.24 140.428 125.737L141.375 125.415ZM139.575 116.325C139.525 115.556 139.5 114.781 139.5 114H138.5C138.5 114.803 138.526 115.599 138.577 116.389L139.575 116.325ZM139 113.5H136.441V114.5H139V113.5ZM131.323 113.5H126.204V114.5H131.323V113.5ZM121.086 113.5H115.968V114.5H121.086V113.5ZM110.85 113.5H105.731V114.5H110.85V113.5ZM100.613 113.5H95.4946V114.5H100.613V113.5ZM90.3763 113.5H85.258V114.5H90.3763V113.5ZM80.1397 113.5H75.0214V114.5H80.1397V113.5ZM69.9031 113.5H64.7848V114.5H69.9031V113.5ZM59.6665 113.5H54.5482V114.5H59.6665V113.5ZM49.4299 113.5H44.3116V114.5H49.4299V113.5ZM39.1933 113.5H34.0749V114.5H39.1933V113.5ZM28.9566 113.5H23.8383V114.5H28.9566V113.5ZM18.72 113.5H13.6017V114.5H18.72V113.5ZM8.4834 113.5H3.3651V114.5H8.4834V113.5ZM-1.7532 113.5H-6.87151V114.5H-1.7532V113.5ZM-11.9898 113.5H-17.1081V114.5H-11.9898V113.5ZM-22.2264 113.5H-27.3447V114.5H-22.2264V113.5ZM-32.463 113.5H-37.5813V114.5H-32.463V113.5ZM-42.6996 113.5H-45.2588V114.5H-42.6996V113.5ZM-45.7588 114V116.607H-44.7588V114H-45.7588ZM-45.7588 121.821V127.036H-44.7588V121.821H-45.7588ZM-45.7588 132.25V137.464H-44.7588V132.25H-45.7588ZM-45.7588 142.679V147.893H-44.7588V142.679H-45.7588ZM-45.7588 153.107V158.321H-44.7588V153.107H-45.7588ZM-45.7588 163.536V168.75H-44.7588V163.536H-45.7588ZM-45.7588 173.964V179.179H-44.7588V173.964H-45.7588ZM-45.7588 184.393V187H-44.7588V184.393H-45.7588ZM-45.2588 187.5H-42.7559V186.5H-45.2588V187.5ZM-37.75 187.5H-32.7441V186.5H-37.75V187.5ZM-27.7382 187.5H-22.7323V186.5H-27.7382V187.5ZM-17.7265 187.5H-12.7206V186.5H-17.7265V187.5ZM-7.7147 187.5H-2.70882V186.5H-7.7147V187.5ZM2.29706 187.5H7.30293V186.5H2.29706V187.5ZM12.3088 187.5H17.3147V186.5H12.3088V187.5ZM22.3206 187.5H27.3264V186.5H22.3206V187.5ZM32.3323 187.5H37.3382V186.5H32.3323V187.5ZM42.3441 187.5H47.3499V186.5H42.3441V187.5ZM52.3558 187.5H57.3617V186.5H52.3558V187.5ZM62.3676 187.5H67.3734V186.5H62.3676V187.5ZM72.3793 187.5H77.3852V186.5H72.3793V187.5ZM82.3911 187.5H87.3969V186.5H82.3911V187.5ZM92.4028 187.5H97.4087V186.5H92.4028V187.5ZM102.415 187.5H107.42V186.5H102.415V187.5ZM112.426 187.5H117.432V186.5H112.426V187.5ZM122.438 187.5H127.444V186.5H122.438V187.5ZM132.45 187.5H137.456V186.5H132.45V187.5ZM142.462 187.5H147.467V186.5H142.462V187.5ZM152.473 187.5H157.479V186.5H152.473V187.5ZM162.485 187.5H167.491V186.5H162.485V187.5ZM172.497 187.5H177.503V186.5H172.497V187.5ZM182.509 187.5H187.514V186.5H182.509V187.5ZM192.52 187.5H197.526V186.5H192.52V187.5ZM202.532 187.5H207.538V186.5H202.532V187.5ZM212.544 187.5H217.55V186.5H212.544V187.5ZM222.556 187.5H227.562V186.5H222.556V187.5ZM232.567 187.5H237.573V186.5H232.567V187.5ZM242.579 187.5H247.585V186.5H242.579V187.5ZM252.591 187.5H257.597V186.5H252.591V187.5ZM262.603 187.5H267.609V186.5H262.603V187.5ZM272.615 187.5H277.62V186.5H272.615V187.5ZM282.626 187.5H287.632V186.5H282.626V187.5ZM292.638 187.5H297.644V186.5H292.638V187.5ZM302.65 187.5H307.656V186.5H302.65V187.5ZM312.662 187.5H317.668V186.5H312.662V187.5ZM322.673 187.5H327.679V186.5H322.673V187.5ZM332.685 187.5H337.691V186.5H332.685V187.5ZM342.697 187.5H347.703V186.5H342.697V187.5ZM352.709 187.5H357.715V186.5H352.709V187.5ZM362.721 187.5H367.726V186.5H362.721V187.5ZM372.732 187.5H377.738V186.5H372.732V187.5ZM382.744 187.5H387.75V186.5H382.744V187.5ZM392.756 187.5H395.258V186.5H392.756V187.5ZM395.758 187V184.393H394.758V187H395.758ZM395.758 179.179V173.964H394.758V179.179H395.758ZM395.758 168.75V163.536H394.758V168.75H395.758ZM395.758 158.321V153.107H394.758V158.321H395.758ZM395.758 147.893V142.679H394.758V147.893H395.758ZM395.758 137.464V132.25H394.758V137.464H395.758ZM395.758 127.036V121.821H394.758V127.036H395.758ZM395.758 116.607V114H394.758V116.607H395.758ZM395.258 113.5H392.699V114.5H395.258V113.5ZM387.581 113.5H382.463V114.5H387.581V113.5ZM377.344 113.5H372.226V114.5H377.344V113.5ZM367.108 113.5H361.99V114.5H367.108V113.5ZM356.871 113.5H351.753V114.5H356.871V113.5ZM346.635 113.5H341.516V114.5H346.635V113.5ZM336.398 113.5H331.28V114.5H336.398V113.5ZM326.162 113.5H321.043V114.5H326.162V113.5ZM315.925 113.5H310.807V114.5H315.925V113.5ZM305.688 113.5H300.57V114.5H305.688V113.5ZM295.452 113.5H290.334V114.5H295.452V113.5ZM285.215 113.5H280.097V114.5H285.215V113.5ZM274.979 113.5H269.86V114.5H274.979V113.5ZM264.742 113.5H259.624V114.5H264.742V113.5ZM254.506 113.5H249.387V114.5H254.506V113.5ZM244.269 113.5H239.151V114.5H244.269V113.5ZM234.032 113.5H228.914V114.5H234.032V113.5ZM223.796 113.5H218.678V114.5H223.796V113.5ZM213.559 113.5H211V114.5H213.559V113.5Z" fill="#858585" mask="url(#path-1-outside-1_5244_105215)"/>
<path d="M116.858 63.8866C116.858 64.6192 116.606 65.2296 116.1 65.718C115.604 66.1979 114.842 66.4379 113.814 66.4379H112.122V70.1133H110.973V61.3101H113.814C114.808 61.3101 115.561 61.5501 116.075 62.03C116.597 62.5099 116.858 63.1288 116.858 63.8866ZM113.814 65.4907C114.454 65.4907 114.926 65.3517 115.229 65.0739C115.532 64.796 115.684 64.4003 115.684 63.8866C115.684 62.8004 115.06 62.2573 113.814 62.2573H112.122V65.4907H113.814ZM117.92 66.6274C117.92 65.9201 118.064 65.3012 118.35 64.7707C118.636 64.2319 119.028 63.8151 119.524 63.5204C120.03 63.2257 120.59 63.0783 121.204 63.0783C121.81 63.0783 122.337 63.2088 122.783 63.4698C123.229 63.7309 123.562 64.0592 123.781 64.455V63.192H124.943V70.1133H123.781V68.825C123.553 69.2292 123.212 69.566 122.758 69.8354C122.311 70.0964 121.789 70.227 121.192 70.227C120.577 70.227 120.021 70.0754 119.524 69.7723C119.028 69.4691 118.636 69.0439 118.35 68.4966C118.064 67.9493 117.92 67.3262 117.92 66.6274ZM123.781 66.64C123.781 66.118 123.675 65.6633 123.465 65.2759C123.254 64.8886 122.968 64.5939 122.606 64.3918C122.253 64.1813 121.861 64.0761 121.432 64.0761C121.002 64.0761 120.611 64.1771 120.257 64.3792C119.903 64.5813 119.621 64.876 119.411 65.2633C119.2 65.6506 119.095 66.1053 119.095 66.6274C119.095 67.1578 119.2 67.6209 119.411 68.0167C119.621 68.404 119.903 68.7029 120.257 68.9134C120.611 69.1155 121.002 69.2165 121.432 69.2165C121.861 69.2165 122.253 69.1155 122.606 68.9134C122.968 68.7029 123.254 68.404 123.465 68.0167C123.675 67.6209 123.781 67.162 123.781 66.64ZM132.91 63.192L128.742 73.3719H127.554L128.918 70.0375L126.127 63.192H127.403L129.575 68.7997L131.722 63.192H132.91ZM142.451 63.0657C142.99 63.0657 143.47 63.1793 143.891 63.4067C144.312 63.6256 144.645 63.9582 144.889 64.4045C145.133 64.8507 145.255 65.3938 145.255 66.0338V70.1133H144.118V66.1979C144.118 65.5075 143.946 64.9812 143.601 64.6192C143.264 64.2487 142.805 64.0635 142.224 64.0635C141.626 64.0635 141.15 64.2571 140.797 64.6444C140.443 65.0233 140.266 65.5749 140.266 66.299V70.1133H139.13V66.1979C139.13 65.5075 138.957 64.9812 138.612 64.6192C138.275 64.2487 137.816 64.0635 137.235 64.0635C136.637 64.0635 136.162 64.2571 135.808 64.6444C135.454 65.0233 135.277 65.5749 135.277 66.299V70.1133H134.128V63.192H135.277V64.1898C135.505 63.8277 135.808 63.5498 136.187 63.3562C136.574 63.1625 136.999 63.0657 137.462 63.0657C138.043 63.0657 138.557 63.1962 139.003 63.4572C139.45 63.7182 139.782 64.1013 140.001 64.6065C140.195 64.1182 140.515 63.7393 140.961 63.4698C141.407 63.2004 141.904 63.0657 142.451 63.0657ZM153.519 66.3874C153.519 66.6063 153.506 66.8379 153.481 67.0821H147.949C147.991 67.7641 148.223 68.2988 148.644 68.6861C149.073 69.065 149.591 69.2544 150.197 69.2544C150.694 69.2544 151.106 69.1408 151.435 68.9134C151.772 68.6777 152.007 68.3661 152.142 67.9788H153.38C153.195 68.644 152.824 69.1871 152.268 69.6081C151.713 70.0207 151.022 70.227 150.197 70.227C149.54 70.227 148.951 70.0796 148.429 69.7849C147.915 69.4902 147.511 69.0734 147.216 68.5345C146.922 67.9872 146.774 67.3557 146.774 66.64C146.774 65.9243 146.917 65.297 147.204 64.7581C147.49 64.2192 147.89 63.8066 148.404 63.5204C148.926 63.2257 149.523 63.0783 150.197 63.0783C150.854 63.0783 151.435 63.2214 151.94 63.5077C152.445 63.794 152.833 64.1898 153.102 64.695C153.38 65.1917 153.519 65.7559 153.519 66.3874ZM152.332 66.1474C152.332 65.7096 152.235 65.3349 152.041 65.0233C151.847 64.7034 151.582 64.4634 151.245 64.3034C150.917 64.135 150.551 64.0508 150.147 64.0508C149.566 64.0508 149.069 64.2361 148.656 64.6065C148.252 64.977 148.02 65.4907 147.962 66.1474H152.332ZM158.471 63.0657C159.313 63.0657 159.995 63.3225 160.517 63.8361C161.039 64.3413 161.3 65.0739 161.3 66.0338V70.1133H160.164V66.1979C160.164 65.5075 159.991 64.9812 159.646 64.6192C159.301 64.2487 158.829 64.0635 158.231 64.0635C157.625 64.0635 157.141 64.2529 156.779 64.6318C156.425 65.0107 156.248 65.5622 156.248 66.2864V70.1133H155.099V63.192H156.248V64.1771C156.476 63.8235 156.783 63.5498 157.17 63.3562C157.566 63.1625 158 63.0657 158.471 63.0657ZM164.643 64.1392V68.2188C164.643 68.5556 164.715 68.7955 164.858 68.9387C165.001 69.0734 165.249 69.1408 165.603 69.1408H166.449V70.1133H165.413C164.773 70.1133 164.294 69.9659 163.974 69.6712C163.654 69.3765 163.494 68.8924 163.494 68.2188V64.1392H162.597V63.192H163.494V61.449H164.643V63.192H166.449V64.1392H164.643ZM174.126 70.2017C173.545 70.2017 173.023 70.1007 172.56 69.8986C172.106 69.6881 171.748 69.4018 171.487 69.0397C171.226 68.6692 171.091 68.244 171.083 67.7641H172.308C172.35 68.1767 172.518 68.5261 172.813 68.8124C173.116 69.0902 173.554 69.2292 174.126 69.2292C174.674 69.2292 175.103 69.0945 175.415 68.825C175.735 68.5471 175.895 68.1935 175.895 67.7641C175.895 67.4273 175.802 67.1536 175.617 66.9431C175.431 66.7326 175.2 66.5726 174.922 66.4632C174.644 66.3537 174.27 66.2358 173.798 66.1095C173.217 65.958 172.75 65.8064 172.396 65.6548C172.051 65.5033 171.752 65.2675 171.499 64.9476C171.255 64.6192 171.133 64.1813 171.133 63.634C171.133 63.1541 171.255 62.7289 171.499 62.3584C171.743 61.9879 172.085 61.7016 172.522 61.4995C172.969 61.2975 173.478 61.1964 174.051 61.1964C174.876 61.1964 175.549 61.4027 176.071 61.8153C176.602 62.2279 176.901 62.7752 176.968 63.4572H175.705C175.663 63.1204 175.486 62.8257 175.175 62.5731C174.863 62.3121 174.451 62.1816 173.937 62.1816C173.457 62.1816 173.065 62.3079 172.762 62.5605C172.459 62.8047 172.308 63.1499 172.308 63.5961C172.308 63.9161 172.396 64.1771 172.573 64.3792C172.758 64.5813 172.981 64.7371 173.242 64.8465C173.512 64.9476 173.886 65.0654 174.366 65.2002C174.947 65.3601 175.415 65.5201 175.768 65.6801C176.122 65.8317 176.425 66.0716 176.678 66.4C176.93 66.72 177.057 67.1578 177.057 67.7136C177.057 68.143 176.943 68.5471 176.716 68.926C176.488 69.305 176.151 69.6123 175.705 69.848C175.259 70.0838 174.733 70.2017 174.126 70.2017ZM184.949 63.192V70.1133H183.8V69.0902C183.581 69.4439 183.274 69.7217 182.878 69.9238C182.491 70.1175 182.061 70.2143 181.59 70.2143C181.051 70.2143 180.567 70.1049 180.137 69.8859C179.708 69.6586 179.367 69.3218 179.114 68.8755C178.87 68.4293 178.748 67.8862 178.748 67.2462V63.192H179.885V67.0947C179.885 67.7767 180.057 68.303 180.402 68.6734C180.748 69.0355 181.219 69.2165 181.817 69.2165C182.432 69.2165 182.916 69.0271 183.27 68.6482C183.623 68.2693 183.8 67.7178 183.8 66.9936V63.192H184.949ZM186.524 66.64C186.524 65.9243 186.667 65.3012 186.953 64.7707C187.239 64.2319 187.635 63.8151 188.14 63.5204C188.654 63.2257 189.239 63.0783 189.896 63.0783C190.746 63.0783 191.445 63.2846 191.992 63.6972C192.548 64.1098 192.914 64.6823 193.091 65.4149H191.854C191.736 64.9939 191.504 64.6613 191.159 64.4171C190.822 64.1729 190.401 64.0508 189.896 64.0508C189.239 64.0508 188.709 64.2782 188.304 64.7328C187.9 65.1791 187.698 65.8148 187.698 66.64C187.698 67.4736 187.9 68.1177 188.304 68.5724C188.709 69.0271 189.239 69.2544 189.896 69.2544C190.401 69.2544 190.822 69.1366 191.159 68.9008C191.496 68.665 191.727 68.3282 191.854 67.8904H193.091C192.906 68.5977 192.536 69.166 191.98 69.5954C191.424 70.0165 190.729 70.227 189.896 70.227C189.239 70.227 188.654 70.0796 188.14 69.7849C187.635 69.4902 187.239 69.0734 186.953 68.5345C186.667 67.9956 186.524 67.3641 186.524 66.64ZM194.259 66.64C194.259 65.9243 194.402 65.3012 194.688 64.7707C194.974 64.2319 195.37 63.8151 195.875 63.5204C196.389 63.2257 196.974 63.0783 197.631 63.0783C198.481 63.0783 199.18 63.2846 199.727 63.6972C200.283 64.1098 200.649 64.6823 200.826 65.4149H199.589C199.471 64.9939 199.239 64.6613 198.894 64.4171C198.557 64.1729 198.136 64.0508 197.631 64.0508C196.974 64.0508 196.444 64.2782 196.039 64.7328C195.635 65.1791 195.433 65.8148 195.433 66.64C195.433 67.4736 195.635 68.1177 196.039 68.5724C196.444 69.0271 196.974 69.2544 197.631 69.2544C198.136 69.2544 198.557 69.1366 198.894 68.9008C199.231 68.665 199.462 68.3282 199.589 67.8904H200.826C200.641 68.5977 200.271 69.166 199.715 69.5954C199.159 70.0165 198.464 70.227 197.631 70.227C196.974 70.227 196.389 70.0796 195.875 69.7849C195.37 69.4902 194.974 69.0734 194.688 68.5345C194.402 67.9956 194.259 67.3641 194.259 66.64ZM208.738 66.3874C208.738 66.6063 208.725 66.8379 208.7 67.0821H203.168C203.21 67.7641 203.442 68.2988 203.863 68.6861C204.292 69.065 204.81 69.2544 205.416 69.2544C205.913 69.2544 206.326 69.1408 206.654 68.9134C206.991 68.6777 207.227 68.3661 207.361 67.9788H208.599C208.414 68.644 208.043 69.1871 207.488 69.6081C206.932 70.0207 206.241 70.227 205.416 70.227C204.76 70.227 204.17 70.0796 203.648 69.7849C203.134 69.4902 202.73 69.0734 202.436 68.5345C202.141 67.9872 201.994 67.3557 201.994 66.64C201.994 65.9243 202.137 65.297 202.423 64.7581C202.709 64.2192 203.109 63.8066 203.623 63.5204C204.145 63.2257 204.743 63.0783 205.416 63.0783C206.073 63.0783 206.654 63.2214 207.159 63.5077C207.664 63.794 208.052 64.1898 208.321 64.695C208.599 65.1917 208.738 65.7559 208.738 66.3874ZM207.551 66.1474C207.551 65.7096 207.454 65.3349 207.26 65.0233C207.067 64.7034 206.801 64.4634 206.465 64.3034C206.136 64.135 205.77 64.0508 205.366 64.0508C204.785 64.0508 204.288 64.2361 203.875 64.6065C203.471 64.977 203.24 65.4907 203.181 66.1474H207.551ZM212.769 70.227C212.238 70.227 211.762 70.1385 211.341 69.9617C210.92 69.7765 210.588 69.5239 210.344 69.2039C210.099 68.8755 209.965 68.5008 209.939 68.0798H211.127C211.16 68.4251 211.32 68.7071 211.607 68.926C211.901 69.145 212.284 69.2544 212.756 69.2544C213.194 69.2544 213.539 69.1576 213.792 68.9639C214.044 68.7703 214.17 68.5261 214.17 68.2314C214.17 67.9283 214.036 67.7051 213.766 67.562C213.497 67.4104 213.08 67.2631 212.516 67.1199C212.002 66.9852 211.581 66.8505 211.253 66.7158C210.933 66.5726 210.655 66.3663 210.419 66.0969C210.192 65.819 210.078 65.457 210.078 65.0107C210.078 64.6571 210.184 64.3329 210.394 64.0382C210.605 63.7435 210.903 63.5119 211.291 63.3435C211.678 63.1667 212.12 63.0783 212.617 63.0783C213.383 63.0783 214.002 63.272 214.474 63.6593C214.945 64.0466 215.198 64.5771 215.231 65.2507H214.082C214.057 64.8886 213.909 64.5981 213.64 64.3792C213.379 64.1603 213.025 64.0508 212.579 64.0508C212.166 64.0508 211.838 64.1392 211.594 64.3161C211.35 64.4929 211.228 64.7244 211.228 65.0107C211.228 65.2381 211.299 65.4275 211.442 65.5791C211.594 65.7222 211.779 65.8401 211.998 65.9327C212.225 66.0169 212.537 66.1137 212.933 66.2232C213.43 66.3579 213.834 66.4926 214.145 66.6274C214.457 66.7537 214.722 66.9473 214.941 67.2084C215.168 67.4694 215.286 67.8104 215.295 68.2314C215.295 68.6103 215.189 68.9513 214.979 69.2544C214.768 69.5576 214.469 69.7975 214.082 69.9743C213.703 70.1428 213.265 70.227 212.769 70.227ZM219.43 70.227C218.9 70.227 218.424 70.1385 218.003 69.9617C217.582 69.7765 217.25 69.5239 217.005 69.2039C216.761 68.8755 216.627 68.5008 216.601 68.0798H217.789C217.822 68.4251 217.982 68.7071 218.268 68.926C218.563 69.145 218.946 69.2544 219.418 69.2544C219.856 69.2544 220.201 69.1576 220.453 68.9639C220.706 68.7703 220.832 68.5261 220.832 68.2314C220.832 67.9283 220.698 67.7051 220.428 67.562C220.159 67.4104 219.742 67.2631 219.178 67.1199C218.664 66.9852 218.243 66.8505 217.915 66.7158C217.595 66.5726 217.317 66.3663 217.081 66.0969C216.854 65.819 216.74 65.457 216.74 65.0107C216.74 64.6571 216.845 64.3329 217.056 64.0382C217.266 63.7435 217.565 63.5119 217.953 63.3435C218.34 63.1667 218.782 63.0783 219.279 63.0783C220.045 63.0783 220.664 63.272 221.135 63.6593C221.607 64.0466 221.86 64.5771 221.893 65.2507H220.744C220.719 64.8886 220.571 64.5981 220.302 64.3792C220.041 64.1603 219.687 64.0508 219.241 64.0508C218.828 64.0508 218.5 64.1392 218.256 64.3161C218.012 64.4929 217.89 64.7244 217.89 65.0107C217.89 65.2381 217.961 65.4275 218.104 65.5791C218.256 65.7222 218.441 65.8401 218.66 65.9327C218.887 66.0169 219.199 66.1137 219.595 66.2232C220.091 66.3579 220.496 66.4926 220.807 66.6274C221.119 66.7537 221.384 66.9473 221.603 67.2084C221.83 67.4694 221.948 67.8104 221.956 68.2314C221.956 68.6103 221.851 68.9513 221.641 69.2544C221.43 69.5576 221.131 69.7975 220.744 69.9743C220.365 70.1428 219.927 70.227 219.43 70.227ZM226.459 64.1392H225.006V70.1133H223.857V64.1392H222.96V63.192H223.857V62.6994C223.857 61.9248 224.055 61.3606 224.45 61.007C224.855 60.6449 225.499 60.4639 226.383 60.4639V61.4238C225.878 61.4238 225.52 61.5248 225.309 61.7269C225.107 61.9205 225.006 62.2447 225.006 62.6994V63.192H226.459V64.1392ZM234 63.192V70.1133H232.851V69.0902C232.632 69.4439 232.324 69.7217 231.929 69.9238C231.541 70.1175 231.112 70.2143 230.64 70.2143C230.102 70.2143 229.617 70.1049 229.188 69.8859C228.759 69.6586 228.418 69.3218 228.165 68.8755C227.921 68.4293 227.799 67.8862 227.799 67.2462V63.192H228.935V67.0947C228.935 67.7767 229.108 68.303 229.453 68.6734C229.798 69.0355 230.27 69.2165 230.868 69.2165C231.482 69.2165 231.967 69.0271 232.32 68.6482C232.674 68.2693 232.851 67.7178 232.851 66.9936V63.192H234ZM237.153 60.767V70.1133H236.004V60.767H237.153Z" fill="black"/>
<path fill-rule="evenodd" clip-rule="evenodd" d="M174.526 43.5246C183.507 43.5246 190.788 36.2437 190.788 27.2623C190.788 18.2809 183.507 11 174.526 11C165.545 11 158.264 18.2809 158.264 27.2623C158.264 36.2437 165.545 43.5246 174.526 43.5246ZM182.925 20.1246C183.32 19.729 183.962 19.729 184.357 20.1246C184.753 20.5201 184.753 21.1615 184.357 21.557L171.506 34.4085C171.111 34.8038 170.469 34.8041 170.073 34.4085L164.693 29.0278C164.297 28.6322 164.297 27.9909 164.693 27.5953C165.088 27.1998 165.729 27.1997 166.125 27.5953L170.79 32.2599L182.925 20.1246Z" fill="#7CAA53"/>
<path d="M267.099 134.701H264.551L264.081 136H263.277L265.389 130.191H266.269L268.373 136H267.568L267.099 134.701ZM266.881 134.081L265.825 131.13L264.769 134.081H266.881ZM274.859 131.323C275.217 131.323 275.535 131.398 275.815 131.549C276.094 131.694 276.315 131.915 276.477 132.211C276.639 132.508 276.72 132.868 276.72 133.293V136H275.965V133.402C275.965 132.943 275.851 132.594 275.622 132.354C275.398 132.108 275.094 131.985 274.708 131.985C274.311 131.985 273.996 132.114 273.761 132.371C273.526 132.622 273.409 132.988 273.409 133.469V136H272.655V133.402C272.655 132.943 272.54 132.594 272.311 132.354C272.087 132.108 271.783 131.985 271.397 131.985C271.001 131.985 270.685 132.114 270.45 132.371C270.215 132.622 270.098 132.988 270.098 133.469V136H269.335V131.407H270.098V132.069C270.249 131.829 270.45 131.644 270.702 131.516C270.959 131.387 271.241 131.323 271.548 131.323C271.934 131.323 272.275 131.409 272.571 131.583C272.867 131.756 273.088 132.01 273.233 132.345C273.361 132.021 273.574 131.77 273.87 131.591C274.166 131.412 274.496 131.323 274.859 131.323ZM280.016 136.075C279.586 136.075 279.195 135.978 278.843 135.782C278.496 135.586 278.223 135.31 278.021 134.952C277.826 134.589 277.728 134.17 277.728 133.695C277.728 133.226 277.829 132.812 278.03 132.454C278.236 132.091 278.516 131.815 278.868 131.625C279.22 131.429 279.614 131.331 280.05 131.331C280.486 131.331 280.88 131.429 281.232 131.625C281.584 131.815 281.86 132.088 282.061 132.446C282.268 132.804 282.372 133.22 282.372 133.695C282.372 134.17 282.265 134.589 282.053 134.952C281.846 135.31 281.564 135.586 281.206 135.782C280.849 135.978 280.452 136.075 280.016 136.075ZM280.016 135.405C280.29 135.405 280.547 135.341 280.787 135.212C281.028 135.084 281.22 134.891 281.366 134.634C281.517 134.377 281.592 134.064 281.592 133.695C281.592 133.326 281.519 133.013 281.374 132.756C281.229 132.499 281.039 132.309 280.804 132.186C280.569 132.058 280.315 131.993 280.041 131.993C279.762 131.993 279.505 132.058 279.27 132.186C279.041 132.309 278.857 132.499 278.717 132.756C278.577 133.013 278.508 133.326 278.508 133.695C278.508 134.069 278.575 134.385 278.709 134.642C278.848 134.899 279.033 135.092 279.262 135.22C279.491 135.343 279.742 135.405 280.016 135.405ZM287.49 131.407V136H286.727V135.321C286.582 135.556 286.378 135.74 286.115 135.874C285.858 136.003 285.573 136.067 285.26 136.067C284.903 136.067 284.581 135.994 284.296 135.849C284.012 135.698 283.785 135.475 283.618 135.179C283.456 134.882 283.374 134.522 283.374 134.097V131.407H284.129V133.997C284.129 134.449 284.243 134.799 284.473 135.044C284.702 135.285 285.015 135.405 285.411 135.405C285.819 135.405 286.141 135.279 286.375 135.028C286.61 134.776 286.727 134.41 286.727 133.93V131.407H287.49ZM291.058 131.323C291.617 131.323 292.069 131.493 292.416 131.834C292.762 132.169 292.935 132.656 292.935 133.293V136H292.181V133.402C292.181 132.943 292.066 132.594 291.837 132.354C291.608 132.108 291.295 131.985 290.899 131.985C290.496 131.985 290.175 132.111 289.935 132.362C289.7 132.614 289.583 132.98 289.583 133.46V136H288.82V131.407H289.583V132.06C289.733 131.826 289.937 131.644 290.194 131.516C290.457 131.387 290.745 131.323 291.058 131.323ZM295.154 132.035V134.743C295.154 134.966 295.201 135.125 295.296 135.22C295.391 135.31 295.556 135.355 295.791 135.355H296.352V136H295.665C295.24 136 294.922 135.902 294.709 135.707C294.497 135.511 294.391 135.19 294.391 134.743V132.035H293.796V131.407H294.391V130.25H295.154V131.407H296.352V132.035H295.154Z" fill="#858585"/>
<path d="M267.216 148.639L265.357 145.391V144.958H265.573C265.921 144.958 266.213 144.925 266.449 144.86C266.692 144.794 266.882 144.686 267.02 144.535C267.157 144.384 267.239 144.178 267.266 143.915H265.357V143.285H267.256C267.21 143.043 267.118 142.846 266.98 142.695C266.842 142.537 266.656 142.423 266.419 142.35C266.19 142.278 265.908 142.242 265.573 142.242H265.357V141.612H269.431V142.242H267.571C267.722 142.367 267.846 142.514 267.945 142.685C268.043 142.856 268.105 143.056 268.132 143.285H269.431V143.915H268.151C268.105 144.394 267.922 144.768 267.6 145.037C267.285 145.299 266.865 145.467 266.341 145.539L268.22 148.639H267.216ZM275.407 142.301H271.952V144.545C272.103 144.335 272.326 144.164 272.622 144.033C272.917 143.895 273.235 143.827 273.576 143.827C274.121 143.827 274.564 143.941 274.905 144.171C275.246 144.394 275.489 144.686 275.633 145.047C275.784 145.401 275.859 145.778 275.859 146.178C275.859 146.651 275.771 147.074 275.594 147.448C275.416 147.822 275.144 148.117 274.777 148.334C274.416 148.55 273.967 148.658 273.429 148.658C272.74 148.658 272.182 148.481 271.756 148.127C271.329 147.773 271.07 147.3 270.978 146.71H271.854C271.939 147.084 272.12 147.376 272.395 147.586C272.671 147.796 273.019 147.901 273.438 147.901C273.957 147.901 274.347 147.746 274.609 147.438C274.872 147.123 275.003 146.71 275.003 146.198C275.003 145.686 274.872 145.293 274.609 145.017C274.347 144.735 273.96 144.594 273.448 144.594C273.101 144.594 272.795 144.679 272.533 144.85C272.277 145.014 272.09 145.24 271.972 145.529H271.126V141.514H275.407V142.301ZM277.098 145.007C277.098 143.879 277.282 143 277.65 142.37C278.017 141.734 278.66 141.416 279.578 141.416C280.49 141.416 281.13 141.734 281.497 142.37C281.865 143 282.048 143.879 282.048 145.007C282.048 146.156 281.865 147.048 281.497 147.684C281.13 148.32 280.49 148.639 279.578 148.639C278.66 148.639 278.017 148.32 277.65 147.684C277.282 147.048 277.098 146.156 277.098 145.007ZM281.163 145.007C281.163 144.437 281.123 143.954 281.045 143.561C280.972 143.161 280.818 142.839 280.582 142.596C280.352 142.354 280.018 142.232 279.578 142.232C279.132 142.232 278.791 142.354 278.555 142.596C278.325 142.839 278.171 143.161 278.092 143.561C278.02 143.954 277.984 144.437 277.984 145.007C277.984 145.598 278.02 146.093 278.092 146.493C278.171 146.894 278.325 147.215 278.555 147.458C278.791 147.701 279.132 147.822 279.578 147.822C280.018 147.822 280.352 147.701 280.582 147.458C280.818 147.215 280.972 146.894 281.045 146.493C281.123 146.093 281.163 145.598 281.163 145.007ZM283.327 145.007C283.327 143.879 283.511 143 283.878 142.37C284.245 141.734 284.888 141.416 285.807 141.416C286.719 141.416 287.358 141.734 287.726 142.37C288.093 143 288.277 143.879 288.277 145.007C288.277 146.156 288.093 147.048 287.726 147.684C287.358 148.32 286.719 148.639 285.807 148.639C284.888 148.639 284.245 148.32 283.878 147.684C283.511 147.048 283.327 146.156 283.327 145.007ZM287.391 145.007C287.391 144.437 287.352 143.954 287.273 143.561C287.201 143.161 287.047 142.839 286.811 142.596C286.581 142.354 286.246 142.232 285.807 142.232C285.361 142.232 285.02 142.354 284.783 142.596C284.554 142.839 284.4 143.161 284.321 143.561C284.249 143.954 284.213 144.437 284.213 145.007C284.213 145.598 284.249 146.093 284.321 146.493C284.4 146.894 284.554 147.215 284.783 147.458C285.02 147.701 285.361 147.822 285.807 147.822C286.246 147.822 286.581 147.701 286.811 147.458C287.047 147.215 287.201 146.894 287.273 146.493C287.352 146.093 287.391 145.598 287.391 145.007ZM289.555 145.007C289.555 143.879 289.739 143 290.107 142.37C290.474 141.734 291.117 141.416 292.035 141.416C292.947 141.416 293.587 141.734 293.954 142.37C294.322 143 294.505 143.879 294.505 145.007C294.505 146.156 294.322 147.048 293.954 147.684C293.587 148.32 292.947 148.639 292.035 148.639C291.117 148.639 290.474 148.32 290.107 147.684C289.739 147.048 289.555 146.156 289.555 145.007ZM293.62 145.007C293.62 144.437 293.58 143.954 293.502 143.561C293.429 143.161 293.275 142.839 293.039 142.596C292.809 142.354 292.475 142.232 292.035 142.232C291.589 142.232 291.248 142.354 291.012 142.596C290.782 142.839 290.628 143.161 290.549 143.561C290.477 143.954 290.441 144.437 290.441 145.007C290.441 145.598 290.477 146.093 290.549 146.493C290.628 146.894 290.782 147.215 291.012 147.458C291.248 147.701 291.589 147.822 292.035 147.822C292.475 147.822 292.809 147.701 293.039 147.458C293.275 147.215 293.429 146.894 293.502 146.493C293.58 146.093 293.62 145.598 293.62 145.007Z" fill="black"/>
<path d="M48.5128 128.158V128.778H46.9202V134H46.1574V128.778H44.5565V128.158H48.5128ZM50.2563 130.153C50.3905 129.89 50.5804 129.686 50.8263 129.541C51.0778 129.396 51.3823 129.323 51.74 129.323V130.111H51.5388C50.6838 130.111 50.2563 130.575 50.2563 131.502V134H49.4936V129.407H50.2563V130.153ZM52.3774 131.687C52.3774 131.217 52.4724 130.806 52.6624 130.454C52.8524 130.097 53.1122 129.82 53.4419 129.625C53.7772 129.429 54.1488 129.331 54.5567 129.331C54.959 129.331 55.3083 129.418 55.6044 129.591C55.9006 129.764 56.1213 129.982 56.2666 130.245V129.407H57.0378V134H56.2666V133.145C56.1157 133.413 55.8894 133.637 55.5877 133.816C55.2915 133.989 54.9451 134.075 54.5483 134.075C54.1404 134.075 53.7716 133.975 53.4419 133.774C53.1122 133.573 52.8524 133.29 52.6624 132.927C52.4724 132.564 52.3774 132.15 52.3774 131.687ZM56.2666 131.695C56.2666 131.349 56.1968 131.047 56.0571 130.79C55.9174 130.533 55.7274 130.337 55.4871 130.203C55.2524 130.063 54.9926 129.993 54.7076 129.993C54.4226 129.993 54.1627 130.06 53.928 130.195C53.6933 130.329 53.5061 130.524 53.3664 130.781C53.2267 131.038 53.1569 131.34 53.1569 131.687C53.1569 132.039 53.2267 132.346 53.3664 132.609C53.5061 132.866 53.6933 133.064 53.928 133.204C54.1627 133.338 54.4226 133.405 54.7076 133.405C54.9926 133.405 55.2524 133.338 55.4871 133.204C55.7274 133.064 55.9174 132.866 56.0571 132.609C56.1968 132.346 56.2666 132.041 56.2666 131.695ZM60.6066 129.323C61.1654 129.323 61.6181 129.493 61.9645 129.834C62.311 130.169 62.4842 130.656 62.4842 131.293V134H61.7298V131.402C61.7298 130.943 61.6153 130.594 61.3862 130.354C61.1571 130.108 60.8441 129.985 60.4474 129.985C60.045 129.985 59.7237 130.111 59.4835 130.362C59.2488 130.614 59.1314 130.98 59.1314 131.46V134H58.3687V129.407H59.1314V130.06C59.2823 129.826 59.4863 129.644 59.7433 129.516C60.0059 129.387 60.2937 129.323 60.6066 129.323ZM65.3982 134.075C65.0461 134.075 64.7304 134.017 64.451 133.899C64.1716 133.776 63.9509 133.609 63.7888 133.396C63.6268 133.179 63.5374 132.93 63.5206 132.651H64.3085C64.3309 132.88 64.437 133.067 64.627 133.212C64.8226 133.357 65.0769 133.43 65.3898 133.43C65.6804 133.43 65.9095 133.366 66.0771 133.237C66.2448 133.109 66.3286 132.947 66.3286 132.751C66.3286 132.55 66.2392 132.402 66.0604 132.307C65.8815 132.206 65.6049 132.108 65.2305 132.013C64.8897 131.924 64.6103 131.835 64.3923 131.745C64.18 131.65 63.9956 131.513 63.8391 131.335C63.6883 131.15 63.6128 130.91 63.6128 130.614C63.6128 130.379 63.6827 130.164 63.8224 129.968C63.9621 129.773 64.1604 129.619 64.4175 129.507C64.6745 129.39 64.9679 129.331 65.2976 129.331C65.8061 129.331 66.2168 129.46 66.5297 129.717C66.8427 129.974 67.0103 130.326 67.0327 130.773H66.2699C66.2531 130.533 66.1554 130.34 65.9765 130.195C65.8033 130.049 65.5686 129.977 65.2725 129.977C64.9986 129.977 64.7807 130.035 64.6187 130.153C64.4566 130.27 64.3756 130.424 64.3756 130.614C64.3756 130.765 64.4231 130.89 64.5181 130.991C64.6187 131.086 64.7416 131.164 64.8869 131.226C65.0378 131.281 65.2445 131.346 65.5071 131.418C65.8368 131.508 66.1051 131.597 66.3118 131.687C66.5186 131.77 66.6946 131.899 66.8399 132.072C66.9908 132.245 67.069 132.472 67.0746 132.751C67.0746 133.003 67.0047 133.229 66.865 133.43C66.7253 133.631 66.527 133.79 66.2699 133.908C66.0184 134.02 65.7279 134.075 65.3982 134.075ZM67.9083 131.687C67.9083 131.217 68.0033 130.806 68.1932 130.454C68.3832 130.097 68.6431 129.82 68.9728 129.625C69.308 129.429 69.6796 129.331 70.0876 129.331C70.4899 129.331 70.8392 129.418 71.1353 129.591C71.4315 129.764 71.6522 129.982 71.7975 130.245V129.407H72.5686V134H71.7975V133.145C71.6466 133.413 71.4203 133.637 71.1186 133.816C70.8224 133.989 70.4759 134.075 70.0792 134.075C69.6713 134.075 69.3025 133.975 68.9728 133.774C68.6431 133.573 68.3832 133.29 68.1932 132.927C68.0033 132.564 67.9083 132.15 67.9083 131.687ZM71.7975 131.695C71.7975 131.349 71.7276 131.047 71.5879 130.79C71.4482 130.533 71.2583 130.337 71.018 130.203C70.7833 130.063 70.5234 129.993 70.2384 129.993C69.9535 129.993 69.6936 130.06 69.4589 130.195C69.2242 130.329 69.037 130.524 68.8973 130.781C68.7576 131.038 68.6878 131.34 68.6878 131.687C68.6878 132.039 68.7576 132.346 68.8973 132.609C69.037 132.866 69.2242 133.064 69.4589 133.204C69.6936 133.338 69.9535 133.405 70.2384 133.405C70.5234 133.405 70.7833 133.338 71.018 133.204C71.2583 133.064 71.4482 132.866 71.5879 132.609C71.7276 132.346 71.7975 132.041 71.7975 131.695ZM73.6145 131.695C73.6145 131.22 73.7095 130.806 73.8995 130.454C74.0895 130.097 74.3522 129.82 74.6874 129.625C75.0283 129.429 75.4167 129.331 75.8525 129.331C76.4169 129.331 76.8807 129.468 77.2439 129.742C77.6127 130.016 77.8558 130.396 77.9732 130.882H77.1517C77.0735 130.603 76.9198 130.382 76.6907 130.22C76.4672 130.058 76.1878 129.977 75.8525 129.977C75.4167 129.977 75.0646 130.128 74.7964 130.429C74.5282 130.725 74.3941 131.147 74.3941 131.695C74.3941 132.248 74.5282 132.676 74.7964 132.977C75.0646 133.279 75.4167 133.43 75.8525 133.43C76.1878 133.43 76.4672 133.352 76.6907 133.195C76.9143 133.039 77.0679 132.815 77.1517 132.525H77.9732C77.8502 132.994 77.6044 133.371 77.2356 133.656C76.8668 133.936 76.4057 134.075 75.8525 134.075C75.4167 134.075 75.0283 133.978 74.6874 133.782C74.3522 133.586 74.0895 133.31 73.8995 132.952C73.7095 132.595 73.6145 132.176 73.6145 131.695ZM79.9632 130.035V132.743C79.9632 132.966 80.0107 133.125 80.1057 133.22C80.2007 133.31 80.3656 133.355 80.6003 133.355H81.1619V134H80.4745C80.0498 134 79.7313 133.902 79.519 133.707C79.3066 133.511 79.2005 133.19 79.2005 132.743V130.035H78.6054V129.407H79.2005V128.25H79.9632V129.407H81.1619V130.035H79.9632ZM82.5219 128.661C82.3766 128.661 82.2537 128.61 82.1531 128.51C82.0525 128.409 82.0022 128.286 82.0022 128.141C82.0022 127.996 82.0525 127.873 82.1531 127.772C82.2537 127.672 82.3766 127.621 82.5219 127.621C82.6616 127.621 82.7789 127.672 82.8739 127.772C82.9745 127.873 83.0248 127.996 83.0248 128.141C83.0248 128.286 82.9745 128.409 82.8739 128.51C82.7789 128.61 82.6616 128.661 82.5219 128.661ZM82.8907 129.407V134H82.1279V129.407H82.8907ZM86.2359 134.075C85.8056 134.075 85.4145 133.978 85.0624 133.782C84.716 133.586 84.4422 133.31 84.241 132.952C84.0454 132.589 83.9476 132.17 83.9476 131.695C83.9476 131.226 84.0482 130.812 84.2494 130.454C84.4561 130.091 84.7355 129.815 85.0876 129.625C85.4396 129.429 85.8336 129.331 86.2694 129.331C86.7053 129.331 87.0992 129.429 87.4513 129.625C87.8033 129.815 88.0799 130.088 88.2811 130.446C88.4879 130.804 88.5912 131.22 88.5912 131.695C88.5912 132.17 88.4851 132.589 88.2727 132.952C88.066 133.31 87.7838 133.586 87.4261 133.782C87.0685 133.978 86.6718 134.075 86.2359 134.075ZM86.2359 133.405C86.5097 133.405 86.7668 133.341 87.007 133.212C87.2473 133.084 87.4401 132.891 87.5854 132.634C87.7363 132.377 87.8117 132.064 87.8117 131.695C87.8117 131.326 87.7391 131.013 87.5938 130.756C87.4485 130.499 87.2585 130.309 87.0238 130.186C86.7891 130.058 86.5349 129.993 86.261 129.993C85.9816 129.993 85.7246 130.058 85.4899 130.186C85.2608 130.309 85.0764 130.499 84.9367 130.756C84.797 131.013 84.7271 131.326 84.7271 131.695C84.7271 132.069 84.7942 132.385 84.9283 132.642C85.068 132.899 85.2524 133.092 85.4815 133.22C85.7106 133.343 85.9621 133.405 86.2359 133.405ZM91.874 129.323C92.4328 129.323 92.8854 129.493 93.2319 129.834C93.5784 130.169 93.7516 130.656 93.7516 131.293V134H92.9972V131.402C92.9972 130.943 92.8827 130.594 92.6535 130.354C92.4244 130.108 92.1115 129.985 91.7148 129.985C91.3124 129.985 90.9911 130.111 90.7508 130.362C90.5161 130.614 90.3988 130.98 90.3988 131.46V134H89.636V129.407H90.3988V130.06C90.5497 129.826 90.7536 129.644 91.0107 129.516C91.2733 129.387 91.5611 129.323 91.874 129.323ZM98.0788 128.158V134H97.316V128.158H98.0788ZM101.24 128.158C101.877 128.158 102.427 128.278 102.891 128.518C103.36 128.753 103.718 129.091 103.964 129.532C104.215 129.974 104.341 130.494 104.341 131.091C104.341 131.689 104.215 132.209 103.964 132.651C103.718 133.086 103.36 133.422 102.891 133.656C102.427 133.885 101.877 134 101.24 134H99.4207V128.158H101.24ZM101.24 133.371C101.994 133.371 102.57 133.173 102.966 132.776C103.363 132.374 103.561 131.812 103.561 131.091C103.561 130.365 103.36 129.798 102.958 129.39C102.561 128.982 101.988 128.778 101.24 128.778H100.183V133.371H101.24Z" fill="#858585"/>
<path d="M43.8752 143.848H40.4211V146.092C40.572 145.882 40.7951 145.711 41.0903 145.58C41.3855 145.442 41.7037 145.373 42.0449 145.373C42.5894 145.373 43.0322 145.488 43.3734 145.718C43.7145 145.941 43.9572 146.233 44.1016 146.594C44.2525 146.948 44.3279 147.325 44.3279 147.725C44.3279 148.198 44.2393 148.621 44.0622 148.995C43.8851 149.369 43.6128 149.664 43.2454 149.88C42.8846 150.097 42.4352 150.205 41.8972 150.205C41.2084 150.205 40.6507 150.028 40.2243 149.674C39.7979 149.32 39.5387 148.847 39.4469 148.257H40.3227C40.408 148.631 40.5884 148.923 40.864 149.133C41.1395 149.343 41.4872 149.447 41.9071 149.447C42.4254 149.447 42.8157 149.293 43.0781 148.985C43.3406 148.67 43.4718 148.257 43.4718 147.745C43.4718 147.233 43.3406 146.84 43.0781 146.564C42.8157 146.282 42.4286 146.141 41.9169 146.141C41.5692 146.141 41.2642 146.226 41.0017 146.397C40.7459 146.561 40.5589 146.787 40.4408 147.076H39.5945V143.061H43.8752V143.848ZM46.7185 148.276C46.7841 148.65 46.935 148.939 47.1712 149.142C47.4139 149.346 47.7387 149.447 48.1454 149.447C48.69 149.447 49.0901 149.234 49.346 148.808C49.6084 148.381 49.7331 147.663 49.72 146.653C49.5822 146.948 49.3526 147.181 49.0311 147.351C48.7096 147.515 48.3521 147.597 47.9585 147.597C47.5189 147.597 47.1253 147.509 46.7776 147.332C46.4364 147.148 46.1674 146.882 45.9706 146.535C45.7738 146.187 45.6754 145.767 45.6754 145.275C45.6754 144.573 45.8788 144.009 46.2855 143.582C46.6923 143.149 47.2696 142.933 48.0175 142.933C48.936 142.933 49.5789 143.231 49.9463 143.828C50.3202 144.425 50.5072 145.314 50.5072 146.495C50.5072 147.322 50.4318 148.004 50.2809 148.542C50.1365 149.08 49.8872 149.49 49.533 149.772C49.1853 150.054 48.7064 150.195 48.0962 150.195C47.4271 150.195 46.9055 150.015 46.5315 149.654C46.1576 149.293 45.9444 148.834 45.8919 148.276H46.7185ZM48.1061 146.84C48.5456 146.84 48.9064 146.705 49.1886 146.436C49.4707 146.161 49.6117 145.79 49.6117 145.324C49.6117 144.832 49.4739 144.435 49.1984 144.133C48.9229 143.832 48.5358 143.681 48.0372 143.681C47.5779 143.681 47.2106 143.825 46.935 144.114C46.666 144.402 46.5315 144.783 46.5315 145.255C46.5315 145.734 46.666 146.118 46.935 146.407C47.204 146.695 47.5943 146.84 48.1061 146.84ZM51.7066 149.467C52.5398 148.798 53.1926 148.25 53.6649 147.824C54.1373 147.391 54.5342 146.941 54.8557 146.476C55.1837 146.003 55.3477 145.541 55.3477 145.088C55.3477 144.662 55.2427 144.327 55.0328 144.084C54.8294 143.835 54.4981 143.71 54.0389 143.71C53.5928 143.71 53.2451 143.851 52.9958 144.133C52.753 144.409 52.6218 144.78 52.6021 145.245H51.7362C51.7624 144.511 51.9855 143.943 52.4053 143.543C52.8252 143.143 53.3664 142.943 54.0291 142.943C54.7048 142.943 55.2395 143.13 55.6331 143.504C56.0333 143.878 56.2334 144.393 56.2334 145.049C56.2334 145.593 56.0694 146.125 55.7413 146.643C55.4199 147.155 55.0525 147.607 54.6392 148.001C54.2259 148.388 53.6977 148.841 53.0548 149.359H56.44V150.107H51.7066V149.467ZM62.061 143.848H58.6069V146.092C58.7578 145.882 58.9809 145.711 59.2761 145.58C59.5713 145.442 59.8895 145.373 60.2307 145.373C60.7752 145.373 61.218 145.488 61.5592 145.718C61.9003 145.941 62.143 146.233 62.2874 146.594C62.4383 146.948 62.5137 147.325 62.5137 147.725C62.5137 148.198 62.4251 148.621 62.248 148.995C62.0709 149.369 61.7986 149.664 61.4312 149.88C61.0704 150.097 60.621 150.205 60.083 150.205C59.3942 150.205 58.8365 150.028 58.4101 149.674C57.9837 149.32 57.7245 148.847 57.6327 148.257H58.5085C58.5938 148.631 58.7742 148.923 59.0498 149.133C59.3253 149.343 59.673 149.447 60.0929 149.447C60.6112 149.447 61.0015 149.293 61.2639 148.985C61.5264 148.67 61.6576 148.257 61.6576 147.745C61.6576 147.233 61.5264 146.84 61.2639 146.564C61.0015 146.282 60.6144 146.141 60.1027 146.141C59.755 146.141 59.45 146.226 59.1875 146.397C58.9317 146.561 58.7447 146.787 58.6266 147.076H57.7803V143.061H62.061V143.848ZM63.5365 148.601V147.922L66.9906 143.14H68.0632V147.824H69.0473V148.601H68.0632V150.186H67.1775V148.601H63.5365ZM67.2169 144.074L64.5697 147.824H67.2169V144.074ZM74.3702 143.769L71.6345 150.186H70.7291L73.5042 143.858H69.7057V143.09H74.3702V143.769ZM76.7113 146.485C76.3439 146.341 76.0618 146.131 75.865 145.856C75.6682 145.58 75.5698 145.245 75.5698 144.852C75.5698 144.498 75.6584 144.179 75.8355 143.897C76.0126 143.609 76.275 143.382 76.6227 143.218C76.977 143.048 77.4034 142.962 77.902 142.962C78.4006 142.962 78.8238 143.048 79.1715 143.218C79.5258 143.382 79.7915 143.609 79.9686 143.897C80.1523 144.179 80.2441 144.498 80.2441 144.852C80.2441 145.232 80.1425 145.567 79.9391 145.856C79.7357 146.138 79.4569 146.348 79.1026 146.485C79.5094 146.61 79.8308 146.83 80.067 147.145C80.3097 147.453 80.4311 147.827 80.4311 148.267C80.4311 148.693 80.3262 149.067 80.1162 149.388C79.9063 149.703 79.6078 149.949 79.2207 150.127C78.8402 150.297 78.4006 150.382 77.902 150.382C77.4034 150.382 76.9639 150.297 76.5834 150.127C76.2094 149.949 75.9175 149.703 75.7076 149.388C75.4976 149.067 75.3926 148.693 75.3926 148.267C75.3926 147.827 75.5107 147.45 75.7469 147.135C75.9831 146.82 76.3046 146.604 76.7113 146.485ZM79.3782 144.96C79.3782 144.56 79.2469 144.252 78.9845 144.035C78.7221 143.819 78.3613 143.71 77.902 143.71C77.4494 143.71 77.0918 143.819 76.8294 144.035C76.567 144.252 76.4358 144.563 76.4358 144.97C76.4358 145.337 76.5703 145.633 76.8392 145.856C77.1148 146.079 77.4691 146.19 77.902 146.19C78.3416 146.19 78.6959 146.079 78.9648 145.856C79.2404 145.626 79.3782 145.327 79.3782 144.96ZM77.902 146.879C77.4166 146.879 77.0197 146.994 76.7113 147.223C76.403 147.447 76.2488 147.784 76.2488 148.237C76.2488 148.657 76.3964 148.995 76.6916 149.251C76.9934 149.507 77.3969 149.634 77.902 149.634C78.4072 149.634 78.8074 149.507 79.1026 149.251C79.3978 148.995 79.5455 148.657 79.5455 148.237C79.5455 147.798 79.3946 147.463 79.0928 147.233C78.791 146.997 78.3941 146.879 77.902 146.879ZM82.821 148.276C82.8866 148.65 83.0375 148.939 83.2737 149.142C83.5164 149.346 83.8412 149.447 84.2479 149.447C84.7925 149.447 85.1927 149.234 85.4485 148.808C85.7109 148.381 85.8356 147.663 85.8225 146.653C85.6847 146.948 85.4551 147.181 85.1336 147.351C84.8121 147.515 84.4546 147.597 84.061 147.597C83.6214 147.597 83.2278 147.509 82.8801 147.332C82.5389 147.148 82.27 146.882 82.0731 146.535C81.8763 146.187 81.7779 145.767 81.7779 145.275C81.7779 144.573 81.9813 144.009 82.388 143.582C82.7948 143.149 83.3721 142.933 84.12 142.933C85.0385 142.933 85.6814 143.231 86.0488 143.828C86.4228 144.425 86.6097 145.314 86.6097 146.495C86.6097 147.322 86.5343 148.004 86.3834 148.542C86.2391 149.08 85.9898 149.49 85.6355 149.772C85.2878 150.054 84.8089 150.195 84.1987 150.195C83.5296 150.195 83.008 150.015 82.6341 149.654C82.2601 149.293 82.0469 148.834 81.9944 148.276H82.821ZM84.2086 146.84C84.6481 146.84 85.009 146.705 85.2911 146.436C85.5732 146.161 85.7142 145.79 85.7142 145.324C85.7142 144.832 85.5764 144.435 85.3009 144.133C85.0254 143.832 84.6383 143.681 84.1397 143.681C83.6805 143.681 83.3131 143.825 83.0375 144.114C82.7686 144.402 82.6341 144.783 82.6341 145.255C82.6341 145.734 82.7686 146.118 83.0375 146.407C83.3065 146.695 83.6969 146.84 84.2086 146.84ZM91.8832 144.763C91.7389 144.035 91.2895 143.671 90.535 143.671C89.9512 143.671 89.5149 143.897 89.2262 144.35C88.9376 144.796 88.7965 145.534 88.8031 146.564C88.954 146.223 89.2033 145.957 89.551 145.767C89.9052 145.57 90.2989 145.472 90.7319 145.472C91.4076 145.472 91.9455 145.682 92.3457 146.102C92.7525 146.522 92.9559 147.102 92.9559 147.843C92.9559 148.29 92.8673 148.69 92.6902 149.044C92.5196 149.398 92.2572 149.68 91.9029 149.89C91.5552 150.1 91.132 150.205 90.6334 150.205C89.9577 150.205 89.4296 150.054 89.0491 149.753C88.6686 149.451 88.4029 149.034 88.252 148.503C88.1011 147.971 88.0256 147.315 88.0256 146.535C88.0256 144.127 88.8654 142.923 90.5449 142.923C91.1878 142.923 91.693 143.097 92.0604 143.445C92.4277 143.792 92.6442 144.232 92.7098 144.763H91.8832ZM90.5449 146.23C90.2628 146.23 89.9971 146.289 89.7478 146.407C89.4985 146.518 89.2951 146.692 89.1377 146.928C88.9868 147.158 88.9113 147.44 88.9113 147.775C88.9113 148.273 89.0556 148.68 89.3443 148.995C89.633 149.303 90.0463 149.457 90.5842 149.457C91.0435 149.457 91.4076 149.316 91.6766 149.034C91.9521 148.746 92.0899 148.358 92.0899 147.873C92.0899 147.361 91.9587 146.961 91.6962 146.672C91.4338 146.377 91.05 146.23 90.5449 146.23ZM94.2132 146.554C94.2132 145.426 94.3969 144.547 94.7643 143.917C95.1316 143.281 95.7746 142.962 96.693 142.962C97.605 142.962 98.2446 143.281 98.612 143.917C98.9794 144.547 99.1631 145.426 99.1631 146.554C99.1631 147.702 98.9794 148.595 98.612 149.231C98.2446 149.867 97.605 150.186 96.693 150.186C95.7746 150.186 95.1316 149.867 94.7643 149.231C94.3969 148.595 94.2132 147.702 94.2132 146.554ZM98.2774 146.554C98.2774 145.984 98.238 145.501 98.1593 145.108C98.0872 144.708 97.933 144.386 97.6968 144.143C97.4672 143.901 97.1326 143.779 96.693 143.779C96.2469 143.779 95.9058 143.901 95.6696 144.143C95.44 144.386 95.2858 144.708 95.2071 145.108C95.1349 145.501 95.0988 145.984 95.0988 146.554C95.0988 147.145 95.1349 147.64 95.2071 148.04C95.2858 148.44 95.44 148.762 95.6696 149.005C95.9058 149.247 96.2469 149.369 96.693 149.369C97.1326 149.369 97.4672 149.247 97.6968 149.005C97.933 148.762 98.0872 148.44 98.1593 148.04C98.238 147.64 98.2774 147.145 98.2774 146.554ZM100.333 149.467C101.167 148.798 101.819 148.25 102.292 147.824C102.764 147.391 103.161 146.941 103.482 146.476C103.811 146.003 103.975 145.541 103.975 145.088C103.975 144.662 103.87 144.327 103.66 144.084C103.456 143.835 103.125 143.71 102.666 143.71C102.22 143.71 101.872 143.851 101.623 144.133C101.38 144.409 101.249 144.78 101.229 145.245H100.363C100.389 144.511 100.612 143.943 101.032 143.543C101.452 143.143 101.993 142.943 102.656 142.943C103.332 142.943 103.866 143.13 104.26 143.504C104.66 143.878 104.86 144.393 104.86 145.049C104.86 145.593 104.696 146.125 104.368 146.643C104.047 147.155 103.679 147.607 103.266 148.001C102.853 148.388 102.325 148.841 101.682 149.359H105.067V150.107H100.333V149.467ZM106.132 144.862C106.177 144.258 106.41 143.786 106.83 143.445C107.25 143.103 107.795 142.933 108.464 142.933C108.91 142.933 109.294 143.015 109.615 143.179C109.943 143.336 110.189 143.553 110.353 143.828C110.524 144.104 110.609 144.416 110.609 144.763C110.609 145.17 110.491 145.521 110.255 145.816C110.025 146.111 109.723 146.302 109.349 146.387V146.436C109.776 146.541 110.114 146.748 110.363 147.056C110.612 147.365 110.737 147.768 110.737 148.267C110.737 148.641 110.652 148.978 110.481 149.28C110.311 149.575 110.055 149.808 109.714 149.979C109.372 150.149 108.962 150.235 108.484 150.235C107.788 150.235 107.217 150.054 106.771 149.694C106.325 149.326 106.076 148.808 106.023 148.139H106.889C106.935 148.532 107.096 148.854 107.372 149.103C107.647 149.352 108.014 149.477 108.474 149.477C108.933 149.477 109.281 149.359 109.517 149.123C109.76 148.88 109.881 148.568 109.881 148.188C109.881 147.696 109.717 147.342 109.389 147.125C109.061 146.909 108.566 146.8 107.903 146.8H107.677V146.052H107.913C108.516 146.046 108.972 145.947 109.281 145.757C109.589 145.56 109.743 145.259 109.743 144.852C109.743 144.504 109.628 144.225 109.399 144.015C109.176 143.805 108.854 143.7 108.434 143.7C108.028 143.7 107.7 143.805 107.45 144.015C107.201 144.225 107.053 144.507 107.007 144.862H106.132Z" fill="black"/>
<rect x="34.4655" y="138.469" width="81.82" height="15.6192" stroke="#FF0808" stroke-width="0.930969"/>
<path d="M167.165 134.137L178.544 94L189.1 114.008L167.165 134.137Z" fill="#028C3C"/>
<path d="M160 134.137L171.379 94L181.935 114.008L160 134.137Z" fill="#FE7A09"/>
</g>
<defs>
<clipPath id="clip0_5244_105215">
<rect width="350" height="180" fill="white"/>
</clipPath>
</defs>
</svg>
