<svg width="350" height="180" viewBox="0 0 350 180" fill="none" xmlns="http://www.w3.org/2000/svg">
<rect width="350" height="180" fill="#F7F5F7"/>
<path d="M15.7085 119.931V125.627C15.7085 126.428 15.9022 127.022 16.2897 127.41C16.6858 127.797 17.2325 127.991 17.93 127.991C18.6188 127.991 19.157 127.797 19.5444 127.41C19.9405 127.022 20.1386 126.428 20.1386 125.627V119.931H21.3139V125.614C21.3139 126.363 21.1632 126.996 20.8619 127.513C20.5605 128.021 20.1515 128.4 19.6349 128.649C19.1268 128.899 18.5542 129.024 17.9171 129.024C17.2799 129.024 16.703 128.899 16.1864 128.649C15.6783 128.4 15.2736 128.021 14.9723 127.513C14.6795 126.996 14.5331 126.363 14.5331 125.614V119.931H15.7085ZM29.3579 122.566C29.3579 123.315 29.0996 123.94 28.583 124.439C28.0749 124.93 27.2957 125.175 26.2452 125.175H24.5145V128.934H23.3392V119.931H26.2452C27.2612 119.931 28.0319 120.177 28.5571 120.668C29.091 121.158 29.3579 121.791 29.3579 122.566ZM26.2452 124.206C26.8996 124.206 27.3818 124.064 27.6918 123.78C28.0017 123.496 28.1567 123.091 28.1567 122.566C28.1567 121.455 27.5196 120.9 26.2452 120.9H24.5145V124.206H26.2452ZM32.0586 119.931V128.934H30.8833V119.931H32.0586ZM43.1751 119.931V120.887H40.7211V128.934H39.5458V120.887H37.0789V119.931H43.1751ZM45.8618 123.005C46.0685 122.601 46.3612 122.286 46.7401 122.062C47.1275 121.839 47.5968 121.727 48.1479 121.727V122.941H47.8379C46.5205 122.941 45.8618 123.655 45.8618 125.085V128.934H44.6865V121.856H45.8618V123.005ZM49.1301 125.369C49.1301 124.646 49.2765 124.013 49.5692 123.47C49.862 122.919 50.2624 122.493 50.7704 122.192C51.287 121.89 51.8596 121.74 52.4882 121.74C53.1081 121.74 53.6463 121.873 54.1027 122.14C54.559 122.407 54.8991 122.743 55.123 123.147V121.856H56.3113V128.934H55.123V127.616C54.8905 128.029 54.5418 128.374 54.0768 128.649C53.6205 128.916 53.0866 129.05 52.4753 129.05C51.8467 129.05 51.2784 128.895 50.7704 128.585C50.2624 128.275 49.862 127.84 49.5692 127.28C49.2765 126.721 49.1301 126.084 49.1301 125.369ZM55.123 125.382C55.123 124.848 55.0154 124.383 54.8001 123.987C54.5848 123.591 54.2921 123.289 53.9218 123.083C53.5602 122.867 53.1598 122.76 52.7207 122.76C52.2815 122.76 51.8812 122.863 51.5195 123.07C51.1579 123.276 50.8694 123.578 50.6542 123.974C50.4389 124.37 50.3313 124.835 50.3313 125.369C50.3313 125.911 50.4389 126.385 50.6542 126.79C50.8694 127.186 51.1579 127.491 51.5195 127.707C51.8812 127.913 52.2815 128.017 52.7207 128.017C53.1598 128.017 53.5602 127.913 53.9218 127.707C54.2921 127.491 54.5848 127.186 54.8001 126.79C55.0154 126.385 55.123 125.916 55.123 125.382ZM61.8105 121.727C62.6716 121.727 63.369 121.989 63.9029 122.514C64.4367 123.031 64.7037 123.78 64.7037 124.762V128.934H63.5412V124.93C63.5412 124.224 63.3647 123.685 63.0117 123.315C62.6587 122.936 62.1765 122.747 61.5651 122.747C60.9452 122.747 60.4501 122.941 60.0798 123.328C59.7182 123.716 59.5374 124.28 59.5374 125.02V128.934H58.362V121.856H59.5374V122.863C59.7698 122.502 60.0841 122.222 60.4802 122.024C60.8849 121.826 61.3284 121.727 61.8105 121.727ZM69.1938 129.05C68.6513 129.05 68.1649 128.959 67.7343 128.779C67.3038 128.589 66.9637 128.331 66.714 128.004C66.4643 127.668 66.3265 127.285 66.3007 126.854H67.5148C67.5492 127.207 67.7128 127.496 68.0056 127.72C68.3069 127.943 68.6987 128.055 69.1809 128.055C69.6286 128.055 69.9817 127.956 70.24 127.758C70.4983 127.56 70.6275 127.311 70.6275 127.009C70.6275 126.699 70.4897 126.471 70.2142 126.325C69.9386 126.17 69.5124 126.019 68.9355 125.873C68.4103 125.735 67.9797 125.597 67.6439 125.459C67.3167 125.313 67.0326 125.102 66.7915 124.826C66.559 124.542 66.4428 124.172 66.4428 123.716C66.4428 123.354 66.5504 123.022 66.7656 122.721C66.9809 122.42 67.2866 122.183 67.6827 122.011C68.0787 121.83 68.5308 121.74 69.0388 121.74C69.8224 121.74 70.4552 121.938 70.9374 122.334C71.4196 122.73 71.6779 123.272 71.7124 123.961H70.537C70.5112 123.591 70.3605 123.294 70.085 123.07C69.8181 122.846 69.4564 122.734 69.0001 122.734C68.5782 122.734 68.2423 122.824 67.9926 123.005C67.7429 123.186 67.6181 123.423 67.6181 123.716C67.6181 123.948 67.6913 124.142 67.8377 124.297C67.9926 124.443 68.1821 124.564 68.4059 124.658C68.6384 124.745 68.957 124.844 69.3617 124.956C69.8697 125.093 70.283 125.231 70.6016 125.369C70.9202 125.498 71.1914 125.696 71.4153 125.963C71.6478 126.23 71.7683 126.579 71.777 127.009C71.777 127.397 71.6693 127.745 71.4541 128.055C71.2388 128.365 70.9331 128.611 70.537 128.792C70.1496 128.964 69.7018 129.05 69.1938 129.05ZM73.0616 125.369C73.0616 124.646 73.208 124.013 73.5007 123.47C73.7935 122.919 74.1939 122.493 74.7019 122.192C75.2185 121.89 75.7911 121.74 76.4197 121.74C77.0396 121.74 77.5778 121.873 78.0341 122.14C78.4905 122.407 78.8306 122.743 79.0545 123.147V121.856H80.2427V128.934H79.0545V127.616C78.822 128.029 78.4733 128.374 78.0083 128.649C77.5519 128.916 77.0181 129.05 76.4068 129.05C75.7782 129.05 75.2099 128.895 74.7019 128.585C74.1939 128.275 73.7935 127.84 73.5007 127.28C73.208 126.721 73.0616 126.084 73.0616 125.369ZM79.0545 125.382C79.0545 124.848 78.9469 124.383 78.7316 123.987C78.5163 123.591 78.2236 123.289 77.8533 123.083C77.4917 122.867 77.0913 122.76 76.6522 122.76C76.213 122.76 75.8126 122.863 75.451 123.07C75.0893 123.276 74.8009 123.578 74.5856 123.974C74.3704 124.37 74.2627 124.835 74.2627 125.369C74.2627 125.911 74.3704 126.385 74.5856 126.79C74.8009 127.186 75.0893 127.491 75.451 127.707C75.8126 127.913 76.213 128.017 76.6522 128.017C77.0913 128.017 77.4917 127.913 77.8533 127.707C78.2236 127.491 78.5163 127.186 78.7316 126.79C78.9469 126.385 79.0545 125.916 79.0545 125.382ZM81.8544 125.382C81.8544 124.65 82.0008 124.013 82.2935 123.47C82.5863 122.919 82.991 122.493 83.5076 122.192C84.0328 121.89 84.6313 121.74 85.3029 121.74C86.1725 121.74 86.8872 121.95 87.4469 122.372C88.0152 122.794 88.3897 123.38 88.5706 124.129H87.3048C87.1843 123.698 86.9475 123.358 86.5945 123.109C86.25 122.859 85.8195 122.734 85.3029 122.734C84.6313 122.734 84.0888 122.967 83.6755 123.431C83.2622 123.888 83.0555 124.538 83.0555 125.382C83.0555 126.234 83.2622 126.893 83.6755 127.358C84.0888 127.823 84.6313 128.055 85.3029 128.055C85.8195 128.055 86.25 127.935 86.5945 127.694C86.9389 127.453 87.1757 127.108 87.3048 126.66H88.5706C88.3811 127.384 88.0023 127.965 87.434 128.404C86.8657 128.835 86.1553 129.05 85.3029 129.05C84.6313 129.05 84.0328 128.899 83.5076 128.598C82.991 128.296 82.5863 127.87 82.2935 127.319C82.0008 126.768 81.8544 126.122 81.8544 125.382ZM91.637 122.824V126.996C91.637 127.341 91.7102 127.586 91.8566 127.732C92.003 127.87 92.257 127.939 92.6186 127.939H93.484V128.934H92.4249C91.7705 128.934 91.2797 128.783 90.9525 128.482C90.6253 128.18 90.4617 127.685 90.4617 126.996V122.824H89.5447V121.856H90.4617V120.073H91.637V121.856H93.484V122.824H91.637ZM95.5797 120.706C95.3558 120.706 95.1664 120.629 95.0114 120.474C94.8564 120.319 94.7789 120.129 94.7789 119.905C94.7789 119.682 94.8564 119.492 95.0114 119.337C95.1664 119.182 95.3558 119.105 95.5797 119.105C95.7949 119.105 95.9758 119.182 96.1221 119.337C96.2771 119.492 96.3546 119.682 96.3546 119.905C96.3546 120.129 96.2771 120.319 96.1221 120.474C95.9758 120.629 95.7949 120.706 95.5797 120.706ZM96.148 121.856V128.934H94.9726V121.856H96.148ZM101.303 129.05C100.64 129.05 100.037 128.899 99.4944 128.598C98.9605 128.296 98.5386 127.87 98.2286 127.319C97.9273 126.759 97.7766 126.114 97.7766 125.382C97.7766 124.658 97.9316 124.021 98.2415 123.47C98.5601 122.911 98.9906 122.484 99.5331 122.192C100.076 121.89 100.683 121.74 101.354 121.74C102.026 121.74 102.633 121.89 103.175 122.192C103.718 122.484 104.144 122.906 104.454 123.457C104.773 124.008 104.932 124.65 104.932 125.382C104.932 126.114 104.768 126.759 104.441 127.319C104.123 127.87 103.688 128.296 103.137 128.598C102.586 128.899 101.974 129.05 101.303 129.05ZM101.303 128.017C101.724 128.017 102.121 127.918 102.491 127.72C102.861 127.521 103.158 127.224 103.382 126.828C103.614 126.432 103.731 125.95 103.731 125.382C103.731 124.813 103.619 124.331 103.395 123.935C103.171 123.539 102.878 123.246 102.517 123.057C102.155 122.859 101.763 122.76 101.341 122.76C100.911 122.76 100.515 122.859 100.153 123.057C99.8 123.246 99.5159 123.539 99.3006 123.935C99.0854 124.331 98.9777 124.813 98.9777 125.382C98.9777 125.959 99.0811 126.445 99.2877 126.841C99.503 127.237 99.7871 127.534 100.14 127.732C100.493 127.922 100.881 128.017 101.303 128.017ZM109.99 121.727C110.851 121.727 111.549 121.989 112.083 122.514C112.617 123.031 112.883 123.78 112.883 124.762V128.934H111.721V124.93C111.721 124.224 111.545 123.685 111.191 123.315C110.838 122.936 110.356 122.747 109.745 122.747C109.125 122.747 108.63 122.941 108.26 123.328C107.898 123.716 107.717 124.28 107.717 125.02V128.934H106.542V121.856H107.717V122.863C107.95 122.502 108.264 122.222 108.66 122.024C109.065 121.826 109.508 121.727 109.99 121.727ZM119.551 119.931V128.934H118.376V119.931H119.551ZM124.422 119.931C125.403 119.931 126.251 120.116 126.966 120.487C127.689 120.848 128.24 121.369 128.619 122.049C129.007 122.73 129.2 123.531 129.2 124.452C129.2 125.373 129.007 126.174 128.619 126.854C128.24 127.526 127.689 128.042 126.966 128.404C126.251 128.757 125.403 128.934 124.422 128.934H121.619V119.931H124.422ZM124.422 127.965C125.584 127.965 126.471 127.659 127.082 127.048C127.694 126.428 127.999 125.563 127.999 124.452C127.999 123.332 127.689 122.458 127.069 121.83C126.458 121.201 125.575 120.887 124.422 120.887H122.794V127.965H124.422Z" fill="#858585"/>
<path d="M29.3471 143.319L25.0636 153.365H23.6461L27.9912 143.458H22.0436V142.256H29.3471V143.319ZM33.0127 147.572C32.4374 147.346 31.9957 147.017 31.6876 146.586C31.3794 146.154 31.2253 145.63 31.2253 145.014C31.2253 144.459 31.364 143.961 31.6413 143.519C31.9187 143.067 32.3296 142.713 32.874 142.456C33.4287 142.189 34.0964 142.056 34.8771 142.056C35.6577 142.056 36.3203 142.189 36.8647 142.456C37.4194 142.713 37.8354 143.067 38.1128 143.519C38.4004 143.961 38.5442 144.459 38.5442 145.014C38.5442 145.61 38.385 146.134 38.0666 146.586C37.7481 147.027 37.3116 147.356 36.7569 147.572C37.3937 147.767 37.8971 148.111 38.2669 148.604C38.6469 149.087 38.837 149.672 38.837 150.361C38.837 151.028 38.6726 151.614 38.3439 152.117C38.0152 152.61 37.5478 152.995 36.9418 153.273C36.346 153.54 35.6577 153.673 34.8771 153.673C34.0964 153.673 33.4082 153.54 32.8124 153.273C32.2269 152.995 31.7697 152.61 31.441 152.117C31.1123 151.614 30.948 151.028 30.948 150.361C30.948 149.672 31.1329 149.082 31.5027 148.589C31.8725 148.096 32.3758 147.757 33.0127 147.572ZM37.1883 145.183C37.1883 144.557 36.9828 144.074 36.572 143.735C36.1611 143.396 35.5961 143.227 34.8771 143.227C34.1683 143.227 33.6085 143.396 33.1976 143.735C32.7867 144.074 32.5812 144.562 32.5812 145.199C32.5812 145.774 32.7918 146.236 33.213 146.586C33.6444 146.935 34.1991 147.11 34.8771 147.11C35.5653 147.11 36.12 146.935 36.5411 146.586C36.9726 146.226 37.1883 145.759 37.1883 145.183ZM34.8771 148.188C34.1169 148.188 33.4955 148.368 33.0127 148.727C32.5299 149.077 32.2885 149.606 32.2885 150.314C32.2885 150.972 32.5196 151.501 32.9819 151.901C33.4544 152.302 34.0861 152.502 34.8771 152.502C35.668 152.502 36.2946 152.302 36.7569 151.901C37.2191 151.501 37.4502 150.972 37.4502 150.314C37.4502 149.626 37.214 149.102 36.7414 148.743C36.2689 148.373 35.6475 148.188 34.8771 148.188ZM42.579 150.376C42.6817 150.962 42.918 151.414 43.2878 151.732C43.6678 152.05 44.1763 152.21 44.8132 152.21C45.6657 152.21 46.2923 151.876 46.693 151.208C47.1038 150.54 47.299 149.416 47.2785 147.834C47.0628 148.296 46.7032 148.661 46.1999 148.928C45.6966 149.184 45.1367 149.313 44.5204 149.313C43.8322 149.313 43.2158 149.174 42.6714 148.897C42.1373 148.609 41.7161 148.193 41.408 147.649C41.0998 147.104 40.9457 146.447 40.9457 145.677C40.9457 144.577 41.2641 143.694 41.901 143.026C42.5379 142.348 43.4418 142.009 44.6129 142.009C46.0509 142.009 47.0576 142.477 47.6329 143.412C48.2184 144.346 48.5111 145.738 48.5111 147.587C48.5111 148.881 48.393 149.95 48.1567 150.792C47.9307 151.634 47.5404 152.276 46.9857 152.718C46.4413 153.16 45.6914 153.381 44.7361 153.381C43.6884 153.381 42.8717 153.098 42.2862 152.533C41.7007 151.968 41.3669 151.249 41.2847 150.376H42.579ZM44.7515 148.126C45.4398 148.126 46.0047 147.916 46.4464 147.495C46.8881 147.063 47.109 146.483 47.109 145.754C47.109 144.983 46.8933 144.362 46.4618 143.889C46.0304 143.417 45.4244 143.18 44.6437 143.18C43.9246 143.18 43.3494 143.406 42.918 143.858C42.4968 144.31 42.2862 144.906 42.2862 145.646C42.2862 146.396 42.4968 146.997 42.918 147.448C43.3391 147.9 43.9503 148.126 44.7515 148.126ZM57.6618 143.442H52.2535V146.955C52.4898 146.627 52.839 146.36 53.3013 146.154C53.7635 145.938 54.2617 145.831 54.7958 145.831C55.6484 145.831 56.3418 146.01 56.8759 146.37C57.4101 146.719 57.7902 147.176 58.0162 147.741C58.2524 148.296 58.3705 148.887 58.3705 149.513C58.3705 150.253 58.2319 150.915 57.9545 151.501C57.6772 152.086 57.2509 152.549 56.6756 152.888C56.1107 153.227 55.407 153.396 54.5647 153.396C53.4862 153.396 52.613 153.119 51.9453 152.564C51.2776 152.009 50.8719 151.27 50.7281 150.345H52.0994C52.233 150.931 52.5154 151.388 52.9469 151.717C53.3783 152.045 53.9227 152.21 54.5801 152.21C55.3916 152.21 56.0028 151.968 56.4137 151.485C56.8246 150.992 57.03 150.345 57.03 149.544C57.03 148.743 56.8246 148.126 56.4137 147.695C56.0028 147.253 55.3968 147.032 54.5955 147.032C54.0511 147.032 53.5735 147.166 53.1626 147.433C52.762 147.69 52.4692 148.044 52.2843 148.496H50.9592V142.21H57.6618V143.442ZM59.9719 150.885V149.821L65.3802 142.333H67.0597V149.667H68.6005V150.885H67.0597V153.365H65.6729V150.885H59.9719ZM65.7346 143.797L61.5898 149.667H65.7346V143.797ZM69.7084 143.504V142.225H72.6052V153.365H71.1876V143.504H69.7084ZM74.9212 152.24C76.2258 151.193 77.2478 150.335 77.9874 149.667C78.727 148.989 79.3485 148.286 79.8518 147.556C80.3654 146.817 80.6222 146.093 80.6222 145.384C80.6222 144.716 80.4579 144.192 80.1292 143.812C79.8107 143.422 79.292 143.227 78.5729 143.227C77.8744 143.227 77.33 143.448 76.9397 143.889C76.5596 144.321 76.3542 144.901 76.3233 145.63H74.9674C75.0085 144.48 75.3578 143.591 76.0152 142.965C76.6726 142.338 77.52 142.025 78.5575 142.025C79.6155 142.025 80.4527 142.318 81.0691 142.903C81.6956 143.489 82.0089 144.295 82.0089 145.322C82.0089 146.175 81.7521 147.007 81.2385 147.818C80.7352 148.62 80.16 149.328 79.5128 149.945C78.8657 150.551 78.0388 151.259 77.0321 152.071H82.3325V153.242H74.9212V152.24ZM90.2399 144.875C90.0139 143.735 89.3103 143.165 88.129 143.165C87.2148 143.165 86.5317 143.519 86.0797 144.228C85.6277 144.927 85.4069 146.082 85.4172 147.695C85.6534 147.161 86.0438 146.745 86.5882 146.447C87.1429 146.139 87.7592 145.985 88.4372 145.985C89.4952 145.985 90.3375 146.313 90.9641 146.971C91.601 147.628 91.9194 148.537 91.9194 149.698C91.9194 150.397 91.7807 151.023 91.5034 151.578C91.2363 152.133 90.8254 152.574 90.2707 152.903C89.7263 153.232 89.0638 153.396 88.2831 153.396C87.2251 153.396 86.3982 153.16 85.8024 152.687C85.2066 152.215 84.7906 151.562 84.5543 150.73C84.318 149.898 84.1999 148.871 84.1999 147.649C84.1999 143.879 85.5147 141.994 88.1444 141.994C89.1511 141.994 89.942 142.266 90.5173 142.811C91.0925 143.355 91.4315 144.043 91.5342 144.875H90.2399ZM88.1444 147.171C87.7027 147.171 87.2867 147.264 86.8963 147.448C86.506 147.623 86.1876 147.895 85.941 148.265C85.7048 148.625 85.5867 149.066 85.5867 149.59C85.5867 150.371 85.8126 151.008 86.2646 151.501C86.7166 151.984 87.3637 152.225 88.206 152.225C88.9251 152.225 89.4952 152.004 89.9163 151.562C90.3478 151.111 90.5635 150.504 90.5635 149.744C90.5635 148.943 90.358 148.316 89.9472 147.865C89.5363 147.402 88.9354 147.171 88.1444 147.171ZM100.991 143.442H95.5829V146.955C95.8192 146.627 96.1685 146.36 96.6307 146.154C97.0929 145.938 97.5911 145.831 98.1253 145.831C98.9779 145.831 99.6712 146.01 100.205 146.37C100.74 146.719 101.12 147.176 101.346 147.741C101.582 148.296 101.7 148.887 101.7 149.513C101.7 150.253 101.561 150.915 101.284 151.501C101.007 152.086 100.58 152.549 100.005 152.888C99.4401 153.227 98.7365 153.396 97.8942 153.396C96.8156 153.396 95.9425 153.119 95.2748 152.564C94.6071 152.009 94.2013 151.27 94.0575 150.345H95.4289C95.5624 150.931 95.8449 151.388 96.2763 151.717C96.7077 152.045 97.2522 152.21 97.9096 152.21C98.7211 152.21 99.3323 151.968 99.7431 151.485C100.154 150.992 100.359 150.345 100.359 149.544C100.359 148.743 100.154 148.126 99.7431 147.695C99.3323 147.253 98.7262 147.032 97.925 147.032C97.3806 147.032 96.9029 147.166 96.492 147.433C96.0914 147.69 95.7987 148.044 95.6138 148.496H94.2887V142.21H100.991V143.442ZM110.497 143.319L106.213 153.365H104.796L109.141 143.458H103.193V142.256H110.497V143.319ZM114.163 147.572C113.587 147.346 113.146 147.017 112.837 146.586C112.529 146.154 112.375 145.63 112.375 145.014C112.375 144.459 112.514 143.961 112.791 143.519C113.069 143.067 113.479 142.713 114.024 142.456C114.579 142.189 115.246 142.056 116.027 142.056C116.808 142.056 117.47 142.189 118.015 142.456C118.569 142.713 118.985 143.067 119.263 143.519C119.55 143.961 119.694 144.459 119.694 145.014C119.694 145.61 119.535 146.134 119.216 146.586C118.898 147.027 118.461 147.356 117.907 147.572C118.544 147.767 119.047 148.111 119.417 148.604C119.797 149.087 119.987 149.672 119.987 150.361C119.987 151.028 119.822 151.614 119.494 152.117C119.165 152.61 118.698 152.995 118.092 153.273C117.496 153.54 116.808 153.673 116.027 153.673C115.246 153.673 114.558 153.54 113.962 153.273C113.377 152.995 112.92 152.61 112.591 152.117C112.262 151.614 112.098 151.028 112.098 150.361C112.098 149.672 112.283 149.082 112.653 148.589C113.022 148.096 113.526 147.757 114.163 147.572ZM118.338 145.183C118.338 144.557 118.133 144.074 117.722 143.735C117.311 143.396 116.746 143.227 116.027 143.227C115.318 143.227 114.758 143.396 114.347 143.735C113.937 144.074 113.731 144.562 113.731 145.199C113.731 145.774 113.942 146.236 114.363 146.586C114.794 146.935 115.349 147.11 116.027 147.11C116.715 147.11 117.27 146.935 117.691 146.586C118.122 146.226 118.338 145.759 118.338 145.183ZM116.027 148.188C115.267 148.188 114.645 148.368 114.163 148.727C113.68 149.077 113.438 149.606 113.438 150.314C113.438 150.972 113.669 151.501 114.132 151.901C114.604 152.302 115.236 152.502 116.027 152.502C116.818 152.502 117.444 152.302 117.907 151.901C118.369 151.501 118.6 150.972 118.6 150.314C118.6 149.626 118.364 149.102 117.891 148.743C117.419 148.373 116.797 148.188 116.027 148.188Z" fill="black"/>
<rect x="14.8607" y="135.244" width="113.302" height="24.4558" stroke="#FF0808" stroke-width="1.45766"/>
<rect y="85.1797" width="350" height="1.59091" fill="#D9D9D9"/>
<path d="M69.9361 29.7307C69.9361 30.7036 69.6006 31.5143 68.9297 32.1629C68.2699 32.8003 67.2579 33.119 65.8937 33.119H63.646V38H62.1197V26.309H65.8937C67.2132 26.309 68.214 26.6277 68.8961 27.265C69.5894 27.9024 69.9361 28.7243 69.9361 29.7307ZM65.8937 31.861C66.7435 31.861 67.3697 31.6764 67.7723 31.3074C68.1749 30.9384 68.3761 30.4129 68.3761 29.7307C68.3761 28.2882 67.5487 27.567 65.8937 27.567H63.646V31.861H65.8937ZM71.3467 33.3706C71.3467 32.4312 71.5368 31.6093 71.917 30.9049C72.2972 30.1892 72.8172 29.6357 73.4769 29.2443C74.1479 28.8529 74.8915 28.6572 75.7078 28.6572C76.5129 28.6572 77.2118 28.8306 77.8045 29.1772C78.3971 29.5239 78.8388 29.96 79.1296 30.4855V28.8082H80.6727V38H79.1296V36.2891C78.8276 36.8259 78.3748 37.2732 77.7709 37.631C77.1783 37.9776 76.485 38.151 75.691 38.151C74.8747 38.151 74.1367 37.9497 73.4769 37.5471C72.8172 37.1446 72.2972 36.5799 71.917 35.853C71.5368 35.1262 71.3467 34.2987 71.3467 33.3706ZM79.1296 33.3873C79.1296 32.694 78.9898 32.0902 78.7102 31.5758C78.4307 31.0614 78.0505 30.67 77.5696 30.4017C77.1 30.1221 76.58 29.9823 76.0097 29.9823C75.4394 29.9823 74.9195 30.1165 74.4498 30.3849C73.9801 30.6533 73.6055 31.0446 73.326 31.559C73.0464 32.0734 72.9066 32.6773 72.9066 33.3706C72.9066 34.075 73.0464 34.6901 73.326 35.2156C73.6055 35.73 73.9801 36.127 74.4498 36.4065C74.9195 36.6749 75.4394 36.8091 76.0097 36.8091C76.58 36.8091 77.1 36.6749 77.5696 36.4065C78.0505 36.127 78.4307 35.73 78.7102 35.2156C78.9898 34.6901 79.1296 34.0806 79.1296 33.3873ZM84.1244 27.3154C83.8336 27.3154 83.5876 27.2147 83.3863 27.0134C83.185 26.8122 83.0844 26.5662 83.0844 26.2754C83.0844 25.9847 83.185 25.7387 83.3863 25.5374C83.5876 25.3361 83.8336 25.2355 84.1244 25.2355C84.4039 25.2355 84.6387 25.3361 84.8288 25.5374C85.0301 25.7387 85.1308 25.9847 85.1308 26.2754C85.1308 26.5662 85.0301 26.8122 84.8288 27.0134C84.6387 27.2147 84.4039 27.3154 84.1244 27.3154ZM84.8624 28.8082V38H83.336V28.8082H84.8624ZM86.9774 33.3706C86.9774 32.4312 87.1675 31.6093 87.5477 30.9049C87.9279 30.1892 88.4479 29.6357 89.1076 29.2443C89.7786 28.8529 90.5278 28.6572 91.3552 28.6572C92.0709 28.6572 92.7363 28.825 93.3513 29.1604C93.9663 29.4847 94.436 29.9152 94.7602 30.452V25.5877H96.3034V38H94.7602V36.2723C94.4583 36.8203 94.011 37.2732 93.4184 37.631C92.8257 37.9776 92.1324 38.151 91.3385 38.151C90.5222 38.151 89.7786 37.9497 89.1076 37.5471C88.4479 37.1446 87.9279 36.5799 87.5477 35.853C87.1675 35.1262 86.9774 34.2987 86.9774 33.3706ZM94.7602 33.3873C94.7602 32.694 94.6205 32.0902 94.3409 31.5758C94.0613 31.0614 93.6812 30.67 93.2003 30.4017C92.7307 30.1221 92.2107 29.9823 91.6404 29.9823C91.0701 29.9823 90.5501 30.1165 90.0805 30.3849C89.6108 30.6533 89.2362 31.0446 88.9567 31.559C88.6771 32.0734 88.5373 32.6773 88.5373 33.3706C88.5373 34.075 88.6771 34.6901 88.9567 35.2156C89.2362 35.73 89.6108 36.127 90.0805 36.4065C90.5501 36.6749 91.0701 36.8091 91.6404 36.8091C92.2107 36.8091 92.7307 36.6749 93.2003 36.4065C93.6812 36.127 94.0613 35.73 94.3409 35.2156C94.6205 34.6901 94.7602 34.0806 94.7602 33.3873ZM106.726 38L103.556 32.4648V31.7268H103.925C104.518 31.7268 105.015 31.6709 105.418 31.559C105.831 31.4472 106.156 31.2627 106.391 31.0055C106.625 30.7483 106.765 30.3961 106.81 29.9488H103.556V28.8753H106.793C106.715 28.4615 106.558 28.1261 106.324 27.8689C106.089 27.6005 105.77 27.4048 105.367 27.2818C104.976 27.1588 104.495 27.0973 103.925 27.0973H103.556V26.0238H110.5V27.0973H107.33C107.587 27.3098 107.8 27.5614 107.967 27.8521C108.135 28.1429 108.241 28.4839 108.286 28.8753H110.5V29.9488H108.32C108.241 30.7651 107.928 31.4025 107.38 31.861C106.843 32.3082 106.128 32.5934 105.233 32.7164L108.437 38H106.726ZM120.686 27.198H114.799V31.0223C115.056 30.6645 115.436 30.3737 115.939 30.1501C116.442 29.9152 116.985 29.7978 117.566 29.7978C118.494 29.7978 119.249 29.9935 119.831 30.3849C120.412 30.7651 120.826 31.2627 121.072 31.8777C121.329 32.4816 121.458 33.1245 121.458 33.8067C121.458 34.6118 121.307 35.333 121.005 35.9704C120.703 36.6078 120.239 37.111 119.612 37.48C118.997 37.849 118.231 38.0335 117.315 38.0335C116.14 38.0335 115.19 37.7316 114.463 37.1278C113.736 36.5239 113.294 35.7188 113.138 34.7124H114.631C114.776 35.3498 115.084 35.8474 115.553 36.2053C116.023 36.5631 116.616 36.742 117.331 36.742C118.215 36.742 118.88 36.4792 119.327 35.9537C119.775 35.4169 119.998 34.7124 119.998 33.8402C119.998 32.968 119.775 32.2971 119.327 31.8274C118.88 31.3466 118.22 31.1061 117.348 31.1061C116.755 31.1061 116.235 31.2515 115.788 31.5423C115.352 31.8218 115.033 32.2076 114.832 32.6996H113.39V25.8561H120.686V27.198ZM123.57 31.8106C123.57 29.8873 123.883 28.3889 124.509 27.3154C125.135 26.2307 126.231 25.6884 127.797 25.6884C129.351 25.6884 130.441 26.2307 131.067 27.3154C131.694 28.3889 132.007 29.8873 132.007 31.8106C132.007 33.7675 131.694 35.2883 131.067 36.373C130.441 37.4577 129.351 38 127.797 38C126.231 38 125.135 37.4577 124.509 36.373C123.883 35.2883 123.57 33.7675 123.57 31.8106ZM130.497 31.8106C130.497 30.8378 130.43 30.0159 130.296 29.3449C130.173 28.6628 129.91 28.1149 129.508 27.7012C129.116 27.2874 128.546 27.0805 127.797 27.0805C127.036 27.0805 126.455 27.2874 126.052 27.7012C125.661 28.1149 125.398 28.6628 125.264 29.3449C125.141 30.0159 125.079 30.8378 125.079 31.8106C125.079 32.817 125.141 33.6613 125.264 34.3434C125.398 35.0255 125.661 35.5735 126.052 35.9872C126.455 36.4009 127.036 36.6078 127.797 36.6078C128.546 36.6078 129.116 36.4009 129.508 35.9872C129.91 35.5735 130.173 35.0255 130.296 34.3434C130.43 33.6613 130.497 32.817 130.497 31.8106ZM134.186 31.8106C134.186 29.8873 134.499 28.3889 135.125 27.3154C135.752 26.2307 136.848 25.6884 138.413 25.6884C139.967 25.6884 141.058 26.2307 141.684 27.3154C142.31 28.3889 142.623 29.8873 142.623 31.8106C142.623 33.7675 142.31 35.2883 141.684 36.373C141.058 37.4577 139.967 38 138.413 38C136.848 38 135.752 37.4577 135.125 36.373C134.499 35.2883 134.186 33.7675 134.186 31.8106ZM141.114 31.8106C141.114 30.8378 141.046 30.0159 140.912 29.3449C140.789 28.6628 140.526 28.1149 140.124 27.7012C139.733 27.2874 139.162 27.0805 138.413 27.0805C137.653 27.0805 137.071 27.2874 136.669 27.7012C136.277 28.1149 136.014 28.6628 135.88 29.3449C135.757 30.0159 135.696 30.8378 135.696 31.8106C135.696 32.817 135.757 33.6613 135.88 34.3434C136.014 35.0255 136.277 35.5735 136.669 35.9872C137.071 36.4009 137.653 36.6078 138.413 36.6078C139.162 36.6078 139.733 36.4009 140.124 35.9872C140.526 35.5735 140.789 35.0255 140.912 34.3434C141.046 33.6613 141.114 32.817 141.114 31.8106ZM144.803 31.8106C144.803 29.8873 145.116 28.3889 145.742 27.3154C146.368 26.2307 147.464 25.6884 149.029 25.6884C150.584 25.6884 151.674 26.2307 152.3 27.3154C152.926 28.3889 153.24 29.8873 153.24 31.8106C153.24 33.7675 152.926 35.2883 152.3 36.373C151.674 37.4577 150.584 38 149.029 38C147.464 38 146.368 37.4577 145.742 36.373C145.116 35.2883 144.803 33.7675 144.803 31.8106ZM151.73 31.8106C151.73 30.8378 151.663 30.0159 151.529 29.3449C151.406 28.6628 151.143 28.1149 150.74 27.7012C150.349 27.2874 149.779 27.0805 149.029 27.0805C148.269 27.0805 147.688 27.2874 147.285 27.7012C146.894 28.1149 146.631 28.6628 146.497 29.3449C146.374 30.0159 146.312 30.8378 146.312 31.8106C146.312 32.817 146.374 33.6613 146.497 34.3434C146.631 35.0255 146.894 35.5735 147.285 35.9872C147.688 36.4009 148.269 36.6078 149.029 36.6078C149.779 36.6078 150.349 36.4009 150.74 35.9872C151.143 35.5735 151.406 35.0255 151.529 34.3434C151.663 33.6613 151.73 32.817 151.73 31.8106Z" fill="black"/>
<path d="M66.7945 43.221V44.0936H64.5541V51.4395H63.4811V44.0936H61.229V43.221H66.7945ZM70.9923 51.5456C70.387 51.5456 69.8368 51.408 69.3415 51.1329C68.8542 50.8578 68.469 50.4686 68.186 49.9656C67.9109 49.4546 67.7733 48.865 67.7733 48.1969C67.7733 47.5366 67.9148 46.9549 68.1978 46.4518C68.4886 45.9408 68.8817 45.5517 69.3769 45.2845C69.8721 45.0093 70.4263 44.8718 71.0395 44.8718C71.6526 44.8718 72.2068 45.0093 72.702 45.2845C73.1973 45.5517 73.5864 45.9369 73.8693 46.44C74.1602 46.9431 74.3056 47.5287 74.3056 48.1969C74.3056 48.865 74.1563 49.4546 73.8576 49.9656C73.5667 50.4686 73.1697 50.8578 72.6666 51.1329C72.1636 51.408 71.6054 51.5456 70.9923 51.5456ZM70.9923 50.6023C71.3775 50.6023 71.7391 50.5119 72.0771 50.3311C72.4151 50.1503 72.6863 49.8791 72.8907 49.5175C73.1029 49.1559 73.209 48.7157 73.209 48.1969C73.209 47.6781 73.1069 47.2379 72.9025 46.8763C72.6981 46.5147 72.4308 46.2474 72.1007 46.0745C71.7705 45.8937 71.4129 45.8033 71.0277 45.8033C70.6346 45.8033 70.273 45.8937 69.9429 46.0745C69.6206 46.2474 69.3612 46.5147 69.1647 46.8763C68.9681 47.2379 68.8699 47.6781 68.8699 48.1969C68.8699 48.7236 68.9642 49.1677 69.1529 49.5293C69.3494 49.8909 69.6088 50.1621 69.9311 50.3429C70.2534 50.5158 70.6071 50.6023 70.9923 50.6023ZM75.3745 48.1851C75.3745 47.5248 75.5081 46.947 75.7754 46.4518C76.0426 45.9487 76.4082 45.5596 76.872 45.2845C77.3436 45.0093 77.8703 44.8718 78.452 44.8718C78.9551 44.8718 79.4228 44.9897 79.8551 45.2255C80.2875 45.4535 80.6176 45.7561 80.8456 46.1334V42.714H81.9304V51.4395H80.8456V50.225C80.6333 50.6101 80.3189 50.9285 79.9023 51.18C79.4857 51.4237 78.9983 51.5456 78.4402 51.5456C77.8663 51.5456 77.3436 51.4041 76.872 51.1211C76.4082 50.8381 76.0426 50.4411 75.7754 49.9302C75.5081 49.4192 75.3745 48.8375 75.3745 48.1851ZM80.8456 48.1969C80.8456 47.7095 80.7473 47.285 80.5508 46.9234C80.3543 46.5618 80.087 46.2867 79.749 46.0981C79.4188 45.9015 79.0533 45.8033 78.6524 45.8033C78.2515 45.8033 77.886 45.8976 77.5558 46.0863C77.2257 46.2749 76.9624 46.55 76.7658 46.9116C76.5693 47.2732 76.4711 47.6977 76.4711 48.1851C76.4711 48.6803 76.5693 49.1127 76.7658 49.4821C76.9624 49.8437 77.2257 50.1228 77.5558 50.3193C77.886 50.508 78.2515 50.6023 78.6524 50.6023C79.0533 50.6023 79.4188 50.508 79.749 50.3193C80.087 50.1228 80.3543 49.8437 80.5508 49.4821C80.7473 49.1127 80.8456 48.6842 80.8456 48.1969ZM83.4017 48.1851C83.4017 47.5248 83.5353 46.947 83.8026 46.4518C84.0698 45.9487 84.4354 45.5596 84.8992 45.2845C85.3708 45.0093 85.8936 44.8718 86.4674 44.8718C87.0334 44.8718 87.5247 44.9936 87.9413 45.2373C88.3579 45.481 88.6684 45.7876 88.8728 46.157V44.9779H89.9576V51.4395H88.8728V50.2368C88.6605 50.6141 88.3422 50.9285 87.9177 51.18C87.5011 51.4237 87.0137 51.5456 86.4556 51.5456C85.8818 51.5456 85.3629 51.4041 84.8992 51.1211C84.4354 50.8381 84.0698 50.4411 83.8026 49.9302C83.5353 49.4192 83.4017 48.8375 83.4017 48.1851ZM88.8728 48.1969C88.8728 47.7095 88.7745 47.285 88.578 46.9234C88.3815 46.5618 88.1142 46.2867 87.7762 46.0981C87.4461 45.9015 87.0805 45.8033 86.6796 45.8033C86.2787 45.8033 85.9132 45.8976 85.5831 46.0863C85.2529 46.2749 84.9896 46.55 84.793 46.9116C84.5965 47.2732 84.4983 47.6977 84.4983 48.1851C84.4983 48.6803 84.5965 49.1127 84.793 49.4821C84.9896 49.8437 85.2529 50.1228 85.5831 50.3193C85.9132 50.508 86.2787 50.6023 86.6796 50.6023C87.0805 50.6023 87.4461 50.508 87.7762 50.3193C88.1142 50.1228 88.3815 49.8437 88.578 49.4821C88.7745 49.1127 88.8728 48.6842 88.8728 48.1969ZM97.3952 44.9779L93.5041 54.4816H92.3958L93.6692 51.3687L91.0634 44.9779H92.2543L94.2824 50.2132L96.2869 44.9779H97.3952ZM103.245 48.9515C102.844 48.9515 102.502 48.814 102.219 48.5388C101.944 48.2558 101.806 47.9139 101.806 47.513C101.806 47.1042 101.944 46.7623 102.219 46.4872C102.502 46.2042 102.844 46.0627 103.245 46.0627C103.653 46.0627 103.999 46.2042 104.282 46.4872C104.565 46.7623 104.707 47.1042 104.707 47.513C104.707 47.9139 104.565 48.2558 104.282 48.5388C103.999 48.814 103.653 48.9515 103.245 48.9515ZM111.059 49.152C111.137 49.6 111.318 49.9459 111.601 50.1896C111.892 50.4333 112.281 50.5551 112.768 50.5551C113.421 50.5551 113.9 50.2996 114.207 49.7887C114.521 49.2777 114.671 48.417 114.655 47.2064C114.49 47.5602 114.215 47.8392 113.83 48.0436C113.444 48.2401 113.016 48.3384 112.544 48.3384C112.018 48.3384 111.546 48.2323 111.129 48.02C110.721 47.7999 110.398 47.4815 110.163 47.0649C109.927 46.6483 109.809 46.1452 109.809 45.5557C109.809 44.7146 110.053 44.0385 110.54 43.5276C111.027 43.0088 111.719 42.7494 112.615 42.7494C113.716 42.7494 114.486 43.107 114.926 43.8224C115.374 44.5377 115.598 45.6028 115.598 47.0178C115.598 48.0082 115.508 48.8257 115.327 49.4703C115.154 50.1149 114.855 50.6062 114.431 50.9442C114.014 51.2822 113.441 51.4512 112.709 51.4512C111.908 51.4512 111.283 51.2351 110.835 50.8027C110.387 50.3704 110.131 49.8201 110.068 49.152H111.059ZM112.721 47.4305C113.248 47.4305 113.68 47.2693 114.018 46.947C114.356 46.6169 114.525 46.1727 114.525 45.6146C114.525 45.0251 114.36 44.5495 114.03 44.1879C113.7 43.8263 113.236 43.6455 112.639 43.6455C112.088 43.6455 111.648 43.8184 111.318 44.1643C110.996 44.5102 110.835 44.9661 110.835 45.5321C110.835 46.1059 110.996 46.5658 111.318 46.9116C111.64 47.2575 112.108 47.4305 112.721 47.4305ZM117.684 51.5102C117.48 51.5102 117.307 51.4395 117.165 51.298C117.024 51.1565 116.953 50.9835 116.953 50.7791C116.953 50.5748 117.024 50.4018 117.165 50.2603C117.307 50.1188 117.48 50.0481 117.684 50.0481C117.88 50.0481 118.046 50.1188 118.179 50.2603C118.321 50.4018 118.391 50.5748 118.391 50.7791C118.391 50.9835 118.321 51.1565 118.179 51.298C118.046 51.4395 117.88 51.5102 117.684 51.5102ZM117.684 46.4636C117.48 46.4636 117.307 46.3928 117.165 46.2513C117.024 46.1098 116.953 45.9369 116.953 45.7325C116.953 45.5281 117.024 45.3552 117.165 45.2137C117.307 45.0722 117.48 45.0015 117.684 45.0015C117.88 45.0015 118.046 45.0722 118.179 45.2137C118.321 45.3552 118.391 45.5281 118.391 45.7325C118.391 45.9369 118.321 46.1098 118.179 46.2513C118.046 46.3928 117.88 46.4636 117.684 46.4636ZM119.475 49.5411V48.7275L123.614 42.997H124.899V48.6096H126.078V49.5411H124.899V51.4395H123.838V49.5411H119.475ZM123.885 44.1171L120.713 48.6096H123.885V44.1171ZM132.456 43.7516L129.178 51.4395H128.093L131.418 43.8577H126.867V42.938H132.456V43.7516ZM141.942 49.6118H138.357L137.697 51.4395H136.565L139.537 43.2682H140.775L143.734 51.4395H142.602L141.942 49.6118ZM141.635 48.7393L140.15 44.5888L138.664 48.7393H141.635ZM153.424 43.28V51.4395H152.351V45.3552L149.64 51.4395H148.885L146.161 45.3434V51.4395H145.088V43.28H146.244L149.262 50.0245L152.281 43.28H153.424Z" fill="#858585"/>
<path fill-rule="evenodd" clip-rule="evenodd" d="M34.0895 55.5051C43.5278 55.5051 51.179 47.8539 51.179 38.4157C51.179 28.9774 43.5278 21.3262 34.0895 21.3262C24.6512 21.3262 17 28.9774 17 38.4157C17 47.8539 24.6512 55.5051 34.0895 55.5051ZM42.9144 30.9157C43.3301 30.5 44.0041 30.5 44.4197 30.9157C44.8354 31.3314 44.8354 32.0054 44.4197 32.4211L30.9145 45.9263C30.4992 46.3416 29.8248 46.3419 29.4092 45.9263L23.7547 40.2718C23.339 39.8561 23.339 39.1822 23.7547 38.7665C24.1704 38.3509 24.8444 38.3508 25.26 38.7665L30.1619 43.6684L42.9144 30.9157Z" fill="#39846F"/>
<path d="M324.836 34.7975H317.437L324.836 42.1966L332.235 34.7975H324.836Z" fill="black"/>
</svg>
