<svg width="350" height="180" viewBox="0 0 350 180" fill="none" xmlns="http://www.w3.org/2000/svg">
<rect width="350" height="180" fill="white"/>
<path d="M16.3071 23.6666V24.6575H12.2497V27.8044H15.5438V28.7953H12.2497V33H11.0311V23.6666H16.3071ZM22.7602 33L20.5373 29.1836H19.0643V33H17.8458V23.6666H20.8587C21.564 23.6666 22.1576 23.7871 22.6397 24.0281C23.1307 24.2692 23.4967 24.595 23.7378 25.0057C23.9788 25.4163 24.0993 25.885 24.0993 26.4117C24.0993 27.0545 23.9118 27.6213 23.5369 28.1123C23.1709 28.6033 22.6174 28.9292 21.8764 29.0899L24.2198 33H22.7602ZM19.0643 28.2061H20.8587C21.5193 28.2061 22.0148 28.0454 22.3451 27.724C22.6754 27.3937 22.8406 26.9563 22.8406 26.4117C22.8406 25.8582 22.6754 25.4297 22.3451 25.1262C22.0237 24.8227 21.5283 24.6709 20.8587 24.6709H19.0643V28.2061ZM30.2912 33.0937C29.4253 33.0937 28.6352 32.8929 27.921 32.4911C27.2069 32.0805 26.64 31.5136 26.2204 30.7905C25.8097 30.0585 25.6044 29.2372 25.6044 28.3266C25.6044 27.416 25.8097 26.5992 26.2204 25.8761C26.64 25.144 27.2069 24.5772 27.921 24.1754C28.6352 23.7648 29.4253 23.5595 30.2912 23.5595C31.1661 23.5595 31.9606 23.7648 32.6748 24.1754C33.389 24.5772 33.9514 25.1396 34.362 25.8627C34.7727 26.5858 34.978 27.4071 34.978 28.3266C34.978 29.2461 34.7727 30.0674 34.362 30.7905C33.9514 31.5136 33.389 32.0805 32.6748 32.4911C31.9606 32.8929 31.1661 33.0937 30.2912 33.0937ZM30.2912 32.0359C30.9429 32.0359 31.5276 31.8841 32.0454 31.5806C32.5721 31.277 32.9828 30.8441 33.2774 30.2817C33.5809 29.7192 33.7327 29.0676 33.7327 28.3266C33.7327 27.5767 33.5809 26.925 33.2774 26.3715C32.9828 25.8091 32.5766 25.3761 32.0588 25.0726C31.541 24.7691 30.9518 24.6173 30.2912 24.6173C29.6306 24.6173 29.0414 24.7691 28.5236 25.0726C28.0058 25.3761 27.5952 25.8091 27.2917 26.3715C26.9971 26.925 26.8498 27.5767 26.8498 28.3266C26.8498 29.0676 26.9971 29.7192 27.2917 30.2817C27.5952 30.8441 28.0058 31.277 28.5236 31.5806C29.0503 31.8841 29.6395 32.0359 30.2912 32.0359ZM46.121 23.7335V33H44.9024V26.0903L41.8225 33H40.9655L37.8722 26.0769V33H36.6536V23.7335H37.9659L41.394 31.3931L44.8221 23.7335H46.121Z" fill="#CCCCCC"/>
<path d="M16.1437 72.8594C15.1792 72.8594 14.3072 72.6943 13.5277 72.364C12.7614 72.0337 12.1536 71.558 11.7044 70.937C11.2552 70.3161 11.024 69.5828 11.0107 68.7372H13.9835C14.0231 69.3053 14.2213 69.7545 14.5781 70.0848C14.948 70.4152 15.4501 70.5803 16.0843 70.5803C16.7317 70.5803 17.2403 70.4284 17.6103 70.1245C17.9802 69.8074 18.1652 69.3978 18.1652 68.8957C18.1652 68.4862 18.0397 68.1492 17.7887 67.885C17.5376 67.6208 17.2205 67.416 16.8374 67.2706C16.4674 67.1121 15.9521 66.9403 15.2915 66.7553C14.3931 66.4911 13.6598 66.2335 13.0917 65.9824C12.5368 65.7182 12.0545 65.3284 11.6449 64.8131C11.2486 64.2846 11.0504 63.5844 11.0504 62.7124C11.0504 61.8932 11.2552 61.1798 11.6647 60.572C12.0743 59.9642 12.6491 59.5018 13.389 59.1847C14.1288 58.8544 14.9744 58.6892 15.9257 58.6892C17.3526 58.6892 18.5087 59.0394 19.3939 59.7396C20.2924 60.4267 20.7878 61.3912 20.8803 62.6331H17.8283C17.8019 62.1575 17.5971 61.7677 17.2139 61.4638C16.844 61.1467 16.3485 60.9882 15.7275 60.9882C15.1858 60.9882 14.7498 61.1269 14.4195 61.4044C14.1024 61.6818 13.9439 62.0848 13.9439 62.6133C13.9439 62.9832 14.0628 63.2937 14.3006 63.5448C14.5516 63.7826 14.8555 63.9808 15.2123 64.1393C15.5822 64.2846 16.0975 64.4564 16.7581 64.6546C17.6565 64.9188 18.3898 65.1831 18.9579 65.4473C19.5261 65.7116 20.0149 66.1079 20.4245 66.6364C20.8341 67.1649 21.0389 67.8586 21.0389 68.7174C21.0389 69.4573 20.8473 70.1443 20.4641 70.7785C20.081 71.4127 19.5195 71.9214 18.7796 72.3045C18.0397 72.6745 17.1611 72.8594 16.1437 72.8594ZM26.7738 64.0204V69.3317C26.7738 69.7017 26.8597 69.9725 27.0315 70.1443C27.2165 70.3029 27.5203 70.3821 27.9431 70.3821H29.2313V72.7207H27.4873C25.1487 72.7207 23.9794 71.5844 23.9794 69.3119V64.0204H22.6714V61.7413H23.9794V59.0262H26.7738V61.7413H29.2313V64.0204H26.7738ZM30.6126 67.1914C30.6126 66.0815 30.8306 65.0972 31.2666 64.2384C31.7158 63.3796 32.317 62.719 33.0701 62.2566C33.8364 61.7941 34.6886 61.5629 35.6266 61.5629C36.4458 61.5629 37.1593 61.7281 37.767 62.0584C38.388 62.3887 38.8835 62.8049 39.2534 63.3069V61.7413H42.0478V72.7207H39.2534V71.1154C38.8967 71.6307 38.4012 72.0601 37.767 72.4036C37.1461 72.7339 36.426 72.8991 35.6068 72.8991C34.682 72.8991 33.8364 72.6612 33.0701 72.1856C32.317 71.71 31.7158 71.0427 31.2666 70.1839C30.8306 69.3119 30.6126 68.3144 30.6126 67.1914ZM39.2534 67.231C39.2534 66.5572 39.1213 65.9824 38.8571 65.5068C38.5928 65.0179 38.2361 64.648 37.7869 64.397C37.3376 64.1327 36.8554 64.0006 36.3401 64.0006C35.8248 64.0006 35.3492 64.1261 34.9132 64.3771C34.4772 64.6282 34.1204 64.9981 33.843 65.487C33.5787 65.9626 33.4466 66.5307 33.4466 67.1914C33.4466 67.852 33.5787 68.4333 33.843 68.9354C34.1204 69.4242 34.4772 69.8008 34.9132 70.065C35.3624 70.3293 35.838 70.4614 36.3401 70.4614C36.8554 70.4614 37.3376 70.3359 37.7869 70.0848C38.2361 69.8206 38.5928 69.4507 38.8571 68.975C39.1213 68.4862 39.2534 67.9048 39.2534 67.231ZM48.0872 64.0204V69.3317C48.0872 69.7017 48.1731 69.9725 48.3448 70.1443C48.5298 70.3029 48.8337 70.3821 49.2565 70.3821H50.5447V72.7207H48.8007C46.4621 72.7207 45.2928 71.5844 45.2928 69.3119V64.0204H43.9848V61.7413H45.2928V59.0262H48.0872V61.7413H50.5447V64.0204H48.0872ZM62.8459 66.9932C62.8459 67.3895 62.8195 67.7463 62.7666 68.0634H54.7401C54.8062 68.8561 55.0837 69.4771 55.5725 69.9263C56.0614 70.3755 56.6625 70.6001 57.376 70.6001C58.4066 70.6001 59.1398 70.1575 59.5758 69.2723H62.5684C62.2513 70.3293 61.6436 71.2013 60.7451 71.8883C59.8467 72.5622 58.7435 72.8991 57.4355 72.8991C56.3785 72.8991 55.4272 72.6679 54.5816 72.2054C53.7492 71.7298 53.0952 71.0626 52.6196 70.2038C52.1571 69.345 51.9259 68.354 51.9259 67.231C51.9259 66.0947 52.1571 65.0972 52.6196 64.2384C53.082 63.3796 53.7294 62.719 54.5618 62.2566C55.3942 61.7941 56.352 61.5629 57.4355 61.5629C58.4792 61.5629 59.4107 61.7875 60.2299 62.2367C61.0622 62.686 61.703 63.3268 62.1522 64.1591C62.6147 64.9783 62.8459 65.923 62.8459 66.9932ZM59.9722 66.2004C59.959 65.487 59.7014 64.9188 59.1993 64.496C58.6972 64.06 58.0829 63.842 57.3562 63.842C56.6691 63.842 56.0878 64.0534 55.6122 64.4762C55.1497 64.8858 54.8657 65.4605 54.76 66.2004H59.9722ZM77.6397 65.6257C78.4193 65.771 79.0601 66.1608 79.5621 66.795C80.0642 67.4292 80.3152 68.1559 80.3152 68.975C80.3152 69.7149 80.1303 70.3689 79.7603 70.937C79.4036 71.492 78.8817 71.928 78.1947 72.2451C77.5076 72.5622 76.6951 72.7207 75.757 72.7207H69.7916V58.8874H75.4994C76.4374 58.8874 77.2434 59.0394 77.9172 59.3432C78.6042 59.6471 79.1195 60.0699 79.463 60.6116C79.8198 61.1533 79.9981 61.7677 79.9981 62.4547C79.9981 63.2607 79.7801 63.9345 79.3441 64.4762C78.9213 65.0179 78.3532 65.4011 77.6397 65.6257ZM72.5662 64.5951H75.103C75.7636 64.5951 76.2723 64.4498 76.629 64.1591C76.9857 63.8553 77.1641 63.4259 77.1641 62.8709C77.1641 62.316 76.9857 61.8866 76.629 61.5827C76.2723 61.2789 75.7636 61.1269 75.103 61.1269H72.5662V64.5951ZM75.3606 70.4614C76.0345 70.4614 76.5563 70.3029 76.9263 69.9858C77.3094 69.6687 77.501 69.2194 77.501 68.6381C77.501 68.0435 77.3028 67.5811 76.9065 67.2508C76.5101 66.9073 75.975 66.7355 75.3012 66.7355H72.5662V70.4614H75.3606ZM81.9122 67.1914C81.9122 66.0815 82.1302 65.0972 82.5662 64.2384C83.0154 63.3796 83.6166 62.719 84.3697 62.2566C85.136 61.7941 85.9882 61.5629 86.9262 61.5629C87.7454 61.5629 88.4589 61.7281 89.0666 62.0584C89.6876 62.3887 90.1831 62.8049 90.553 63.3069V61.7413H93.3474V72.7207H90.553V71.1154C90.1963 71.6307 89.7008 72.0601 89.0666 72.4036C88.4457 72.7339 87.7256 72.8991 86.9064 72.8991C85.9816 72.8991 85.136 72.6612 84.3697 72.1856C83.6166 71.71 83.0154 71.0427 82.5662 70.1839C82.1302 69.3119 81.9122 68.3144 81.9122 67.1914ZM90.553 67.231C90.553 66.5572 90.4209 65.9824 90.1566 65.5068C89.8924 65.0179 89.5357 64.648 89.0865 64.397C88.6372 64.1327 88.155 64.0006 87.6397 64.0006C87.1244 64.0006 86.6488 64.1261 86.2128 64.3771C85.7768 64.6282 85.42 64.9981 85.1426 65.487C84.8783 65.9626 84.7462 66.5307 84.7462 67.1914C84.7462 67.852 84.8783 68.4333 85.1426 68.9354C85.42 69.4242 85.7768 69.8008 86.2128 70.065C86.662 70.3293 87.1376 70.4614 87.6397 70.4614C88.155 70.4614 88.6372 70.3359 89.0865 70.0848C89.5357 69.8206 89.8924 69.4507 90.1566 68.975C90.4209 68.4862 90.553 67.9048 90.553 67.231ZM102.241 61.5827C103.549 61.5827 104.606 61.9989 105.412 62.8313C106.218 63.6505 106.621 64.7999 106.621 66.2797V72.7207H103.846V66.6563C103.846 65.7842 103.628 65.117 103.192 64.6546C102.756 64.179 102.161 63.9411 101.408 63.9411C100.642 63.9411 100.034 64.179 99.585 64.6546C99.149 65.117 98.931 65.7842 98.931 66.6563V72.7207H96.1564V61.7413H98.931V63.1088C99.3009 62.6331 99.7699 62.2632 100.338 61.9989C100.919 61.7215 101.554 61.5827 102.241 61.5827ZM115.859 72.7207L112.133 68.0435V72.7207H109.358V58.0551H112.133V66.3986L115.819 61.7413H119.426L114.59 67.2508L119.465 72.7207H115.859ZM130.728 72.8991C129.671 72.8991 128.719 72.6679 127.874 72.2054C127.028 71.7298 126.361 71.0626 125.872 70.2038C125.396 69.345 125.159 68.354 125.159 67.231C125.159 66.1079 125.403 65.117 125.892 64.2582C126.394 63.3994 127.074 62.7388 127.933 62.2764C128.792 61.8007 129.75 61.5629 130.807 61.5629C131.864 61.5629 132.822 61.8007 133.681 62.2764C134.539 62.7388 135.213 63.3994 135.702 64.2582C136.204 65.117 136.455 66.1079 136.455 67.231C136.455 68.354 136.198 69.345 135.682 70.2038C135.18 71.0626 134.493 71.7298 133.621 72.2054C132.762 72.6679 131.798 72.8991 130.728 72.8991ZM130.728 70.4812C131.23 70.4812 131.699 70.3623 132.135 70.1245C132.584 69.8735 132.941 69.5035 133.205 69.0147C133.469 68.5258 133.601 67.9312 133.601 67.231C133.601 66.1872 133.324 65.3879 132.769 64.833C132.227 64.2648 131.56 63.9808 130.767 63.9808C129.975 63.9808 129.307 64.2648 128.766 64.833C128.237 65.3879 127.973 66.1872 127.973 67.231C127.973 68.2748 128.231 69.0807 128.746 69.6488C129.274 70.2038 129.935 70.4812 130.728 70.4812ZM143.623 64.0204H141.701V72.7207H138.887V64.0204H137.638V61.7413H138.887V61.1864C138.887 59.8387 139.27 58.8478 140.036 58.2136C140.803 57.5794 141.959 57.2821 143.505 57.3218V59.6603C142.831 59.6471 142.362 59.7594 142.097 59.9973C141.833 60.2351 141.701 60.6645 141.701 61.2855V61.7413H143.623V64.0204ZM153.117 58.8874V72.7207H150.342V58.8874H153.117ZM162.041 61.5827C163.349 61.5827 164.406 61.9989 165.212 62.8313C166.018 63.6505 166.421 64.7999 166.421 66.2797V72.7207H163.647V66.6563C163.647 65.7842 163.429 65.117 162.993 64.6546C162.557 64.179 161.962 63.9411 161.209 63.9411C160.443 63.9411 159.835 64.179 159.386 64.6546C158.95 65.117 158.732 65.7842 158.732 66.6563V72.7207H155.957V61.7413H158.732V63.1088C159.102 62.6331 159.571 62.2632 160.139 61.9989C160.72 61.7215 161.354 61.5827 162.041 61.5827ZM168.445 67.1914C168.445 66.0815 168.663 65.0972 169.099 64.2384C169.548 63.3796 170.156 62.719 170.923 62.2566C171.689 61.7941 172.541 61.5629 173.479 61.5629C174.193 61.5629 174.873 61.7215 175.52 62.0386C176.168 62.3424 176.683 62.752 177.066 63.2673V58.0551H179.88V72.7207H177.066V71.0956C176.723 71.6373 176.241 72.0733 175.62 72.4036C174.999 72.7339 174.278 72.8991 173.459 72.8991C172.534 72.8991 171.689 72.6612 170.923 72.1856C170.156 71.71 169.548 71.0427 169.099 70.1839C168.663 69.3119 168.445 68.3144 168.445 67.1914ZM177.086 67.231C177.086 66.5572 176.954 65.9824 176.69 65.5068C176.425 65.0179 176.069 64.648 175.62 64.397C175.17 64.1327 174.688 64.0006 174.173 64.0006C173.658 64.0006 173.182 64.1261 172.746 64.3771C172.31 64.6282 171.953 64.9981 171.676 65.487C171.411 65.9626 171.279 66.5307 171.279 67.1914C171.279 67.852 171.411 68.4333 171.676 68.9354C171.953 69.4242 172.31 69.8008 172.746 70.065C173.195 70.3293 173.671 70.4614 174.173 70.4614C174.688 70.4614 175.17 70.3359 175.62 70.0848C176.069 69.8206 176.425 69.4507 176.69 68.975C176.954 68.4862 177.086 67.9048 177.086 67.231ZM184.097 60.4333C183.608 60.4333 183.198 60.2813 182.868 59.9774C182.551 59.6603 182.392 59.2706 182.392 58.8082C182.392 58.3457 182.551 57.9626 182.868 57.6587C183.198 57.3416 183.608 57.183 184.097 57.183C184.585 57.183 184.988 57.3416 185.305 57.6587C185.636 57.9626 185.801 58.3457 185.801 58.8082C185.801 59.2706 185.636 59.6603 185.305 59.9774C184.988 60.2813 184.585 60.4333 184.097 60.4333ZM185.464 61.7413V72.7207H182.689V61.7413H185.464ZM187.591 67.1914C187.591 66.0815 187.809 65.0972 188.245 64.2384C188.694 63.3796 189.295 62.719 190.048 62.2566C190.815 61.7941 191.667 61.5629 192.605 61.5629C193.424 61.5629 194.138 61.7281 194.745 62.0584C195.366 62.3887 195.862 62.8049 196.232 63.3069V61.7413H199.026V72.7207H196.232V71.1154C195.875 71.6307 195.38 72.0601 194.745 72.4036C194.124 72.7339 193.404 72.8991 192.585 72.8991C191.66 72.8991 190.815 72.6612 190.048 72.1856C189.295 71.71 188.694 71.0427 188.245 70.1839C187.809 69.3119 187.591 68.3144 187.591 67.1914ZM196.232 67.231C196.232 66.5572 196.1 65.9824 195.835 65.5068C195.571 65.0179 195.214 64.648 194.765 64.397C194.316 64.1327 193.834 64.0006 193.318 64.0006C192.803 64.0006 192.328 64.1261 191.892 64.3771C191.456 64.6282 191.099 64.9981 190.821 65.487C190.557 65.9626 190.425 66.5307 190.425 67.1914C190.425 67.852 190.557 68.4333 190.821 68.9354C191.099 69.4242 191.456 69.8008 191.892 70.065C192.341 70.3293 192.816 70.4614 193.318 70.4614C193.834 70.4614 194.316 70.3359 194.765 70.0848C195.214 69.8206 195.571 69.4507 195.835 68.975C196.1 68.4862 196.232 67.9048 196.232 67.231Z" fill="black"/>
<path d="M17.6877 107.928H12.9085L12.0281 110.365H10.5188L14.4806 99.4703H16.1313L20.0774 110.365H18.5681L17.6877 107.928ZM17.279 106.765L15.2981 101.231L13.3172 106.765H17.279ZM27.2279 95.5557L22.9203 113.038H21.5053L25.7973 95.5557H27.2279ZM28.9036 106.042C28.9036 105.151 29.0818 104.375 29.4381 103.715C29.7945 103.044 30.2871 102.526 30.9159 102.159C31.5553 101.792 32.2837 101.608 33.1012 101.608C34.1598 101.608 35.0297 101.865 35.7109 102.379C36.4027 102.892 36.8586 103.605 37.0787 104.517H35.538C35.3913 103.993 35.1031 103.579 34.6733 103.275C34.2541 102.971 33.7301 102.819 33.1012 102.819C32.2837 102.819 31.6234 103.102 31.1203 103.668C30.6172 104.223 30.3657 105.015 30.3657 106.042C30.3657 107.079 30.6172 107.881 31.1203 108.447C31.6234 109.013 32.2837 109.296 33.1012 109.296C33.7301 109.296 34.2541 109.149 34.6733 108.856C35.0926 108.563 35.3808 108.143 35.538 107.598H37.0787C36.8481 108.479 36.387 109.186 35.6952 109.721C35.0035 110.245 34.1388 110.507 33.1012 110.507C32.2837 110.507 31.5553 110.323 30.9159 109.956C30.2871 109.59 29.7945 109.071 29.4381 108.4C29.0818 107.729 28.9036 106.943 28.9036 106.042ZM51.9515 110.365H50.5208L44.7668 101.64V110.365H43.3362V99.3917H44.7668L50.5208 108.101V99.3917H51.9515V110.365ZM58.2263 110.507C57.4192 110.507 56.6856 110.323 56.0253 109.956C55.3755 109.59 54.8619 109.071 54.4846 108.4C54.1178 107.719 53.9343 106.933 53.9343 106.042C53.9343 105.161 54.123 104.386 54.5003 103.715C54.8881 103.034 55.4122 102.515 56.0724 102.159C56.7327 101.792 57.4717 101.608 58.2892 101.608C59.1067 101.608 59.8456 101.792 60.5059 102.159C61.1662 102.515 61.685 103.029 62.0623 103.699C62.4501 104.37 62.644 105.151 62.644 106.042C62.644 106.933 62.4448 107.719 62.0466 108.4C61.6588 109.071 61.1295 109.59 60.4587 109.956C59.7879 110.323 59.0438 110.507 58.2263 110.507ZM58.2263 109.249C58.7398 109.249 59.222 109.128 59.6726 108.887C60.1233 108.646 60.4849 108.285 60.7574 107.803C61.0404 107.321 61.1819 106.734 61.1819 106.042C61.1819 105.35 61.0456 104.763 60.7731 104.281C60.5006 103.799 60.1443 103.443 59.7041 103.212C59.2639 102.971 58.787 102.85 58.2734 102.85C57.7494 102.85 57.2673 102.971 56.8271 103.212C56.3974 103.443 56.0515 103.799 55.7895 104.281C55.5274 104.763 55.3964 105.35 55.3964 106.042C55.3964 106.744 55.5222 107.336 55.7737 107.818C56.0358 108.3 56.3816 108.662 56.8114 108.903C57.2411 109.134 57.7127 109.249 58.2263 109.249ZM65.0595 110.46C64.787 110.46 64.5565 110.365 64.3678 110.177C64.1791 109.988 64.0848 109.757 64.0848 109.485C64.0848 109.212 64.1791 108.982 64.3678 108.793C64.5565 108.604 64.787 108.51 65.0595 108.51C65.3216 108.51 65.5417 108.604 65.7198 108.793C65.9085 108.982 66.0028 109.212 66.0028 109.485C66.0028 109.757 65.9085 109.988 65.7198 110.177C65.5417 110.365 65.3216 110.46 65.0595 110.46ZM76.7336 104.894L80.098 110.365H78.4787L75.8532 106.089L73.3535 110.365H71.7657L75.1143 104.894L71.75 99.4074H73.3535L75.9947 103.699L78.5102 99.4074H80.1137L76.7336 104.894ZM86.5767 104.894L89.9411 110.365H88.3218L85.6963 106.089L83.1966 110.365H81.6087L84.9574 104.894L81.593 99.4074H83.1966L85.8378 103.699L88.3532 99.4074H89.9568L86.5767 104.894ZM96.4197 104.894L99.7841 110.365H98.1648L95.5393 106.089L93.0396 110.365H91.4518L94.8004 104.894L91.4361 99.4074H93.0396L95.6808 103.699L98.1963 99.4074H99.7998L96.4197 104.894ZM106.263 104.894L109.627 110.365H108.008L105.382 106.089L102.883 110.365H101.295L104.643 104.894L101.279 99.4074H102.883L105.524 103.699L108.039 99.4074H109.643L106.263 104.894ZM120.376 104.894L123.74 110.365H122.121L119.495 106.089L116.996 110.365H115.408L118.756 104.894L115.392 99.4074H116.996L119.637 103.699L122.152 99.4074H123.756L120.376 104.894ZM130.219 104.894L133.583 110.365H131.964L129.338 106.089L126.839 110.365H125.251L128.6 104.894L125.235 99.4074H126.839L129.48 103.699L131.995 99.4074H133.599L130.219 104.894ZM140.062 104.894L143.426 110.365H141.807L139.181 106.089L136.682 110.365H135.094L138.443 104.894L135.078 99.4074H136.682L139.323 103.699L141.838 99.4074H143.442L140.062 104.894ZM149.905 104.894L153.269 110.365H151.65L149.025 106.089L146.525 110.365H144.937L148.286 104.894L144.921 99.4074H146.525L149.166 103.699L151.681 99.4074H153.285L149.905 104.894ZM164.018 104.894L167.382 110.365H165.763L163.138 106.089L160.638 110.365H159.05L162.399 104.894L159.034 99.4074H160.638L163.279 103.699L165.794 99.4074H167.398L164.018 104.894ZM173.861 104.894L177.225 110.365H175.606L172.981 106.089L170.481 110.365H168.893L172.242 104.894L168.877 99.4074H170.481L173.122 103.699L175.637 99.4074H177.241L173.861 104.894ZM183.704 104.894L187.068 110.365H185.449L182.824 106.089L180.324 110.365H178.736L182.085 104.894L178.72 99.4074H180.324L182.965 103.699L185.481 99.4074H187.084L183.704 104.894ZM193.547 104.894L196.911 110.365H195.292L192.667 106.089L190.167 110.365H188.579L191.928 104.894L188.563 99.4074H190.167L192.808 103.699L195.324 99.4074H196.927L193.547 104.894ZM207.66 104.894L211.024 110.365H209.405L206.78 106.089L204.28 110.365H202.692L206.041 104.894L202.676 99.4074H204.28L206.921 103.699L209.437 99.4074H211.04L207.66 104.894ZM220.034 100.241H214.516V103.825C214.757 103.49 215.113 103.217 215.585 103.008C216.057 102.788 216.565 102.677 217.11 102.677C217.98 102.677 218.687 102.861 219.232 103.228C219.777 103.584 220.165 104.05 220.396 104.627C220.637 105.193 220.757 105.796 220.757 106.435C220.757 107.19 220.616 107.866 220.333 108.463C220.05 109.06 219.615 109.532 219.028 109.878C218.452 110.224 217.734 110.397 216.874 110.397C215.774 110.397 214.883 110.114 214.202 109.548C213.52 108.982 213.106 108.227 212.96 107.284H214.359C214.495 107.881 214.783 108.348 215.224 108.683C215.664 109.018 216.219 109.186 216.89 109.186C217.718 109.186 218.342 108.94 218.761 108.447C219.18 107.944 219.39 107.284 219.39 106.466C219.39 105.649 219.18 105.02 218.761 104.58C218.342 104.129 217.723 103.904 216.906 103.904C216.35 103.904 215.863 104.04 215.444 104.313C215.035 104.575 214.736 104.936 214.548 105.397H213.195V98.983H220.034V100.241ZM222.391 107.834V106.749L227.91 99.1087H229.623V106.592H231.195V107.834H229.623V110.365H228.208V107.834H222.391ZM228.271 100.602L224.042 106.592H228.271V100.602ZM234.778 104.454C234.191 104.223 233.741 103.888 233.426 103.448C233.112 103.008 232.955 102.473 232.955 101.844C232.955 101.278 233.096 100.77 233.379 100.319C233.662 99.8581 234.081 99.4965 234.637 99.2345C235.203 98.962 235.884 98.8258 236.681 98.8258C237.477 98.8258 238.153 98.962 238.709 99.2345C239.275 99.4965 239.699 99.8581 239.982 100.319C240.276 100.77 240.422 101.278 240.422 101.844C240.422 102.452 240.26 102.987 239.935 103.448C239.61 103.899 239.165 104.234 238.599 104.454C239.248 104.653 239.762 105.004 240.139 105.507C240.527 106 240.721 106.597 240.721 107.3C240.721 107.981 240.553 108.578 240.218 109.092C239.883 109.595 239.406 109.988 238.787 110.271C238.179 110.543 237.477 110.68 236.681 110.68C235.884 110.68 235.182 110.543 234.574 110.271C233.977 109.988 233.51 109.595 233.175 109.092C232.839 108.578 232.672 107.981 232.672 107.3C232.672 106.597 232.86 105.995 233.238 105.492C233.615 104.989 234.129 104.643 234.778 104.454ZM239.039 102.017C239.039 101.378 238.829 100.885 238.41 100.539C237.991 100.194 237.414 100.021 236.681 100.021C235.957 100.021 235.386 100.194 234.967 100.539C234.548 100.885 234.338 101.383 234.338 102.033C234.338 102.62 234.553 103.091 234.983 103.448C235.423 103.804 235.989 103.982 236.681 103.982C237.383 103.982 237.949 103.804 238.379 103.448C238.819 103.081 239.039 102.604 239.039 102.017ZM236.681 105.083C235.905 105.083 235.271 105.266 234.778 105.633C234.286 105.989 234.039 106.529 234.039 107.252C234.039 107.923 234.275 108.463 234.747 108.872C235.229 109.28 235.874 109.485 236.681 109.485C237.488 109.485 238.127 109.28 238.599 108.872C239.07 108.463 239.306 107.923 239.306 107.252C239.306 106.55 239.065 106.016 238.583 105.649C238.101 105.272 237.467 105.083 236.681 105.083ZM246.797 109.218C248.128 108.149 249.171 107.273 249.925 106.592C250.68 105.9 251.314 105.182 251.828 104.438C252.352 103.684 252.614 102.945 252.614 102.222C252.614 101.54 252.446 101.006 252.111 100.618C251.786 100.22 251.256 100.021 250.523 100.021C249.81 100.021 249.254 100.246 248.856 100.697C248.468 101.137 248.259 101.729 248.227 102.473H246.844C246.886 101.299 247.242 100.393 247.913 99.7533C248.584 99.114 249.448 98.7943 250.507 98.7943C251.586 98.7943 252.441 99.093 253.07 99.6904C253.709 100.288 254.029 101.111 254.029 102.159C254.029 103.029 253.766 103.878 253.242 104.706C252.729 105.523 252.142 106.246 251.482 106.875C250.821 107.493 249.978 108.217 248.951 109.045H254.359V110.239H246.797V109.218Z" fill="black"/>
<rect x="10" y="128.059" width="37.1824" height="1.48729" fill="#E3E3E3"/>
<path d="M12.2229 147.114V153.019C12.2229 153.849 12.4237 154.465 12.8255 154.867C13.2361 155.269 13.803 155.47 14.5261 155.47C15.2403 155.47 15.7982 155.269 16.2 154.867C16.6106 154.465 16.8159 153.849 16.8159 153.019V147.114H18.0345V153.006C18.0345 153.782 17.8783 154.439 17.5658 154.974C17.2534 155.501 16.8293 155.894 16.2937 156.153C15.767 156.412 15.1733 156.541 14.5127 156.541C13.8521 156.541 13.254 156.412 12.7183 156.153C12.1916 155.894 11.7721 155.501 11.4596 154.974C11.1561 154.439 11.0043 153.782 11.0043 153.006V147.114H12.2229ZM26.3744 149.846C26.3744 150.622 26.1066 151.269 25.5709 151.787C25.0442 152.296 24.2363 152.551 23.1472 152.551H21.3528V156.447H20.1343V147.114H23.1472C24.2006 147.114 24.9996 147.368 25.5442 147.877C26.0976 148.386 26.3744 149.042 26.3744 149.846ZM23.1472 151.546C23.8257 151.546 24.3256 151.399 24.647 151.104C24.9684 150.81 25.129 150.39 25.129 149.846C25.129 148.694 24.4684 148.118 23.1472 148.118H21.3528V151.546H23.1472ZM29.1744 147.114V156.447H27.9559V147.114H29.1744ZM39.8696 156.447L37.6468 152.631H36.1738V156.447H34.9552V147.114H37.9681C38.6734 147.114 39.2671 147.234 39.7491 147.475C40.2401 147.716 40.6061 148.042 40.8472 148.453C41.0882 148.864 41.2087 149.332 41.2087 149.859C41.2087 150.502 41.0213 151.069 40.6463 151.56C40.2803 152.051 39.7268 152.376 38.9858 152.537L41.3292 156.447H39.8696ZM36.1738 151.653H37.9681C38.6288 151.653 39.1242 151.493 39.4545 151.171C39.7848 150.841 39.95 150.404 39.95 149.859C39.95 149.305 39.7848 148.877 39.4545 148.573C39.1331 148.27 38.6377 148.118 37.9681 148.118H36.1738V151.653ZM49.8645 152.497C49.8645 152.729 49.8512 152.975 49.8244 153.233H43.9592C44.0038 153.957 44.2493 154.523 44.6957 154.934C45.151 155.336 45.7 155.537 46.3428 155.537C46.8695 155.537 47.3069 155.416 47.6551 155.175C48.0121 154.925 48.2621 154.595 48.4049 154.184H49.7173C49.5209 154.889 49.1281 155.465 48.5389 155.912C47.9497 156.349 47.2176 156.568 46.3428 156.568C45.6464 156.568 45.0215 156.412 44.468 156.099C43.9235 155.787 43.495 155.345 43.1825 154.773C42.8701 154.193 42.7138 153.524 42.7138 152.765C42.7138 152.006 42.8656 151.341 43.1691 150.77C43.4727 150.198 43.8967 149.761 44.4413 149.457C44.9947 149.145 45.6286 148.989 46.3428 148.989C47.0391 148.989 47.6551 149.14 48.1907 149.444C48.7263 149.747 49.137 150.167 49.4227 150.703C49.7172 151.229 49.8645 151.827 49.8645 152.497ZM48.6058 152.243C48.6058 151.778 48.5031 151.381 48.2978 151.051C48.0925 150.712 47.8113 150.457 47.4542 150.287C47.106 150.109 46.7177 150.02 46.2892 150.02C45.6732 150.02 45.1465 150.216 44.7091 150.609C44.2806 151.002 44.0351 151.546 43.9726 152.243H48.6058ZM54.5261 150.113H52.9862V156.447H51.7676V150.113H50.8169V149.109H51.7676V148.587C51.7676 147.766 51.9774 147.167 52.397 146.792C52.8255 146.409 53.5084 146.217 54.4458 146.217V147.234C53.9102 147.234 53.5307 147.341 53.3076 147.556C53.0933 147.761 52.9862 148.105 52.9862 148.587V149.109H54.5261V150.113ZM62.7093 152.497C62.7093 152.729 62.6959 152.975 62.6691 153.233H56.8039C56.8486 153.957 57.0941 154.523 57.5404 154.934C57.9957 155.336 58.5447 155.537 59.1875 155.537C59.7142 155.537 60.1516 155.416 60.4998 155.175C60.8569 154.925 61.1069 154.595 61.2497 154.184H62.562C62.3656 154.889 61.9728 155.465 61.3836 155.912C60.7944 156.349 60.0624 156.568 59.1875 156.568C58.4912 156.568 57.8663 156.412 57.3128 156.099C56.7682 155.787 56.3397 155.345 56.0273 154.773C55.7148 154.193 55.5586 153.524 55.5586 152.765C55.5586 152.006 55.7103 151.341 56.0139 150.77C56.3174 150.198 56.7414 149.761 57.286 149.457C57.8395 149.145 58.4733 148.989 59.1875 148.989C59.8838 148.989 60.4998 149.14 61.0354 149.444C61.5711 149.747 61.9817 150.167 62.2674 150.703C62.562 151.229 62.7093 151.827 62.7093 152.497ZM61.4506 152.243C61.4506 151.778 61.3479 151.381 61.1426 151.051C60.9372 150.712 60.656 150.457 60.2989 150.287C59.9508 150.109 59.5624 150.02 59.1339 150.02C58.518 150.02 57.9913 150.216 57.5538 150.609C57.1253 151.002 56.8798 151.546 56.8173 152.243H61.4506ZM65.6033 150.301C65.8175 149.881 66.1211 149.555 66.5139 149.323C66.9156 149.091 67.4021 148.975 67.9735 148.975V150.234H67.6521C66.2862 150.234 65.6033 150.975 65.6033 152.457V156.447H64.3847V149.109H65.6033V150.301ZM76.1425 152.497C76.1425 152.729 76.1291 152.975 76.1023 153.233H70.2371C70.2818 153.957 70.5273 154.523 70.9736 154.934C71.4289 155.336 71.978 155.537 72.6207 155.537C73.1474 155.537 73.5849 155.416 73.933 155.175C74.2901 154.925 74.5401 154.595 74.6829 154.184H75.9952C75.7988 154.889 75.406 155.465 74.8168 155.912C74.2276 156.349 73.4956 156.568 72.6207 156.568C71.9244 156.568 71.2995 156.412 70.746 156.099C70.2014 155.787 69.7729 155.345 69.4605 154.773C69.148 154.193 68.9918 153.524 68.9918 152.765C68.9918 152.006 69.1436 151.341 69.4471 150.77C69.7506 150.198 70.1747 149.761 70.7192 149.457C71.2727 149.145 71.9065 148.989 72.6207 148.989C73.317 148.989 73.933 149.14 74.4687 149.444C75.0043 149.747 75.4149 150.167 75.7006 150.703C75.9952 151.229 76.1425 151.827 76.1425 152.497ZM74.8838 152.243C74.8838 151.778 74.7811 151.381 74.5758 151.051C74.3705 150.712 74.0892 150.457 73.7322 150.287C73.384 150.109 72.9957 150.02 72.5672 150.02C71.9512 150.02 71.4245 150.216 70.987 150.609C70.5585 151.002 70.313 151.546 70.2505 152.243H74.8838ZM81.3933 148.975C82.286 148.975 83.0091 149.247 83.5626 149.792C84.1161 150.328 84.3928 151.104 84.3928 152.122V156.447H83.1877V152.296C83.1877 151.564 83.0047 151.006 82.6386 150.622C82.2726 150.229 81.7727 150.033 81.1389 150.033C80.4961 150.033 79.9828 150.234 79.5989 150.636C79.224 151.037 79.0365 151.622 79.0365 152.39V156.447H77.8179V149.109H79.0365V150.154C79.2775 149.779 79.6034 149.488 80.014 149.283C80.4336 149.078 80.8934 148.975 81.3933 148.975ZM85.995 152.765C85.995 152.006 86.1468 151.345 86.4503 150.783C86.7538 150.212 87.1734 149.77 87.7091 149.457C88.2536 149.145 88.8741 148.989 89.5704 148.989C90.472 148.989 91.213 149.207 91.7933 149.645C92.3825 150.082 92.7708 150.689 92.9583 151.466H91.646C91.521 151.02 91.2755 150.667 90.9095 150.408C90.5524 150.149 90.106 150.02 89.5704 150.02C88.8741 150.02 88.3117 150.261 87.8831 150.743C87.4546 151.216 87.2404 151.89 87.2404 152.765C87.2404 153.649 87.4546 154.332 87.8831 154.814C88.3117 155.296 88.8741 155.537 89.5704 155.537C90.106 155.537 90.5524 155.412 90.9095 155.162C91.2666 154.912 91.5121 154.555 91.646 154.09H92.9583C92.7619 154.84 92.3691 155.443 91.7799 155.898C91.1907 156.345 90.4542 156.568 89.5704 156.568C88.8741 156.568 88.2536 156.412 87.7091 156.099C87.1734 155.787 86.7538 155.345 86.4503 154.773C86.1468 154.202 85.995 153.533 85.995 152.765ZM101.347 152.497C101.347 152.729 101.333 152.975 101.306 153.233H95.4412C95.4859 153.957 95.7314 154.523 96.1777 154.934C96.633 155.336 97.182 155.537 97.8248 155.537C98.3515 155.537 98.7889 155.416 99.1371 155.175C99.4942 154.925 99.7442 154.595 99.887 154.184H101.199C101.003 154.889 100.61 155.465 100.021 155.912C99.4317 156.349 98.6997 156.568 97.8248 156.568C97.1285 156.568 96.5036 156.412 95.9501 156.099C95.4055 155.787 94.977 155.345 94.6646 154.773C94.3521 154.193 94.1959 153.524 94.1959 152.765C94.1959 152.006 94.3476 151.341 94.6512 150.77C94.9547 150.198 95.3787 149.761 95.9233 149.457C96.4768 149.145 97.1106 148.989 97.8248 148.989C98.5211 148.989 99.1371 149.14 99.6727 149.444C100.208 149.747 100.619 150.167 100.905 150.703C101.199 151.229 101.347 151.827 101.347 152.497ZM100.088 152.243C100.088 151.778 99.9852 151.381 99.7799 151.051C99.5745 150.712 99.2933 150.457 98.9362 150.287C98.5881 150.109 98.1997 150.02 97.7712 150.02C97.1553 150.02 96.6285 150.216 96.1911 150.609C95.7626 151.002 95.5171 151.546 95.4546 152.243H100.088ZM107.878 147.114V156.447H106.659V147.114H107.878ZM112.927 147.114C113.945 147.114 114.824 147.306 115.565 147.69C116.315 148.065 116.886 148.605 117.279 149.31C117.681 150.015 117.882 150.845 117.882 151.801C117.882 152.756 117.681 153.586 117.279 154.291C116.886 154.988 116.315 155.523 115.565 155.898C114.824 156.264 113.945 156.447 112.927 156.447H110.021V147.114H112.927ZM112.927 155.443C114.132 155.443 115.052 155.126 115.686 154.492C116.32 153.849 116.636 152.952 116.636 151.801C116.636 150.64 116.315 149.734 115.672 149.082C115.038 148.431 114.123 148.105 112.927 148.105H111.24V155.443H112.927ZM126.629 151.506C126.629 149.971 126.879 148.774 127.379 147.917C127.879 147.051 128.754 146.618 130.004 146.618C131.245 146.618 132.115 147.051 132.615 147.917C133.115 148.774 133.365 149.971 133.365 151.506C133.365 153.068 133.115 154.282 132.615 155.148C132.115 156.014 131.245 156.447 130.004 156.447C128.754 156.447 127.879 156.014 127.379 155.148C126.879 154.282 126.629 153.068 126.629 151.506ZM132.16 151.506C132.16 150.729 132.106 150.073 131.999 149.538C131.901 148.993 131.691 148.556 131.369 148.225C131.057 147.895 130.602 147.73 130.004 147.73C129.397 147.73 128.932 147.895 128.611 148.225C128.299 148.556 128.089 148.993 127.982 149.538C127.883 150.073 127.834 150.729 127.834 151.506C127.834 152.309 127.883 152.984 127.982 153.528C128.089 154.073 128.299 154.51 128.611 154.84C128.932 155.171 129.397 155.336 130.004 155.336C130.602 155.336 131.057 155.171 131.369 154.84C131.691 154.51 131.901 154.073 131.999 153.528C132.106 152.984 132.16 152.309 132.16 151.506ZM135.105 151.506C135.105 149.971 135.355 148.774 135.854 147.917C136.354 147.051 137.229 146.618 138.479 146.618C139.72 146.618 140.59 147.051 141.09 147.917C141.59 148.774 141.84 149.971 141.84 151.506C141.84 153.068 141.59 154.282 141.09 155.148C140.59 156.014 139.72 156.447 138.479 156.447C137.229 156.447 136.354 156.014 135.854 155.148C135.355 154.282 135.105 153.068 135.105 151.506ZM140.635 151.506C140.635 150.729 140.581 150.073 140.474 149.538C140.376 148.993 140.166 148.556 139.845 148.225C139.533 147.895 139.077 147.73 138.479 147.73C137.872 147.73 137.408 147.895 137.086 148.225C136.774 148.556 136.564 148.993 136.457 149.538C136.359 150.073 136.31 150.729 136.31 151.506C136.31 152.309 136.359 152.984 136.457 153.528C136.564 154.073 136.774 154.51 137.086 154.84C137.408 155.171 137.872 155.336 138.479 155.336C139.077 155.336 139.533 155.171 139.845 154.84C140.166 154.51 140.376 154.073 140.474 153.528C140.581 152.984 140.635 152.309 140.635 151.506ZM143.58 151.506C143.58 149.971 143.83 148.774 144.33 147.917C144.83 147.051 145.705 146.618 146.955 146.618C148.195 146.618 149.066 147.051 149.566 147.917C150.066 148.774 150.316 149.971 150.316 151.506C150.316 153.068 150.066 154.282 149.566 155.148C149.066 156.014 148.195 156.447 146.955 156.447C145.705 156.447 144.83 156.014 144.33 155.148C143.83 154.282 143.58 153.068 143.58 151.506ZM149.11 151.506C149.11 150.729 149.057 150.073 148.95 149.538C148.852 148.993 148.642 148.556 148.32 148.225C148.008 147.895 147.553 147.73 146.955 147.73C146.348 147.73 145.883 147.895 145.562 148.225C145.249 148.556 145.04 148.993 144.933 149.538C144.834 150.073 144.785 150.729 144.785 151.506C144.785 152.309 144.834 152.984 144.933 153.528C145.04 154.073 145.249 154.51 145.562 154.84C145.883 155.171 146.348 155.336 146.955 155.336C147.553 155.336 148.008 155.171 148.32 154.84C148.642 154.51 148.852 154.073 148.95 153.528C149.057 152.984 149.11 152.309 149.11 151.506ZM153.823 151.412C153.323 151.216 152.939 150.93 152.672 150.555C152.404 150.18 152.27 149.725 152.27 149.189C152.27 148.707 152.39 148.274 152.631 147.891C152.872 147.498 153.229 147.19 153.703 146.967C154.185 146.734 154.765 146.618 155.443 146.618C156.122 146.618 156.698 146.734 157.171 146.967C157.653 147.19 158.014 147.498 158.255 147.891C158.505 148.274 158.63 148.707 158.63 149.189C158.63 149.707 158.492 150.162 158.215 150.555C157.939 150.939 157.559 151.225 157.077 151.412C157.631 151.582 158.068 151.881 158.389 152.309C158.72 152.729 158.885 153.238 158.885 153.836C158.885 154.416 158.742 154.925 158.456 155.363C158.171 155.791 157.764 156.126 157.238 156.367C156.72 156.599 156.122 156.715 155.443 156.715C154.765 156.715 154.167 156.599 153.649 156.367C153.14 156.126 152.743 155.791 152.457 155.363C152.172 154.925 152.029 154.416 152.029 153.836C152.029 153.238 152.189 152.725 152.511 152.296C152.832 151.868 153.27 151.573 153.823 151.412ZM157.452 149.337C157.452 148.792 157.273 148.373 156.916 148.078C156.559 147.783 156.068 147.636 155.443 147.636C154.827 147.636 154.341 147.783 153.984 148.078C153.627 148.373 153.448 148.797 153.448 149.35C153.448 149.85 153.631 150.252 153.997 150.555C154.372 150.859 154.854 151.011 155.443 151.011C156.042 151.011 156.524 150.859 156.89 150.555C157.265 150.243 157.452 149.837 157.452 149.337ZM155.443 151.948C154.783 151.948 154.243 152.104 153.823 152.417C153.404 152.72 153.194 153.18 153.194 153.796C153.194 154.367 153.395 154.827 153.796 155.175C154.207 155.523 154.756 155.697 155.443 155.697C156.131 155.697 156.675 155.523 157.077 155.175C157.479 154.827 157.68 154.367 157.68 153.796C157.68 153.198 157.474 152.742 157.064 152.43C156.653 152.109 156.113 151.948 155.443 151.948ZM166.743 147.824H162.043V150.877C162.249 150.591 162.552 150.359 162.954 150.18C163.356 149.993 163.788 149.899 164.253 149.899C164.994 149.899 165.596 150.055 166.06 150.368C166.525 150.671 166.855 151.069 167.051 151.56C167.257 152.042 167.359 152.555 167.359 153.1C167.359 153.742 167.239 154.318 166.998 154.827C166.757 155.336 166.386 155.738 165.886 156.032C165.395 156.327 164.784 156.474 164.052 156.474C163.114 156.474 162.356 156.233 161.775 155.751C161.195 155.269 160.843 154.626 160.718 153.823H161.909C162.025 154.332 162.271 154.729 162.646 155.014C163.021 155.3 163.494 155.443 164.065 155.443C164.77 155.443 165.302 155.233 165.659 154.814C166.016 154.385 166.194 153.823 166.194 153.126C166.194 152.43 166.016 151.894 165.659 151.519C165.302 151.136 164.775 150.944 164.079 150.944C163.605 150.944 163.19 151.06 162.833 151.292C162.485 151.515 162.231 151.823 162.07 152.216H160.918V146.752H166.743V147.824ZM168.724 147.877V146.766H171.242V156.447H170.01V147.877H168.724ZM179.575 147.824H174.875V150.877C175.08 150.591 175.384 150.359 175.785 150.18C176.187 149.993 176.62 149.899 177.084 149.899C177.825 149.899 178.428 150.055 178.892 150.368C179.356 150.671 179.687 151.069 179.883 151.56C180.088 152.042 180.191 152.555 180.191 153.1C180.191 153.742 180.071 154.318 179.829 154.827C179.588 155.336 179.218 155.738 178.718 156.032C178.227 156.327 177.616 156.474 176.884 156.474C175.946 156.474 175.187 156.233 174.607 155.751C174.027 155.269 173.674 154.626 173.549 153.823H174.741C174.857 154.332 175.103 154.729 175.477 155.014C175.852 155.3 176.326 155.443 176.897 155.443C177.602 155.443 178.133 155.233 178.49 154.814C178.847 154.385 179.026 153.823 179.026 153.126C179.026 152.43 178.847 151.894 178.49 151.519C178.133 151.136 177.607 150.944 176.91 150.944C176.437 150.944 176.022 151.06 175.665 151.292C175.317 151.515 175.062 151.823 174.902 152.216H173.75V146.752H179.575V147.824ZM187.274 149.069C187.077 148.078 186.466 147.583 185.439 147.583C184.645 147.583 184.051 147.891 183.658 148.506C183.266 149.114 183.074 150.118 183.083 151.519C183.288 151.055 183.627 150.694 184.1 150.435C184.582 150.167 185.118 150.033 185.707 150.033C186.627 150.033 187.359 150.319 187.903 150.89C188.457 151.461 188.733 152.251 188.733 153.26C188.733 153.867 188.613 154.412 188.372 154.894C188.14 155.376 187.783 155.76 187.301 156.046C186.828 156.331 186.252 156.474 185.573 156.474C184.654 156.474 183.935 156.269 183.417 155.858C182.9 155.447 182.538 154.881 182.333 154.157C182.127 153.434 182.025 152.542 182.025 151.479C182.025 148.203 183.167 146.565 185.453 146.565C186.328 146.565 187.015 146.801 187.515 147.275C188.015 147.748 188.309 148.346 188.399 149.069H187.274ZM185.453 151.064C185.069 151.064 184.707 151.144 184.368 151.305C184.029 151.457 183.752 151.694 183.538 152.015C183.332 152.327 183.23 152.711 183.23 153.167C183.23 153.845 183.426 154.398 183.819 154.827C184.212 155.247 184.774 155.456 185.506 155.456C186.131 155.456 186.627 155.264 186.993 154.881C187.368 154.488 187.555 153.961 187.555 153.3C187.555 152.604 187.377 152.06 187.019 151.667C186.662 151.265 186.14 151.064 185.453 151.064ZM190.123 147.877V146.766H192.64V156.447H191.408V147.877H190.123ZM194.653 155.47C195.787 154.559 196.675 153.814 197.318 153.233C197.961 152.644 198.501 152.033 198.938 151.399C199.385 150.756 199.608 150.127 199.608 149.511C199.608 148.931 199.465 148.475 199.179 148.145C198.903 147.806 198.452 147.636 197.827 147.636C197.22 147.636 196.747 147.828 196.407 148.212C196.077 148.587 195.899 149.091 195.872 149.725H194.693C194.729 148.725 195.033 147.953 195.604 147.408C196.175 146.864 196.912 146.592 197.814 146.592C198.733 146.592 199.461 146.846 199.996 147.355C200.541 147.864 200.813 148.565 200.813 149.457C200.813 150.198 200.59 150.921 200.144 151.627C199.706 152.323 199.206 152.939 198.644 153.474C198.081 154.001 197.363 154.617 196.488 155.322H201.094V156.34H194.653V155.47ZM208.743 147.824H204.043V150.877C204.248 150.591 204.552 150.359 204.953 150.18C205.355 149.993 205.788 149.899 206.252 149.899C206.993 149.899 207.596 150.055 208.06 150.368C208.524 150.671 208.855 151.069 209.051 151.56C209.256 152.042 209.359 152.555 209.359 153.1C209.359 153.742 209.239 154.318 208.997 154.827C208.756 155.336 208.386 155.738 207.886 156.032C207.395 156.327 206.784 156.474 206.051 156.474C205.114 156.474 204.355 156.233 203.775 155.751C203.195 155.269 202.842 154.626 202.717 153.823H203.909C204.025 154.332 204.271 154.729 204.645 155.014C205.02 155.3 205.494 155.443 206.065 155.443C206.77 155.443 207.301 155.233 207.658 154.814C208.015 154.385 208.194 153.823 208.194 153.126C208.194 152.43 208.015 151.894 207.658 151.519C207.301 151.136 206.775 150.944 206.078 150.944C205.605 150.944 205.19 151.06 204.833 151.292C204.485 151.515 204.23 151.823 204.07 152.216H202.918V146.752H208.743V147.824ZM217.004 147.716L213.282 156.447H212.05L215.826 147.837H210.657V146.792H217.004V147.716Z" fill="#858585"/>
<rect x="122.291" y="142.191" width="98.1614" height="17.8475" stroke="#FF0808" stroke-width="1.48729"/>
</svg>
