<svg width="350" height="180" viewBox="0 0 350 180" fill="none" xmlns="http://www.w3.org/2000/svg">
<rect width="350" height="180" fill="white"/>
<path d="M14.6465 51.6381C15.7352 51.6381 16.6902 51.8509 17.5117 52.2764C18.343 52.702 18.9813 53.3106 19.4267 54.1024C19.8819 54.8842 20.1096 55.7947 20.1096 56.8339C20.1096 57.873 19.8819 58.7835 19.4267 59.5654C18.9813 60.3373 18.343 60.9361 17.5117 61.3617C16.6902 61.7872 15.7352 62 14.6465 62H11.0243V51.6381H14.6465ZM14.5723 60.2334C15.661 60.2334 16.5022 59.9365 17.096 59.3427C17.6898 58.7489 17.9867 57.9126 17.9867 56.8339C17.9867 55.7551 17.6898 54.9139 17.096 54.3102C16.5022 53.6966 15.661 53.3898 14.5723 53.3898H13.1026V60.2334H14.5723ZM29.3848 57.7097C29.3848 58.0066 29.365 58.2739 29.3254 58.5114H23.3131C23.3626 59.1052 23.5704 59.5703 23.9366 59.9068C24.3028 60.2433 24.7531 60.4116 25.2875 60.4116C26.0595 60.4116 26.6087 60.08 26.9353 59.4169H29.1769C28.9394 60.2087 28.4842 60.8619 27.8112 61.3765C27.1382 61.8812 26.3118 62.1336 25.332 62.1336C24.5403 62.1336 23.8277 61.9604 23.1943 61.614C22.5708 61.2577 22.081 60.758 21.7247 60.1147C21.3783 59.4714 21.2051 58.7291 21.2051 57.8879C21.2051 57.0368 21.3783 56.2896 21.7247 55.6463C22.0711 55.003 22.556 54.5081 23.1795 54.1617C23.803 53.8154 24.5205 53.6422 25.332 53.6422C26.1139 53.6422 26.8116 53.8104 27.4252 54.1469C28.0487 54.4834 28.5287 54.9634 28.8652 55.5869C29.2116 56.2005 29.3848 56.9081 29.3848 57.7097ZM27.2322 57.1159C27.2223 56.5815 27.0293 56.156 26.6533 55.8393C26.2772 55.5127 25.817 55.3494 25.2727 55.3494C24.758 55.3494 24.3226 55.5077 23.9663 55.8244C23.6199 56.1312 23.4071 56.5617 23.3279 57.1159H27.2322ZM33.0543 54.9782C33.3215 54.5824 33.6877 54.2607 34.1529 54.0133C34.6279 53.7659 35.1673 53.6422 35.771 53.6422C36.4737 53.6422 37.1071 53.8154 37.6712 54.1617C38.2452 54.5081 38.6955 55.003 39.0221 55.6463C39.3586 56.2797 39.5268 57.017 39.5268 57.8582C39.5268 58.6994 39.3586 59.4466 39.0221 60.0998C38.6955 60.7431 38.2452 61.2429 37.6712 61.5992C37.1071 61.9555 36.4737 62.1336 35.771 62.1336C35.1574 62.1336 34.618 62.0148 34.1529 61.7773C33.6976 61.5299 33.3314 61.2132 33.0543 60.8272V62H30.976V51.0146H33.0543V54.9782ZM37.404 57.8582C37.404 57.3634 37.3 56.9378 37.0922 56.5815C36.8943 56.2153 36.6271 55.9382 36.2906 55.7502C35.964 55.5621 35.6077 55.4681 35.2217 55.4681C34.8456 55.4681 34.4894 55.5671 34.1529 55.765C33.8263 55.9531 33.5591 56.2302 33.3512 56.5964C33.1533 56.9625 33.0543 57.393 33.0543 57.8879C33.0543 58.3827 33.1533 58.8132 33.3512 59.1794C33.5591 59.5456 33.8263 59.8277 34.1529 60.0256C34.4894 60.2136 34.8456 60.3077 35.2217 60.3077C35.6077 60.3077 35.964 60.2087 36.2906 60.0107C36.6271 59.8128 36.8943 59.5308 37.0922 59.1646C37.3 58.7984 37.404 58.3629 37.404 57.8582ZM42.1653 52.796C41.7991 52.796 41.4923 52.6822 41.2449 52.4546C41.0074 52.217 40.8886 51.9251 40.8886 51.5787C40.8886 51.2323 41.0074 50.9453 41.2449 50.7177C41.4923 50.4801 41.7991 50.3614 42.1653 50.3614C42.5315 50.3614 42.8333 50.4801 43.0709 50.7177C43.3183 50.9453 43.442 51.2323 43.442 51.5787C43.442 51.9251 43.3183 52.217 43.0709 52.4546C42.8333 52.6822 42.5315 52.796 42.1653 52.796ZM43.1896 53.7758V62H41.1113V53.7758H43.1896ZM47.737 55.483V59.4615C47.737 59.7386 47.8013 59.9415 47.93 60.0701C48.0685 60.1889 48.2962 60.2483 48.6129 60.2483H49.5778V62H48.2714C46.5197 62 45.6438 61.1489 45.6438 59.4466V55.483H44.6641V53.7758H45.6438V51.742H47.737V53.7758H49.5778V55.483H47.737ZM58.7921 57.7097C58.7921 58.0066 58.7723 58.2739 58.7328 58.5114H52.7205C52.7699 59.1052 52.9778 59.5703 53.344 59.9068C53.7101 60.2433 54.1604 60.4116 54.6949 60.4116C55.4668 60.4116 56.0161 60.08 56.3427 59.4169H58.5843C58.3468 60.2087 57.8915 60.8619 57.2185 61.3765C56.5456 61.8812 55.7192 62.1336 54.7394 62.1336C53.9477 62.1336 53.2351 61.9604 52.6017 61.614C51.9782 61.2577 51.4883 60.758 51.132 60.1147C50.7856 59.4714 50.6124 58.7291 50.6124 57.8879C50.6124 57.0368 50.7856 56.2896 51.132 55.6463C51.4784 55.003 51.9634 54.5081 52.5869 54.1617C53.2104 53.8154 53.9279 53.6422 54.7394 53.6422C55.5212 53.6422 56.219 53.8104 56.8326 54.1469C57.4561 54.4834 57.9361 54.9634 58.2726 55.5869C58.6189 56.2005 58.7921 56.9081 58.7921 57.7097ZM56.6396 57.1159C56.6297 56.5815 56.4367 56.156 56.0606 55.8393C55.6845 55.5127 55.2243 55.3494 54.68 55.3494C54.1654 55.3494 53.7299 55.5077 53.3736 55.8244C53.0273 56.1312 52.8145 56.5617 52.7353 57.1159H56.6396ZM59.8489 57.8582C59.8489 57.0269 60.0122 56.2896 60.3388 55.6463C60.6753 55.003 61.1306 54.5081 61.7046 54.1617C62.2786 53.8154 62.9169 53.6422 63.6196 53.6422C64.154 53.6422 64.6637 53.7609 65.1487 53.9985C65.6336 54.2261 66.0196 54.5329 66.3066 54.9189V51.0146H68.4146V62H66.3066V60.7827C66.0493 61.1885 65.688 61.5151 65.2229 61.7625C64.7577 62.0099 64.2184 62.1336 63.6048 62.1336C62.912 62.1336 62.2786 61.9555 61.7046 61.5992C61.1306 61.2429 60.6753 60.7431 60.3388 60.0998C60.0122 59.4466 59.8489 58.6994 59.8489 57.8582ZM66.3214 57.8879C66.3214 57.3832 66.2225 56.9526 66.0245 56.5964C65.8266 56.2302 65.5594 55.9531 65.2229 55.765C64.8864 55.5671 64.5252 55.4681 64.1392 55.4681C63.7532 55.4681 63.3969 55.5621 63.0703 55.7502C62.7437 55.9382 62.4765 56.2153 62.2687 56.5815C62.0708 56.9378 61.9718 57.3634 61.9718 57.8582C61.9718 58.353 62.0708 58.7885 62.2687 59.1646C62.4765 59.5308 62.7437 59.8128 63.0703 60.0107C63.4068 60.2087 63.7631 60.3077 64.1392 60.3077C64.5252 60.3077 64.8864 60.2136 65.2229 60.0256C65.5594 59.8277 65.8266 59.5505 66.0245 59.1943C66.2225 58.8281 66.3214 58.3926 66.3214 57.8879ZM77.9009 55.483H76.4609V62H74.3529V55.483H73.4176V53.7758H74.3529V53.3601C74.3529 52.3506 74.6399 51.6084 75.2139 51.1333C75.7879 50.6583 76.6539 50.4356 77.8118 50.4653V52.217C77.3071 52.2071 76.9557 52.2913 76.7578 52.4694C76.5599 52.6475 76.4609 52.9692 76.4609 53.4343V53.7758H77.9009V55.483ZM81.4003 55.0525C81.6675 54.617 82.0139 54.2756 82.4394 54.0281C82.8749 53.7807 83.3697 53.657 83.924 53.657V55.8393H83.3747C82.7215 55.8393 82.2267 55.9927 81.8902 56.2995C81.5636 56.6063 81.4003 57.1407 81.4003 57.9027V62H79.322V53.7758H81.4003V55.0525ZM89.05 62.1336C88.2582 62.1336 87.5456 61.9604 86.9123 61.614C86.2789 61.2577 85.7791 60.758 85.4129 60.1147C85.0566 59.4714 84.8785 58.7291 84.8785 57.8879C84.8785 57.0467 85.0616 56.3044 85.4277 55.6611C85.8038 55.0178 86.3135 54.523 86.9568 54.1766C87.6001 53.8203 88.3176 53.6422 89.1093 53.6422C89.9011 53.6422 90.6186 53.8203 91.2619 54.1766C91.9052 54.523 92.4099 55.0178 92.7761 55.6611C93.1522 56.3044 93.3402 57.0467 93.3402 57.8879C93.3402 58.7291 93.1472 59.4714 92.7612 60.1147C92.3852 60.758 91.8705 61.2577 91.2174 61.614C90.5741 61.9604 89.8516 62.1336 89.05 62.1336ZM89.05 60.3225C89.426 60.3225 89.7774 60.2334 90.104 60.0553C90.4405 59.8672 90.7077 59.5901 90.9056 59.224C91.1035 58.8578 91.2025 58.4124 91.2025 57.8879C91.2025 57.106 90.9947 56.5073 90.579 56.0916C90.1732 55.6661 89.6735 55.4533 89.0796 55.4533C88.4858 55.4533 87.9861 55.6661 87.5803 56.0916C87.1844 56.5073 86.9865 57.106 86.9865 57.8879C86.9865 58.6697 87.1795 59.2734 87.5654 59.699C87.9613 60.1147 88.4561 60.3225 89.05 60.3225ZM105.152 53.657C106.162 53.657 106.973 53.9688 107.587 54.5923C108.211 55.2059 108.522 56.0669 108.522 57.1753V62H106.444V57.4574C106.444 56.8141 106.281 56.3242 105.954 55.9877C105.627 55.6413 105.182 55.4681 104.618 55.4681C104.054 55.4681 103.604 55.6413 103.267 55.9877C102.941 56.3242 102.777 56.8141 102.777 57.4574V62H100.699V57.4574C100.699 56.8141 100.536 56.3242 100.209 55.9877C99.8824 55.6413 99.4371 55.4681 98.8729 55.4681C98.2989 55.4681 97.8437 55.6413 97.5072 55.9877C97.1806 56.3242 97.0173 56.8141 97.0173 57.4574V62H94.939V53.7758H97.0173V54.7704C97.2845 54.424 97.6259 54.1519 98.0416 53.9539C98.4672 53.756 98.9323 53.657 99.4371 53.657C100.08 53.657 100.654 53.7956 101.159 54.0727C101.664 54.3399 102.055 54.7259 102.332 55.2306C102.599 54.7556 102.985 54.3745 103.49 54.0875C104.004 53.8005 104.559 53.657 105.152 53.657Z" fill="black"/>
<path d="M12.1718 120.188V125.957C12.1718 126.768 12.3681 127.37 12.7606 127.763C13.1618 128.155 13.7157 128.352 14.4222 128.352C15.1199 128.352 15.6651 128.155 16.0576 127.763C16.4588 127.37 16.6594 126.768 16.6594 125.957V120.188H17.85V125.944C17.85 126.703 17.6973 127.344 17.3921 127.867C17.0868 128.382 16.6725 128.766 16.1491 129.019C15.6345 129.272 15.0545 129.398 14.4091 129.398C13.7636 129.398 13.1792 129.272 12.6559 129.019C12.1413 128.766 11.7314 128.382 11.4261 127.867C11.1295 127.344 10.9812 126.703 10.9812 125.944V120.188H12.1718ZM25.5142 120.188V121.156H23.0284V129.307H21.8378V121.156H19.3389V120.188H25.5142ZM31.8467 129.307L29.6749 125.578H28.2358V129.307H27.0452V120.188H29.9889C30.678 120.188 31.258 120.305 31.729 120.541C32.2087 120.776 32.5663 121.095 32.8018 121.496C33.0373 121.897 33.1551 122.355 33.1551 122.87C33.1551 123.498 32.9719 124.052 32.6056 124.531C32.248 125.011 31.7072 125.329 30.9832 125.486L33.2728 129.307H31.8467ZM28.2358 124.623H29.9889C30.6344 124.623 31.1184 124.466 31.4412 124.152C31.7639 123.829 31.9252 123.402 31.9252 122.87C31.9252 122.329 31.7639 121.91 31.4412 121.614C31.1272 121.317 30.6431 121.169 29.9889 121.169H28.2358V124.623ZM35.4499 129.385C35.2231 129.385 35.0312 129.307 34.8742 129.15C34.7172 128.993 34.6387 128.801 34.6387 128.574C34.6387 128.347 34.7172 128.155 34.8742 127.998C35.0312 127.841 35.2231 127.763 35.4499 127.763C35.6679 127.763 35.8511 127.841 35.9994 127.998C36.1564 128.155 36.2349 128.347 36.2349 128.574C36.2349 128.801 36.1564 128.993 35.9994 129.15C35.8511 129.307 35.6679 129.385 35.4499 129.385ZM35.4499 123.785C35.2231 123.785 35.0312 123.707 34.8742 123.55C34.7172 123.393 34.6387 123.201 34.6387 122.974C34.6387 122.748 34.7172 122.556 34.8742 122.399C35.0312 122.242 35.2231 122.163 35.4499 122.163C35.6679 122.163 35.8511 122.242 35.9994 122.399C36.1564 122.556 36.2349 122.748 36.2349 122.974C36.2349 123.201 36.1564 123.393 35.9994 123.55C35.8511 123.707 35.6679 123.785 35.4499 123.785ZM46.3625 126.768C46.4498 127.266 46.6504 127.649 46.9644 127.92C47.2871 128.19 47.7188 128.325 48.2596 128.325C48.9836 128.325 49.5156 128.042 49.8558 127.475C50.2047 126.908 50.3704 125.953 50.3529 124.61C50.1698 125.002 49.8645 125.312 49.4371 125.539C49.0097 125.757 48.5344 125.866 48.011 125.866C47.4267 125.866 46.9033 125.748 46.441 125.512C45.9875 125.268 45.6299 124.915 45.3682 124.453C45.1066 123.99 44.9757 123.432 44.9757 122.778C44.9757 121.845 45.2461 121.095 45.7869 120.528C46.3277 119.952 47.0952 119.664 48.0895 119.664C49.3106 119.664 50.1654 120.061 50.6539 120.855C51.151 121.649 51.3996 122.83 51.3996 124.4C51.3996 125.499 51.2993 126.407 51.0987 127.122C50.9068 127.837 50.5754 128.382 50.1044 128.757C49.6421 129.132 49.0054 129.32 48.1942 129.32C47.3045 129.32 46.6111 129.08 46.114 128.6C45.6168 128.12 45.3333 127.51 45.2635 126.768H46.3625ZM48.2073 124.858C48.7917 124.858 49.2714 124.68 49.6465 124.322C50.0215 123.956 50.209 123.463 50.209 122.843C50.209 122.189 50.0259 121.662 49.6595 121.26C49.2932 120.859 48.7786 120.659 48.1157 120.659C47.5052 120.659 47.0167 120.85 46.6504 121.234C46.2928 121.618 46.114 122.124 46.114 122.752C46.114 123.389 46.2928 123.899 46.6504 124.283C47.008 124.666 47.527 124.858 48.2073 124.858ZM54.8651 124.387C54.3767 124.195 54.0017 123.916 53.74 123.55C53.4783 123.184 53.3475 122.739 53.3475 122.215C53.3475 121.745 53.4652 121.321 53.7007 120.946C53.9362 120.563 54.2851 120.262 54.7474 120.044C55.2184 119.817 55.7853 119.704 56.4482 119.704C57.1111 119.704 57.6737 119.817 58.136 120.044C58.607 120.262 58.9602 120.563 59.1957 120.946C59.4399 121.321 59.5621 121.745 59.5621 122.215C59.5621 122.721 59.4269 123.166 59.1565 123.55C58.8861 123.925 58.5154 124.204 58.0444 124.387C58.5852 124.553 59.0126 124.845 59.3266 125.264C59.6493 125.674 59.8106 126.171 59.8106 126.755C59.8106 127.322 59.6711 127.82 59.392 128.247C59.1129 128.666 58.716 128.993 58.2014 129.228C57.6955 129.455 57.1111 129.568 56.4482 129.568C55.7853 129.568 55.201 129.455 54.6951 129.228C54.1979 128.993 53.8098 128.666 53.5307 128.247C53.2515 127.82 53.112 127.322 53.112 126.755C53.112 126.171 53.269 125.669 53.583 125.251C53.897 124.832 54.3244 124.544 54.8651 124.387ZM58.4107 122.359C58.4107 121.827 58.2363 121.417 57.8874 121.13C57.5385 120.842 57.0588 120.698 56.4482 120.698C55.8464 120.698 55.371 120.842 55.0221 121.13C54.6733 121.417 54.4988 121.832 54.4988 122.372C54.4988 122.861 54.6776 123.253 55.0352 123.55C55.4016 123.847 55.8726 123.995 56.4482 123.995C57.0326 123.995 57.5036 123.847 57.8612 123.55C58.2276 123.245 58.4107 122.848 58.4107 122.359ZM56.4482 124.911C55.8028 124.911 55.2751 125.063 54.8651 125.369C54.4552 125.665 54.2502 126.114 54.2502 126.716C54.2502 127.274 54.4465 127.724 54.839 128.064C55.2402 128.404 55.7766 128.574 56.4482 128.574C57.1198 128.574 57.6519 128.404 58.0444 128.064C58.4369 127.724 58.6331 127.274 58.6331 126.716C58.6331 126.132 58.4325 125.687 58.0313 125.382C57.6301 125.068 57.1024 124.911 56.4482 124.911ZM61.1695 127.2V126.297L65.7617 119.939H67.1878V126.167H68.4961V127.2H67.1878V129.307H66.0103V127.2H61.1695ZM66.0626 121.182L62.5432 126.167H66.0626V121.182ZM75.7823 120.881H71.19V123.864C71.3906 123.585 71.6872 123.358 72.0797 123.184C72.4722 123 72.8952 122.909 73.3488 122.909C74.0727 122.909 74.6615 123.062 75.115 123.367C75.5686 123.663 75.8913 124.052 76.0832 124.531C76.2838 125.002 76.3841 125.504 76.3841 126.036C76.3841 126.664 76.2663 127.226 76.0308 127.724C75.7953 128.221 75.4334 128.613 74.9449 128.901C74.4652 129.189 73.8677 129.333 73.1525 129.333C72.2367 129.333 71.4953 129.097 70.9284 128.626C70.3614 128.155 70.0169 127.527 69.8948 126.742H71.0592C71.1726 127.239 71.4124 127.628 71.7788 127.907C72.1451 128.186 72.6074 128.325 73.1656 128.325C73.8547 128.325 74.3736 128.12 74.7225 127.71C75.0714 127.292 75.2458 126.742 75.2458 126.062C75.2458 125.382 75.0714 124.858 74.7225 124.492C74.3736 124.117 73.859 123.929 73.1787 123.929C72.7164 123.929 72.3108 124.043 71.9619 124.27C71.6218 124.488 71.3732 124.789 71.2162 125.172H70.091V119.834H75.7823V120.881ZM77.7177 120.933V119.847H80.1773V129.307H78.9737V120.933H77.7177ZM82.1439 128.352C83.2516 127.462 84.1195 126.734 84.7475 126.167C85.3755 125.591 85.9032 124.994 86.3306 124.374C86.7667 123.746 86.9847 123.131 86.9847 122.529C86.9847 121.963 86.8452 121.518 86.5661 121.195C86.2957 120.864 85.8552 120.698 85.2446 120.698C84.6515 120.698 84.1893 120.885 83.8578 121.26C83.5351 121.627 83.3606 122.12 83.3345 122.739H82.1832C82.218 121.762 82.5146 121.007 83.0728 120.475C83.631 119.943 84.3506 119.677 85.2316 119.677C86.1299 119.677 86.8408 119.926 87.3641 120.423C87.8962 120.92 88.1622 121.605 88.1622 122.477C88.1622 123.201 87.9442 123.908 87.508 124.597C87.0807 125.277 86.5922 125.879 86.0427 126.402C85.4932 126.917 84.7911 127.519 83.9363 128.208H88.437V129.202H82.1439V128.352ZM91.6057 124.387C91.1172 124.195 90.7422 123.916 90.4805 123.55C90.2188 123.184 90.088 122.739 90.088 122.215C90.088 121.745 90.2058 121.321 90.4413 120.946C90.6768 120.563 91.0257 120.262 91.4879 120.044C91.9589 119.817 92.5259 119.704 93.1888 119.704C93.8516 119.704 94.4142 119.817 94.8765 120.044C95.3475 120.262 95.7007 120.563 95.9362 120.946C96.1805 121.321 96.3026 121.745 96.3026 122.215C96.3026 122.721 96.1674 123.166 95.897 123.55C95.6266 123.925 95.2559 124.204 94.7849 124.387C95.3257 124.553 95.7531 124.845 96.0671 125.264C96.3898 125.674 96.5512 126.171 96.5512 126.755C96.5512 127.322 96.4116 127.82 96.1325 128.247C95.8534 128.666 95.4565 128.993 94.9419 129.228C94.436 129.455 93.8516 129.568 93.1888 129.568C92.5259 129.568 91.9415 129.455 91.4356 129.228C90.9384 128.993 90.5503 128.666 90.2712 128.247C89.9921 127.82 89.8525 127.322 89.8525 126.755C89.8525 126.171 90.0095 125.669 90.3235 125.251C90.6375 124.832 91.0649 124.544 91.6057 124.387ZM95.1512 122.359C95.1512 121.827 94.9768 121.417 94.6279 121.13C94.279 120.842 93.7993 120.698 93.1888 120.698C92.5869 120.698 92.1116 120.842 91.7627 121.13C91.4138 121.417 91.2393 121.832 91.2393 122.372C91.2393 122.861 91.4182 123.253 91.7758 123.55C92.1421 123.847 92.6131 123.995 93.1888 123.995C93.7731 123.995 94.2441 123.847 94.6018 123.55C94.9681 123.245 95.1512 122.848 95.1512 122.359ZM93.1888 124.911C92.5433 124.911 92.0156 125.063 91.6057 125.369C91.1957 125.665 90.9908 126.114 90.9908 126.716C90.9908 127.274 91.187 127.724 91.5795 128.064C91.9807 128.404 92.5171 128.574 93.1888 128.574C93.8604 128.574 94.3924 128.404 94.7849 128.064C95.1774 127.724 95.3737 127.274 95.3737 126.716C95.3737 126.132 95.1731 125.687 94.7718 125.382C94.3706 125.068 93.8429 124.911 93.1888 124.911ZM104.02 120.776L100.383 129.307H99.1791L102.869 120.894H97.8184V119.874H104.02V120.776ZM106.936 126.768C107.023 127.266 107.224 127.649 107.538 127.92C107.861 128.19 108.292 128.325 108.833 128.325C109.557 128.325 110.089 128.042 110.429 127.475C110.778 126.908 110.944 125.953 110.927 124.61C110.743 125.002 110.438 125.312 110.011 125.539C109.583 125.757 109.108 125.866 108.585 125.866C108 125.866 107.477 125.748 107.015 125.512C106.561 125.268 106.203 124.915 105.942 124.453C105.68 123.99 105.549 123.432 105.549 122.778C105.549 121.845 105.82 121.095 106.36 120.528C106.901 119.952 107.669 119.664 108.663 119.664C109.884 119.664 110.739 120.061 111.227 120.855C111.725 121.649 111.973 122.83 111.973 124.4C111.973 125.499 111.873 126.407 111.672 127.122C111.48 127.837 111.149 128.382 110.678 128.757C110.216 129.132 109.579 129.32 108.768 129.32C107.878 129.32 107.185 129.08 106.688 128.6C106.19 128.12 105.907 127.51 105.837 126.768H106.936ZM108.781 124.858C109.365 124.858 109.845 124.68 110.22 124.322C110.595 123.956 110.783 123.463 110.783 122.843C110.783 122.189 110.599 121.662 110.233 121.26C109.867 120.859 109.352 120.659 108.689 120.659C108.079 120.659 107.59 120.85 107.224 121.234C106.866 121.618 106.688 122.124 106.688 122.752C106.688 123.389 106.866 123.899 107.224 124.283C107.582 124.666 108.101 124.858 108.781 124.858ZM113.686 122.229C113.747 121.426 114.056 120.798 114.614 120.345C115.173 119.891 115.897 119.664 116.786 119.664C117.379 119.664 117.89 119.773 118.317 119.991C118.753 120.201 119.08 120.489 119.298 120.855C119.525 121.221 119.638 121.635 119.638 122.098C119.638 122.639 119.481 123.105 119.167 123.498C118.862 123.89 118.461 124.143 117.964 124.256V124.322C118.531 124.461 118.98 124.736 119.311 125.146C119.643 125.556 119.809 126.093 119.809 126.755C119.809 127.253 119.695 127.702 119.468 128.103C119.242 128.495 118.901 128.805 118.448 129.032C117.994 129.259 117.449 129.372 116.812 129.372C115.888 129.372 115.129 129.132 114.536 128.652C113.943 128.164 113.611 127.475 113.542 126.585H114.693C114.754 127.109 114.968 127.536 115.334 127.867C115.7 128.199 116.189 128.365 116.799 128.365C117.41 128.365 117.872 128.208 118.186 127.894C118.509 127.571 118.67 127.157 118.67 126.651C118.67 125.997 118.452 125.526 118.016 125.238C117.58 124.95 116.921 124.806 116.041 124.806H115.74V123.812H116.054C116.856 123.803 117.462 123.672 117.872 123.419C118.282 123.157 118.487 122.756 118.487 122.215C118.487 121.753 118.334 121.383 118.029 121.103C117.733 120.824 117.305 120.685 116.747 120.685C116.206 120.685 115.77 120.824 115.439 121.103C115.107 121.383 114.911 121.758 114.85 122.229H113.686ZM121.338 128.352C122.445 127.462 123.313 126.734 123.941 126.167C124.569 125.591 125.097 124.994 125.524 124.374C125.96 123.746 126.178 123.131 126.178 122.529C126.178 121.963 126.039 121.518 125.76 121.195C125.489 120.864 125.049 120.698 124.438 120.698C123.845 120.698 123.383 120.885 123.051 121.26C122.729 121.627 122.554 122.12 122.528 122.739H121.377C121.412 121.762 121.708 121.007 122.266 120.475C122.825 119.943 123.544 119.677 124.425 119.677C125.324 119.677 126.034 119.926 126.558 120.423C127.09 120.92 127.356 121.605 127.356 122.477C127.356 123.201 127.138 123.908 126.702 124.597C126.274 125.277 125.786 125.879 125.236 126.402C124.687 126.917 123.985 127.519 123.13 128.208H127.631V129.202H121.338V128.352ZM128.758 120.933V119.847H131.218V129.307H130.014V120.933H128.758Z" fill="#858585"/>
<rect x="39.7891" y="115.033" width="95.9069" height="17.4376" stroke="#FF0808" stroke-width="1.45313"/>
<path d="M47.9132 86.1324L48.4661 87.1309L46.3311 88.0218L48.4815 88.8973L47.8978 89.9264L46.0392 88.5747L46.285 90.8941H45.133L45.3634 88.5747L43.5048 89.9418L42.9057 88.8973L45.0408 88.0064L42.9057 87.1462L43.4741 86.1171L45.3787 87.4841L45.133 85.1494H46.3003L46.0392 87.4841L47.9132 86.1324ZM55.4601 86.1324L56.0131 87.1309L53.878 88.0218L56.0284 88.8973L55.4448 89.9264L53.5862 88.5747L53.8319 90.8941H52.6799L52.9103 88.5747L51.0517 89.9418L50.4527 88.8973L52.5877 88.0064L50.4527 87.1462L51.021 86.1171L52.9257 87.4841L52.6799 85.1494H53.8473L53.5862 87.4841L55.4601 86.1324ZM63.0071 86.1324L63.56 87.1309L61.4249 88.0218L63.5754 88.8973L62.9917 89.9264L61.1331 88.5747L61.3789 90.8941H60.2268L60.4572 88.5747L58.5987 89.9418L57.9996 88.8973L60.1347 88.0064L57.9996 87.1462L58.5679 86.1171L60.4726 87.4841L60.2268 85.1494H61.3942L61.1331 87.4841L63.0071 86.1324ZM70.554 86.1324L71.107 87.1309L68.9719 88.0218L71.1223 88.8973L70.5386 89.9264L68.68 88.5747L68.9258 90.8941H67.7738L68.0042 88.5747L66.1456 89.9418L65.5465 88.8973L67.6816 88.0064L65.5465 87.1462L66.1149 86.1171L68.0195 87.4841L67.7738 85.1494H68.9412L68.68 87.4841L70.554 86.1324ZM78.1009 86.1324L78.6539 87.1309L76.5188 88.0218L78.6693 88.8973L78.0856 89.9264L76.227 88.5747L76.4727 90.8941H75.3207L75.5511 88.5747L73.6925 89.9418L73.0935 88.8973L75.2286 88.0064L73.0935 87.1462L73.6618 86.1171L75.5665 87.4841L75.3207 85.1494H76.4881L76.227 87.4841L78.1009 86.1324ZM85.6479 86.1324L86.2008 87.1309L84.0658 88.0218L86.2162 88.8973L85.6325 89.9264L83.7739 88.5747L84.0197 90.8941H82.8677L83.0981 88.5747L81.2395 89.9418L80.6404 88.8973L82.7755 88.0064L80.6404 87.1462L81.2087 86.1171L83.1134 87.4841L82.8677 85.1494H84.035L83.7739 87.4841L85.6479 86.1324ZM88.2027 90.7559C88.2027 88.9946 88.4894 87.6224 89.0629 86.6393C89.6363 85.646 90.6399 85.1494 92.0735 85.1494C93.4969 85.1494 94.4953 85.646 95.0688 86.6393C95.6422 87.6224 95.9289 88.9946 95.9289 90.7559C95.9289 92.5479 95.6422 93.9406 95.0688 94.9339C94.4953 95.9272 93.4969 96.4238 92.0735 96.4238C90.6399 96.4238 89.6363 95.9272 89.0629 94.9339C88.4894 93.9406 88.2027 92.5479 88.2027 90.7559ZM94.5465 90.7559C94.5465 89.865 94.4851 89.1123 94.3622 88.4979C94.2496 87.8733 94.0089 87.3715 93.6403 86.9926C93.2819 86.6137 92.7596 86.4243 92.0735 86.4243C91.3772 86.4243 90.8447 86.6137 90.476 86.9926C90.1176 87.3715 89.877 87.8733 89.7541 88.4979C89.6415 89.1123 89.5851 89.865 89.5851 90.7559C89.5851 91.6775 89.6415 92.4506 89.7541 93.0753C89.877 93.6999 90.1176 94.2017 90.476 94.5806C90.8447 94.9595 91.3772 95.1489 92.0735 95.1489C92.7596 95.1489 93.2819 94.9595 93.6403 94.5806C94.0089 94.2017 94.2496 93.6999 94.3622 93.0753C94.4851 92.4506 94.5465 91.6775 94.5465 90.7559ZM97.5868 93.9508V92.891L102.978 85.4259H104.652V92.7374H106.189V93.9508H104.652V96.4238H103.27V93.9508H97.5868ZM103.332 86.8851L99.1996 92.7374H103.332V86.8851ZM114.743 86.5318H109.351V90.034C109.587 89.7063 109.935 89.44 110.396 89.2352C110.857 89.0202 111.353 88.9126 111.886 88.9126C112.736 88.9126 113.427 89.0919 113.959 89.4503C114.492 89.7984 114.871 90.2541 115.096 90.8173C115.332 91.3703 115.449 91.9591 115.449 92.5838C115.449 93.3211 115.311 93.9815 115.035 94.5652C114.758 95.1489 114.333 95.6097 113.76 95.9477C113.196 96.2856 112.495 96.4545 111.655 96.4545C110.58 96.4545 109.71 96.1781 109.044 95.6251C108.378 95.0721 107.974 94.3348 107.831 93.4132H109.198C109.331 93.9969 109.612 94.4526 110.043 94.7803C110.473 95.108 111.015 95.2718 111.671 95.2718C112.48 95.2718 113.089 95.0312 113.499 94.5499C113.908 94.0583 114.113 93.4132 114.113 92.6145C114.113 91.8157 113.908 91.2013 113.499 90.7712C113.089 90.3309 112.485 90.1108 111.686 90.1108C111.143 90.1108 110.667 90.2439 110.258 90.5101C109.858 90.7661 109.566 91.1194 109.382 91.57H108.061V85.303H114.743V86.5318ZM117.015 86.5932V85.3183H119.903V96.4238H118.49V86.5932H117.015Z" fill="black"/>
<path d="M217.952 96.4238L215.048 91.3549V90.6791H215.386C215.929 90.6791 216.385 90.6279 216.753 90.5255C217.132 90.4231 217.429 90.2541 217.644 90.0186C217.859 89.7831 217.987 89.4605 218.028 89.0509H215.048V88.0678H218.013C217.941 87.6889 217.798 87.3817 217.583 87.1462C217.368 86.9005 217.076 86.7212 216.707 86.6086C216.349 86.496 215.909 86.4396 215.386 86.4396H215.048V85.4566H221.408V86.4396H218.504C218.74 86.6342 218.935 86.8646 219.088 87.1309C219.242 87.3971 219.339 87.7094 219.38 88.0678H221.408V89.0509H219.411C219.339 89.7984 219.052 90.3821 218.551 90.802C218.059 91.2116 217.404 91.4727 216.584 91.5853L219.518 96.4238H217.952ZM230.735 86.5318H225.344V90.034C225.579 89.7063 225.928 89.44 226.388 89.2352C226.849 89.0202 227.346 88.9126 227.878 88.9126C228.728 88.9126 229.419 89.0919 229.952 89.4503C230.484 89.7984 230.863 90.2541 231.089 90.8173C231.324 91.3703 231.442 91.9591 231.442 92.5838C231.442 93.3211 231.304 93.9815 231.027 94.5652C230.751 95.1489 230.326 95.6097 229.752 95.9477C229.189 96.2856 228.488 96.4545 227.648 96.4545C226.573 96.4545 225.702 96.1781 225.037 95.6251C224.371 95.0721 223.967 94.3348 223.823 93.4132H225.19C225.323 93.9969 225.605 94.4526 226.035 94.7803C226.465 95.108 227.008 95.2718 227.663 95.2718C228.472 95.2718 229.082 95.0312 229.491 94.5499C229.901 94.0583 230.106 93.4132 230.106 92.6145C230.106 91.8157 229.901 91.2013 229.491 90.7712C229.082 90.3309 228.477 90.1108 227.679 90.1108C227.136 90.1108 226.66 90.2439 226.25 90.5101C225.851 90.7661 225.559 91.1194 225.375 91.57H224.054V85.303H230.735V86.5318ZM233.376 90.7559C233.376 88.9946 233.663 87.6224 234.236 86.6393C234.81 85.646 235.813 85.1494 237.247 85.1494C238.67 85.1494 239.669 85.646 240.242 86.6393C240.816 87.6224 241.102 88.9946 241.102 90.7559C241.102 92.5479 240.816 93.9406 240.242 94.9339C239.669 95.9272 238.67 96.4238 237.247 96.4238C235.813 96.4238 234.81 95.9272 234.236 94.9339C233.663 93.9406 233.376 92.5479 233.376 90.7559ZM239.72 90.7559C239.72 89.865 239.659 89.1123 239.536 88.4979C239.423 87.8733 239.182 87.3715 238.814 86.9926C238.455 86.6137 237.933 86.4243 237.247 86.4243C236.551 86.4243 236.018 86.6137 235.65 86.9926C235.291 87.3715 235.051 87.8733 234.928 88.4979C234.815 89.1123 234.759 89.865 234.759 90.7559C234.759 91.6775 234.815 92.4506 234.928 93.0753C235.051 93.6999 235.291 94.2017 235.65 94.5806C236.018 94.9595 236.551 95.1489 237.247 95.1489C237.933 95.1489 238.455 94.9595 238.814 94.5806C239.182 94.2017 239.423 93.6999 239.536 93.0753C239.659 92.4506 239.72 91.6775 239.72 90.7559ZM243.098 90.7559C243.098 88.9946 243.385 87.6224 243.958 86.6393C244.532 85.646 245.535 85.1494 246.969 85.1494C248.392 85.1494 249.391 85.646 249.964 86.6393C250.538 87.6224 250.824 88.9946 250.824 90.7559C250.824 92.5479 250.538 93.9406 249.964 94.9339C249.391 95.9272 248.392 96.4238 246.969 96.4238C245.535 96.4238 244.532 95.9272 243.958 94.9339C243.385 93.9406 243.098 92.5479 243.098 90.7559ZM249.442 90.7559C249.442 89.865 249.381 89.1123 249.258 88.4979C249.145 87.8733 248.904 87.3715 248.536 86.9926C248.177 86.6137 247.655 86.4243 246.969 86.4243C246.273 86.4243 245.74 86.6137 245.372 86.9926C245.013 87.3715 244.772 87.8733 244.65 88.4979C244.537 89.1123 244.481 89.865 244.481 90.7559C244.481 91.6775 244.537 92.4506 244.65 93.0753C244.772 93.6999 245.013 94.2017 245.372 94.5806C245.74 94.9595 246.273 95.1489 246.969 95.1489C247.655 95.1489 248.177 94.9595 248.536 94.5806C248.904 94.2017 249.145 93.6999 249.258 93.0753C249.381 92.4506 249.442 91.6775 249.442 90.7559ZM252.82 90.7559C252.82 88.9946 253.107 87.6224 253.68 86.6393C254.254 85.646 255.257 85.1494 256.691 85.1494C258.114 85.1494 259.113 85.646 259.686 86.6393C260.26 87.6224 260.546 88.9946 260.546 90.7559C260.546 92.5479 260.26 93.9406 259.686 94.9339C259.113 95.9272 258.114 96.4238 256.691 96.4238C255.257 96.4238 254.254 95.9272 253.68 94.9339C253.107 93.9406 252.82 92.5479 252.82 90.7559ZM259.164 90.7559C259.164 89.865 259.103 89.1123 258.98 88.4979C258.867 87.8733 258.626 87.3715 258.258 86.9926C257.899 86.6137 257.377 86.4243 256.691 86.4243C255.995 86.4243 255.462 86.6137 255.094 86.9926C254.735 87.3715 254.494 87.8733 254.372 88.4979C254.259 89.1123 254.203 89.865 254.203 90.7559C254.203 91.6775 254.259 92.4506 254.372 93.0753C254.494 93.6999 254.735 94.2017 255.094 94.5806C255.462 94.9595 255.995 95.1489 256.691 95.1489C257.377 95.1489 257.899 94.9595 258.258 94.5806C258.626 94.2017 258.867 93.6999 258.98 93.0753C259.103 92.4506 259.164 91.6775 259.164 90.7559Z" fill="black"/>
<path fill-rule="evenodd" clip-rule="evenodd" d="M21.8194 102.68C21.7547 102.681 21.69 102.682 21.6251 102.682C21.5602 102.682 21.4954 102.681 21.4308 102.68H21.8194ZM22.7863 102.625C28.6614 102.042 33.2502 97.0852 33.2502 91.0567C33.2502 84.6364 28.0454 79.4316 21.6251 79.4316C15.2047 79.4316 10 84.6364 10 91.0567C10 97.0843 14.5874 102.04 20.4613 102.624V93.0703C19.7658 92.6684 19.2979 91.9168 19.2979 91.0559C19.2979 89.7718 20.3389 88.7309 21.6229 88.7309C22.907 88.7309 23.9479 89.7718 23.9479 91.0559C23.9479 91.9161 23.4808 92.6672 22.7863 93.0694V102.625Z" fill="#2A6AD5"/>
</svg>
