<svg width="220" height="180" viewBox="0 0 220 180" fill="none" xmlns="http://www.w3.org/2000/svg">
<rect width="220" height="180" fill="white"/>
<path d="M13.1145 36.4314V37.235H9.82427V39.7868H12.4955V40.5903H9.82427V44H8.83612V36.4314H13.1145ZM18.3474 44L16.5448 40.9053H15.3504V44H14.3622V36.4314H16.8054C17.3773 36.4314 17.8587 36.5292 18.2496 36.7246C18.6478 36.9201 18.9446 37.1843 19.1401 37.5173C19.3355 37.8503 19.4333 38.2304 19.4333 38.6575C19.4333 39.1787 19.2812 39.6384 18.9772 40.0366C18.6804 40.4347 18.2316 40.6989 17.6307 40.8292L19.531 44H18.3474ZM15.3504 40.1126H16.8054C17.3411 40.1126 17.7429 39.9823 18.0108 39.7216C18.2786 39.4538 18.4125 39.0991 18.4125 38.6575C18.4125 38.2087 18.2786 37.8612 18.0108 37.6151C17.7501 37.3689 17.3484 37.2459 16.8054 37.2459H15.3504V40.1126ZM24.4543 44.076C23.7521 44.076 23.1115 43.9131 22.5323 43.5874C21.9532 43.2544 21.4935 42.7947 21.1533 42.2083C20.8203 41.6147 20.6538 40.9487 20.6538 40.2103C20.6538 39.4719 20.8203 38.8095 21.1533 38.2231C21.4935 37.6295 21.9532 37.1698 22.5323 36.8441C23.1115 36.5111 23.7521 36.3446 24.4543 36.3446C25.1638 36.3446 25.8081 36.5111 26.3872 36.8441C26.9663 37.1698 27.4224 37.6259 27.7554 38.2123C28.0884 38.7987 28.2549 39.4647 28.2549 40.2103C28.2549 40.9559 28.0884 41.6219 27.7554 42.2083C27.4224 42.7947 26.9663 43.2544 26.3872 43.5874C25.8081 43.9131 25.1638 44.076 24.4543 44.076ZM24.4543 43.2182C24.9828 43.2182 25.457 43.0951 25.8768 42.849C26.3039 42.6028 26.6369 42.2517 26.8758 41.7957C27.122 41.3396 27.245 40.8111 27.245 40.2103C27.245 39.6022 27.122 39.0737 26.8758 38.6249C26.6369 38.1688 26.3076 37.8177 25.8877 37.5716C25.4678 37.3255 24.99 37.2024 24.4543 37.2024C23.9186 37.2024 23.4408 37.3255 23.021 37.5716C22.6011 37.8177 22.2681 38.1688 22.022 38.6249C21.7831 39.0737 21.6636 39.6022 21.6636 40.2103C21.6636 40.8111 21.7831 41.3396 22.022 41.7957C22.2681 42.2517 22.6011 42.6028 23.021 42.849C23.4481 43.0951 23.9259 43.2182 24.4543 43.2182ZM37.2908 36.4857V44H36.3027V38.3969L33.8052 44H33.1102L30.6018 38.386V44H29.6137V36.4857H30.6778L33.4577 42.6969L36.2375 36.4857H37.2908Z" fill="#CCCCCC"/>
<path d="M12.982 76.6457C12.1999 76.6457 11.4928 76.5118 10.8606 76.2439C10.2392 75.9761 9.74638 75.5904 9.3821 75.0868C9.01783 74.5833 8.83033 73.9886 8.81962 73.3029H11.2303C11.2624 73.7636 11.4231 74.1279 11.7124 74.3958C12.0124 74.6636 12.4195 74.7975 12.9338 74.7975C13.4588 74.7975 13.8713 74.6743 14.1712 74.4279C14.4712 74.1708 14.6212 73.8386 14.6212 73.4315C14.6212 73.0994 14.5195 72.8262 14.3159 72.6119C14.1123 72.3976 13.8552 72.2315 13.5445 72.1137C13.2445 71.9851 12.8266 71.8458 12.2909 71.6958C11.5624 71.4816 10.9678 71.2726 10.5071 71.0691C10.0571 70.8548 9.66602 70.5387 9.33389 70.1209C9.01247 69.6923 8.85176 69.1245 8.85176 68.4174C8.85176 67.7531 9.01783 67.1745 9.34996 66.6817C9.68209 66.1889 10.1482 65.8139 10.7481 65.5567C11.3481 65.2889 12.0338 65.155 12.8052 65.155C13.9623 65.155 14.8998 65.4389 15.6176 66.0067C16.3462 66.5638 16.748 67.346 16.823 68.3531H14.348C14.3266 67.9674 14.1605 67.6513 13.8498 67.4049C13.5498 67.1478 13.1481 67.0192 12.6445 67.0192C12.2052 67.0192 11.8517 67.1317 11.5838 67.3567C11.3267 67.5817 11.1981 67.9085 11.1981 68.337C11.1981 68.637 11.2945 68.8888 11.4874 69.0923C11.691 69.2852 11.9374 69.4459 12.2267 69.5745C12.5267 69.6923 12.9445 69.8316 13.4802 69.9923C14.2087 70.2066 14.8034 70.4209 15.2641 70.6352C15.7248 70.8494 16.1212 71.1709 16.4533 71.5994C16.7855 72.028 16.9515 72.5905 16.9515 73.2869C16.9515 73.8869 16.7962 74.444 16.4855 74.9582C16.1748 75.4725 15.7194 75.885 15.1194 76.1957C14.5195 76.4957 13.807 76.6457 12.982 76.6457ZM21.6021 69.4781V73.7851C21.6021 74.0851 21.6717 74.3047 21.811 74.444C21.961 74.5725 22.2074 74.6368 22.5502 74.6368H23.5949V76.5332H22.1806C20.2842 76.5332 19.3361 75.6118 19.3361 73.769V69.4781H18.2754V67.6299H19.3361V65.4282H21.6021V67.6299H23.5949V69.4781H21.6021ZM24.7149 72.0494C24.7149 71.1494 24.8917 70.3512 25.2453 69.6548C25.6095 68.9584 26.097 68.4227 26.7077 68.0477C27.3291 67.6727 28.0202 67.4853 28.7809 67.4853C29.4451 67.4853 30.0237 67.6192 30.5165 67.887C31.0201 68.1549 31.4219 68.4924 31.7219 68.8995V67.6299H33.9879V76.5332H31.7219V75.2315C31.4326 75.6493 31.0308 75.9975 30.5165 76.2761C30.013 76.5439 29.4291 76.6778 28.7648 76.6778C28.0148 76.6778 27.3291 76.485 26.7077 76.0993C26.097 75.7136 25.6095 75.1725 25.2453 74.4761C24.8917 73.769 24.7149 72.9601 24.7149 72.0494ZM31.7219 72.0815C31.7219 71.5351 31.6147 71.0691 31.4004 70.6834C31.1862 70.287 30.8969 69.987 30.5326 69.7834C30.1683 69.5691 29.7773 69.462 29.3594 69.462C28.9416 69.462 28.5559 69.5638 28.2023 69.7673C27.8488 69.9709 27.5595 70.2709 27.3345 70.6673C27.1202 71.053 27.0131 71.5137 27.0131 72.0494C27.0131 72.5851 27.1202 73.0565 27.3345 73.4636C27.5595 73.8601 27.8488 74.1654 28.2023 74.3797C28.5666 74.594 28.9523 74.7011 29.3594 74.7011C29.7773 74.7011 30.1683 74.5993 30.5326 74.3958C30.8969 74.1815 31.1862 73.8815 31.4004 73.4958C31.6147 73.0994 31.7219 72.628 31.7219 72.0815ZM38.8852 69.4781V73.7851C38.8852 74.0851 38.9549 74.3047 39.0942 74.444C39.2442 74.5725 39.4906 74.6368 39.8334 74.6368H40.878V76.5332H39.4638C37.5674 76.5332 36.6192 75.6118 36.6192 73.769V69.4781H35.5586V67.6299H36.6192V65.4282H38.8852V67.6299H40.878V69.4781H38.8852ZM50.8532 71.8887C50.8532 72.2101 50.8318 72.4994 50.7889 72.7565H44.2802C44.3338 73.3994 44.5588 73.9029 44.9552 74.2672C45.3516 74.6315 45.8391 74.8136 46.4176 74.8136C47.2533 74.8136 47.8479 74.4547 48.2015 73.7369H50.6282C50.3711 74.594 49.8782 75.3011 49.1497 75.8582C48.4211 76.4046 47.5265 76.6778 46.4658 76.6778C45.6087 76.6778 44.8373 76.4903 44.1516 76.1154C43.4766 75.7297 42.9463 75.1886 42.5606 74.4922C42.1856 73.7958 41.9981 72.9922 41.9981 72.0815C41.9981 71.1601 42.1856 70.3512 42.5606 69.6548C42.9356 68.9584 43.4606 68.4227 44.1356 68.0477C44.8105 67.6727 45.5873 67.4853 46.4658 67.4853C47.3123 67.4853 48.0676 67.6674 48.7319 68.0317C49.4068 68.3959 49.9265 68.9156 50.2907 69.5905C50.6657 70.2548 50.8532 71.0209 50.8532 71.8887ZM48.5229 71.2459C48.5122 70.6673 48.3033 70.2066 47.8962 69.8638C47.489 69.5102 46.9908 69.3334 46.4016 69.3334C45.8444 69.3334 45.373 69.5048 44.9873 69.8477C44.6123 70.1798 44.382 70.6459 44.2963 71.2459H48.5229ZM62.8497 70.7798C63.4818 70.8977 64.0014 71.2137 64.4086 71.728C64.8157 72.2423 65.0193 72.8315 65.0193 73.4958C65.0193 74.0958 64.8693 74.6261 64.5693 75.0868C64.28 75.5368 63.8568 75.8904 63.2997 76.1475C62.7425 76.4046 62.0836 76.5332 61.3229 76.5332H56.4856V65.3157H61.114C61.8747 65.3157 62.5283 65.4389 63.0747 65.6853C63.6318 65.9317 64.0497 66.2746 64.3282 66.7138C64.6175 67.1531 64.7621 67.6513 64.7621 68.2084C64.7621 68.862 64.5854 69.4084 64.2318 69.8477C63.8889 70.287 63.4282 70.5977 62.8497 70.7798ZM58.7355 69.9441H60.7926C61.3283 69.9441 61.7408 69.8263 62.0301 69.5905C62.3193 69.3441 62.464 68.9959 62.464 68.5459C62.464 68.0959 62.3193 67.7477 62.0301 67.5013C61.7408 67.2549 61.3283 67.1317 60.7926 67.1317H58.7355V69.9441ZM61.0015 74.7011C61.5479 74.7011 61.9711 74.5725 62.2711 74.3154C62.5818 74.0583 62.7372 73.694 62.7372 73.2226C62.7372 72.7405 62.5765 72.3655 62.2551 72.0976C61.9336 71.8191 61.4997 71.6798 60.9533 71.6798H58.7355V74.7011H61.0015ZM66.3142 72.0494C66.3142 71.1494 66.491 70.3512 66.8446 69.6548C67.2089 68.9584 67.6963 68.4227 68.307 68.0477C68.9284 67.6727 69.6195 67.4853 70.3802 67.4853C71.0445 67.4853 71.623 67.6192 72.1159 67.887C72.6194 68.1549 73.0212 68.4924 73.3212 68.8995V67.6299H75.5872V76.5332H73.3212V75.2315C73.0319 75.6493 72.6301 75.9975 72.1159 76.2761C71.6123 76.5439 71.0284 76.6778 70.3641 76.6778C69.6141 76.6778 68.9284 76.485 68.307 76.0993C67.6963 75.7136 67.2089 75.1725 66.8446 74.4761C66.491 73.769 66.3142 72.9601 66.3142 72.0494ZM73.3212 72.0815C73.3212 71.5351 73.214 71.0691 72.9998 70.6834C72.7855 70.287 72.4962 69.987 72.1319 69.7834C71.7676 69.5691 71.3766 69.462 70.9587 69.462C70.5409 69.462 70.1552 69.5638 69.8016 69.7673C69.4481 69.9709 69.1588 70.2709 68.9338 70.6673C68.7195 71.053 68.6124 71.5137 68.6124 72.0494C68.6124 72.5851 68.7195 73.0565 68.9338 73.4636C69.1588 73.8601 69.4481 74.1654 69.8016 74.3797C70.1659 74.594 70.5516 74.7011 70.9587 74.7011C71.3766 74.7011 71.7676 74.5993 72.1319 74.3958C72.4962 74.1815 72.7855 73.8815 72.9998 73.4958C73.214 73.0994 73.3212 72.628 73.3212 72.0815ZM82.7988 67.5013C83.8595 67.5013 84.7166 67.8388 85.3701 68.5138C86.0237 69.1781 86.3505 70.1102 86.3505 71.3101V76.5332H84.1005V71.6155C84.1005 70.9084 83.9237 70.3673 83.5702 69.9923C83.2166 69.6066 82.7345 69.4138 82.1238 69.4138C81.5024 69.4138 81.0095 69.6066 80.6453 69.9923C80.2917 70.3673 80.1149 70.9084 80.1149 71.6155V76.5332H77.865V67.6299H80.1149V68.7388C80.4149 68.3531 80.7953 68.0531 81.256 67.8388C81.7274 67.6138 82.2416 67.5013 82.7988 67.5013ZM93.8417 76.5332L90.8203 72.7405V76.5332H88.5704V64.6407H90.8203V71.4066L93.8095 67.6299H96.7344L92.8131 72.0976L96.7666 76.5332H93.8417ZM105.899 76.6778C105.042 76.6778 104.271 76.4903 103.585 76.1154C102.899 75.7297 102.358 75.1886 101.962 74.4922C101.576 73.7958 101.383 72.9922 101.383 72.0815C101.383 71.1709 101.581 70.3673 101.978 69.6709C102.385 68.9745 102.937 68.4388 103.633 68.0638C104.33 67.6781 105.106 67.4853 105.963 67.4853C106.821 67.4853 107.597 67.6781 108.294 68.0638C108.99 68.4388 109.537 68.9745 109.933 69.6709C110.34 70.3673 110.544 71.1709 110.544 72.0815C110.544 72.9922 110.335 73.7958 109.917 74.4922C109.51 75.1886 108.953 75.7297 108.246 76.1154C107.549 76.4903 106.767 76.6778 105.899 76.6778ZM105.899 74.7172C106.306 74.7172 106.687 74.6208 107.04 74.4279C107.404 74.2243 107.694 73.9244 107.908 73.5279C108.122 73.1315 108.229 72.6494 108.229 72.0815C108.229 71.2351 108.004 70.5869 107.554 70.137C107.115 69.6763 106.574 69.4459 105.931 69.4459C105.288 69.4459 104.747 69.6763 104.308 70.137C103.88 70.5869 103.665 71.2351 103.665 72.0815C103.665 72.928 103.874 73.5815 104.292 74.0422C104.721 74.4922 105.256 74.7172 105.899 74.7172ZM116.356 69.4781H114.798V76.5332H112.515V69.4781H111.503V67.6299H112.515V67.1799C112.515 66.0871 112.826 65.2835 113.448 64.7693C114.069 64.255 115.006 64.0139 116.26 64.0461V65.9424C115.714 65.9317 115.333 66.0228 115.119 66.2156C114.905 66.4085 114.798 66.7567 114.798 67.2603V67.6299H116.356V69.4781ZM124.055 65.3157V76.5332H121.805V65.3157H124.055ZM131.292 67.5013C132.352 67.5013 133.209 67.8388 133.863 68.5138C134.517 69.1781 134.843 70.1102 134.843 71.3101V76.5332H132.593V71.6155C132.593 70.9084 132.417 70.3673 132.063 69.9923C131.709 69.6066 131.227 69.4138 130.617 69.4138C129.995 69.4138 129.502 69.6066 129.138 69.9923C128.785 70.3673 128.608 70.9084 128.608 71.6155V76.5332H126.358V67.6299H128.608V68.7388C128.908 68.3531 129.288 68.0531 129.749 67.8388C130.22 67.6138 130.735 67.5013 131.292 67.5013ZM136.485 72.0494C136.485 71.1494 136.661 70.3512 137.015 69.6548C137.379 68.9584 137.872 68.4227 138.494 68.0477C139.115 67.6727 139.806 67.4853 140.567 67.4853C141.145 67.4853 141.697 67.6138 142.222 67.871C142.747 68.1174 143.165 68.4495 143.476 68.8674V64.6407H145.758V76.5332H143.476V75.2154C143.197 75.6547 142.806 76.0082 142.302 76.2761C141.799 76.5439 141.215 76.6778 140.551 76.6778C139.801 76.6778 139.115 76.485 138.494 76.0993C137.872 75.7136 137.379 75.1725 137.015 74.4761C136.661 73.769 136.485 72.9601 136.485 72.0494ZM143.492 72.0815C143.492 71.5351 143.384 71.0691 143.17 70.6834C142.956 70.287 142.667 69.987 142.302 69.7834C141.938 69.5691 141.547 69.462 141.129 69.462C140.711 69.462 140.326 69.5638 139.972 69.7673C139.619 69.9709 139.329 70.2709 139.104 70.6673C138.89 71.053 138.783 71.5137 138.783 72.0494C138.783 72.5851 138.89 73.0565 139.104 73.4636C139.329 73.8601 139.619 74.1654 139.972 74.3797C140.336 74.594 140.722 74.7011 141.129 74.7011C141.547 74.7011 141.938 74.5993 142.302 74.3958C142.667 74.1815 142.956 73.8815 143.17 73.4958C143.384 73.0994 143.492 72.628 143.492 72.0815ZM149.176 66.5692C148.78 66.5692 148.448 66.446 148.18 66.1996C147.923 65.9424 147.794 65.6264 147.794 65.2514C147.794 64.8764 147.923 64.5657 148.18 64.3193C148.448 64.0621 148.78 63.9336 149.176 63.9336C149.573 63.9336 149.9 64.0621 150.157 64.3193C150.425 64.5657 150.559 64.8764 150.559 65.2514C150.559 65.6264 150.425 65.9424 150.157 66.1996C149.9 66.446 149.573 66.5692 149.176 66.5692ZM150.285 67.6299V76.5332H148.035V67.6299H150.285ZM152.01 72.0494C152.01 71.1494 152.187 70.3512 152.54 69.6548C152.905 68.9584 153.392 68.4227 154.003 68.0477C154.624 67.6727 155.315 67.4853 156.076 67.4853C156.74 67.4853 157.319 67.6192 157.812 67.887C158.315 68.1549 158.717 68.4924 159.017 68.8995V67.6299H161.283V76.5332H159.017V75.2315C158.728 75.6493 158.326 75.9975 157.812 76.2761C157.308 76.5439 156.724 76.6778 156.06 76.6778C155.31 76.6778 154.624 76.485 154.003 76.0993C153.392 75.7136 152.905 75.1725 152.54 74.4761C152.187 73.769 152.01 72.9601 152.01 72.0494ZM159.017 72.0815C159.017 71.5351 158.91 71.0691 158.696 70.6834C158.481 70.287 158.192 69.987 157.828 69.7834C157.464 69.5691 157.072 69.462 156.655 69.462C156.237 69.462 155.851 69.5638 155.498 69.7673C155.144 69.9709 154.855 70.2709 154.63 70.6673C154.415 71.053 154.308 71.5137 154.308 72.0494C154.308 72.5851 154.415 73.0565 154.63 73.4636C154.855 73.8601 155.144 74.1654 155.498 74.3797C155.862 74.594 156.248 74.7011 156.655 74.7011C157.072 74.7011 157.464 74.5993 157.828 74.3958C158.192 74.1815 158.481 73.8815 158.696 73.4958C158.91 73.0994 159.017 72.628 159.017 72.0815Z" fill="black"/>
<path d="M14.2341 104.327H10.3585L9.64457 106.303H8.4207L11.6334 97.468H12.972L16.1719 106.303H14.948L14.2341 104.327ZM13.9026 103.383L12.2963 98.8958L10.69 103.383H13.9026ZM21.9703 94.2936L18.4772 108.47H17.3298L20.8102 94.2936H21.9703ZM23.3291 102.797C23.3291 102.074 23.4736 101.446 23.7625 100.91C24.0515 100.366 24.451 99.9454 24.9609 99.648C25.4794 99.3505 26.07 99.2018 26.733 99.2018C27.5914 99.2018 28.2968 99.41 28.8492 99.8264C29.4102 100.243 29.7799 100.821 29.9584 101.56H28.709C28.59 101.135 28.3563 100.8 28.0078 100.553C27.6679 100.307 27.2429 100.183 26.733 100.183C26.07 100.183 25.5346 100.413 25.1266 100.872C24.7187 101.322 24.5147 101.964 24.5147 102.797C24.5147 103.638 24.7187 104.288 25.1266 104.747C25.5346 105.206 26.07 105.436 26.733 105.436C27.2429 105.436 27.6679 105.317 28.0078 105.079C28.3478 104.841 28.5815 104.501 28.709 104.059H29.9584C29.7714 104.773 29.3974 105.347 28.8365 105.78C28.2756 106.205 27.5744 106.417 26.733 106.417C26.07 106.417 25.4794 106.269 24.9609 105.971C24.451 105.674 24.0515 105.253 23.7625 104.709C23.4736 104.165 23.3291 103.528 23.3291 102.797ZM42.0188 106.303H40.8587L36.1927 99.2273V106.303H35.0326V97.4042H36.1927L40.8587 104.467V97.4042H42.0188V106.303ZM47.1071 106.417C46.4527 106.417 45.8578 106.269 45.3223 105.971C44.7954 105.674 44.3789 105.253 44.073 104.709C43.7755 104.157 43.6268 103.519 43.6268 102.797C43.6268 102.083 43.7797 101.454 44.0857 100.91C44.4002 100.358 44.8251 99.9369 45.3606 99.648C45.896 99.3505 46.4952 99.2018 47.1581 99.2018C47.821 99.2018 48.4202 99.3505 48.9557 99.648C49.4911 99.9369 49.9118 100.353 50.2178 100.897C50.5322 101.441 50.6895 102.074 50.6895 102.797C50.6895 103.519 50.528 104.157 50.205 104.709C49.8906 105.253 49.4614 105.674 48.9174 105.971C48.3735 106.269 47.7701 106.417 47.1071 106.417ZM47.1071 105.398C47.5236 105.398 47.9145 105.3 48.28 105.104C48.6455 104.909 48.9387 104.616 49.1596 104.225C49.3891 103.834 49.5039 103.358 49.5039 102.797C49.5039 102.236 49.3934 101.76 49.1724 101.369C48.9514 100.978 48.6625 100.689 48.3055 100.502C47.9485 100.307 47.5618 100.209 47.1454 100.209C46.7204 100.209 46.3295 100.307 45.9725 100.502C45.624 100.689 45.3436 100.978 45.1311 101.369C44.9186 101.76 44.8124 102.236 44.8124 102.797C44.8124 103.366 44.9144 103.847 45.1183 104.237C45.3308 104.628 45.6113 104.922 45.9598 105.117C46.3082 105.304 46.6907 105.398 47.1071 105.398ZM52.6483 106.379C52.4273 106.379 52.2403 106.303 52.0873 106.15C51.9344 105.997 51.8579 105.81 51.8579 105.589C51.8579 105.368 51.9344 105.181 52.0873 105.028C52.2403 104.875 52.4273 104.798 52.6483 104.798C52.8608 104.798 53.0392 104.875 53.1837 105.028C53.3367 105.181 53.4132 105.368 53.4132 105.589C53.4132 105.81 53.3367 105.997 53.1837 106.15C53.0392 106.303 52.8608 106.379 52.6483 106.379ZM62.1149 101.866L64.8431 106.303H63.53L61.401 102.835L59.374 106.303H58.0864L60.8018 101.866L58.0736 97.417H59.374L61.5157 100.897L63.5555 97.417H64.8559L62.1149 101.866ZM70.0967 101.866L72.8249 106.303H71.5118L69.3828 102.835L67.3558 106.303H66.0682L68.7836 101.866L66.0554 97.417H67.3558L69.4975 100.897L71.5373 97.417H72.8377L70.0967 101.866ZM78.0785 101.866L80.8067 106.303H79.4936L77.3646 102.835L75.3376 106.303H74.05L76.7654 101.866L74.0372 97.417H75.3376L77.4794 100.897L79.5191 97.417H80.8195L78.0785 101.866ZM86.0604 101.866L88.7886 106.303H87.4755L85.3464 102.835L83.3194 106.303H82.0318L84.7473 101.866L82.0191 97.417H83.3194L85.4612 100.897L87.501 97.417H88.8013L86.0604 101.866ZM97.5047 101.866L100.233 106.303H98.9198L96.7908 102.835L94.7638 106.303H93.4762L96.1916 101.866L93.4634 97.417H94.7638L96.9055 100.897L98.9453 97.417H100.246L97.5047 101.866ZM105.487 101.866L108.215 106.303H106.902L104.773 102.835L102.746 106.303H101.458L104.173 101.866L101.445 97.417H102.746L104.887 100.897L106.927 97.417H108.227L105.487 101.866ZM113.468 101.866L116.197 106.303H114.883L112.754 102.835L110.727 106.303H109.44L112.155 101.866L109.427 97.417H110.727L112.869 100.897L114.909 97.417H116.209L113.468 101.866ZM121.45 101.866L124.178 106.303H122.865L120.736 102.835L118.709 106.303H117.422L120.137 101.866L117.409 97.417H118.709L120.851 100.897L122.891 97.417H124.191L121.45 101.866ZM132.895 101.866L135.623 106.303H134.31L132.181 102.835L130.154 106.303H128.866L131.581 101.866L128.853 97.417H130.154L132.295 100.897L134.335 97.417H135.635L132.895 101.866ZM140.876 101.866L143.605 106.303H142.291L140.162 102.835L138.135 106.303H136.848L139.563 101.866L136.835 97.417H138.135L140.277 100.897L142.317 97.417H143.617L140.876 101.866ZM148.858 101.866L151.586 106.303H150.273L148.144 102.835L146.117 106.303H144.83L147.545 101.866L144.817 97.417H146.117L148.259 100.897L150.299 97.417H151.599L148.858 101.866ZM156.84 101.866L159.568 106.303H158.255L156.126 102.835L154.099 106.303H152.811L155.527 101.866L152.799 97.417H154.099L156.241 100.897L158.281 97.417H159.581L156.84 101.866ZM168.284 101.866L171.013 106.303H169.699L167.57 102.835L165.543 106.303H164.256L166.971 101.866L164.243 97.417H165.543L167.685 100.897L169.725 97.417H171.025L168.284 101.866ZM178.319 98.0926H173.844V100.999C174.039 100.727 174.328 100.506 174.711 100.336C175.093 100.158 175.505 100.069 175.947 100.069C176.653 100.069 177.227 100.217 177.669 100.515C178.11 100.804 178.425 101.182 178.612 101.649C178.807 102.108 178.905 102.597 178.905 103.116C178.905 103.728 178.79 104.276 178.561 104.76C178.331 105.245 177.979 105.627 177.503 105.908C177.035 106.188 176.453 106.328 175.756 106.328C174.864 106.328 174.141 106.099 173.589 105.64C173.037 105.181 172.701 104.569 172.582 103.804H173.716C173.827 104.288 174.061 104.667 174.418 104.939C174.775 105.211 175.225 105.347 175.769 105.347C176.44 105.347 176.946 105.147 177.286 104.747C177.626 104.339 177.796 103.804 177.796 103.141C177.796 102.478 177.626 101.968 177.286 101.611C176.946 101.246 176.445 101.063 175.782 101.063C175.331 101.063 174.936 101.174 174.596 101.395C174.265 101.607 174.022 101.9 173.869 102.274H172.773V97.0727H178.319V98.0926ZM180.23 104.25V103.371L184.705 97.1747H186.094V103.243H187.369V104.25H186.094V106.303H184.947V104.25H180.23ZM184.998 98.3859L181.569 103.243H184.998V98.3859ZM190.275 101.509C189.799 101.322 189.433 101.05 189.178 100.693C188.923 100.336 188.796 99.9029 188.796 99.393C188.796 98.934 188.911 98.5218 189.14 98.1564C189.37 97.7824 189.71 97.4892 190.16 97.2767C190.619 97.0558 191.171 96.9453 191.817 96.9453C192.463 96.9453 193.011 97.0558 193.462 97.2767C193.921 97.4892 194.265 97.7824 194.495 98.1564C194.733 98.5218 194.852 98.934 194.852 99.393C194.852 99.8859 194.72 100.319 194.456 100.693C194.193 101.059 193.832 101.331 193.373 101.509C193.9 101.671 194.316 101.955 194.622 102.363C194.937 102.763 195.094 103.247 195.094 103.817C195.094 104.369 194.958 104.854 194.686 105.27C194.414 105.678 194.027 105.997 193.526 106.226C193.033 106.447 192.463 106.558 191.817 106.558C191.171 106.558 190.602 106.447 190.109 106.226C189.625 105.997 189.246 105.678 188.974 105.27C188.702 104.854 188.566 104.369 188.566 103.817C188.566 103.247 188.719 102.759 189.025 102.351C189.331 101.943 189.748 101.662 190.275 101.509ZM193.73 99.5332C193.73 99.0148 193.56 98.6153 193.22 98.3349C192.88 98.0544 192.412 97.9142 191.817 97.9142C191.231 97.9142 190.768 98.0544 190.428 98.3349C190.088 98.6153 189.918 99.019 189.918 99.546C189.918 100.022 190.092 100.404 190.441 100.693C190.797 100.982 191.256 101.127 191.817 101.127C192.387 101.127 192.846 100.982 193.194 100.693C193.551 100.396 193.73 100.009 193.73 99.5332ZM191.817 102.019C191.188 102.019 190.674 102.168 190.275 102.465C189.875 102.754 189.676 103.192 189.676 103.779C189.676 104.322 189.867 104.76 190.249 105.092C190.64 105.423 191.163 105.589 191.817 105.589C192.472 105.589 192.99 105.423 193.373 105.092C193.755 104.76 193.946 104.322 193.946 103.779C193.946 103.209 193.751 102.776 193.36 102.478C192.969 102.172 192.455 102.019 191.817 102.019ZM200.021 105.372C201.1 104.505 201.946 103.796 202.558 103.243C203.169 102.682 203.684 102.1 204.1 101.497C204.525 100.885 204.738 100.285 204.738 99.699C204.738 99.1465 204.602 98.7131 204.33 98.3986C204.066 98.0756 203.637 97.9142 203.042 97.9142C202.464 97.9142 202.014 98.0969 201.691 98.4623C201.376 98.8193 201.206 99.2995 201.181 99.9029H200.059C200.093 98.951 200.382 98.2159 200.926 97.6974C201.47 97.179 202.171 96.9198 203.029 96.9198C203.905 96.9198 204.597 97.162 205.107 97.6464C205.626 98.1309 205.885 98.7981 205.885 99.648C205.885 100.353 205.672 101.042 205.248 101.713C204.831 102.376 204.355 102.963 203.82 103.473C203.284 103.974 202.6 104.56 201.767 105.232H206.153V106.201H200.021V105.372Z" fill="black"/>
<rect x="8" y="121.248" width="30.1515" height="1.20606" fill="#E3E3E3"/>
<path d="M9.80255 136.535V141.324C9.80255 141.997 9.96544 142.496 10.2912 142.822C10.6242 143.148 11.0839 143.311 11.6703 143.311C12.2494 143.311 12.7018 143.148 13.0276 142.822C13.3606 142.496 13.5271 141.997 13.5271 141.324V136.535H14.5153V141.313C14.5153 141.943 14.3886 142.475 14.1352 142.909C13.8818 143.336 13.538 143.655 13.1036 143.865C12.6765 144.075 12.1951 144.18 11.6594 144.18C11.1237 144.18 10.6387 144.075 10.2043 143.865C9.77722 143.655 9.43698 143.336 9.1836 142.909C8.93747 142.475 8.81441 141.943 8.81441 141.313V136.535H9.80255ZM21.2781 138.75C21.2781 139.38 21.061 139.905 20.6266 140.325C20.1995 140.737 19.5444 140.944 18.6612 140.944H17.2061V144.104H16.218V136.535H18.6612C19.5154 136.535 20.1633 136.741 20.6049 137.154C21.0537 137.567 21.2781 138.099 21.2781 138.75ZM18.6612 140.129C19.2114 140.129 19.6168 140.01 19.8774 139.771C20.138 139.532 20.2683 139.192 20.2683 138.75C20.2683 137.816 19.7326 137.349 18.6612 137.349H17.2061V140.129H18.6612ZM23.5487 136.535V144.104H22.5606V136.535H23.5487ZM32.2216 144.104L30.419 141.009H29.2245V144.104H28.2364V136.535H30.6796C31.2515 136.535 31.7329 136.633 32.1238 136.828C32.522 137.024 32.8188 137.288 33.0143 137.621C33.2097 137.954 33.3074 138.334 33.3074 138.761C33.3074 139.282 33.1554 139.742 32.8514 140.14C32.5546 140.538 32.1057 140.802 31.5049 140.933L33.4052 144.104H32.2216ZM29.2245 140.216H30.6796C31.2153 140.216 31.6171 140.086 31.8849 139.825C32.1528 139.557 32.2867 139.203 32.2867 138.761C32.2867 138.312 32.1528 137.965 31.8849 137.719C31.6243 137.472 31.2226 137.349 30.6796 137.349H29.2245V140.216ZM40.3265 140.9C40.3265 141.088 40.3157 141.287 40.2939 141.497H35.5378C35.574 142.084 35.7731 142.543 36.135 142.876C36.5042 143.202 36.9494 143.365 37.4707 143.365C37.8978 143.365 38.2525 143.267 38.5348 143.072C38.8244 142.869 39.0271 142.601 39.1429 142.268H40.2071C40.0478 142.84 39.7293 143.307 39.2515 143.669C38.7737 144.024 38.1801 144.201 37.4707 144.201C36.906 144.201 36.3993 144.075 35.9504 143.821C35.5089 143.568 35.1614 143.209 34.908 142.746C34.6546 142.276 34.5279 141.733 34.5279 141.117C34.5279 140.502 34.651 139.963 34.8971 139.499C35.1433 139.036 35.4871 138.681 35.9287 138.435C36.3776 138.182 36.8915 138.055 37.4707 138.055C38.0353 138.055 38.5348 138.178 38.9692 138.424C39.4035 138.671 39.7365 139.011 39.9682 139.445C40.2071 139.872 40.3265 140.357 40.3265 140.9ZM39.3058 140.694C39.3058 140.317 39.2225 139.995 39.056 139.727C38.8895 139.452 38.6615 139.246 38.3719 139.108C38.0896 138.964 37.7747 138.891 37.4272 138.891C36.9277 138.891 36.5006 139.051 36.1459 139.369C35.7984 139.688 35.5993 140.129 35.5487 140.694H39.3058ZM44.1066 138.967H42.8579V144.104H41.8697V138.967H41.0988V138.153H41.8697V137.729C41.8697 137.063 42.0399 136.578 42.3801 136.274C42.7276 135.963 43.2814 135.807 44.0415 135.807V136.633C43.6071 136.633 43.2995 136.72 43.1185 136.893C42.9448 137.06 42.8579 137.339 42.8579 137.729V138.153H44.1066V138.967ZM50.7424 140.9C50.7424 141.088 50.7316 141.287 50.7099 141.497H45.9537C45.9899 142.084 46.189 142.543 46.551 142.876C46.9202 143.202 47.3654 143.365 47.8866 143.365C48.3137 143.365 48.6684 143.267 48.9508 143.072C49.2403 142.869 49.443 142.601 49.5588 142.268H50.623C50.4637 142.84 50.1452 143.307 49.6674 143.669C49.1896 144.024 48.596 144.201 47.8866 144.201C47.3219 144.201 46.8152 144.075 46.3664 143.821C45.9248 143.568 45.5773 143.209 45.3239 142.746C45.0706 142.276 44.9439 141.733 44.9439 141.117C44.9439 140.502 45.0669 139.963 45.3131 139.499C45.5592 139.036 45.9031 138.681 46.3447 138.435C46.7935 138.182 47.3075 138.055 47.8866 138.055C48.4512 138.055 48.9508 138.178 49.3851 138.424C49.8195 138.671 50.1525 139.011 50.3841 139.445C50.623 139.872 50.7424 140.357 50.7424 140.9ZM49.7217 140.694C49.7217 140.317 49.6385 139.995 49.472 139.727C49.3055 139.452 49.0774 139.246 48.7879 139.108C48.5055 138.964 48.1906 138.891 47.8432 138.891C47.3437 138.891 46.9165 139.051 46.5618 139.369C46.2143 139.688 46.0153 140.129 45.9646 140.694H49.7217ZM53.0892 139.119C53.263 138.779 53.5091 138.515 53.8276 138.327C54.1534 138.138 54.5479 138.044 55.0112 138.044V139.065H54.7506C53.643 139.065 53.0892 139.666 53.0892 140.868V144.104H52.1011V138.153H53.0892V139.119ZM61.6356 140.9C61.6356 141.088 61.6247 141.287 61.603 141.497H56.8469C56.883 142.084 57.0821 142.543 57.4441 142.876C57.8133 143.202 58.2585 143.365 58.7797 143.365C59.2068 143.365 59.5615 143.267 59.8439 143.072C60.1334 142.869 60.3361 142.601 60.452 142.268H61.5161C61.3569 142.84 61.0383 143.307 60.5605 143.669C60.0828 144.024 59.4891 144.201 58.7797 144.201C58.2151 144.201 57.7083 144.075 57.2595 143.821C56.8179 143.568 56.4704 143.209 56.217 142.746C55.9637 142.276 55.837 141.733 55.837 141.117C55.837 140.502 55.9601 139.963 56.2062 139.499C56.4523 139.036 56.7962 138.681 57.2378 138.435C57.6866 138.182 58.2006 138.055 58.7797 138.055C59.3444 138.055 59.8439 138.178 60.2782 138.424C60.7126 138.671 61.0456 139.011 61.2772 139.445C61.5161 139.872 61.6356 140.357 61.6356 140.9ZM60.6148 140.694C60.6148 140.317 60.5316 139.995 60.3651 139.727C60.1986 139.452 59.9706 139.246 59.681 139.108C59.3987 138.964 59.0838 138.891 58.7363 138.891C58.2368 138.891 57.8097 139.051 57.4549 139.369C57.1075 139.688 56.9084 140.129 56.8577 140.694H60.6148ZM65.8935 138.044C66.6174 138.044 67.2038 138.265 67.6526 138.707C68.1014 139.141 68.3258 139.771 68.3258 140.596V144.104H67.3485V140.737C67.3485 140.144 67.2001 139.691 66.9033 139.38C66.6065 139.061 66.2011 138.902 65.6872 138.902C65.1659 138.902 64.7497 139.065 64.4384 139.391C64.1343 139.717 63.9823 140.191 63.9823 140.813V144.104H62.9942V138.153H63.9823V139C64.1778 138.696 64.442 138.461 64.775 138.294C65.1153 138.128 65.4881 138.044 65.8935 138.044ZM69.6251 141.117C69.6251 140.502 69.7481 139.966 69.9943 139.51C70.2404 139.047 70.5806 138.689 71.015 138.435C71.4566 138.182 71.9597 138.055 72.5244 138.055C73.2555 138.055 73.8564 138.233 74.3269 138.587C74.8047 138.942 75.1196 139.434 75.2716 140.064H74.2075C74.1061 139.702 73.907 139.416 73.6102 139.206C73.3207 138.996 72.9587 138.891 72.5244 138.891C71.9597 138.891 71.5036 139.087 71.1561 139.478C70.8087 139.861 70.6349 140.408 70.6349 141.117C70.6349 141.834 70.8087 142.388 71.1561 142.779C71.5036 143.17 71.9597 143.365 72.5244 143.365C72.9587 143.365 73.3207 143.264 73.6102 143.061C73.8998 142.858 74.0989 142.569 74.2075 142.192H75.2716C75.1124 142.8 74.7938 143.289 74.316 143.658C73.8383 144.02 73.241 144.201 72.5244 144.201C71.9597 144.201 71.4566 144.075 71.015 143.821C70.5806 143.568 70.2404 143.209 69.9943 142.746C69.7481 142.283 69.6251 141.74 69.6251 141.117ZM82.0738 140.9C82.0738 141.088 82.0629 141.287 82.0412 141.497H77.2851C77.3213 142.084 77.5203 142.543 77.8823 142.876C78.2515 143.202 78.6967 143.365 79.2179 143.365C79.645 143.365 79.9998 143.267 80.2821 143.072C80.5717 142.869 80.7744 142.601 80.8902 142.268H81.9543C81.7951 142.84 81.4766 143.307 80.9988 143.669C80.521 144.024 79.9274 144.201 79.2179 144.201C78.6533 144.201 78.1465 144.075 77.6977 143.821C77.2561 143.568 76.9086 143.209 76.6553 142.746C76.4019 142.276 76.2752 141.733 76.2752 141.117C76.2752 140.502 76.3983 139.963 76.6444 139.499C76.8905 139.036 77.2344 138.681 77.676 138.435C78.1248 138.182 78.6388 138.055 79.2179 138.055C79.7826 138.055 80.2821 138.178 80.7164 138.424C81.1508 138.671 81.4838 139.011 81.7154 139.445C81.9543 139.872 82.0738 140.357 82.0738 140.9ZM81.0531 140.694C81.0531 140.317 80.9698 139.995 80.8033 139.727C80.6368 139.452 80.4088 139.246 80.1192 139.108C79.8369 138.964 79.522 138.891 79.1745 138.891C78.675 138.891 78.2479 139.051 77.8932 139.369C77.5457 139.688 77.3466 140.129 77.2959 140.694H81.0531ZM87.3698 136.535V144.104H86.3817V136.535H87.3698ZM91.4646 136.535C92.2898 136.535 93.0029 136.691 93.6037 137.002C94.2118 137.306 94.6751 137.744 94.9937 138.316C95.3194 138.888 95.4823 139.561 95.4823 140.336C95.4823 141.11 95.3194 141.783 94.9937 142.355C94.6751 142.92 94.2118 143.354 93.6037 143.658C93.0029 143.955 92.2898 144.104 91.4646 144.104H89.1082V136.535H91.4646ZM91.4646 143.289C92.4419 143.289 93.1875 143.032 93.7015 142.518C94.2155 141.997 94.4724 141.269 94.4724 140.336C94.4724 139.394 94.2118 138.66 93.6906 138.131C93.1766 137.603 92.4346 137.339 91.4646 137.339H90.0964V143.289H91.4646ZM102.576 140.097C102.576 138.851 102.778 137.881 103.184 137.186C103.589 136.484 104.299 136.133 105.312 136.133C106.318 136.133 107.024 136.484 107.429 137.186C107.835 137.881 108.038 138.851 108.038 140.097C108.038 141.363 107.835 142.348 107.429 143.05C107.024 143.752 106.318 144.104 105.312 144.104C104.299 144.104 103.589 143.752 103.184 143.05C102.778 142.348 102.576 141.363 102.576 140.097ZM107.06 140.097C107.06 139.467 107.017 138.935 106.93 138.5C106.85 138.059 106.68 137.704 106.42 137.436C106.166 137.168 105.797 137.034 105.312 137.034C104.82 137.034 104.443 137.168 104.183 137.436C103.929 137.704 103.759 138.059 103.672 138.5C103.593 138.935 103.553 139.467 103.553 140.097C103.553 140.748 103.593 141.295 103.672 141.736C103.759 142.178 103.929 142.533 104.183 142.8C104.443 143.068 104.82 143.202 105.312 143.202C105.797 143.202 106.166 143.068 106.42 142.8C106.68 142.533 106.85 142.178 106.93 141.736C107.017 141.295 107.06 140.748 107.06 140.097ZM109.448 140.097C109.448 138.851 109.651 137.881 110.057 137.186C110.462 136.484 111.171 136.133 112.185 136.133C113.191 136.133 113.897 136.484 114.302 137.186C114.708 137.881 114.91 138.851 114.91 140.097C114.91 141.363 114.708 142.348 114.302 143.05C113.897 143.752 113.191 144.104 112.185 144.104C111.171 144.104 110.462 143.752 110.057 143.05C109.651 142.348 109.448 141.363 109.448 140.097ZM113.933 140.097C113.933 139.467 113.89 138.935 113.803 138.5C113.723 138.059 113.553 137.704 113.292 137.436C113.039 137.168 112.67 137.034 112.185 137.034C111.693 137.034 111.316 137.168 111.056 137.436C110.802 137.704 110.632 138.059 110.545 138.5C110.466 138.935 110.426 139.467 110.426 140.097C110.426 140.748 110.466 141.295 110.545 141.736C110.632 142.178 110.802 142.533 111.056 142.8C111.316 143.068 111.693 143.202 112.185 143.202C112.67 143.202 113.039 143.068 113.292 142.8C113.553 142.533 113.723 142.178 113.803 141.736C113.89 141.295 113.933 140.748 113.933 140.097ZM116.321 140.097C116.321 138.851 116.524 137.881 116.929 137.186C117.335 136.484 118.044 136.133 119.058 136.133C120.064 136.133 120.77 136.484 121.175 137.186C121.581 137.881 121.783 138.851 121.783 140.097C121.783 141.363 121.581 142.348 121.175 143.05C120.77 143.752 120.064 144.104 119.058 144.104C118.044 144.104 117.335 143.752 116.929 143.05C116.524 142.348 116.321 141.363 116.321 140.097ZM120.806 140.097C120.806 139.467 120.763 138.935 120.676 138.5C120.596 138.059 120.426 137.704 120.165 137.436C119.912 137.168 119.543 137.034 119.058 137.034C118.565 137.034 118.189 137.168 117.928 137.436C117.675 137.704 117.505 138.059 117.418 138.5C117.338 138.935 117.299 139.467 117.299 140.097C117.299 140.748 117.338 141.295 117.418 141.736C117.505 142.178 117.675 142.533 117.928 142.8C118.189 143.068 118.565 143.202 119.058 143.202C119.543 143.202 119.912 143.068 120.165 142.8C120.426 142.533 120.596 142.178 120.676 141.736C120.763 141.295 120.806 140.748 120.806 140.097ZM124.627 140.021C124.222 139.861 123.911 139.63 123.694 139.326C123.476 139.022 123.368 138.652 123.368 138.218C123.368 137.827 123.466 137.476 123.661 137.165C123.857 136.846 124.146 136.596 124.53 136.416C124.921 136.227 125.391 136.133 125.941 136.133C126.492 136.133 126.958 136.227 127.342 136.416C127.733 136.596 128.026 136.846 128.222 137.165C128.424 137.476 128.526 137.827 128.526 138.218C128.526 138.638 128.414 139.007 128.189 139.326C127.965 139.637 127.657 139.869 127.266 140.021C127.715 140.158 128.07 140.401 128.33 140.748C128.598 141.088 128.732 141.501 128.732 141.986C128.732 142.457 128.616 142.869 128.385 143.224C128.153 143.571 127.824 143.843 127.396 144.038C126.977 144.227 126.492 144.321 125.941 144.321C125.391 144.321 124.906 144.227 124.486 144.038C124.074 143.843 123.752 143.571 123.52 143.224C123.288 142.869 123.172 142.457 123.172 141.986C123.172 141.501 123.303 141.085 123.563 140.737C123.824 140.39 124.179 140.151 124.627 140.021ZM127.57 138.338C127.57 137.896 127.425 137.556 127.136 137.317C126.846 137.078 126.448 136.958 125.941 136.958C125.442 136.958 125.047 137.078 124.758 137.317C124.468 137.556 124.323 137.9 124.323 138.348C124.323 138.754 124.472 139.08 124.769 139.326C125.073 139.572 125.464 139.695 125.941 139.695C126.426 139.695 126.817 139.572 127.114 139.326C127.418 139.072 127.57 138.743 127.57 138.338ZM125.941 140.455C125.406 140.455 124.968 140.582 124.627 140.835C124.287 141.081 124.117 141.454 124.117 141.953C124.117 142.417 124.28 142.79 124.606 143.072C124.939 143.354 125.384 143.495 125.941 143.495C126.499 143.495 126.94 143.354 127.266 143.072C127.592 142.79 127.755 142.417 127.755 141.953C127.755 141.468 127.588 141.099 127.255 140.846C126.922 140.585 126.484 140.455 125.941 140.455ZM135.105 137.11H131.293V139.586C131.46 139.355 131.706 139.166 132.032 139.022C132.357 138.87 132.708 138.794 133.085 138.794C133.686 138.794 134.174 138.92 134.551 139.174C134.927 139.42 135.195 139.742 135.354 140.14C135.521 140.531 135.604 140.947 135.604 141.389C135.604 141.91 135.506 142.377 135.311 142.79C135.116 143.202 134.815 143.528 134.41 143.767C134.012 144.006 133.516 144.125 132.922 144.125C132.162 144.125 131.547 143.93 131.076 143.539C130.605 143.148 130.32 142.627 130.218 141.975H131.185C131.279 142.388 131.478 142.71 131.782 142.942C132.086 143.173 132.47 143.289 132.933 143.289C133.505 143.289 133.936 143.119 134.225 142.779C134.515 142.431 134.659 141.975 134.659 141.411C134.659 140.846 134.515 140.412 134.225 140.107C133.936 139.796 133.508 139.641 132.944 139.641C132.56 139.641 132.223 139.735 131.934 139.923C131.652 140.104 131.445 140.354 131.315 140.672H130.381V136.242H135.105V137.11ZM136.711 137.154V136.253H138.752V144.104H137.753V137.154H136.711ZM145.51 137.11H141.699V139.586C141.865 139.355 142.111 139.166 142.437 139.022C142.763 138.87 143.114 138.794 143.49 138.794C144.091 138.794 144.58 138.92 144.956 139.174C145.333 139.42 145.6 139.742 145.76 140.14C145.926 140.531 146.009 140.947 146.009 141.389C146.009 141.91 145.912 142.377 145.716 142.79C145.521 143.202 145.22 143.528 144.815 143.767C144.417 144.006 143.921 144.125 143.327 144.125C142.567 144.125 141.952 143.93 141.481 143.539C141.011 143.148 140.725 142.627 140.624 141.975H141.59C141.684 142.388 141.883 142.71 142.187 142.942C142.491 143.173 142.875 143.289 143.338 143.289C143.91 143.289 144.341 143.119 144.63 142.779C144.92 142.431 145.065 141.975 145.065 141.411C145.065 140.846 144.92 140.412 144.63 140.107C144.341 139.796 143.914 139.641 143.349 139.641C142.965 139.641 142.629 139.735 142.339 139.923C142.057 140.104 141.851 140.354 141.72 140.672H140.786V136.242H145.51V137.11ZM151.753 138.12C151.594 137.317 151.098 136.915 150.265 136.915C149.621 136.915 149.14 137.165 148.821 137.664C148.503 138.157 148.347 138.971 148.354 140.107C148.521 139.731 148.796 139.438 149.179 139.228C149.57 139.011 150.005 138.902 150.483 138.902C151.228 138.902 151.822 139.134 152.263 139.597C152.712 140.06 152.937 140.701 152.937 141.519C152.937 142.011 152.839 142.453 152.643 142.844C152.455 143.235 152.166 143.546 151.775 143.778C151.391 144.009 150.924 144.125 150.374 144.125C149.628 144.125 149.046 143.959 148.626 143.626C148.206 143.293 147.913 142.833 147.746 142.247C147.58 141.66 147.496 140.936 147.496 140.075C147.496 137.418 148.423 136.09 150.276 136.09C150.986 136.09 151.543 136.282 151.948 136.665C152.354 137.049 152.593 137.534 152.665 138.12H151.753ZM150.276 139.738C149.965 139.738 149.672 139.803 149.397 139.934C149.122 140.057 148.897 140.249 148.723 140.509C148.557 140.763 148.474 141.074 148.474 141.443C148.474 141.993 148.633 142.442 148.951 142.79C149.27 143.13 149.726 143.3 150.32 143.3C150.826 143.3 151.228 143.144 151.525 142.833C151.829 142.515 151.981 142.087 151.981 141.552C151.981 140.987 151.836 140.545 151.547 140.227C151.257 139.901 150.834 139.738 150.276 139.738ZM154.063 137.154V136.253H156.105V144.104H155.106V137.154H154.063ZM157.737 143.311C158.656 142.572 159.377 141.968 159.898 141.497C160.419 141.02 160.857 140.524 161.212 140.01C161.574 139.489 161.755 138.978 161.755 138.479C161.755 138.008 161.639 137.639 161.407 137.371C161.183 137.096 160.817 136.958 160.311 136.958C159.818 136.958 159.435 137.114 159.16 137.425C158.892 137.729 158.747 138.138 158.725 138.652H157.77C157.799 137.842 158.045 137.215 158.508 136.774C158.971 136.332 159.569 136.111 160.3 136.111C161.045 136.111 161.635 136.318 162.07 136.73C162.511 137.143 162.732 137.711 162.732 138.435C162.732 139.036 162.551 139.622 162.189 140.194C161.834 140.759 161.429 141.259 160.973 141.693C160.517 142.12 159.934 142.619 159.225 143.191H162.96V144.017H157.737V143.311ZM169.163 137.11H165.351V139.586C165.518 139.355 165.764 139.166 166.09 139.022C166.415 138.87 166.766 138.794 167.143 138.794C167.744 138.794 168.232 138.92 168.609 139.174C168.985 139.42 169.253 139.742 169.412 140.14C169.579 140.531 169.662 140.947 169.662 141.389C169.662 141.91 169.564 142.377 169.369 142.79C169.173 143.202 168.873 143.528 168.468 143.767C168.069 144.006 167.574 144.125 166.98 144.125C166.22 144.125 165.604 143.93 165.134 143.539C164.663 143.148 164.377 142.627 164.276 141.975H165.243C165.337 142.388 165.536 142.71 165.84 142.942C166.144 143.173 166.527 143.289 166.991 143.289C167.563 143.289 167.993 143.119 168.283 142.779C168.573 142.431 168.717 141.975 168.717 141.411C168.717 140.846 168.573 140.412 168.283 140.107C167.993 139.796 167.566 139.641 167.002 139.641C166.618 139.641 166.281 139.735 165.992 139.923C165.709 140.104 165.503 140.354 165.373 140.672H164.439V136.242H169.163V137.11ZM175.862 137.024L172.843 144.104H171.844L174.906 137.121H170.715V136.274H175.862V137.024Z" fill="#858585"/>
<rect x="99.0571" y="132.707" width="79.6" height="14.4727" stroke="#FF0808" stroke-width="1.20606"/>
</svg>
