<svg width="220" height="180" viewBox="0 0 220 180" fill="none" xmlns="http://www.w3.org/2000/svg">
<rect width="220" height="180" fill="white"/>
<path d="M11.7679 58.5974C12.6507 58.5974 13.4252 58.77 14.0913 59.1151C14.7654 59.4601 15.283 59.9537 15.6442 60.5957C16.0134 61.2297 16.1979 61.9681 16.1979 62.8107C16.1979 63.6534 16.0134 64.3917 15.6442 65.0258C15.283 65.6517 14.7654 66.1373 14.0913 66.4824C13.4252 66.8275 12.6507 67 11.7679 67H8.83063V58.5974H11.7679ZM11.7077 65.5675C12.5905 65.5675 13.2727 65.3267 13.7542 64.8452C14.2357 64.3637 14.4765 63.6855 14.4765 62.8107C14.4765 61.936 14.2357 61.2538 13.7542 60.7643C13.2727 60.2667 12.5905 60.0179 11.7077 60.0179H10.516V65.5675H11.7077ZM23.7193 63.521C23.7193 63.7618 23.7032 63.9784 23.6711 64.1711H18.7957C18.8358 64.6526 19.0044 65.0298 19.3013 65.3026C19.5983 65.5755 19.9634 65.7119 20.3968 65.7119C21.0228 65.7119 21.4682 65.4431 21.733 64.9054H23.5508C23.3582 65.5474 22.989 66.0771 22.4433 66.4944C21.8975 66.9037 21.2274 67.1083 20.4329 67.1083C19.7909 67.1083 19.213 66.9679 18.6994 66.687C18.1938 66.3981 17.7966 65.9928 17.5076 65.4712C17.2268 64.9495 17.0863 64.3476 17.0863 63.6655C17.0863 62.9753 17.2268 62.3694 17.5076 61.8477C17.7885 61.326 18.1818 60.9248 18.6874 60.6439C19.193 60.363 19.7748 60.2226 20.4329 60.2226C21.0669 60.2226 21.6327 60.359 22.1303 60.6319C22.6359 60.9047 23.0251 61.2939 23.298 61.7995C23.5788 62.2971 23.7193 62.8709 23.7193 63.521ZM21.9738 63.0395C21.9657 62.6061 21.8093 62.261 21.5043 62.0042C21.1993 61.7394 20.8261 61.6069 20.3847 61.6069C19.9674 61.6069 19.6143 61.7353 19.3254 61.9922C19.0445 62.2409 18.872 62.59 18.8078 63.0395H21.9738ZM26.695 61.306C26.9116 60.985 27.2086 60.7241 27.5858 60.5235C27.971 60.3229 28.4084 60.2226 28.8979 60.2226C29.4677 60.2226 29.9814 60.363 30.4388 60.6439C30.9043 60.9248 31.2694 61.326 31.5343 61.8477C31.8071 62.3613 31.9436 62.9592 31.9436 63.6414C31.9436 64.3235 31.8071 64.9294 31.5343 65.4591C31.2694 65.9808 30.9043 66.3861 30.4388 66.675C29.9814 66.9639 29.4677 67.1083 28.8979 67.1083C28.4004 67.1083 27.963 67.012 27.5858 66.8194C27.2166 66.6188 26.9197 66.362 26.695 66.049V67H25.0096V58.0918H26.695V61.306ZM30.2221 63.6414C30.2221 63.2401 30.1378 62.895 29.9693 62.6061C29.8088 62.3092 29.5921 62.0844 29.3193 61.932C29.0544 61.7795 28.7655 61.7032 28.4525 61.7032C28.1476 61.7032 27.8586 61.7835 27.5858 61.944C27.3209 62.0965 27.1043 62.3212 26.9357 62.6181C26.7752 62.9151 26.695 63.2642 26.695 63.6655C26.695 64.0667 26.7752 64.4158 26.9357 64.7128C27.1043 65.0097 27.3209 65.2384 27.5858 65.3989C27.8586 65.5514 28.1476 65.6277 28.4525 65.6277C28.7655 65.6277 29.0544 65.5474 29.3193 65.3869C29.5921 65.2264 29.8088 64.9977 29.9693 64.7007C30.1378 64.4038 30.2221 64.0507 30.2221 63.6414ZM34.0831 59.5364C33.7862 59.5364 33.5374 59.4441 33.3368 59.2595C33.1442 59.0669 33.0479 58.8302 33.0479 58.5493C33.0479 58.2684 33.1442 58.0356 33.3368 57.8511C33.5374 57.6584 33.7862 57.5621 34.0831 57.5621C34.3801 57.5621 34.6249 57.6584 34.8175 57.8511C35.0181 58.0356 35.1184 58.2684 35.1184 58.5493C35.1184 58.8302 35.0181 59.0669 34.8175 59.2595C34.6249 59.4441 34.3801 59.5364 34.0831 59.5364ZM34.9138 60.3309V67H33.2284V60.3309H34.9138ZM38.6013 61.7153V64.9415C38.6013 65.1662 38.6534 65.3307 38.7578 65.435C38.8701 65.5314 39.0547 65.5795 39.3115 65.5795H40.094V67H39.0347C37.6142 67 36.9039 66.3098 36.9039 64.9294V61.7153H36.1094V60.3309H36.9039V58.6817H38.6013V60.3309H40.094V61.7153H38.6013ZM47.566 63.521C47.566 63.7618 47.5499 63.9784 47.5178 64.1711H42.6424C42.6825 64.6526 42.8511 65.0298 43.148 65.3026C43.4449 65.5755 43.8101 65.7119 44.2435 65.7119C44.8695 65.7119 45.3149 65.4431 45.5797 64.9054H47.3975C47.2048 65.5474 46.8357 66.0771 46.2899 66.4944C45.7442 66.9037 45.0741 67.1083 44.2796 67.1083C43.6376 67.1083 43.0597 66.9679 42.5461 66.687C42.0405 66.3981 41.6432 65.9928 41.3543 65.4712C41.0734 64.9495 40.933 64.3476 40.933 63.6655C40.933 62.9753 41.0734 62.3694 41.3543 61.8477C41.6352 61.326 42.0285 60.9248 42.5341 60.6439C43.0397 60.363 43.6215 60.2226 44.2796 60.2226C44.9136 60.2226 45.4794 60.359 45.977 60.6319C46.4826 60.9047 46.8718 61.2939 47.1447 61.7995C47.4255 62.2971 47.566 62.8709 47.566 63.521ZM45.8205 63.0395C45.8124 62.6061 45.6559 62.261 45.351 62.0042C45.046 61.7394 44.6728 61.6069 44.2314 61.6069C43.8141 61.6069 43.461 61.7353 43.1721 61.9922C42.8912 62.2409 42.7186 62.59 42.6544 63.0395H45.8205ZM48.4229 63.6414C48.4229 62.9672 48.5554 62.3694 48.8202 61.8477C49.0931 61.326 49.4622 60.9248 49.9277 60.6439C50.3932 60.363 50.9108 60.2226 51.4806 60.2226C51.914 60.2226 52.3273 60.3189 52.7205 60.5115C53.1138 60.6961 53.4268 60.9448 53.6595 61.2578V58.0918H55.3689V67H53.6595V66.0129C53.4509 66.3419 53.1579 66.6068 52.7807 66.8074C52.4035 67.008 51.9662 67.1083 51.4686 67.1083C50.9068 67.1083 50.3932 66.9639 49.9277 66.675C49.4622 66.3861 49.0931 65.9808 48.8202 65.4591C48.5554 64.9294 48.4229 64.3235 48.4229 63.6414ZM53.6715 63.6655C53.6715 63.2562 53.5913 62.9071 53.4308 62.6181C53.2703 62.3212 53.0536 62.0965 52.7807 61.944C52.5079 61.7835 52.2149 61.7032 51.902 61.7032C51.589 61.7032 51.3 61.7795 51.0352 61.932C50.7704 62.0844 50.5537 62.3092 50.3852 62.6061C50.2246 62.895 50.1444 63.2401 50.1444 63.6414C50.1444 64.0426 50.2246 64.3958 50.3852 64.7007C50.5537 64.9977 50.7704 65.2264 51.0352 65.3869C51.3081 65.5474 51.597 65.6277 51.902 65.6277C52.2149 65.6277 52.5079 65.5514 52.7807 65.3989C53.0536 65.2384 53.2703 65.0137 53.4308 64.7248C53.5913 64.4279 53.6715 64.0747 53.6715 63.6655ZM63.0614 61.7153H61.8938V67H60.1843V61.7153H59.4259V60.3309H60.1843V59.9938C60.1843 59.1752 60.4171 58.5733 60.8826 58.1881C61.348 57.8029 62.0502 57.6223 62.9892 57.6464V59.0669C62.5799 59.0589 62.295 59.1271 62.1345 59.2715C61.974 59.416 61.8938 59.6768 61.8938 60.054V60.3309H63.0614V61.7153ZM65.8991 61.3662C66.1158 61.0131 66.3967 60.7362 66.7418 60.5355C67.0949 60.3349 67.4962 60.2346 67.9456 60.2346V62.0042H67.5002C66.9705 62.0042 66.5693 62.1286 66.2964 62.3774C66.0316 62.6262 65.8991 63.0595 65.8991 63.6775V67H64.2138V60.3309H65.8991V61.3662ZM72.1023 67.1083C71.4603 67.1083 70.8825 66.9679 70.3688 66.687C69.8552 66.3981 69.4499 65.9928 69.153 65.4712C68.8641 64.9495 68.7196 64.3476 68.7196 63.6655C68.7196 62.9833 68.8681 62.3814 69.165 61.8597C69.47 61.3381 69.8833 60.9368 70.405 60.6559C70.9266 60.367 71.5085 60.2226 72.1505 60.2226C72.7925 60.2226 73.3744 60.367 73.896 60.6559C74.4177 60.9368 74.8269 61.3381 75.1239 61.8597C75.4289 62.3814 75.5813 62.9833 75.5813 63.6655C75.5813 64.3476 75.4248 64.9495 75.1119 65.4712C74.8069 65.9928 74.3896 66.3981 73.8599 66.687C73.3382 66.9679 72.7524 67.1083 72.1023 67.1083ZM72.1023 65.6397C72.4073 65.6397 72.6922 65.5675 72.957 65.423C73.2299 65.2705 73.4466 65.0458 73.6071 64.7489C73.7676 64.4519 73.8479 64.0908 73.8479 63.6655C73.8479 63.0314 73.6793 62.5459 73.3423 62.2088C73.0132 61.8638 72.6079 61.6912 72.1264 61.6912C71.6449 61.6912 71.2396 61.8638 70.9106 62.2088C70.5895 62.5459 70.429 63.0314 70.429 63.6655C70.429 64.2995 70.5855 64.789 70.8985 65.1341C71.2195 65.4712 71.6208 65.6397 72.1023 65.6397ZM85.16 60.2346C85.9786 60.2346 86.6367 60.4874 87.1342 60.993C87.6398 61.4906 87.8926 62.1888 87.8926 63.0876V67H86.2073V63.3163C86.2073 62.7947 86.0749 62.3974 85.81 62.1246C85.5452 61.8437 85.1841 61.7032 84.7266 61.7032C84.2692 61.7032 83.904 61.8437 83.6311 62.1246C83.3663 62.3974 83.2339 62.7947 83.2339 63.3163V67H81.5486V63.3163C81.5486 62.7947 81.4161 62.3974 81.1513 62.1246C80.8865 61.8437 80.5253 61.7032 80.0679 61.7032C79.6024 61.7032 79.2332 61.8437 78.9604 62.1246C78.6955 62.3974 78.5631 62.7947 78.5631 63.3163V67H76.8778V60.3309H78.5631V61.1375C78.7798 60.8566 79.0567 60.6359 79.3937 60.4754C79.7388 60.3149 80.116 60.2346 80.5253 60.2346C81.047 60.2346 81.5124 60.347 81.9217 60.5717C82.331 60.7883 82.648 61.1013 82.8727 61.5106C83.0894 61.1254 83.4024 60.8164 83.8117 60.5837C84.229 60.351 84.6785 60.2346 85.16 60.2346Z" fill="black"/>
<path d="M9.76115 113.996V118.675C9.76115 119.332 9.92029 119.82 10.2386 120.139C10.5639 120.457 11.0131 120.616 11.586 120.616C12.1518 120.616 12.5939 120.457 12.9121 120.139C13.2375 119.82 13.4002 119.332 13.4002 118.675V113.996H14.3656V118.664C14.3656 119.279 14.2418 119.799 13.9943 120.224C13.7467 120.641 13.4108 120.952 12.9864 121.157C12.5691 121.362 12.0987 121.465 11.5754 121.465C11.052 121.465 10.5781 121.362 10.1537 121.157C9.7364 120.952 9.40397 120.641 9.15642 120.224C8.91594 119.799 8.7957 119.279 8.7957 118.664V113.996H9.76115ZM20.5806 113.996V114.781H18.5648V121.391H17.5994V114.781H15.573V113.996H20.5806ZM25.7157 121.391L23.9546 118.367H22.7875V121.391H21.8221V113.996H24.2092C24.768 113.996 25.2383 114.091 25.6202 114.282C26.0092 114.473 26.2992 114.731 26.4902 115.057C26.6812 115.382 26.7767 115.754 26.7767 116.171C26.7767 116.68 26.6281 117.129 26.3311 117.518C26.0411 117.907 25.6026 118.165 25.0155 118.293L26.8721 121.391H25.7157ZM22.7875 117.592H24.2092C24.7326 117.592 25.1251 117.465 25.3868 117.211C25.6485 116.949 25.7794 116.602 25.7794 116.171C25.7794 115.732 25.6485 115.393 25.3868 115.152C25.1322 114.912 24.7397 114.792 24.2092 114.792H22.7875V117.592ZM28.6375 121.454C28.4536 121.454 28.298 121.391 28.1707 121.263C28.0434 121.136 27.9797 120.98 27.9797 120.797C27.9797 120.613 28.0434 120.457 28.1707 120.33C28.298 120.202 28.4536 120.139 28.6375 120.139C28.8143 120.139 28.9629 120.202 29.0831 120.33C29.2104 120.457 29.2741 120.613 29.2741 120.797C29.2741 120.98 29.2104 121.136 29.0831 121.263C28.9629 121.391 28.8143 121.454 28.6375 121.454ZM28.6375 116.913C28.4536 116.913 28.298 116.85 28.1707 116.723C28.0434 116.595 27.9797 116.44 27.9797 116.256C27.9797 116.072 28.0434 115.916 28.1707 115.789C28.298 115.662 28.4536 115.598 28.6375 115.598C28.8143 115.598 28.9629 115.662 29.0831 115.789C29.2104 115.916 29.2741 116.072 29.2741 116.256C29.2741 116.44 29.2104 116.595 29.0831 116.723C28.9629 116.85 28.8143 116.913 28.6375 116.913ZM37.4867 119.332C37.5574 119.736 37.7201 120.047 37.9747 120.266C38.2364 120.485 38.5866 120.595 39.0251 120.595C39.6121 120.595 40.0436 120.365 40.3194 119.905C40.6023 119.446 40.7367 118.671 40.7226 117.582C40.574 117.9 40.3265 118.151 39.9799 118.335C39.6333 118.512 39.2479 118.6 38.8235 118.6C38.3496 118.6 37.9252 118.505 37.5504 118.314C37.1826 118.116 36.8926 117.829 36.6804 117.455C36.4682 117.08 36.3621 116.627 36.3621 116.097C36.3621 115.34 36.5814 114.731 37.0199 114.272C37.4584 113.805 38.0808 113.572 38.8872 113.572C39.8774 113.572 40.5705 113.893 40.9666 114.537C41.3697 115.181 41.5713 116.139 41.5713 117.412C41.5713 118.303 41.49 119.039 41.3273 119.619C41.1717 120.199 40.9029 120.641 40.521 120.945C40.1461 121.249 39.6298 121.401 38.972 121.401C38.2506 121.401 37.6883 121.207 37.2851 120.818C36.882 120.429 36.6521 119.934 36.5955 119.332H37.4867ZM38.9826 117.783C39.4565 117.783 39.8455 117.638 40.1497 117.348C40.4538 117.051 40.6059 116.652 40.6059 116.15C40.6059 115.619 40.4573 115.191 40.1603 114.866C39.8632 114.541 39.4459 114.378 38.9084 114.378C38.4133 114.378 38.0172 114.533 37.7201 114.845C37.4301 115.156 37.2851 115.566 37.2851 116.075C37.2851 116.592 37.4301 117.005 37.7201 117.317C38.0101 117.628 38.431 117.783 38.9826 117.783ZM44.3816 117.402C43.9855 117.246 43.6813 117.02 43.4692 116.723C43.257 116.425 43.1509 116.065 43.1509 115.64C43.1509 115.258 43.2464 114.915 43.4373 114.611C43.6283 114.3 43.9112 114.056 44.2861 113.879C44.668 113.695 45.1277 113.603 45.6653 113.603C46.2028 113.603 46.659 113.695 47.0339 113.879C47.4158 114.056 47.7023 114.3 47.8933 114.611C48.0913 114.915 48.1903 115.258 48.1903 115.64C48.1903 116.051 48.0807 116.411 47.8614 116.723C47.6422 117.027 47.3416 117.253 46.9596 117.402C47.3982 117.536 47.7447 117.773 47.9993 118.112C48.261 118.445 48.3919 118.848 48.3919 119.322C48.3919 119.782 48.2787 120.185 48.0524 120.531C47.8261 120.871 47.5042 121.136 47.0869 121.327C46.6767 121.511 46.2028 121.603 45.6653 121.603C45.1277 121.603 44.6539 121.511 44.2436 121.327C43.8405 121.136 43.5257 120.871 43.2994 120.531C43.0731 120.185 42.9599 119.782 42.9599 119.322C42.9599 118.848 43.0872 118.441 43.3418 118.102C43.5965 117.762 43.943 117.529 44.3816 117.402ZM47.2567 115.757C47.2567 115.326 47.1152 114.993 46.8323 114.76C46.5494 114.526 46.1604 114.41 45.6653 114.41C45.1773 114.41 44.7918 114.526 44.5089 114.76C44.226 114.993 44.0845 115.329 44.0845 115.768C44.0845 116.164 44.2295 116.482 44.5195 116.723C44.8165 116.963 45.1985 117.083 45.6653 117.083C46.1392 117.083 46.5211 116.963 46.8111 116.723C47.1082 116.475 47.2567 116.153 47.2567 115.757ZM45.6653 117.826C45.1419 117.826 44.714 117.95 44.3816 118.197C44.0491 118.438 43.8829 118.802 43.8829 119.29C43.8829 119.743 44.0421 120.107 44.3603 120.383C44.6857 120.659 45.1207 120.797 45.6653 120.797C46.2099 120.797 46.6413 120.659 46.9596 120.383C47.2779 120.107 47.4371 119.743 47.4371 119.29C47.4371 118.816 47.2744 118.455 46.949 118.208C46.6237 117.953 46.1958 117.826 45.6653 117.826ZM49.4938 119.683V118.95L53.2177 113.794H54.3741V118.844H55.435V119.683H54.3741V121.391H53.4192V119.683H49.4938ZM53.4617 114.802L50.6078 118.844H53.4617V114.802ZM61.3434 114.558H57.6195V116.977C57.7822 116.751 58.0227 116.567 58.341 116.425C58.6593 116.277 59.0023 116.203 59.3701 116.203C59.9571 116.203 60.4346 116.326 60.8024 116.574C61.1701 116.814 61.4318 117.129 61.5874 117.518C61.7501 117.9 61.8315 118.307 61.8315 118.738C61.8315 119.248 61.736 119.704 61.545 120.107C61.354 120.51 61.0605 120.828 60.6644 121.062C60.2754 121.295 59.7909 121.412 59.211 121.412C58.4683 121.412 57.8671 121.221 57.4074 120.839C56.9476 120.457 56.6682 119.948 56.5692 119.311H57.5135C57.6054 119.714 57.7999 120.029 58.097 120.255C58.394 120.482 58.7689 120.595 59.2216 120.595C59.7803 120.595 60.2012 120.429 60.4841 120.096C60.767 119.757 60.9084 119.311 60.9084 118.76C60.9084 118.208 60.767 117.783 60.4841 117.486C60.2012 117.182 59.7839 117.03 59.2322 117.03C58.8573 117.03 58.5284 117.122 58.2455 117.306C57.9697 117.483 57.7681 117.727 57.6408 118.038H56.7284V113.709H61.3434V114.558ZM62.9129 114.601V113.72H64.9074V121.391H63.9314V114.601H62.9129ZM66.5021 120.616C67.4004 119.895 68.1042 119.304 68.6134 118.844C69.1227 118.378 69.5506 117.893 69.8971 117.391C70.2508 116.882 70.4276 116.383 70.4276 115.895C70.4276 115.435 70.3144 115.075 70.0881 114.813C69.8689 114.544 69.5117 114.41 69.0166 114.41C68.5356 114.41 68.1607 114.562 67.892 114.866C67.6303 115.163 67.4888 115.563 67.4676 116.065H66.534C66.5623 115.273 66.8027 114.661 67.2554 114.229C67.7081 113.798 68.2916 113.582 69.006 113.582C69.7345 113.582 70.3109 113.784 70.7353 114.187C71.1667 114.59 71.3825 115.145 71.3825 115.853C71.3825 116.44 71.2056 117.012 70.852 117.571C70.5054 118.123 70.1093 118.611 69.6637 119.035C69.2181 119.453 68.6488 119.941 67.9556 120.499H71.6052V121.306H66.5021V120.616ZM74.1748 117.402C73.7787 117.246 73.4746 117.02 73.2624 116.723C73.0502 116.425 72.9441 116.065 72.9441 115.64C72.9441 115.258 73.0396 114.915 73.2306 114.611C73.4215 114.3 73.7044 114.056 74.0793 113.879C74.4612 113.695 74.921 113.603 75.4585 113.603C75.9961 113.603 76.4523 113.695 76.8271 113.879C77.2091 114.056 77.4955 114.3 77.6865 114.611C77.8845 114.915 77.9835 115.258 77.9835 115.64C77.9835 116.051 77.8739 116.411 77.6547 116.723C77.4354 117.027 77.1348 117.253 76.7529 117.402C77.1914 117.536 77.538 117.773 77.7926 118.112C78.0543 118.445 78.1851 118.848 78.1851 119.322C78.1851 119.782 78.072 120.185 77.8456 120.531C77.6193 120.871 77.2975 121.136 76.8802 121.327C76.4699 121.511 75.9961 121.603 75.4585 121.603C74.921 121.603 74.4471 121.511 74.0369 121.327C73.6337 121.136 73.319 120.871 73.0926 120.531C72.8663 120.185 72.7531 119.782 72.7531 119.322C72.7531 118.848 72.8804 118.441 73.1351 118.102C73.3897 117.762 73.7363 117.529 74.1748 117.402ZM77.0499 115.757C77.0499 115.326 76.9085 114.993 76.6255 114.76C76.3426 114.526 75.9536 114.41 75.4585 114.41C74.9705 114.41 74.585 114.526 74.3021 114.76C74.0192 114.993 73.8777 115.329 73.8777 115.768C73.8777 116.164 74.0227 116.482 74.3127 116.723C74.6098 116.963 74.9917 117.083 75.4585 117.083C75.9324 117.083 76.3143 116.963 76.6043 116.723C76.9014 116.475 77.0499 116.153 77.0499 115.757ZM75.4585 117.826C74.9351 117.826 74.5072 117.95 74.1748 118.197C73.8424 118.438 73.6761 118.802 73.6761 119.29C73.6761 119.743 73.8353 120.107 74.1536 120.383C74.4789 120.659 74.9139 120.797 75.4585 120.797C76.0031 120.797 76.4346 120.659 76.7529 120.383C77.0711 120.107 77.2303 119.743 77.2303 119.29C77.2303 118.816 77.0676 118.455 76.7422 118.208C76.4169 117.953 75.989 117.826 75.4585 117.826ZM84.2416 114.473L81.2922 121.391H80.3161L83.308 114.569H79.2127V113.741H84.2416V114.473ZM86.6064 119.332C86.6771 119.736 86.8398 120.047 87.0944 120.266C87.3561 120.485 87.7062 120.595 88.1447 120.595C88.7318 120.595 89.1632 120.365 89.4391 119.905C89.722 119.446 89.8564 118.671 89.8422 117.582C89.6937 117.9 89.4462 118.151 89.0996 118.335C88.753 118.512 88.3675 118.6 87.9432 118.6C87.4693 118.6 87.0449 118.505 86.67 118.314C86.3022 118.116 86.0123 117.829 85.8001 117.455C85.5879 117.08 85.4818 116.627 85.4818 116.097C85.4818 115.34 85.701 114.731 86.1396 114.272C86.5781 113.805 87.2005 113.572 88.0068 113.572C88.997 113.572 89.6902 113.893 90.0863 114.537C90.4894 115.181 90.691 116.139 90.691 117.412C90.691 118.303 90.6096 119.039 90.447 119.619C90.2914 120.199 90.0226 120.641 89.6407 120.945C89.2658 121.249 88.7495 121.401 88.0917 121.401C87.3703 121.401 86.808 121.207 86.4048 120.818C86.0016 120.429 85.7718 119.934 85.7152 119.332H86.6064ZM88.1023 117.783C88.5762 117.783 88.9652 117.638 89.2693 117.348C89.5735 117.051 89.7255 116.652 89.7255 116.15C89.7255 115.619 89.577 115.191 89.2799 114.866C88.9829 114.541 88.5656 114.378 88.028 114.378C87.5329 114.378 87.1368 114.533 86.8398 114.845C86.5498 115.156 86.4048 115.566 86.4048 116.075C86.4048 116.592 86.5498 117.005 86.8398 117.317C87.1298 117.628 87.5506 117.783 88.1023 117.783ZM92.0796 115.651C92.1291 115 92.3802 114.491 92.8328 114.123C93.2855 113.755 93.8726 113.572 94.594 113.572C95.0749 113.572 95.4887 113.66 95.8353 113.837C96.1889 114.007 96.4542 114.24 96.631 114.537C96.8149 114.834 96.9068 115.17 96.9068 115.545C96.9068 115.983 96.7795 116.362 96.5249 116.68C96.2773 116.998 95.952 117.203 95.5488 117.295V117.348C96.0086 117.462 96.3728 117.684 96.6416 118.017C96.9104 118.349 97.0447 118.784 97.0447 119.322C97.0447 119.725 96.9528 120.089 96.7689 120.415C96.585 120.733 96.3092 120.984 95.9414 121.168C95.5736 121.352 95.1315 121.444 94.6152 121.444C93.8655 121.444 93.2501 121.249 92.7692 120.86C92.2882 120.464 92.0195 119.905 91.9629 119.184H92.8965C92.946 119.608 93.1193 119.955 93.4163 120.224C93.7134 120.492 94.1095 120.627 94.6046 120.627C95.0997 120.627 95.4746 120.499 95.7292 120.245C95.9909 119.983 96.1217 119.647 96.1217 119.237C96.1217 118.706 95.9449 118.325 95.5913 118.091C95.2376 117.858 94.7036 117.741 93.9893 117.741H93.7452V116.935H93.9999C94.6506 116.928 95.1421 116.822 95.4746 116.616C95.807 116.404 95.9732 116.079 95.9732 115.64C95.9732 115.265 95.8494 114.965 95.6019 114.739C95.3614 114.512 95.0148 114.399 94.5622 114.399C94.1236 114.399 93.77 114.512 93.5012 114.739C93.2325 114.965 93.0733 115.269 93.0238 115.651H92.0796ZM98.2846 120.616C99.1829 119.895 99.8866 119.304 100.396 118.844C100.905 118.378 101.333 117.893 101.68 117.391C102.033 116.882 102.21 116.383 102.21 115.895C102.21 115.435 102.097 115.075 101.871 114.813C101.651 114.544 101.294 114.41 100.799 114.41C100.318 114.41 99.9432 114.562 99.6745 114.866C99.4128 115.163 99.2713 115.563 99.2501 116.065H98.3165C98.3448 115.273 98.5852 114.661 99.0379 114.229C99.4906 113.798 100.074 113.582 100.788 113.582C101.517 113.582 102.093 113.784 102.518 114.187C102.949 114.59 103.165 115.145 103.165 115.853C103.165 116.44 102.988 117.012 102.634 117.571C102.288 118.123 101.892 118.611 101.446 119.035C101.001 119.453 100.431 119.941 99.7381 120.499H103.388V121.306H98.2846V120.616ZM104.302 114.601V113.72H106.297V121.391H105.321V114.601H104.302Z" fill="#858585"/>
<rect x="32.1566" y="109.98" width="77.7718" height="14.1403" stroke="#FF0808" stroke-width="1.17836"/>
<path d="M38.7442 86.7581L39.1926 87.5678L37.4613 88.2902L39.2051 89.0002L38.7318 89.8347L37.2246 88.7386L37.4239 90.6194H36.4897L36.6766 88.7386L35.1694 89.8472L34.6836 89.0002L36.415 88.2777L34.6836 87.5802L35.1445 86.7457L36.689 87.8542L36.4897 85.961H37.4364L37.2246 87.8542L38.7442 86.7581ZM44.8641 86.7581L45.3125 87.5678L43.5812 88.2902L45.325 89.0002L44.8516 89.8347L43.3445 88.7386L43.5438 90.6194H42.6096L42.7964 88.7386L41.2893 89.8472L40.8035 89.0002L42.5349 88.2777L40.8035 87.5802L41.2644 86.7457L42.8089 87.8542L42.6096 85.961H43.5562L43.3445 87.8542L44.8641 86.7581ZM50.984 86.7581L51.4324 87.5678L49.701 88.2902L51.4448 89.0002L50.9715 89.8347L49.4644 88.7386L49.6637 90.6194H48.7295L48.9163 88.7386L47.4092 89.8472L46.9234 89.0002L48.6547 88.2777L46.9234 87.5802L47.3843 86.7457L48.9288 87.8542L48.7295 85.961H49.6761L49.4644 87.8542L50.984 86.7581ZM57.1039 86.7581L57.5523 87.5678L55.8209 88.2902L57.5647 89.0002L57.0914 89.8347L55.5843 88.7386L55.7835 90.6194H54.8494L55.0362 88.7386L53.5291 89.8472L53.0433 89.0002L54.7746 88.2777L53.0433 87.5802L53.5041 86.7457L55.0487 87.8542L54.8494 85.961H55.796L55.5843 87.8542L57.1039 86.7581ZM63.2237 86.7581L63.6722 87.5678L61.9408 88.2902L63.6846 89.0002L63.2113 89.8347L61.7041 88.7386L61.9034 90.6194H60.9692L61.1561 88.7386L59.6489 89.8472L59.1632 89.0002L60.8945 88.2777L59.1632 87.5802L59.624 86.7457L61.1685 87.8542L60.9692 85.961H61.9159L61.7041 87.8542L63.2237 86.7581ZM69.3436 86.7581L69.792 87.5678L68.0607 88.2902L69.8045 89.0002L69.3312 89.8347L67.824 88.7386L68.0233 90.6194H67.0891L67.276 88.7386L65.7688 89.8472L65.283 89.0002L67.0144 88.2777L65.283 87.5802L65.7439 86.7457L67.2884 87.8542L67.0891 85.961H68.0358L67.824 87.8542L69.3436 86.7581ZM71.4154 90.5073C71.4154 89.0791 71.6479 87.9663 72.1129 87.1692C72.5779 86.3637 73.3917 85.961 74.5542 85.961C75.7085 85.961 76.5181 86.3637 76.9831 87.1692C77.4481 87.9663 77.6806 89.0791 77.6806 90.5073C77.6806 91.9605 77.4481 93.0898 76.9831 93.8953C76.5181 94.7008 75.7085 95.1035 74.5542 95.1035C73.3917 95.1035 72.5779 94.7008 72.1129 93.8953C71.6479 93.0898 71.4154 91.9605 71.4154 90.5073ZM76.5596 90.5073C76.5596 89.7849 76.5098 89.1746 76.4101 88.6763C76.3188 88.1698 76.1237 87.7629 75.8247 87.4557C75.5341 87.1484 75.1106 86.9948 74.5542 86.9948C73.9896 86.9948 73.5578 87.1484 73.2588 87.4557C72.9682 87.7629 72.7731 88.1698 72.6734 88.6763C72.5821 89.1746 72.5364 89.7849 72.5364 90.5073C72.5364 91.2547 72.5821 91.8816 72.6734 92.3882C72.7731 92.8947 72.9682 93.3016 73.2588 93.6088C73.5578 93.9161 73.9896 94.0697 74.5542 94.0697C75.1106 94.0697 75.5341 93.9161 75.8247 93.6088C76.1237 93.3016 76.3188 92.8947 76.4101 92.3882C76.5098 91.8816 76.5596 91.2547 76.5596 90.5073ZM79.025 93.0981V92.2387L83.397 86.1852H84.7547V92.1141H86.0002V93.0981H84.7547V95.1035H83.6336V93.0981H79.025ZM83.6835 87.3685L80.3328 92.1141H83.6835V87.3685ZM92.9369 87.082H88.565V89.9219C88.7559 89.6562 89.0383 89.4403 89.412 89.2742C89.7856 89.0998 90.1884 89.0126 90.6202 89.0126C91.3094 89.0126 91.8699 89.158 92.3017 89.4486C92.7335 89.7309 93.0407 90.1004 93.2234 90.5572C93.4144 91.0056 93.5099 91.483 93.5099 91.9896C93.5099 92.5874 93.3978 93.123 93.1736 93.5964C92.9494 94.0697 92.6048 94.4434 92.1398 94.7174C91.6831 94.9914 91.1142 95.1284 90.4333 95.1284C89.5614 95.1284 88.8556 94.9042 88.3158 94.4558C87.7761 94.0074 87.4481 93.4095 87.3318 92.6622H88.4404C88.5484 93.1355 88.7767 93.505 89.1255 93.7707C89.4742 94.0365 89.9143 94.1693 90.4458 94.1693C91.1018 94.1693 91.5959 93.9742 91.928 93.5839C92.2602 93.1853 92.4263 92.6622 92.4263 92.0145C92.4263 91.3668 92.2602 90.8685 91.928 90.5198C91.5959 90.1627 91.1059 89.9842 90.4582 89.9842C90.0181 89.9842 89.632 90.0921 89.2998 90.308C88.976 90.5156 88.7393 90.8021 88.5899 91.1675H87.5187V86.0855H92.9369V87.082ZM94.7795 87.1318V86.098H97.1212V95.1035H95.9753V87.1318H94.7795Z" fill="black"/>
<path d="M176.63 95.1035L174.276 90.9931V90.445H174.55C174.99 90.445 175.36 90.4035 175.659 90.3205C175.966 90.2375 176.207 90.1004 176.381 89.9094C176.555 89.7185 176.659 89.4569 176.692 89.1247H174.276V88.3276H176.68C176.622 88.0203 176.506 87.7712 176.331 87.5802C176.157 87.3809 175.92 87.2356 175.621 87.1443C175.331 87.0529 174.974 87.0073 174.55 87.0073H174.276V86.2101H179.433V87.0073H177.079C177.27 87.165 177.427 87.3519 177.552 87.5678C177.676 87.7837 177.755 88.0369 177.789 88.3276H179.433V89.1247H177.813C177.755 89.7309 177.523 90.2042 177.116 90.5447C176.717 90.8768 176.186 91.0886 175.522 91.1799L177.901 95.1035H176.63ZM186.997 87.082H182.625V89.9219C182.816 89.6562 183.098 89.4403 183.472 89.2742C183.845 89.0998 184.248 89.0126 184.68 89.0126C185.369 89.0126 185.93 89.158 186.361 89.4486C186.793 89.7309 187.1 90.1004 187.283 90.5572C187.474 91.0056 187.57 91.483 187.57 91.9896C187.57 92.5874 187.458 93.123 187.233 93.5964C187.009 94.0697 186.665 94.4434 186.2 94.7174C185.743 94.9914 185.174 95.1284 184.493 95.1284C183.621 95.1284 182.915 94.9042 182.376 94.4558C181.836 94.0074 181.508 93.4095 181.392 92.6622H182.5C182.608 93.1355 182.836 93.505 183.185 93.7707C183.534 94.0365 183.974 94.1693 184.506 94.1693C185.162 94.1693 185.656 93.9742 185.988 93.5839C186.32 93.1853 186.486 92.6622 186.486 92.0145C186.486 91.3668 186.32 90.8685 185.988 90.5198C185.656 90.1627 185.166 89.9842 184.518 89.9842C184.078 89.9842 183.692 90.0921 183.36 90.308C183.036 90.5156 182.799 90.8021 182.65 91.1675H181.578V86.0855H186.997V87.082ZM189.138 90.5073C189.138 89.0791 189.371 87.9663 189.836 87.1692C190.301 86.3637 191.115 85.961 192.277 85.961C193.431 85.961 194.241 86.3637 194.706 87.1692C195.171 87.9663 195.403 89.0791 195.403 90.5073C195.403 91.9605 195.171 93.0898 194.706 93.8953C194.241 94.7008 193.431 95.1035 192.277 95.1035C191.115 95.1035 190.301 94.7008 189.836 93.8953C189.371 93.0898 189.138 91.9605 189.138 90.5073ZM194.282 90.5073C194.282 89.7849 194.233 89.1746 194.133 88.6763C194.042 88.1698 193.846 87.7629 193.548 87.4557C193.257 87.1484 192.833 86.9948 192.277 86.9948C191.712 86.9948 191.281 87.1484 190.982 87.4557C190.691 87.7629 190.496 88.1698 190.396 88.6763C190.305 89.1746 190.259 89.7849 190.259 90.5073C190.259 91.2547 190.305 91.8816 190.396 92.3882C190.496 92.8947 190.691 93.3016 190.982 93.6088C191.281 93.9161 191.712 94.0697 192.277 94.0697C192.833 94.0697 193.257 93.9161 193.548 93.6088C193.846 93.3016 194.042 92.8947 194.133 92.3882C194.233 91.8816 194.282 91.2547 194.282 90.5073ZM197.022 90.5073C197.022 89.0791 197.254 87.9663 197.719 87.1692C198.184 86.3637 198.998 85.961 200.161 85.961C201.315 85.961 202.125 86.3637 202.59 87.1692C203.055 87.9663 203.287 89.0791 203.287 90.5073C203.287 91.9605 203.055 93.0898 202.59 93.8953C202.125 94.7008 201.315 95.1035 200.161 95.1035C198.998 95.1035 198.184 94.7008 197.719 93.8953C197.254 93.0898 197.022 91.9605 197.022 90.5073ZM202.166 90.5073C202.166 89.7849 202.116 89.1746 202.017 88.6763C201.925 88.1698 201.73 87.7629 201.431 87.4557C201.141 87.1484 200.717 86.9948 200.161 86.9948C199.596 86.9948 199.164 87.1484 198.865 87.4557C198.575 87.7629 198.38 88.1698 198.28 88.6763C198.189 89.1746 198.143 89.7849 198.143 90.5073C198.143 91.2547 198.189 91.8816 198.28 92.3882C198.38 92.8947 198.575 93.3016 198.865 93.6088C199.164 93.9161 199.596 94.0697 200.161 94.0697C200.717 94.0697 201.141 93.9161 201.431 93.6088C201.73 93.3016 201.925 92.8947 202.017 92.3882C202.116 91.8816 202.166 91.2547 202.166 90.5073ZM204.905 90.5073C204.905 89.0791 205.138 87.9663 205.603 87.1692C206.068 86.3637 206.882 85.961 208.044 85.961C209.199 85.961 210.008 86.3637 210.473 87.1692C210.938 87.9663 211.171 89.0791 211.171 90.5073C211.171 91.9605 210.938 93.0898 210.473 93.8953C210.008 94.7008 209.199 95.1035 208.044 95.1035C206.882 95.1035 206.068 94.7008 205.603 93.8953C205.138 93.0898 204.905 91.9605 204.905 90.5073ZM210.05 90.5073C210.05 89.7849 210 89.1746 209.9 88.6763C209.809 88.1698 209.614 87.7629 209.315 87.4557C209.024 87.1484 208.601 86.9948 208.044 86.9948C207.48 86.9948 207.048 87.1484 206.749 87.4557C206.458 87.7629 206.263 88.1698 206.164 88.6763C206.072 89.1746 206.026 89.7849 206.026 90.5073C206.026 91.2547 206.072 91.8816 206.164 92.3882C206.263 92.8947 206.458 93.3016 206.749 93.6088C207.048 93.9161 207.48 94.0697 208.044 94.0697C208.601 94.0697 209.024 93.9161 209.315 93.6088C209.614 93.3016 209.809 92.8947 209.9 92.3882C210 91.8816 210.05 91.2547 210.05 90.5073Z" fill="black"/>
<path fill-rule="evenodd" clip-rule="evenodd" d="M17.4994 99.9648C17.4752 99.965 17.4511 99.9651 17.4269 99.9651C17.4027 99.9651 17.3785 99.965 17.3544 99.9648H17.4994ZM18.3687 99.9186C23.1328 99.4461 26.8538 95.4267 26.8538 90.5382C26.8538 85.3319 22.6332 81.1113 17.4269 81.1113C12.2206 81.1113 8 85.3319 8 90.5382C8 95.4261 11.72 99.4451 16.4833 99.9185V92.1717C15.9196 91.8458 15.5404 91.2364 15.5404 90.5384C15.5404 89.4971 16.3845 88.653 17.4257 88.653C18.467 88.653 19.3111 89.4971 19.3111 90.5384C19.3111 91.2361 18.9321 91.8453 18.3687 92.1714V99.9186Z" fill="#2A6AD5"/>
</svg>
