<svg width="220" height="180" viewBox="0 0 220 180" fill="none" xmlns="http://www.w3.org/2000/svg">
<rect width="220" height="180" fill="#F7F5F7"/>
<path d="M12.6425 116.103V120.467C12.6425 121.08 12.7909 121.536 13.0878 121.832C13.3912 122.129 13.8101 122.278 14.3444 122.278C14.8721 122.278 15.2844 122.129 15.5812 121.832C15.8846 121.536 16.0364 121.08 16.0364 120.467V116.103H16.9368V120.457C16.9368 121.031 16.8213 121.516 16.5905 121.912C16.3596 122.301 16.0463 122.591 15.6505 122.782C15.2613 122.974 14.8226 123.069 14.3345 123.069C13.8464 123.069 13.4044 122.974 13.0086 122.782C12.6194 122.591 12.3094 122.301 12.0785 121.912C11.8542 121.516 11.7421 121.031 11.7421 120.457V116.103H12.6425ZM23.0992 118.122C23.0992 118.696 22.9013 119.174 22.5055 119.557C22.1163 119.933 21.5193 120.121 20.7146 120.121H19.3887V123H18.4883V116.103H20.7146C21.493 116.103 22.0833 116.291 22.4857 116.667C22.8947 117.043 23.0992 117.528 23.0992 118.122ZM20.7146 119.379C21.2159 119.379 21.5853 119.27 21.8228 119.052C22.0602 118.834 22.179 118.524 22.179 118.122C22.179 117.271 21.6909 116.846 20.7146 116.846H19.3887V119.379H20.7146ZM25.1682 116.103V123H24.2678V116.103H25.1682ZM33.6844 116.103V116.836H31.8044V123H30.904V116.836H29.0142V116.103H33.6844ZM35.7426 118.458C35.901 118.148 36.1252 117.908 36.4155 117.736C36.7123 117.565 37.0718 117.479 37.494 117.479V118.409H37.2565C36.2473 118.409 35.7426 118.956 35.7426 120.051V123H34.8422V117.578H35.7426V118.458ZM38.2465 120.269C38.2465 119.715 38.3586 119.23 38.5829 118.815C38.8071 118.392 39.1139 118.066 39.5031 117.835C39.8989 117.604 40.3375 117.489 40.8191 117.489C41.294 117.489 41.7063 117.591 42.0559 117.795C42.4055 118 42.666 118.257 42.8376 118.567V117.578H43.7479V123H42.8376V121.991C42.6594 122.307 42.3923 122.571 42.0361 122.782C41.6865 122.987 41.2775 123.089 40.8092 123.089C40.3276 123.089 39.8923 122.97 39.5031 122.733C39.1139 122.495 38.8071 122.162 38.5829 121.733C38.3586 121.305 38.2465 120.817 38.2465 120.269ZM42.8376 120.279C42.8376 119.87 42.7551 119.514 42.5902 119.21C42.4253 118.907 42.201 118.676 41.9174 118.518C41.6403 118.353 41.3336 118.27 40.9972 118.27C40.6607 118.27 40.354 118.35 40.077 118.508C39.7999 118.666 39.5789 118.897 39.414 119.2C39.2491 119.504 39.1666 119.86 39.1666 120.269C39.1666 120.685 39.2491 121.047 39.414 121.357C39.5789 121.661 39.7999 121.895 40.077 122.06C40.354 122.218 40.6607 122.297 40.9972 122.297C41.3336 122.297 41.6403 122.218 41.9174 122.06C42.201 121.895 42.4253 121.661 42.5902 121.357C42.7551 121.047 42.8376 120.688 42.8376 120.279ZM47.9608 117.479C48.6204 117.479 49.1548 117.68 49.5637 118.082C49.9727 118.478 50.1772 119.052 50.1772 119.804V123H49.2867V119.933C49.2867 119.392 49.1515 118.979 48.881 118.696C48.6105 118.406 48.2411 118.26 47.7728 118.26C47.2979 118.26 46.9186 118.409 46.6349 118.706C46.3579 119.003 46.2193 119.435 46.2193 120.002V123H45.3189V117.578H46.2193V118.35C46.3975 118.072 46.6382 117.858 46.9417 117.706C47.2517 117.555 47.5914 117.479 47.9608 117.479ZM53.617 123.089C53.2015 123.089 52.8288 123.02 52.4989 122.881C52.1691 122.736 51.9086 122.538 51.7173 122.288C51.526 122.03 51.4204 121.737 51.4006 121.407H52.3307C52.3571 121.677 52.4825 121.898 52.7067 122.07C52.9376 122.241 53.2377 122.327 53.6071 122.327C53.9502 122.327 54.2206 122.251 54.4185 122.1C54.6164 121.948 54.7153 121.757 54.7153 121.526C54.7153 121.288 54.6098 121.113 54.3987 121.001C54.1876 120.883 53.8611 120.767 53.4191 120.655C53.0168 120.549 52.6869 120.444 52.4297 120.338C52.179 120.226 51.9613 120.065 51.7766 119.854C51.5985 119.636 51.5095 119.352 51.5095 119.003C51.5095 118.726 51.5919 118.472 51.7569 118.241C51.9218 118.01 52.1559 117.828 52.4594 117.696C52.7628 117.558 53.1091 117.489 53.4983 117.489C54.0986 117.489 54.5834 117.64 54.9528 117.944C55.3222 118.247 55.5201 118.663 55.5465 119.191H54.6461C54.6263 118.907 54.5109 118.679 54.2998 118.508C54.0953 118.336 53.8182 118.251 53.4686 118.251C53.1454 118.251 52.8881 118.32 52.6968 118.458C52.5055 118.597 52.4099 118.778 52.4099 119.003C52.4099 119.181 52.466 119.329 52.5781 119.448C52.6968 119.56 52.842 119.652 53.0135 119.725C53.1916 119.791 53.4356 119.867 53.7457 119.952C54.1349 120.058 54.4515 120.164 54.6956 120.269C54.9396 120.368 55.1474 120.52 55.3189 120.724C55.497 120.929 55.5894 121.196 55.596 121.526C55.596 121.823 55.5135 122.09 55.3486 122.327C55.1837 122.565 54.9495 122.753 54.6461 122.891C54.3492 123.023 54.0062 123.089 53.617 123.089ZM56.5801 120.269C56.5801 119.715 56.6922 119.23 56.9165 118.815C57.1408 118.392 57.4475 118.066 57.8367 117.835C58.2325 117.604 58.6712 117.489 59.1527 117.489C59.6276 117.489 60.0399 117.591 60.3895 117.795C60.7391 118 60.9997 118.257 61.1712 118.567V117.578H62.0815V123H61.1712V121.991C60.9931 122.307 60.7259 122.571 60.3697 122.782C60.0201 122.987 59.6111 123.089 59.1428 123.089C58.6613 123.089 58.2259 122.97 57.8367 122.733C57.4475 122.495 57.1408 122.162 56.9165 121.733C56.6922 121.305 56.5801 120.817 56.5801 120.269ZM61.1712 120.279C61.1712 119.87 61.0887 119.514 60.9238 119.21C60.7589 118.907 60.5346 118.676 60.251 118.518C59.9739 118.353 59.6672 118.27 59.3308 118.27C58.9944 118.27 58.6876 118.35 58.4106 118.508C58.1335 118.666 57.9126 118.897 57.7477 119.2C57.5827 119.504 57.5003 119.86 57.5003 120.269C57.5003 120.685 57.5827 121.047 57.7477 121.357C57.9126 121.661 58.1335 121.895 58.4106 122.06C58.6876 122.218 58.9944 122.297 59.3308 122.297C59.6672 122.297 59.9739 122.218 60.251 122.06C60.5346 121.895 60.7589 121.661 60.9238 121.357C61.0887 121.047 61.1712 120.688 61.1712 120.279ZM63.3162 120.279C63.3162 119.718 63.4283 119.23 63.6526 118.815C63.8769 118.392 64.1869 118.066 64.5827 117.835C64.9851 117.604 65.4435 117.489 65.958 117.489C66.6243 117.489 67.1718 117.65 67.6005 117.974C68.0359 118.297 68.3228 118.745 68.4614 119.319H67.4917C67.3993 118.989 67.2179 118.729 66.9475 118.538C66.6836 118.346 66.3538 118.251 65.958 118.251C65.4435 118.251 65.0279 118.429 64.7113 118.785C64.3947 119.135 64.2364 119.633 64.2364 120.279C64.2364 120.932 64.3947 121.437 64.7113 121.793C65.0279 122.149 65.4435 122.327 65.958 122.327C66.3538 122.327 66.6836 122.235 66.9475 122.05C67.2113 121.865 67.3927 121.602 67.4917 121.259H68.4614C68.3162 121.813 68.026 122.258 67.5906 122.594C67.1553 122.924 66.6111 123.089 65.958 123.089C65.4435 123.089 64.9851 122.974 64.5827 122.743C64.1869 122.512 63.8769 122.185 63.6526 121.763C63.4283 121.341 63.3162 120.846 63.3162 120.279ZM70.8106 118.32V121.516C70.8106 121.78 70.8666 121.968 70.9788 122.08C71.0909 122.185 71.2855 122.238 71.5626 122.238H72.2255V123H71.4141C70.9128 123 70.5368 122.885 70.2861 122.654C70.0355 122.423 69.9102 122.044 69.9102 121.516V118.32H69.2076V117.578H69.9102V116.212H70.8106V117.578H72.2255V118.32H70.8106ZM73.831 116.697C73.6595 116.697 73.5143 116.638 73.3956 116.519C73.2769 116.4 73.2175 116.255 73.2175 116.084C73.2175 115.912 73.2769 115.767 73.3956 115.648C73.5143 115.53 73.6595 115.47 73.831 115.47C73.9959 115.47 74.1344 115.53 74.2465 115.648C74.3653 115.767 74.4246 115.912 74.4246 116.084C74.4246 116.255 74.3653 116.4 74.2465 116.519C74.1344 116.638 73.9959 116.697 73.831 116.697ZM74.2663 117.578V123H73.3659V117.578H74.2663ZM78.2152 123.089C77.7073 123.089 77.2455 122.974 76.83 122.743C76.421 122.512 76.0978 122.185 75.8603 121.763C75.6294 121.334 75.514 120.84 75.514 120.279C75.514 119.725 75.6327 119.237 75.8702 118.815C76.1143 118.386 76.4441 118.059 76.8597 117.835C77.2752 117.604 77.7403 117.489 78.2548 117.489C78.7693 117.489 79.2344 117.604 79.6499 117.835C80.0655 118.059 80.392 118.383 80.6295 118.805C80.8736 119.227 80.9956 119.718 80.9956 120.279C80.9956 120.84 80.8703 121.334 80.6196 121.763C80.3755 122.185 80.0424 122.512 79.6203 122.743C79.1981 122.974 78.7297 123.089 78.2152 123.089ZM78.2152 122.297C78.5384 122.297 78.8419 122.222 79.1255 122.07C79.4092 121.918 79.6367 121.691 79.8082 121.387C79.9864 121.084 80.0754 120.714 80.0754 120.279C80.0754 119.844 79.9896 119.474 79.8181 119.171C79.6466 118.867 79.4224 118.643 79.1453 118.498C78.8683 118.346 78.5681 118.27 78.2449 118.27C77.9151 118.27 77.6116 118.346 77.3346 118.498C77.0641 118.643 76.8465 118.867 76.6815 119.171C76.5166 119.474 76.4342 119.844 76.4342 120.279C76.4342 120.721 76.5133 121.094 76.6717 121.397C76.8366 121.701 77.0542 121.928 77.3247 122.08C77.5952 122.225 77.892 122.297 78.2152 122.297ZM84.8708 117.479C85.5305 117.479 86.0648 117.68 86.4737 118.082C86.8827 118.478 87.0872 119.052 87.0872 119.804V123H86.1967V119.933C86.1967 119.392 86.0615 118.979 85.791 118.696C85.5206 118.406 85.1512 118.26 84.6828 118.26C84.2079 118.26 83.8286 118.409 83.5449 118.706C83.2679 119.003 83.1294 119.435 83.1294 120.002V123H82.2289V117.578H83.1294V118.35C83.3075 118.072 83.5482 117.858 83.8517 117.706C84.1617 117.555 84.5014 117.479 84.8708 117.479ZM92.1953 116.103V123H91.2949V116.103H92.1953ZM95.9265 116.103C96.6785 116.103 97.3282 116.245 97.8757 116.529C98.4298 116.806 98.852 117.205 99.1423 117.726C99.4391 118.247 99.5875 118.861 99.5875 119.567C99.5875 120.272 99.4391 120.886 99.1423 121.407C98.852 121.921 98.4298 122.317 97.8757 122.594C97.3282 122.865 96.6785 123 95.9265 123H93.7794V116.103H95.9265ZM95.9265 122.258C96.817 122.258 97.4965 122.024 97.9648 121.555C98.4331 121.08 98.6673 120.418 98.6673 119.567C98.6673 118.709 98.4298 118.039 97.9549 117.558C97.4866 117.076 96.8104 116.836 95.9265 116.836H94.6798V122.258H95.9265Z" fill="#858585"/>
<path d="M23.0911 133.722L19.8096 141.418H18.7236L22.0523 133.828H17.496V132.907H23.0911V133.722ZM25.8992 136.98C25.4586 136.807 25.1202 136.555 24.8841 136.224C24.648 135.894 24.53 135.492 24.53 135.02C24.53 134.595 24.6362 134.214 24.8487 133.875C25.0612 133.529 25.3759 133.257 25.793 133.061C26.218 132.856 26.7295 132.754 27.3275 132.754C27.9256 132.754 28.4332 132.856 28.8503 133.061C29.2752 133.257 29.5939 133.529 29.8064 133.875C30.0267 134.214 30.1369 134.595 30.1369 135.02C30.1369 135.477 30.0149 135.878 29.771 136.224C29.527 136.563 29.1926 136.814 28.7676 136.98C29.2555 137.129 29.6411 137.393 29.9244 137.771C30.2156 138.14 30.3612 138.589 30.3612 139.116C30.3612 139.628 30.2353 140.076 29.9834 140.462C29.7316 140.84 29.3736 141.135 28.9093 141.347C28.4529 141.552 27.9256 141.654 27.3275 141.654C26.7295 141.654 26.2022 141.552 25.7458 141.347C25.2972 141.135 24.9471 140.84 24.6952 140.462C24.4434 140.076 24.3175 139.628 24.3175 139.116C24.3175 138.589 24.4592 138.136 24.7425 137.759C25.0257 137.381 25.4113 137.121 25.8992 136.98ZM29.0981 135.15C29.0981 134.67 28.9408 134.3 28.626 134.04C28.3112 133.781 27.8784 133.651 27.3275 133.651C26.7845 133.651 26.3557 133.781 26.0409 134.04C25.7261 134.3 25.5687 134.674 25.5687 135.162C25.5687 135.603 25.7301 135.957 26.0527 136.224C26.3832 136.492 26.8082 136.626 27.3275 136.626C27.8548 136.626 28.2797 136.492 28.6024 136.224C28.9329 135.949 29.0981 135.591 29.0981 135.15ZM27.3275 137.452C26.7452 137.452 26.2691 137.59 25.8992 137.865C25.5294 138.133 25.3445 138.538 25.3445 139.081C25.3445 139.584 25.5215 139.99 25.8756 140.297C26.2376 140.603 26.7216 140.757 27.3275 140.757C27.9335 140.757 28.4135 140.603 28.7676 140.297C29.1217 139.99 29.2988 139.584 29.2988 139.081C29.2988 138.554 29.1178 138.152 28.7558 137.877C28.3938 137.593 27.9177 137.452 27.3275 137.452ZM33.2279 139.128C33.3066 139.577 33.4876 139.923 33.7709 140.167C34.062 140.411 34.4516 140.533 34.9395 140.533C35.5926 140.533 36.0727 140.277 36.3796 139.765C36.6943 139.254 36.8439 138.392 36.8281 137.18C36.6629 137.534 36.3874 137.814 36.0018 138.018C35.6162 138.215 35.1874 138.314 34.7152 138.314C34.1879 138.314 33.7158 138.207 33.2987 137.995C32.8895 137.774 32.5669 137.456 32.3308 137.039C32.0947 136.622 31.9767 136.118 31.9767 135.528C31.9767 134.686 32.2206 134.009 32.7085 133.497C33.1964 132.978 33.8889 132.718 34.786 132.718C35.8877 132.718 36.6589 133.076 37.0996 133.793C37.5482 134.509 37.7724 135.575 37.7724 136.991C37.7724 137.983 37.6819 138.801 37.5009 139.447C37.3278 140.092 37.0288 140.584 36.6038 140.922C36.1868 141.261 35.6123 141.43 34.8805 141.43C34.0778 141.43 33.4522 141.213 33.0036 140.781C32.5551 140.348 32.2993 139.797 32.2363 139.128H33.2279ZM34.8923 137.405C35.4195 137.405 35.8523 137.243 36.1907 136.921C36.5291 136.59 36.6983 136.146 36.6983 135.587C36.6983 134.997 36.533 134.52 36.2025 134.158C35.872 133.797 35.4077 133.616 34.8096 133.616C34.2588 133.616 33.8181 133.789 33.4876 134.135C33.1649 134.481 33.0036 134.938 33.0036 135.504C33.0036 136.079 33.1649 136.539 33.4876 136.885C33.8102 137.231 34.2784 137.405 34.8923 137.405ZM44.7826 133.816H40.6394V136.507C40.8204 136.256 41.088 136.051 41.4421 135.894C41.7962 135.728 42.1779 135.646 42.5871 135.646C43.2403 135.646 43.7714 135.784 44.1806 136.059C44.5898 136.326 44.881 136.677 45.0541 137.109C45.2351 137.534 45.3256 137.987 45.3256 138.467C45.3256 139.034 45.2194 139.541 45.0069 139.99C44.7945 140.438 44.4679 140.792 44.0272 141.052C43.5944 141.312 43.0553 141.442 42.41 141.442C41.5838 141.442 40.9149 141.229 40.4034 140.804C39.8918 140.379 39.581 139.813 39.4708 139.104H40.5214C40.6237 139.553 40.8401 139.903 41.1706 140.155C41.5011 140.407 41.9182 140.533 42.4218 140.533C43.0435 140.533 43.5117 140.348 43.8265 139.978C44.1413 139.6 44.2987 139.104 44.2987 138.491C44.2987 137.877 44.1413 137.405 43.8265 137.074C43.5117 136.736 43.0475 136.567 42.4336 136.567C42.0166 136.567 41.6506 136.669 41.3359 136.873C41.029 137.07 40.8047 137.342 40.663 137.688H39.6479V132.872H44.7826V133.816ZM46.5524 139.518V138.703L50.6956 132.966H51.9823V138.585H53.1627V139.518H51.9823V141.418H50.9199V139.518H46.5524ZM50.9671 134.088L47.7918 138.585H50.9671V134.088ZM54.0115 133.863V132.884H56.2306V141.418H55.1446V133.863H54.0115ZM58.0049 140.556C59.0043 139.754 59.7873 139.097 60.3539 138.585C60.9205 138.066 61.3966 137.527 61.7822 136.968C62.1757 136.401 62.3724 135.846 62.3724 135.303C62.3724 134.792 62.2465 134.391 61.9947 134.099C61.7507 133.8 61.3533 133.651 60.8025 133.651C60.2673 133.651 59.8503 133.82 59.5512 134.158C59.2601 134.489 59.1027 134.934 59.0791 135.492H58.0403C58.0718 134.611 58.3394 133.93 58.843 133.45C59.3466 132.97 59.9959 132.73 60.7907 132.73C61.6012 132.73 62.2426 132.954 62.7147 133.403C63.1947 133.852 63.4348 134.469 63.4348 135.256C63.4348 135.909 63.238 136.547 62.8446 137.169C62.459 137.782 62.0183 138.325 61.5225 138.797C61.0267 139.262 60.3933 139.805 59.6221 140.426H63.6826V141.324H58.0049V140.556ZM69.7404 134.914C69.5673 134.04 69.0282 133.604 68.1233 133.604C67.4229 133.604 66.8996 133.875 66.5533 134.418C66.2071 134.953 66.0379 135.839 66.0458 137.074C66.2268 136.665 66.5258 136.346 66.9429 136.118C67.3678 135.882 67.84 135.764 68.3593 135.764C69.1699 135.764 69.8152 136.016 70.2952 136.519C70.7831 137.023 71.0271 137.719 71.0271 138.609C71.0271 139.144 70.9208 139.624 70.7083 140.049C70.5037 140.474 70.189 140.812 69.764 141.064C69.347 141.316 68.8394 141.442 68.2413 141.442C67.4308 141.442 66.7973 141.261 66.3409 140.899C65.8844 140.537 65.5657 140.037 65.3847 139.399C65.2037 138.762 65.1132 137.975 65.1132 137.039C65.1132 134.151 66.1205 132.707 68.1351 132.707C68.9063 132.707 69.5122 132.915 69.9529 133.332C70.3936 133.749 70.6533 134.277 70.732 134.914H69.7404ZM68.1351 136.673C67.7967 136.673 67.478 136.744 67.1789 136.885C66.8799 137.019 66.636 137.228 66.4471 137.511C66.2661 137.786 66.1756 138.125 66.1756 138.526C66.1756 139.124 66.3487 139.612 66.695 139.99C67.0412 140.36 67.537 140.544 68.1823 140.544C68.7331 140.544 69.1699 140.375 69.4925 140.037C69.823 139.691 69.9883 139.226 69.9883 138.644C69.9883 138.03 69.8309 137.55 69.5161 137.204C69.2014 136.85 68.741 136.673 68.1351 136.673ZM77.9769 133.816H73.8336V136.507C74.0146 136.256 74.2822 136.051 74.6363 135.894C74.9904 135.728 75.3721 135.646 75.7813 135.646C76.4345 135.646 76.9656 135.784 77.3749 136.059C77.7841 136.326 78.0752 136.677 78.2484 137.109C78.4293 137.534 78.5198 137.987 78.5198 138.467C78.5198 139.034 78.4136 139.541 78.2011 139.99C77.9887 140.438 77.6621 140.792 77.2214 141.052C76.7886 141.312 76.2495 141.442 75.6042 141.442C74.778 141.442 74.1091 141.229 73.5976 140.804C73.0861 140.379 72.7752 139.813 72.665 139.104H73.7156C73.8179 139.553 74.0343 139.903 74.3648 140.155C74.6953 140.407 75.1124 140.533 75.6161 140.533C76.2377 140.533 76.706 140.348 77.0207 139.978C77.3355 139.6 77.4929 139.104 77.4929 138.491C77.4929 137.877 77.3355 137.405 77.0207 137.074C76.706 136.736 76.2417 136.567 75.6279 136.567C75.2108 136.567 74.8449 136.669 74.5301 136.873C74.2232 137.07 73.9989 137.342 73.8573 137.688H72.8421V132.872H77.9769V133.816ZM85.2591 133.722L81.9776 141.418H80.8916L84.2204 133.828H79.664V132.907H85.2591V133.722ZM88.0673 136.98C87.6266 136.807 87.2882 136.555 87.0521 136.224C86.816 135.894 86.698 135.492 86.698 135.02C86.698 134.595 86.8042 134.214 87.0167 133.875C87.2292 133.529 87.544 133.257 87.961 133.061C88.386 132.856 88.8975 132.754 89.4956 132.754C90.0936 132.754 90.6012 132.856 91.0183 133.061C91.4432 133.257 91.7619 133.529 91.9744 133.875C92.1947 134.214 92.3049 134.595 92.3049 135.02C92.3049 135.477 92.1829 135.878 91.939 136.224C91.695 136.563 91.3606 136.814 90.9357 136.98C91.4235 137.129 91.8091 137.393 92.0924 137.771C92.3836 138.14 92.5292 138.589 92.5292 139.116C92.5292 139.628 92.4033 140.076 92.1515 140.462C91.8996 140.84 91.5416 141.135 91.0773 141.347C90.6209 141.552 90.0936 141.654 89.4956 141.654C88.8975 141.654 88.3702 141.552 87.9138 141.347C87.4653 141.135 87.1151 140.84 86.8633 140.462C86.6114 140.076 86.4855 139.628 86.4855 139.116C86.4855 138.589 86.6272 138.136 86.9105 137.759C87.1938 137.381 87.5794 137.121 88.0673 136.98ZM91.2662 135.15C91.2662 134.67 91.1088 134.3 90.794 134.04C90.4792 133.781 90.0464 133.651 89.4956 133.651C88.9526 133.651 88.5237 133.781 88.2089 134.04C87.8941 134.3 87.7368 134.674 87.7368 135.162C87.7368 135.603 87.8981 135.957 88.2207 136.224C88.5512 136.492 88.9762 136.626 89.4956 136.626C90.0228 136.626 90.4478 136.492 90.7704 136.224C91.1009 135.949 91.2662 135.591 91.2662 135.15ZM89.4956 137.452C88.9132 137.452 88.4371 137.59 88.0673 137.865C87.6974 138.133 87.5125 138.538 87.5125 139.081C87.5125 139.584 87.6895 139.99 88.0437 140.297C88.4057 140.603 88.8896 140.757 89.4956 140.757C90.1015 140.757 90.5815 140.603 90.9357 140.297C91.2898 139.99 91.4668 139.584 91.4668 139.081C91.4668 138.554 91.2858 138.152 90.9238 137.877C90.5619 137.593 90.0858 137.452 89.4956 137.452Z" fill="black"/>
<rect x="11.9929" y="127.558" width="86.7993" height="18.7353" stroke="#FF0808" stroke-width="1.1167"/>
<rect y="87" width="220" height="1" fill="#D9D9D9"/>
<path d="M53.9257 42.2944C53.9257 43.0833 53.6537 43.7407 53.1096 44.2666C52.5746 44.7835 51.754 45.0419 50.6477 45.0419H48.8251V49H47.5874V39.5196H50.6477C51.7177 39.5196 52.5293 39.7781 53.0824 40.2949C53.6446 40.8118 53.9257 41.4783 53.9257 42.2944ZM50.6477 44.0218C51.3369 44.0218 51.8447 43.8722 52.1711 43.5729C52.4976 43.2737 52.6608 42.8475 52.6608 42.2944C52.6608 41.1246 51.9898 40.5398 50.6477 40.5398H48.8251V44.0218H50.6477ZM55.0697 45.2459C55.0697 44.4842 55.2238 43.8178 55.5321 43.2465C55.8404 42.6662 56.2621 42.2173 56.7971 41.8999C57.3411 41.5826 57.9442 41.4239 58.6061 41.4239C59.259 41.4239 59.8257 41.5644 60.3063 41.8455C60.7869 42.1266 61.1451 42.4803 61.3808 42.9065V41.5463H62.6322V49H61.3808V47.6126C61.136 48.0479 60.7688 48.4106 60.2791 48.7008C59.7985 48.9819 59.2363 49.1224 58.5925 49.1224C57.9306 49.1224 57.3321 48.9592 56.7971 48.6328C56.2621 48.3063 55.8404 47.8484 55.5321 47.259C55.2238 46.6696 55.0697 45.9986 55.0697 45.2459ZM61.3808 45.2595C61.3808 44.6973 61.2675 44.2077 61.0408 43.7906C60.8141 43.3734 60.5058 43.0561 60.1159 42.8384C59.735 42.6117 59.3134 42.4984 58.8509 42.4984C58.3885 42.4984 57.9668 42.6072 57.586 42.8248C57.2051 43.0425 56.9014 43.3598 56.6747 43.777C56.448 44.1941 56.3346 44.6837 56.3346 45.2459C56.3346 45.8172 56.448 46.3159 56.6747 46.7421C56.9014 47.1592 57.2051 47.4811 57.586 47.7078C57.9668 47.9255 58.3885 48.0343 58.8509 48.0343C59.3134 48.0343 59.735 47.9255 60.1159 47.7078C60.5058 47.4811 60.8141 47.1592 61.0408 46.7421C61.2675 46.3159 61.3808 45.8217 61.3808 45.2595ZM65.4312 40.3357C65.1954 40.3357 64.9959 40.2541 64.8327 40.0909C64.6695 39.9277 64.5879 39.7282 64.5879 39.4924C64.5879 39.2567 64.6695 39.0572 64.8327 38.894C64.9959 38.7307 65.1954 38.6491 65.4312 38.6491C65.6579 38.6491 65.8483 38.7307 66.0024 38.894C66.1657 39.0572 66.2473 39.2567 66.2473 39.4924C66.2473 39.7282 66.1657 39.9277 66.0024 40.0909C65.8483 40.2541 65.6579 40.3357 65.4312 40.3357ZM66.0296 41.5463V49H64.7919V41.5463H66.0296ZM67.7447 45.2459C67.7447 44.4842 67.8989 43.8178 68.2072 43.2465C68.5155 42.6662 68.9371 42.2173 69.4721 41.8999C70.0162 41.5826 70.6237 41.4239 71.2948 41.4239C71.8751 41.4239 72.4146 41.5599 72.9134 41.8319C73.4121 42.0949 73.7929 42.444 74.0559 42.8792V38.9348H75.3073V49H74.0559V47.599C73.8111 48.0433 73.4484 48.4106 72.9678 48.7008C72.4872 48.9819 71.925 49.1224 71.2812 49.1224C70.6192 49.1224 70.0162 48.9592 69.4721 48.6328C68.9371 48.3063 68.5155 47.8484 68.2072 47.259C67.8989 46.6696 67.7447 45.9986 67.7447 45.2459ZM74.0559 45.2595C74.0559 44.6973 73.9426 44.2077 73.7159 43.7906C73.4892 43.3734 73.1809 43.0561 72.7909 42.8384C72.4101 42.6117 71.9884 42.4984 71.526 42.4984C71.0635 42.4984 70.6419 42.6072 70.261 42.8248C69.8802 43.0425 69.5764 43.3598 69.3497 43.777C69.123 44.1941 69.0097 44.6837 69.0097 45.2459C69.0097 45.8172 69.123 46.3159 69.3497 46.7421C69.5764 47.1592 69.8802 47.4811 70.261 47.7078C70.6419 47.9255 71.0635 48.0343 71.526 48.0343C71.9884 48.0343 72.4101 47.9255 72.7909 47.7078C73.1809 47.4811 73.4892 47.1592 73.7159 46.7421C73.9426 46.3159 74.0559 45.8217 74.0559 45.2595ZM83.7591 49L81.1884 44.5114V43.913H81.4876C81.9682 43.913 82.3717 43.8676 82.6982 43.777C83.0337 43.6863 83.2966 43.5367 83.4871 43.3281C83.6775 43.1195 83.7908 42.8339 83.8271 42.4712H81.1884V41.6007H83.8135C83.75 41.2652 83.6231 40.9932 83.4327 40.7846C83.2422 40.567 82.9838 40.4083 82.6574 40.3085C82.34 40.2088 81.9501 40.1589 81.4876 40.1589H81.1884V39.2884H86.8195V40.1589H84.2488C84.4573 40.3312 84.6296 40.5352 84.7656 40.771C84.9016 41.0068 84.9878 41.2833 85.024 41.6007H86.8195V42.4712H85.0513C84.9878 43.1331 84.7339 43.65 84.2896 44.0218C83.8543 44.3845 83.274 44.6157 82.5485 44.7155L85.1465 49H83.7591ZM95.0793 40.2405H90.3051V43.3417C90.5137 43.0515 90.822 42.8158 91.23 42.6344C91.6381 42.444 92.0779 42.3488 92.5494 42.3488C93.302 42.3488 93.9141 42.5075 94.3856 42.8248C94.8571 43.1331 95.1926 43.5367 95.3921 44.0354C95.6007 44.5251 95.705 45.0464 95.705 45.5996C95.705 46.2525 95.5826 46.8373 95.3377 47.3542C95.0929 47.8711 94.7166 48.2791 94.2088 48.5783C93.7101 48.8776 93.0889 49.0272 92.3454 49.0272C91.3932 49.0272 90.6225 48.7824 90.0331 48.2927C89.4437 47.8031 89.0855 47.1502 88.9585 46.3341H90.1691C90.287 46.8509 90.5363 47.2545 90.9172 47.5446C91.298 47.8348 91.7786 47.9799 92.359 47.9799C93.0753 47.9799 93.6148 47.7668 93.9776 47.3406C94.3403 46.9053 94.5216 46.3341 94.5216 45.6268C94.5216 44.9195 94.3403 44.3754 93.9776 43.9946C93.6148 43.6047 93.0798 43.4097 92.3726 43.4097C91.892 43.4097 91.4703 43.5276 91.1076 43.7634C90.754 43.9901 90.4955 44.3029 90.3323 44.7019H89.1626V39.1524H95.0793V40.2405ZM97.4178 43.981C97.4178 42.4213 97.6717 41.2062 98.1795 40.3357C98.6873 39.4562 99.576 39.0164 100.845 39.0164C102.106 39.0164 102.99 39.4562 103.498 40.3357C104.006 41.2062 104.259 42.4213 104.259 43.981C104.259 45.5678 104.006 46.8011 103.498 47.6806C102.99 48.5602 102.106 49 100.845 49C99.576 49 98.6873 48.5602 98.1795 47.6806C97.6717 46.8011 97.4178 45.5678 97.4178 43.981ZM103.035 43.981C103.035 43.1921 102.981 42.5256 102.872 41.9815C102.772 41.4284 102.559 40.9841 102.233 40.6486C101.915 40.3131 101.453 40.1453 100.845 40.1453C100.229 40.1453 99.7573 40.3131 99.4309 40.6486C99.1135 40.9841 98.9004 41.4284 98.7916 41.9815C98.6919 42.5256 98.642 43.1921 98.642 43.981C98.642 44.7971 98.6919 45.4817 98.7916 46.0348C98.9004 46.588 99.1135 47.0323 99.4309 47.3678C99.7573 47.7033 100.229 47.8711 100.845 47.8711C101.453 47.8711 101.915 47.7033 102.233 47.3678C102.559 47.0323 102.772 46.588 102.872 46.0348C102.981 45.4817 103.035 44.7971 103.035 43.981ZM106.027 43.981C106.027 42.4213 106.281 41.2062 106.788 40.3357C107.296 39.4562 108.185 39.0164 109.454 39.0164C110.715 39.0164 111.599 39.4562 112.107 40.3357C112.614 41.2062 112.868 42.4213 112.868 43.981C112.868 45.5678 112.614 46.8011 112.107 47.6806C111.599 48.5602 110.715 49 109.454 49C108.185 49 107.296 48.5602 106.788 47.6806C106.281 46.8011 106.027 45.5678 106.027 43.981ZM111.644 43.981C111.644 43.1921 111.59 42.5256 111.481 41.9815C111.381 41.4284 111.168 40.9841 110.842 40.6486C110.524 40.3131 110.062 40.1453 109.454 40.1453C108.838 40.1453 108.366 40.3131 108.04 40.6486C107.722 40.9841 107.509 41.4284 107.4 41.9815C107.301 42.5256 107.251 43.1921 107.251 43.981C107.251 44.7971 107.301 45.4817 107.4 46.0348C107.509 46.588 107.722 47.0323 108.04 47.3678C108.366 47.7033 108.838 47.8711 109.454 47.8711C110.062 47.8711 110.524 47.7033 110.842 47.3678C111.168 47.0323 111.381 46.588 111.481 46.0348C111.59 45.4817 111.644 44.7971 111.644 43.981ZM114.636 43.981C114.636 42.4213 114.89 41.2062 115.397 40.3357C115.905 39.4562 116.794 39.0164 118.063 39.0164C119.324 39.0164 120.208 39.4562 120.716 40.3357C121.223 41.2062 121.477 42.4213 121.477 43.981C121.477 45.5678 121.223 46.8011 120.716 47.6806C120.208 48.5602 119.324 49 118.063 49C116.794 49 115.905 48.5602 115.397 47.6806C114.89 46.8011 114.636 45.5678 114.636 43.981ZM120.253 43.981C120.253 43.1921 120.199 42.5256 120.09 41.9815C119.99 41.4284 119.777 40.9841 119.451 40.6486C119.133 40.3131 118.671 40.1453 118.063 40.1453C117.447 40.1453 116.975 40.3131 116.649 40.6486C116.331 40.9841 116.118 41.4284 116.009 41.9815C115.91 42.5256 115.86 43.1921 115.86 43.981C115.86 44.7971 115.91 45.4817 116.009 46.0348C116.118 46.588 116.331 47.0323 116.649 47.3678C116.975 47.7033 117.447 47.8711 118.063 47.8711C118.671 47.8711 119.133 47.7033 119.451 47.3678C119.777 47.0323 119.99 46.588 120.09 46.0348C120.199 45.4817 120.253 44.7971 120.253 43.981Z" fill="black"/>
<path d="M51.3782 52.2887V52.9963H49.5615V58.9531H48.6914V52.9963H46.8651V52.2887H51.3782ZM54.7823 59.0392C54.2914 59.0392 53.8452 58.9276 53.4436 58.7045C53.0484 58.4814 52.7361 58.1659 52.5066 57.7579C52.2835 57.3436 52.172 56.8655 52.172 56.3237C52.172 55.7882 52.2867 55.3165 52.5162 54.9086C52.752 54.4942 53.0707 54.1787 53.4723 53.962C53.8739 53.7389 54.3233 53.6273 54.8205 53.6273C55.3177 53.6273 55.7671 53.7389 56.1687 53.962C56.5703 54.1787 56.8858 54.4911 57.1153 54.899C57.3511 55.307 57.4691 55.7819 57.4691 56.3237C57.4691 56.8655 57.3479 57.3436 57.1057 57.7579C56.8699 58.1659 56.548 58.4814 56.14 58.7045C55.732 58.9276 55.2795 59.0392 54.7823 59.0392ZM54.7823 58.2743C55.0946 58.2743 55.3878 58.2009 55.6619 58.0543C55.936 57.9077 56.1559 57.6878 56.3217 57.3946C56.4938 57.1014 56.5798 56.7444 56.5798 56.3237C56.5798 55.903 56.497 55.546 56.3312 55.2528C56.1655 54.9596 55.9488 54.7428 55.681 54.6026C55.4133 54.456 55.1233 54.3827 54.8109 54.3827C54.4922 54.3827 54.199 54.456 53.9313 54.6026C53.6699 54.7428 53.4596 54.9596 53.3002 55.2528C53.1409 55.546 53.0612 55.903 53.0612 56.3237C53.0612 56.7508 53.1377 57.1109 53.2907 57.4042C53.45 57.6974 53.6604 57.9173 53.9217 58.0639C54.1831 58.2041 54.4699 58.2743 54.7823 58.2743ZM58.3358 56.3141C58.3358 55.7787 58.4442 55.3102 58.6609 54.9086C58.8776 54.5006 59.174 54.1851 59.5501 53.962C59.9326 53.7389 60.3597 53.6273 60.8314 53.6273C61.2393 53.6273 61.6186 53.7229 61.9692 53.9142C62.3198 54.099 62.5875 54.3444 62.7724 54.6504V51.8776H63.652V58.9531H62.7724V57.9683C62.6003 58.2806 62.3453 58.5388 62.0074 58.7428C61.6696 58.9404 61.2744 59.0392 60.8218 59.0392C60.3565 59.0392 59.9326 58.9244 59.5501 58.695C59.174 58.4655 58.8776 58.1436 58.6609 57.7292C58.4442 57.3149 58.3358 56.8432 58.3358 56.3141ZM62.7724 56.3237C62.7724 55.9285 62.6927 55.5843 62.5333 55.291C62.374 54.9978 62.1572 54.7747 61.8831 54.6217C61.6154 54.4624 61.319 54.3827 60.9939 54.3827C60.6688 54.3827 60.3724 54.4592 60.1047 54.6122C59.837 54.7652 59.6234 54.9883 59.4641 55.2815C59.3047 55.5747 59.225 55.9189 59.225 56.3141C59.225 56.7157 59.3047 57.0663 59.4641 57.3659C59.6234 57.6591 59.837 57.8854 60.1047 58.0448C60.3724 58.1978 60.6688 58.2743 60.9939 58.2743C61.319 58.2743 61.6154 58.1978 61.8831 58.0448C62.1572 57.8854 62.374 57.6591 62.5333 57.3659C62.6927 57.0663 62.7724 56.7189 62.7724 56.3237ZM64.8451 56.3141C64.8451 55.7787 64.9535 55.3102 65.1702 54.9086C65.387 54.5006 65.6834 54.1851 66.0595 53.962C66.4419 53.7389 66.8658 53.6273 67.3312 53.6273C67.7901 53.6273 68.1885 53.7261 68.5263 53.9237C68.8642 54.1213 69.116 54.3699 69.2817 54.6695V53.7134H70.1614V58.9531H69.2817V57.9778C69.1096 58.2838 68.8514 58.5388 68.5072 58.7428C68.1694 58.9404 67.7742 59.0392 67.3216 59.0392C66.8563 59.0392 66.4355 58.9244 66.0595 58.695C65.6834 58.4655 65.387 58.1436 65.1702 57.7292C64.9535 57.3149 64.8451 56.8432 64.8451 56.3141ZM69.2817 56.3237C69.2817 55.9285 69.202 55.5843 69.0427 55.291C68.8833 54.9978 68.6666 54.7747 68.3925 54.6217C68.1248 54.4624 67.8284 54.3827 67.5033 54.3827C67.1782 54.3827 66.8818 54.4592 66.614 54.6122C66.3463 54.7652 66.1328 54.9883 65.9734 55.2815C65.814 55.5747 65.7344 55.9189 65.7344 56.3141C65.7344 56.7157 65.814 57.0663 65.9734 57.3659C66.1328 57.6591 66.3463 57.8854 66.614 58.0448C66.8818 58.1978 67.1782 58.2743 67.5033 58.2743C67.8284 58.2743 68.1248 58.1978 68.3925 58.0448C68.6666 57.8854 68.8833 57.6591 69.0427 57.3659C69.202 57.0663 69.2817 56.7189 69.2817 56.3237ZM76.1926 53.7134L73.0373 61.42H72.1385L73.1712 58.8958L71.0581 53.7134H72.0238L73.6684 57.9587L75.2938 53.7134H76.1926ZM80.9359 56.9356C80.6108 56.9356 80.3335 56.8241 80.1041 56.601C79.881 56.3715 79.7694 56.0942 79.7694 55.7691C79.7694 55.4377 79.881 55.1604 80.1041 54.9373C80.3335 54.7078 80.6108 54.593 80.9359 54.593C81.2674 54.593 81.5479 54.7078 81.7773 54.9373C82.0068 55.1604 82.1216 55.4377 82.1216 55.7691C82.1216 56.0942 82.0068 56.3715 81.7773 56.601C81.5479 56.8241 81.2674 56.9356 80.9359 56.9356ZM87.2725 57.0982C87.3362 57.4615 87.4828 57.742 87.7123 57.9396C87.9482 58.1372 88.2637 58.236 88.6589 58.236C89.188 58.236 89.5768 58.0288 89.8254 57.6145C90.0804 57.2002 90.2015 56.5022 90.1888 55.5205C90.0549 55.8074 89.8318 56.0337 89.5194 56.1994C89.2071 56.3588 88.8597 56.4384 88.4772 56.4384C88.0502 56.4384 87.6677 56.3524 87.3298 56.1803C86.9984 56.0018 86.737 55.7436 86.5458 55.4058C86.3546 55.0679 86.2589 54.66 86.2589 54.1819C86.2589 53.4998 86.4566 52.9516 86.8518 52.5373C87.247 52.1166 87.8079 51.9062 88.5346 51.9062C89.427 51.9062 90.0517 52.1963 90.4087 52.7764C90.772 53.3564 90.9537 54.2201 90.9537 55.3675C90.9537 56.1707 90.8804 56.8336 90.7338 57.3563C90.5935 57.879 90.3513 58.2774 90.0071 58.5515C89.6692 58.8256 89.2039 58.9627 88.6111 58.9627C87.9609 58.9627 87.4541 58.7874 87.0908 58.4368C86.7275 58.0862 86.5203 57.64 86.4693 57.0982H87.2725ZM88.6207 55.7022C89.0477 55.7022 89.3983 55.5715 89.6724 55.3102C89.9465 55.0424 90.0836 54.6823 90.0836 54.2297C90.0836 53.7516 89.9497 53.366 89.682 53.0728C89.4143 52.7795 89.0382 52.6329 88.5537 52.6329C88.1075 52.6329 87.7506 52.7732 87.4828 53.0536C87.2215 53.3341 87.0908 53.7038 87.0908 54.1628C87.0908 54.6281 87.2215 55.001 87.4828 55.2815C87.7442 55.562 88.1235 55.7022 88.6207 55.7022ZM92.645 59.0105C92.4792 59.0105 92.339 58.9531 92.2242 58.8384C92.1095 58.7236 92.0521 58.5834 92.0521 58.4177C92.0521 58.2519 92.1095 58.1117 92.2242 57.997C92.339 57.8822 92.4792 57.8249 92.645 57.8249C92.8043 57.8249 92.9382 57.8822 93.0465 57.997C93.1613 58.1117 93.2187 58.2519 93.2187 58.4177C93.2187 58.5834 93.1613 58.7236 93.0465 58.8384C92.9382 58.9531 92.8043 59.0105 92.645 59.0105ZM92.645 54.9181C92.4792 54.9181 92.339 54.8608 92.2242 54.746C92.1095 54.6313 92.0521 54.4911 92.0521 54.3253C92.0521 54.1596 92.1095 54.0194 92.2242 53.9046C92.339 53.7899 92.4792 53.7325 92.645 53.7325C92.8043 53.7325 92.9382 53.7899 93.0465 53.9046C93.1613 54.0194 93.2187 54.1596 93.2187 54.3253C93.2187 54.4911 93.1613 54.6313 93.0465 54.746C92.9382 54.8608 92.8043 54.9181 92.645 54.9181ZM94.0973 57.4137V56.754L97.4534 52.107H98.4956V56.6583H99.4518V57.4137H98.4956V58.9531H97.6351V57.4137H94.0973ZM97.6733 53.0154L95.1012 56.6583H97.6733V53.0154ZM104.624 52.719L101.966 58.9531H101.086L103.782 52.805H100.091V52.0592H104.624V52.719ZM112.316 57.4711H109.409L108.874 58.9531H107.956L110.365 52.327H111.369L113.769 58.9531H112.851L112.316 57.4711ZM112.067 56.7635L110.863 53.3979L109.658 56.7635H112.067ZM121.627 52.3365V58.9531H120.757V54.0194L118.558 58.9531H117.946L115.737 54.0098V58.9531H114.867V52.3365H115.804L118.252 57.8057L120.7 52.3365H121.627Z" fill="#858585"/>
<path fill-rule="evenodd" clip-rule="evenodd" d="M24.858 62.7922C32.5116 62.7922 38.716 56.5878 38.716 48.9342C38.716 41.2806 32.5116 35.0762 24.858 35.0762C17.2044 35.0762 11 41.2806 11 48.9342C11 56.5878 17.2044 62.7922 24.858 62.7922ZM32.0144 42.8516C32.3515 42.5145 32.898 42.5145 33.2351 42.8516C33.5721 43.1887 33.5722 43.7352 33.2351 44.0723L22.2836 55.0237C21.9467 55.3606 21.3999 55.3608 21.0629 55.0237L16.4776 50.4385C16.1405 50.1014 16.1405 49.5549 16.4776 49.2178C16.8147 48.8808 17.3612 48.8807 17.6983 49.2178L21.6732 53.1928L32.0144 42.8516Z" fill="#39846F"/>
<path d="M203.187 46H197.187L203.187 52L209.187 46H203.187Z" fill="black"/>
</svg>
