<svg width="220" height="180" viewBox="0 0 220 180" fill="none" xmlns="http://www.w3.org/2000/svg">
<g clip-path="url(#clip0_5244_105091)">
<rect width="220" height="180" fill="#F7F5F7"/>
<mask id="path-1-outside-1_5244_105091" maskUnits="userSpaceOnUse" x="-1" y="127" width="222" height="60" fill="black">
<rect fill="white" x="-1" y="127" width="222" height="60"/>
<path fill-rule="evenodd" clip-rule="evenodd" d="M110 164C129.882 164 146 147.882 146 128H220V186H0V128H74C74 147.882 90.1178 164 110 164Z"/>
</mask>
<path fill-rule="evenodd" clip-rule="evenodd" d="M110 164C129.882 164 146 147.882 146 128H220V186H0V128H74C74 147.882 90.1178 164 110 164Z" fill="white"/>
<path d="M146 128V127.75H145.75V128H146ZM220 128H220.25V127.75H220V128ZM220 186V186.25H220.25V186H220ZM0 186H-0.25V186.25H0V186ZM0 128V127.75H-0.25V128H0ZM74 128H74.25V127.75H74V128ZM145.75 128C145.75 128.786 145.725 129.567 145.675 130.341L146.174 130.373C146.224 129.588 146.25 128.797 146.25 128H145.75ZM145.07 134.977C144.764 136.522 144.359 138.03 143.862 139.496L144.335 139.656C144.84 138.17 145.25 136.64 145.56 135.074L145.07 134.977ZM142.071 143.815C141.377 145.219 140.594 146.571 139.729 147.863L140.144 148.141C141.021 146.831 141.815 145.46 142.519 144.037L142.071 143.815ZM136.879 151.572C135.849 152.745 134.745 153.849 133.572 154.879L133.902 155.255C135.091 154.211 136.211 153.091 137.255 151.902L136.879 151.572ZM129.863 157.729C128.571 158.594 127.219 159.377 125.815 160.071L126.037 160.519C127.46 159.815 128.831 159.021 130.141 158.144L129.863 157.729ZM121.496 161.862C120.03 162.359 118.522 162.764 116.977 163.07L117.074 163.56C118.64 163.25 120.17 162.84 121.656 162.335L121.496 161.862ZM112.341 163.675C111.567 163.725 110.786 163.75 110 163.75V164.25C110.797 164.25 111.588 164.224 112.373 164.174L112.341 163.675ZM110 163.75C109.214 163.75 108.433 163.725 107.659 163.675L107.627 164.174C108.412 164.224 109.203 164.25 110 164.25V163.75ZM103.023 163.07C101.478 162.764 99.97 162.359 98.5043 161.862L98.3436 162.335C99.83 162.84 101.36 163.25 102.926 163.56L103.023 163.07ZM94.1849 160.071C92.781 159.377 91.4292 158.594 90.1369 157.729L89.8588 158.144C91.1691 159.021 92.5398 159.815 93.9634 160.519L94.1849 160.071ZM86.4283 154.879C85.2555 153.849 84.1506 152.745 83.1212 151.572L82.7454 151.902C83.7891 153.091 84.9093 154.211 86.0985 155.255L86.4283 154.879ZM80.2714 147.863C79.4062 146.571 78.6231 145.219 77.9295 143.815L77.4812 144.037C78.1846 145.46 78.9787 146.831 79.8559 148.141L80.2714 147.863ZM76.1384 139.496C75.6409 138.03 75.236 136.522 74.9305 134.977L74.44 135.074C74.7498 136.64 75.1604 138.17 75.6649 139.656L76.1384 139.496ZM74.3254 130.341C74.2754 129.567 74.25 128.786 74.25 128H73.75C73.75 128.797 73.7757 129.588 73.8264 130.373L74.3254 130.341ZM74 127.75H71.3571V128.25H74V127.75ZM66.0714 127.75H60.7857V128.25H66.0714V127.75ZM55.5 127.75H50.2143V128.25H55.5V127.75ZM44.9286 127.75H39.6429V128.25H44.9286V127.75ZM34.3571 127.75H29.0714V128.25H34.3571V127.75ZM23.7857 127.75H18.5V128.25H23.7857V127.75ZM13.2143 127.75H7.92858V128.25H13.2143V127.75ZM2.64287 127.75H0V128.25H2.64287V127.75ZM-0.25 128V130.417H0.25V128H-0.25ZM-0.25 135.25V140.083H0.25V135.25H-0.25ZM-0.25 144.917V149.75H0.25V144.917H-0.25ZM-0.25 154.583V159.417H0.25V154.583H-0.25ZM-0.25 164.25V169.083H0.25V164.25H-0.25ZM-0.25 173.917V178.75H0.25V173.917H-0.25ZM-0.25 183.583V186H0.25V183.583H-0.25ZM0 186.25H2.5V185.75H0V186.25ZM7.5 186.25H12.5V185.75H7.5V186.25ZM17.5 186.25H22.5V185.75H17.5V186.25ZM27.5 186.25H32.5V185.75H27.5V186.25ZM37.5 186.25H42.5V185.75H37.5V186.25ZM47.5 186.25H52.5V185.75H47.5V186.25ZM57.5 186.25H62.5V185.75H57.5V186.25ZM67.5 186.25H72.5V185.75H67.5V186.25ZM77.5 186.25H82.5V185.75H77.5V186.25ZM87.5 186.25H92.5V185.75H87.5V186.25ZM97.5 186.25H102.5V185.75H97.5V186.25ZM107.5 186.25H112.5V185.75H107.5V186.25ZM117.5 186.25H122.5V185.75H117.5V186.25ZM127.5 186.25H132.5V185.75H127.5V186.25ZM137.5 186.25H142.5V185.75H137.5V186.25ZM147.5 186.25H152.5V185.75H147.5V186.25ZM157.5 186.25H162.5V185.75H157.5V186.25ZM167.5 186.25H172.5V185.75H167.5V186.25ZM177.5 186.25H182.5V185.75H177.5V186.25ZM187.5 186.25H192.5V185.75H187.5V186.25ZM197.5 186.25H202.5V185.75H197.5V186.25ZM207.5 186.25H212.5V185.75H207.5V186.25ZM217.5 186.25H220V185.75H217.5V186.25ZM220.25 186V183.583H219.75V186H220.25ZM220.25 178.75V173.917H219.75V178.75H220.25ZM220.25 169.083V164.25H219.75V169.083H220.25ZM220.25 159.417V154.583H219.75V159.417H220.25ZM220.25 149.75V144.917H219.75V149.75H220.25ZM220.25 140.083V135.25H219.75V140.083H220.25ZM220.25 130.417V128H219.75V130.417H220.25ZM220 127.75H217.357V128.25H220V127.75ZM212.071 127.75H206.786V128.25H212.071V127.75ZM201.5 127.75H196.214V128.25H201.5V127.75ZM190.929 127.75H185.643V128.25H190.929V127.75ZM180.357 127.75H175.071V128.25H180.357V127.75ZM169.786 127.75H164.5V128.25H169.786V127.75ZM159.214 127.75H153.929V128.25H159.214V127.75ZM148.643 127.75H146V128.25H148.643V127.75ZM146 128V127.5H145.5V128H146ZM220 128H220.5V127.5H220V128ZM220 186V186.5H220.5V186H220ZM0 186H-0.5V186.5H0V186ZM0 128V127.5H-0.5V128H0ZM74 128H74.5V127.5H74V128ZM145.5 128C145.5 128.781 145.475 129.556 145.425 130.325L146.423 130.389C146.474 129.599 146.5 128.803 146.5 128H145.5ZM144.824 134.929C144.521 136.462 144.119 137.96 143.625 139.415L144.572 139.737C145.08 138.24 145.493 136.7 145.805 135.123L144.824 134.929ZM141.846 143.704C141.158 145.098 140.38 146.441 139.521 147.724L140.352 148.28C141.235 146.961 142.035 145.581 142.743 144.147L141.846 143.704ZM136.691 151.407C135.669 152.571 134.571 153.669 133.407 154.691L134.066 155.442C135.264 154.392 136.392 153.264 137.443 152.066L136.691 151.407ZM129.724 157.521C128.441 158.38 127.098 159.158 125.704 159.846L126.147 160.743C127.581 160.035 128.961 159.235 130.28 158.352L129.724 157.521ZM121.415 161.625C119.96 162.119 118.462 162.521 116.929 162.824L117.123 163.805C118.7 163.493 120.24 163.08 121.737 162.572L121.415 161.625ZM112.325 163.425C111.556 163.475 110.781 163.5 110 163.5V164.5C110.803 164.5 111.599 164.474 112.389 164.423L112.325 163.425ZM110 163.5C109.219 163.5 108.444 163.475 107.675 163.425L107.611 164.423C108.401 164.474 109.197 164.5 110 164.5V163.5ZM103.071 162.824C101.538 162.521 100.04 162.119 98.5846 161.625L98.2633 162.572C99.76 163.08 101.3 163.493 102.877 163.805L103.071 162.824ZM94.2956 159.846C92.9016 159.158 91.5593 158.38 90.276 157.521L89.7197 158.352C91.039 159.235 92.4192 160.035 93.8527 160.743L94.2956 159.846ZM86.5932 154.691C85.4285 153.669 84.3313 152.571 83.3091 151.407L82.5575 152.066C83.6083 153.264 84.7363 154.392 85.9336 155.443L86.5932 154.691ZM80.4791 147.724C79.62 146.441 78.8424 145.098 78.1536 143.704L77.2571 144.147C77.9653 145.581 78.7649 146.961 79.6482 148.28L80.4791 147.724ZM76.3751 139.415C75.8812 137.96 75.4791 136.462 75.1757 134.929L74.1947 135.123C74.5067 136.7 74.9202 138.24 75.4281 139.737L76.3751 139.415ZM74.5749 130.325C74.5252 129.556 74.5 128.781 74.5 128H73.5C73.5 128.803 73.5259 129.599 73.577 130.389L74.5749 130.325ZM74 127.5H71.3571V128.5H74V127.5ZM66.0714 127.5H60.7857V128.5H66.0714V127.5ZM55.5 127.5H50.2143V128.5H55.5V127.5ZM44.9286 127.5H39.6429V128.5H44.9286V127.5ZM34.3571 127.5H29.0714V128.5H34.3571V127.5ZM23.7857 127.5H18.5V128.5H23.7857V127.5ZM13.2143 127.5H7.92858V128.5H13.2143V127.5ZM2.64287 127.5H0V128.5H2.64287V127.5ZM-0.5 128V130.417H0.5V128H-0.5ZM-0.5 135.25V140.083H0.5V135.25H-0.5ZM-0.5 144.917V149.75H0.5V144.917H-0.5ZM-0.5 154.583V159.417H0.5V154.583H-0.5ZM-0.5 164.25V169.083H0.5V164.25H-0.5ZM-0.5 173.917V178.75H0.5V173.917H-0.5ZM-0.5 183.583V186H0.5V183.583H-0.5ZM0 186.5H2.5V185.5H0V186.5ZM7.5 186.5H12.5V185.5H7.5V186.5ZM17.5 186.5H22.5V185.5H17.5V186.5ZM27.5 186.5H32.5V185.5H27.5V186.5ZM37.5 186.5H42.5V185.5H37.5V186.5ZM47.5 186.5H52.5V185.5H47.5V186.5ZM57.5 186.5H62.5V185.5H57.5V186.5ZM67.5 186.5H72.5V185.5H67.5V186.5ZM77.5 186.5H82.5V185.5H77.5V186.5ZM87.5 186.5H92.5V185.5H87.5V186.5ZM97.5 186.5H102.5V185.5H97.5V186.5ZM107.5 186.5H112.5V185.5H107.5V186.5ZM117.5 186.5H122.5V185.5H117.5V186.5ZM127.5 186.5H132.5V185.5H127.5V186.5ZM137.5 186.5H142.5V185.5H137.5V186.5ZM147.5 186.5H152.5V185.5H147.5V186.5ZM157.5 186.5H162.5V185.5H157.5V186.5ZM167.5 186.5H172.5V185.5H167.5V186.5ZM177.5 186.5H182.5V185.5H177.5V186.5ZM187.5 186.5H192.5V185.5H187.5V186.5ZM197.5 186.5H202.5V185.5H197.5V186.5ZM207.5 186.5H212.5V185.5H207.5V186.5ZM217.5 186.5H220V185.5H217.5V186.5ZM220.5 186V183.583H219.5V186H220.5ZM220.5 178.75V173.917H219.5V178.75H220.5ZM220.5 169.083V164.25H219.5V169.083H220.5ZM220.5 159.417V154.583H219.5V159.417H220.5ZM220.5 149.75V144.917H219.5V149.75H220.5ZM220.5 140.083V135.25H219.5V140.083H220.5ZM220.5 130.417V128H219.5V130.417H220.5ZM220 127.5H217.357V128.5H220V127.5ZM212.071 127.5H206.786V128.5H212.071V127.5ZM201.5 127.5H196.214V128.5H201.5V127.5ZM190.929 127.5H185.643V128.5H190.929V127.5ZM180.357 127.5H175.071V128.5H180.357V127.5ZM169.786 127.5H164.5V128.5H169.786V127.5ZM159.214 127.5H153.929V128.5H159.214V127.5ZM148.643 127.5H146V128.5H148.643V127.5Z" fill="#858585" mask="url(#path-1-outside-1_5244_105091)"/>
<path d="M51.8582 63.8866C51.8582 64.6192 51.6056 65.2296 51.1003 65.718C50.6036 66.1979 49.8415 66.4379 48.8143 66.4379H47.1219V70.1133H45.9725V61.3101H48.8143C49.8079 61.3101 50.5615 61.5501 51.0751 62.03C51.5971 62.5099 51.8582 63.1288 51.8582 63.8866ZM48.8143 65.4907C49.4542 65.4907 49.9257 65.3517 50.2289 65.0739C50.532 64.796 50.6836 64.4003 50.6836 63.8866C50.6836 62.8004 50.0605 62.2573 48.8143 62.2573H47.1219V65.4907H48.8143ZM52.9204 66.6274C52.9204 65.9201 53.0635 65.3012 53.3498 64.7707C53.6361 64.2319 54.0276 63.8151 54.5244 63.5204C55.0296 63.2257 55.5895 63.0783 56.2042 63.0783C56.8104 63.0783 57.3367 63.2088 57.783 63.4698C58.2292 63.7309 58.5618 64.0592 58.7807 64.455V63.192H59.9427V70.1133H58.7807V68.825C58.5534 69.2292 58.2124 69.566 57.7577 69.8354C57.3114 70.0964 56.7894 70.227 56.1916 70.227C55.5769 70.227 55.0212 70.0754 54.5244 69.7723C54.0276 69.4691 53.6361 69.0439 53.3498 68.4966C53.0635 67.9493 52.9204 67.3262 52.9204 66.6274ZM58.7807 66.64C58.7807 66.118 58.6755 65.6633 58.465 65.2759C58.2545 64.8886 57.9682 64.5939 57.6061 64.3918C57.2525 64.1813 56.861 64.0761 56.4315 64.0761C56.0021 64.0761 55.6106 64.1771 55.2569 64.3792C54.9033 64.5813 54.6212 64.876 54.4107 65.2633C54.2002 65.6506 54.095 66.1053 54.095 66.6274C54.095 67.1578 54.2002 67.6209 54.4107 68.0167C54.6212 68.404 54.9033 68.7029 55.2569 68.9134C55.6106 69.1155 56.0021 69.2165 56.4315 69.2165C56.861 69.2165 57.2525 69.1155 57.6061 68.9134C57.9682 68.7029 58.2545 68.404 58.465 68.0167C58.6755 67.6209 58.7807 67.162 58.7807 66.64ZM67.9096 63.192L63.7416 73.3719H62.5544L63.9184 70.0375L61.1272 63.192H62.4028L64.5752 68.7997L66.7223 63.192H67.9096ZM77.4513 63.0657C77.9902 63.0657 78.4702 63.1793 78.8912 63.4067C79.3122 63.6256 79.6448 63.9582 79.8889 64.4045C80.1331 64.8507 80.2552 65.3938 80.2552 66.0338V70.1133H79.1185V66.1979C79.1185 65.5075 78.9459 64.9812 78.6007 64.6192C78.2639 64.2487 77.805 64.0635 77.224 64.0635C76.6262 64.0635 76.1504 64.2571 75.7968 64.6444C75.4431 65.0233 75.2663 65.5749 75.2663 66.299V70.1133H74.1296V66.1979C74.1296 65.5075 73.957 64.9812 73.6118 64.6192C73.275 64.2487 72.8161 64.0635 72.2351 64.0635C71.6373 64.0635 71.1615 64.2571 70.8079 64.6444C70.4542 65.0233 70.2774 65.5749 70.2774 66.299V70.1133H69.1281V63.192H70.2774V64.1898C70.5048 63.8277 70.8079 63.5498 71.1868 63.3562C71.5741 63.1625 71.9993 63.0657 72.4624 63.0657C73.0434 63.0657 73.557 63.1962 74.0033 63.4572C74.4496 63.7182 74.7822 64.1013 75.0011 64.6065C75.1947 64.1182 75.5147 63.7393 75.961 63.4698C76.4072 63.2004 76.904 63.0657 77.4513 63.0657ZM88.5188 66.3874C88.5188 66.6063 88.5061 66.8379 88.4809 67.0821H82.9489C82.991 67.7641 83.2225 68.2988 83.6435 68.6861C84.073 69.065 84.5908 69.2544 85.197 69.2544C85.6938 69.2544 86.1064 69.1408 86.4348 68.9134C86.7716 68.6777 87.0074 68.3661 87.1421 67.9788H88.3798C88.1946 68.644 87.8241 69.1871 87.2684 69.6081C86.7127 70.0207 86.0222 70.227 85.197 70.227C84.5403 70.227 83.9509 70.0796 83.4288 69.7849C82.9152 69.4902 82.511 69.0734 82.2163 68.5345C81.9216 67.9872 81.7743 67.3557 81.7743 66.64C81.7743 65.9243 81.9174 65.297 82.2037 64.7581C82.49 64.2192 82.8899 63.8066 83.4036 63.5204C83.9256 63.2257 84.5234 63.0783 85.197 63.0783C85.8538 63.0783 86.4348 63.2214 86.94 63.5077C87.4452 63.794 87.8325 64.1898 88.102 64.695C88.3798 65.1917 88.5188 65.7559 88.5188 66.3874ZM87.3315 66.1474C87.3315 65.7096 87.2347 65.3349 87.041 65.0233C86.8474 64.7034 86.5821 64.4634 86.2453 64.3034C85.917 64.135 85.5507 64.0508 85.1465 64.0508C84.5655 64.0508 84.0687 64.2361 83.6562 64.6065C83.252 64.977 83.0204 65.4907 82.9615 66.1474H87.3315ZM93.4712 63.0657C94.3133 63.0657 94.9953 63.3225 95.5173 63.8361C96.0394 64.3413 96.3004 65.0739 96.3004 66.0338V70.1133H95.1637V66.1979C95.1637 65.5075 94.9911 64.9812 94.6459 64.6192C94.3006 64.2487 93.8291 64.0635 93.2313 64.0635C92.625 64.0635 92.1409 64.2529 91.7788 64.6318C91.4252 65.0107 91.2483 65.5622 91.2483 66.2864V70.1133H90.099V63.192H91.2483V64.1771C91.4757 63.8235 91.783 63.5498 92.1703 63.3562C92.5661 63.1625 92.9997 63.0657 93.4712 63.0657ZM99.6429 64.1392V68.2188C99.6429 68.5556 99.7145 68.7955 99.8576 68.9387C100.001 69.0734 100.249 69.1408 100.603 69.1408H101.449V70.1133H100.413C99.7734 70.1133 99.2935 69.9659 98.9735 69.6712C98.6536 69.3765 98.4936 68.8924 98.4936 68.2188V64.1392H97.5969V63.192H98.4936V61.449H99.6429V63.192H101.449V64.1392H99.6429ZM109.126 70.2017C108.545 70.2017 108.023 70.1007 107.56 69.8986C107.106 69.6881 106.748 69.4018 106.487 69.0397C106.226 68.6692 106.091 68.244 106.083 67.7641H107.308C107.35 68.1767 107.518 68.5261 107.813 68.8124C108.116 69.0902 108.554 69.2292 109.126 69.2292C109.674 69.2292 110.103 69.0945 110.415 68.825C110.735 68.5471 110.895 68.1935 110.895 67.7641C110.895 67.4273 110.802 67.1536 110.617 66.9431C110.431 66.7326 110.2 66.5726 109.922 66.4632C109.644 66.3537 109.27 66.2358 108.798 66.1095C108.217 65.958 107.75 65.8064 107.396 65.6548C107.051 65.5033 106.752 65.2675 106.499 64.9476C106.255 64.6192 106.133 64.1813 106.133 63.634C106.133 63.1541 106.255 62.7289 106.499 62.3584C106.743 61.9879 107.085 61.7016 107.522 61.4995C107.969 61.2975 108.478 61.1964 109.051 61.1964C109.876 61.1964 110.549 61.4027 111.071 61.8153C111.602 62.2279 111.901 62.7752 111.968 63.4572H110.705C110.663 63.1204 110.486 62.8257 110.175 62.5731C109.863 62.3121 109.451 62.1816 108.937 62.1816C108.457 62.1816 108.065 62.3079 107.762 62.5605C107.459 62.8047 107.308 63.1499 107.308 63.5961C107.308 63.9161 107.396 64.1771 107.573 64.3792C107.758 64.5813 107.981 64.7371 108.242 64.8465C108.512 64.9476 108.886 65.0654 109.366 65.2002C109.947 65.3601 110.415 65.5201 110.768 65.6801C111.122 65.8317 111.425 66.0716 111.678 66.4C111.93 66.72 112.057 67.1578 112.057 67.7136C112.057 68.143 111.943 68.5471 111.716 68.926C111.488 69.305 111.151 69.6123 110.705 69.848C110.259 70.0838 109.733 70.2017 109.126 70.2017ZM119.949 63.192V70.1133H118.8V69.0902C118.581 69.4439 118.274 69.7217 117.878 69.9238C117.491 70.1175 117.061 70.2143 116.59 70.2143C116.051 70.2143 115.567 70.1049 115.137 69.8859C114.708 69.6586 114.367 69.3218 114.114 68.8755C113.87 68.4293 113.748 67.8862 113.748 67.2462V63.192H114.885V67.0947C114.885 67.7767 115.057 68.303 115.402 68.6734C115.748 69.0355 116.219 69.2165 116.817 69.2165C117.432 69.2165 117.916 69.0271 118.27 68.6482C118.623 68.2693 118.8 67.7178 118.8 66.9936V63.192H119.949ZM121.524 66.64C121.524 65.9243 121.667 65.3012 121.953 64.7707C122.239 64.2319 122.635 63.8151 123.14 63.5204C123.654 63.2257 124.239 63.0783 124.896 63.0783C125.746 63.0783 126.445 63.2846 126.992 63.6972C127.548 64.1098 127.914 64.6823 128.091 65.4149H126.854C126.736 64.9939 126.504 64.6613 126.159 64.4171C125.822 64.1729 125.401 64.0508 124.896 64.0508C124.239 64.0508 123.709 64.2782 123.304 64.7328C122.9 65.1791 122.698 65.8148 122.698 66.64C122.698 67.4736 122.9 68.1177 123.304 68.5724C123.709 69.0271 124.239 69.2544 124.896 69.2544C125.401 69.2544 125.822 69.1366 126.159 68.9008C126.496 68.665 126.727 68.3282 126.854 67.8904H128.091C127.906 68.5977 127.536 69.166 126.98 69.5954C126.424 70.0165 125.729 70.227 124.896 70.227C124.239 70.227 123.654 70.0796 123.14 69.7849C122.635 69.4902 122.239 69.0734 121.953 68.5345C121.667 67.9956 121.524 67.3641 121.524 66.64ZM129.259 66.64C129.259 65.9243 129.402 65.3012 129.688 64.7707C129.974 64.2319 130.37 63.8151 130.875 63.5204C131.389 63.2257 131.974 63.0783 132.631 63.0783C133.481 63.0783 134.18 63.2846 134.727 63.6972C135.283 64.1098 135.649 64.6823 135.826 65.4149H134.589C134.471 64.9939 134.239 64.6613 133.894 64.4171C133.557 64.1729 133.136 64.0508 132.631 64.0508C131.974 64.0508 131.444 64.2782 131.039 64.7328C130.635 65.1791 130.433 65.8148 130.433 66.64C130.433 67.4736 130.635 68.1177 131.039 68.5724C131.444 69.0271 131.974 69.2544 132.631 69.2544C133.136 69.2544 133.557 69.1366 133.894 68.9008C134.231 68.665 134.462 68.3282 134.589 67.8904H135.826C135.641 68.5977 135.271 69.166 134.715 69.5954C134.159 70.0165 133.464 70.227 132.631 70.227C131.974 70.227 131.389 70.0796 130.875 69.7849C130.37 69.4902 129.974 69.0734 129.688 68.5345C129.402 67.9956 129.259 67.3641 129.259 66.64ZM143.738 66.3874C143.738 66.6063 143.725 66.8379 143.7 67.0821H138.168C138.21 67.7641 138.442 68.2988 138.863 68.6861C139.292 69.065 139.81 69.2544 140.416 69.2544C140.913 69.2544 141.326 69.1408 141.654 68.9134C141.991 68.6777 142.227 68.3661 142.361 67.9788H143.599C143.414 68.644 143.043 69.1871 142.488 69.6081C141.932 70.0207 141.241 70.227 140.416 70.227C139.76 70.227 139.17 70.0796 138.648 69.7849C138.134 69.4902 137.73 69.0734 137.436 68.5345C137.141 67.9872 136.994 67.3557 136.994 66.64C136.994 65.9243 137.137 65.297 137.423 64.7581C137.709 64.2192 138.109 63.8066 138.623 63.5204C139.145 63.2257 139.743 63.0783 140.416 63.0783C141.073 63.0783 141.654 63.2214 142.159 63.5077C142.664 63.794 143.052 64.1898 143.321 64.695C143.599 65.1917 143.738 65.7559 143.738 66.3874ZM142.551 66.1474C142.551 65.7096 142.454 65.3349 142.26 65.0233C142.067 64.7034 141.801 64.4634 141.465 64.3034C141.136 64.135 140.77 64.0508 140.366 64.0508C139.785 64.0508 139.288 64.2361 138.875 64.6065C138.471 64.977 138.24 65.4907 138.181 66.1474H142.551ZM147.769 70.227C147.238 70.227 146.762 70.1385 146.341 69.9617C145.92 69.7765 145.588 69.5239 145.344 69.2039C145.099 68.8755 144.965 68.5008 144.939 68.0798H146.127C146.16 68.4251 146.32 68.7071 146.607 68.926C146.901 69.145 147.284 69.2544 147.756 69.2544C148.194 69.2544 148.539 69.1576 148.792 68.9639C149.044 68.7703 149.17 68.5261 149.17 68.2314C149.17 67.9283 149.036 67.7051 148.766 67.562C148.497 67.4104 148.08 67.2631 147.516 67.1199C147.002 66.9852 146.581 66.8505 146.253 66.7158C145.933 66.5726 145.655 66.3663 145.419 66.0969C145.192 65.819 145.078 65.457 145.078 65.0107C145.078 64.6571 145.184 64.3329 145.394 64.0382C145.605 63.7435 145.903 63.5119 146.291 63.3435C146.678 63.1667 147.12 63.0783 147.617 63.0783C148.383 63.0783 149.002 63.272 149.474 63.6593C149.945 64.0466 150.198 64.5771 150.231 65.2507H149.082C149.057 64.8886 148.909 64.5981 148.64 64.3792C148.379 64.1603 148.025 64.0508 147.579 64.0508C147.166 64.0508 146.838 64.1392 146.594 64.3161C146.35 64.4929 146.228 64.7244 146.228 65.0107C146.228 65.2381 146.299 65.4275 146.442 65.5791C146.594 65.7222 146.779 65.8401 146.998 65.9327C147.225 66.0169 147.537 66.1137 147.933 66.2232C148.43 66.3579 148.834 66.4926 149.145 66.6274C149.457 66.7537 149.722 66.9473 149.941 67.2084C150.168 67.4694 150.286 67.8104 150.295 68.2314C150.295 68.6103 150.189 68.9513 149.979 69.2544C149.768 69.5576 149.469 69.7975 149.082 69.9743C148.703 70.1428 148.265 70.227 147.769 70.227ZM154.43 70.227C153.9 70.227 153.424 70.1385 153.003 69.9617C152.582 69.7765 152.25 69.5239 152.005 69.2039C151.761 68.8755 151.627 68.5008 151.601 68.0798H152.789C152.822 68.4251 152.982 68.7071 153.268 68.926C153.563 69.145 153.946 69.2544 154.418 69.2544C154.856 69.2544 155.201 69.1576 155.453 68.9639C155.706 68.7703 155.832 68.5261 155.832 68.2314C155.832 67.9283 155.698 67.7051 155.428 67.562C155.159 67.4104 154.742 67.2631 154.178 67.1199C153.664 66.9852 153.243 66.8505 152.915 66.7158C152.595 66.5726 152.317 66.3663 152.081 66.0969C151.854 65.819 151.74 65.457 151.74 65.0107C151.74 64.6571 151.845 64.3329 152.056 64.0382C152.266 63.7435 152.565 63.5119 152.953 63.3435C153.34 63.1667 153.782 63.0783 154.279 63.0783C155.045 63.0783 155.664 63.272 156.135 63.6593C156.607 64.0466 156.86 64.5771 156.893 65.2507H155.744C155.719 64.8886 155.571 64.5981 155.302 64.3792C155.041 64.1603 154.687 64.0508 154.241 64.0508C153.828 64.0508 153.5 64.1392 153.256 64.3161C153.012 64.4929 152.89 64.7244 152.89 65.0107C152.89 65.2381 152.961 65.4275 153.104 65.5791C153.256 65.7222 153.441 65.8401 153.66 65.9327C153.887 66.0169 154.199 66.1137 154.595 66.2232C155.091 66.3579 155.496 66.4926 155.807 66.6274C156.119 66.7537 156.384 66.9473 156.603 67.2084C156.83 67.4694 156.948 67.8104 156.956 68.2314C156.956 68.6103 156.851 68.9513 156.641 69.2544C156.43 69.5576 156.131 69.7975 155.744 69.9743C155.365 70.1428 154.927 70.227 154.43 70.227ZM161.459 64.1392H160.006V70.1133H158.857V64.1392H157.96V63.192H158.857V62.6994C158.857 61.9248 159.055 61.3606 159.45 61.007C159.855 60.6449 160.499 60.4639 161.383 60.4639V61.4238C160.878 61.4238 160.52 61.5248 160.309 61.7269C160.107 61.9205 160.006 62.2447 160.006 62.6994V63.192H161.459V64.1392ZM169 63.192V70.1133H167.851V69.0902C167.632 69.4439 167.324 69.7217 166.929 69.9238C166.541 70.1175 166.112 70.2143 165.64 70.2143C165.102 70.2143 164.617 70.1049 164.188 69.8859C163.759 69.6586 163.418 69.3218 163.165 68.8755C162.921 68.4293 162.799 67.8862 162.799 67.2462V63.192H163.935V67.0947C163.935 67.7767 164.108 68.303 164.453 68.6734C164.798 69.0355 165.27 69.2165 165.868 69.2165C166.482 69.2165 166.967 69.0271 167.32 68.6482C167.674 68.2693 167.851 67.7178 167.851 66.9936V63.192H169ZM172.153 60.767V70.1133H171.004V60.767H172.153Z" fill="black"/>
<path fill-rule="evenodd" clip-rule="evenodd" d="M109.526 43.5246C118.507 43.5246 125.788 36.2437 125.788 27.2623C125.788 18.2809 118.507 11 109.526 11C100.545 11 93.2637 18.2809 93.2637 27.2623C93.2637 36.2437 100.545 43.5246 109.526 43.5246ZM117.925 20.1246C118.32 19.729 118.962 19.729 119.357 20.1246C119.753 20.5201 119.753 21.1615 119.357 21.557L106.506 34.4085C106.111 34.8038 105.469 34.8041 105.073 34.4085L99.6925 29.0278C99.2969 28.6322 99.2969 27.9909 99.6925 27.5953C100.088 27.1998 100.729 27.1997 101.125 27.5953L105.79 32.2599L117.925 20.1246Z" fill="#7CAA53"/>
<path d="M171.467 149.901H169.312L168.915 151H168.234L170.021 146.086H170.765L172.545 151H171.864L171.467 149.901ZM171.283 149.376L170.389 146.88L169.496 149.376H171.283ZM178.032 147.044C178.334 147.044 178.604 147.107 178.84 147.235C179.076 147.358 179.263 147.545 179.4 147.795C179.537 148.046 179.606 148.351 179.606 148.71V151H178.968V148.802C178.968 148.414 178.871 148.119 178.677 147.916C178.488 147.708 178.23 147.604 177.904 147.604C177.568 147.604 177.301 147.712 177.103 147.93C176.904 148.143 176.805 148.452 176.805 148.859V151H176.167V148.802C176.167 148.414 176.07 148.119 175.876 147.916C175.687 147.708 175.43 147.604 175.103 147.604C174.768 147.604 174.501 147.712 174.302 147.93C174.104 148.143 174.004 148.452 174.004 148.859V151H173.359V147.114H174.004V147.675C174.132 147.471 174.302 147.315 174.515 147.207C174.732 147.098 174.971 147.044 175.231 147.044C175.557 147.044 175.846 147.117 176.096 147.263C176.347 147.41 176.533 147.625 176.656 147.909C176.765 147.634 176.945 147.422 177.195 147.27C177.446 147.119 177.724 147.044 178.032 147.044ZM182.394 151.064C182.03 151.064 181.699 150.981 181.402 150.816C181.109 150.65 180.877 150.416 180.707 150.114C180.541 149.806 180.459 149.452 180.459 149.05C180.459 148.653 180.544 148.303 180.714 148.001C180.889 147.694 181.125 147.46 181.423 147.299C181.721 147.133 182.054 147.051 182.423 147.051C182.791 147.051 183.125 147.133 183.422 147.299C183.72 147.46 183.954 147.691 184.124 147.994C184.299 148.296 184.387 148.648 184.387 149.05C184.387 149.452 184.297 149.806 184.117 150.114C183.942 150.416 183.704 150.65 183.401 150.816C183.099 150.981 182.763 151.064 182.394 151.064ZM182.394 150.497C182.626 150.497 182.843 150.442 183.047 150.334C183.25 150.225 183.413 150.062 183.536 149.844C183.663 149.627 183.727 149.362 183.727 149.05C183.727 148.738 183.666 148.473 183.543 148.256C183.42 148.039 183.259 147.878 183.061 147.774C182.862 147.665 182.647 147.611 182.416 147.611C182.179 147.611 181.962 147.665 181.763 147.774C181.569 147.878 181.413 148.039 181.295 148.256C181.177 148.473 181.118 148.738 181.118 149.05C181.118 149.367 181.175 149.634 181.288 149.851C181.406 150.069 181.562 150.232 181.756 150.341C181.95 150.445 182.163 150.497 182.394 150.497ZM188.716 147.114V151H188.071V150.426C187.948 150.624 187.776 150.78 187.554 150.894C187.336 151.002 187.095 151.057 186.83 151.057C186.528 151.057 186.256 150.995 186.015 150.872C185.774 150.745 185.582 150.556 185.441 150.305C185.304 150.055 185.235 149.75 185.235 149.39V147.114H185.873V149.305C185.873 149.688 185.97 149.984 186.164 150.192C186.358 150.395 186.622 150.497 186.958 150.497C187.303 150.497 187.575 150.39 187.773 150.178C187.972 149.965 188.071 149.655 188.071 149.249V147.114H188.716ZM191.734 147.044C192.207 147.044 192.59 147.188 192.883 147.476C193.176 147.76 193.323 148.171 193.323 148.71V151H192.685V148.802C192.685 148.414 192.588 148.119 192.394 147.916C192.2 147.708 191.935 147.604 191.6 147.604C191.259 147.604 190.988 147.71 190.784 147.923C190.586 148.135 190.487 148.445 190.487 148.852V151H189.841V147.114H190.487V147.668C190.614 147.469 190.787 147.315 191.004 147.207C191.226 147.098 191.47 147.044 191.734 147.044ZM195.199 147.646V149.936C195.199 150.126 195.239 150.26 195.32 150.341C195.4 150.416 195.539 150.454 195.738 150.454H196.213V151H195.632C195.272 151 195.003 150.917 194.823 150.752C194.644 150.586 194.554 150.315 194.554 149.936V147.646H194.051V147.114H194.554V146.136H195.199V147.114H196.213V147.646H195.199Z" fill="#858585"/>
<path d="M171.567 161L169.994 158.253V157.887H170.177C170.471 157.887 170.718 157.859 170.918 157.803C171.123 157.748 171.284 157.656 171.4 157.529C171.517 157.401 171.586 157.226 171.609 157.004H169.994V156.472H171.6C171.561 156.266 171.484 156.1 171.367 155.972C171.251 155.839 171.092 155.742 170.893 155.681C170.698 155.62 170.46 155.589 170.177 155.589H169.994V155.056H173.44V155.589H171.867C171.994 155.695 172.1 155.819 172.183 155.964C172.266 156.108 172.319 156.277 172.341 156.472H173.44V157.004H172.358C172.319 157.409 172.163 157.726 171.892 157.953C171.625 158.175 171.27 158.317 170.826 158.378L172.416 161H171.567ZM178.495 155.639H175.573V157.537C175.701 157.359 175.889 157.215 176.139 157.104C176.389 156.988 176.658 156.929 176.947 156.929C177.407 156.929 177.782 157.026 178.07 157.221C178.359 157.409 178.564 157.656 178.686 157.962C178.814 158.261 178.878 158.58 178.878 158.919C178.878 159.318 178.803 159.676 178.653 159.993C178.503 160.309 178.273 160.559 177.962 160.742C177.657 160.925 177.277 161.017 176.822 161.017C176.239 161.017 175.767 160.867 175.407 160.567C175.046 160.267 174.827 159.868 174.749 159.368H175.49C175.562 159.685 175.715 159.932 175.948 160.109C176.181 160.287 176.475 160.376 176.83 160.376C177.269 160.376 177.599 160.245 177.821 159.984C178.043 159.718 178.154 159.368 178.154 158.936C178.154 158.503 178.043 158.17 177.821 157.937C177.599 157.698 177.271 157.579 176.838 157.579C176.544 157.579 176.286 157.651 176.064 157.795C175.848 157.934 175.69 158.125 175.59 158.369H174.874V154.973H178.495V155.639ZM179.926 157.928C179.926 156.974 180.082 156.23 180.392 155.697C180.703 155.159 181.247 154.89 182.024 154.89C182.795 154.89 183.336 155.159 183.647 155.697C183.958 156.23 184.113 156.974 184.113 157.928C184.113 158.899 183.958 159.654 183.647 160.193C183.336 160.731 182.795 161 182.024 161C181.247 161 180.703 160.731 180.392 160.193C180.082 159.654 179.926 158.899 179.926 157.928ZM183.364 157.928C183.364 157.445 183.331 157.038 183.264 156.705C183.203 156.366 183.073 156.094 182.873 155.889C182.679 155.683 182.396 155.581 182.024 155.581C181.647 155.581 181.358 155.683 181.158 155.889C180.964 156.094 180.834 156.366 180.767 156.705C180.706 157.038 180.675 157.445 180.675 157.928C180.675 158.428 180.706 158.847 180.767 159.185C180.834 159.524 180.964 159.796 181.158 160.001C181.358 160.206 181.647 160.309 182.024 160.309C182.396 160.309 182.679 160.206 182.873 160.001C183.073 159.796 183.203 159.524 183.264 159.185C183.331 158.847 183.364 158.428 183.364 157.928ZM185.195 157.928C185.195 156.974 185.35 156.23 185.661 155.697C185.972 155.159 186.516 154.89 187.293 154.89C188.064 154.89 188.605 155.159 188.916 155.697C189.227 156.23 189.382 156.974 189.382 157.928C189.382 158.899 189.227 159.654 188.916 160.193C188.605 160.731 188.064 161 187.293 161C186.516 161 185.972 160.731 185.661 160.193C185.35 159.654 185.195 158.899 185.195 157.928ZM188.633 157.928C188.633 157.445 188.6 157.038 188.533 156.705C188.472 156.366 188.342 156.094 188.142 155.889C187.948 155.683 187.665 155.581 187.293 155.581C186.915 155.581 186.627 155.683 186.427 155.889C186.233 156.094 186.102 156.366 186.036 156.705C185.975 157.038 185.944 157.445 185.944 157.928C185.944 158.428 185.975 158.847 186.036 159.185C186.102 159.524 186.233 159.796 186.427 160.001C186.627 160.206 186.915 160.309 187.293 160.309C187.665 160.309 187.948 160.206 188.142 160.001C188.342 159.796 188.472 159.524 188.533 159.185C188.6 158.847 188.633 158.428 188.633 157.928ZM190.464 157.928C190.464 156.974 190.619 156.23 190.93 155.697C191.241 155.159 191.785 154.89 192.562 154.89C193.333 154.89 193.874 155.159 194.185 155.697C194.496 156.23 194.651 156.974 194.651 157.928C194.651 158.899 194.496 159.654 194.185 160.193C193.874 160.731 193.333 161 192.562 161C191.785 161 191.241 160.731 190.93 160.193C190.619 159.654 190.464 158.899 190.464 157.928ZM193.902 157.928C193.902 157.445 193.868 157.038 193.802 156.705C193.741 156.366 193.61 156.094 193.411 155.889C193.216 155.683 192.933 155.581 192.562 155.581C192.184 155.581 191.896 155.683 191.696 155.889C191.502 156.094 191.371 156.366 191.305 156.705C191.243 157.038 191.213 157.445 191.213 157.928C191.213 158.428 191.243 158.847 191.305 159.185C191.371 159.524 191.502 159.796 191.696 160.001C191.896 160.206 192.184 160.309 192.562 160.309C192.933 160.309 193.216 160.206 193.411 160.001C193.61 159.796 193.741 159.524 193.802 159.185C193.868 158.847 193.902 158.428 193.902 157.928Z" fill="black"/>
<path d="M16.2762 144.058V144.583H14.929V149H14.2838V144.583H12.9296V144.058H16.2762ZM17.7511 145.746C17.8646 145.523 18.0253 145.351 18.2333 145.228C18.446 145.105 18.7036 145.044 19.0061 145.044V145.71H18.836C18.1128 145.71 17.7511 146.102 17.7511 146.887V149H17.1059V145.114H17.7511V145.746ZM19.5453 147.043C19.5453 146.646 19.6257 146.299 19.7864 146.001C19.9471 145.698 20.1669 145.464 20.4458 145.299C20.7294 145.133 21.0438 145.051 21.3889 145.051C21.7292 145.051 22.0246 145.124 22.2752 145.27C22.5257 145.417 22.7124 145.601 22.8353 145.823V145.114H23.4876V149H22.8353V148.277C22.7077 148.504 22.5162 148.693 22.261 148.844C22.0104 148.991 21.7174 149.064 21.3818 149.064C21.0367 149.064 20.7247 148.979 20.4458 148.809C20.1669 148.638 19.9471 148.4 19.7864 148.092C19.6257 147.785 19.5453 147.435 19.5453 147.043ZM22.8353 147.05C22.8353 146.757 22.7762 146.502 22.658 146.284C22.5399 146.067 22.3791 145.901 22.1759 145.788C21.9774 145.67 21.7576 145.611 21.5165 145.611C21.2754 145.611 21.0556 145.668 20.8571 145.781C20.6585 145.894 20.5002 146.06 20.382 146.277C20.2638 146.495 20.2048 146.75 20.2048 147.043C20.2048 147.341 20.2638 147.601 20.382 147.823C20.5002 148.04 20.6585 148.208 20.8571 148.326C21.0556 148.44 21.2754 148.497 21.5165 148.497C21.7576 148.497 21.9774 148.44 22.1759 148.326C22.3791 148.208 22.5399 148.04 22.658 147.823C22.7762 147.601 22.8353 147.343 22.8353 147.05ZM26.5066 145.044C26.9793 145.044 27.3622 145.188 27.6552 145.476C27.9483 145.76 28.0948 146.171 28.0948 146.71V149H27.4567V146.802C27.4567 146.414 27.3598 146.119 27.166 145.916C26.9722 145.708 26.7075 145.604 26.3719 145.604C26.0315 145.604 25.7597 145.71 25.5565 145.923C25.3579 146.135 25.2587 146.445 25.2587 146.852V149H24.6134V145.114H25.2587V145.668C25.3863 145.469 25.5588 145.315 25.7763 145.207C25.9984 145.098 26.2419 145.044 26.5066 145.044ZM30.5598 149.064C30.262 149.064 29.9949 149.014 29.7586 148.915C29.5222 148.811 29.3355 148.669 29.1984 148.489C29.0614 148.305 28.9857 148.095 28.9716 147.858H29.6381C29.657 148.052 29.7468 148.211 29.9075 148.334C30.0729 148.456 30.288 148.518 30.5527 148.518C30.7985 148.518 30.9923 148.463 31.1341 148.355C31.2759 148.246 31.3468 148.109 31.3468 147.944C31.3468 147.773 31.2712 147.648 31.1199 147.568C30.9687 147.483 30.7347 147.4 30.418 147.32C30.1297 147.244 29.8933 147.168 29.709 147.093C29.5293 147.012 29.3733 146.897 29.241 146.745C29.1134 146.589 29.0495 146.386 29.0495 146.135C29.0495 145.937 29.1086 145.755 29.2268 145.59C29.345 145.424 29.5128 145.294 29.7302 145.2C29.9477 145.1 30.1958 145.051 30.4747 145.051C30.9049 145.051 31.2523 145.159 31.517 145.377C31.7817 145.594 31.9235 145.892 31.9424 146.27H31.2972C31.283 146.067 31.2003 145.904 31.049 145.781C30.9025 145.658 30.704 145.597 30.4534 145.597C30.2218 145.597 30.0375 145.646 29.9004 145.746C29.7633 145.845 29.6948 145.975 29.6948 146.135C29.6948 146.263 29.735 146.369 29.8153 146.455C29.9004 146.535 30.0044 146.601 30.1273 146.653C30.2549 146.7 30.4298 146.755 30.652 146.816C30.9309 146.892 31.1578 146.967 31.3327 147.043C31.5076 147.114 31.6565 147.223 31.7794 147.369C31.907 147.516 31.9732 147.707 31.9779 147.944C31.9779 148.156 31.9188 148.348 31.8006 148.518C31.6825 148.688 31.5146 148.823 31.2972 148.922C31.0845 149.017 30.8387 149.064 30.5598 149.064ZM32.6831 147.043C32.6831 146.646 32.7635 146.299 32.9242 146.001C33.0849 145.698 33.3047 145.464 33.5836 145.299C33.8672 145.133 34.1815 145.051 34.5266 145.051C34.867 145.051 35.1624 145.124 35.4129 145.27C35.6634 145.417 35.8502 145.601 35.9731 145.823V145.114H36.6254V149H35.9731V148.277C35.8454 148.504 35.654 148.693 35.3987 148.844C35.1482 148.991 34.8551 149.064 34.5195 149.064C34.1745 149.064 33.8625 148.979 33.5836 148.809C33.3047 148.638 33.0849 148.4 32.9242 148.092C32.7635 147.785 32.6831 147.435 32.6831 147.043ZM35.9731 147.05C35.9731 146.757 35.914 146.502 35.7958 146.284C35.6776 146.067 35.5169 145.901 35.3136 145.788C35.1151 145.67 34.8953 145.611 34.6542 145.611C34.4132 145.611 34.1934 145.668 33.9948 145.781C33.7963 145.894 33.6379 146.06 33.5198 146.277C33.4016 146.495 33.3425 146.75 33.3425 147.043C33.3425 147.341 33.4016 147.601 33.5198 147.823C33.6379 148.04 33.7963 148.208 33.9948 148.326C34.1934 148.44 34.4132 148.497 34.6542 148.497C34.8953 148.497 35.1151 148.44 35.3136 148.326C35.5169 148.208 35.6776 148.04 35.7958 147.823C35.914 147.601 35.9731 147.343 35.9731 147.05ZM37.5101 147.05C37.5101 146.648 37.5905 146.299 37.7512 146.001C37.9119 145.698 38.1341 145.464 38.4177 145.299C38.706 145.133 39.0346 145.051 39.4033 145.051C39.8807 145.051 40.273 145.166 40.5803 145.398C40.8923 145.63 41.0979 145.951 41.1971 146.362H40.5023C40.4361 146.126 40.3061 145.939 40.1123 145.802C39.9232 145.665 39.6869 145.597 39.4033 145.597C39.0346 145.597 38.7368 145.724 38.5099 145.979C38.283 146.23 38.1695 146.587 38.1695 147.05C38.1695 147.518 38.283 147.88 38.5099 148.135C38.7368 148.39 39.0346 148.518 39.4033 148.518C39.6869 148.518 39.9232 148.452 40.1123 148.319C40.3014 148.187 40.4314 147.998 40.5023 147.752H41.1971C41.0931 148.149 40.8852 148.468 40.5732 148.709C40.2612 148.946 39.8712 149.064 39.4033 149.064C39.0346 149.064 38.706 148.981 38.4177 148.816C38.1341 148.65 37.9119 148.416 37.7512 148.114C37.5905 147.811 37.5101 147.457 37.5101 147.05ZM42.8806 145.646V147.936C42.8806 148.126 42.9207 148.26 43.0011 148.341C43.0815 148.416 43.2209 148.454 43.4194 148.454H43.8945V149H43.3131C42.9538 149 42.6844 148.917 42.5048 148.752C42.3251 148.586 42.2353 148.315 42.2353 147.936V145.646H41.7319V145.114H42.2353V144.136H42.8806V145.114H43.8945V145.646H42.8806ZM45.045 144.483C44.9221 144.483 44.8181 144.441 44.733 144.356C44.6479 144.271 44.6054 144.167 44.6054 144.044C44.6054 143.921 44.6479 143.817 44.733 143.732C44.8181 143.647 44.9221 143.604 45.045 143.604C45.1631 143.604 45.2624 143.647 45.3428 143.732C45.4278 143.817 45.4704 143.921 45.4704 144.044C45.4704 144.167 45.4278 144.271 45.3428 144.356C45.2624 144.441 45.1631 144.483 45.045 144.483ZM45.3569 145.114V149H44.7117V145.114H45.3569ZM48.1867 149.064C47.8227 149.064 47.4918 148.981 47.194 148.816C46.901 148.65 46.6693 148.416 46.4992 148.114C46.3337 147.806 46.251 147.452 46.251 147.05C46.251 146.653 46.3361 146.303 46.5063 146.001C46.6811 145.694 46.9175 145.46 47.2153 145.299C47.5131 145.133 47.8463 145.051 48.215 145.051C48.5837 145.051 48.917 145.133 49.2148 145.299C49.5126 145.46 49.7466 145.691 49.9167 145.994C50.0916 146.296 50.1791 146.648 50.1791 147.05C50.1791 147.452 50.0893 147.806 49.9096 148.114C49.7348 148.416 49.496 148.65 49.1935 148.816C48.891 148.981 48.5554 149.064 48.1867 149.064ZM48.1867 148.497C48.4183 148.497 48.6357 148.442 48.839 148.334C49.0423 148.225 49.2053 148.062 49.3282 147.844C49.4559 147.627 49.5197 147.362 49.5197 147.05C49.5197 146.738 49.4582 146.473 49.3353 146.256C49.2124 146.039 49.0517 145.878 48.8532 145.774C48.6546 145.665 48.4396 145.611 48.208 145.611C47.9716 145.611 47.7542 145.665 47.5556 145.774C47.3618 145.878 47.2058 146.039 47.0877 146.256C46.9695 146.473 46.9104 146.738 46.9104 147.05C46.9104 147.367 46.9671 147.634 47.0806 147.851C47.1987 148.069 47.3547 148.232 47.5485 148.341C47.7423 148.445 47.9551 148.497 48.1867 148.497ZM52.956 145.044C53.4287 145.044 53.8116 145.188 54.1047 145.476C54.3977 145.76 54.5443 146.171 54.5443 146.71V149H53.9061V146.802C53.9061 146.414 53.8092 146.119 53.6154 145.916C53.4216 145.708 53.1569 145.604 52.8213 145.604C52.481 145.604 52.2092 145.71 52.0059 145.923C51.8074 146.135 51.7081 146.445 51.7081 146.852V149H51.0629V145.114H51.7081V145.668C51.8357 145.469 52.0083 145.315 52.2257 145.207C52.4479 145.098 52.6913 145.044 52.956 145.044ZM58.2047 144.058V149H57.5595V144.058H58.2047ZM60.8785 144.058C61.4173 144.058 61.8829 144.16 62.2753 144.363C62.6723 144.561 62.9749 144.847 63.1828 145.221C63.3956 145.594 63.5019 146.034 63.5019 146.54C63.5019 147.045 63.3956 147.485 63.1828 147.858C62.9749 148.227 62.6723 148.511 62.2753 148.709C61.8829 148.903 61.4173 149 60.8785 149H59.3398V144.058H60.8785ZM60.8785 148.468C61.5166 148.468 62.0035 148.3 62.3391 147.965C62.6747 147.624 62.8425 147.149 62.8425 146.54C62.8425 145.925 62.6723 145.445 62.332 145.1C61.9964 144.755 61.5119 144.583 60.8785 144.583H59.9851V148.468H60.8785Z" fill="#858585"/>
<path d="M12.3537 156.639H9.4318V158.537C9.55944 158.359 9.74813 158.215 9.99786 158.104C10.2476 157.988 10.5167 157.929 10.8053 157.929C11.2659 157.929 11.6405 158.026 11.9291 158.221C12.2177 158.409 12.423 158.656 12.5451 158.962C12.6728 159.261 12.7366 159.58 12.7366 159.919C12.7366 160.318 12.6617 160.676 12.5118 160.993C12.362 161.309 12.1317 161.559 11.8209 161.742C11.5157 161.925 11.1355 162.017 10.6805 162.017C10.0978 162.017 9.62604 161.867 9.26531 161.567C8.90459 161.267 8.68538 160.868 8.60768 160.368H9.34856C9.4207 160.685 9.57331 160.932 9.8064 161.109C10.0395 161.287 10.3336 161.376 10.6888 161.376C11.1272 161.376 11.4574 161.245 11.6794 160.984C11.9014 160.718 12.0124 160.368 12.0124 159.936C12.0124 159.503 11.9014 159.17 11.6794 158.937C11.4574 158.698 11.13 158.579 10.6971 158.579C10.403 158.579 10.1449 158.651 9.92294 158.795C9.70651 158.934 9.54834 159.125 9.44845 159.369H8.73255V155.973H12.3537V156.639ZM14.7588 160.385C14.8143 160.701 14.942 160.946 15.1418 161.118C15.3471 161.29 15.6218 161.376 15.9659 161.376C16.4265 161.376 16.765 161.195 16.9815 160.835C17.2034 160.474 17.3089 159.866 17.2978 159.012C17.1812 159.261 16.987 159.458 16.7151 159.603C16.4431 159.741 16.1407 159.811 15.8077 159.811C15.4359 159.811 15.1029 159.736 14.8088 159.586C14.5202 159.431 14.2927 159.206 14.1262 158.912C13.9597 158.618 13.8765 158.262 13.8765 157.846C13.8765 157.252 14.0485 156.775 14.3926 156.414C14.7366 156.048 15.225 155.865 15.8577 155.865C16.6346 155.865 17.1785 156.117 17.4892 156.622C17.8056 157.127 17.9637 157.879 17.9637 158.878C17.9637 159.578 17.8999 160.155 17.7723 160.61C17.6502 161.065 17.4393 161.412 17.1396 161.65C16.8455 161.889 16.4404 162.008 15.9243 162.008C15.3582 162.008 14.917 161.856 14.6007 161.55C14.2843 161.245 14.104 160.857 14.0596 160.385H14.7588ZM15.9326 159.17C16.3044 159.17 16.6096 159.056 16.8483 158.828C17.0869 158.595 17.2062 158.282 17.2062 157.888C17.2062 157.472 17.0897 157.136 16.8566 156.88C16.6235 156.625 16.2961 156.498 15.8743 156.498C15.4858 156.498 15.1751 156.62 14.942 156.864C14.7144 157.108 14.6007 157.43 14.6007 157.829C14.6007 158.235 14.7144 158.559 14.942 158.803C15.1695 159.048 15.4997 159.17 15.9326 159.17ZM18.9783 161.392C19.6831 160.826 20.2353 160.363 20.6349 160.002C21.0345 159.636 21.3702 159.256 21.6422 158.862C21.9196 158.462 22.0584 158.071 22.0584 157.688C22.0584 157.327 21.9696 157.044 21.792 156.839C21.62 156.628 21.3397 156.523 20.9512 156.523C20.5739 156.523 20.2797 156.642 20.0688 156.88C19.8635 157.114 19.7525 157.427 19.7359 157.821H19.0033C19.0255 157.2 19.2142 156.72 19.5694 156.381C19.9246 156.042 20.3824 155.873 20.9429 155.873C21.5145 155.873 21.9668 156.031 22.2998 156.348C22.6383 156.664 22.8076 157.1 22.8076 157.655C22.8076 158.115 22.6688 158.565 22.3914 159.003C22.1194 159.436 21.8086 159.819 21.459 160.152C21.1094 160.479 20.6627 160.862 20.1188 161.301H22.9824V161.933H18.9783V161.392ZM27.7373 156.639H24.8154V158.537C24.943 158.359 25.1317 158.215 25.3814 158.104C25.6312 157.988 25.9003 157.929 26.1889 157.929C26.6495 157.929 27.0241 158.026 27.3127 158.221C27.6013 158.409 27.8066 158.656 27.9287 158.962C28.0564 159.261 28.1202 159.58 28.1202 159.919C28.1202 160.318 28.0453 160.676 27.8954 160.993C27.7456 161.309 27.5153 161.559 27.2045 161.742C26.8993 161.925 26.5191 162.017 26.064 162.017C25.4813 162.017 25.0096 161.867 24.6489 161.567C24.2882 161.267 24.069 160.868 23.9913 160.368H24.7321C24.8043 160.685 24.9569 160.932 25.19 161.109C25.4231 161.287 25.7172 161.376 26.0724 161.376C26.5108 161.376 26.841 161.245 27.063 160.984C27.285 160.718 27.396 160.368 27.396 159.936C27.396 159.503 27.285 159.17 27.063 158.937C26.841 158.698 26.5136 158.579 26.0807 158.579C25.7866 158.579 25.5285 158.651 25.3065 158.795C25.0901 158.934 24.9319 159.125 24.832 159.369H24.1161V155.973H27.7373V156.639ZM28.9853 160.66V160.085L31.9072 156.04H32.8146V160.002H33.647V160.66H32.8146V162H32.0654V160.66H28.9853ZM32.0987 156.831L29.8594 160.002H32.0987V156.831ZM38.1497 156.572L35.8355 162H35.0697L37.4172 156.647H34.204V155.998H38.1497V156.572ZM40.1301 158.87C39.8193 158.748 39.5807 158.57 39.4142 158.337C39.2477 158.104 39.1645 157.821 39.1645 157.488C39.1645 157.188 39.2394 156.919 39.3892 156.681C39.5391 156.437 39.7611 156.245 40.0552 156.106C40.3549 155.962 40.7156 155.89 41.1374 155.89C41.5591 155.89 41.9171 155.962 42.2112 156.106C42.5109 156.245 42.7356 156.437 42.8855 156.681C43.0409 156.919 43.1186 157.188 43.1186 157.488C43.1186 157.81 43.0325 158.093 42.8605 158.337C42.6885 158.576 42.4526 158.753 42.1529 158.87C42.497 158.975 42.7689 159.161 42.9687 159.428C43.1741 159.689 43.2767 160.005 43.2767 160.377C43.2767 160.737 43.1879 161.054 43.0103 161.326C42.8328 161.592 42.5803 161.8 42.2528 161.95C41.9309 162.094 41.5591 162.166 41.1374 162.166C40.7156 162.166 40.3438 162.094 40.0219 161.95C39.7056 161.8 39.4586 161.592 39.281 161.326C39.1034 161.054 39.0146 160.737 39.0146 160.377C39.0146 160.005 39.1145 159.686 39.3143 159.419C39.5141 159.153 39.786 158.97 40.1301 158.87ZM42.386 157.58C42.386 157.241 42.275 156.98 42.053 156.797C41.8311 156.614 41.5258 156.523 41.1374 156.523C40.7544 156.523 40.452 156.614 40.23 156.797C40.008 156.98 39.897 157.244 39.897 157.588C39.897 157.899 40.0108 158.149 40.2383 158.337C40.4714 158.526 40.7711 158.62 41.1374 158.62C41.5092 158.62 41.8089 158.526 42.0364 158.337C42.2695 158.143 42.386 157.891 42.386 157.58ZM41.1374 159.203C40.7267 159.203 40.3909 159.3 40.1301 159.494C39.8693 159.683 39.7389 159.969 39.7389 160.352C39.7389 160.707 39.8637 160.993 40.1135 161.209C40.3687 161.426 40.71 161.534 41.1374 161.534C41.5647 161.534 41.9032 161.426 42.1529 161.209C42.4027 160.993 42.5275 160.707 42.5275 160.352C42.5275 159.98 42.3999 159.697 42.1446 159.503C41.8893 159.303 41.5536 159.203 41.1374 159.203ZM45.2984 160.385C45.3539 160.701 45.4815 160.946 45.6813 161.118C45.8867 161.29 46.1614 161.376 46.5054 161.376C46.9661 161.376 47.3046 161.195 47.521 160.835C47.743 160.474 47.8484 159.866 47.8373 159.012C47.7208 159.261 47.5266 159.458 47.2546 159.603C46.9827 159.741 46.6802 159.811 46.3473 159.811C45.9754 159.811 45.6425 159.736 45.3483 159.586C45.0598 159.431 44.8322 159.206 44.6657 158.912C44.4992 158.618 44.416 158.262 44.416 157.846C44.416 157.252 44.588 156.775 44.9321 156.414C45.2762 156.048 45.7646 155.865 46.3972 155.865C47.1742 155.865 47.718 156.117 48.0288 156.622C48.3451 157.127 48.5033 157.879 48.5033 158.878C48.5033 159.578 48.4395 160.155 48.3118 160.61C48.1897 161.065 47.9789 161.412 47.6792 161.65C47.385 161.889 46.9799 162.008 46.4638 162.008C45.8978 162.008 45.4566 161.856 45.1402 161.55C44.8239 161.245 44.6435 160.857 44.5991 160.385H45.2984ZM46.4721 159.17C46.844 159.17 47.1492 159.056 47.3878 158.828C47.6265 158.595 47.7458 158.282 47.7458 157.888C47.7458 157.472 47.6292 157.136 47.3961 156.88C47.1631 156.625 46.8356 156.498 46.4139 156.498C46.0254 156.498 45.7146 156.62 45.4815 156.864C45.254 157.108 45.1402 157.43 45.1402 157.829C45.1402 158.235 45.254 158.559 45.4815 158.803C45.7091 159.048 46.0393 159.17 46.4721 159.17ZM52.9642 157.413C52.8421 156.797 52.462 156.489 51.8238 156.489C51.3298 156.489 50.9608 156.681 50.7166 157.064C50.4724 157.441 50.3531 158.065 50.3587 158.937C50.4863 158.648 50.6972 158.423 50.9913 158.262C51.291 158.096 51.624 158.013 51.9902 158.013C52.5619 158.013 53.0169 158.19 53.3555 158.545C53.6995 158.901 53.8716 159.392 53.8716 160.019C53.8716 160.396 53.7966 160.735 53.6468 161.034C53.5025 161.334 53.2805 161.573 52.9809 161.75C52.6867 161.928 52.3288 162.017 51.907 162.017C51.3354 162.017 50.8886 161.889 50.5668 161.634C50.2449 161.378 50.0201 161.026 49.8925 160.577C49.7649 160.127 49.701 159.572 49.701 158.912C49.701 156.875 50.4114 155.857 51.8321 155.857C52.3759 155.857 52.8033 156.004 53.114 156.298C53.4248 156.592 53.608 156.964 53.6635 157.413H52.9642ZM51.8321 158.654C51.5934 158.654 51.3687 158.704 51.1578 158.803C50.9469 158.898 50.7749 159.045 50.6417 159.245C50.514 159.439 50.4502 159.677 50.4502 159.961C50.4502 160.382 50.5723 160.726 50.8165 160.993C51.0607 161.254 51.4103 161.384 51.8654 161.384C52.2539 161.384 52.5619 161.265 52.7894 161.026C53.0225 160.782 53.139 160.454 53.139 160.044C53.139 159.611 53.028 159.272 52.806 159.028C52.5841 158.778 52.2594 158.654 51.8321 158.654ZM54.9351 158.928C54.9351 157.974 55.0905 157.23 55.4013 156.697C55.7121 156.159 56.2559 155.89 57.0329 155.89C57.8043 155.89 58.3454 156.159 58.6562 156.697C58.9669 157.23 59.1223 157.974 59.1223 158.928C59.1223 159.899 58.9669 160.654 58.6562 161.193C58.3454 161.731 57.8043 162 57.0329 162C56.2559 162 55.7121 161.731 55.4013 161.193C55.0905 160.654 54.9351 159.899 54.9351 158.928ZM58.3731 158.928C58.3731 158.445 58.3398 158.038 58.2732 157.705C58.2122 157.366 58.0818 157.094 57.882 156.889C57.6877 156.683 57.4047 156.581 57.0329 156.581C56.6555 156.581 56.3669 156.683 56.1672 156.889C55.9729 157.094 55.8425 157.366 55.7759 157.705C55.7149 158.038 55.6843 158.445 55.6843 158.928C55.6843 159.428 55.7149 159.847 55.7759 160.185C55.8425 160.524 55.9729 160.796 56.1672 161.001C56.3669 161.206 56.6555 161.309 57.0329 161.309C57.4047 161.309 57.6877 161.206 57.882 161.001C58.0818 160.796 58.2122 160.524 58.2732 160.185C58.3398 159.847 58.3731 159.428 58.3731 158.928ZM60.1123 161.392C60.8171 160.826 61.3693 160.363 61.7689 160.002C62.1685 159.636 62.5042 159.256 62.7762 158.862C63.0536 158.462 63.1924 158.071 63.1924 157.688C63.1924 157.327 63.1036 157.044 62.926 156.839C62.754 156.628 62.4737 156.523 62.0852 156.523C61.7079 156.523 61.4137 156.642 61.2028 156.88C60.9975 157.114 60.8865 157.427 60.8699 157.821H60.1373C60.1595 157.2 60.3482 156.72 60.7034 156.381C61.0586 156.042 61.5164 155.873 62.0769 155.873C62.6485 155.873 63.1008 156.031 63.4338 156.348C63.7723 156.664 63.9416 157.1 63.9416 157.655C63.9416 158.115 63.8028 158.565 63.5254 159.003C63.2534 159.436 62.9426 159.819 62.593 160.152C62.2434 160.479 61.7966 160.862 61.2528 161.301H64.1164V161.933H60.1123V161.392ZM65.017 157.496C65.0559 156.986 65.2529 156.586 65.6081 156.298C65.9633 156.009 66.4239 155.865 66.9899 155.865C67.3673 155.865 67.692 155.934 67.9639 156.073C68.2414 156.206 68.4495 156.389 68.5882 156.622C68.7325 156.856 68.8047 157.119 68.8047 157.413C68.8047 157.757 68.7048 158.054 68.505 158.304C68.3107 158.554 68.0555 158.715 67.7391 158.787V158.828C68.0999 158.917 68.3857 159.092 68.5965 159.353C68.8074 159.614 68.9129 159.955 68.9129 160.377C68.9129 160.693 68.8407 160.979 68.6964 161.234C68.5521 161.484 68.3357 161.681 68.0471 161.825C67.7586 161.969 67.4117 162.042 67.0066 162.042C66.4183 162.042 65.9355 161.889 65.5581 161.584C65.1808 161.273 64.9699 160.835 64.9255 160.269H65.658C65.6969 160.601 65.8328 160.873 66.0659 161.084C66.299 161.295 66.6098 161.401 66.9983 161.401C67.3867 161.401 67.6809 161.301 67.8806 161.101C68.086 160.896 68.1886 160.632 68.1886 160.31C68.1886 159.894 68.0499 159.594 67.7724 159.411C67.4949 159.228 67.076 159.136 66.5154 159.136H66.324V158.504H66.5238C67.0343 158.498 67.42 158.415 67.6809 158.254C67.9417 158.088 68.0721 157.832 68.0721 157.488C68.0721 157.194 67.975 156.958 67.7808 156.781C67.5921 156.603 67.3201 156.514 66.965 156.514C66.6209 156.514 66.3434 156.603 66.1325 156.781C65.9216 156.958 65.7968 157.197 65.7579 157.496H65.017Z" fill="black"/>
<rect x="4.39376" y="152.394" width="69.2125" height="13.2125" stroke="#FF0808" stroke-width="0.787518"/>
<path d="M102.615 148.137L113.994 108L124.55 128.008L102.615 148.137Z" fill="#028C3C"/>
<path d="M95.4502 148.137L106.829 108L117.385 128.008L95.4502 148.137Z" fill="#FE7A09"/>
</g>
<defs>
<clipPath id="clip0_5244_105091">
<rect width="220" height="180" fill="white"/>
</clipPath>
</defs>
</svg>
