<?xml version="1.0" encoding="utf-8"?>
<!-- Generator: Adobe Illustrator 23.1.0, SVG Export Plug-In . SVG Version: 6.00 Build 0)  -->
<!DOCTYPE svg PUBLIC "-//W3C//DTD SVG 1.1//EN" "http://www.w3.org/Graphics/SVG/1.1/DTD/svg11.dtd" [
	<!ENTITY ns_extend "http://ns.adobe.com/Extensibility/1.0/">
	<!ENTITY ns_ai "http://ns.adobe.com/AdobeIllustrator/10.0/">
	<!ENTITY ns_graphs "http://ns.adobe.com/Graphs/1.0/">
	<!ENTITY ns_vars "http://ns.adobe.com/Variables/1.0/">
	<!ENTITY ns_imrep "http://ns.adobe.com/ImageReplacement/1.0/">
	<!ENTITY ns_sfw "http://ns.adobe.com/SaveForWeb/1.0/">
	<!ENTITY ns_custom "http://ns.adobe.com/GenericCustomNamespace/1.0/">
	<!ENTITY ns_adobe_xpath "http://ns.adobe.com/XPath/1.0/">
]>
<svg version="1.1" xmlns:x="&ns_extend;" xmlns:i="&ns_ai;" xmlns:graph="&ns_graphs;"
	 xmlns="http://www.w3.org/2000/svg" xmlns:xlink="http://www.w3.org/1999/xlink" x="0px" y="0px" viewBox="0 0 298.687 207.465"
	 enable-background="new 0 0 298.687 207.465" xml:space="preserve">
<metadata>
	<sfw  xmlns="&ns_sfw;">
		<slices></slices>
		<sliceSourceBounds  bottomLeftOrigin="true" height="9029.608" width="9884.416" x="-6910.837" y="-816.766"></sliceSourceBounds>
	</sfw>
</metadata>
<g id="BG">
</g>
<g id="Object">
	<g>
		<path fill="#E30539" d="M168.74,102.611c4.94-2.71,9.124-5.017,13.319-7.304c7.103-3.872,14.233-7.696,21.303-11.627
			c1.475-0.82,2.403-0.693,3.677,0.458c3.998,5.949,4.911,7.384,3.553,14.961c-1.216,6.783-2.521,6.441-9.567,5.929
			C190.555,104.267,180.088,103.463,168.74,102.611z"/>
		<path fill="#E30539" d="M257.989,57.377c-2.816-6.038-5.71-12.056-8.145-18.251c-3.048-7.756-7.508-14.48-13.056-20.647
			c-4.885-5.43-9.413-11.182-14.099-16.791c-0.654,0.076-1.308,0.152-1.963,0.228c-1.093,2.431-1.767,4.814-0.824,7.565
			c6.378,18.596,15.812,35.465,28.357,50.595c0.479,0.577,0.725,1.782,1.971,1.065c1.972-1.135,4.206-1.11,6.365-1.305
			C258.425,59.669,258.811,59.14,257.989,57.377z M241.978,31.346c-2.533-2.646-5.093-5.267-7.592-7.945
			c-3.654-3.916-7.264-7.873-10.894-11.811c-1.594-1.729-2.228-3.647-1.053-6.575c7.244,8.579,14.55,16.535,21.005,25.174
			C242.955,30.575,242.466,30.961,241.978,31.346z"/>
		<path fill="#E30539" d="M258.298,83.318c-4.02-7.281-8.257-14.445-12.541-21.576c-3.166-5.269-7.159-6.699-13.179-5.106
			c-12.765,3.379-24.657,9.082-36.778,14.113c-7.258,3.012-14.127,4.228-21.539,1.089c-4.321-1.83-8.515-1.003-12.657,1.089
			c-9.388,4.741-17.456,11.261-25.298,18.142c-2.911,2.554-4.281,5.555-4.554,9.436c-0.172,2.45,0.657,2.825,2.659,2.75
			c6.029-0.224,12.059-0.453,18.091-0.535c2.648-0.036,4.592-0.7,6.962-2.398c17.813-12.759,36.13-24.77,56.115-33.964
			c5.088-2.341,10.327-4.277,16.009-4.698c1.835-0.136,3.244,0.323,4.103,2.02c4.954,9.783,10.432,19.248,17.038,28.026
			c0.42,0.558,0.785,1.125,0.27,1.756c-0.492,0.604-1.114,1.125-1.983,0.775c-0.709-0.285-1.54-0.504-2.044-1.019
			c-2.168-2.219-3.886-1.233-5.906,0.367c-8.941,7.08-18.542,13.202-28.073,19.451c-6.147,4.03-12.058,5.748-18.928,2.61
			c-0.098-0.045-0.211-0.064-0.32-0.076c-1.855-0.194-2.654-0.753-1.696-2.867c0.995-2.196,0.295-3.893-2.472-4.063
			c-1.094-0.067-2.189-0.143-3.285-0.171c-11.616-0.3-23.233-0.561-34.848-0.891c-23.562-0.671-47.126-1.261-70.698-1.343
			c-7.857-0.027-14.515,2.848-19.889,8.662c-1.45,1.568-1.871,2.729,0.239,4.136c1.907,1.272,3.572,2.905,5.366,4.352
			c2.131,1.72,4.088,4.362,6.483,4.859c2.642,0.548,4.829-2.501,7.359-3.714c0.75-0.36,1.534-1.429,2.278-0.779
			c0.919,0.802,0.966,2.189,0.766,3.391c-0.158,0.951-1.153,1.26-1.854,1.743c-6.223,4.288-12.434,8.595-18.714,12.799
			c-1.868,1.25-3.059,2.786-3.276,5.019c-0.241,2.484-0.443,4.971-0.724,8.163c2.206-1.436,3.749-2.45,5.302-3.449
			c6.171-3.969,12.387-7.87,18.498-11.929c2.714-1.803,3.968,0.592,5.15,1.869c1.5,1.62-0.909,1.925-1.684,2.643
			c-1.197,1.109-2.625,1.968-3.951,2.938c-1.283,0.939-0.997,2.174-0.361,3.226c0.876,1.45,1.751,0.087,2.417-0.323
			c7.368-4.531,14.691-9.136,22.034-13.709c0.598-0.372,1.276-1.232,1.956-0.541c0.728,0.74,0.243,1.652-0.393,2.325
			c-0.447,0.473-0.96,0.899-1.494,1.273c-14.443,10.12-29.129,19.863-44.321,28.837c-2.777,1.64-5.464,1.87-8.474,1.015
			c-4.794-1.361-9.154-3.646-13.447-6.074c-5.25-2.97-10.438-6.049-15.672-9.046c-3.87-2.216-7.754-1.96-11.602,0.091
			c-3.399,1.812-6.373,4.248-9.5,6.463c-1.929,1.366-2.511,2.924-1.23,5.363c2.847-1.867,5.613-3.781,8.491-5.506
			c0.875-0.524,1.932-2.321,2.947-0.909c1.045,1.452-0.761,2.27-1.759,2.979c-3.392,2.409-6.713,4.97-10.326,7
			c-3.186,1.79-3.688,4.194-3.199,7.417c0.315,2.078,1.003,2.009,2.486,1.017c2.183-1.459,4.543-2.661,6.687-4.171
			c1.718-1.21,2.98-1.041,4.632,0.232c7.299,5.629,14.827,10.967,22.006,16.742c2.619,2.107,4.554,1.856,6.989-0.074
			c-0.836-0.741-1.634-1.476-2.462-2.177c-6.199-5.246-12.354-10.545-18.632-15.695c-2.217-1.819-1.558-2.622,0.647-3.491
			c2.716-1.07,4.914,0.138,7.107,1.419c5.912,3.452,11.983,6.49,19.012,6.698c2.336,0.069,4.683-0.249,7.025-0.39
			c-2.371,2.3-4.918,4.092-7.49,5.848c-1.683,1.148-1.95,2.668-0.921,4.268c1.181,1.836,2.326,0.113,3.247-0.397
			c17.244-9.537,34.507-19.045,51.616-28.82c3.289-1.879,5.864-2.355,8.7,0.298c3.072,2.874,6.164,2.476,9.825,0.722
			c19.959-9.562,39.502-19.885,58.411-31.383c5.261-3.199,11.041-2.192,16.672-2.846c-0.499,0.753-1.072,1.214-1.71,1.552
			c-34.739,18.389-69.696,36.35-105.749,52.053c-15.647,6.815-31.277,13.844-48.352,16.612c-2.292,0.372-4.059,2.098-6.098,3.14
			c-0.507,0.259-0.857,0.525-0.484,1.245c1.41,2.721,5.213,4.306,8.014,2.954c1.38-0.666,2.012-0.44,2.507,0.788
			c1.504,3.728,3.931,3.109,6.884,1.782c28.859-12.966,57.805-25.74,86.622-38.796c26.118-11.833,52.642-22.836,77.699-36.891
			c13.656-7.66,27.417-15.205,39.454-25.378C262.463,96.957,263.328,92.428,258.298,83.318z M150.836,92.382
			c-3.042,2.209-7.034,0.817-10.643,0.992c3.639-8.327,18.619-15.088,27.994-12.287C162.1,84.863,156.332,88.393,150.836,92.382z
			 M181.765,79.768c-3.788,2.583-7.636,5.078-11.427,7.656c-0.752,0.512-1.342,0.656-1.983-0.066
			c-0.749-0.842-0.526-1.647,0.227-2.275c0.835-0.697,1.854-1.181,2.652-1.912c1.058-0.97,3.257-1.206,2.888-3.119
			c-0.324-1.683-2.304-1.341-3.572-1.76c-2.461-0.814-4.991-1.42-7.766-2.189c2.096-1.898,4.164-2.786,6.554-2.195
			c4.023,0.995,8.004,2.159,11.999,3.264C183.324,77.722,183.328,78.703,181.765,79.768z M188.958,114.311
			c-2.183,3.014-4.769,4.842-8.831,4.494c-31.405-2.689-62.822-5.254-94.232-7.888c-0.878-0.074-1.98,0.16-2.978-1.647
			c6.25,0.106,12.02,0.181,17.789,0.305c23.431,0.504,46.863,1.023,70.294,1.535c5.475,0.12,10.949,0.264,16.425,0.33
			C189.825,111.469,190.452,112.249,188.958,114.311z"/>
		<path fill="#E30539" d="M297.857,126.572c-6.813-19.807-17.559-37.341-31.131-53.569c-0.383,0.55-0.651,1.193-1.127,1.581
			c-5.498,4.475-4.007,9.229-1.178,14.579c3.467,6.558,5.053,14.184,9.464,20.139c6.374,8.608,13.652,16.549,20.599,24.729
			c1.521,1.791,2.861,1.263,3.69-0.762C299.101,131.004,298.636,128.837,297.857,126.572z M295.644,132.189
			c-2.821-3.267-5.464-6.28-8.055-9.338c-3.819-4.507-7.606-9.041-11.392-13.576c-0.716-0.857-1.473-2.026-0.43-2.839
			c0.846-0.66,1.438,0.663,1.981,1.239c5.632,5.972,11.235,11.97,16.822,17.984C296.204,127.418,297.106,129.37,295.644,132.189z"/>
		<path fill="#E3073A" d="M266.647,60.716c-2.756-0.229-5.453,0.163-8.166,0.43c-1.737,0.202-3.47,0.449-5.212,0.594
			c-2.304,0.191-2.922,1.3-1.777,3.261c2.309,3.952,4.697,7.858,7.038,11.791c0.994,1.669,2.126,1.768,3.332,0.28
			c3.198-3.943,5.571-8.347,7.139-13.171C269.676,61.826,268.82,60.897,266.647,60.716z M257.389,68.666
			c-1.186,0.734-1.623,0.276-2.262-0.671c-2.747-4.068-2.71-4.248,2.08-4.952c3.085-0.454,6.185-0.818,9.296-0.615
			c0.056,0.27,0.112,0.54,0.168,0.81C263.57,65.038,260.435,66.779,257.389,68.666z"/>
	</g>
	<g>
		<path fill="#E3063A" d="M233.995,92.048c0.176,0.462,0.121,0.747-0.164,0.855l-3.391,1.291c-0.283,0.108-1.424-0.656-3.42-2.293
			c-1.686-1.383-2.846-2.404-3.479-3.063c-0.623-0.629-0.975-0.979-1.057-1.049c-0.482-0.378-0.926-0.509-1.33-0.389
			c-0.123,0.036-0.453,0.155-0.994,0.361c-1.238,0.472-1.797,0.859-1.682,1.164c0.344,0.904,0.889,2.243,1.639,4.018
			c0.748,1.773,1.291,3.107,1.633,4.002c0.123,0.324,0.063,0.533-0.184,0.627c-0.186,0.071-0.473,0.163-0.855,0.275
			c-0.387,0.112-0.672,0.204-0.857,0.275c-0.178,0.067-0.436,0.182-0.773,0.345c-0.338,0.162-0.594,0.277-0.771,0.345
			c-0.246,0.093-0.41,0.026-0.496-0.199c-0.412-1.081-0.979-2.725-1.701-4.931c-0.721-2.205-1.287-3.85-1.699-4.931
			c-0.434-1.14-1.137-2.832-2.111-5.078c-0.973-2.245-1.676-3.938-2.109-5.077c-0.082-0.217-0.002-0.371,0.244-0.465
			c0.178-0.067,0.453-0.155,0.828-0.265s0.656-0.198,0.844-0.27c0.176-0.067,0.436-0.185,0.777-0.348
			c0.344-0.164,0.604-0.28,0.779-0.347c0.227-0.086,0.373-0.041,0.439,0.135c0.318,0.836,0.77,2.104,1.355,3.806
			c0.586,1.7,1.041,2.974,1.361,3.819c0.146,0.383,0.264,0.614,0.35,0.693c0.146,0.147,0.381,0.159,0.705,0.035
			c1.906-0.726,3.166-1.61,3.781-2.654c0.518-0.917,0.795-2.345,0.834-4.284c-0.01-1.503-0.021-3.007-0.029-4.511
			c0.004-0.193,0.113-0.364,0.328-0.513c0.143-0.099,0.656-0.317,1.539-0.654c1.082-0.411,1.68-0.465,1.795-0.16
			c0.068,0.178,0.145,1.06,0.232,2.646c0.098,1.853-0.037,3.569-0.402,5.148c-0.236,1.067-0.65,2.211-1.246,3.427
			c-0.156,0.296-0.203,0.527-0.139,0.695c0.066,0.176,0.799,0.904,2.197,2.184c1.209,1.104,2.25,1.962,3.125,2.574
			c0.906,0.521,2.213,1.355,3.924,2.506C233.897,91.866,233.956,91.949,233.995,92.048z"/>
	</g>
</g>
</svg>
