<?xml version="1.0" encoding="utf-8"?>
<!-- Generator: Adobe Illustrator 23.1.0, SVG Export Plug-In . SVG Version: 6.00 Build 0)  -->
<!DOCTYPE svg PUBLIC "-//W3C//DTD SVG 1.1//EN" "http://www.w3.org/Graphics/SVG/1.1/DTD/svg11.dtd" [
	<!ENTITY ns_extend "http://ns.adobe.com/Extensibility/1.0/">
	<!ENTITY ns_ai "http://ns.adobe.com/AdobeIllustrator/10.0/">
	<!ENTITY ns_graphs "http://ns.adobe.com/Graphs/1.0/">
	<!ENTITY ns_vars "http://ns.adobe.com/Variables/1.0/">
	<!ENTITY ns_imrep "http://ns.adobe.com/ImageReplacement/1.0/">
	<!ENTITY ns_sfw "http://ns.adobe.com/SaveForWeb/1.0/">
	<!ENTITY ns_custom "http://ns.adobe.com/GenericCustomNamespace/1.0/">
	<!ENTITY ns_adobe_xpath "http://ns.adobe.com/XPath/1.0/">
]>
<svg version="1.1" xmlns:x="&ns_extend;" xmlns:i="&ns_ai;" xmlns:graph="&ns_graphs;"
	 xmlns="http://www.w3.org/2000/svg" xmlns:xlink="http://www.w3.org/1999/xlink" x="0px" y="0px" viewBox="0 0 144 144"
	 enable-background="new 0 0 144 144" xml:space="preserve">
<metadata>
	<sfw  xmlns="&ns_sfw;">
		<slices></slices>
		<sliceSourceBounds  bottomLeftOrigin="true" height="9204.43" width="9884.416" x="-6910.837" y="-991.587"></sliceSourceBounds>
	</sfw>
</metadata>
<g id="BG">
</g>
<g id="Object">
	<g>
		<linearGradient id="SVGID_1_" gradientUnits="userSpaceOnUse" x1="1.0364" y1="72" x2="142.6032" y2="72">
			<stop  offset="0" style="stop-color:#F1D618"/>
			<stop  offset="1" style="stop-color:#ECB023"/>
		</linearGradient>
		<path fill="url(#SVGID_1_)" d="M79.556,0.981c-2.485-0.274-5.01-0.411-7.573-0.411s-5.088,0.137-7.574,0.411
			C28.518,4.759,0.553,35.111,0.553,72s27.965,67.242,63.856,71.019c2.485,0.274,5.01,0.411,7.574,0.411s5.088-0.137,7.573-0.411
			c35.891-3.777,63.856-34.13,63.856-71.019S115.446,4.759,79.556,0.981z M79.556,118.85c-2.466,0.391-4.99,0.607-7.573,0.607
			c-2.583,0-5.107-0.216-7.574-0.607C41.805,115.229,24.526,95.621,24.526,72c0-23.64,17.279-43.229,39.883-46.849
			c2.466-0.392,4.99-0.607,7.574-0.607c2.583,0,5.107,0.215,7.573,0.607c22.603,3.62,39.883,23.209,39.883,46.849
			C119.439,95.621,102.159,115.229,79.556,118.85z"/>
		
			<ellipse transform="matrix(0.1602 -0.9871 0.9871 0.1602 -10.6139 131.5156)" fill="#353841" stroke="#353841" stroke-width="0.9921" stroke-miterlimit="10" cx="71.982" cy="71.995" rx="47.456" ry="47.457"/>
		<path fill="#353841" stroke="#353841" stroke-width="0.7612" stroke-miterlimit="10" d="M79.556,0.981v142.037
			c-2.485,0.274-5.01,0.411-7.573,0.411s-5.088-0.137-7.574-0.411V0.981c2.485-0.274,5.01-0.411,7.574-0.411
			S77.07,0.708,79.556,0.981z"/>
		<path fill="#353841" stroke="#353841" stroke-width="0.7612" stroke-miterlimit="10" d="M27.198,16.557l100.435,100.435
			c-1.563,1.951-3.252,3.834-5.065,5.646c-1.812,1.813-3.695,3.501-5.646,5.065L16.488,27.268c1.563-1.951,3.252-3.833,5.065-5.646
			C23.365,19.809,25.247,18.121,27.198,16.557z"/>
		<path fill="#353841" stroke="#353841" stroke-width="0.7612" stroke-miterlimit="10" d="M16.764,116.95L117.199,16.516
			c1.951,1.563,3.833,3.252,5.646,5.065c1.813,1.813,3.501,3.695,5.065,5.646L27.474,127.661c-1.951-1.563-3.833-3.252-5.645-5.065
			C20.016,120.783,18.328,118.902,16.764,116.95z"/>
		<linearGradient id="SVGID_2_" gradientUnits="userSpaceOnUse" x1="1.0364" y1="71.9952" x2="142.6032" y2="71.9952">
			<stop  offset="0" style="stop-color:#F1D618"/>
			<stop  offset="1" style="stop-color:#ECB023"/>
		</linearGradient>
		<path fill="url(#SVGID_2_)" d="M111.611,71.996c0,21.886-17.743,39.628-39.629,39.628S32.353,93.882,32.353,71.996
			c0-21.887,17.743-39.629,39.629-39.629S111.611,50.109,111.611,71.996z"/>
		<path fill="#262933" d="M101.043,71.996c0,16.05-13.011,29.06-29.061,29.06c-16.05,0-29.061-13.011-29.061-29.06
			c0-16.05,13.011-29.061,29.061-29.061C88.032,42.935,101.043,55.945,101.043,71.996z"/>
		<g>
			<linearGradient id="SVGID_3_" gradientUnits="userSpaceOnUse" x1="27.0366" y1="71.8729" x2="117.027" y2="71.8729">
				<stop  offset="0" style="stop-color:#F1D618"/>
				<stop  offset="1" style="stop-color:#ECB023"/>
			</linearGradient>
			<path fill="url(#SVGID_3_)" d="M67.384,116.799c-0.053,0-0.106-0.002-0.159-0.008c-4.19-0.44-8.288-1.463-12.177-3.044
				c-0.769-0.313-1.138-1.189-0.827-1.958c0.315-0.771,1.193-1.135,1.958-0.827c3.629,1.475,7.451,2.431,11.359,2.84
				c0.825,0.086,1.424,0.825,1.338,1.651C68.794,116.226,68.143,116.799,67.384,116.799z M79.502,116.392
				c-0.716,0-1.352-0.515-1.479-1.246c-0.14-0.818,0.407-1.594,1.225-1.737c3.862-0.669,7.608-1.882,11.137-3.603
				c0.749-0.366,1.643-0.059,2.009,0.691c0.364,0.747,0.055,1.645-0.69,2.009c-3.783,1.847-7.801,3.145-11.942,3.866
				C79.674,116.384,79.588,116.392,79.502,116.392z M45.119,107.77c-0.323,0-0.651-0.104-0.926-0.321
				c-3.307-2.596-6.234-5.638-8.701-9.039c-0.487-0.673-0.337-1.612,0.334-2.099c0.671-0.493,1.612-0.338,2.099,0.335
				c2.302,3.177,5.035,6.017,8.122,8.44c0.653,0.513,0.767,1.458,0.254,2.109C46.007,107.572,45.564,107.77,45.119,107.77z
				 M101.098,105.874c-0.411,0-0.82-0.168-1.117-0.497c-0.556-0.618-0.505-1.567,0.112-2.122c2.92-2.627,5.458-5.643,7.539-8.967
				c0.442-0.698,1.367-0.915,2.071-0.475c0.702,0.44,0.915,1.368,0.475,2.072c-2.23,3.56-4.947,6.791-8.075,9.604
				C101.816,105.747,101.456,105.874,101.098,105.874z M31.027,88.314c-0.614,0-1.192-0.38-1.412-0.992
				c-1.428-3.946-2.295-8.077-2.574-12.281c-0.055-0.827,0.571-1.543,1.399-1.598c0.833-0.053,1.543,0.571,1.598,1.398
				c0.262,3.922,1.07,7.778,2.402,11.459c0.284,0.779-0.121,1.641-0.902,1.923C31.369,88.284,31.197,88.314,31.027,88.314z
				 M113.846,85.508c-0.137,0-0.276-0.018-0.415-0.059c-0.796-0.229-1.258-1.06-1.029-1.858c1.074-3.75,1.62-7.651,1.62-11.597
				c0.002-1.893-0.125-3.802-0.38-5.678c-0.111-0.822,0.466-1.579,1.287-1.69c0.847-0.115,1.579,0.468,1.69,1.287
				c0.272,2.009,0.409,4.057,0.407,6.084c0,4.223-0.585,8.403-1.737,12.423C115.102,85.08,114.5,85.508,113.846,85.508z
				 M29.407,64.345c-0.106,0-0.212-0.01-0.317-0.033c-0.81-0.174-1.329-0.973-1.155-1.784c0.88-4.112,2.334-8.077,4.324-11.786
				c0.391-0.73,1.295-1.013,2.034-0.614c0.732,0.394,1.005,1.303,0.614,2.034c-1.856,3.46-3.212,7.16-4.033,10.996
				C30.723,63.861,30.099,64.345,29.407,64.345z M111.843,55.945c-0.577,0-1.126-0.334-1.375-0.896
				c-1.581-3.582-3.658-6.931-6.175-9.951c-0.532-0.638-0.446-1.584,0.191-2.116c0.638-0.535,1.583-0.447,2.116,0.191
				c2.698,3.237,4.924,6.823,6.618,10.663c0.334,0.758-0.01,1.645-0.769,1.981C112.252,55.904,112.046,55.945,111.843,55.945z
				 M40.743,43.165c-0.378,0-0.755-0.141-1.047-0.425c-0.595-0.579-0.609-1.53-0.031-2.124c2.932-3.018,6.264-5.61,9.904-7.704
				c0.72-0.409,1.637-0.164,2.052,0.554c0.413,0.72,0.164,1.637-0.554,2.052c-3.4,1.953-6.51,4.372-9.247,7.191
				C41.525,43.013,41.134,43.165,40.743,43.165z M96.462,37.483c-0.29,0-0.585-0.084-0.843-0.26
				c-3.251-2.212-6.786-3.955-10.505-5.176c-0.788-0.26-1.216-1.109-0.959-1.898c0.26-0.787,1.104-1.222,1.898-0.958
				c3.985,1.31,7.772,3.177,11.256,5.548c0.686,0.468,0.864,1.4,0.397,2.087C97.414,37.252,96.943,37.483,96.462,37.483z
				 M61.574,31.207c-0.675,0-1.289-0.459-1.458-1.144c-0.198-0.806,0.295-1.62,1.102-1.817c4.057-0.996,8.298-1.434,12.484-1.262
				c0.829,0.031,1.475,0.73,1.442,1.559c-0.033,0.832-0.798,1.565-1.559,1.442c-3.901-0.145-7.866,0.252-11.651,1.179
				C61.814,31.194,61.693,31.207,61.574,31.207z"/>
		</g>
		<g>
			<g>
				<path fill="#353841" d="M24.526,72c0,4.787,0.721,9.405,2.041,13.763h90.831c1.32-4.358,2.041-8.976,2.041-13.763
					c0-4.666-0.683-9.171-1.937-13.43H26.463C25.209,62.829,24.526,67.334,24.526,72z"/>
				<path fill="#353841" stroke="#353841" stroke-width="0.9921" stroke-miterlimit="10" d="M24.526,72
					c0-4.666,0.683-9.171,1.937-13.43H1.815C0.987,62.92,0.553,67.409,0.553,72c0,4.709,0.461,9.309,1.331,13.763h24.683
					C25.247,81.405,24.526,76.787,24.526,72z"/>
				<path fill="#353841" stroke="#353841" stroke-width="0.9921" stroke-miterlimit="10" d="M142.149,58.57h-24.648
					c1.255,4.259,1.937,8.763,1.937,13.43c0,4.787-0.721,9.405-2.041,13.763h24.682c0.87-4.454,1.331-9.054,1.331-13.763
					C143.411,67.409,142.977,62.92,142.149,58.57z"/>
			</g>
			<path fill="none" d="M79.556,25.151c-2.466-0.392-4.99-0.607-7.574-0.607c-2.583,0-5.107,0.215-7.573,0.607
				c-18.142,2.905-32.844,16.102-37.945,33.42h91.038C112.4,41.253,97.697,28.056,79.556,25.151z"/>
			<path fill="none" d="M64.409,118.85c2.466,0.391,4.99,0.607,7.573,0.607c2.583,0,5.108-0.216,7.574-0.607
				c18.022-2.887,32.649-15.943,37.842-33.087H26.567C31.76,102.907,46.386,115.963,64.409,118.85z"/>
		</g>
		<g>
			<g>
				<path fill="#FCE135" d="M54.349,73.768v2.244c0,2.702-1.351,4.246-3.956,4.246s-3.956-1.544-3.956-4.246v-8.781
					c0-2.702,1.351-4.246,3.956-4.246s3.956,1.544,3.956,4.246v1.641H51.84v-1.81c0-1.206-0.53-1.665-1.375-1.665
					c-0.844,0-1.375,0.459-1.375,1.665v9.119c0,1.206,0.531,1.641,1.375,1.641c0.845,0,1.375-0.435,1.375-1.641v-2.413H54.349z"/>
				<path fill="#FCE135" d="M64.553,80.065h-2.678l-0.458-3.063h-3.257l-0.458,3.063h-2.437l2.701-16.887h3.885L64.553,80.065z
					 M58.499,74.709h2.557l-1.278-8.54L58.499,74.709z"/>
				<path fill="#FCE135" d="M69.353,62.985c2.581,0,3.908,1.544,3.908,4.246v0.651h-2.509v-0.82c0-1.206-0.482-1.665-1.327-1.665
					c-0.844,0-1.326,0.459-1.326,1.665c0,3.474,5.187,4.125,5.187,8.95c0,2.702-1.352,4.246-3.957,4.246
					c-2.604,0-3.956-1.544-3.956-4.246v-1.158h2.509v1.327c0,1.206,0.531,1.641,1.375,1.641c0.845,0,1.375-0.435,1.375-1.641
					c0-3.474-5.187-4.125-5.187-8.95C65.445,64.528,66.772,62.985,69.353,62.985z"/>
				<path fill="#FCE135" d="M74.805,63.178h2.653v16.887h-2.653V63.178z"/>
				<path fill="#FCE135" d="M81.753,67.834v12.23h-2.389V63.178h3.329l2.727,10.107V63.178h2.364v16.887h-2.727L81.753,67.834z"/>
				<path fill="#FCE135" d="M89.471,67.231c0-2.702,1.423-4.246,4.028-4.246s4.029,1.544,4.029,4.246v8.781
					c0,2.702-1.424,4.246-4.029,4.246s-4.028-1.544-4.028-4.246V67.231z M92.125,76.181c0,1.206,0.531,1.664,1.375,1.664
					c0.845,0,1.375-0.458,1.375-1.664v-9.119c0-1.206-0.53-1.665-1.375-1.665c-0.844,0-1.375,0.459-1.375,1.665V76.181z"/>
			</g>
			<g>
				<linearGradient id="SVGID_4_" gradientUnits="userSpaceOnUse" x1="46.4371" y1="71.6213" x2="97.5289" y2="71.6213">
					<stop  offset="0" style="stop-color:#F1D618"/>
					<stop  offset="1" style="stop-color:#ECB023"/>
				</linearGradient>
				<path fill="url(#SVGID_4_)" d="M54.349,73.768v2.244c0,2.702-1.351,4.246-3.956,4.246s-3.956-1.544-3.956-4.246v-8.781
					c0-2.702,1.351-4.246,3.956-4.246s3.956,1.544,3.956,4.246v1.641H51.84v-1.81c0-1.206-0.53-1.665-1.375-1.665
					c-0.844,0-1.375,0.459-1.375,1.665v9.119c0,1.206,0.531,1.641,1.375,1.641c0.845,0,1.375-0.435,1.375-1.641v-2.413H54.349z"/>
				<linearGradient id="SVGID_5_" gradientUnits="userSpaceOnUse" x1="46.4371" y1="71.6213" x2="97.5289" y2="71.6213">
					<stop  offset="0" style="stop-color:#F1D618"/>
					<stop  offset="1" style="stop-color:#ECB023"/>
				</linearGradient>
				<path fill="url(#SVGID_5_)" d="M64.553,80.065h-2.678l-0.458-3.063h-3.257l-0.458,3.063h-2.437l2.701-16.887h3.885
					L64.553,80.065z M58.499,74.709h2.557l-1.278-8.54L58.499,74.709z"/>
				<linearGradient id="SVGID_6_" gradientUnits="userSpaceOnUse" x1="46.4371" y1="71.6213" x2="97.5289" y2="71.6213">
					<stop  offset="0" style="stop-color:#F1D618"/>
					<stop  offset="1" style="stop-color:#ECB023"/>
				</linearGradient>
				<path fill="url(#SVGID_6_)" d="M69.353,62.985c2.581,0,3.908,1.544,3.908,4.246v0.651h-2.509v-0.82
					c0-1.206-0.482-1.665-1.327-1.665c-0.844,0-1.326,0.459-1.326,1.665c0,3.474,5.187,4.125,5.187,8.95
					c0,2.702-1.352,4.246-3.957,4.246c-2.604,0-3.956-1.544-3.956-4.246v-1.158h2.509v1.327c0,1.206,0.531,1.641,1.375,1.641
					c0.845,0,1.375-0.435,1.375-1.641c0-3.474-5.187-4.125-5.187-8.95C65.445,64.528,66.772,62.985,69.353,62.985z"/>
				<linearGradient id="SVGID_7_" gradientUnits="userSpaceOnUse" x1="46.4371" y1="71.6213" x2="97.5289" y2="71.6213">
					<stop  offset="0" style="stop-color:#F1D618"/>
					<stop  offset="1" style="stop-color:#ECB023"/>
				</linearGradient>
				<path fill="url(#SVGID_7_)" d="M74.805,63.178h2.653v16.887h-2.653V63.178z"/>
				<linearGradient id="SVGID_8_" gradientUnits="userSpaceOnUse" x1="46.4371" y1="71.6213" x2="97.5289" y2="71.6213">
					<stop  offset="0" style="stop-color:#F1D618"/>
					<stop  offset="1" style="stop-color:#ECB023"/>
				</linearGradient>
				<path fill="url(#SVGID_8_)" d="M81.753,67.834v12.23h-2.389V63.178h3.329l2.727,10.107V63.178h2.364v16.887h-2.727
					L81.753,67.834z"/>
				<linearGradient id="SVGID_9_" gradientUnits="userSpaceOnUse" x1="46.4371" y1="71.6213" x2="97.5289" y2="71.6213">
					<stop  offset="0" style="stop-color:#F1D618"/>
					<stop  offset="1" style="stop-color:#ECB023"/>
				</linearGradient>
				<path fill="url(#SVGID_9_)" d="M89.471,67.231c0-2.702,1.423-4.246,4.028-4.246s4.029,1.544,4.029,4.246v8.781
					c0,2.702-1.424,4.246-4.029,4.246s-4.028-1.544-4.028-4.246V67.231z M92.125,76.181c0,1.206,0.531,1.664,1.375,1.664
					c0.845,0,1.375-0.458,1.375-1.664v-9.119c0-1.206-0.53-1.665-1.375-1.665c-0.844,0-1.375,0.459-1.375,1.665V76.181z"/>
			</g>
		</g>
	</g>
</g>
</svg>
