<?xml version="1.0" encoding="utf-8"?>
<!-- Generator: Adobe Illustrator 23.1.0, SVG Export Plug-In . SVG Version: 6.00 Build 0)  -->
<!DOCTYPE svg PUBLIC "-//W3C//DTD SVG 1.1//EN" "http://www.w3.org/Graphics/SVG/1.1/DTD/svg11.dtd" [
	<!ENTITY ns_extend "http://ns.adobe.com/Extensibility/1.0/">
	<!ENTITY ns_ai "http://ns.adobe.com/AdobeIllustrator/10.0/">
	<!ENTITY ns_graphs "http://ns.adobe.com/Graphs/1.0/">
	<!ENTITY ns_vars "http://ns.adobe.com/Variables/1.0/">
	<!ENTITY ns_imrep "http://ns.adobe.com/ImageReplacement/1.0/">
	<!ENTITY ns_sfw "http://ns.adobe.com/SaveForWeb/1.0/">
	<!ENTITY ns_custom "http://ns.adobe.com/GenericCustomNamespace/1.0/">
	<!ENTITY ns_adobe_xpath "http://ns.adobe.com/XPath/1.0/">
]>
<svg version="1.1" xmlns:x="&ns_extend;" xmlns:i="&ns_ai;" xmlns:graph="&ns_graphs;"
	 xmlns="http://www.w3.org/2000/svg" xmlns:xlink="http://www.w3.org/1999/xlink" x="0px" y="0px" viewBox="0 0 144 144"
	 enable-background="new 0 0 144 144" xml:space="preserve">
<metadata>
	<sfw  xmlns="&ns_sfw;">
		<slices></slices>
		<sliceSourceBounds  bottomLeftOrigin="true" height="9204.43" width="9884.416" x="-6910.837" y="-991.587"></sliceSourceBounds>
	</sfw>
</metadata>
<g id="BG">
</g>
<g id="Object">
	<g>
		<linearGradient id="SVGID_1_" gradientUnits="userSpaceOnUse" x1="42.1316" y1="72" x2="115.7974" y2="72">
			<stop  offset="0" style="stop-color:#F1D618"/>
			<stop  offset="1" style="stop-color:#ECB023"/>
		</linearGradient>
		<path fill="url(#SVGID_1_)" d="M53.516,1.086c0.602,0.248,0.928,0.718,1.197,1.304c2.938,6.403,5.534,12.95,8.209,19.464
			c1.78,4.335,3.532,8.682,5.473,12.949c1.018,2.238,3.773,3.748,6.216,3.436c0.979-0.125,1.956-0.267,2.932-0.418
			c1.732-0.269,2.261-0.014,3.016,1.592c1.902,4.047,3.585,8.19,5.276,12.328c9.466,23.158,18.875,46.34,28.058,69.613
			c0.783,1.985,1.643,3.964,1.868,6.123c0.335,3.225-1.537,6.58-4.469,7.904c-5.76,2.6-11.649,4.88-17.556,7.124
			c-3.613,1.373-8.157-0.919-9.508-3.781c-1.336-2.828-2.579-5.693-3.759-8.585C70.033,104.572,59.663,78.98,49.548,53.285
			c-1.18-2.998-0.193-3.949,1.812-5.071c1.58-0.884,2.79-2.127,3.537-3.788c0.619-1.374,0.71-2.759,0.161-4.203
			c-2.288-6.021-4.739-11.977-7.115-17.964c-1.879-4.735-3.831-9.443-5.488-14.265c-0.634-1.845-0.418-2.628,1.372-3.598
			c2.56-1.387,5.229-2.536,8.086-3.191c0.058-0.013,0.104-0.078,0.156-0.119C52.552,1.086,53.034,1.086,53.516,1.086z"/>
		<linearGradient id="SVGID_2_" gradientUnits="userSpaceOnUse" x1="28.2026" y1="122.2745" x2="63.6164" y2="122.2745">
			<stop  offset="0" style="stop-color:#F1D618"/>
			<stop  offset="1" style="stop-color:#ECB023"/>
		</linearGradient>
		<path fill="url(#SVGID_2_)" d="M28.203,120.8c0.34-0.595,0.289-1.28,0.416-1.92c1.422-7.176,7.717-13.175,14.862-14.134
			c8.305-1.115,16.35,3.837,19.157,11.791c3.637,10.305-3.261,21.696-14.075,23.243c-9.609,1.375-18.623-5.299-20.11-14.873
			c-0.048-0.306,0.057-0.678-0.25-0.922c0-0.338,0-0.676,0-1.013c0.121-0.386,0.121-0.772,0-1.158
			C28.203,121.476,28.203,121.138,28.203,120.8z"/>
		<linearGradient id="SVGID_3_" gradientUnits="userSpaceOnUse" x1="28.2026" y1="122.3924" x2="28.3696" y2="122.3924">
			<stop  offset="0" style="stop-color:#F1D618"/>
			<stop  offset="1" style="stop-color:#ECB023"/>
		</linearGradient>
		<path fill="url(#SVGID_3_)" d="M28.203,121.813c0.216,0.386,0.229,0.772,0,1.158C28.203,122.585,28.203,122.199,28.203,121.813z"
			/>
	</g>
</g>
</svg>
