<?xml version="1.0" encoding="utf-8"?>
<!-- Generator: Adobe Illustrator 23.1.0, SVG Export Plug-In . SVG Version: 6.00 Build 0)  -->
<svg version="1.1" xmlns="http://www.w3.org/2000/svg" xmlns:xlink="http://www.w3.org/1999/xlink" x="0px" y="0px"
	 viewBox="0 0 144 144" enable-background="new 0 0 144 144" xml:space="preserve">
<g id="BG">
</g>
<g id="Object">
	<g>
		<linearGradient id="SVGID_1_" gradientUnits="userSpaceOnUse" x1="57.6986" y1="129.2465" x2="86.2825" y2="129.2465">
			<stop  offset="0" style="stop-color:#FAC63A"/>
			<stop  offset="1" style="stop-color:#FCE335"/>
		</linearGradient>
		<path fill="url(#SVGID_1_)" d="M71.991,114.954c-7.895,0-14.292,6.399-14.292,14.292c0,7.893,6.397,14.292,14.292,14.292
			c7.892,0,14.292-6.399,14.292-14.292C86.282,121.353,79.883,114.954,71.991,114.954z M69.07,117.349
			c0.452,0,0.821,0.367,0.821,0.821c0,0.454-0.369,0.821-0.821,0.821c-0.455,0-0.821-0.367-0.821-0.821
			C68.249,117.716,68.615,117.349,69.07,117.349z M69.07,120.989c0.481,0,0.871,0.391,0.871,0.872c0,0.482-0.39,0.872-0.871,0.872
			c-0.484,0-0.874-0.39-0.874-0.872C68.196,121.38,68.586,120.989,69.07,120.989z M69.07,124.655c0.496,0,0.898,0.403,0.898,0.899
			c0,0.497-0.402,0.899-0.898,0.899c-0.498,0-0.901-0.403-0.901-0.899C68.169,125.057,68.572,124.655,69.07,124.655z M69.07,141.145
			c-0.455,0-0.821-0.367-0.821-0.821c0-0.454,0.366-0.821,0.821-0.821c0.452,0,0.821,0.367,0.821,0.821
			C69.891,140.777,69.523,141.145,69.07,141.145z M69.07,137.504c-0.484,0-0.874-0.391-0.874-0.873c0-0.482,0.39-0.873,0.874-0.873
			c0.481,0,0.871,0.391,0.871,0.873C69.942,137.113,69.552,137.504,69.07,137.504z M69.07,133.838c-0.498,0-0.901-0.403-0.901-0.9
			c0-0.497,0.402-0.9,0.901-0.9c0.496,0,0.898,0.403,0.898,0.9C69.968,133.436,69.566,133.838,69.07,133.838z M69.07,130.203
			c-0.53,0-0.958-0.428-0.958-0.956c0-0.528,0.429-0.956,0.958-0.956c0.527,0,0.956,0.428,0.956,0.956
			C70.026,129.775,69.597,130.203,69.07,130.203z M74.911,117.349c0.453,0,0.821,0.367,0.821,0.821c0,0.454-0.368,0.821-0.821,0.821
			c-0.452,0-0.821-0.367-0.821-0.821C74.09,117.716,74.459,117.349,74.911,117.349z M74.911,120.989
			c0.482,0,0.872,0.391,0.872,0.872c0,0.482-0.39,0.872-0.872,0.872c-0.481,0-0.874-0.39-0.874-0.872
			C74.037,121.38,74.429,120.989,74.911,120.989z M74.911,124.655c0.496,0,0.901,0.403,0.901,0.899c0,0.497-0.404,0.899-0.901,0.899
			c-0.496,0-0.9-0.403-0.9-0.899C74.011,125.057,74.415,124.655,74.911,124.655z M74.911,141.145c-0.452,0-0.821-0.367-0.821-0.821
			c0-0.454,0.368-0.821,0.821-0.821c0.453,0,0.821,0.367,0.821,0.821C75.732,140.777,75.364,141.145,74.911,141.145z
			 M74.911,137.504c-0.481,0-0.874-0.391-0.874-0.873c0-0.482,0.392-0.873,0.874-0.873c0.482,0,0.872,0.391,0.872,0.873
			C75.783,137.113,75.393,137.504,74.911,137.504z M74.911,133.838c-0.496,0-0.9-0.403-0.9-0.9c0-0.497,0.404-0.9,0.9-0.9
			c0.496,0,0.901,0.403,0.901,0.9C75.812,133.436,75.407,133.838,74.911,133.838z M74.911,130.203c-0.527,0-0.956-0.428-0.956-0.956
			c0-0.528,0.428-0.956,0.956-0.956c0.527,0,0.956,0.428,0.956,0.956C75.867,129.775,75.438,130.203,74.911,130.203z"/>
		<linearGradient id="SVGID_2_" gradientUnits="userSpaceOnUse" x1="73.3075" y1="33.1952" x2="138.776" y2="33.1952">
			<stop  offset="0" style="stop-color:#FAC63A"/>
			<stop  offset="1" style="stop-color:#FCE335"/>
		</linearGradient>
		<path fill="url(#SVGID_2_)" d="M137.831,26.245c1.098-1.098,1.269-2.841,0.357-4.098c-2.769-3.811-6.029-7.649-9.739-11.358
			c-3.71-3.71-7.548-6.971-11.359-9.738c-1.257-0.913-3-0.742-4.098,0.357L73.307,41.091l24.838,24.838L137.831,26.245z"/>
		<linearGradient id="SVGID_3_" gradientUnits="userSpaceOnUse" x1="5.224" y1="113.6426" x2="45.9635" y2="113.6426">
			<stop  offset="0" style="stop-color:#FAC63A"/>
			<stop  offset="1" style="stop-color:#FCE335"/>
		</linearGradient>
		<path fill="url(#SVGID_3_)" d="M6.283,124.665c-1.399,1.366-1.413,3.612-0.031,4.995l3.325,3.324
			c1.384,1.383,3.631,1.369,4.996-0.032l31.391-32.198l-7.483-7.483L6.283,124.665z"/>
		<linearGradient id="SVGID_4_" gradientUnits="userSpaceOnUse" x1="34.6074" y1="86.5869" x2="70.6902" y2="86.5869">
			<stop  offset="0" style="stop-color:#FAC63A"/>
			<stop  offset="1" style="stop-color:#FCE335"/>
		</linearGradient>
		<path fill="url(#SVGID_4_)" d="M59.74,82.432l-9.99,11.522l-4.468-4.468l11.523-9.989L45.853,68.545L35.529,78.868
			c-1.161,1.162-1.221,2.993-0.202,4.282c2.08,2.635,3.518,5.601,4.36,8.697l7.702,7.702c3.096,0.844,6.062,2.28,8.696,4.36
			c1.291,1.018,3.12,0.959,4.283-0.203L70.69,93.383L59.74,82.432z"/>
		<linearGradient id="SVGID_5_" gradientUnits="userSpaceOnUse" x1="5.2243" y1="52.5452" x2="109.3913" y2="52.5452">
			<stop  offset="0" style="stop-color:#FAC63A"/>
			<stop  offset="1" style="stop-color:#FCE335"/>
		</linearGradient>
		<path fill="url(#SVGID_5_)" d="M96.609,99.55l7.702-7.702c0.845-3.096,2.28-6.062,4.36-8.697c1.018-1.29,0.961-3.12-0.202-4.282
			L31.007,1.407c-1.098-1.099-2.841-1.269-4.098-0.357c-3.811,2.767-7.649,6.029-11.359,9.738c-3.708,3.71-6.97,7.547-9.737,11.358
			c-0.912,1.257-0.741,3,0.357,4.098l77.462,77.462c1.16,1.162,2.993,1.222,4.281,0.203C90.549,101.83,93.515,100.394,96.609,99.55z
			 M76.173,71.411c0.443-0.443,1.156-0.469,1.628-0.058l20.916,18.133l-4.469,4.468L76.115,73.039
			C75.706,72.565,75.73,71.854,76.173,71.411z"/>
		<linearGradient id="SVGID_6_" gradientUnits="userSpaceOnUse" x1="98.0345" y1="113.6426" x2="138.7756" y2="113.6426">
			<stop  offset="0" style="stop-color:#FAC63A"/>
			<stop  offset="1" style="stop-color:#FCE335"/>
		</linearGradient>
		<path fill="url(#SVGID_6_)" d="M105.518,93.272l-7.483,7.483l31.391,32.198c1.367,1.4,3.614,1.415,4.996,0.032l3.325-3.324
			c1.384-1.383,1.37-3.63-0.031-4.995L105.518,93.272z"/>
	</g>
</g>
</svg>
