<?xml version="1.0" encoding="utf-8"?>
<!-- Generator: Adobe Illustrator 23.1.0, SVG Export Plug-In . SVG Version: 6.00 Build 0)  -->
<svg version="1.1" xmlns="http://www.w3.org/2000/svg" xmlns:xlink="http://www.w3.org/1999/xlink" x="0px" y="0px"
	 viewBox="0 0 144 144" enable-background="new 0 0 144 144" xml:space="preserve">
<g id="BG">
</g>
<g id="Object">
	<g>
		<g>
			<defs>
				<circle id="SVGID_41_" cx="72" cy="72" r="70.82"/>
			</defs>
			<clipPath id="SVGID_1_">
				<use xlink:href="#SVGID_41_"  overflow="visible"/>
			</clipPath>
			<g clip-path="url(#SVGID_1_)">
				<linearGradient id="SVGID_2_" gradientUnits="userSpaceOnUse" x1="33.9119" y1="13.8966" x2="38.7706" y2="13.8966">
					<stop  offset="0" style="stop-color:#FAC63A"/>
					<stop  offset="1" style="stop-color:#FCE335"/>
				</linearGradient>
				<path fill="url(#SVGID_2_)" d="M35.093,21.649c-0.012,0-0.025,0-0.037-0.001c-0.652-0.02-1.164-0.564-1.144-1.216
					c0.012-0.373,0.307-9.191,2.631-13.653c0.301-0.578,1.013-0.805,1.592-0.501c0.578,0.301,0.803,1.014,0.501,1.592
					c-2.074,3.982-2.362,12.549-2.365,12.635C36.252,21.145,35.728,21.649,35.093,21.649z"/>
			</g>
			<g clip-path="url(#SVGID_1_)">
				<linearGradient id="SVGID_3_" gradientUnits="userSpaceOnUse" x1="3.7384" y1="43.7793" x2="15.672" y2="43.7793">
					<stop  offset="0" style="stop-color:#FAC63A"/>
					<stop  offset="1" style="stop-color:#FCE335"/>
				</linearGradient>
				<path fill="url(#SVGID_3_)" d="M4.92,46.518c-0.414,0-0.816-0.218-1.032-0.605c-0.318-0.569-0.114-1.288,0.455-1.606
					c3.959-2.21,9.707-3.208,9.95-3.25c0.644-0.11,1.252,0.323,1.361,0.965c0.11,0.643-0.322,1.252-0.964,1.362
					c-0.055,0.009-5.596,0.974-9.197,2.984C5.312,46.47,5.115,46.518,4.92,46.518z"/>
			</g>
			<g clip-path="url(#SVGID_1_)">
				<linearGradient id="SVGID_4_" gradientUnits="userSpaceOnUse" x1="56.7415" y1="22.2327" x2="90.7046" y2="22.2327">
					<stop  offset="0" style="stop-color:#FAC63A"/>
					<stop  offset="1" style="stop-color:#FCE335"/>
				</linearGradient>
				<path fill="url(#SVGID_4_)" d="M57.923,28.207c-0.384,0-0.761-0.187-0.988-0.533c-0.358-0.545-0.206-1.277,0.339-1.634
					c0.438-0.288,10.98-7.075,32.099-9.772c0.654-0.08,1.239,0.376,1.321,1.022c0.082,0.647-0.375,1.237-1.021,1.32
					c-20.584,2.628-31.001,9.336-31.105,9.403C58.37,28.145,58.145,28.207,57.923,28.207z"/>
			</g>
			<g clip-path="url(#SVGID_1_)">
				<linearGradient id="SVGID_5_" gradientUnits="userSpaceOnUse" x1="109.7532" y1="53.6245" x2="115.7608" y2="53.6245">
					<stop  offset="0" style="stop-color:#FAC63A"/>
					<stop  offset="1" style="stop-color:#FCE335"/>
				</linearGradient>
				<path fill="url(#SVGID_5_)" d="M110.935,70.477c-0.081,0-0.161-0.008-0.243-0.025c-0.639-0.134-1.047-0.76-0.913-1.398
					c4.316-20.566,3.565-30.905,3.557-31.008c-0.051-0.649,0.433-1.218,1.082-1.27c0.666-0.051,1.218,0.432,1.271,1.081
					c0.035,0.428,0.798,10.727-3.601,31.682C111.972,70.095,111.481,70.477,110.935,70.477z"/>
			</g>
			<g clip-path="url(#SVGID_1_)">
				<linearGradient id="SVGID_6_" gradientUnits="userSpaceOnUse" x1="50.3626" y1="66.6197" x2="81.1335" y2="66.6197">
					<stop  offset="0" style="stop-color:#FAC63A"/>
					<stop  offset="1" style="stop-color:#FCE335"/>
				</linearGradient>
				<path fill="url(#SVGID_6_)" d="M79.953,80.024c-0.278,0-0.556-0.097-0.779-0.294C60.808,63.58,50.89,55.386,50.792,55.305
					c-0.503-0.415-0.575-1.159-0.16-1.662c0.415-0.503,1.161-0.574,1.662-0.16c0.099,0.081,10.041,8.295,28.438,24.473
					c0.49,0.43,0.537,1.176,0.107,1.666C80.607,79.889,80.281,80.024,79.953,80.024z"/>
			</g>
			<g clip-path="url(#SVGID_1_)">
				<linearGradient id="SVGID_7_" gradientUnits="userSpaceOnUse" x1="19.9046" y1="79.8901" x2="26.2942" y2="79.8901">
					<stop  offset="0" style="stop-color:#FAC63A"/>
					<stop  offset="1" style="stop-color:#FCE335"/>
				</linearGradient>
				<path fill="url(#SVGID_7_)" d="M21.231,96.56c-0.616,0-1.135-0.478-1.177-1.102c-1.048-15.79,3.732-30.791,3.936-31.422
					c0.202-0.621,0.866-0.957,1.486-0.76c0.62,0.201,0.96,0.866,0.76,1.486c-0.048,0.15-4.843,15.214-3.826,30.539
					c0.043,0.651-0.449,1.213-1.1,1.256C21.284,96.56,21.258,96.56,21.231,96.56z"/>
			</g>
			<g clip-path="url(#SVGID_1_)">
				<linearGradient id="SVGID_8_" gradientUnits="userSpaceOnUse" x1="43.4909" y1="113.3686" x2="77.3083" y2="113.3686">
					<stop  offset="0" style="stop-color:#FAC63A"/>
					<stop  offset="1" style="stop-color:#FCE335"/>
				</linearGradient>
				<path fill="url(#SVGID_8_)" d="M44.671,119.925c-0.528,0-1.008-0.356-1.144-0.89c-0.16-0.632,0.222-1.274,0.854-1.434
					c0.185-0.047,18.685-4.769,31.244-10.675c0.589-0.28,1.293-0.024,1.571,0.565c0.277,0.59,0.024,1.293-0.566,1.57
					c-12.766,6.003-31.481,10.78-31.669,10.827C44.864,119.913,44.767,119.925,44.671,119.925z"/>
			</g>
			<g clip-path="url(#SVGID_1_)">
				<linearGradient id="SVGID_9_" gradientUnits="userSpaceOnUse" x1="99.5269" y1="129.073" x2="105.0874" y2="129.073">
					<stop  offset="0" style="stop-color:#FAC63A"/>
					<stop  offset="1" style="stop-color:#FCE335"/>
				</linearGradient>
				<path fill="url(#SVGID_9_)" d="M100.707,139.28c-0.141,0-0.282-0.025-0.422-0.078c-0.609-0.233-0.913-0.915-0.68-1.524
					c3.34-8.737,3.118-17.507,3.115-17.595c-0.02-0.652,0.493-1.196,1.145-1.216c0.012,0,0.024-0.001,0.037-0.001
					c0.634,0,1.158,0.505,1.179,1.143c0.011,0.376,0.246,9.315-3.271,18.511C101.63,138.991,101.182,139.28,100.707,139.28z"/>
			</g>
			<g clip-path="url(#SVGID_1_)">
				<linearGradient id="SVGID_10_" gradientUnits="userSpaceOnUse" x1="44.8143" y1="137.8073" x2="76.8723" y2="137.8073">
					<stop  offset="0" style="stop-color:#FAC63A"/>
					<stop  offset="1" style="stop-color:#FCE335"/>
				</linearGradient>
				<path fill="url(#SVGID_10_)" d="M75.693,144.888c-0.073,0-0.146-0.006-0.22-0.021c-14.639-2.767-29.461-11.575-30.085-11.948
					c-0.56-0.335-0.741-1.06-0.406-1.619c0.335-0.56,1.06-0.741,1.619-0.406c0.149,0.089,15.093,8.966,29.31,11.654
					c0.641,0.121,1.062,0.738,0.941,1.379C76.744,144.493,76.25,144.888,75.693,144.888z"/>
			</g>
			<g clip-path="url(#SVGID_1_)">
				<linearGradient id="SVGID_11_" gradientUnits="userSpaceOnUse" x1="122.4277" y1="92.3899" x2="142.7486" y2="92.3899">
					<stop  offset="0" style="stop-color:#FAC63A"/>
					<stop  offset="1" style="stop-color:#FCE335"/>
				</linearGradient>
				<path fill="url(#SVGID_11_)" d="M124.28,95.843c-0.452,0-0.711-0.018-0.763-0.022c-0.65-0.051-1.137-0.618-1.086-1.269
					c0.051-0.649,0.625-1.134,1.266-1.085c0.067,0.001,6.891,0.436,17.374-4.422c0.596-0.273,1.294-0.017,1.568,0.575
					c0.274,0.591,0.017,1.293-0.574,1.567C132.896,95.436,126.425,95.843,124.28,95.843z"/>
			</g>
			<g clip-path="url(#SVGID_1_)">
				<linearGradient id="SVGID_12_" gradientUnits="userSpaceOnUse" x1="126.0046" y1="50.5394" x2="144.3382" y2="50.5394">
					<stop  offset="0" style="stop-color:#FAC63A"/>
					<stop  offset="1" style="stop-color:#FCE335"/>
				</linearGradient>
				<path fill="url(#SVGID_12_)" d="M143.156,65.601c-0.522,0-0.999-0.35-1.14-0.878c-4.424-16.692-15.521-27.093-15.632-27.196
					c-0.478-0.443-0.508-1.189-0.066-1.668c0.444-0.481,1.19-0.508,1.668-0.066c0.476,0.44,11.713,10.976,16.312,28.324
					c0.167,0.631-0.209,1.277-0.839,1.444C143.358,65.587,143.257,65.601,143.156,65.601z"/>
			</g>
			<g clip-path="url(#SVGID_1_)">
				<g>
					<linearGradient id="SVGID_13_" gradientUnits="userSpaceOnUse" x1="88.4277" y1="21.0822" x2="128.127" y2="21.0822">
						<stop  offset="0" style="stop-color:#FAC63A"/>
						<stop  offset="1" style="stop-color:#FCE335"/>
					</linearGradient>
					<path fill="url(#SVGID_13_)" d="M114.529,38.216c4.22-0.156,12.973-1.25,12.973-1.25c0.313-3.751,0.625-8.127,0.625-8.127
						l0-0.004c-9.097-11.81-21.832-20.66-36.533-24.886c-1.629,8.089-3.166,13.637-3.166,13.637
						C104.057,25.087,114.529,38.216,114.529,38.216z"/>
				</g>
				<g>
					<linearGradient id="SVGID_14_" gradientUnits="userSpaceOnUse" x1="14.1876" y1="42.2796" x2="58.2629" y2="42.2796">
						<stop  offset="0" style="stop-color:#FAC63A"/>
						<stop  offset="1" style="stop-color:#FCE335"/>
					</linearGradient>
					<path fill="url(#SVGID_14_)" d="M14.188,42.28c0,0,1.306,8.596,10.812,22.506c0,0,9.506-4.689,26.855-10.159
						c0,0,1.719-12.035,6.408-27.82c0,0-7.971-5.627-23.132-7.033C35.131,19.773,24.347,24.931,14.188,42.28z"/>
				</g>
				<g>
					<linearGradient id="SVGID_15_" gradientUnits="userSpaceOnUse" x1="75.2542" y1="94.6449" x2="124.1307" y2="94.6449">
						<stop  offset="0" style="stop-color:#FAC63A"/>
						<stop  offset="1" style="stop-color:#FCE335"/>
					</linearGradient>
					<path fill="url(#SVGID_15_)" d="M111.085,68.553c0,0-15.435,5.88-31.972,9.555c0,0-2.021,20.028-3.859,30.318
						c0,0,12.679,11.025,28.664,12.311c0,0,14.516-11.576,20.212-26.092C124.131,94.645,122.661,82.518,111.085,68.553z"/>
				</g>
				<g>
					<linearGradient id="SVGID_16_" gradientUnits="userSpaceOnUse" x1="7.8437" y1="114.488" x2="46.4061" y2="114.488">
						<stop  offset="0" style="stop-color:#FAC63A"/>
						<stop  offset="1" style="stop-color:#FCE335"/>
					</linearGradient>
					<path fill="url(#SVGID_16_)" d="M21.233,95.38c0,0-4.594,3.124-13.046,5.696l-0.343,0.919
						c6.239,13.32,16.5,24.369,29.224,31.601c0.867-0.33,1.438-0.548,1.438-0.548s5.464-0.437,7.901-0.898
						c0,0-1.141-4.841-0.735-13.617C45.671,118.532,29.869,107.875,21.233,95.38z"/>
				</g>
			</g>
		</g>
		<g>
			<linearGradient id="SVGID_17_" gradientUnits="userSpaceOnUse" x1="0" y1="72" x2="144" y2="72">
				<stop  offset="0" style="stop-color:#FAC63A"/>
				<stop  offset="1" style="stop-color:#FCE335"/>
			</linearGradient>
			<path fill="url(#SVGID_17_)" d="M72,144c-39.701,0-72-32.299-72-72C0,32.299,32.299,0,72,0s72,32.299,72,72
				C144,111.701,111.701,144,72,144z M72,2.361C33.601,2.361,2.361,33.601,2.361,72S33.601,141.639,72,141.639
				c38.399,0,69.639-31.24,69.639-69.639S110.399,2.361,72,2.361z"/>
		</g>
	</g>
</g>
</svg>
