<?xml version="1.0" encoding="utf-8"?>
<!-- Generator: Adobe Illustrator 23.1.0, SVG Export Plug-In . SVG Version: 6.00 Build 0)  -->
<svg version="1.1" xmlns="http://www.w3.org/2000/svg" xmlns:xlink="http://www.w3.org/1999/xlink" x="0px" y="0px"
	 viewBox="0 0 144 144" enable-background="new 0 0 144 144" xml:space="preserve">
<g id="BG">
</g>
<g id="Object">
	<g>
		<linearGradient id="SVGID_7_" gradientUnits="userSpaceOnUse" x1="107.4505" y1="125.1385" x2="142.5671" y2="125.1385">
			<stop  offset="0" style="stop-color:#FAC63A"/>
			<stop  offset="1" style="stop-color:#FCE335"/>
		</linearGradient>
		<path fill="url(#SVGID_7_)" d="M142.567,125.168c-4.107,1.489-7.792,3.247-11.674,4.51c-0.742,0.241-1.116,0.796-1.401,1.548
			c-1.421,3.76-2.918,7.491-4.481,11.471c-1.588-3.937-3.14-7.595-4.516-11.318c-0.39-1.054-0.966-1.456-1.94-1.823
			c-3.647-1.373-7.249-2.867-11.104-4.411c2.047-0.811,3.908-1.55,5.772-2.286c2.156-0.851,4.292-1.763,6.482-2.513
			c0.72-0.247,0.541-0.809,0.696-1.186c1.542-3.763,3.005-7.558,4.583-11.579c1.567,3.908,3.116,7.567,4.478,11.295
			c0.389,1.066,0.971,1.456,1.942,1.825C135.045,122.084,138.643,123.586,142.567,125.168z"/>
		<linearGradient id="SVGID_8_" gradientUnits="userSpaceOnUse" x1="80.2055" y1="108.332" x2="102.9354" y2="108.332">
			<stop  offset="0" style="stop-color:#FAC63A"/>
			<stop  offset="1" style="stop-color:#FCE335"/>
		</linearGradient>
		<path fill="url(#SVGID_8_)" d="M102.935,108.391c-2.499,0.967-4.651,1.78-6.786,2.635c-0.852,0.341-1.565,0.749-1.916,1.795
			c-0.75,2.234-1.715,4.395-2.723,6.913c-0.625-1.497-1.179-2.778-1.695-4.075c-0.351-0.884-0.736-1.769-0.951-2.69
			c-0.458-1.963-2.31-1.914-3.633-2.552c-1.538-0.742-3.198-1.233-5.025-1.916c1.584-1.075,3.287-1.294,4.74-2.068
			c0.592-0.316,1.276-0.464,1.927-0.661c1.172-0.355,1.708-1.23,2.099-2.322c0.743-2.071,1.574-4.112,2.505-6.52
			c0.961,2.46,1.772,4.55,2.594,6.636c0.394,0.999,0.911,1.819,2.049,2.213C98.296,106.53,100.425,107.419,102.935,108.391z"/>
		<linearGradient id="SVGID_9_" gradientUnits="userSpaceOnUse" x1="0" y1="72" x2="144" y2="72">
			<stop  offset="0" style="stop-color:#FAC63A"/>
			<stop  offset="1" style="stop-color:#FCE335"/>
		</linearGradient>
		<path fill="url(#SVGID_9_)" d="M120.724,52.934c5.312-1.754,10.627-3.497,15.941-5.245c2.327-0.765,4.652-1.535,7.335-2.421
			c-8.093-3.115-15.792-6.079-23.503-9.047c2.216-4.424,4.42-8.842,6.642-13.251c1.356-2.69,2.729-5.371,4.123-8.042
			c0.161-0.309,0.39-0.604,0.143-0.884c-0.314-0.355-0.599,0.108-0.842,0.21c-1.679,0.701-3.324,1.485-4.985,2.23
			c-5.273,2.365-10.551,4.72-15.82,7.094c-0.758,0.341-0.997,0.257-1.285-0.657c-1.709-5.423-3.548-10.804-5.334-16.202
			c-0.697-2.106-1.371-4.219-2.17-6.684c-3.103,8.068-6.063,15.766-9.03,23.481c-4.418-2.216-8.835-4.422-13.244-6.644
			c-2.689-1.355-5.369-2.726-8.039-4.118c-0.31-0.161-0.588-0.375-0.885-0.134c-0.25,0.203,0.046,0.392,0.135,0.589
			c1.311,2.905,2.615,5.813,3.919,8.721c1.621,3.615,3.28,7.214,4.846,10.853c1.034,2.403,0.973,2.424-1.463,3.221
			c-5.492,1.799-10.978,3.613-16.474,5.397c-1.541,0.5-3.113,0.906-4.835,1.699c7.501,2.886,14.735,5.669,22.285,8.573
			c-0.562,0.496-0.969,0.816-1.332,1.18C52.153,77.55,27.456,102.248,2.763,126.948c-3.366,3.367-3.639,6.856-0.913,10.808
			c1.052,1.526,2.451,2.718,3.763,3.98c3.291,3.165,8.198,2.849,11.295-0.256C41.406,116.917,65.95,92.4,90.481,67.87
			c0.295-0.295,0.603-0.576,0.939-0.896c2.426,7.032,4.824,13.986,7.351,21.312c3.114-8.096,6.076-15.796,9.053-23.536
			c7.378,3.758,14.757,7.516,22.461,11.44c-1.541-3.491-2.932-6.641-4.322-9.792c-1.856-4.205-3.683-8.423-5.598-12.601
			C120.08,53.176,120.311,53.07,120.724,52.934z M99.44,49.879c-0.12,0.723-0.525,1.321-1.046,1.842
			C88.381,61.739,78.361,71.75,68.361,81.781c-0.511,0.513-0.791,0.598-1.33,0.032c-1.562-1.641-3.168-3.242-4.805-4.808
			c-0.544-0.52-0.528-0.8,0.004-1.33c10.032-9.999,20.036-20.026,30.063-30.03c1.486-1.483,2.103-1.441,3.571,0.02
			c1.004,0.998,2.002,2.003,3.001,3.006C99.192,48.998,99.648,49.265,99.44,49.879z"/>
	</g>
</g>
</svg>
