<?xml version="1.0" encoding="utf-8"?>
<!-- Generator: Adobe Illustrator 23.1.0, SVG Export Plug-In . SVG Version: 6.00 Build 0)  -->
<svg version="1.1" xmlns="http://www.w3.org/2000/svg" xmlns:xlink="http://www.w3.org/1999/xlink" x="0px" y="0px"
	 viewBox="0 0 144 144" enable-background="new 0 0 144 144" xml:space="preserve">
<g id="BG">
</g>
<g id="Object">
	<g>
		<linearGradient id="SVGID_1_" gradientUnits="userSpaceOnUse" x1="127.8109" y1="116.5089" x2="127.8109" y2="29.1051">
			<stop  offset="0" style="stop-color:#FAC63A"/>
			<stop  offset="1" style="stop-color:#FCE335"/>
		</linearGradient>
		<path fill="url(#SVGID_1_)" d="M128.21,27.033L111.833,43.41c5.787,8.049,9.205,17.915,9.205,28.586
			c0,10.801-3.5,20.78-9.417,28.882l16.368,16.368C137.996,104.882,144,89.146,144,72C144,54.982,138.083,39.354,128.21,27.033z"/>
		<linearGradient id="SVGID_2_" gradientUnits="userSpaceOnUse" x1="45.5628" y1="32.1128" x2="45.5628" y2="1.1481">
			<stop  offset="0" style="stop-color:#FAC63A"/>
			<stop  offset="1" style="stop-color:#FCE335"/>
		</linearGradient>
		<path fill="url(#SVGID_2_)" d="M43.118,32.374c6.154-4.494,13.389-7.593,21.248-8.822V0.414
			C50.197,1.905,37.264,7.52,26.76,16.016L43.118,32.374z"/>
		<linearGradient id="SVGID_3_" gradientUnits="userSpaceOnUse" x1="98.5465" y1="32.2753" x2="98.5465" y2="1.1519">
			<stop  offset="0" style="stop-color:#FAC63A"/>
			<stop  offset="1" style="stop-color:#FCE335"/>
		</linearGradient>
		<path fill="url(#SVGID_3_)" d="M101.113,32.538l16.346-16.346C106.915,7.597,93.901,1.916,79.634,0.414v23.138
			C87.59,24.796,94.91,27.953,101.113,32.538z"/>
		<linearGradient id="SVGID_4_" gradientUnits="userSpaceOnUse" x1="16.2713" y1="116.7258" x2="16.2713" y2="28.8947">
			<stop  offset="0" style="stop-color:#FAC63A"/>
			<stop  offset="1" style="stop-color:#FCE335"/>
		</linearGradient>
		<path fill="url(#SVGID_4_)" d="M32.542,101.108c-6.018-8.143-9.581-18.21-9.581-29.113c0-10.772,3.482-20.726,9.37-28.816
			L15.964,26.813C5.986,39.167,0,54.881,0,72c0,17.247,6.072,33.07,16.185,45.466L32.542,101.108z"/>
		<linearGradient id="SVGID_5_" gradientUnits="userSpaceOnUse" x1="45.7007" y1="143.3265" x2="45.7007" y2="112.5571">
			<stop  offset="0" style="stop-color:#FAC63A"/>
			<stop  offset="1" style="stop-color:#FCE335"/>
		</linearGradient>
		<path fill="url(#SVGID_5_)" d="M43.415,111.828l-16.379,16.379c10.455,8.372,23.285,13.901,37.331,15.379v-23.148
			C56.632,119.229,49.505,116.206,43.415,111.828z"/>
		<linearGradient id="SVGID_6_" gradientUnits="userSpaceOnUse" x1="98.4084" y1="143.3252" x2="98.4084" y2="112.3972">
			<stop  offset="0" style="stop-color:#FAC63A"/>
			<stop  offset="1" style="stop-color:#FCE335"/>
		</linearGradient>
		<path fill="url(#SVGID_6_)" d="M100.816,111.664c-6.14,4.468-13.351,7.55-21.182,8.774v23.148
			c14.143-1.488,27.054-7.085,37.549-15.555L100.816,111.664z"/>
	</g>
	<g>
		<linearGradient id="SVGID_7_" gradientUnits="userSpaceOnUse" x1="26.6954" y1="71.8719" x2="117.4047" y2="71.8719">
			<stop  offset="0" style="stop-color:#FAC63A"/>
			<stop  offset="1" style="stop-color:#FCE335"/>
		</linearGradient>
		<path fill="url(#SVGID_7_)" d="M67.365,117.157c-0.053,0-0.107-0.002-0.16-0.008c-4.223-0.444-8.354-1.475-12.274-3.068
			c-0.775-0.315-1.147-1.198-0.834-1.973c0.318-0.777,1.203-1.144,1.974-0.834c3.658,1.487,7.511,2.45,11.45,2.863
			c0.832,0.087,1.436,0.832,1.349,1.665C68.786,116.579,68.13,117.157,67.365,117.157z M79.58,116.747
			c-0.722,0-1.362-0.519-1.491-1.256c-0.141-0.824,0.41-1.607,1.235-1.751c3.893-0.674,7.669-1.897,11.226-3.632
			c0.755-0.368,1.656-0.059,2.025,0.696c0.367,0.753,0.055,1.658-0.696,2.025c-3.813,1.861-7.864,3.17-12.038,3.896
			C79.754,116.739,79.667,116.747,79.58,116.747z M44.922,108.055c-0.325,0-0.656-0.105-0.933-0.323
			c-3.334-2.617-6.284-5.683-8.77-9.112c-0.491-0.678-0.339-1.625,0.337-2.116c0.676-0.497,1.625-0.341,2.116,0.338
			c2.32,3.202,5.075,6.065,8.187,8.508c0.658,0.517,0.773,1.469,0.256,2.126C45.817,107.856,45.371,108.055,44.922,108.055z
			 M101.348,106.144c-0.414,0-0.826-0.17-1.126-0.501c-0.56-0.623-0.509-1.579,0.113-2.139c2.944-2.648,5.501-5.688,7.599-9.039
			c0.446-0.704,1.378-0.923,2.088-0.479c0.708,0.444,0.923,1.379,0.479,2.088c-2.248,3.588-4.986,6.846-8.139,9.681
			C102.072,106.016,101.709,106.144,101.348,106.144z M30.717,88.444c-0.619,0-1.201-0.383-1.424-1
			c-1.44-3.977-2.313-8.141-2.595-12.379c-0.055-0.834,0.575-1.555,1.41-1.611c0.84-0.053,1.555,0.575,1.611,1.409
			c0.264,3.954,1.078,7.84,2.421,11.551c0.286,0.785-0.122,1.654-0.909,1.939C31.062,88.414,30.889,88.444,30.717,88.444z
			 M114.198,85.616c-0.138,0-0.278-0.018-0.418-0.059c-0.802-0.231-1.268-1.069-1.037-1.873c1.083-3.78,1.633-7.712,1.633-11.689
			c0.002-1.908-0.126-3.833-0.383-5.724c-0.112-0.828,0.469-1.591,1.298-1.704c0.854-0.116,1.591,0.471,1.704,1.298
			c0.274,2.025,0.412,4.089,0.41,6.133c0,4.256-0.59,8.471-1.751,12.523C115.464,85.184,114.857,85.616,114.198,85.616z
			 M29.085,64.284c-0.107,0-0.213-0.01-0.32-0.033c-0.817-0.176-1.339-0.981-1.164-1.798c0.887-4.145,2.353-8.142,4.358-11.88
			c0.394-0.736,1.305-1.021,2.05-0.619c0.737,0.397,1.013,1.314,0.619,2.05c-1.871,3.488-3.237,7.217-4.066,11.084
			C30.411,63.796,29.782,64.284,29.085,64.284z M112.179,55.816c-0.582,0-1.135-0.337-1.386-0.903
			c-1.593-3.61-3.687-6.986-6.225-10.03c-0.536-0.643-0.449-1.597,0.193-2.133c0.643-0.539,1.595-0.45,2.133,0.193
			c2.719,3.263,4.963,6.878,6.671,10.749c0.337,0.764-0.01,1.658-0.775,1.997C112.591,55.775,112.384,55.816,112.179,55.816z
			 M40.511,42.935c-0.381,0-0.761-0.142-1.055-0.428c-0.599-0.583-0.613-1.542-0.032-2.141c2.956-3.043,6.314-5.655,9.983-7.765
			c0.725-0.412,1.65-0.165,2.068,0.558c0.416,0.726,0.165,1.651-0.558,2.068c-3.427,1.968-6.562,4.407-9.321,7.248
			C41.3,42.781,40.905,42.935,40.511,42.935z M96.675,37.207c-0.292,0-0.59-0.085-0.85-0.262c-3.277-2.23-6.84-3.987-10.588-5.217
			c-0.795-0.262-1.226-1.118-0.966-1.913c0.262-0.793,1.112-1.232,1.913-0.966c4.017,1.321,7.834,3.202,11.346,5.592
			c0.692,0.471,0.871,1.411,0.4,2.104C97.635,36.974,97.16,37.207,96.675,37.207z M61.509,30.881c-0.68,0-1.299-0.463-1.469-1.153
			c-0.199-0.812,0.298-1.633,1.11-1.832c4.089-1.004,8.364-1.445,12.584-1.272c0.836,0.032,1.487,0.736,1.453,1.571
			c-0.033,0.838-0.804,1.578-1.571,1.454c-3.932-0.146-7.928,0.254-11.744,1.189C61.751,30.868,61.629,30.881,61.509,30.881z"/>
	</g>
	<g>
		<path fill="none" d="M79.634,24.776c-2.486-0.395-5.03-0.611-7.634-0.611c-2.604,0-5.148,0.217-7.634,0.611
			c-18.287,2.929-33.107,16.231-38.249,33.687h91.766C112.741,41.007,97.921,27.705,79.634,24.776z"/>
		<path fill="none" d="M64.366,119.224c2.486,0.394,5.03,0.611,7.634,0.611c2.604,0,5.148-0.217,7.634-0.611
			c18.166-2.91,32.91-16.07,38.145-33.352H26.222C31.456,103.154,46.2,116.314,64.366,119.224z"/>
	</g>
	<linearGradient id="SVGID_8_" gradientUnits="userSpaceOnUse" x1="72" y1="142.824" x2="72" y2="3.3073">
		<stop  offset="0" style="stop-color:#FAC63A"/>
		<stop  offset="1" style="stop-color:#FCE335"/>
	</linearGradient>
	<path fill="url(#SVGID_8_)" d="M72,32.05c-22.061,0-39.945,17.884-39.945,39.945c0,22.061,17.884,39.945,39.945,39.945
		c22.061,0,39.945-17.884,39.945-39.945C111.945,49.934,94.061,32.05,72,32.05z M86.317,54.035H75.909
		c2.557,1.852,4.201,4.492,4.815,7.743h5.592v5.851H80.81c-0.811,6.455-4.36,10.597-9.336,12.803l13.507,17.87H71.968L60.665,82.41
		h-5.573v-9.232h5.087c4.967,0,8.104-1.855,9.107-5.549H55.092v-5.405l5.858-0.445h8.244c-1.086-3.21-4.179-4.362-9.016-4.362
		h-5.087v-9.231h31.225V54.035z"/>
</g>
</svg>
