<?xml version="1.0" encoding="utf-8"?>
<!-- Generator: Adobe Illustrator 23.1.0, SVG Export Plug-In . SVG Version: 6.00 Build 0)  -->
<!DOCTYPE svg PUBLIC "-//W3C//DTD SVG 1.1//EN" "http://www.w3.org/Graphics/SVG/1.1/DTD/svg11.dtd" [
	<!ENTITY ns_extend "http://ns.adobe.com/Extensibility/1.0/">
	<!ENTITY ns_ai "http://ns.adobe.com/AdobeIllustrator/10.0/">
	<!ENTITY ns_graphs "http://ns.adobe.com/Graphs/1.0/">
	<!ENTITY ns_vars "http://ns.adobe.com/Variables/1.0/">
	<!ENTITY ns_imrep "http://ns.adobe.com/ImageReplacement/1.0/">
	<!ENTITY ns_sfw "http://ns.adobe.com/SaveForWeb/1.0/">
	<!ENTITY ns_custom "http://ns.adobe.com/GenericCustomNamespace/1.0/">
	<!ENTITY ns_adobe_xpath "http://ns.adobe.com/XPath/1.0/">
]>
<svg version="1.1" xmlns:x="&ns_extend;" xmlns:i="&ns_ai;" xmlns:graph="&ns_graphs;"
	 xmlns="http://www.w3.org/2000/svg" xmlns:xlink="http://www.w3.org/1999/xlink" x="0px" y="0px" viewBox="0 0 144 144"
	 enable-background="new 0 0 144 144" xml:space="preserve">
<metadata>
	<sfw  xmlns="&ns_sfw;">
		<slices></slices>
		<sliceSourceBounds  bottomLeftOrigin="true" height="9204.43" width="9884.416" x="-6910.837" y="-991.587"></sliceSourceBounds>
	</sfw>
</metadata>
<g id="BG">
</g>
<g id="Object">
	<g>
		<g>
			<linearGradient id="SVGID_1_" gradientUnits="userSpaceOnUse" x1="-1.818989e-12" y1="59.8679" x2="47.8242" y2="59.8679">
				<stop  offset="0" style="stop-color:#F1D618"/>
				<stop  offset="1" style="stop-color:#ECB023"/>
			</linearGradient>
			<path fill="url(#SVGID_1_)" d="M47.528,79.174l-9.136-29.053c-0.292-0.929-0.75-1.871-1.36-2.802
				c-0.596-0.908-1.308-1.761-2.117-2.535c-0.806-0.771-1.664-1.422-2.548-1.932c-0.896-0.517-1.776-0.866-2.615-1.034L3.164,36.464
				c-0.308-0.062-0.602-0.093-0.875-0.093c-0.339,0-0.647,0.048-0.917,0.143c-0.429,0.151-0.764,0.421-0.995,0.803
				C0.127,37.73,0,38.26,0,38.892c-0.001,0.705,0.157,1.496,0.467,2.351l9.982,27.428c0.294,0.807,0.726,1.63,1.283,2.447
				c0.543,0.796,1.182,1.551,1.897,2.245c0.715,0.692,1.47,1.287,2.245,1.77c0.789,0.491,1.562,0.841,2.297,1.04l25.745,6.981
				c0.518,0.14,1.006,0.212,1.449,0.212c0.218,0,0.427-0.018,0.621-0.052c0.521-0.092,0.939-0.305,1.243-0.631
				c0.31-0.333,0.5-0.78,0.567-1.329C47.874,80.719,47.784,79.986,47.528,79.174z M13.815,48.765
				c-0.045,0.112-0.096,0.219-0.161,0.313c-0.047,0.07-0.1,0.134-0.158,0.193c-0.115,0.119-0.251,0.216-0.404,0.29
				c-0.077,0.038-0.158,0.069-0.244,0.094c-0.257,0.076-0.554,0.098-0.885,0.06c-0.111-0.013-0.225-0.032-0.344-0.059
				c-0.471-0.106-0.957-0.314-1.433-0.599c-0.476-0.284-0.941-0.646-1.371-1.06c-0.104-0.1-0.198-0.212-0.297-0.318
				c-0.312-0.333-0.608-0.683-0.862-1.059c-0.251-0.372-0.469-0.761-0.642-1.156c-0.057-0.132-0.11-0.264-0.157-0.396
				c-0.142-0.399-0.226-0.772-0.256-1.113c-0.01-0.113-0.014-0.223-0.012-0.33c0.002-0.104,0.009-0.204,0.022-0.3
				c0.011-0.086,0.029-0.166,0.054-0.274c0.046-0.175,0.114-0.333,0.214-0.499c0.183-0.285,0.45-0.491,0.789-0.601
				c0.339-0.11,0.752-0.123,1.226-0.023c0.475,0.101,0.967,0.306,1.45,0.592c0.483,0.286,0.956,0.651,1.393,1.072
				c0.437,0.421,0.838,0.896,1.177,1.401c0.338,0.504,0.614,1.038,0.801,1.575c0.187,0.536,0.268,1.025,0.254,1.449
				C13.958,48.296,13.904,48.546,13.815,48.765z M21.364,70.623c-0.032,0.059-0.068,0.114-0.113,0.175
				c-0.048,0.062-0.101,0.119-0.159,0.171c-0.058,0.052-0.12,0.099-0.188,0.14c-0.135,0.083-0.288,0.145-0.458,0.183
				c-0.17,0.039-0.358,0.054-0.56,0.044c-0.203-0.009-0.421-0.044-0.654-0.104c-0.116-0.03-0.233-0.067-0.35-0.109
				c-0.352-0.125-0.707-0.301-1.057-0.516c-0.465-0.286-0.919-0.644-1.375-1.089c-0.284-0.279-0.544-0.582-0.786-0.896
				c-0.101-0.131-0.207-0.258-0.299-0.393c-0.081-0.119-0.157-0.239-0.23-0.361c-0.167-0.277-0.309-0.562-0.427-0.847
				c-0.037-0.089-0.075-0.178-0.107-0.268c-0.134-0.375-0.211-0.725-0.235-1.041c-0.008-0.106-0.01-0.207-0.007-0.305
				c0.003-0.091,0.012-0.178,0.025-0.262c0.009-0.06,0.023-0.115,0.052-0.233c0.02-0.07,0.045-0.136,0.076-0.208
				c0.029-0.067,0.063-0.13,0.152-0.274c0.186-0.254,0.453-0.432,0.789-0.516c0.337-0.085,0.745-0.077,1.211,0.039
				c0.468,0.117,0.95,0.331,1.422,0.619c0.472,0.287,0.934,0.649,1.359,1.059c0.425,0.41,0.813,0.869,1.14,1.352
				c0.326,0.483,0.589,0.989,0.766,1.495c0.176,0.505,0.248,0.961,0.227,1.352C21.56,70.138,21.487,70.403,21.364,70.623z
				 M23.903,51.317c-0.033,0.063-0.069,0.124-0.111,0.182c-0.204,0.281-0.493,0.481-0.853,0.582
				c-0.344,0.097-0.754,0.101-1.28-0.006c-0.245-0.055-0.493-0.136-0.741-0.24c-0.248-0.104-0.496-0.23-0.741-0.376
				c-0.489-0.291-0.967-0.66-1.406-1.083c-0.439-0.423-0.84-0.899-1.179-1.403c-0.338-0.505-0.613-1.039-0.799-1.578
				c-0.185-0.538-0.264-1.031-0.246-1.469c0.004-0.098,0.013-0.193,0.028-0.284c0.011-0.071,0.028-0.138,0.057-0.262
				c0.023-0.082,0.051-0.16,0.084-0.237c0.033-0.077,0.071-0.149,0.157-0.295c0.198-0.288,0.48-0.496,0.836-0.606
				c0.357-0.11,0.787-0.121,1.28-0.017c0.493,0.105,1,0.316,1.497,0.608c0.497,0.292,0.982,0.666,1.429,1.094
				c0.446,0.429,0.854,0.913,1.196,1.426c0.341,0.513,0.617,1.054,0.8,1.599c0.183,0.544,0.256,1.04,0.232,1.47
				c-0.015,0.264-0.071,0.5-0.156,0.712C23.961,51.199,23.934,51.26,23.903,51.317z M31.407,72.984
				c-0.03,0.076-0.063,0.149-0.103,0.216c-0.04,0.069-0.084,0.134-0.133,0.193c-0.206,0.25-0.494,0.42-0.851,0.496
				c-0.356,0.076-0.781,0.058-1.262-0.068c-0.121-0.031-0.242-0.069-0.363-0.112c-0.364-0.129-0.731-0.309-1.09-0.529
				c-0.479-0.293-0.944-0.658-1.371-1.07s-0.815-0.871-1.141-1.354c-0.326-0.483-0.589-0.99-0.763-1.496
				c-0.044-0.127-0.081-0.251-0.112-0.372c-0.062-0.241-0.098-0.47-0.11-0.684c-0.006-0.107-0.006-0.21,0-0.31
				c0.005-0.09,0.017-0.175,0.088-0.485c0.018-0.058,0.039-0.113,0.076-0.199c0.027-0.061,0.058-0.119,0.176-0.304
				c0.199-0.257,0.481-0.435,0.834-0.519c0.354-0.084,0.779-0.073,1.263,0.047c0.484,0.121,0.982,0.341,1.467,0.635
				c0.486,0.295,0.959,0.664,1.393,1.082c0.434,0.418,0.828,0.886,1.158,1.377c0.329,0.491,0.593,1.005,0.765,1.518
				c0.172,0.512,0.236,0.973,0.205,1.369C31.517,72.624,31.474,72.812,31.407,72.984z M34.108,54.32
				c-0.151,0.098-0.323,0.173-0.511,0.223c-0.284,0.075-0.607,0.094-0.967,0.05c-0.12-0.015-0.243-0.036-0.371-0.065
				c-0.381-0.086-0.768-0.231-1.151-0.423c-0.128-0.064-0.254-0.134-0.38-0.208c-0.389-0.23-0.769-0.508-1.129-0.821
				c-0.106-0.092-0.21-0.186-0.312-0.284c-0.112-0.108-0.221-0.219-0.328-0.333c-0.32-0.342-0.613-0.71-0.869-1.095
				c-0.171-0.257-0.324-0.521-0.458-0.789c-0.067-0.134-0.129-0.27-0.185-0.405c-0.057-0.136-0.108-0.272-0.153-0.409
				c-0.136-0.411-0.21-0.794-0.227-1.144c-0.005-0.117-0.005-0.23,0.002-0.338c0.006-0.1,0.019-0.195,0.097-0.541
				c0.021-0.07,0.046-0.136,0.084-0.226c0.031-0.071,0.067-0.139,0.184-0.333c0.213-0.291,0.512-0.5,0.886-0.609
				c0.375-0.11,0.824-0.119,1.335-0.01c0.513,0.109,1.038,0.326,1.55,0.625c0.512,0.299,1.01,0.681,1.466,1.118
				c0.456,0.437,0.87,0.93,1.215,1.453c0.344,0.522,0.619,1.072,0.798,1.626s0.243,1.056,0.208,1.492
				c-0.027,0.34-0.118,0.638-0.261,0.888c-0.039,0.07-0.081,0.137-0.129,0.199c-0.055,0.071-0.116,0.136-0.181,0.196
				C34.255,54.217,34.184,54.271,34.108,54.32z M41.911,75.578c-0.034,0.084-0.073,0.164-0.119,0.24
				c-0.045,0.074-0.096,0.144-0.152,0.209c-0.055,0.063-0.116,0.121-0.181,0.173c-0.196,0.158-0.438,0.268-0.719,0.323
				c-0.093,0.019-0.191,0.031-0.293,0.038c-0.102,0.007-0.208,0.007-0.318,0.001c-0.22-0.012-0.456-0.05-0.706-0.116
				c-0.374-0.098-0.754-0.25-1.128-0.447c-0.125-0.065-0.249-0.136-0.372-0.211c-0.123-0.075-0.245-0.154-0.366-0.238
				c-0.362-0.251-0.712-0.539-1.039-0.854c-0.107-0.103-0.212-0.21-0.314-0.318c-0.105-0.112-0.207-0.227-0.306-0.344
				c-0.097-0.115-0.191-0.233-0.281-0.353c-0.09-0.119-0.177-0.241-0.259-0.363c-0.082-0.123-0.16-0.247-0.234-0.373
				c-0.193-0.33-0.351-0.667-0.528-1.149c-0.085-0.258-0.144-0.503-0.177-0.734c-0.016-0.115-0.026-0.228-0.03-0.336
				c-0.004-0.108-0.002-0.213,0.007-0.313c0.012-0.146,0.041-0.279,0.096-0.469c0.065-0.2,0.157-0.38,0.281-0.529
				c0.214-0.259,0.513-0.437,0.882-0.52c0.371-0.083,0.814-0.069,1.315,0.056c0.504,0.125,1.018,0.351,1.518,0.652
				c0.5,0.301,0.985,0.678,1.428,1.104c0.443,0.426,0.844,0.902,1.176,1.402c0.332,0.499,0.595,1.022,0.763,1.543
				c0.167,0.52,0.224,0.988,0.183,1.389C42.02,75.237,41.976,75.416,41.911,75.578z"/>
			<linearGradient id="SVGID_2_" gradientUnits="userSpaceOnUse" x1="40.6603" y1="49.2226" x2="77.8489" y2="49.2226">
				<stop  offset="0" style="stop-color:#F1D618"/>
				<stop  offset="1" style="stop-color:#ECB023"/>
			</linearGradient>
			<path fill="url(#SVGID_2_)" d="M77.8,49.071l-7.429-28.316c-0.23-0.876-0.561-1.615-0.985-2.195
				c-0.384-0.526-0.825-0.896-1.312-1.101c-0.284-0.12-0.583-0.181-0.887-0.181c-0.192,0-0.39,0.024-0.587,0.072
				c-0.573,0.14-1.148,0.473-1.709,0.992l-20.94,19.345c-0.66,0.61-1.25,1.39-1.751,2.318c-0.494,0.913-0.879,1.925-1.145,3.008
				c-0.267,1.086-0.4,2.181-0.395,3.257c0.005,1.1,0.155,2.127,0.445,3.05l9.139,29.052c0.254,0.807,0.609,1.459,1.056,1.938
				c0.397,0.425,0.851,0.696,1.35,0.803c0.161,0.034,0.327,0.052,0.496,0.052c0.35,0,0.717-0.075,1.088-0.224
				c0.134-0.053,0.268-0.12,0.401-0.192l9.574-21.492c0.5-1.121,1.682-3.233,3.291-5.167c-0.017-0.204-0.035-0.408-0.032-0.618
				c0.006-0.582,0.084-1.178,0.224-1.755c0.14-0.577,0.343-1.134,0.6-1.637c0.257-0.502,0.567-0.949,0.923-1.307
				c0.355-0.357,0.722-0.592,1.081-0.711c0.358-0.118,0.708-0.121,1.031-0.014c0.322,0.107,0.617,0.322,0.866,0.639
				c0.093,0.119,0.177,0.256,0.257,0.403c0.049,0.09,0.094,0.185,0.137,0.285c0.059,0.139,0.112,0.286,0.196,0.56
				c0.002,0.007,0.002,0.014,0.004,0.021c1.131-0.482,2.263-0.736,3.361-0.736c0.125,0,0.241,0.003,0.345,0.008l1.356,0.062
				C77.832,49.219,77.819,49.143,77.8,49.071z M51.191,45.879c-0.028,0.153-0.061,0.306-0.098,0.457
				c-0.037,0.152-0.078,0.302-0.124,0.45c-0.091,0.296-0.199,0.585-0.323,0.861c-0.062,0.138-0.128,0.274-0.197,0.405
				c-0.07,0.132-0.143,0.26-0.22,0.384c-0.154,0.249-0.323,0.48-0.506,0.691c-0.091,0.105-0.186,0.206-0.284,0.3
				c-0.393,0.379-0.801,0.629-1.203,0.757c-0.302,0.096-0.601,0.123-0.888,0.084c-0.096-0.013-0.19-0.034-0.282-0.061
				c-0.085-0.026-0.167-0.058-0.249-0.096c-0.054-0.025-0.106-0.057-0.228-0.126c-0.067-0.042-0.132-0.091-0.211-0.154
				c-0.11-0.09-0.217-0.188-0.317-0.303c-0.293-0.34-0.536-0.791-0.706-1.347c-0.17-0.556-0.251-1.164-0.252-1.787
				c-0.001-0.623,0.079-1.261,0.23-1.877c0.151-0.616,0.373-1.208,0.658-1.741c0.284-0.533,0.631-1.005,1.03-1.381
				c0.398-0.375,0.811-0.619,1.216-0.738c0.404-0.119,0.801-0.113,1.169,0.008c0.263,0.087,0.509,0.236,0.734,0.439
				c0.089,0.08,0.174,0.166,0.257,0.265c0.286,0.345,0.521,0.797,0.685,1.351c0.164,0.553,0.241,1.154,0.24,1.769
				C51.32,44.95,51.276,45.418,51.191,45.879z M57.964,67.74c-0.038,0.298-0.093,0.597-0.164,0.891
				c-0.108,0.441-0.252,0.873-0.43,1.281c-0.059,0.136-0.122,0.269-0.189,0.399c-0.2,0.391-0.433,0.753-0.695,1.072
				c-0.087,0.106-0.177,0.208-0.271,0.304c-0.374,0.385-0.764,0.648-1.147,0.794c-0.288,0.11-0.573,0.153-0.845,0.132
				c-0.091-0.007-0.181-0.021-0.268-0.042c-0.088-0.021-0.174-0.05-0.259-0.085c-0.169-0.071-0.329-0.17-0.479-0.296
				c-0.075-0.063-0.147-0.133-0.217-0.21c-0.277-0.309-0.507-0.726-0.667-1.248c-0.16-0.522-0.235-1.099-0.233-1.695
				c0.001-0.597,0.08-1.212,0.226-1.81c0.146-0.598,0.359-1.178,0.632-1.705c0.272-0.526,0.603-0.999,0.984-1.382
				c0.38-0.383,0.774-0.64,1.16-0.777c0.385-0.137,0.763-0.155,1.112-0.061c0.259,0.07,0.502,0.203,0.721,0.395
				c0.076,0.067,0.149,0.14,0.219,0.22c0.203,0.235,0.38,0.529,0.52,0.882c0.047,0.117,0.089,0.241,0.128,0.371
				c0.115,0.39,0.184,0.809,0.21,1.242c0.009,0.144,0.012,0.29,0.012,0.437C58.022,67.144,58.001,67.442,57.964,67.74z
				 M62.429,48.903c-0.038,0.299-0.093,0.598-0.165,0.891c-0.143,0.586-0.351,1.153-0.615,1.664
				c-0.23,0.445-0.505,0.845-0.815,1.185c-0.047,0.051-0.092,0.104-0.14,0.152c-0.093,0.092-0.186,0.177-0.28,0.254
				c-0.094,0.077-0.189,0.146-0.284,0.208c-0.19,0.123-0.38,0.216-0.57,0.28c-0.07,0.023-0.14,0.039-0.209,0.054
				c-0.119,0.026-0.237,0.045-0.352,0.048c-0.092,0.002-0.183-0.002-0.273-0.014c-0.089-0.012-0.177-0.031-0.267-0.058
				c-0.078-0.024-0.154-0.054-0.229-0.089c-0.05-0.023-0.098-0.052-0.212-0.119c-0.062-0.04-0.121-0.085-0.196-0.145
				c-0.104-0.086-0.206-0.18-0.299-0.292c-0.273-0.326-0.498-0.759-0.654-1.293c-0.156-0.536-0.229-1.123-0.226-1.725
				c0.003-0.602,0.081-1.219,0.227-1.816c0.146-0.596,0.358-1.171,0.628-1.688c0.27-0.517,0.598-0.977,0.975-1.344
				c0.375-0.365,0.764-0.604,1.145-0.723c0.38-0.118,0.753-0.117,1.097-0.003c0.241,0.08,0.466,0.218,0.673,0.405
				c0.088,0.08,0.173,0.167,0.254,0.266c0.133,0.165,0.255,0.357,0.362,0.574c0.107,0.217,0.199,0.459,0.274,0.726
				c0.075,0.266,0.13,0.544,0.165,0.83c0.018,0.143,0.03,0.288,0.038,0.434c0.008,0.146,0.011,0.294,0.01,0.442
				C62.488,48.304,62.467,48.604,62.429,48.903z M67.104,30.214c-0.038,0.3-0.093,0.598-0.164,0.889
				c-0.107,0.438-0.249,0.862-0.424,1.259c-0.058,0.132-0.12,0.261-0.186,0.387c-0.262,0.503-0.58,0.948-0.946,1.3
				c-0.274,0.265-0.556,0.458-0.837,0.585c-0.094,0.042-0.187,0.077-0.281,0.104c-0.373,0.109-0.74,0.098-1.081-0.025
				c-0.076-0.028-0.151-0.062-0.429-0.23c-0.049-0.035-0.098-0.073-0.186-0.149c-0.108-0.095-0.212-0.2-0.308-0.323
				c-0.268-0.343-0.488-0.791-0.641-1.339c-0.152-0.548-0.222-1.143-0.218-1.749c0.005-0.607,0.084-1.225,0.229-1.818
				c0.145-0.593,0.355-1.161,0.623-1.669c0.267-0.507,0.591-0.953,0.962-1.303c0.372-0.35,0.755-0.57,1.13-0.67
				c0.375-0.1,0.741-0.079,1.08,0.054c0.222,0.087,0.43,0.227,0.623,0.408c0.044,0.042,0.087,0.084,0.129,0.131
				c0.054,0.058,0.107,0.119,0.158,0.185c0.196,0.26,0.365,0.578,0.5,0.951c0.045,0.124,0.086,0.255,0.123,0.391
				c0.036,0.136,0.068,0.275,0.095,0.416c0.08,0.424,0.116,0.867,0.111,1.316C67.163,29.613,67.142,29.914,67.104,30.214z"/>
			<linearGradient id="SVGID_3_" gradientUnits="userSpaceOnUse" x1="1.6845" y1="23.7832" x2="64.2366" y2="23.7832">
				<stop  offset="0" style="stop-color:#F1D618"/>
				<stop  offset="1" style="stop-color:#ECB023"/>
			</linearGradient>
			<path fill="url(#SVGID_3_)" d="M64.16,13.668c-0.124-0.332-0.398-0.626-0.815-0.873c-0.498-0.296-1.161-0.505-1.97-0.62
				L35.038,8.414c-0.395-0.057-0.824-0.085-1.275-0.085c-0.412,0-0.847,0.023-1.292,0.071c-0.921,0.098-1.872,0.291-2.829,0.573
				c-0.958,0.283-1.873,0.642-2.717,1.066c-0.866,0.435-1.62,0.919-2.241,1.44L3.49,29.232c-0.659,0.552-1.15,1.107-1.459,1.65
				c-0.261,0.457-0.378,0.894-0.34,1.261c0.035,0.34,0.198,0.628,0.499,0.881c0.366,0.308,0.927,0.545,1.622,0.685L30.4,39.066
				c0.567,0.114,1.195,0.172,1.865,0.172c0.327,0,0.667-0.014,1.01-0.041c1.041-0.083,2.118-0.286,3.199-0.604
				c1.083-0.317,2.112-0.732,3.058-1.232c0.966-0.51,1.797-1.085,2.47-1.707l20.939-19.349c0.564-0.521,0.965-1.057,1.159-1.548
				C64.259,14.354,64.279,13.987,64.16,13.668z M26.939,16.065c-0.007-0.058-0.009-0.118-0.005-0.191
				c0.004-0.057,0.01-0.113,0.077-0.367c0.025-0.069,0.055-0.139,0.091-0.21c0.08-0.154,0.187-0.312,0.321-0.472
				c0.135-0.16,0.297-0.322,0.488-0.484c0.095-0.081,0.195-0.16,0.3-0.237c0.313-0.231,0.664-0.443,1.04-0.633
				c0.5-0.253,1.045-0.466,1.601-0.63c0.278-0.082,0.559-0.152,0.839-0.208c0.28-0.056,0.559-0.099,0.832-0.127
				c0.547-0.056,1.074-0.053,1.548,0.018c0.475,0.071,0.852,0.205,1.127,0.386c0.207,0.135,0.356,0.298,0.446,0.481
				c0.03,0.061,0.053,0.124,0.098,0.378c0.004,0.064,0.001,0.13-0.008,0.198c-0.018,0.153-0.065,0.312-0.146,0.477
				c-0.152,0.311-0.416,0.638-0.796,0.967s-0.841,0.627-1.348,0.885c-0.507,0.258-1.061,0.475-1.627,0.642
				c-0.566,0.167-1.143,0.283-1.698,0.338c-0.555,0.055-1.087,0.049-1.563-0.027c-0.474-0.076-0.847-0.215-1.116-0.401
				C27.171,16.658,27.007,16.426,26.939,16.065z M30.098,26.09c-0.493-0.087-0.881-0.24-1.162-0.442
				c-0.28-0.202-0.452-0.453-0.525-0.854c-0.007-0.061-0.008-0.122-0.003-0.206c0.004-0.057,0.01-0.114,0.077-0.379
				c0.025-0.073,0.056-0.147,0.093-0.222c0.041-0.082,0.089-0.165,0.144-0.249c0.166-0.251,0.395-0.509,0.69-0.766
				c0.098-0.085,0.201-0.169,0.309-0.25c0.107-0.081,0.219-0.16,0.335-0.236c0.232-0.153,0.479-0.296,0.738-0.429
				c0.259-0.132,0.529-0.254,0.807-0.364c0.277-0.11,0.562-0.208,0.85-0.293c0.576-0.169,1.164-0.286,1.731-0.341
				c0.142-0.013,0.282-0.023,0.421-0.029c0.139-0.006,0.276-0.007,0.41-0.004c0.135,0.003,0.267,0.01,0.396,0.021
				c0.129,0.011,0.256,0.027,0.379,0.048c0.246,0.04,0.467,0.098,0.662,0.169c0.195,0.071,0.365,0.157,0.507,0.255
				c0.143,0.099,0.26,0.209,0.35,0.33c0.09,0.121,0.153,0.252,0.188,0.392c0.016,0.065,0.026,0.132,0.03,0.2
				c0.005,0.068,0.001,0.137-0.006,0.208c-0.018,0.165-0.065,0.337-0.149,0.514c-0.156,0.331-0.427,0.678-0.819,1.024
				c-0.393,0.348-0.869,0.663-1.394,0.933c-0.525,0.271-1.098,0.498-1.684,0.67c-0.586,0.172-1.184,0.29-1.759,0.343
				C31.143,26.189,30.592,26.176,30.098,26.09z M39.924,32.448c-0.159,0.353-0.438,0.722-0.843,1.09
				c-0.405,0.368-0.897,0.7-1.439,0.984c-0.543,0.285-1.136,0.522-1.744,0.7c-0.607,0.178-1.228,0.298-1.826,0.348
				c-0.597,0.05-1.171,0.031-1.686-0.067c-0.513-0.098-0.918-0.267-1.21-0.487c-0.292-0.22-0.473-0.491-0.538-0.794
				c-0.023-0.107-0.027-0.22,0.058-0.755c0.025-0.078,0.056-0.156,0.094-0.235c0.167-0.35,0.451-0.715,0.857-1.078
				c0.101-0.09,0.208-0.179,0.319-0.265c0.333-0.257,0.709-0.493,1.111-0.701c0.268-0.139,0.547-0.267,0.835-0.381
				c0.287-0.115,0.583-0.216,0.881-0.304c0.596-0.175,1.206-0.294,1.795-0.346c0.294-0.026,0.584-0.035,0.864-0.026
				s0.549,0.036,0.806,0.082c0.128,0.023,0.25,0.051,0.365,0.082c0.345,0.095,0.632,0.226,0.857,0.386
				c0.225,0.16,0.389,0.35,0.488,0.561c0.033,0.071,0.06,0.143,0.078,0.219c0.017,0.069,0.028,0.141,0.033,0.214
				C40.096,31.917,40.047,32.177,39.924,32.448z"/>
		</g>
		<g>
			<linearGradient id="SVGID_4_" gradientUnits="userSpaceOnUse" x1="93.7598" y1="109.2889" x2="143.9999" y2="109.2889">
				<stop  offset="0" style="stop-color:#F1D618"/>
				<stop  offset="1" style="stop-color:#ECB023"/>
			</linearGradient>
			<path fill="url(#SVGID_4_)" d="M143.663,83.171c-0.097-0.115-0.271-0.267-0.769-0.264l-20.577,1.105
				c-0.59,0.032-1.316,0.282-2.099,0.725c-0.823,0.465-1.682,1.12-2.556,1.945c-0.891,0.842-1.743,1.811-2.533,2.882
				c-0.82,1.113-1.533,2.279-2.118,3.467l-17.964,36.464c-0.542,1.099-0.919,2.128-1.122,3.057
				c-0.181,0.825-0.214,1.548-0.097,2.091c0.093,0.427,0.272,0.72,0.534,0.874c0.174,0.103,0.399,0.154,0.669,0.154
				c0.184,0,0.388-0.024,0.607-0.072l21.583-4.705c0.548-0.119,1.211-0.431,1.918-0.901c0.727-0.483,1.484-1.116,2.249-1.881
				c0.773-0.773,1.514-1.64,2.202-2.576c0.713-0.97,1.339-1.974,1.86-2.984l16.959-32.862c0.547-1.059,0.963-2.076,1.235-3.022
				c0.252-0.872,0.374-1.67,0.353-2.307C143.98,83.822,143.864,83.411,143.663,83.171z M107.916,119.944
				c-0.019,0.339-0.091,0.723-0.217,1.14c-0.041,0.139-0.089,0.282-0.142,0.428c-0.16,0.439-0.373,0.908-0.64,1.398
				c-0.178,0.326-0.371,0.647-0.575,0.958c-0.205,0.311-0.422,0.613-0.647,0.901c-0.338,0.434-0.693,0.839-1.069,1.217
				c-0.117,0.117-0.234,0.232-0.353,0.341c-0.122,0.113-0.245,0.222-0.367,0.325c-0.123,0.103-0.245,0.201-0.367,0.293
				c-0.244,0.184-0.485,0.347-0.721,0.484c-0.118,0.068-0.235,0.13-0.35,0.185c-0.344,0.165-0.672,0.269-0.97,0.299
				c-0.08,0.008-0.154,0.009-0.225,0.005c-0.29-0.01-0.525-0.099-0.698-0.263c-0.218-0.206-0.343-0.524-0.373-0.93
				c-0.03-0.407,0.034-0.903,0.196-1.463c0.162-0.561,0.422-1.186,0.781-1.852c0.359-0.666,0.784-1.308,1.243-1.898
				s0.954-1.127,1.452-1.584c0.498-0.457,1-0.833,1.477-1.102c0.476-0.269,0.925-0.431,1.319-0.459
				c0.258-0.019,0.473,0.027,0.903,0.296c0.104,0.109,0.184,0.245,0.241,0.405c0.057,0.161,0.091,0.345,0.101,0.552
				C107.923,119.723,107.923,119.831,107.916,119.944z M116.807,99.634c-0.118,0.073-0.235,0.139-0.349,0.198
				c-0.345,0.178-0.675,0.292-0.977,0.331c-0.081,0.01-0.156,0.013-0.229,0.011c-0.065,0-0.125-0.007-0.184-0.016
				c-0.211-0.031-0.391-0.106-0.532-0.232c-0.226-0.203-0.362-0.522-0.405-0.933c-0.042-0.412,0.01-0.917,0.159-1.49
				c0.149-0.574,0.396-1.216,0.742-1.902c0.346-0.686,0.76-1.349,1.21-1.961c0.451-0.612,0.937-1.171,1.431-1.649
				c0.493-0.477,0.993-0.873,1.469-1.16c0.476-0.286,0.928-0.463,1.327-0.503c0.262-0.026,0.481,0.014,0.788,0.169
				c0.049,0.031,0.096,0.065,0.137,0.107c0.217,0.215,0.342,0.544,0.375,0.961c0.032,0.417-0.027,0.922-0.181,1.493
				c-0.039,0.142-0.083,0.288-0.133,0.438c-0.101,0.3-0.224,0.614-0.372,0.94c-0.074,0.163-0.153,0.329-0.239,0.497
				c-0.273,0.537-0.595,1.051-0.934,1.545c-0.086,0.125-0.166,0.256-0.255,0.376c-0.084,0.115-0.171,0.226-0.258,0.337
				c-0.14,0.179-0.282,0.354-0.426,0.521c-0.117,0.136-0.236,0.268-0.355,0.395c-0.12,0.127-0.24,0.25-0.361,0.368
				C117.771,98.948,117.279,99.344,116.807,99.634z M124.237,117.687c-0.029,0.124-0.063,0.252-0.102,0.383
				c-0.158,0.525-0.401,1.106-0.733,1.721c-0.331,0.615-0.718,1.206-1.134,1.749c-0.208,0.271-0.424,0.531-0.644,0.775
				c-0.22,0.245-0.444,0.474-0.669,0.686c-0.451,0.424-0.906,0.775-1.339,1.029c-0.434,0.255-0.846,0.412-1.209,0.447
				c-0.073,0.007-0.141,0.007-0.371-0.019c-0.188-0.036-0.347-0.112-0.469-0.235c-0.196-0.197-0.307-0.499-0.331-0.884
				c-0.023-0.386,0.041-0.855,0.194-1.383c0.154-0.53,0.397-1.12,0.732-1.746c0.335-0.627,0.729-1.231,1.155-1.785
				c0.425-0.554,0.882-1.058,1.342-1.486c0.459-0.427,0.921-0.779,1.359-1.03c0.437-0.25,0.849-0.399,1.209-0.422
				c0.236-0.015,0.431,0.029,0.821,0.289c0.094,0.104,0.166,0.233,0.216,0.386c0.051,0.152,0.08,0.327,0.087,0.523
				C124.36,116.978,124.322,117.315,124.237,117.687z M137.59,91.162c-0.016,0.128-0.038,0.26-0.067,0.398
				c-0.027,0.127-0.06,0.258-0.097,0.393c-0.151,0.539-0.389,1.137-0.714,1.771c-0.259,0.506-0.562,0.989-0.881,1.452
				c-0.081,0.117-0.156,0.24-0.24,0.354c-0.207,0.281-0.421,0.549-0.64,0.803c-0.219,0.254-0.442,0.492-0.667,0.711
				c-0.45,0.441-0.905,0.807-1.34,1.074c-0.29,0.179-0.57,0.308-0.835,0.389c-0.132,0.041-0.261,0.074-0.383,0.088
				c-0.073,0.008-0.142,0.009-0.376-0.013c-0.191-0.033-0.354-0.109-0.48-0.232c-0.202-0.198-0.319-0.505-0.349-0.897
				c-0.03-0.394,0.027-0.874,0.174-1.416c0.147-0.544,0.384-1.151,0.713-1.796c0.329-0.646,0.718-1.27,1.14-1.843
				c0.422-0.573,0.876-1.095,1.335-1.54c0.458-0.445,0.921-0.812,1.36-1.075c0.438-0.263,0.854-0.422,1.218-0.451
				c0.239-0.019,0.437,0.023,0.837,0.282c0.193,0.209,0.301,0.525,0.322,0.923C137.63,90.726,137.619,90.936,137.59,91.162z"/>
			<linearGradient id="SVGID_5_" gradientUnits="userSpaceOnUse" x1="75.3433" y1="66.3805" x2="143.1769" y2="66.3805">
				<stop  offset="0" style="stop-color:#F1D618"/>
				<stop  offset="1" style="stop-color:#ECB023"/>
			</linearGradient>
			<path fill="url(#SVGID_5_)" d="M143.055,79.543c-0.15-0.267-0.482-0.724-1.208-1.381c-0.638-0.576-1.444-1.187-2.398-1.813
				l-28.99-19.053c-0.892-0.586-1.881-1.158-2.941-1.699c-1.026-0.525-2.078-1.002-3.126-1.418
				c-1.043-0.413-2.031-0.746-2.937-0.988c-0.915-0.244-1.697-0.382-2.324-0.411l-22.515-1.033c-0.1-0.005-0.195-0.007-0.287-0.007
				c-0.609,0-0.879,0.102-0.987,0.196c0.03,0.126,0.165,0.486,0.766,1.112c0.528,0.552,1.265,1.153,2.191,1.788l30.924,21.197
				c1.03,0.706,2.179,1.388,3.415,2.026c1.197,0.618,2.417,1.165,3.626,1.627c1.198,0.458,2.321,0.807,3.336,1.037
				c0.873,0.198,1.627,0.299,2.241,0.299c0.09,0,0.177-0.002,0.262-0.007l20.576-1.111c0.27-0.015,0.421-0.056,0.496-0.086
				C143.161,79.763,143.128,79.672,143.055,79.543z M94.118,61.258c-0.169,0.131-0.466,0.2-0.897,0.192
				c-0.432-0.008-0.957-0.091-1.537-0.237c-0.581-0.146-1.217-0.352-1.869-0.606c-0.652-0.253-1.319-0.553-1.961-0.883
				c-0.642-0.331-1.259-0.691-1.811-1.067c-0.552-0.376-0.987-0.731-1.301-1.051c-0.313-0.319-0.506-0.603-0.574-0.838
				c-0.047-0.162-0.031-0.298,0.046-0.418c0.032-0.046,0.07-0.089,0.124-0.124c0.182-0.123,0.49-0.183,0.928-0.169
				c0.438,0.015,0.963,0.103,1.538,0.251c0.574,0.147,1.199,0.352,1.838,0.602c0.638,0.249,1.289,0.543,1.918,0.866
				c0.628,0.323,1.234,0.676,1.78,1.045c0.136,0.092,0.266,0.183,0.388,0.273c0.368,0.269,0.672,0.525,0.911,0.763
				c0.32,0.318,0.523,0.603,0.601,1.244C94.224,61.137,94.2,61.17,94.118,61.258z M102.592,58.275
				c-0.316-0.303-0.52-0.572-0.608-0.795c-0.04-0.102-0.053-0.194-0.044-0.275c0.063-0.173,0.093-0.209,0.133-0.241
				c0.148-0.117,0.416-0.175,0.808-0.162c0.196,0.007,0.414,0.031,0.648,0.07c0.235,0.04,0.487,0.095,0.753,0.164
				c0.529,0.139,1.11,0.333,1.708,0.569c0.597,0.236,1.212,0.514,1.81,0.819c0.299,0.153,0.594,0.313,0.879,0.479
				c0.286,0.165,0.564,0.336,0.828,0.511c0.53,0.35,0.958,0.682,1.278,0.983c0.161,0.151,0.294,0.294,0.4,0.427
				c0.106,0.134,0.184,0.258,0.296,0.67c-0.007,0.092-0.044,0.17-0.113,0.234c-0.136,0.124-0.394,0.19-0.78,0.183
				c-0.386-0.007-0.864-0.086-1.398-0.222c-0.535-0.137-1.125-0.332-1.734-0.572c-0.61-0.24-1.238-0.523-1.848-0.836
				c-0.61-0.313-1.201-0.655-1.737-1.011C103.337,58.915,102.908,58.578,102.592,58.275z M105.349,65.702
				c-0.332-0.324-0.549-0.615-0.644-0.858c-0.047-0.121-0.065-0.23,0.082-0.57c0.151-0.133,0.426-0.204,0.833-0.2
				c0.404,0.004,0.901,0.083,1.451,0.221c0.55,0.138,1.154,0.336,1.777,0.58c0.311,0.122,0.627,0.254,0.943,0.397
				c0.316,0.143,0.632,0.295,0.944,0.455c0.312,0.16,0.619,0.328,0.918,0.502c0.299,0.174,0.589,0.354,0.865,0.539
				c0.555,0.371,1.004,0.724,1.342,1.047c0.169,0.161,0.311,0.315,0.423,0.46c0.113,0.144,0.196,0.279,0.251,0.402
				c0.09,0.205,0.093,0.376-0.04,0.588c-0.137,0.141-0.401,0.22-0.799,0.223c-0.399,0.003-0.896-0.071-1.45-0.207
				c-0.556-0.136-1.171-0.336-1.806-0.583c-0.636-0.247-1.292-0.542-1.93-0.87c-0.637-0.328-1.256-0.688-1.817-1.066
				C106.131,66.385,105.682,66.027,105.349,65.702z M118.252,77.375c-0.012,0.039-0.031,0.074-0.097,0.171
				c-0.141,0.152-0.407,0.244-0.809,0.259c-0.412,0.015-0.925-0.052-1.501-0.187c-0.577-0.135-1.217-0.337-1.879-0.591
				c-0.663-0.255-1.348-0.562-2.015-0.906c-0.667-0.344-1.314-0.724-1.904-1.125c-0.588-0.401-1.062-0.783-1.414-1.133
				c-0.351-0.348-0.582-0.663-0.686-0.929c-0.059-0.151-0.073-0.284,0.071-0.631c0.153-0.15,0.436-0.237,0.855-0.244
				c0.419-0.007,0.933,0.066,1.505,0.203c0.571,0.137,1.2,0.338,1.849,0.589c0.648,0.251,1.317,0.551,1.969,0.887
				c0.652,0.336,1.287,0.707,1.869,1.099c0.436,0.295,0.812,0.581,1.123,0.851c0.103,0.09,0.2,0.179,0.289,0.265
				c0.358,0.347,0.599,0.663,0.717,0.931C118.277,77.074,118.295,77.238,118.252,77.375z M134.283,76.902
				c-0.108,0.15-0.341,0.239-0.708,0.252c-0.368,0.013-0.834-0.051-1.364-0.179c-0.531-0.128-1.124-0.319-1.743-0.56
				c-0.619-0.241-1.263-0.531-1.895-0.855c-0.632-0.324-1.25-0.683-1.818-1.061s-1.031-0.739-1.382-1.068
				c-0.351-0.328-0.59-0.625-0.71-0.876c-0.097-0.2-0.114-0.368,0.112-0.689c0.137-0.083,0.345-0.129,0.626-0.134
				c0.093-0.002,0.193,0.001,0.297,0.009c0.314,0.023,0.676,0.086,1.071,0.184c0.263,0.065,0.54,0.145,0.827,0.239
				c0.288,0.093,0.585,0.2,0.889,0.319c0.607,0.237,1.236,0.521,1.855,0.838c0.618,0.317,1.225,0.668,1.786,1.039
				c0.28,0.185,0.536,0.367,0.766,0.543c0.115,0.088,0.223,0.175,0.325,0.26c0.102,0.085,0.197,0.168,0.286,0.25
				c0.356,0.327,0.604,0.624,0.737,0.878C134.307,76.417,134.344,76.533,134.283,76.902z"/>
			<linearGradient id="SVGID_6_" gradientUnits="userSpaceOnUse" x1="49.7121" y1="94.3803" x2="111.2895" y2="94.3803">
				<stop  offset="0" style="stop-color:#F1D618"/>
				<stop  offset="1" style="stop-color:#ECB023"/>
			</linearGradient>
			<path fill="url(#SVGID_6_)" d="M110.985,84.507c-0.291-1.252-0.773-2.409-1.436-3.438c-0.676-1.051-1.509-1.921-2.477-2.584
				L76.146,57.29c-0.86-0.589-1.784-0.951-2.744-1.073c-0.239-0.03-0.482-0.046-0.721-0.046c-0.678,0-1.353,0.12-2.007,0.357
				c-0.901,0.326-1.732,0.86-2.472,1.585c-0.776,0.76-1.416,1.7-1.903,2.794l-15.695,35.23c-0.462,1.037-0.748,2.17-0.851,3.366
				c-0.099,1.161-0.022,2.333,0.229,3.482c0.25,1.146,0.661,2.213,1.221,3.17c0.573,0.981,1.279,1.802,2.097,2.443l28.657,22.428
				c0.884,0.692,1.836,1.162,2.83,1.395c0.472,0.111,0.953,0.168,1.428,0.168c0.474,0,0.947-0.056,1.406-0.166
				c0.936-0.224,1.803-0.665,2.577-1.31c0.818-0.681,1.495-1.56,2.014-2.614l17.966-36.462c0.563-1.144,0.917-2.392,1.05-3.709
				C111.359,87.05,111.277,85.764,110.985,84.507z M66.636,99.839c-0.064,0.711-0.24,1.413-0.54,2.063
				c-0.298,0.648-0.69,1.183-1.142,1.596c-0.452,0.412-0.964,0.701-1.504,0.859c-0.54,0.158-1.107,0.185-1.671,0.071
				c-0.563-0.113-1.121-0.366-1.644-0.768c-0.522-0.402-0.96-0.914-1.305-1.496c-0.21-0.355-0.381-0.738-0.52-1.135
				c-0.043-0.122-0.084-0.245-0.119-0.37c-0.04-0.134-0.076-0.27-0.107-0.41c-0.15-0.682-0.199-1.394-0.137-2.097
				c0.015-0.176,0.038-0.351,0.067-0.525c0.088-0.522,0.239-1.033,0.458-1.516c0.146-0.323,0.315-0.618,0.503-0.885
				c0.188-0.267,0.395-0.505,0.673-0.759c0.169-0.153,0.348-0.287,0.533-0.406c0.286-0.183,0.587-0.33,0.899-0.427
				c0.269-0.083,0.545-0.134,0.824-0.15c0.28-0.017,0.562,0,0.845,0.053c0.566,0.105,1.13,0.352,1.659,0.749
				c0.53,0.398,0.975,0.91,1.326,1.495c0.124,0.206,0.232,0.425,0.387,0.772c0.157,0.372,0.286,0.76,0.375,1.162
				C66.651,98.405,66.701,99.127,66.636,99.839z M73.084,86.304c-0.066,0.721-0.247,1.435-0.552,2.098
				c-0.305,0.663-0.706,1.214-1.168,1.641c-0.461,0.427-0.984,0.731-1.536,0.903c-0.551,0.171-1.13,0.21-1.705,0.106
				c-0.574-0.103-1.144-0.348-1.678-0.745c-0.532-0.396-0.979-0.905-1.33-1.488c-0.281-0.465-0.498-0.979-0.653-1.517
				c-0.04-0.134-0.076-0.269-0.107-0.408c-0.115-0.516-0.171-1.05-0.165-1.586c0.002-0.179,0.011-0.357,0.027-0.536
				c0.029-0.325,0.084-0.649,0.161-0.968c0.05-0.205,0.106-0.409,0.175-0.609c0.06-0.17,0.127-0.338,0.201-0.503
				c0.074-0.165,0.155-0.323,0.24-0.474c0.257-0.453,0.563-0.842,0.904-1.165c0.386-0.365,0.818-0.638,1.274-0.823
				c0.081-0.033,0.162-0.069,0.245-0.096c0.274-0.09,0.556-0.146,0.841-0.169c0.143-0.011,0.286-0.014,0.43-0.008
				c0.144,0.006,0.288,0.021,0.432,0.044c0.577,0.095,1.152,0.332,1.692,0.724c0.541,0.393,0.995,0.902,1.354,1.488
				c0.128,0.21,0.239,0.431,0.395,0.776c0.16,0.373,0.29,0.763,0.381,1.168C73.1,84.852,73.15,85.581,73.084,86.304z M79.713,72.094
				c-0.068,0.733-0.254,1.459-0.566,2.139c-0.312,0.677-0.72,1.243-1.193,1.685c-0.471,0.442-1.005,0.76-1.568,0.945
				c-0.562,0.184-1.153,0.235-1.74,0.143c-0.586-0.093-1.168-0.329-1.713-0.72c-0.544-0.39-1-0.897-1.358-1.48
				c-0.224-0.365-0.406-0.761-0.551-1.176c-0.041-0.116-0.08-0.233-0.115-0.352c-0.04-0.131-0.075-0.263-0.108-0.406
				c-0.155-0.693-0.204-1.422-0.139-2.145c0.033-0.362,0.094-0.722,0.185-1.077c0.046-0.177,0.099-0.352,0.16-0.526
				c0.061-0.173,0.129-0.344,0.205-0.513c0.104-0.231,0.224-0.445,0.349-0.65c0.241-0.394,0.515-0.743,0.82-1.036
				c0.285-0.274,0.596-0.496,0.921-0.676c0.205-0.113,0.414-0.214,0.63-0.289c0.14-0.048,0.282-0.088,0.425-0.12
				c0.43-0.095,0.873-0.113,1.314-0.05c0.147,0.021,0.294,0.051,0.441,0.09c0.44,0.118,0.874,0.319,1.287,0.608
				c0.552,0.386,1.016,0.893,1.382,1.478c0.081,0.131,0.156,0.267,0.228,0.405c0.03,0.059,0.058,0.119,0.086,0.178
				c0.036,0.077,0.072,0.154,0.106,0.233c0.034,0.08,0.067,0.16,0.097,0.241c0.021,0.056,0.041,0.112,0.061,0.169
				c0.033,0.096,0.067,0.192,0.096,0.291c0.043,0.143,0.083,0.288,0.116,0.435C79.731,70.623,79.781,71.361,79.713,72.094z
				 M89.797,117.348c-0.07,0.731-0.261,1.448-0.582,2.11c-0.32,0.66-0.739,1.201-1.223,1.613c-0.483,0.413-1.03,0.697-1.607,0.846
				c-0.576,0.148-1.182,0.16-1.782,0.029c-0.6-0.132-1.196-0.407-1.753-0.836c-0.556-0.427-1.022-0.967-1.388-1.575
				c-0.293-0.488-0.519-1.022-0.681-1.578c-0.041-0.137-0.078-0.275-0.109-0.414c-0.119-0.529-0.176-1.075-0.169-1.619
				c0.002-0.181,0.012-0.362,0.029-0.543c0.017-0.18,0.041-0.36,0.073-0.538c0.063-0.357,0.157-0.708,0.282-1.048
				c0.062-0.17,0.133-0.337,0.211-0.501c0.125-0.263,0.27-0.502,0.424-0.727c0.119-0.173,0.244-0.337,0.432-0.553
				c0.11-0.12,0.225-0.232,0.344-0.336c0.357-0.313,0.751-0.555,1.167-0.723c0.139-0.056,0.28-0.104,0.423-0.143
				c0.144-0.039,0.289-0.07,0.435-0.092c0.44-0.067,0.893-0.056,1.345,0.036c0.151,0.031,0.302,0.071,0.452,0.12
				c0.45,0.147,0.894,0.377,1.317,0.695c0.141,0.106,0.277,0.219,0.407,0.339c0.389,0.359,0.726,0.777,1.006,1.236
				c0.083,0.137,0.16,0.278,0.234,0.422c0.03,0.059,0.057,0.119,0.085,0.178c0.039,0.082,0.077,0.165,0.112,0.249
				c0.033,0.079,0.065,0.158,0.095,0.239c0.023,0.062,0.045,0.125,0.067,0.188c0.033,0.094,0.065,0.188,0.094,0.284
				c0.044,0.15,0.087,0.3,0.121,0.453C89.817,115.872,89.867,116.617,89.797,117.348z M96.561,103.459
				c-0.072,0.742-0.267,1.472-0.595,2.148c-0.328,0.675-0.757,1.232-1.252,1.66c-0.494,0.427-1.053,0.727-1.643,0.888
				c-0.589,0.162-1.208,0.186-1.821,0.064c-0.613-0.122-1.22-0.389-1.789-0.812c-0.567-0.421-1.042-0.957-1.414-1.566
				c-0.3-0.489-0.53-1.027-0.694-1.589c-0.041-0.137-0.079-0.274-0.111-0.414c-0.161-0.712-0.211-1.456-0.141-2.188
				c0.015-0.161,0.039-0.322,0.066-0.482c0.096-0.567,0.264-1.123,0.513-1.646c0.32-0.671,0.74-1.227,1.225-1.658
				c0.243-0.216,0.503-0.401,0.775-0.552c0.272-0.152,0.557-0.271,0.849-0.356c0.146-0.043,0.295-0.077,0.445-0.103
				c0.45-0.077,0.912-0.075,1.374,0.009c0.616,0.112,1.229,0.371,1.804,0.788c0.144,0.105,0.282,0.216,0.415,0.335
				c0.397,0.356,0.741,0.773,1.027,1.232c0.085,0.137,0.163,0.279,0.238,0.423c0.032,0.062,0.061,0.125,0.091,0.188
				c0.038,0.079,0.074,0.158,0.109,0.239c0.037,0.085,0.071,0.17,0.104,0.256c0.021,0.055,0.04,0.11,0.059,0.165
				c0.086,0.246,0.164,0.496,0.223,0.752C96.582,101.964,96.633,102.717,96.561,103.459z M103.494,88.856
				c-0.074,0.753-0.274,1.498-0.61,2.19c-0.335,0.69-0.773,1.262-1.279,1.706c-0.504,0.443-1.076,0.757-1.678,0.933
				c-0.601,0.176-1.232,0.214-1.859,0.103c-0.625-0.11-1.245-0.368-1.824-0.784c-0.579-0.415-1.064-0.949-1.444-1.558
				c-0.306-0.491-0.542-1.031-0.709-1.598c-0.042-0.135-0.08-0.272-0.112-0.413c-0.041-0.179-0.075-0.361-0.101-0.544
				c-0.026-0.183-0.046-0.368-0.058-0.553c-0.012-0.185-0.017-0.371-0.012-0.588c0.003-0.176,0.012-0.352,0.029-0.527
				c0.032-0.33,0.092-0.657,0.173-0.98c0.069-0.277,0.158-0.549,0.264-0.817c0.05-0.124,0.098-0.247,0.155-0.368
				c0.082-0.172,0.17-0.336,0.264-0.494c0.188-0.315,0.399-0.6,0.63-0.854c0.115-0.128,0.235-0.247,0.359-0.359
				c0.124-0.112,0.253-0.216,0.385-0.312c0.22-0.16,0.452-0.292,0.69-0.406c0.191-0.092,0.385-0.174,0.584-0.236
				c0.448-0.139,0.915-0.201,1.385-0.18c0.157,0.007,0.314,0.022,0.471,0.048c0.158,0.025,0.314,0.06,0.471,0.104
				c0.469,0.132,0.931,0.35,1.372,0.658c0.294,0.206,0.564,0.442,0.809,0.703c0.123,0.131,0.239,0.267,0.349,0.41
				c0.11,0.142,0.214,0.29,0.311,0.444c0.087,0.137,0.167,0.279,0.243,0.423c0.034,0.064,0.064,0.13,0.097,0.196
				c0.036,0.076,0.073,0.152,0.106,0.23c0.039,0.089,0.075,0.179,0.165,0.42c0.039,0.109,0.077,0.219,0.111,0.33
				c0.043,0.142,0.084,0.285,0.118,0.431C103.517,87.34,103.569,88.102,103.494,88.856z"/>
		</g>
	</g>
</g>
</svg>
