<?xml version="1.0" encoding="utf-8"?>
<!-- Generator: Adobe Illustrator 23.1.0, SVG Export Plug-In . SVG Version: 6.00 Build 0)  -->
<svg version="1.1" xmlns="http://www.w3.org/2000/svg" xmlns:xlink="http://www.w3.org/1999/xlink" x="0px" y="0px"
	 viewBox="0 0 144 144" enable-background="new 0 0 144 144" xml:space="preserve">
<g id="BG">
</g>
<g id="Object">
	<g>
		<g enable-background="new    ">
			<linearGradient id="SVGID_1_" gradientUnits="userSpaceOnUse" x1="21.6144" y1="63.5099" x2="55.0818" y2="63.5099">
				<stop  offset="0" style="stop-color:#FAC63A"/>
				<stop  offset="1" style="stop-color:#FCE335"/>
			</linearGradient>
			<path fill="url(#SVGID_1_)" d="M53.362,79.953c-0.31,0-0.652-0.05-1.014-0.148L34.331,74.92
				c-0.514-0.139-1.055-0.384-1.608-0.728c-0.542-0.337-1.071-0.754-1.571-1.238c-0.501-0.486-0.948-1.014-1.328-1.571
				c-0.39-0.572-0.692-1.148-0.898-1.713l-6.985-19.194c-0.217-0.598-0.328-1.151-0.327-1.645c0-0.443,0.089-0.814,0.264-1.103
				c0.162-0.267,0.396-0.456,0.696-0.562c0.189-0.066,0.405-0.1,0.641-0.1c0.191,0,0.397,0.022,0.612,0.065l18.606,3.746
				c0.587,0.118,1.203,0.362,1.83,0.724c0.619,0.357,1.219,0.812,1.783,1.352c0.566,0.542,1.065,1.138,1.481,1.774
				c0.427,0.651,0.747,1.311,0.952,1.961l6.393,20.331c0.179,0.568,0.242,1.081,0.189,1.524c-0.047,0.385-0.18,0.697-0.397,0.93
				c-0.213,0.229-0.506,0.377-0.87,0.442C53.661,79.941,53.515,79.953,53.362,79.953z"/>
			<linearGradient id="SVGID_2_" gradientUnits="userSpaceOnUse" x1="50.0685" y1="56.0604" x2="76.0931" y2="56.0604">
				<stop  offset="0" style="stop-color:#FAC63A"/>
				<stop  offset="1" style="stop-color:#FCE335"/>
			</linearGradient>
			<path fill="url(#SVGID_2_)" d="M57.515,77.817c0.278,0.298,0.596,0.487,0.945,0.562c0.113,0.024,0.229,0.036,0.347,0.036
				c0.245,0,0.502-0.053,0.761-0.157c0.094-0.037,0.187-0.084,0.281-0.134l6.7-15.04c0.497-1.116,1.947-3.639,3.874-5.203
				c1.468-1.191,3.017-1.821,4.481-1.821c0.088,0,0.169,0.002,0.242,0.006l0.949,0.043c-0.012-0.051-0.021-0.104-0.034-0.154
				L70.86,36.139c-0.161-0.613-0.393-1.13-0.689-1.536c-0.269-0.368-0.577-0.627-0.918-0.771c-0.199-0.084-0.408-0.126-0.62-0.126
				c-0.135,0-0.273,0.017-0.411,0.051c-0.401,0.098-0.804,0.331-1.196,0.694L52.372,47.989c-0.462,0.427-0.875,0.973-1.226,1.622
				c-0.345,0.639-0.615,1.347-0.802,2.105c-0.187,0.76-0.28,1.526-0.276,2.279c0.004,0.77,0.109,1.488,0.312,2.135l6.396,20.33
				C56.953,77.025,57.202,77.481,57.515,77.817z"/>
			<linearGradient id="SVGID_3_" gradientUnits="userSpaceOnUse" x1="22.7932" y1="38.2579" x2="66.5673" y2="38.2579">
				<stop  offset="0" style="stop-color:#FAC63A"/>
				<stop  offset="1" style="stop-color:#FCE335"/>
			</linearGradient>
			<path fill="url(#SVGID_3_)" d="M44.194,49.073c-0.469,0-0.908-0.04-1.305-0.12l-18.606-3.749
				c-0.486-0.098-0.879-0.264-1.135-0.479c-0.21-0.177-0.325-0.378-0.349-0.616c-0.027-0.257,0.056-0.563,0.238-0.883
				c0.216-0.38,0.56-0.768,1.021-1.154l14.831-12.424c0.435-0.364,0.962-0.703,1.568-1.007c0.591-0.297,1.231-0.548,1.902-0.746
				c0.669-0.198,1.335-0.333,1.98-0.401c0.311-0.033,0.616-0.049,0.904-0.049c0.315,0,0.616,0.02,0.892,0.059l18.431,2.632
				c0.566,0.081,1.03,0.227,1.378,0.434c0.292,0.173,0.484,0.379,0.57,0.611c0.084,0.223,0.07,0.48-0.041,0.762
				c-0.136,0.344-0.416,0.719-0.811,1.083l-14.653,13.54c-0.471,0.435-1.053,0.837-1.729,1.195c-0.663,0.35-1.383,0.64-2.14,0.862
				c-0.756,0.222-1.51,0.364-2.238,0.422C44.66,49.063,44.422,49.073,44.194,49.073z"/>
			<g>
				<path fill=" #1A1A1A" d="M36.713,70.483c0.014-0.274-0.036-0.593-0.159-0.946c-0.123-0.354-0.308-0.708-0.536-1.046
					c-0.228-0.338-0.5-0.659-0.797-0.946c-0.297-0.287-0.62-0.54-0.951-0.741c-0.33-0.201-0.668-0.351-0.995-0.433
					c-0.326-0.081-0.611-0.087-0.848-0.027c-0.236,0.059-0.422,0.183-0.552,0.361c-0.062,0.101-0.086,0.145-0.106,0.192
					c-0.021,0.05-0.039,0.097-0.053,0.146c-0.02,0.082-0.03,0.121-0.036,0.163c-0.009,0.059-0.016,0.12-0.018,0.184
					c-0.002,0.069-0.001,0.14,0.005,0.214c0.017,0.221,0.071,0.466,0.165,0.728c0.022,0.062,0.049,0.125,0.075,0.187
					c0.083,0.199,0.182,0.398,0.299,0.592c0.051,0.085,0.105,0.169,0.161,0.252c0.064,0.095,0.139,0.184,0.209,0.275
					c0.17,0.22,0.351,0.432,0.55,0.627c0.319,0.312,0.637,0.562,0.962,0.762c0.244,0.151,0.493,0.273,0.739,0.361
					c0.082,0.029,0.164,0.055,0.245,0.076c0.163,0.042,0.316,0.067,0.458,0.073c0.142,0.007,0.273-0.004,0.392-0.031
					c0.119-0.027,0.227-0.07,0.321-0.128c0.047-0.029,0.091-0.062,0.131-0.098c0.041-0.036,0.078-0.076,0.111-0.12
					c0.032-0.043,0.057-0.082,0.079-0.123C36.651,70.882,36.702,70.697,36.713,70.483z"/>
				<path fill=" #1A1A1A" d="M50.372,72.076c-0.232-0.35-0.513-0.683-0.823-0.981c-0.31-0.298-0.649-0.562-0.999-0.772
					c-0.35-0.211-0.71-0.369-1.063-0.456c-0.351-0.088-0.661-0.097-0.921-0.039c-0.259,0.058-0.468,0.183-0.618,0.364
					c-0.087,0.105-0.151,0.23-0.197,0.371c-0.038,0.133-0.059,0.226-0.067,0.328c-0.006,0.07-0.007,0.143-0.005,0.219
					c0.003,0.076,0.01,0.154,0.021,0.235c0.023,0.162,0.064,0.333,0.124,0.514c0.124,0.337,0.234,0.573,0.37,0.804
					c0.051,0.088,0.106,0.175,0.164,0.261c0.057,0.086,0.118,0.171,0.181,0.254c0.063,0.084,0.129,0.166,0.196,0.247
					c0.069,0.082,0.14,0.162,0.214,0.241c0.071,0.076,0.144,0.151,0.22,0.223c0.229,0.22,0.474,0.422,0.727,0.597
					c0.084,0.058,0.17,0.114,0.256,0.166c0.086,0.052,0.173,0.102,0.261,0.148c0.262,0.137,0.527,0.244,0.789,0.313
					c0.175,0.046,0.34,0.072,0.494,0.081c0.077,0.004,0.151,0.004,0.223,0c0.071-0.005,0.14-0.013,0.205-0.026
					c0.197-0.039,0.366-0.116,0.503-0.226c0.046-0.037,0.088-0.077,0.127-0.121c0.039-0.045,0.075-0.094,0.107-0.146
					c0.032-0.053,0.06-0.109,0.083-0.168c0.045-0.114,0.076-0.239,0.09-0.376c0.029-0.281-0.011-0.608-0.128-0.972
					C50.788,72.791,50.604,72.425,50.372,72.076z"/>
				<path fill=" #1A1A1A" d="M31.211,54.202c-0.131-0.376-0.324-0.749-0.561-1.102c-0.237-0.353-0.517-0.686-0.823-0.98
					c-0.306-0.294-0.637-0.55-0.975-0.75c-0.338-0.2-0.682-0.344-1.015-0.414c-0.332-0.07-0.62-0.061-0.858,0.016
					c-0.237,0.077-0.424,0.221-0.552,0.421c-0.07,0.116-0.118,0.227-0.15,0.349c-0.018,0.075-0.03,0.132-0.038,0.192
					c-0.009,0.067-0.014,0.137-0.015,0.21c-0.001,0.074,0.002,0.151,0.009,0.231c0.021,0.239,0.08,0.5,0.179,0.779
					c0.033,0.093,0.07,0.185,0.11,0.277c0.121,0.276,0.273,0.549,0.449,0.809c0.178,0.263,0.385,0.508,0.604,0.741
					c0.07,0.074,0.135,0.152,0.208,0.223c0.301,0.29,0.626,0.543,0.959,0.742c0.333,0.199,0.673,0.345,1.003,0.419
					c0.083,0.019,0.163,0.033,0.24,0.041c0.232,0.027,0.44,0.012,0.62-0.042c0.06-0.018,0.117-0.04,0.171-0.066
					c0.108-0.052,0.202-0.12,0.283-0.203c0.04-0.041,0.077-0.087,0.11-0.135c0.045-0.066,0.081-0.141,0.113-0.219
					c0.062-0.154,0.1-0.328,0.106-0.524C31.398,54.919,31.341,54.577,31.211,54.202z"/>
				<path fill=" #1A1A1A" d="M38.4,57.4c0.06-0.148,0.099-0.313,0.109-0.498c0.017-0.301-0.034-0.648-0.162-1.029
					c-0.128-0.381-0.321-0.76-0.56-1.119c-0.239-0.359-0.524-0.698-0.837-0.998c-0.313-0.3-0.652-0.561-1-0.766
					c-0.348-0.205-0.703-0.352-1.048-0.426c-0.344-0.073-0.646-0.065-0.895,0.012c-0.249,0.077-0.447,0.222-0.585,0.424
					c-0.06,0.102-0.087,0.153-0.11,0.206c-0.023,0.054-0.043,0.108-0.059,0.166c-0.021,0.087-0.033,0.133-0.04,0.183
					c-0.01,0.064-0.017,0.13-0.019,0.199c-0.012,0.306,0.043,0.651,0.172,1.028c0.13,0.377,0.323,0.751,0.559,1.104
					c0.237,0.353,0.518,0.686,0.825,0.982c0.307,0.296,0.641,0.554,0.984,0.758c0.172,0.102,0.345,0.19,0.519,0.263
					c0.173,0.073,0.347,0.129,0.518,0.168c0.368,0.075,0.655,0.072,0.895,0.004c0.252-0.071,0.454-0.21,0.597-0.407
					c0.029-0.041,0.055-0.083,0.078-0.127C38.363,57.486,38.382,57.444,38.4,57.4z"/>
				<path fill=" #1A1A1A" d="M43.002,70.272c-0.231-0.344-0.507-0.671-0.81-0.964c-0.304-0.293-0.635-0.551-0.975-0.757
					c-0.34-0.206-0.688-0.36-1.027-0.445c-0.339-0.084-0.636-0.092-0.884-0.033c-0.247,0.059-0.444,0.183-0.584,0.363
					c-0.083,0.13-0.104,0.17-0.123,0.213c-0.026,0.06-0.041,0.099-0.053,0.139c-0.05,0.217-0.058,0.277-0.061,0.34
					c-0.004,0.069-0.004,0.142,0,0.217c0.008,0.15,0.034,0.309,0.077,0.478c0.021,0.084,0.048,0.171,0.078,0.26
					c0.122,0.354,0.306,0.709,0.534,1.047c0.228,0.338,0.5,0.659,0.798,0.948s0.624,0.543,0.959,0.749
					c0.251,0.154,0.508,0.28,0.763,0.37c0.085,0.03,0.17,0.056,0.254,0.078c0.337,0.088,0.634,0.101,0.883,0.048
					c0.25-0.053,0.451-0.172,0.595-0.347c0.034-0.042,0.066-0.087,0.093-0.135c0.028-0.047,0.051-0.098,0.072-0.151
					c0.047-0.12,0.077-0.251,0.088-0.396c0.021-0.277-0.024-0.6-0.144-0.958C43.417,70.975,43.233,70.615,43.002,70.272z"/>
				<path fill=" #1A1A1A" d="M45.849,59.236c0.1-0.175,0.163-0.383,0.183-0.621c0.024-0.305-0.021-0.657-0.145-1.044
					c-0.125-0.387-0.317-0.772-0.558-1.138c-0.241-0.366-0.531-0.711-0.85-1.017c-0.319-0.306-0.668-0.573-1.026-0.783
					c-0.358-0.209-0.726-0.361-1.085-0.437c-0.357-0.076-0.672-0.069-0.934,0.007c-0.261,0.077-0.471,0.223-0.62,0.426
					c-0.083,0.135-0.107,0.183-0.129,0.233c-0.027,0.063-0.044,0.109-0.059,0.158c-0.055,0.242-0.064,0.309-0.068,0.379
					c-0.005,0.076-0.005,0.155-0.001,0.237c0.012,0.245,0.063,0.514,0.159,0.801c0.032,0.096,0.068,0.191,0.107,0.286
					c0.04,0.095,0.083,0.19,0.13,0.284c0.094,0.188,0.201,0.372,0.321,0.552c0.179,0.269,0.384,0.527,0.608,0.766
					c0.075,0.08,0.151,0.158,0.229,0.233c0.071,0.069,0.144,0.134,0.219,0.199c0.252,0.219,0.518,0.413,0.79,0.574
					c0.088,0.052,0.177,0.101,0.266,0.146c0.268,0.135,0.539,0.236,0.805,0.296c0.089,0.02,0.176,0.035,0.259,0.045
					c0.251,0.031,0.478,0.017,0.676-0.035c0.132-0.035,0.252-0.088,0.358-0.156c0.053-0.034,0.103-0.072,0.148-0.115
					c0.046-0.042,0.088-0.088,0.127-0.137C45.792,59.332,45.822,59.286,45.849,59.236z"/>
				<path fill=" #1A1A1A" d="M62.064,67.221c-0.027-0.091-0.057-0.178-0.089-0.26c-0.098-0.247-0.221-0.453-0.364-0.617
					c-0.049-0.056-0.1-0.108-0.153-0.154c-0.153-0.134-0.324-0.227-0.505-0.277c-0.244-0.066-0.508-0.054-0.778,0.042
					c-0.27,0.096-0.546,0.276-0.812,0.544c-0.266,0.268-0.498,0.598-0.688,0.967c-0.191,0.368-0.34,0.775-0.442,1.193
					c-0.102,0.419-0.157,0.849-0.158,1.267c-0.001,0.417,0.051,0.821,0.163,1.186c0.112,0.365,0.272,0.658,0.467,0.873
					c0.048,0.054,0.099,0.103,0.151,0.147c0.105,0.089,0.217,0.158,0.335,0.207c0.059,0.025,0.119,0.045,0.181,0.06
					c0.061,0.015,0.124,0.025,0.188,0.03c0.191,0.015,0.39-0.015,0.591-0.092c0.268-0.102,0.541-0.286,0.803-0.555
					c0.066-0.068,0.129-0.138,0.19-0.213c0.183-0.223,0.346-0.477,0.486-0.75c0.047-0.091,0.091-0.185,0.132-0.28
					c0.125-0.286,0.226-0.588,0.301-0.897c0.05-0.206,0.089-0.415,0.115-0.624c0.026-0.209,0.041-0.418,0.042-0.623
					c0-0.103-0.002-0.205-0.008-0.306C62.193,67.787,62.145,67.493,62.064,67.221z"/>
				<path fill=" #1A1A1A" d="M57.361,51.511c-0.115-0.387-0.279-0.704-0.48-0.945c-0.058-0.069-0.118-0.13-0.18-0.186
					c-0.157-0.142-0.33-0.246-0.514-0.307c-0.257-0.085-0.535-0.089-0.818-0.006c-0.284,0.083-0.573,0.254-0.851,0.516
					c-0.279,0.263-0.522,0.594-0.721,0.967c-0.199,0.373-0.355,0.788-0.46,1.218c-0.106,0.431-0.161,0.877-0.161,1.313
					c0.001,0.436,0.057,0.861,0.177,1.25c0.119,0.389,0.289,0.705,0.494,0.942c0.07,0.081,0.145,0.15,0.222,0.212
					c0.055,0.044,0.101,0.078,0.148,0.108c0.085,0.049,0.122,0.071,0.159,0.088c0.057,0.027,0.115,0.05,0.174,0.068
					c0.065,0.019,0.13,0.034,0.197,0.043c0.2,0.027,0.41,0.009,0.621-0.059c0.282-0.089,0.567-0.265,0.842-0.53
					c0.069-0.066,0.135-0.136,0.199-0.21c0.128-0.148,0.246-0.31,0.354-0.484c0.054-0.087,0.105-0.177,0.154-0.269
					c0.048-0.092,0.095-0.187,0.138-0.284c0.086-0.193,0.162-0.395,0.226-0.603c0.032-0.103,0.061-0.208,0.087-0.315
					c0.026-0.106,0.049-0.213,0.069-0.32c0.059-0.322,0.09-0.65,0.091-0.972C57.53,52.319,57.476,51.898,57.361,51.511z"/>
				<path fill=" #1A1A1A" d="M68.473,40.916c-0.026-0.095-0.055-0.186-0.086-0.274c-0.094-0.261-0.212-0.483-0.35-0.666
					c-0.035-0.047-0.073-0.089-0.11-0.13c-0.029-0.032-0.06-0.062-0.09-0.091c-0.135-0.127-0.28-0.225-0.436-0.286
					c-0.237-0.093-0.494-0.108-0.756-0.038c-0.263,0.07-0.531,0.224-0.791,0.469c-0.26,0.245-0.486,0.557-0.673,0.912
					c-0.187,0.355-0.334,0.753-0.436,1.168c-0.101,0.415-0.157,0.847-0.16,1.272c-0.003,0.424,0.046,0.841,0.152,1.224
					c0.107,0.383,0.261,0.697,0.448,0.937c0.067,0.086,0.14,0.159,0.216,0.226c0.062,0.053,0.096,0.08,0.13,0.104
					c0.194,0.117,0.247,0.141,0.3,0.161c0.238,0.086,0.495,0.094,0.756,0.018c0.065-0.019,0.131-0.043,0.196-0.073
					c0.197-0.088,0.394-0.224,0.586-0.409c0.256-0.247,0.478-0.558,0.662-0.91c0.046-0.088,0.089-0.178,0.13-0.271
					c0.123-0.277,0.222-0.575,0.297-0.881c0.05-0.204,0.088-0.413,0.115-0.622c0.027-0.21,0.041-0.42,0.044-0.63
					c0.003-0.314-0.022-0.624-0.078-0.921C68.521,41.109,68.499,41.011,68.473,40.916z"/>
				<path fill=" #1A1A1A" d="M65.311,54.597c-0.025-0.2-0.063-0.394-0.116-0.581c-0.053-0.186-0.117-0.356-0.192-0.508
					c-0.075-0.152-0.16-0.286-0.253-0.402c-0.056-0.069-0.116-0.13-0.178-0.186c-0.144-0.131-0.302-0.228-0.471-0.283
					c-0.241-0.08-0.502-0.081-0.768,0.002c-0.267,0.083-0.538,0.25-0.801,0.506c-0.264,0.257-0.493,0.578-0.682,0.94
					c-0.189,0.362-0.338,0.764-0.44,1.182c-0.102,0.417-0.157,0.849-0.159,1.271c-0.002,0.421,0.048,0.832,0.158,1.207
					c0.109,0.374,0.267,0.677,0.458,0.905c0.066,0.078,0.137,0.144,0.209,0.205c0.052,0.042,0.094,0.074,0.137,0.102
					c0.08,0.047,0.114,0.067,0.149,0.083c0.052,0.025,0.106,0.046,0.16,0.062c0.063,0.019,0.125,0.032,0.187,0.041
					c0.063,0.008,0.126,0.012,0.191,0.01c0.081-0.002,0.164-0.015,0.246-0.034c0.048-0.011,0.097-0.022,0.146-0.038
					c0.133-0.044,0.266-0.11,0.399-0.196c0.067-0.043,0.133-0.092,0.199-0.145c0.066-0.054,0.131-0.113,0.196-0.178
					c0.034-0.034,0.065-0.071,0.098-0.107c0.217-0.238,0.41-0.518,0.571-0.83c0.185-0.358,0.33-0.754,0.43-1.165
					c0.05-0.205,0.089-0.414,0.115-0.624s0.041-0.419,0.043-0.627c0.001-0.104-0.001-0.207-0.007-0.309
					C65.333,54.799,65.324,54.697,65.311,54.597z"/>
				<path fill=" #1A1A1A" d="M72.653,57.121c-0.022-0.193-0.057-0.381-0.105-0.561c-0.058-0.191-0.096-0.295-0.137-0.392
					c-0.03-0.07-0.062-0.137-0.096-0.199c-0.055-0.103-0.115-0.199-0.18-0.282c-0.175-0.222-0.381-0.372-0.606-0.447
					c-0.226-0.075-0.471-0.073-0.721,0.01c-0.251,0.083-0.508,0.247-0.757,0.497c-0.249,0.251-0.467,0.564-0.646,0.915
					c-0.18,0.352-0.322,0.742-0.42,1.145c-0.098,0.404-0.152,0.821-0.157,1.228c-0.004,0.407,0.041,0.803,0.141,1.164
					c0.101,0.361,0.247,0.653,0.425,0.871c0.117,0.126,0.157,0.163,0.198,0.198c0.05,0.041,0.088,0.07,0.127,0.096
					c0.077,0.045,0.107,0.064,0.138,0.079c0.05,0.024,0.1,0.044,0.152,0.06c0.057,0.017,0.115,0.029,0.173,0.037
					c0.059,0.007,0.119,0.01,0.179,0.008c0.121-0.005,0.245-0.029,0.37-0.073c0.25-0.088,0.504-0.257,0.749-0.509
					c0.184-0.189,0.35-0.412,0.496-0.658c0.049-0.082,0.095-0.167,0.139-0.254c0.176-0.348,0.315-0.732,0.411-1.13
					c0.096-0.397,0.15-0.809,0.156-1.21C72.684,57.513,72.675,57.314,72.653,57.121z"/>
				<path fill=" #1A1A1A" d="M40.466,32.856c0.048,0.253,0.162,0.415,0.35,0.546c0.188,0.13,0.449,0.227,0.781,0.281
					c0.333,0.054,0.705,0.057,1.093,0.019c0.389-0.039,0.793-0.12,1.189-0.236s0.783-0.269,1.138-0.449
					c0.355-0.181,0.677-0.389,0.943-0.619c0.266-0.23,0.451-0.459,0.557-0.676c0.057-0.115,0.089-0.227,0.102-0.334
					c0.006-0.047,0.008-0.094,0.005-0.138c-0.031-0.178-0.047-0.222-0.069-0.265c-0.063-0.128-0.167-0.241-0.312-0.336
					c-0.193-0.127-0.456-0.22-0.789-0.27c-0.331-0.05-0.7-0.052-1.083-0.013c-0.191,0.02-0.386,0.05-0.582,0.089
					c-0.196,0.039-0.392,0.088-0.587,0.145c-0.389,0.115-0.77,0.264-1.12,0.441c-0.263,0.133-0.509,0.282-0.728,0.443
					c-0.073,0.054-0.143,0.109-0.21,0.166c-0.133,0.113-0.247,0.227-0.341,0.339c-0.094,0.112-0.169,0.222-0.225,0.33
					c-0.026,0.05-0.047,0.099-0.064,0.147c-0.047,0.178-0.051,0.218-0.054,0.257C40.46,32.774,40.461,32.816,40.466,32.856z"/>
				<path fill=" #1A1A1A" d="M46.118,36.329c-0.094-0.002-0.19-0.001-0.287,0.003c-0.097,0.004-0.195,0.011-0.295,0.02
					c-0.397,0.038-0.809,0.12-1.212,0.238c-0.201,0.059-0.401,0.128-0.595,0.205c-0.194,0.077-0.383,0.162-0.564,0.255
					c-0.181,0.093-0.354,0.193-0.517,0.3c-0.081,0.053-0.159,0.109-0.235,0.165s-0.147,0.115-0.216,0.175
					c-0.206,0.18-0.367,0.36-0.483,0.536c-0.039,0.059-0.072,0.117-0.101,0.174c-0.026,0.053-0.048,0.104-0.065,0.156
					c-0.047,0.186-0.051,0.226-0.054,0.265c-0.004,0.059-0.002,0.102,0.002,0.144c0.052,0.281,0.172,0.456,0.368,0.598
					c0.196,0.142,0.468,0.249,0.813,0.309c0.345,0.061,0.731,0.069,1.134,0.032c0.403-0.037,0.821-0.119,1.231-0.24
					c0.41-0.121,0.811-0.28,1.178-0.469c0.367-0.19,0.7-0.41,0.975-0.653c0.274-0.243,0.464-0.485,0.573-0.717
					c0.058-0.124,0.092-0.244,0.104-0.36c0.005-0.05,0.007-0.098,0.004-0.146c-0.003-0.048-0.009-0.095-0.021-0.14
					c-0.025-0.098-0.069-0.19-0.131-0.274c-0.063-0.085-0.145-0.162-0.245-0.231c-0.1-0.069-0.219-0.129-0.355-0.179
					c-0.137-0.05-0.291-0.09-0.464-0.118c-0.086-0.014-0.175-0.025-0.265-0.033C46.304,36.336,46.212,36.331,46.118,36.329z"/>
				<path fill=" #1A1A1A" d="M47.823,42.7c-0.196-0.006-0.398,0-0.604,0.018c-0.412,0.036-0.839,0.119-1.256,0.242
					c-0.209,0.061-0.415,0.132-0.616,0.213c-0.201,0.08-0.397,0.169-0.584,0.267c-0.281,0.146-0.544,0.311-0.777,0.491
					c-0.078,0.06-0.152,0.122-0.223,0.185c-0.284,0.254-0.483,0.509-0.6,0.754c-0.027,0.056-0.048,0.11-0.065,0.165
					c-0.059,0.375-0.057,0.453-0.041,0.528c0.046,0.213,0.172,0.402,0.377,0.556c0.205,0.154,0.488,0.272,0.847,0.341
					c0.36,0.069,0.762,0.082,1.18,0.047c0.419-0.035,0.853-0.119,1.278-0.244c0.425-0.125,0.84-0.291,1.22-0.49
					c0.38-0.199,0.724-0.431,1.007-0.689c0.283-0.258,0.479-0.516,0.59-0.763c0.086-0.19,0.12-0.372,0.108-0.542
					c-0.003-0.051-0.011-0.101-0.023-0.15c-0.013-0.053-0.032-0.103-0.055-0.153c-0.07-0.148-0.184-0.28-0.342-0.392
					c-0.157-0.112-0.358-0.204-0.599-0.27c-0.081-0.022-0.166-0.041-0.256-0.057C48.207,42.725,48.018,42.707,47.823,42.7z"/>
			</g>
		</g>
		<g>
			<linearGradient id="SVGID_4_" gradientUnits="userSpaceOnUse" x1="56.403" y1="87.6617" x2="99.4948" y2="87.6617">
				<stop  offset="0" style="stop-color:#FAC63A"/>
				<stop  offset="1" style="stop-color:#FCE335"/>
			</linearGradient>
			<path fill="url(#SVGID_4_)" d="M81.949,114.4c-0.333,0-0.669-0.04-1-0.117c-0.696-0.163-1.362-0.492-1.981-0.976L58.914,97.611
				c-0.572-0.448-1.066-1.023-1.467-1.71c-0.392-0.67-0.679-1.416-0.854-2.219c-0.176-0.804-0.229-1.624-0.16-2.437
				c0.072-0.837,0.272-1.63,0.595-2.355l10.983-24.654c0.341-0.765,0.789-1.423,1.332-1.955c0.518-0.507,1.099-0.88,1.73-1.109
				c0.458-0.166,0.93-0.25,1.405-0.25c0.168,0,0.338,0.011,0.505,0.032c0.672,0.085,1.318,0.338,1.92,0.751l21.642,14.832
				c0.677,0.464,1.26,1.072,1.733,1.808c0.463,0.721,0.801,1.53,1.005,2.406c0.205,0.88,0.262,1.779,0.171,2.674
				c-0.093,0.922-0.34,1.795-0.735,2.595l-12.572,25.516c-0.363,0.737-0.838,1.353-1.41,1.829c-0.542,0.451-1.149,0.76-1.804,0.916
				C82.611,114.361,82.28,114.4,81.949,114.4z"/>
			<linearGradient id="SVGID_5_" gradientUnits="userSpaceOnUse" x1="74.3397" y1="68.0675" x2="121.8096" y2="68.0675">
				<stop  offset="0" style="stop-color:#FAC63A"/>
				<stop  offset="1" style="stop-color:#FCE335"/>
			</linearGradient>
			<path fill="url(#SVGID_5_)" d="M106.88,78.313c-0.43,0-0.957-0.07-1.568-0.209c-0.711-0.161-1.496-0.405-2.335-0.726
				c-0.846-0.323-1.7-0.707-2.537-1.139c-0.865-0.447-1.669-0.924-2.39-1.418L76.409,59.988c-0.648-0.444-1.164-0.865-1.533-1.251
				c-0.421-0.438-0.515-0.69-0.536-0.778c0.076-0.065,0.264-0.137,0.69-0.137c0.064,0,0.131,0.001,0.201,0.005l15.756,0.723
				c0.439,0.02,0.986,0.117,1.626,0.288c0.634,0.169,1.325,0.402,2.055,0.691c0.734,0.291,1.47,0.625,2.188,0.992
				c0.742,0.379,1.434,0.779,2.058,1.189l20.287,13.333c0.667,0.439,1.232,0.866,1.678,1.269c0.508,0.46,0.74,0.78,0.845,0.967
				c0.051,0.091,0.074,0.154,0.085,0.193c-0.053,0.021-0.158,0.05-0.347,0.06l-14.399,0.777
				C107.004,78.311,106.943,78.313,106.88,78.313z"/>
			<linearGradient id="SVGID_6_" gradientUnits="userSpaceOnUse" x1="87.2275" y1="98.0947" x2="122.3856" y2="98.0947">
				<stop  offset="0" style="stop-color:#FAC63A"/>
				<stop  offset="1" style="stop-color:#FCE335"/>
			</linearGradient>
			<path fill="url(#SVGID_6_)" d="M88.117,116.557c-0.189,0-0.346-0.036-0.468-0.108c-0.183-0.108-0.309-0.313-0.373-0.612
				c-0.082-0.38-0.059-0.886,0.068-1.463c0.142-0.65,0.406-1.37,0.785-2.139L100.7,86.717c0.409-0.831,0.908-1.648,1.482-2.426
				c0.553-0.749,1.149-1.428,1.772-2.017c0.611-0.578,1.213-1.036,1.789-1.361c0.548-0.31,1.056-0.485,1.469-0.507l14.4-0.773
				c0.348-0.002,0.47,0.105,0.538,0.185c0.141,0.168,0.222,0.455,0.234,0.833c0.015,0.446-0.071,1.004-0.247,1.615
				c-0.191,0.662-0.482,1.373-0.865,2.115l-11.868,22.997c-0.365,0.706-0.803,1.409-1.302,2.088c-0.482,0.655-1,1.262-1.541,1.803
				c-0.535,0.536-1.065,0.978-1.574,1.316c-0.495,0.329-0.959,0.547-1.342,0.631l-15.104,3.293
				C88.389,116.54,88.246,116.557,88.117,116.557z"/>
			<g>
				<path fill=" #1A1A1A" d="M117.921,84.971c-0.015-0.279-0.09-0.5-0.225-0.646c-0.279-0.181-0.418-0.211-0.585-0.197
					c-0.255,0.021-0.546,0.132-0.852,0.316c-0.307,0.184-0.631,0.441-0.952,0.752c-0.321,0.311-0.639,0.677-0.934,1.078
					c-0.296,0.401-0.568,0.837-0.798,1.29c-0.23,0.452-0.396,0.876-0.499,1.257c-0.103,0.38-0.143,0.716-0.122,0.991
					c0.021,0.275,0.103,0.489,0.245,0.628c0.088,0.086,0.202,0.139,0.336,0.163c0.164,0.015,0.212,0.015,0.263,0.009
					c0.086-0.01,0.176-0.033,0.268-0.061c0.185-0.057,0.381-0.147,0.584-0.272c0.304-0.187,0.623-0.443,0.938-0.751
					c0.158-0.154,0.314-0.32,0.467-0.498c0.153-0.177,0.303-0.365,0.448-0.562c0.058-0.08,0.111-0.166,0.168-0.247
					c0.223-0.324,0.435-0.662,0.616-1.016c0.228-0.444,0.394-0.862,0.5-1.239c0.027-0.094,0.049-0.186,0.068-0.275
					c0.02-0.097,0.035-0.189,0.047-0.279C117.92,85.252,117.928,85.105,117.921,84.971z"/>
				<path fill=" #1A1A1A" d="M108.422,102.635c-0.273-0.182-0.409-0.213-0.575-0.202c-0.252,0.016-0.54,0.12-0.846,0.295
					c-0.306,0.175-0.63,0.421-0.951,0.721c-0.322,0.3-0.641,0.652-0.939,1.04c-0.298,0.388-0.573,0.81-0.808,1.249
					c-0.234,0.438-0.405,0.851-0.512,1.222c-0.107,0.37-0.152,0.698-0.136,0.968c0.017,0.269,0.094,0.481,0.232,0.618
					c0.085,0.086,0.197,0.139,0.329,0.164c0.161,0.018,0.208,0.018,0.259,0.013c0.254-0.024,0.543-0.135,0.846-0.313
					c0.303-0.178,0.622-0.424,0.937-0.72c0.158-0.148,0.315-0.309,0.468-0.48c0.154-0.171,0.305-0.353,0.451-0.543
					c0.291-0.38,0.562-0.794,0.794-1.224c0.232-0.431,0.402-0.838,0.513-1.205c0.028-0.092,0.052-0.181,0.072-0.268
					c0.06-0.26,0.086-0.496,0.078-0.7c-0.005-0.137-0.025-0.259-0.061-0.366C108.538,102.799,108.487,102.708,108.422,102.635z"/>
				<path fill=" #1A1A1A" d="M104.622,90.27c0.083-0.089,0.167-0.181,0.249-0.276c0.101-0.117,0.2-0.24,0.298-0.364
					c0.061-0.078,0.122-0.156,0.18-0.236c0.062-0.084,0.118-0.176,0.179-0.263c0.238-0.345,0.462-0.705,0.654-1.081
					c0.06-0.118,0.116-0.234,0.167-0.348c0.103-0.228,0.19-0.448,0.26-0.658c0.035-0.105,0.066-0.207,0.093-0.307
					c0.108-0.399,0.149-0.753,0.127-1.044c-0.023-0.292-0.11-0.522-0.262-0.673c-0.029-0.029-0.062-0.053-0.096-0.075
					c-0.215-0.109-0.368-0.137-0.551-0.118c-0.28,0.028-0.596,0.151-0.929,0.352c-0.333,0.201-0.683,0.478-1.028,0.812
					c-0.345,0.335-0.686,0.726-1.001,1.154c-0.315,0.428-0.604,0.892-0.847,1.372c-0.242,0.48-0.415,0.929-0.519,1.331
					c-0.104,0.401-0.14,0.755-0.111,1.043c0.03,0.288,0.125,0.511,0.283,0.653c0.099,0.088,0.225,0.141,0.372,0.162
					c0.041,0.006,0.084,0.011,0.129,0.011c0.051,0.001,0.103,0,0.16-0.007c0.211-0.028,0.442-0.108,0.684-0.232
					c0.08-0.041,0.162-0.088,0.245-0.139c0.33-0.203,0.674-0.48,1.013-0.811C104.454,90.445,104.538,90.359,104.622,90.27z"/>
				<path fill=" #1A1A1A" d="M96.896,104.655c-0.301-0.189-0.451-0.22-0.632-0.207c-0.276,0.02-0.591,0.133-0.923,0.321
					c-0.334,0.188-0.685,0.452-1.034,0.771c-0.349,0.32-0.695,0.696-1.016,1.109c-0.322,0.413-0.619,0.862-0.87,1.328
					c-0.251,0.466-0.433,0.903-0.547,1.296c-0.113,0.392-0.158,0.739-0.137,1.024c0.021,0.284,0.109,0.507,0.261,0.651
					c0.121,0.115,0.286,0.177,0.489,0.184c0.05,0.003,0.102,0.003,0.158-0.003c0.209-0.021,0.438-0.094,0.679-0.21
					c0.08-0.039,0.162-0.082,0.245-0.13c0.165-0.096,0.334-0.209,0.505-0.338c0.085-0.065,0.171-0.133,0.257-0.205
					c0.086-0.072,0.172-0.148,0.257-0.227c0.083-0.076,0.165-0.156,0.247-0.238c0.263-0.264,0.512-0.548,0.748-0.852
					c0.158-0.202,0.309-0.413,0.453-0.631c0.143-0.218,0.278-0.442,0.403-0.67c0.186-0.343,0.336-0.671,0.448-0.978
					c0.037-0.102,0.071-0.202,0.1-0.299c0.088-0.292,0.138-0.561,0.151-0.798c0.005-0.079,0.005-0.155,0.001-0.227
					c-0.007-0.144-0.031-0.274-0.071-0.386C97.024,104.826,96.968,104.731,96.896,104.655z"/>
				<path fill=" #1A1A1A" d="M103.734,76.062c0.281-0.01,0.467-0.075,0.566-0.181c0.046-0.068,0.06-0.092,0.068-0.12
					c0.029-0.096,0.017-0.21-0.041-0.342c-0.082-0.188-0.252-0.409-0.502-0.652c-0.062-0.061-0.13-0.122-0.202-0.186
					c-0.218-0.189-0.48-0.389-0.786-0.596c-0.407-0.275-0.852-0.534-1.308-0.769c-0.456-0.235-0.924-0.445-1.378-0.62
					c-0.454-0.176-0.894-0.316-1.294-0.412c-0.4-0.096-0.76-0.147-1.053-0.142c-0.293,0.005-0.491,0.065-0.598,0.171
					c-0.101,0.243-0.091,0.336-0.05,0.441c0.073,0.186,0.234,0.406,0.48,0.65c0.247,0.245,0.578,0.512,0.99,0.793
					c0.412,0.281,0.866,0.547,1.332,0.787c0.467,0.241,0.946,0.455,1.41,0.634c0.463,0.178,0.911,0.319,1.315,0.414
					C103.086,76.026,103.446,76.073,103.734,76.062z"/>
				<path fill=" #1A1A1A" d="M115.09,75.607c0.257-0.009,0.42-0.072,0.495-0.176c0.043-0.258,0.017-0.339-0.03-0.428
					c-0.093-0.177-0.267-0.385-0.516-0.614c-0.062-0.057-0.129-0.116-0.2-0.175c-0.071-0.06-0.147-0.12-0.228-0.182
					c-0.161-0.123-0.34-0.25-0.536-0.38c-0.392-0.259-0.818-0.505-1.25-0.727c-0.433-0.222-0.873-0.421-1.298-0.586
					c-0.212-0.083-0.42-0.158-0.622-0.223c-0.201-0.066-0.395-0.122-0.579-0.167c-0.276-0.068-0.53-0.112-0.749-0.129
					c-0.073-0.005-0.143-0.007-0.208-0.006c-0.196,0.003-0.342,0.036-0.438,0.094c-0.158,0.225-0.146,0.343-0.078,0.482
					c0.084,0.175,0.252,0.383,0.497,0.613c0.246,0.231,0.57,0.483,0.967,0.748c0.397,0.264,0.83,0.515,1.272,0.742
					c0.442,0.227,0.893,0.43,1.326,0.598c0.433,0.168,0.848,0.302,1.22,0.392C114.506,75.571,114.833,75.616,115.09,75.607z"/>
				<path fill=" #1A1A1A" d="M80.515,61.341c0.048,0.165,0.182,0.363,0.402,0.586c0.22,0.224,0.524,0.472,0.911,0.735
					c0.386,0.263,0.818,0.515,1.267,0.747c0.449,0.231,0.916,0.441,1.372,0.618c0.456,0.177,0.901,0.322,1.308,0.424
					c0.406,0.102,0.774,0.16,1.076,0.166c0.302,0.006,0.51-0.043,0.628-0.134c0.058-0.062,0.074-0.085,0.086-0.11
					c-0.055-0.449-0.197-0.648-0.42-0.871c-0.167-0.166-0.38-0.346-0.638-0.534c-0.086-0.063-0.176-0.126-0.272-0.191
					c-0.382-0.258-0.806-0.505-1.246-0.731c-0.44-0.226-0.896-0.431-1.342-0.606c-0.447-0.175-0.884-0.318-1.286-0.421
					c-0.403-0.103-0.77-0.165-1.077-0.175c-0.306-0.01-0.522,0.032-0.649,0.118c-0.037,0.025-0.064,0.055-0.087,0.087
					C80.494,61.133,80.482,61.228,80.515,61.341z"/>
				<path fill=" #1A1A1A" d="M92.952,61.646c-0.006,0.057,0.002,0.121,0.031,0.193c0.062,0.156,0.204,0.345,0.425,0.556
					c0.221,0.212,0.521,0.448,0.895,0.697c0.375,0.249,0.789,0.489,1.216,0.708c0.427,0.219,0.867,0.417,1.293,0.585
					c0.426,0.167,0.839,0.304,1.214,0.4c0.374,0.096,0.708,0.151,0.978,0.156c0.27,0.005,0.45-0.041,0.546-0.128
					c0.049-0.044,0.074-0.099,0.079-0.164c-0.078-0.289-0.133-0.375-0.207-0.469c-0.074-0.093-0.167-0.193-0.28-0.299
					c-0.224-0.211-0.524-0.443-0.895-0.688c-0.185-0.122-0.379-0.242-0.579-0.358c-0.2-0.116-0.406-0.228-0.615-0.335
					c-0.418-0.214-0.848-0.408-1.266-0.573c-0.419-0.165-0.825-0.301-1.195-0.398c-0.186-0.048-0.362-0.087-0.527-0.115
					c-0.164-0.028-0.316-0.045-0.454-0.049c-0.274-0.009-0.462,0.032-0.565,0.114C93.018,61.499,92.997,61.525,92.952,61.646z"/>
				<path fill=" #1A1A1A" d="M98.446,67.292c-0.221-0.1-0.442-0.193-0.66-0.278c-0.436-0.171-0.859-0.309-1.244-0.406
					c-0.385-0.097-0.733-0.152-1.016-0.155c-0.284-0.003-0.477,0.047-0.583,0.14c-0.103,0.238-0.09,0.314-0.057,0.399
					c0.067,0.17,0.218,0.373,0.451,0.6c0.233,0.227,0.548,0.478,0.939,0.741c0.393,0.264,0.826,0.517,1.272,0.746
					c0.446,0.229,0.905,0.436,1.35,0.609c0.445,0.173,0.875,0.312,1.264,0.408c0.388,0.095,0.735,0.147,1.015,0.145
					c0.278-0.002,0.463-0.058,0.559-0.156c0.093-0.149,0.09-0.268,0.028-0.412c-0.038-0.086-0.096-0.18-0.175-0.281
					c-0.079-0.101-0.178-0.209-0.296-0.322c-0.237-0.226-0.551-0.473-0.939-0.732c-0.193-0.129-0.396-0.255-0.605-0.377
					c-0.209-0.122-0.424-0.24-0.643-0.351C98.888,67.498,98.667,67.392,98.446,67.292z"/>
				<path fill=" #1A1A1A" d="M77.217,70.241c-0.021-0.069-0.044-0.136-0.067-0.203c-0.014-0.04-0.028-0.079-0.042-0.118
					c-0.021-0.057-0.044-0.113-0.068-0.169c-0.024-0.055-0.049-0.11-0.074-0.163c-0.02-0.042-0.039-0.084-0.06-0.125
					c-0.05-0.097-0.103-0.192-0.159-0.283c-0.256-0.41-0.58-0.764-0.967-1.034c-0.289-0.202-0.593-0.343-0.901-0.426
					c-0.103-0.028-0.206-0.048-0.308-0.063c-0.309-0.044-0.619-0.031-0.92,0.035c-0.1,0.022-0.199,0.05-0.298,0.084
					c-0.151,0.052-0.298,0.123-0.441,0.202c-0.227,0.126-0.445,0.282-0.645,0.473c-0.213,0.205-0.405,0.449-0.574,0.725
					c-0.088,0.144-0.172,0.293-0.245,0.455c-0.053,0.118-0.101,0.238-0.144,0.359c-0.042,0.122-0.08,0.244-0.112,0.368
					c-0.064,0.248-0.107,0.5-0.13,0.754c-0.046,0.506-0.011,1.016,0.097,1.501c0.023,0.1,0.048,0.192,0.076,0.284
					c0.024,0.083,0.052,0.165,0.08,0.246c0.102,0.29,0.229,0.568,0.386,0.823c0.251,0.408,0.569,0.763,0.95,1.036
					c0.381,0.273,0.788,0.439,1.199,0.504c0.411,0.065,0.825,0.029,1.218-0.1c0.394-0.13,0.768-0.352,1.098-0.661
					c0.33-0.31,0.617-0.705,0.835-1.179c0.219-0.475,0.349-0.984,0.396-1.497c0.047-0.513,0.012-1.029-0.099-1.52
					C77.276,70.442,77.247,70.341,77.217,70.241z"/>
				<path fill=" #1A1A1A" d="M84.27,101.884c-0.02-0.067-0.043-0.132-0.066-0.199c-0.015-0.044-0.03-0.088-0.047-0.131
					c-0.021-0.056-0.043-0.112-0.067-0.167c-0.025-0.059-0.051-0.117-0.078-0.174c-0.02-0.042-0.039-0.084-0.06-0.125
					c-0.051-0.101-0.105-0.199-0.163-0.295c-0.196-0.321-0.432-0.613-0.704-0.865c-0.091-0.084-0.186-0.163-0.285-0.237
					c-0.296-0.222-0.607-0.384-0.922-0.487c-0.105-0.035-0.211-0.062-0.316-0.084c-0.316-0.065-0.633-0.072-0.941-0.025
					c-0.103,0.016-0.204,0.037-0.305,0.065c-0.1,0.027-0.199,0.061-0.296,0.1c-0.291,0.117-0.566,0.287-0.816,0.506
					c-0.083,0.073-0.164,0.151-0.241,0.235c-0.131,0.151-0.219,0.266-0.302,0.387c-0.108,0.158-0.209,0.325-0.297,0.508
					c-0.055,0.115-0.104,0.232-0.147,0.351c-0.087,0.238-0.153,0.483-0.197,0.733c-0.022,0.125-0.039,0.251-0.051,0.377
					c-0.012,0.126-0.019,0.253-0.02,0.38c-0.005,0.381,0.035,0.763,0.118,1.133c0.022,0.098,0.048,0.194,0.076,0.29
					c0.113,0.389,0.271,0.763,0.476,1.104c0.256,0.426,0.582,0.803,0.971,1.102c0.39,0.3,0.807,0.492,1.227,0.585
					c0.42,0.092,0.844,0.084,1.247-0.02c0.404-0.104,0.787-0.303,1.125-0.592c0.338-0.289,0.632-0.667,0.856-1.129
					c0.225-0.463,0.358-0.965,0.407-1.476s0.014-1.033-0.099-1.533C84.331,102.095,84.301,101.989,84.27,101.884z"/>
				<path fill=" #1A1A1A" d="M93.613,85.328c0.235-0.484,0.375-1.005,0.427-1.532c0.052-0.527,0.016-1.061-0.101-1.57
					c-0.023-0.102-0.053-0.202-0.083-0.302c-0.023-0.078-0.05-0.155-0.077-0.231c-0.063-0.168-0.088-0.231-0.115-0.294
					c-0.024-0.055-0.049-0.108-0.075-0.161c-0.022-0.046-0.044-0.092-0.068-0.137c-0.053-0.101-0.109-0.2-0.17-0.296
					c-0.068-0.107-0.141-0.211-0.218-0.31c-0.077-0.1-0.158-0.196-0.244-0.287c-0.172-0.183-0.361-0.348-0.566-0.492
					c-0.308-0.216-0.632-0.368-0.96-0.461c-0.11-0.031-0.219-0.055-0.33-0.073c-0.11-0.018-0.22-0.029-0.33-0.034
					c-0.329-0.014-0.656,0.029-0.969,0.126c-0.139,0.043-0.275,0.101-0.409,0.165c-0.166,0.08-0.329,0.173-0.483,0.284
					c-0.093,0.067-0.183,0.14-0.269,0.219c-0.087,0.078-0.171,0.162-0.251,0.251c-0.161,0.178-0.309,0.378-0.441,0.598
					c-0.066,0.11-0.127,0.225-0.185,0.346c-0.04,0.084-0.074,0.171-0.109,0.258c-0.075,0.187-0.137,0.377-0.185,0.571
					c-0.057,0.226-0.099,0.455-0.121,0.686c-0.012,0.123-0.018,0.246-0.021,0.369c-0.003,0.152,0,0.282,0.008,0.412
					c0.008,0.13,0.022,0.259,0.041,0.387c0.019,0.128,0.042,0.255,0.071,0.38c0.022,0.098,0.049,0.194,0.078,0.289
					c0.117,0.397,0.282,0.775,0.496,1.119c0.266,0.426,0.605,0.8,1.011,1.091c0.405,0.291,0.839,0.471,1.277,0.548
					c0.438,0.077,0.88,0.051,1.301-0.072c0.421-0.123,0.821-0.344,1.174-0.653C93.072,86.211,93.379,85.811,93.613,85.328z"/>
				<path fill=" #1A1A1A" d="M67.887,89.182c-0.108-0.243-0.184-0.396-0.271-0.54c-0.246-0.409-0.557-0.768-0.928-1.046
					c-0.371-0.278-0.765-0.451-1.161-0.524c-0.198-0.037-0.396-0.049-0.591-0.037c-0.196,0.012-0.389,0.047-0.577,0.105
					c-0.219,0.068-0.429,0.17-0.629,0.299c-0.13,0.083-0.254,0.177-0.373,0.284c-0.194,0.178-0.339,0.344-0.471,0.531
					c-0.132,0.187-0.25,0.393-0.352,0.619c-0.153,0.338-0.259,0.696-0.32,1.061c-0.021,0.122-0.036,0.244-0.047,0.367
					c-0.043,0.492-0.009,0.99,0.096,1.467c0.022,0.098,0.047,0.193,0.075,0.287c0.025,0.088,0.054,0.173,0.083,0.259
					c0.097,0.278,0.217,0.546,0.364,0.795c0.241,0.407,0.548,0.766,0.913,1.047c0.366,0.281,0.757,0.458,1.15,0.537
					c0.394,0.079,0.791,0.061,1.169-0.05c0.378-0.11,0.736-0.313,1.053-0.601c0.316-0.289,0.591-0.663,0.799-1.117
					c0.209-0.455,0.333-0.946,0.378-1.443c0.045-0.498,0.01-1.003-0.097-1.486C68.087,89.714,67.997,89.442,67.887,89.182z"/>
				<path fill=" #1A1A1A" d="M72.394,79.689c-0.109-0.241-0.187-0.396-0.276-0.543c-0.251-0.41-0.569-0.767-0.947-1.042
					c-0.378-0.274-0.78-0.44-1.184-0.506c-0.101-0.016-0.202-0.027-0.302-0.031c-0.101-0.004-0.201-0.002-0.301,0.006
					c-0.2,0.016-0.397,0.056-0.589,0.118c-0.058,0.019-0.115,0.044-0.172,0.068c-0.319,0.13-0.622,0.321-0.892,0.576
					c-0.238,0.226-0.452,0.498-0.632,0.815c-0.06,0.106-0.116,0.216-0.168,0.331c-0.052,0.116-0.099,0.233-0.141,0.352
					c-0.049,0.14-0.088,0.283-0.123,0.426c-0.054,0.223-0.092,0.45-0.113,0.677c-0.011,0.125-0.017,0.25-0.019,0.375
					c-0.004,0.375,0.035,0.749,0.116,1.11c0.021,0.097,0.047,0.192,0.075,0.285c0.108,0.377,0.26,0.736,0.457,1.062
					c0.246,0.408,0.558,0.764,0.93,1.041c0.374,0.278,0.773,0.449,1.175,0.522c0.402,0.072,0.808,0.045,1.193-0.074
					c0.386-0.12,0.752-0.333,1.075-0.632c0.323-0.299,0.604-0.685,0.817-1.149c0.213-0.464,0.34-0.963,0.386-1.468
					c0.046-0.505,0.012-1.016-0.097-1.503C72.598,80.224,72.506,79.95,72.394,79.689z"/>
				<path fill=" #1A1A1A" d="M88.931,91.937c-0.014-0.039-0.027-0.077-0.041-0.116c-0.023-0.06-0.047-0.12-0.073-0.179
					c-0.024-0.056-0.05-0.112-0.076-0.167c-0.021-0.044-0.041-0.088-0.063-0.131c-0.052-0.101-0.107-0.2-0.167-0.296
					c-0.2-0.322-0.44-0.613-0.718-0.862c-0.093-0.083-0.189-0.161-0.29-0.235c-0.402-0.292-0.831-0.473-1.263-0.552
					c-0.323-0.059-0.646-0.06-0.961-0.006c-0.105,0.018-0.209,0.042-0.311,0.072c-0.205,0.06-0.404,0.143-0.594,0.249
					c-0.19,0.106-0.372,0.235-0.543,0.386c-0.34,0.302-0.634,0.691-0.858,1.16c-0.175,0.366-0.292,0.755-0.359,1.152
					c-0.019,0.112-0.035,0.224-0.046,0.337c-0.049,0.513-0.014,1.033,0.099,1.532c0.022,0.098,0.048,0.194,0.077,0.289
					c0.115,0.393,0.276,0.77,0.486,1.112c0.261,0.426,0.593,0.802,0.99,1.096c0.398,0.296,0.823,0.483,1.252,0.568
					c0.429,0.085,0.862,0.068,1.274-0.045c0.412-0.113,0.804-0.323,1.15-0.622c0.346-0.3,0.646-0.689,0.876-1.162
					s0.366-0.984,0.416-1.503c0.05-0.519,0.014-1.047-0.101-1.552C89.046,92.285,88.992,92.11,88.931,91.937z"/>
			</g>
		</g>
	</g>
</g>
</svg>
