<?xml version="1.0" encoding="utf-8"?>
<!-- Generator: Adobe Illustrator 23.1.0, SVG Export Plug-In . SVG Version: 6.00 Build 0)  -->
<svg version="1.1" xmlns="http://www.w3.org/2000/svg" xmlns:xlink="http://www.w3.org/1999/xlink" x="0px" y="0px"
	 viewBox="0 0 144 144" enable-background="new 0 0 144 144" xml:space="preserve">
<g id="BG">
</g>
<g id="Object">
	<g>
		<linearGradient id="SVGID_1_" gradientUnits="userSpaceOnUse" x1="72" y1="118.15" x2="72" y2="27.2388">
			<stop  offset="0" style="stop-color:#FAC63A"/>
			<stop  offset="1" style="stop-color:#FCE335"/>
		</linearGradient>
		<path fill="url(#SVGID_1_)" d="M76.974,25.354c-1.632-0.18-3.291-0.27-4.974-0.27s-3.342,0.09-4.974,0.27
			C43.452,27.835,25.084,47.771,25.084,72s18.368,44.166,41.942,46.646c1.632,0.18,3.291,0.27,4.974,0.27s3.342-0.09,4.974-0.27
			c23.574-2.481,41.942-22.417,41.942-46.646S100.548,27.835,76.974,25.354z M76.974,102.772c-1.62,0.257-3.278,0.398-4.974,0.398
			s-3.355-0.142-4.974-0.398C52.179,100.394,40.83,87.514,40.83,72c0-15.527,11.349-28.394,26.196-30.772
			c1.62-0.257,3.278-0.398,4.974-0.398s3.355,0.141,4.974,0.398C91.821,43.606,103.171,56.473,103.171,72
			C103.171,87.514,91.821,100.394,76.974,102.772z"/>
		
			<ellipse transform="matrix(0.1602 -0.9871 0.9871 0.1602 -10.6005 131.5346)" fill=" #1A1A1A" cx="72" cy="71.997" rx="31.17" ry="31.171"/>
		<path fill=" #1A1A1A" stroke=" #1A1A1A" stroke-width="0.5" stroke-miterlimit="10" d="M76.974,25.354v93.293
			c-1.632,0.18-3.291,0.27-4.974,0.27s-3.342-0.09-4.974-0.27V25.354c1.632-0.18,3.291-0.27,4.974-0.27S75.342,25.174,76.974,25.354
			z"/>
		<path fill=" #1A1A1A" stroke=" #1A1A1A" stroke-width="0.5" stroke-miterlimit="10" d="M42.585,35.584l65.968,65.968
			c-1.027,1.282-2.136,2.518-3.327,3.708c-1.19,1.191-2.427,2.3-3.708,3.327L35.55,42.619c1.027-1.282,2.136-2.518,3.327-3.708
			C40.067,37.72,41.303,36.611,42.585,35.584z"/>
		<path fill=" #1A1A1A" stroke=" #1A1A1A" stroke-width="0.5" stroke-miterlimit="10" d="M35.732,101.524L101.7,35.557
			c1.282,1.027,2.518,2.136,3.708,3.327c1.191,1.191,2.3,2.427,3.327,3.708l-65.968,65.968c-1.281-1.027-2.518-2.136-3.708-3.327
			C37.868,104.042,36.759,102.806,35.732,101.524z"/>
		<linearGradient id="SVGID_2_" gradientUnits="userSpaceOnUse" x1="72" y1="118.15" x2="72" y2="27.2388">
			<stop  offset="0" style="stop-color:#FAC63A"/>
			<stop  offset="1" style="stop-color:#FCE335"/>
		</linearGradient>
		<path fill="url(#SVGID_2_)" d="M98.029,71.997c0,14.375-11.654,26.029-26.029,26.029S45.971,86.372,45.971,71.997
			c0-14.376,11.654-26.029,26.029-26.029S98.029,57.621,98.029,71.997z"/>
		<path fill=" #1A1A1A" d="M91.088,71.997c0,10.542-8.546,19.087-19.088,19.087c-10.542,0-19.088-8.546-19.088-19.087
			c0-10.542,8.546-19.088,19.088-19.088C82.542,52.909,91.088,61.455,91.088,71.997z"/>
		<g>
			<linearGradient id="SVGID_3_" gradientUnits="userSpaceOnUse" x1="42.4788" y1="71.9165" x2="101.5864" y2="71.9165">
				<stop  offset="0" style="stop-color:#FAC63A"/>
				<stop  offset="1" style="stop-color:#FCE335"/>
			</linearGradient>
			<path fill="url(#SVGID_3_)" d="M68.98,101.425c-0.035,0-0.07-0.001-0.104-0.005c-2.752-0.289-5.444-0.961-7.998-1.999
				c-0.505-0.205-0.747-0.781-0.543-1.286c0.207-0.507,0.784-0.745,1.286-0.543c2.384,0.969,4.894,1.597,7.461,1.865
				c0.542,0.057,0.936,0.542,0.879,1.085C69.906,101.048,69.478,101.425,68.98,101.425z M76.939,101.158
				c-0.471,0-0.888-0.338-0.972-0.819c-0.092-0.537,0.267-1.047,0.804-1.141c2.536-0.439,4.997-1.236,7.315-2.367
				c0.492-0.24,1.079-0.039,1.319,0.454c0.239,0.491,0.036,1.081-0.453,1.319c-2.485,1.213-5.124,2.066-7.844,2.539
				C77.052,101.152,76.996,101.158,76.939,101.158z M54.355,95.494c-0.212,0-0.428-0.068-0.608-0.211
				c-2.172-1.705-4.095-3.703-5.715-5.937c-0.32-0.442-0.221-1.059,0.22-1.379c0.441-0.324,1.059-0.222,1.379,0.22
				c1.512,2.086,3.307,3.952,5.335,5.544c0.429,0.337,0.504,0.957,0.167,1.385C54.939,95.364,54.648,95.494,54.355,95.494z
				 M91.124,94.249c-0.27,0-0.538-0.111-0.734-0.326c-0.365-0.406-0.331-1.029,0.073-1.394c1.918-1.726,3.585-3.707,4.952-5.89
				c0.29-0.459,0.898-0.601,1.36-0.312c0.461,0.289,0.601,0.898,0.312,1.361c-1.465,2.338-3.249,4.461-5.304,6.308
				C91.595,94.166,91.359,94.249,91.124,94.249z M45.1,82.715c-0.403,0-0.783-0.249-0.928-0.651
				c-0.938-2.592-1.507-5.305-1.691-8.066c-0.036-0.543,0.375-1.013,0.919-1.05c0.547-0.035,1.013,0.375,1.05,0.918
				c0.172,2.576,0.703,5.109,1.578,7.527c0.186,0.512-0.08,1.078-0.592,1.263C45.324,82.696,45.211,82.715,45.1,82.715z
				 M99.497,80.873c-0.09,0-0.181-0.012-0.272-0.039c-0.523-0.15-0.826-0.696-0.676-1.22c0.706-2.463,1.064-5.025,1.064-7.617
				c0.001-1.244-0.082-2.497-0.249-3.73c-0.073-0.54,0.306-1.037,0.845-1.11c0.556-0.076,1.037,0.307,1.11,0.845
				c0.178,1.32,0.269,2.665,0.267,3.996c0,2.774-0.384,5.52-1.141,8.16C100.322,80.591,99.926,80.873,99.497,80.873z M44.036,66.972
				c-0.07,0-0.139-0.007-0.208-0.022c-0.532-0.114-0.873-0.639-0.758-1.172c0.578-2.701,1.533-5.305,2.84-7.741
				c0.257-0.479,0.851-0.665,1.336-0.403c0.481,0.259,0.66,0.856,0.403,1.336c-1.219,2.273-2.11,4.703-2.649,7.222
				C44.9,66.654,44.49,66.972,44.036,66.972z M98.181,61.455c-0.379,0-0.74-0.22-0.903-0.588c-1.038-2.353-2.402-4.552-4.056-6.536
				c-0.349-0.419-0.293-1.041,0.126-1.39c0.419-0.351,1.039-0.293,1.39,0.126c1.772,2.126,3.234,4.482,4.347,7.004
				c0.22,0.498-0.006,1.081-0.505,1.301C98.45,61.428,98.315,61.455,98.181,61.455z M51.481,53.061
				c-0.248,0-0.496-0.093-0.688-0.279c-0.39-0.38-0.4-1.005-0.021-1.395c1.926-1.983,4.114-3.685,6.505-5.06
				c0.473-0.269,1.075-0.108,1.348,0.364c0.271,0.473,0.108,1.075-0.364,1.348c-2.233,1.282-4.276,2.872-6.073,4.723
				C51.995,52.961,51.738,53.061,51.481,53.061z M88.079,49.328c-0.19,0-0.384-0.055-0.554-0.171c-2.135-1.453-4.457-2.598-6.9-3.4
				c-0.518-0.171-0.799-0.729-0.63-1.246c0.171-0.517,0.725-0.803,1.246-0.629c2.617,0.861,5.105,2.086,7.393,3.644
				c0.451,0.307,0.568,0.92,0.261,1.371C88.704,49.177,88.395,49.328,88.079,49.328z M65.164,45.206
				c-0.443,0-0.847-0.302-0.957-0.752c-0.13-0.529,0.194-1.064,0.724-1.194c2.665-0.654,5.45-0.942,8.2-0.829
				c0.545,0.021,0.969,0.479,0.947,1.024c-0.022,0.546-0.524,1.028-1.024,0.947c-2.562-0.095-5.166,0.165-7.652,0.775
				C65.322,45.198,65.242,45.206,65.164,45.206z"/>
		</g>
		<g>
			<g>
				<path fill=" #1A1A1A" d="M40.83,72c0,3.144,0.473,6.177,1.34,9.04h59.66c0.867-2.862,1.34-5.895,1.34-9.04
					c0-3.065-0.448-6.023-1.272-8.821H42.102C41.278,65.977,40.83,68.935,40.83,72z"/>
				<path fill=" #1A1A1A" d="M40.83,72c0-3.065,0.448-6.023,1.272-8.821h-16.19c-0.544,2.857-0.829,5.805-0.829,8.821
					c0,3.093,0.303,6.114,0.874,9.04H42.17C41.303,78.177,40.83,75.144,40.83,72z"/>
				<path fill=" #1A1A1A" d="M118.087,63.179h-16.189c0.824,2.797,1.272,5.756,1.272,8.821c0,3.144-0.473,6.177-1.34,9.04h16.212
					c0.571-2.926,0.874-5.947,0.874-9.04C118.916,68.985,118.631,66.036,118.087,63.179z"/>
			</g>
			<path fill="none" d="M76.974,41.228c-1.62-0.257-3.278-0.398-4.974-0.398c-1.697,0-3.355,0.141-4.974,0.398
				C55.11,43.137,45.453,51.805,42.102,63.179h59.796C98.548,51.805,88.89,43.137,76.974,41.228z"/>
			<path fill="none" d="M67.026,102.772c1.62,0.257,3.278,0.398,4.974,0.398c1.697,0,3.355-0.142,4.974-0.398
				c11.837-1.896,21.445-10.471,24.856-21.732H42.17C45.581,92.301,55.188,100.876,67.026,102.772z"/>
		</g>
		<g>
			<path fill="#FCE135" d="M60.416,73.163v1.473c0,1.774-0.888,2.788-2.598,2.788c-1.711,0-2.598-1.014-2.598-2.788v-5.765
				c0-1.774,0.887-2.788,2.598-2.788c1.71,0,2.598,1.014,2.598,2.788v1.077h-1.647V68.76c0-0.792-0.349-1.093-0.903-1.093
				c-0.554,0-0.902,0.301-0.902,1.093v5.987c0,0.792,0.349,1.077,0.902,1.077c0.555,0,0.903-0.285,0.903-1.077v-1.584H60.416z"/>
			<path fill="#FCE135" d="M67.118,77.297H65.36l-0.301-2.012h-2.138l-0.301,2.012H61.02l1.774-11.087h2.55L67.118,77.297z
				 M63.143,73.78h1.679l-0.84-5.606L63.143,73.78z"/>
			<path fill="#FCE135" d="M70.272,66.083c1.695,0,2.566,1.014,2.566,2.788v0.428h-1.647V68.76c0-0.792-0.317-1.093-0.871-1.093
				c-0.555,0-0.871,0.301-0.871,1.093c0,2.281,3.405,2.708,3.405,5.876c0,1.774-0.887,2.788-2.598,2.788s-2.598-1.014-2.598-2.788
				v-0.76h1.647v0.871c0,0.792,0.349,1.077,0.902,1.077c0.555,0,0.903-0.285,0.903-1.077c0-2.281-3.405-2.709-3.405-5.876
				C67.706,67.097,68.577,66.083,70.272,66.083z"/>
			<path fill="#FCE135" d="M73.854,66.21h1.742v11.087h-1.742V66.21z"/>
			<path fill="#FCE135" d="M78.415,69.267v8.03h-1.567V66.21h2.186l1.789,6.637V66.21h1.553v11.087h-1.79L78.415,69.267z"/>
			<path fill="#FCE135" d="M83.487,68.871c0-1.774,0.935-2.788,2.645-2.788c1.711,0,2.646,1.014,2.646,2.788v5.765
				c0,1.774-0.935,2.788-2.646,2.788c-1.71,0-2.645-1.014-2.645-2.788V68.871z M85.229,74.747c0,0.792,0.349,1.093,0.902,1.093
				c0.555,0,0.903-0.301,0.903-1.093V68.76c0-0.792-0.349-1.093-0.903-1.093c-0.554,0-0.902,0.301-0.902,1.093V74.747z"/>
		</g>
	</g>
</g>
</svg>
