<?xml version="1.0" encoding="utf-8"?>
<!-- Generator: Adobe Illustrator 23.1.0, SVG Export Plug-In . SVG Version: 6.00 Build 0)  -->
<svg version="1.1" xmlns="http://www.w3.org/2000/svg" xmlns:xlink="http://www.w3.org/1999/xlink" x="0px" y="0px"
	 viewBox="0 0 144 144" enable-background="new 0 0 144 144" xml:space="preserve">
<g id="BG">
</g>
<g id="Object">
	<g>
		<linearGradient id="SVGID_7_" gradientUnits="userSpaceOnUse" x1="78.6112" y1="72.0037" x2="144" y2="72.0037">
			<stop  offset="0" style="stop-color:#FAC63A"/>
			<stop  offset="1" style="stop-color:#FCE335"/>
		</linearGradient>
		<path fill="url(#SVGID_7_)" d="M78.635,143.47c-0.007-2.024-0.017-4.047-0.021-6.071c-0.004-1.768-0.003-3.536,0.001-5.304
			c0.001-0.557,0.009-0.565,0.511-0.597c3.673-0.233,7.2-1.144,10.66-2.337c6.505-2.243,12.406-5.601,17.875-9.745
			c2.86-2.168,5.581-4.502,8.078-7.077c2.518-2.597,4.674-5.488,6.613-8.538c3.653-5.744,6.234-11.937,7.746-18.572
			c0.578-2.539,0.98-5.106,1.219-7.702c0.224-2.436,0.314-4.874,0.23-7.316c-0.253-7.345-1.775-14.418-4.639-21.192
			c-2.604-6.161-6.125-11.75-10.648-16.68c-2.588-2.82-5.555-5.225-8.668-7.447c-5.533-3.948-11.539-6.963-17.994-9.084
			c-3.385-1.113-6.838-1.944-10.374-2.419c-0.607-0.082-0.61-0.082-0.611-0.717c-0.002-2.28-0.003-4.56,0-6.84
			c0.003-1.768,0.013-3.536,0.02-5.303c0.124-0.114,0.277-0.055,0.417-0.07c3.129,0.11,6.187,0.699,9.229,1.386
			c5.818,1.315,11.379,3.349,16.685,6.066c5.2,2.664,10.022,5.906,14.426,9.742c6.317,5.502,11.565,11.891,15.659,19.205
			c4.352,7.775,7.179,16.073,8.456,24.896c0.28,1.935,0.439,3.876,0.423,5.831c0,0.297,0,0.593,0,0.89
			c0.037,0.29-0.08,0.593,0.072,0.874c0,1.675,0,3.35,0,5.026c-0.152,0.271-0.035,0.566-0.072,0.847c0,0.147,0,0.293,0,0.44
			c0,0.295,0,0.589,0,0.884c0.012,5.329-1.083,10.482-2.521,15.575c-1.3,4.605-3.099,9.02-5.324,13.252
			c-2.519,4.793-5.531,9.262-9.06,13.377c-5.676,6.617-12.306,12.075-19.917,16.331c-4.627,2.587-9.488,4.628-14.576,6.128
			c-3.265,0.963-6.576,1.705-9.943,2.198c-0.62,0.091-1.246,0.128-1.875,0.137C80.02,143.5,79.323,143.627,78.635,143.47z"/>
		<linearGradient id="SVGID_8_" gradientUnits="userSpaceOnUse" x1="63.1242" y1="143.4183" x2="65.5027" y2="143.4183">
			<stop  offset="0" style="stop-color:#FAC63A"/>
			<stop  offset="1" style="stop-color:#FCE335"/>
		</linearGradient>
		<path fill="url(#SVGID_8_)" d="M63.128,143.614c0-0.044-0.002-0.087-0.004-0.131c0.777-0.366,1.562-0.314,2.35-0.042
			c0.009,0.057,0.019,0.115,0.028,0.172C64.711,143.614,63.92,143.614,63.128,143.614z"/>
		<linearGradient id="SVGID_9_" gradientUnits="userSpaceOnUse" x1="78.6322" y1="143.5419" x2="80.8747" y2="143.5419">
			<stop  offset="0" style="stop-color:#FAC63A"/>
			<stop  offset="1" style="stop-color:#FCE335"/>
		</linearGradient>
		<path fill="url(#SVGID_9_)" d="M80.875,143.491c-0.002,0.041-0.005,0.082-0.008,0.123c-0.745,0-1.49,0-2.235,0
			c0.001-0.048,0.002-0.096,0.003-0.144C79.382,143.477,80.128,143.484,80.875,143.491z"/>
		<linearGradient id="SVGID_10_" gradientUnits="userSpaceOnUse" x1="143.8785" y1="68.0407" x2="144" y2="68.0407">
			<stop  offset="0" style="stop-color:#FAC63A"/>
			<stop  offset="1" style="stop-color:#FCE335"/>
		</linearGradient>
		<path fill="url(#SVGID_10_)" d="M143.883,67.526c0.039-0.002,0.078,0,0.117,0.006c0,0.326,0,0.651,0,0.977
			c-0.048,0.067-0.088,0.059-0.122-0.013C143.88,68.173,143.881,67.85,143.883,67.526z"/>
		<linearGradient id="SVGID_11_" gradientUnits="userSpaceOnUse" x1="143.8822" y1="76.0992" x2="144" y2="76.0992">
			<stop  offset="0" style="stop-color:#FAC63A"/>
			<stop  offset="1" style="stop-color:#FCE335"/>
		</linearGradient>
		<path fill="url(#SVGID_11_)" d="M144,76.607c-0.039,0.007-0.078,0.01-0.118,0.008c0-0.324,0.001-0.649,0.001-0.973
			c0.032-0.071,0.071-0.078,0.117-0.012C144,75.955,144,76.281,144,76.607z"/>
		<linearGradient id="SVGID_12_" gradientUnits="userSpaceOnUse" x1="143.8502" y1="68.9223" x2="144" y2="68.9223">
			<stop  offset="0" style="stop-color:#FAC63A"/>
			<stop  offset="1" style="stop-color:#FCE335"/>
		</linearGradient>
		<path fill="url(#SVGID_12_)" d="M143.878,68.497c0.041,0.003,0.081,0.007,0.122,0.013c0,0.279,0,0.558,0,0.838
			C143.762,69.092,143.879,68.786,143.878,68.497z"/>
		<linearGradient id="SVGID_13_" gradientUnits="userSpaceOnUse" x1="143.8512" y1="74.8159" x2="144" y2="74.8159">
			<stop  offset="0" style="stop-color:#FAC63A"/>
			<stop  offset="1" style="stop-color:#FCE335"/>
		</linearGradient>
		<path fill="url(#SVGID_13_)" d="M143.868,75.217c0.024-0.285-0.112-0.594,0.132-0.844c0,0.279,0,0.558,0,0.838
			C143.959,75.272,143.915,75.274,143.868,75.217z"/>
		<linearGradient id="SVGID_14_" gradientUnits="userSpaceOnUse" x1="65.0807" y1="0.5034" x2="65.5027" y2="0.5034">
			<stop  offset="0" style="stop-color:#FAC63A"/>
			<stop  offset="1" style="stop-color:#FCE335"/>
		</linearGradient>
		<path fill="url(#SVGID_14_)" d="M65.081,0.508c0.001-0.041,0.002-0.081,0.003-0.122c0.14,0,0.279,0,0.419,0
			c-0.007,0.058-0.014,0.117-0.021,0.175C65.334,0.651,65.199,0.643,65.081,0.508z"/>
		<linearGradient id="SVGID_15_" gradientUnits="userSpaceOnUse" x1="78.6322" y1="0.4572" x2="79.0531" y2="0.4572">
			<stop  offset="0" style="stop-color:#FAC63A"/>
			<stop  offset="1" style="stop-color:#FCE335"/>
		</linearGradient>
		<path fill="url(#SVGID_15_)" d="M79.051,0.386c-0.001,0.044,0,0.087,0.002,0.131c-0.14,0.004-0.28,0.007-0.42,0.011
			c0-0.047-0.001-0.095-0.001-0.142C78.772,0.386,78.912,0.386,79.051,0.386z"/>
		<linearGradient id="SVGID_16_" gradientUnits="userSpaceOnUse" x1="143.8679" y1="75.4259" x2="144" y2="75.4259">
			<stop  offset="0" style="stop-color:#FAC63A"/>
			<stop  offset="1" style="stop-color:#FCE335"/>
		</linearGradient>
		<path fill="url(#SVGID_16_)" d="M143.868,75.217c0.044-0.004,0.088-0.007,0.132-0.007c0,0.14,0,0.279,0,0.419
			c-0.039,0.006-0.078,0.01-0.117,0.012C143.878,75.5,143.873,75.359,143.868,75.217z"/>
		<linearGradient id="SVGID_17_" gradientUnits="userSpaceOnUse" x1="0" y1="71.9955" x2="65.489" y2="71.9955">
			<stop  offset="0" style="stop-color:#FAC63A"/>
			<stop  offset="1" style="stop-color:#FCE335"/>
		</linearGradient>
		<path fill="url(#SVGID_17_)" d="M65.081,0.508c0.134,0.018,0.268,0.035,0.402,0.053c0,4.001,0.001,8.002,0.001,12.002
			c0,0.116-0.01,0.234,0.001,0.349c0.033,0.327-0.114,0.43-0.436,0.469c-4.101,0.502-8.076,1.529-11.965,2.904
			c-7.962,2.814-15.131,6.983-21.543,12.485c-4.506,3.867-8.058,8.487-11.04,13.576c-2.887,4.927-4.972,10.182-6.32,15.729
			c-0.642,2.643-1.081,5.321-1.369,8.028c-0.335,3.155-0.39,6.318-0.206,9.474c0.437,7.477,2.236,14.627,5.399,21.428
			c2.58,5.548,5.934,10.581,10.076,15.079c1.623,1.763,3.438,3.337,5.272,4.881c3.693,3.11,7.63,5.869,11.878,8.174
			c5.225,2.836,10.714,4.946,16.585,5.994c1.006,0.18,2.019,0.325,3.045,0.362c0.613,0.023,0.622,0.037,0.622,0.641
			c0,3.768-0.004,7.536-0.007,11.304c-0.783,0.014-1.567,0.028-2.35,0.042c-2.319-0.357-4.635-0.72-6.927-1.24
			c-4.594-1.043-9.041-2.518-13.345-4.43c-5.751-2.555-11.076-5.81-15.971-9.758c-6.88-5.549-12.569-12.132-17.047-19.754
			C6.29,102.267,3.692,95.849,2.038,89.05c-0.78-3.209-1.332-6.455-1.656-9.743c-0.304-3.082-0.452-6.168-0.35-9.261
			c0.304-9.25,2.237-18.14,5.946-26.634c3.231-7.399,7.58-14.069,13.058-19.999c7.792-8.435,17.068-14.67,27.823-18.706
			c4.41-1.655,8.947-2.831,13.591-3.59C61.986,0.865,63.537,0.708,65.081,0.508z"/>
		<linearGradient id="SVGID_18_" gradientUnits="userSpaceOnUse" x1="46.1364" y1="73.9069" x2="100.2572" y2="73.9069">
			<stop  offset="0" style="stop-color:#FAC63A"/>
			<stop  offset="1" style="stop-color:#FCE335"/>
		</linearGradient>
		<path fill="url(#SVGID_18_)" d="M100.257,28.809c-7.782,10.752-15.534,21.463-23.371,32.29c7.505,0,14.862,0,22.345,0
			c-0.22,0.275-0.353,0.455-0.499,0.623C82.521,80.461,66.308,99.2,50.096,117.939c-0.274,0.317-0.573,0.616-0.814,0.956
			c-0.246,0.347-0.477,0.235-0.766,0.086c-0.356-0.184-0.191-0.407-0.091-0.638c1.291-2.985,2.58-5.971,3.871-8.957
			c4.169-9.638,8.338-19.275,12.505-28.914c0.1-0.231,0.24-0.449,0.271-0.772c-0.899-0.103-1.793-0.032-2.683-0.045
			c-0.908-0.013-1.815-0.003-2.723-0.003c-0.908,0-1.816,0-2.723,0c-0.884,0-1.769,0-2.653,0c-0.908,0-1.816,0-2.723,0
			c-0.908,0-1.816,0-2.723,0c-0.898,0-1.797,0-2.705,0c-0.014-0.312,0.115-0.512,0.197-0.723
			c3.802-9.837,7.643-19.658,11.392-29.514c2.155-5.666,4.16-11.388,6.232-17.085c0.389-1.07,0.782-2.138,1.155-3.213
			c0.107-0.308,0.266-0.426,0.601-0.425c3.887,0.014,7.774,0.013,11.661,0.014c1.769,0,3.537-0.008,5.306-0.007
			c5.656,0.003,11.312,0.008,16.968,0.016C99.827,28.714,100.015,28.661,100.257,28.809z"/>
	</g>
</g>
</svg>
