<?xml version="1.0" encoding="utf-8"?>
<!-- Generator: Adobe Illustrator 23.1.0, SVG Export Plug-In . SVG Version: 6.00 Build 0)  -->
<svg version="1.1" xmlns="http://www.w3.org/2000/svg" xmlns:xlink="http://www.w3.org/1999/xlink" x="0px" y="0px"
	 viewBox="0 0 144 144" enable-background="new 0 0 144 144" xml:space="preserve">
<g id="BG">
</g>
<g id="Object">
	<g>
		<linearGradient id="SVGID_7_" gradientUnits="userSpaceOnUse" x1="-1.818989e-12" y1="72" x2="144" y2="72">
			<stop  offset="0" style="stop-color:#FAC63A"/>
			<stop  offset="1" style="stop-color:#FCE335"/>
		</linearGradient>
		<path fill-rule="evenodd" clip-rule="evenodd" fill="url(#SVGID_7_)" d="M34.957,117.239V73.971h19.46
			c8.251,1.48,16.502,5.952,24.753,11.148h15.115c6.844,0.412,10.425,7.348,3.779,11.904c-5.303,3.886-12.293,3.667-19.461,3.023
			c-4.942-0.244-5.159,6.402,0,6.423c1.789,0.138,3.737-0.28,5.439-0.282c8.947-0.008,16.317-1.719,20.825-8.787l2.269-5.291
			l22.486-11.148c11.252-3.705,19.247,8.066,10.959,16.249c-16.287,11.849-32.99,21.601-50.072,29.475
			c-12.408,7.547-24.814,7.291-37.222,0L34.957,117.239L34.957,117.239L34.957,117.239z M119.601,47.903
			c-0.316-0.218-0.677-0.315-1.042-0.243c-0.362,0.073-0.677,0.266-0.895,0.581l-1.234,1.741c-0.435-0.193-0.895-0.339-1.38-0.459
			c-0.483-0.121-0.943-0.218-1.426-0.291l-0.389-2.275c-0.071-0.388-0.266-0.679-0.557-0.895c-0.314-0.218-0.653-0.291-1.039-0.218
			l-2.857,0.509c-0.362,0.073-0.653,0.243-0.895,0.557c-0.218,0.315-0.314,0.654-0.243,1.041l0.364,2.081
			c-0.461,0.195-0.895,0.411-1.307,0.679c-0.412,0.241-0.821,0.532-1.186,0.823l-1.936-1.331c-0.314-0.218-0.653-0.314-1.016-0.241
			c-0.364,0.073-0.677,0.266-0.895,0.581l-1.645,2.347c-0.218,0.314-0.314,0.677-0.243,1.041c0.074,0.388,0.268,0.677,0.581,0.895
			l1.741,1.234c-0.192,0.436-0.339,0.895-0.461,1.379c-0.122,0.484-0.218,0.943-0.291,1.427l-2.272,0.388
			c-0.389,0.073-0.677,0.266-0.898,0.557c-0.218,0.315-0.288,0.654-0.218,1.041l0.509,2.856c0.074,0.363,0.243,0.653,0.559,0.895
			c0.314,0.218,0.653,0.314,1.039,0.241l2.08-0.363c0.195,0.459,0.412,0.895,0.677,1.307c0.243,0.411,0.533,0.823,0.824,1.209
			l-1.332,1.911c-0.218,0.314-0.314,0.654-0.24,1.016c0.071,0.363,0.266,0.677,0.579,0.895l2.371,1.67
			c0.316,0.218,0.68,0.289,1.042,0.218c0.364-0.073,0.677-0.241,0.92-0.557l1.234-1.766c0.435,0.193,0.895,0.339,1.38,0.459
			c0.483,0.121,0.943,0.218,1.426,0.291l0.389,2.273c0.071,0.388,0.266,0.677,0.557,0.895c0.314,0.219,0.653,0.291,1.039,0.219
			l2.857-0.509c0.362-0.073,0.653-0.241,0.895-0.557c0.218-0.315,0.314-0.654,0.243-1.042l-0.364-2.08
			c0.461-0.193,0.895-0.411,1.307-0.677c0.412-0.243,0.821-0.533,1.211-0.823l1.911,1.331c0.314,0.218,0.653,0.315,1.039,0.241
			c0.389-0.073,0.677-0.266,0.898-0.58l1.669-2.372c0.218-0.314,0.291-0.677,0.218-1.041c-0.071-0.363-0.24-0.677-0.557-0.92
			l-1.767-1.211c0.195-0.436,0.339-0.895,0.461-1.379c0.122-0.484,0.218-0.943,0.291-1.427l2.275-0.388
			c0.387-0.073,0.677-0.266,0.895-0.557c0.218-0.315,0.291-0.654,0.218-1.041l-0.509-2.856c-0.074-0.363-0.243-0.654-0.557-0.895
			c-0.314-0.218-0.653-0.315-1.042-0.243l-2.08,0.363c-0.192-0.436-0.412-0.872-0.677-1.307c-0.243-0.436-0.533-0.823-0.821-1.185
			l1.33-1.936c0.218-0.315,0.316-0.654,0.243-1.016s-0.266-0.677-0.581-0.895l-2.346-1.645L119.601,47.903L119.601,47.903z
			 M111.302,54.629c0.749-0.122,1.499-0.122,2.25,0.049c0.725,0.17,1.38,0.459,1.984,0.871c0.581,0.411,1.087,0.945,1.499,1.573
			c0.411,0.628,0.677,1.331,0.799,2.081c0.122,0.75,0.122,1.5-0.048,2.25c-0.17,0.725-0.461,1.379-0.872,1.984
			c-0.41,0.581-0.943,1.089-1.573,1.5c-0.629,0.411-1.33,0.677-2.08,0.799c-0.751,0.121-1.499,0.121-2.25-0.049
			c-0.725-0.17-1.38-0.459-1.984-0.871c-0.581-0.411-1.09-0.945-1.501-1.573c-0.41-0.629-0.677-1.331-0.799-2.081
			c-0.12-0.75-0.12-1.5,0.05-2.25c0.17-0.725,0.461-1.379,0.87-1.984c0.412-0.581,0.946-1.089,1.573-1.5
			C109.848,55.016,110.551,54.75,111.302,54.629L111.302,54.629z M89.33,20.704c-0.122-0.121-0.218-0.193-0.339-0.243
			c-0.096-0.048-0.218-0.073-0.364-0.073c-0.144,0-0.266,0.025-0.362,0.073c-0.096,0.049-0.218,0.122-0.316,0.218l-0.023,0.025
			l-2.735,2.734c-0.531,0.532-1.378,0.605-1.984,0.17c-0.314-0.193-0.629-0.388-0.991-0.581c-0.387-0.193-0.751-0.388-1.09-0.557
			c-0.364-0.17-0.751-0.339-1.138-0.484c-0.339-0.121-0.725-0.266-1.186-0.411c-0.653-0.218-1.064-0.823-1.064-1.477v-4.185
			c0-0.145-0.025-0.291-0.074-0.388c-0.049-0.097-0.122-0.218-0.218-0.291c-0.096-0.097-0.195-0.17-0.291-0.218
			c-0.096-0.049-0.243-0.074-0.387-0.074h-5.272c-0.145,0-0.266,0.025-0.363,0.049c-0.097,0.049-0.218,0.121-0.339,0.243
			c-0.097,0.097-0.17,0.193-0.195,0.291c-0.048,0.097-0.073,0.243-0.073,0.388v3.847c0,0.775-0.557,1.403-1.282,1.548
			c-0.411,0.097-0.798,0.193-1.137,0.291c-0.388,0.122-0.75,0.243-1.138,0.387c-0.363,0.145-0.75,0.291-1.113,0.484
			c-0.388,0.17-0.727,0.363-1.065,0.533c-0.629,0.339-1.355,0.218-1.839-0.267l-3.025-3c-0.022-0.025-0.022-0.025-0.022-0.048
			c-0.097-0.097-0.195-0.17-0.291-0.218c-0.097-0.048-0.193-0.048-0.339-0.048c-0.145,0-0.266,0.025-0.363,0.073
			c-0.122,0.049-0.218,0.121-0.339,0.243l-3.678,3.702c-0.122,0.121-0.195,0.218-0.243,0.339c-0.049,0.097-0.073,0.218-0.073,0.363
			c0,0.145,0.025,0.266,0.073,0.363c0.048,0.097,0.121,0.218,0.218,0.315v0.025l2.734,2.734c0.533,0.533,0.606,1.379,0.17,1.984
			c-0.193,0.315-0.387,0.629-0.58,0.993c-0.195,0.387-0.388,0.75-0.557,1.089c-0.17,0.363-0.34,0.75-0.484,1.138
			c-0.121,0.339-0.266,0.725-0.411,1.186c-0.218,0.653-0.823,1.064-1.477,1.064h-4.186c-0.145,0-0.291,0.025-0.387,0.073
			c-0.097,0.049-0.193,0.121-0.291,0.195c-0.097,0.096-0.17,0.193-0.193,0.289c-0.048,0.097-0.073,0.243-0.073,0.388v5.275
			c0,0.145,0.025,0.266,0.049,0.363c0.048,0.097,0.121,0.218,0.243,0.339c0.097,0.097,0.193,0.17,0.291,0.193
			c0.097,0.049,0.243,0.073,0.388,0.073h3.847c0.775,0,1.404,0.557,1.549,1.283c0.096,0.411,0.193,0.798,0.291,1.113
			c0.121,0.387,0.243,0.775,0.387,1.161c0.145,0.363,0.291,0.75,0.484,1.138c0.195,0.411,0.363,0.775,0.533,1.113
			c0.315,0.629,0.193,1.355-0.291,1.815l-3.001,2.977l-0.025,0.025c-0.097,0.097-0.17,0.193-0.218,0.291
			c-0.048,0.097-0.048,0.195-0.048,0.339c0,0.145,0.025,0.266,0.073,0.363c0.048,0.121,0.121,0.243,0.241,0.339l3.654,3.703
			c0.097,0.097,0.218,0.17,0.339,0.218c0.122,0.049,0.243,0.073,0.388,0.073c0.145,0,0.291-0.025,0.411-0.073
			c0.096-0.048,0.218-0.121,0.315-0.193l2.711-2.759c0.532-0.557,1.379-0.605,1.984-0.193c0.315,0.193,0.628,0.388,0.991,0.581
			c0.388,0.193,0.75,0.387,1.089,0.557c0.363,0.17,0.75,0.339,1.138,0.484c0.339,0.121,0.727,0.266,1.186,0.411
			c0.654,0.218,1.065,0.823,1.065,1.477v4.186c0,0.145,0.025,0.291,0.073,0.388c0.048,0.097,0.121,0.218,0.193,0.291
			c0.193,0.193,0.411,0.266,0.702,0.266h5.276c0.144,0,0.266-0.025,0.362-0.049c0.096-0.048,0.218-0.121,0.339-0.241
			c0.096-0.097,0.17-0.195,0.195-0.291c0.048-0.097,0.074-0.243,0.074-0.388v-3.847c0-0.775,0.557-1.404,1.282-1.549
			c0.41-0.097,0.799-0.193,1.138-0.291c0.387-0.122,0.749-0.243,1.138-0.388c0.362-0.145,0.749-0.291,1.136-0.484
			c0.412-0.193,0.776-0.363,1.114-0.532c0.629-0.315,1.355-0.193,1.815,0.291l2.975,3.001l0.025,0.025
			c0.096,0.097,0.192,0.17,0.288,0.218c0.098,0.049,0.22,0.049,0.364,0.049c0.146,0,0.266-0.025,0.364-0.073
			c0.096-0.049,0.192-0.122,0.291-0.218c0.023-0.025,0.048-0.048,0.071-0.048l3.678-3.63c0.098-0.097,0.17-0.218,0.218-0.339
			c0.05-0.121,0.074-0.243,0.074-0.387c0-0.145-0.023-0.291-0.074-0.411c-0.048-0.097-0.12-0.218-0.192-0.315l-2.759-2.711
			c-0.559-0.532-0.607-1.379-0.195-1.984c0.195-0.315,0.387-0.629,0.581-0.993c0.192-0.387,0.387-0.75,0.557-1.089
			c0.17-0.363,0.339-0.75,0.483-1.138c0.122-0.339,0.268-0.725,0.412-1.186c0.218-0.654,0.821-1.064,1.477-1.064h4.186
			c0.146,0,0.291-0.025,0.387-0.074c0.096-0.048,0.218-0.121,0.291-0.193c0.195-0.193,0.266-0.411,0.266-0.702v-5.275
			c0-0.145-0.023-0.266-0.048-0.363c-0.048-0.096-0.122-0.218-0.243-0.339c-0.096-0.096-0.192-0.17-0.288-0.193
			c-0.098-0.048-0.243-0.073-0.387-0.073h-3.85c-0.773,0-1.426-0.581-1.547-1.307c-0.096-0.339-0.195-0.702-0.291-1.064
			c-0.122-0.363-0.243-0.751-0.412-1.161c0-0.025-0.023-0.049-0.023-0.074c-0.146-0.387-0.291-0.725-0.437-1.064
			c-0.17-0.363-0.339-0.727-0.531-1.065c-0.339-0.629-0.218-1.355,0.266-1.839l3.001-3.025c0-0.025,0.025-0.025,0.048-0.025
			c0.096-0.096,0.17-0.193,0.218-0.291c0.048-0.097,0.048-0.193,0.048-0.339c0-0.146-0.023-0.267-0.071-0.363
			c-0.048-0.122-0.122-0.218-0.243-0.339l-3.703-3.678L89.33,20.704L89.33,20.704z M90.202,17.583
			c0.509,0.218,0.943,0.509,1.33,0.895l3.703,3.678h0.023c0.387,0.388,0.677,0.823,0.895,1.307c0.22,0.509,0.316,1.016,0.316,1.573
			c0,0.558-0.122,1.09-0.316,1.574c-0.218,0.484-0.509,0.919-0.918,1.282l-2.178,2.202c0.025,0.073,0.074,0.145,0.096,0.218
			c0.195,0.411,0.364,0.847,0.533,1.257c0,0.025,0.025,0.049,0.025,0.074c0.17,0.411,0.314,0.871,0.461,1.355l0.048,0.17h2.661
			c0.557,0,1.087,0.097,1.573,0.315c0.483,0.193,0.918,0.509,1.307,0.895l0.023,0.025c0.387,0.387,0.677,0.823,0.872,1.307
			c0.192,0.484,0.314,1.016,0.314,1.549v5.275c0,1.138-0.387,2.105-1.186,2.904c-0.387,0.388-0.847,0.702-1.33,0.895
			c-0.485,0.193-1.016,0.291-1.573,0.291h-3.1c-0.023,0.073-0.071,0.17-0.096,0.243c-0.17,0.436-0.364,0.871-0.557,1.307
			c-0.218,0.459-0.412,0.895-0.629,1.282L92.426,49.6l1.888,1.863l0.074,0.073c0.387,0.388,0.653,0.847,0.847,1.331
			c0.192,0.484,0.291,0.993,0.291,1.549c0,0.532-0.098,1.041-0.291,1.525c-0.195,0.484-0.461,0.92-0.847,1.331L94.34,57.32
			l-3.703,3.678c-0.387,0.411-0.824,0.702-1.307,0.92c-0.483,0.218-1.016,0.314-1.597,0.314c-0.557,0-1.087-0.121-1.597-0.314
			c-0.509-0.218-0.943-0.532-1.304-0.92l-2.154-2.177c-0.074,0.048-0.146,0.073-0.243,0.097c-0.412,0.17-0.847,0.363-1.307,0.532
			c-0.435,0.17-0.895,0.315-1.355,0.461c-0.074,0.025-0.122,0.049-0.195,0.049v2.637c0,0.557-0.096,1.089-0.314,1.573
			c-0.195,0.484-0.509,0.92-0.895,1.307l-0.025,0.025c-0.387,0.387-0.821,0.677-1.307,0.871c-0.483,0.195-1.016,0.315-1.547,0.315
			h-5.276c-1.138,0-2.105-0.387-2.904-1.186c-0.387-0.388-0.702-0.847-0.895-1.331s-0.291-1.016-0.291-1.573v-3.104
			c-0.073-0.025-0.17-0.073-0.243-0.097c-0.436-0.17-0.871-0.363-1.307-0.557c-0.461-0.218-0.895-0.411-1.283-0.629l-0.145-0.073
			l-1.863,1.888l-0.073,0.073c-0.388,0.388-0.847,0.654-1.331,0.847c-0.484,0.193-0.991,0.291-1.548,0.291
			c-0.532,0-1.041-0.097-1.525-0.291c-0.484-0.195-0.92-0.461-1.331-0.847l-0.049-0.048l-3.702-3.751
			c-0.387-0.388-0.677-0.823-0.895-1.307c-0.218-0.509-0.314-1.016-0.314-1.573s0.121-1.089,0.314-1.573
			c0.218-0.484,0.533-0.92,0.92-1.307l2.177-2.154c-0.048-0.073-0.073-0.145-0.096-0.243c-0.17-0.411-0.363-0.847-0.533-1.307
			c-0.17-0.461-0.339-0.895-0.459-1.355l-0.049-0.195h-2.637c-0.558,0-1.09-0.096-1.574-0.314c-0.484-0.193-0.919-0.509-1.307-0.895
			l-0.025-0.025c-0.387-0.387-0.677-0.823-0.871-1.307c-0.193-0.484-0.315-1.016-0.315-1.548v-5.275
			c0-0.557,0.097-1.065,0.291-1.573c0.193-0.484,0.509-0.919,0.895-1.331c0.388-0.387,0.847-0.702,1.331-0.895
			c0.484-0.195,1.016-0.291,1.574-0.291h3.097c0.025-0.073,0.073-0.17,0.097-0.241c0.17-0.436,0.363-0.872,0.557-1.307
			c0.218-0.461,0.411-0.895,0.629-1.283l0.073-0.145l-1.863-1.887c-0.388-0.387-0.702-0.823-0.895-1.331
			c-0.218-0.509-0.315-1.041-0.315-1.573c0-0.558,0.097-1.065,0.315-1.573c0.218-0.509,0.507-0.945,0.895-1.331l3.678-3.702v-0.023
			c0.388-0.387,0.823-0.677,1.307-0.895c0.509-0.218,1.016-0.315,1.573-0.315c0.558,0,1.09,0.121,1.573,0.315
			c0.484,0.218,0.92,0.509,1.283,0.919l2.201,2.177c0.074-0.025,0.146-0.073,0.195-0.096c0.411-0.195,0.847-0.363,1.307-0.557
			c0.436-0.17,0.895-0.315,1.355-0.459c0.073-0.025,0.121-0.049,0.193-0.049v-2.637c0-0.557,0.097-1.089,0.315-1.573
			c0.195-0.484,0.509-0.919,0.895-1.307l0.025-0.025c0.388-0.387,0.823-0.677,1.307-0.871c0.484-0.193,1.015-0.315,1.547-0.315
			h5.275c0.557,0,1.064,0.097,1.573,0.291c0.509,0.193,0.946,0.509,1.332,0.895c0.387,0.387,0.701,0.847,0.895,1.331
			c0.192,0.484,0.291,1.016,0.291,1.573v3.097c0.071,0.025,0.17,0.073,0.24,0.097c0.437,0.17,0.872,0.363,1.307,0.557
			c0.461,0.218,0.895,0.411,1.284,0.629l0.144,0.073l1.888-1.863c0.387-0.388,0.821-0.702,1.33-0.895
			c0.509-0.218,1.042-0.315,1.573-0.315c0.559,0,1.066,0.097,1.575,0.315L90.202,17.583L90.202,17.583z M73.479,27.382
			c0.799,0,1.597,0.074,2.371,0.243c0.751,0.145,1.501,0.387,2.25,0.702c0.703,0.315,1.38,0.677,2.01,1.089s1.211,0.895,1.741,1.427
			c0.533,0.533,1.016,1.113,1.428,1.767c0.435,0.629,0.799,1.305,1.09,2.007c0.023,0.049,0.023,0.097,0.048,0.121
			c0.291,0.702,0.509,1.429,0.653,2.129c0.146,0.775,0.243,1.573,0.243,2.371c0,0.798-0.074,1.597-0.243,2.372
			c-0.144,0.75-0.387,1.5-0.701,2.25c-0.316,0.702-0.677,1.379-1.09,2.009c-0.435,0.629-0.895,1.209-1.428,1.766
			c-0.531,0.533-1.112,1.017-1.767,1.428c-0.627,0.436-1.307,0.798-2.007,1.089c-0.048,0.025-0.096,0.025-0.122,0.048
			c-0.703,0.291-1.428,0.509-2.128,0.654c-0.776,0.145-1.575,0.243-2.371,0.243c-0.799,0-1.597-0.073-2.372-0.243
			c-0.75-0.145-1.501-0.388-2.251-0.702c-0.702-0.315-1.379-0.679-2.009-1.089c-0.629-0.411-1.209-0.895-1.741-1.428
			c-0.532-0.532-1.016-1.113-1.428-1.766c-0.435-0.629-0.798-1.307-1.089-2.009c-0.025-0.048-0.025-0.097-0.049-0.121
			c-0.291-0.702-0.509-1.427-0.653-2.129c-0.145-0.775-0.243-1.573-0.243-2.372c0-0.799,0.073-1.597,0.243-2.371
			c0.145-0.75,0.387-1.5,0.702-2.25c0.314-0.702,0.677-1.379,1.089-2.007c0.412-0.629,0.896-1.211,1.428-1.767
			c0.532-0.532,1.113-1.016,1.741-1.427c0.629-0.436,1.307-0.799,2.009-1.089c0.049-0.025,0.097-0.025,0.122-0.049
			c0.702-0.291,1.427-0.507,2.129-0.653c0.775-0.145,1.573-0.243,2.372-0.243H73.479L73.479,27.382z M75.246,30.673
			c-0.557-0.121-1.162-0.17-1.767-0.17c-0.605,0-1.185,0.049-1.766,0.17c-0.557,0.121-1.064,0.266-1.548,0.461
			c-0.025,0.025-0.049,0.025-0.097,0.048c-0.557,0.243-1.065,0.509-1.525,0.823c-0.459,0.314-0.895,0.654-1.282,1.041
			c-0.388,0.388-0.75,0.823-1.041,1.283c-0.315,0.459-0.581,0.968-0.823,1.525c-0.219,0.509-0.388,1.064-0.509,1.645
			c-0.121,0.557-0.17,1.161-0.17,1.766c0,0.605,0.049,1.185,0.17,1.766c0.122,0.557,0.267,1.064,0.459,1.548
			c0.025,0.025,0.025,0.048,0.049,0.097c0.241,0.557,0.509,1.064,0.823,1.525c0.314,0.461,0.653,0.895,1.041,1.282
			c0.387,0.388,0.823,0.75,1.282,1.041c0.459,0.315,0.968,0.581,1.525,0.823c0.509,0.218,1.065,0.387,1.645,0.509
			c0.558,0.122,1.162,0.17,1.766,0.17s1.186-0.048,1.767-0.17c0.557-0.122,1.064-0.266,1.549-0.459
			c0.023-0.025,0.048-0.025,0.096-0.049c0.557-0.243,1.064-0.509,1.525-0.823c0.461-0.314,0.895-0.653,1.282-1.041
			c0.387-0.388,0.751-0.823,1.042-1.282c0.314-0.461,0.581-0.968,0.821-1.525c0.218-0.509,0.387-1.065,0.509-1.645
			c0.122-0.557,0.17-1.161,0.17-1.766c0-0.605-0.048-1.186-0.17-1.766c-0.122-0.557-0.266-1.065-0.461-1.549
			c-0.023-0.025-0.023-0.048-0.048-0.097c-0.24-0.557-0.509-1.065-0.821-1.525c-0.316-0.461-0.655-0.895-1.042-1.283
			c-0.387-0.387-0.821-0.75-1.282-1.041c-0.461-0.315-0.968-0.581-1.525-0.823C76.384,30.965,75.828,30.793,75.246,30.673
			L75.246,30.673z M0,69.813h29.098v51.772H0V69.813L0,69.813z"/>
	</g>
</g>
</svg>
