<?xml version="1.0" encoding="utf-8"?>
<!-- Generator: Adobe Illustrator 23.1.0, SVG Export Plug-In . SVG Version: 6.00 Build 0)  -->
<!DOCTYPE svg PUBLIC "-//W3C//DTD SVG 1.1//EN" "http://www.w3.org/Graphics/SVG/1.1/DTD/svg11.dtd" [
	<!ENTITY ns_extend "http://ns.adobe.com/Extensibility/1.0/">
	<!ENTITY ns_ai "http://ns.adobe.com/AdobeIllustrator/10.0/">
	<!ENTITY ns_graphs "http://ns.adobe.com/Graphs/1.0/">
	<!ENTITY ns_vars "http://ns.adobe.com/Variables/1.0/">
	<!ENTITY ns_imrep "http://ns.adobe.com/ImageReplacement/1.0/">
	<!ENTITY ns_sfw "http://ns.adobe.com/SaveForWeb/1.0/">
	<!ENTITY ns_custom "http://ns.adobe.com/GenericCustomNamespace/1.0/">
	<!ENTITY ns_adobe_xpath "http://ns.adobe.com/XPath/1.0/">
]>
<svg version="1.1" xmlns:x="&ns_extend;" xmlns:i="&ns_ai;" xmlns:graph="&ns_graphs;"
	 xmlns="http://www.w3.org/2000/svg" xmlns:xlink="http://www.w3.org/1999/xlink" x="0px" y="0px" viewBox="0 0 144 144"
	 enable-background="new 0 0 144 144" xml:space="preserve">
<metadata>
	<sfw  xmlns="&ns_sfw;">
		<slices></slices>
		<sliceSourceBounds  bottomLeftOrigin="true" height="9204.43" width="9884.416" x="-6910.837" y="-991.587"></sliceSourceBounds>
	</sfw>
</metadata>
<g id="BG">
</g>
<g id="Object">
	<g>
		<linearGradient id="SVGID_1_" gradientUnits="userSpaceOnUse" x1="0" y1="72" x2="144" y2="72">
			<stop  offset="0" style="stop-color:#F1D618"/>
			<stop  offset="1" style="stop-color:#ECB023"/>
		</linearGradient>
		<path fill="url(#SVGID_1_)" d="M138.737,67.221c-3.516-0.014-7.031-0.032-10.546,0.016c-0.914,0.013-1.287-0.177-1.377-1.186
			c-0.3-3.361-0.979-6.662-1.963-9.893c-3.238-10.635-9.147-19.529-17.681-26.617c-8.535-7.09-18.37-11.23-29.427-12.373
			c-0.819-0.085-0.975-0.407-0.967-1.144c0.034-3.281-0.102-6.568,0.049-9.842C76.961,3.215,75.929,1.124,73.129,0
			c-0.75,0-1.5,0-2.25,0c-2.635,0.64-3.993,2.332-4.027,5.111c-0.036,2.903,0.007,5.807-0.013,8.71
			c-0.024,3.414,0.364,2.743-2.894,3.223c-5.606,0.826-10.982,2.419-16.051,4.921c-6.61,3.263-12.428,7.588-17.346,13.14
			c-3.668,4.141-6.65,8.7-8.996,13.677c-2.475,5.249-4.019,10.789-4.674,16.555c-0.14,1.233-0.648,1.542-1.791,1.524
			c-3.324-0.054-6.65-0.046-9.974-0.01C2.332,66.882,0.64,68.244,0,70.879c0,0.75,0,1.5,0,2.25c1.124,2.8,3.215,3.856,6.183,3.692
			c2.664-0.147,5.342-0.031,8.014-0.031c2.864,0,2.848,0.002,3.207,2.763c1.386,10.64,5.631,20.055,12.595,28.149
			c9.53,11.077,21.622,17.509,36.193,19.129c0.88,0.098,1.051,0.421,1.042,1.22c-0.038,3.562-0.027,7.125-0.013,10.687
			c0.012,3.109,2,5.272,4.799,5.263c2.798-0.01,4.755-2.171,4.766-5.296c0.013-3.515,0.037-7.032-0.019-10.546
			c-0.015-0.957,0.256-1.243,1.222-1.343c7.833-0.81,15.217-3.14,21.921-7.254c15.61-9.58,24.688-23.464,26.919-41.711
			c0.102-0.837,0.348-1.089,1.188-1.078c3.562,0.045,7.125,0.029,10.687,0.016c3.125-0.011,5.286-1.968,5.296-4.767
			C144.01,69.221,141.846,67.234,138.737,67.221z M26.77,66.128c2.826-17.487,12.406-29.688,28.694-36.599
			c3.454-1.465,7.116-2.254,10.83-2.783c0.734-0.105,0.958,0.072,0.942,0.84c-0.05,2.34-0.018,4.682-0.018,7.024
			c0,2.201-0.065,4.405,0.03,6.602c0.041,0.959-0.289,1.256-1.162,1.436c-8.188,1.696-14.572,6.089-19.197,13.029
			c-2.067,3.101-3.51,6.486-4.177,10.165c-0.184,1.016-0.502,1.438-1.669,1.414c-4.447-0.092-8.897-0.069-13.345-0.012
			C26.741,67.255,26.638,66.948,26.77,66.128z M66.111,117.233c-19.094-2.789-33.808-16.014-38.415-34.581
			c-0.393-1.585-0.585-3.218-0.934-4.815c-0.2-0.915,0.125-1.088,0.982-1.066c2.293,0.059,4.589,0.02,6.883,0.02
			c2.154,0,4.312,0.071,6.461-0.03c1.066-0.05,1.397,0.337,1.606,1.313c1.91,8.922,6.904,15.602,14.799,20.135
			c2.738,1.572,5.675,2.623,8.771,3.206c0.72,0.135,0.982,0.367,0.975,1.146c-0.042,4.589-0.059,9.179,0.009,13.767
			C67.262,117.349,66.878,117.345,66.111,117.233z M71.961,84.051c-2.628,0.019-4.633,2.021-4.738,4.733
			c-0.005,0.14-0.003,0.281-0.005,0.422c-0.033,2.831-0.054,2.881-2.681,1.769c-5.978-2.533-10.043-6.837-12.038-13.075
			c-0.337-1.054-0.036-1.191,0.877-1.122c0.699,0.053,1.407,0.036,2.108-0.01c2.593-0.171,4.506-2.254,4.473-4.842
			c-0.032-2.51-1.95-4.519-4.488-4.691c-0.327-0.022-0.656-0.015-0.984-0.017c-2.341-0.009-2.423-0.04-1.608-2.182
			c2.439-6.407,6.992-10.593,13.529-12.637c0.584-0.183,0.866-0.113,0.822,0.59c-0.047,0.747-0.029,1.5-0.001,2.249
			c0.1,2.709,2.119,4.706,4.749,4.719c2.641,0.012,4.693-1.966,4.8-4.663c0.039-0.98,0.006-1.962,0.006-2.953
			c6.485,0.779,13.999,8.281,14.894,14.884c-0.989,0-1.967-0.031-2.942,0.006c-2.705,0.103-4.687,2.141-4.684,4.781
			c0.003,2.639,1.989,4.667,4.698,4.767c0.972,0.036,1.946,0.006,2.933,0.006c-0.973,6.675-7.671,13.423-14.896,14.943
			c0-0.983,0.024-1.935-0.004-2.886C76.701,86.049,74.66,84.032,71.961,84.051z M117.233,77.897
			c-2.788,19.093-16.015,33.808-34.581,38.415c-1.585,0.393-3.218,0.585-4.815,0.934c-0.914,0.2-1.089-0.124-1.067-0.982
			c0.059-2.293,0.02-4.589,0.02-6.883c0-2.154,0.071-4.312-0.03-6.461c-0.05-1.066,0.336-1.396,1.313-1.606
			c8.919-1.914,15.603-6.901,20.135-14.798c1.572-2.739,2.623-5.675,3.205-8.771c0.135-0.72,0.367-0.982,1.146-0.975
			c4.589,0.042,9.179,0.059,13.767-0.009C117.348,76.746,117.345,77.129,117.233,77.897z M116.414,67.235
			c-2.341-0.047-4.683-0.017-7.024-0.017c-2.201,0-4.405-0.065-6.602,0.03c-0.966,0.042-1.25-0.309-1.429-1.17
			c-1.698-8.188-6.094-14.57-13.035-19.194c-3.101-2.066-6.487-3.51-10.166-4.173c-1.027-0.185-1.428-0.521-1.404-1.677
			c0.09-4.4,0.075-8.804,0.009-13.204c-0.016-1.084,0.316-1.181,1.266-1.042c11.222,1.639,20.641,6.641,28.169,15.122
			c6.195,6.979,9.799,15.16,11.066,24.393C117.366,67.054,117.162,67.25,116.414,67.235z"/>
		<linearGradient id="SVGID_2_" gradientUnits="userSpaceOnUse" x1="63.0157" y1="72.004" x2="80.9923" y2="72.004">
			<stop  offset="0" style="stop-color:#F1D618"/>
			<stop  offset="1" style="stop-color:#ECB023"/>
		</linearGradient>
		<path fill="url(#SVGID_2_)" d="M72.197,63.022c-4.869-0.151-9.081,3.914-9.18,8.859c-0.096,4.832,3.884,8.953,8.793,9.106
			c4.869,0.151,9.082-3.914,9.18-8.859C81.087,67.295,77.107,63.174,72.197,63.022z M72.085,72.541
			c-0.379,0.043-0.628-0.16-0.62-0.559c0.007-0.319,0.21-0.506,0.528-0.52c0.331-0.014,0.482,0.207,0.561,0.43
			C72.558,72.282,72.392,72.506,72.085,72.541z"/>
	</g>
</g>
</svg>
