<?xml version="1.0" encoding="utf-8"?>
<!-- Generator: Adobe Illustrator 23.1.0, SVG Export Plug-In . SVG Version: 6.00 Build 0)  -->
<!DOCTYPE svg PUBLIC "-//W3C//DTD SVG 1.1//EN" "http://www.w3.org/Graphics/SVG/1.1/DTD/svg11.dtd" [
	<!ENTITY ns_extend "http://ns.adobe.com/Extensibility/1.0/">
	<!ENTITY ns_ai "http://ns.adobe.com/AdobeIllustrator/10.0/">
	<!ENTITY ns_graphs "http://ns.adobe.com/Graphs/1.0/">
	<!ENTITY ns_vars "http://ns.adobe.com/Variables/1.0/">
	<!ENTITY ns_imrep "http://ns.adobe.com/ImageReplacement/1.0/">
	<!ENTITY ns_sfw "http://ns.adobe.com/SaveForWeb/1.0/">
	<!ENTITY ns_custom "http://ns.adobe.com/GenericCustomNamespace/1.0/">
	<!ENTITY ns_adobe_xpath "http://ns.adobe.com/XPath/1.0/">
]>
<svg version="1.1" xmlns:x="&ns_extend;" xmlns:i="&ns_ai;" xmlns:graph="&ns_graphs;"
	 xmlns="http://www.w3.org/2000/svg" xmlns:xlink="http://www.w3.org/1999/xlink" x="0px" y="0px" viewBox="0 0 144 144"
	 enable-background="new 0 0 144 144" xml:space="preserve">
<metadata>
	<sfw  xmlns="&ns_sfw;">
		<slices></slices>
		<sliceSourceBounds  bottomLeftOrigin="true" height="9204.43" width="9884.416" x="-6910.837" y="-991.587"></sliceSourceBounds>
	</sfw>
</metadata>
<g id="BG">
</g>
<g id="Object">
	<g>
		<linearGradient id="SVGID_1_" gradientUnits="userSpaceOnUse" x1="0.036" y1="72" x2="143.964" y2="72">
			<stop  offset="0" style="stop-color:#F1D618"/>
			<stop  offset="1" style="stop-color:#ECB023"/>
		</linearGradient>
		<path fill="url(#SVGID_1_)" d="M142.423,13.758c-2.615-5.053-6.966-7.409-12.685-7.1c-5.189,0.28-10.023,4.243-11.469,9.375
			c-1.501,5.326,0.477,11.121,4.925,14.046c0.917,0.603,1.139,1.223,1.136,2.222c-0.028,11.545-0.018,23.09-0.018,34.635
			c0,12.107,0,24.214,0.001,36.32c0,0.76,0.182,1.477-1.092,1.462c-5.822-0.067-11.645-0.041-17.468-0.015
			c-0.771,0.004-1.08-0.179-1.071-1.013c0.038-3.729,0.024-7.458,0.008-11.187c-0.002-0.575,0.065-0.847,0.775-0.977
			c4.06-0.744,5.741-2.819,5.743-6.976c0.006-19.207,0.005-38.415,0.001-57.622c-0.001-4.952-2.354-7.289-7.342-7.294
			c-7.508-0.007-15.017-0.022-22.525,0.021c-1.063,0.006-1.722-0.267-2.387-1.168C67.247,2.637,43.799,2.706,32.218,18.619
			c-0.603,0.828-1.217,1.031-2.152,1.028c-7.661-0.029-15.323-0.026-22.985-0.011c-3.421,0.007-5.588,1.351-6.569,3.993
			c-0.416,1.122-0.477,2.287-0.477,3.466C0.039,46.097,0.037,65.1,0.043,84.103c0,0.662,0.02,1.33,0.115,1.984
			c0.433,2.972,2.139,4.915,5.062,5.331c1.332,0.19,1.434,0.716,1.431,1.827c-0.035,14.15-0.004,28.3-0.056,42.45
			c-0.005,1.318,0.269,1.676,1.642,1.671c15.731-0.057,31.463-0.036,47.195-0.036c15.834,0,31.668-0.025,47.502,0.039
			c1.525,0.006,1.825-0.423,1.802-1.86c-0.09-5.464,0.001-10.932-0.066-16.397c-0.014-1.171,0.315-1.439,1.451-1.427
			c5.771,0.06,11.543,0.04,17.315,0.017c1.119-0.004,2.264-0.013,3.351-0.238c6.483-1.342,10.543-6.528,10.547-13.473
			c0.013-23.549,0.018-47.099-0.024-70.648c-0.003-1.628,0.114-2.927,1.791-3.741c0.738-0.358,1.337-1.11,1.856-1.792
			C144.292,23.434,144.96,18.659,142.423,13.758z M77.188,117.741c-7.197-0.052-14.395-0.027-21.593-0.027
			c-7.198,0-14.395-0.018-21.593,0.021c-0.966,0.005-1.296-0.199-1.275-1.235c0.069-3.572,0.052-7.147,0.008-10.72
			c-0.01-0.841,0.192-1.115,1.081-1.113c14.548,0.028,29.097,0.029,43.645-0.001c0.944-0.002,1.057,0.363,1.049,1.158
			c-0.035,3.522-0.059,7.046,0.011,10.567C78.543,117.456,78.275,117.748,77.188,117.741z M98.137,77.009
			c0.004,1.194-0.289,1.504-1.494,1.5c-13.686-0.046-27.373-0.029-41.059-0.029c-13.635,0-27.271-0.02-40.906,0.032
			c-1.272,0.005-1.576-0.293-1.572-1.569c0.051-14.25,0.048-28.5,0.004-42.749c-0.004-1.189,0.283-1.491,1.483-1.489
			c27.322,0.037,54.643,0.038,81.965-0.001c1.251-0.002,1.588,0.26,1.583,1.556C98.089,48.509,98.093,62.759,98.137,77.009z"/>
		<linearGradient id="SVGID_2_" gradientUnits="userSpaceOnUse" x1="71.9394" y1="55.6144" x2="91.6248" y2="55.6144">
			<stop  offset="0" style="stop-color:#F1D618"/>
			<stop  offset="1" style="stop-color:#ECB023"/>
		</linearGradient>
		<path fill="url(#SVGID_2_)" d="M85.039,45.837c-4.008,0-7.773-0.067-11.534,0.036c-1.33,0.036-1.649-0.378-1.548-1.617
			c0.112-1.37,0.05-2.756,0.015-4.134c-0.017-0.645,0.173-0.891,0.858-0.888c5.974,0.023,11.947,0.023,17.921,0
			c0.689-0.003,0.843,0.252,0.859,0.89c0.08,3.265-0.113,6.341-1.779,9.408c-3.787,6.972-7.206,14.146-10.703,21.273
			c-0.464,0.946-0.972,1.234-1.964,1.184c-1.629-0.081-3.264-0.022-5.168-0.022C76.356,63.232,80.647,54.636,85.039,45.837z"/>
		<linearGradient id="SVGID_3_" gradientUnits="userSpaceOnUse" x1="45.8025" y1="55.6169" x2="65.5241" y2="55.6169">
			<stop  offset="0" style="stop-color:#F1D618"/>
			<stop  offset="1" style="stop-color:#ECB023"/>
		</linearGradient>
		<path fill="url(#SVGID_3_)" d="M45.838,71.967c4.376-8.762,8.66-17.341,13.05-26.13c-3.897,0-7.599-0.063-11.297,0.033
			c-1.367,0.035-1.917-0.281-1.763-1.731c0.134-1.262,0.06-2.551,0.016-3.825c-0.026-0.748,0.139-1.089,0.999-1.084
			c5.87,0.035,11.74,0.032,17.61,0.002c0.822-0.004,1,0.284,1.039,1.06c0.169,3.35-0.295,6.431-1.964,9.513
			c-3.705,6.84-7.056,13.873-10.482,20.862c-0.504,1.029-1.059,1.407-2.189,1.328C49.282,71.885,47.695,71.967,45.838,71.967z"/>
		<linearGradient id="SVGID_4_" gradientUnits="userSpaceOnUse" x1="19.5116" y1="55.5262" x2="39.3435" y2="55.5262">
			<stop  offset="0" style="stop-color:#F1D618"/>
			<stop  offset="1" style="stop-color:#ECB023"/>
		</linearGradient>
		<path fill="url(#SVGID_4_)" d="M19.683,71.967c4.377-8.764,8.658-17.334,13.051-26.13c-3.815,0-7.411,0-11.007,0
			c-2.075,0-2.089,0-2.07-2.129c0.012-1.419-0.467-3.299,0.25-4.137c0.837-0.978,2.776-0.294,4.232-0.308
			c4.641-0.045,9.284,0.007,13.925-0.037c0.915-0.009,1.174,0.217,1.236,1.173c0.226,3.48-0.433,6.629-2.124,9.777
			c-3.631,6.758-6.927,13.698-10.325,20.58c-0.425,0.862-0.86,1.32-1.926,1.242C23.268,71.878,21.595,71.967,19.683,71.967z"/>
	</g>
</g>
</svg>
