<?xml version="1.0" encoding="utf-8"?>
<!-- Generator: Adobe Illustrator 23.1.0, SVG Export Plug-In . SVG Version: 6.00 Build 0)  -->
<!DOCTYPE svg PUBLIC "-//W3C//DTD SVG 1.1//EN" "http://www.w3.org/Graphics/SVG/1.1/DTD/svg11.dtd" [
	<!ENTITY ns_extend "http://ns.adobe.com/Extensibility/1.0/">
	<!ENTITY ns_ai "http://ns.adobe.com/AdobeIllustrator/10.0/">
	<!ENTITY ns_graphs "http://ns.adobe.com/Graphs/1.0/">
	<!ENTITY ns_vars "http://ns.adobe.com/Variables/1.0/">
	<!ENTITY ns_imrep "http://ns.adobe.com/ImageReplacement/1.0/">
	<!ENTITY ns_sfw "http://ns.adobe.com/SaveForWeb/1.0/">
	<!ENTITY ns_custom "http://ns.adobe.com/GenericCustomNamespace/1.0/">
	<!ENTITY ns_adobe_xpath "http://ns.adobe.com/XPath/1.0/">
]>
<svg version="1.1" xmlns:x="&ns_extend;" xmlns:i="&ns_ai;" xmlns:graph="&ns_graphs;"
	 xmlns="http://www.w3.org/2000/svg" xmlns:xlink="http://www.w3.org/1999/xlink" x="0px" y="0px" viewBox="0 0 144 144"
	 enable-background="new 0 0 144 144" xml:space="preserve">
<metadata>
	<sfw  xmlns="&ns_sfw;">
		<slices></slices>
		<sliceSourceBounds  bottomLeftOrigin="true" height="9204.43" width="9884.416" x="-6910.837" y="-991.587"></sliceSourceBounds>
	</sfw>
</metadata>
<g id="BG">
</g>
<g id="Object">
	<linearGradient id="SVGID_1_" gradientUnits="userSpaceOnUse" x1="31.264" y1="83.5459" x2="98.2289" y2="83.5459">
		<stop  offset="0" style="stop-color:#F1D618"/>
		<stop  offset="1" style="stop-color:#ECB023"/>
	</linearGradient>
	<path fill="url(#SVGID_1_)" d="M90.789,61.664c-4.414-5.731-10.594-10.026-17.728-12.076c-0.573,2.847-1.119,5.028-1.378,6.021
		c-10.042,1.335-15.065,4.561-15.275,4.699c-0.019,0.013-0.03,0.032-0.047,0.046c-1.244-0.723-4.721-2.451-10.263-3.038
		c0.066-0.929,0.29-3.141,0.978-4.308c0.128-0.217,0.033-0.484-0.213-0.597c-0.246-0.114-0.548-0.029-0.676,0.188
		c-0.895,1.519-1.08,4.378-1.111,4.998c-1.448,0.879-5.383,3.69-9.222,10.012c-0.066-0.021-0.136-0.028-0.208-0.014
		c-0.101,0.02-2.488,0.505-4.132,1.577c-0.236,0.154-0.321,0.503-0.189,0.779c0.09,0.188,0.257,0.294,0.428,0.294
		c0.081,0,0.163-0.023,0.238-0.073c1.258-0.82,3.07-1.278,3.632-1.406c0.324,1.304,1.43,4.791,4.746,9.779
		c-0.05,0.057-0.09,0.124-0.115,0.201c-0.099,0.306-2.418,7.585-1.91,15.248c0.006,0.096,0.043,0.181,0.09,0.258
		c-0.854,0.5-2.843,1.553-5.849,2.468l-0.166,0.446c3.027,6.464,8.007,11.825,14.181,15.334c0.421-0.16,0.698-0.266,0.698-0.266
		s1.845-0.149,3.144-0.328c0.045,0.075,0.103,0.144,0.186,0.192c0.291,0.169,7.201,4.147,14.026,5.397
		c0.034,0.007,0.069,0.009,0.103,0.009c0.26,0,0.49-0.178,0.54-0.434c0.056-0.289-0.14-0.568-0.438-0.623
		c-6.629-1.214-13.596-5.224-13.666-5.264c-0.057-0.033-0.119-0.051-0.181-0.062c-0.14-0.904-0.335-2.727-0.252-5.358
		c1.628-0.428,9.317-2.514,14.855-5.085c1.527,1.197,6.614,4.818,12.845,5.513c-0.01,0.975-0.151,4.198-1.512,7.421
		c-0.113,0.267,0.035,0.567,0.33,0.669c0.068,0.023,0.136,0.034,0.205,0.034c0.23,0,0.448-0.127,0.535-0.334
		c1.706-4.037,1.593-7.962,1.587-8.127c0-0.02-0.011-0.037-0.014-0.057c1.639-1.416,6.599-6.015,9.009-11.622
		c0.058,0.003,0.138,0.005,0.26,0.005c0.968,0,3.889-0.184,8.026-2.103c0.267-0.124,0.383-0.441,0.259-0.708
		c-0.123-0.267-0.439-0.383-0.708-0.26c-4.109,1.906-6.97,2.008-7.672,2.002c-0.288-1.476-1.501-6.202-5.796-11.604
		c0.012-0.03,0.03-0.058,0.036-0.091c1.969-9.382,1.807-14.352,1.757-15.229c1.588-0.098,3.906-0.36,5.044-0.495
		c0.029,0.069,0.071,0.134,0.128,0.188c0.052,0.05,5.178,5.091,7.222,13.18c0.065,0.256,0.285,0.426,0.527,0.426
		c0.046,0,0.093-0.006,0.14-0.019c0.291-0.081,0.465-0.394,0.388-0.7c-2.125-8.407-7.316-13.513-7.536-13.726
		c-0.041-0.039-0.088-0.063-0.135-0.087c0.132-1.638,0.25-3.288,0.25-3.288L90.789,61.664z M65.251,99.585
		c-6.093,2.853-15.01,5.13-15.1,5.152c-0.004,0.001-0.007,0.004-0.011,0.005c-1.852-1.326-7.391-5.504-10.89-10.334
		c0.152-0.112,0.252-0.289,0.239-0.492c-0.494-7.437,1.833-14.746,1.857-14.819c0.03-0.093,0.028-0.186,0.011-0.276
		c1.452-0.666,5.505-2.427,11.799-4.443c0.031,0.046,0.06,0.093,0.105,0.13c0.047,0.039,4.825,3.987,13.671,11.763
		C66.706,88.44,65.966,95.294,65.251,99.585z M81.887,81.171c-1.881,0.687-7.796,2.768-14.195,4.244
		c-8.863-7.792-13.654-11.75-13.702-11.79c-0.035-0.029-0.077-0.043-0.117-0.062c0.266-1.626,1.112-6.331,2.818-12.211
		c0.01,0.001,0.02,0.007,0.03,0.007c0.108,0,0.217-0.03,0.313-0.094c0.05-0.033,5.105-3.288,15.094-4.563
		c0.08-0.01,0.153-0.037,0.219-0.076c5.878,3.044,10.111,7.581,11.412,9.08c-0.102,0.113-0.161,0.264-0.148,0.427
		C83.615,66.183,83.979,71.198,81.887,81.171z"/>
	<linearGradient id="XMLID_5_" gradientUnits="userSpaceOnUse" x1="25.0628" y1="75.4881" x2="121.2014" y2="75.4881">
		<stop  offset="0" style="stop-color:#F1D618"/>
		<stop  offset="1" style="stop-color:#ECB023"/>
	</linearGradient>
	<path id="XMLID_3_" fill="url(#XMLID_5_)" d="M111.546,14.877v114.049H25.063c3.72,3.987,8.868,6.625,14.63,7.096v0.077h1.862
		h36.41h32.273c6.055,0,10.964-4.909,10.964-10.964V24.8C121.201,19.408,116.903,15.023,111.546,14.877z"/>
	<g>
		<linearGradient id="SVGID_2_" gradientUnits="userSpaceOnUse" x1="44.7238" y1="23.4797" x2="47.8674" y2="23.4797">
			<stop  offset="0" style="stop-color:#F1D618"/>
			<stop  offset="1" style="stop-color:#ECB023"/>
		</linearGradient>
		<path fill="url(#SVGID_2_)" d="M47.452,26.579c0.277-0.276,0.415-0.79,0.415-1.542v-3.114c0-0.751-0.138-1.266-0.415-1.543
			c-0.277-0.276-0.672-0.415-1.187-0.415h-1.542v7.03h1.542C46.78,26.995,47.175,26.856,47.452,26.579z"/>
		<linearGradient id="SVGID_3_" gradientUnits="userSpaceOnUse" x1="55.7873" y1="27.38" x2="59.1681" y2="27.38">
			<stop  offset="0" style="stop-color:#F1D618"/>
			<stop  offset="1" style="stop-color:#ECB023"/>
		</linearGradient>
		<path fill="url(#SVGID_3_)" d="M57.478,35.033c0.514,0,0.924-0.153,1.23-0.46s0.46-0.835,0.46-1.587V21.774
			c0-0.751-0.153-1.28-0.46-1.587s-0.717-0.46-1.23-0.46c-0.515,0-0.925,0.153-1.231,0.46s-0.459,0.836-0.459,1.587v11.212
			c0,0.752,0.152,1.28,0.459,1.587S56.963,35.033,57.478,35.033z"/>
		<linearGradient id="SVGID_4_" gradientUnits="userSpaceOnUse" x1="67.8" y1="23.153" x2="71.0334" y2="23.153">
			<stop  offset="0" style="stop-color:#F1D618"/>
			<stop  offset="1" style="stop-color:#ECB023"/>
		</linearGradient>
		<path fill="url(#SVGID_4_)" d="M70.514,25.867c0.346-0.315,0.52-0.89,0.52-1.72V22.1c0-0.751-0.134-1.295-0.4-1.631
			c-0.268-0.337-0.688-0.505-1.261-0.505H67.8v6.377h1.275C69.688,26.341,70.168,26.184,70.514,25.867z"/>
		<linearGradient id="SVGID_5_" gradientUnits="userSpaceOnUse" x1="22.7985" y1="64.9985" x2="104.3073" y2="64.9985">
			<stop  offset="0" style="stop-color:#F1D618"/>
			<stop  offset="1" style="stop-color:#ECB023"/>
		</linearGradient>
		<path fill="url(#SVGID_5_)" d="M22.799,7.901v114.195h81.509V7.901H22.799z M86.516,31.503H89.6v1.483
			c0,0.752,0.153,1.275,0.46,1.572c0.307,0.296,0.717,0.444,1.231,0.444c0.514,0,0.924-0.148,1.23-0.444
			c0.307-0.297,0.46-0.82,0.46-1.572c0-0.712-0.158-1.34-0.475-1.884c-0.316-0.543-0.712-1.058-1.187-1.542
			s-0.984-0.969-1.527-1.453c-0.544-0.484-1.053-1.014-1.527-1.587s-0.871-1.227-1.187-1.958c-0.316-0.731-0.475-1.592-0.475-2.58
			c0-1.681,0.4-2.971,1.201-3.871c0.801-0.899,2.002-1.35,3.604-1.35s2.803,0.45,3.604,1.35c0.801,0.9,1.202,2.19,1.202,3.871v0.652
			H93.13v-0.86c0-0.751-0.144-1.28-0.431-1.587c-0.286-0.307-0.687-0.46-1.201-0.46s-0.915,0.153-1.201,0.46
			c-0.287,0.307-0.43,0.836-0.43,1.587c0,0.712,0.158,1.34,0.475,1.884c0.315,0.544,0.712,1.058,1.187,1.542
			s0.983,0.969,1.527,1.453c0.543,0.485,1.053,1.014,1.527,1.587c0.475,0.574,0.87,1.227,1.187,1.958s0.475,1.592,0.475,2.58
			c0,1.682-0.411,2.972-1.231,3.871c-0.82,0.9-2.031,1.35-3.633,1.35s-2.813-0.449-3.634-1.35c-0.82-0.899-1.23-2.189-1.23-3.871
			V31.503z M75.512,16.999h10.085v2.966h-3.411v17.797h-3.263V19.965h-3.411V16.999z M64.537,16.999h4.924
			c1.7,0,2.932,0.396,3.692,1.187c0.762,0.791,1.143,1.987,1.143,3.589v1.631c0,2.136-0.712,3.54-2.136,4.212
			c0.83,0.337,1.398,0.886,1.705,1.646c0.307,0.762,0.46,1.687,0.46,2.773v3.203c0,0.515,0.02,0.964,0.06,1.35
			c0.039,0.386,0.138,0.776,0.296,1.172H71.36c-0.04-0.138-0.079-0.267-0.119-0.386c-0.04-0.118-0.074-0.267-0.104-0.444
			c-0.029-0.179-0.05-0.405-0.06-0.683c-0.01-0.276-0.015-0.623-0.015-1.038v-3.263c0-0.969-0.168-1.651-0.504-2.047
			c-0.337-0.396-0.881-0.593-1.632-0.593H67.8v8.453h-3.263V16.999z M52.525,21.982c0-1.681,0.425-2.971,1.275-3.871
			c0.85-0.899,2.076-1.35,3.678-1.35s2.827,0.45,3.678,1.35c0.85,0.9,1.275,2.19,1.275,3.871v10.796
			c0,1.682-0.426,2.972-1.275,3.871c-0.851,0.9-2.076,1.35-3.678,1.35s-2.828-0.449-3.678-1.35
			c-0.851-0.899-1.275-2.189-1.275-3.871V21.982z M41.461,16.999h4.805c1.642,0,2.862,0.436,3.663,1.305
			c0.801,0.871,1.201,2.146,1.201,3.826v2.699c0,1.682-0.4,2.957-1.201,3.827s-2.021,1.305-3.663,1.305h-1.542v7.801h-3.263V16.999z
			 M29.864,31.503h3.084v1.483c0,0.752,0.153,1.275,0.46,1.572c0.307,0.296,0.717,0.444,1.231,0.444c0.514,0,0.924-0.148,1.23-0.444
			c0.307-0.297,0.46-0.82,0.46-1.572c0-0.712-0.158-1.34-0.475-1.884c-0.316-0.543-0.712-1.058-1.187-1.542
			s-0.984-0.969-1.527-1.453c-0.544-0.484-1.053-1.014-1.527-1.587c-0.475-0.573-0.871-1.227-1.187-1.958
			c-0.316-0.731-0.475-1.592-0.475-2.58c0-1.681,0.4-2.971,1.201-3.871c0.801-0.899,2.002-1.35,3.604-1.35s2.803,0.45,3.604,1.35
			c0.801,0.9,1.202,2.19,1.202,3.871v0.652h-3.085v-0.86c0-0.751-0.144-1.28-0.431-1.587c-0.286-0.307-0.687-0.46-1.201-0.46
			s-0.915,0.153-1.201,0.46c-0.287,0.307-0.43,0.836-0.43,1.587c0,0.712,0.158,1.34,0.475,1.884
			c0.315,0.544,0.712,1.058,1.187,1.542s0.983,0.969,1.527,1.453c0.543,0.485,1.053,1.014,1.527,1.587
			c0.475,0.574,0.87,1.227,1.187,1.958s0.475,1.592,0.475,2.58c0,1.682-0.411,2.972-1.231,3.871c-0.82,0.9-2.031,1.35-3.633,1.35
			s-2.813-0.449-3.634-1.35c-0.82-0.899-1.23-2.189-1.23-3.871V31.503z M63.553,117.548c-19.265,0-34.938-15.673-34.938-34.938
			c0-19.265,15.673-34.938,34.938-34.938c19.265,0,34.938,15.673,34.938,34.938C98.491,101.875,82.818,117.548,63.553,117.548z"/>
	</g>
</g>
</svg>
