<?xml version="1.0" encoding="utf-8"?>
<!-- Generator: Adobe Illustrator 23.1.0, SVG Export Plug-In . SVG Version: 6.00 Build 0)  -->
<!DOCTYPE svg PUBLIC "-//W3C//DTD SVG 1.1//EN" "http://www.w3.org/Graphics/SVG/1.1/DTD/svg11.dtd" [
	<!ENTITY ns_extend "http://ns.adobe.com/Extensibility/1.0/">
	<!ENTITY ns_ai "http://ns.adobe.com/AdobeIllustrator/10.0/">
	<!ENTITY ns_graphs "http://ns.adobe.com/Graphs/1.0/">
	<!ENTITY ns_vars "http://ns.adobe.com/Variables/1.0/">
	<!ENTITY ns_imrep "http://ns.adobe.com/ImageReplacement/1.0/">
	<!ENTITY ns_sfw "http://ns.adobe.com/SaveForWeb/1.0/">
	<!ENTITY ns_custom "http://ns.adobe.com/GenericCustomNamespace/1.0/">
	<!ENTITY ns_adobe_xpath "http://ns.adobe.com/XPath/1.0/">
]>
<svg version="1.1" xmlns:x="&ns_extend;" xmlns:i="&ns_ai;" xmlns:graph="&ns_graphs;"
	 xmlns="http://www.w3.org/2000/svg" xmlns:xlink="http://www.w3.org/1999/xlink" x="0px" y="0px" viewBox="0 0 144 144"
	 enable-background="new 0 0 144 144" xml:space="preserve">
<metadata>
	<sfw  xmlns="&ns_sfw;">
		<slices></slices>
		<sliceSourceBounds  bottomLeftOrigin="true" height="9204.43" width="9884.416" x="-6910.837" y="-991.587"></sliceSourceBounds>
	</sfw>
</metadata>
<g id="BG">
</g>
<g id="Object">
	<g>
		<g>
			<linearGradient id="SVGID_1_" gradientUnits="userSpaceOnUse" x1="65.9805" y1="90.5868" x2="34.5094" y2="59.1156">
				<stop  offset="0" style="stop-color:#F1D618"/>
				<stop  offset="1" style="stop-color:#ECB023"/>
			</linearGradient>
			<path fill="url(#SVGID_1_)" d="M98.152,21.762c-0.012-1.494-1.232-2.694-2.725-2.683L17.15,19.692
				c-1.493,0.012-2.694,1.232-2.683,2.725l0.929,118.581c0.012,1.493,1.232,2.694,2.725,2.682l78.277-0.612
				c1.494-0.012,2.694-1.232,2.683-2.725L98.152,21.762z"/>
			<g>
				<g>
					<g opacity="0.8">
						<path fill="#423F3F" d="M70.59,66.339c-2.09-1.633-4.9-2.289-7.507-1.801c-2.596,0.486-4.952,2.085-6.408,4.289
							c-1.49-2.181-3.872-3.743-6.475-4.188c-2.614-0.447-5.413,0.253-7.478,1.918c-3.442,2.776-4.428,7.817-3.337,12.102
							c1.091,4.285,3.91,7.923,7.004,11.082c3.171,3.237,6.705,6.118,10.515,8.573v0.002l0.001-0.001h0.002v-0.001
							c3.771-2.514,7.26-5.45,10.379-8.737c3.044-3.207,5.806-6.888,6.829-11.19C75.14,74.085,74.076,69.06,70.59,66.339z
							 M70.6,75.991c-0.434,5.113-5.051,11.022-13.731,17.591c-8.783-6.431-13.491-12.268-14.005-17.373l-0.013-1.704
							c0.216-2.508,1.603-5.09,4.129-5.885c2.623-0.825,5.137,0.851,6.777,2.775c0.008,0.009,2.595,3.045,2.964,3.477v0.004
							l0.001-0.001l0.001,0.001v-0.004c0.362-0.438,2.902-3.514,2.91-3.523c1.609-1.949,4.097-3.665,6.732-2.881
							c2.538,0.755,3.967,3.315,4.221,5.819L70.6,75.991z"/>
					</g>
					<g opacity="0.8">
						<path fill="#423F3F" d="M70.329,67.279c-1.982-1.703-4.735-2.459-7.315-2.043c-2.566,0.414-4.918,1.971-6.334,4.151
							c-1.45-2.157-3.825-3.677-6.398-4.051c-2.586-0.376-5.326,0.424-7.282,2.157c-3.152,2.795-3.913,7.606-2.769,11.661
							c1.144,4.055,3.883,7.467,6.86,10.449c2.986,2.992,6.278,5.675,9.809,7.998v0.002l0.001-0.001l0.001,0.001V97.6
							c3.495-2.377,6.744-5.113,9.683-8.15c2.929-3.028,5.615-6.483,6.695-10.555C74.361,74.823,73.525,70.024,70.329,67.279z"/>
					</g>
				</g>
				<g>
					<g>
						<g>
							<path fill="#353841" d="M26.396,35.691c-0.489-0.419-1.168-0.606-1.804-0.504c-0.632,0.102-1.212,0.486-1.561,1.023
								c-0.358-0.532-0.943-0.907-1.577-0.999c-0.637-0.092-1.313,0.104-1.795,0.532c-0.777,0.689-0.965,1.875-0.683,2.875
								c0.282,0.999,0.958,1.84,1.691,2.576c0.736,0.737,1.548,1.399,2.418,1.971v0.001h0.001l0,0v-0.001
								c0.861-0.586,1.663-1.261,2.387-2.009c0.722-0.747,1.384-1.599,1.65-2.602S27.184,36.368,26.396,35.691z"/>
						</g>
					</g>
					<g>
						<path fill="#353841" d="M20.663,33.999l1.39-8.877l1.784-0.014l1.522,8.855l-1.404,0.011l-0.291-1.917l-1.379,0.011
							l-0.28,1.921L20.663,33.999z M22.447,30.808L23.49,30.8l-0.495-3.699l-0.086,0.001L22.447,30.808z"/>
					</g>
				</g>
				<g>
					<g>
						<g opacity="0.8">
							<path fill="#423F3F" d="M87.086,127.3c0.515,0.403,1.208,0.565,1.851,0.444c0.64-0.119,1.221-0.514,1.58-1.057
								c0.368,0.537,0.955,0.922,1.597,1.032c0.644,0.11,1.334-0.063,1.843-0.473c0.848-0.684,1.091-1.927,0.822-2.984
								c-0.269-1.056-0.964-1.953-1.727-2.732c-0.781-0.798-1.653-1.508-2.592-2.113v-0.001l0,0h-0.001v0.001
								c-0.93,0.619-1.789,1.343-2.558,2.153c-0.75,0.791-1.431,1.698-1.684,2.758C85.965,125.391,86.227,126.63,87.086,127.3z
								 M87.084,124.921c0.107-1.261,1.245-2.717,3.385-4.336c2.165,1.586,3.325,3.024,3.452,4.283l0.004,0.42
								c-0.053,0.618-0.396,1.255-1.018,1.45c-0.647,0.204-1.266-0.21-1.671-0.684c-0.002-0.002-0.64-0.75-0.731-0.857v-0.001v0.001
								l-0.001-0.001v0.001c-0.089,0.108-0.715,0.866-0.717,0.868c-0.397,0.481-1.01,0.904-1.66,0.71
								c-0.626-0.186-0.978-0.817-1.041-1.435L87.084,124.921z"/>
						</g>
						<g opacity="0.8">
							<path fill="#423F3F" d="M87.151,127.069c0.489,0.42,1.167,0.607,1.803,0.504c0.633-0.101,1.212-0.486,1.562-1.023
								c0.357,0.532,0.943,0.907,1.577,0.999c0.637,0.093,1.313-0.104,1.795-0.532c0.777-0.689,0.965-1.875,0.683-2.874
								c-0.282-1-0.958-1.841-1.692-2.576c-0.736-0.737-1.548-1.399-2.418-1.971v-0.001v0.001l-0.001-0.001v0.001
								c-0.861,0.586-1.662,1.261-2.387,2.01c-0.722,0.746-1.384,1.598-1.65,2.602C86.156,125.209,86.363,126.392,87.151,127.069z"
								/>
						</g>
					</g>
					<g>
						<path fill="#423F3F" d="M92.882,128.76l-1.389,8.878l-1.784,0.014l-1.522-8.855l1.404-0.011l0.291,1.917l1.379-0.011
							l0.28-1.921L92.882,128.76z M91.099,131.951l-1.043,0.008l0.495,3.699h0.087L91.099,131.951z"/>
					</g>
				</g>
			</g>
		</g>
		<g>
			<linearGradient id="SVGID_2_" gradientUnits="userSpaceOnUse" x1="22.395" y1="77.5944" x2="87.3353" y2="77.5944">
				<stop  offset="0" style="stop-color:#F1D618"/>
				<stop  offset="1" style="stop-color:#ECB023"/>
			</linearGradient>
			<path fill="url(#SVGID_2_)" d="M108.304,19.625L30.383,12.14c-1.486-0.143-2.807,0.946-2.95,2.433l-11.34,118.041
				c-0.143,1.486,0.946,2.807,2.433,2.951l77.921,7.485c1.486,0.143,2.807-0.946,2.951-2.433l11.34-118.041
				C110.879,21.089,109.79,19.768,108.304,19.625z"/>
			<g>
				<g>
					<g>
						<g>
							<path fill="#353841" d="M32.398,26.733l2.301-8.686l1.776,0.171l0.599,8.964l-1.398-0.134l-0.091-1.937l-1.373-0.132
								l-0.477,1.882L32.398,26.733z M34.502,23.744l1.038,0.099l-0.109-3.731l-0.086-0.008L34.502,23.744z"/>
						</g>
					</g>
					<g>
						<g>
							<g>
								<path fill="#353841" d="M34.621,28.19l-4.532,3.738l3.738,4.532l4.533-3.738L34.621,28.19z"/>
							</g>
						</g>
					</g>
				</g>
				<g>
					<g>
						<g>
							<path fill="#F07F60" d="M94.197,128.433l-2.301,8.686l-1.776-0.171l-0.599-8.964l1.398,0.135l0.091,1.936l1.373,0.132
								l0.477-1.882L94.197,128.433z M92.093,131.422l-1.038-0.1l0.109,3.73l0.086,0.008L92.093,131.422z"/>
						</g>
					</g>
					<g>
						<g opacity="0.8">
							<g>
								<path fill="#F07F60" d="M91.95,127.202l4.778-3.941l-3.941-4.778l-4.778,3.941L91.95,127.202z M95.406,123.135l-3.328,2.745
									l-2.746-3.328l3.329-2.746L95.406,123.135z"/>
							</g>
						</g>
						<g opacity="0.8">
							<g>
								<path fill="#F07F60" d="M91.972,126.977l4.532-3.738l-3.738-4.532l-4.532,3.738L91.972,126.977z"/>
							</g>
						</g>
					</g>
				</g>
				<g>
					<g opacity="0.8">
						<g>
							<path fill="#F07F60" d="M65.194,59.089L45.812,75.073l15.984,19.381L81.178,78.47L65.194,59.089z M51.176,75.588
								l13.503-11.135l11.135,13.503L62.311,89.09L51.176,75.588z"/>
						</g>
					</g>
					<g opacity="0.8">
						<g>
							<path fill="#F07F60" d="M65.107,59.999L46.722,75.16l15.161,18.384l18.384-15.162L65.107,59.999z"/>
						</g>
					</g>
				</g>
			</g>
		</g>
		<g>
			<g>
				<linearGradient id="SVGID_3_" gradientUnits="userSpaceOnUse" x1="17.3103" y1="74.2962" x2="123.5683" y2="74.2962">
					<stop  offset="0" style="stop-color:#F1D618"/>
					<stop  offset="1" style="stop-color:#ECB023"/>
				</linearGradient>
				<path fill="url(#SVGID_3_)" d="M96.732,143.036l-77.681-16.054c-1.18-0.244-1.94-1.399-1.696-2.579L41.567,7.252
					c0.244-1.18,1.399-1.939,2.579-1.696l77.681,16.054c1.18,0.244,1.94,1.399,1.696,2.579L99.311,141.341
					C99.067,142.521,97.913,143.28,96.732,143.036z"/>
			</g>
			<g>
				<g>
					<g opacity="0.8">
						<path fill="#423F3F" d="M87.108,62.492c-1.701-2.035-4.31-3.266-6.961-3.337c-2.64-0.071-5.28,0.999-7.167,2.847
							c-0.999-2.445-2.999-4.473-5.451-5.454c-2.462-0.986-5.346-0.889-7.714,0.304c-3.949,1.991-5.97,6.713-5.805,11.131
							c0.166,4.419,2.158,8.568,4.521,12.306c2.42,3.831,5.27,7.391,8.479,10.591v0.001h0.001l0.001,0.001l0.001-0.002
							c4.215-1.666,8.242-3.803,11.983-6.361c3.65-2.497,7.124-5.516,9.027-9.507C89.928,71.022,89.943,65.886,87.108,62.492z
							 M85.089,71.932c-1.499,4.908-7.254,9.716-17.12,14.314c-7.235-8.133-10.613-14.828-10.043-19.927l0.345-1.669
							c0.737-2.407,2.636-4.64,5.273-4.886c2.738-0.256,4.844,1.912,6.043,4.136c0.006,0.012,1.898,3.522,2.167,4.023l-0.001,0.004
							l0.001-0.001l0.001,0.001l0.001-0.003c0.446-0.353,3.574-2.826,3.584-2.834c1.983-1.567,4.776-2.723,7.188-1.402
							c2.324,1.271,3.182,4.074,2.905,6.577L85.089,71.932z"/>
					</g>
					<g opacity="0.8">
						<path fill="#423F3F" d="M86.654,63.357c-1.58-2.081-4.113-3.399-6.722-3.534c-2.596-0.135-5.222,0.894-7.065,2.728
							c-0.965-2.414-2.969-4.399-5.405-5.305c-2.449-0.91-5.296-0.704-7.572,0.58c-3.669,2.071-5.424,6.614-5.157,10.819
							c0.268,4.205,2.229,8.116,4.513,11.657c2.29,3.551,4.946,6.867,7.91,9.88l-0.001,0.002l0.001-0.001l0.001,0.001l0.001-0.002
							c3.915-1.59,7.668-3.582,11.179-5.934c3.5-2.346,6.851-5.159,8.763-8.914C89.011,71.579,89.202,66.712,86.654,63.357z"/>
					</g>
				</g>
				<g>
					<g>
						<g opacity="0.8">
							<path fill="#423F3F" d="M50.449,23.033c-0.419-0.502-1.063-0.806-1.716-0.823c-0.651-0.017-1.302,0.246-1.767,0.701
								c-0.246-0.602-0.739-1.102-1.343-1.344c-0.607-0.243-1.318-0.219-1.902,0.075c-0.973,0.491-1.472,1.655-1.431,2.744
								c0.041,1.089,0.532,2.112,1.114,3.033c0.597,0.945,1.299,1.822,2.091,2.611v0.001v-0.001l0.001,0.001v-0.001
								c1.039-0.411,2.032-0.937,2.954-1.568c0.899-0.615,1.756-1.359,2.225-2.343C51.144,25.136,51.147,23.869,50.449,23.033z
								 M49.951,25.36c-0.369,1.209-1.788,2.395-4.22,3.528c-1.784-2.004-2.616-3.655-2.476-4.913l0.086-0.411
								c0.181-0.594,0.65-1.144,1.299-1.205c0.675-0.063,1.194,0.471,1.49,1.02c0.001,0.002,0.468,0.868,0.534,0.991v0.001h0.001
								l0,0v-0.001c0.11-0.087,0.881-0.696,0.881-0.696c0.491-0.389,1.18-0.673,1.774-0.348c0.573,0.313,0.784,1.004,0.716,1.621
								L49.951,25.36z"/>
						</g>
						<g opacity="0.8">
							<path fill="#423F3F" d="M50.336,23.246c-0.389-0.513-1.014-0.838-1.657-0.871c-0.64-0.033-1.287,0.22-1.742,0.672
								c-0.237-0.595-0.732-1.084-1.332-1.307c-0.604-0.224-1.305-0.173-1.866,0.142c-0.904,0.511-1.337,1.631-1.271,2.667
								c0.066,1.037,0.55,2.001,1.112,2.874c0.565,0.876,1.22,1.693,1.95,2.436l0,0h0.001l0,0l0,0
								c0.966-0.392,1.89-0.884,2.756-1.463c0.863-0.578,1.689-1.271,2.161-2.197C50.918,25.273,50.964,24.073,50.336,23.246z"/>
						</g>
					</g>
					<g>
						<path fill="#423F3F" d="M45.088,20.387L48.311,12l1.747,0.361l-0.371,8.976l-1.375-0.284l0.118-1.935l-1.35-0.279l-0.677,1.82
							L45.088,20.387z M47.502,17.642l1.021,0.212l0.293-3.72l-0.084-0.018L47.502,17.642z"/>
					</g>
				</g>
				<g>
					<g>
						<g opacity="0.8">
							<path fill="#423F3F" d="M90.43,125.56c0.419,0.501,1.063,0.805,1.716,0.822c0.651,0.017,1.302-0.246,1.766-0.701
								c0.247,0.602,0.74,1.102,1.344,1.345c0.607,0.242,1.318,0.219,1.902-0.076c0.973-0.491,1.472-1.655,1.431-2.744
								c-0.041-1.089-0.532-2.112-1.114-3.033c-0.596-0.945-1.299-1.822-2.09-2.611l0,0h-0.001v-0.001v0.001
								c-1.039,0.411-2.032,0.937-2.954,1.568c-0.899,0.615-1.756,1.359-2.225,2.343C89.735,123.457,89.731,124.723,90.43,125.56z
								 M90.927,123.233c0.37-1.209,1.789-2.394,4.22-3.528c1.784,2.005,2.617,3.656,2.476,4.913l-0.085,0.412
								c-0.182,0.593-0.65,1.143-1.3,1.204c-0.675,0.063-1.194-0.471-1.489-1.02c0,0-0.468-0.868-0.535-0.991v-0.001v0.001
								l-0.001-0.001v0.001c-0.11,0.087-0.881,0.696-0.884,0.699c-0.489,0.386-1.177,0.671-1.772,0.346
								c-0.573-0.314-0.784-1.004-0.716-1.622L90.927,123.233z"/>
						</g>
						<g opacity="0.8">
							<path fill="#423F3F" d="M90.542,125.346c0.39,0.513,1.014,0.838,1.658,0.871c0.64,0.034,1.287-0.22,1.741-0.672
								c0.238,0.595,0.732,1.084,1.332,1.307c0.604,0.224,1.306,0.174,1.867-0.142c0.904-0.511,1.337-1.631,1.271-2.667
								c-0.066-1.037-0.55-2.001-1.112-2.874c-0.565-0.876-1.22-1.693-1.951-2.435v-0.001l0,0h-0.001l0,0
								c-0.965,0.392-1.89,0.884-2.756,1.463c-0.863,0.578-1.689,1.272-2.16,2.197S89.914,124.52,90.542,125.346z"/>
						</g>
					</g>
					<g>
						<path fill="#423F3F" d="M95.79,128.204l-3.223,8.388l-1.747-0.361l0.371-8.977l1.376,0.284l-0.119,1.935l1.35,0.279
							l0.677-1.82L95.79,128.204z M93.376,130.949l-1.021-0.211l-0.293,3.72l0.084,0.018L93.376,130.949z"/>
					</g>
				</g>
			</g>
		</g>
		<linearGradient id="SVGID_4_" gradientUnits="userSpaceOnUse" x1="116.3675" y1="92.6387" x2="32.1067" y2="58.9866">
			<stop  offset="0" style="stop-color:#F1D618"/>
			<stop  offset="1" style="stop-color:#ECB023"/>
		</linearGradient>
		<path fill="url(#SVGID_4_)" d="M121.316,21.504L44.657,5.661c-1.462-0.302-2.893,0.638-3.195,2.101l-24,116.13
			c-0.302,1.463,0.638,2.893,2.101,3.195l76.659,15.843c1.462,0.302,2.892-0.638,3.195-2.1l24-116.131
			C123.719,23.237,122.779,21.806,121.316,21.504z"/>
		<g>
			<path fill="#353841" d="M45.07,20.383l3.223-8.387l1.747,0.361l-0.371,8.976l-1.376-0.284l0.119-1.935l-1.35-0.279l-0.677,1.82
				L45.07,20.383z M47.484,17.639l1.022,0.212l0.293-3.72l-0.085-0.018L47.484,17.639z"/>
		</g>
		<g>
			<path fill="#353841" d="M44.608,30.119l0.32-0.445c0.276-0.383,0.484-0.816,0.618-1.286l-0.112-0.062
				c-0.504,0.486-1.21,0.692-1.897,0.55l-0.061-0.014c-1.087-0.259-1.8-1.361-1.591-2.458c0.108-0.562,0.429-1.046,0.904-1.364
				c0.476-0.317,1.046-0.429,1.606-0.313c0.042,0.009,0.082,0.02,0.123,0.032l0.077,0.022l-0.009-0.066
				c-0.057-0.275-0.056-0.56,0.002-0.843c0.237-1.144,1.36-1.882,2.503-1.645c0.053,0.011,0.106,0.024,0.159,0.039
				c0.992,0.283,1.644,1.271,1.515,2.296c-0.044,0.347-0.167,0.667-0.365,0.951l-0.034,0.049l0.059,0.008
				c0.065,0.009,0.108,0.014,0.15,0.023c0.56,0.116,1.04,0.444,1.35,0.924c0.311,0.48,0.413,1.052,0.289,1.61
				c-0.242,1.09-1.333,1.82-2.433,1.627l-0.062-0.012c-0.688-0.142-1.255-0.611-1.525-1.258l-0.127,0.012
				c-0.063,0.485-0.044,0.965,0.058,1.427l0.117,0.535L44.608,30.119z"/>
		</g>
		<g>
			<g>
				<g opacity="0.8">
					<path fill="#423F3F" d="M63.427,90.423l1.765-2.451c0.918-1.275,1.643-2.687,2.163-4.211c-2.101,1.674-4.813,2.335-7.49,1.782
						l-0.273-0.06c-4.748-1.13-7.748-5.772-6.831-10.567c0.462-2.417,1.842-4.5,3.887-5.866c2.044-1.366,4.496-1.843,6.903-1.345
						c0.023,0.004,0.046,0.009,0.069,0.014c-0.142-1.027-0.108-2.062,0.104-3.087c1.017-4.918,5.845-8.093,10.764-7.077
						c0.226,0.047,0.453,0.104,0.68,0.168c4.27,1.221,7.071,5.467,6.515,9.876c-0.163,1.294-0.582,2.5-1.248,3.595
						c0.024,0.004,0.046,0.009,0.069,0.014c2.407,0.498,4.469,1.908,5.805,3.973c1.335,2.064,1.776,4.523,1.243,6.926
						c-1.058,4.765-5.653,7.837-10.46,6.993l-0.274-0.053c-2.678-0.553-4.905-2.238-6.17-4.605
						c-0.127,1.605-0.021,3.189,0.317,4.723l0.649,2.949L63.427,90.423z M69.287,89.819l-0.06-0.271
						c-0.334-1.516-0.464-3.074-0.391-4.651c-0.558,1.477-1.295,2.855-2.202,4.115l-0.161,0.224L69.287,89.819z M71.766,82.586
						c0.871,2.435,2.894,4.2,5.412,4.72l0.152,0.03c3.893,0.722,7.711-1.848,8.511-5.729c0.814-3.956-1.741-7.839-5.696-8.657
						c-0.135-0.028-0.282-0.047-0.437-0.068l-2.374-0.319l1.324-1.895c0.571-0.818,0.963-1.729,1.165-2.708
						c0.818-3.958-1.737-7.844-5.695-8.662c-0.092-0.019-0.184-0.036-0.277-0.051c-3.95-0.663-7.73,2.012-8.427,5.962
						c-0.16,0.909-0.147,1.828,0.037,2.732l0.463,2.264l-2.299-0.646c-0.154-0.044-0.298-0.085-0.435-0.113
						c-3.956-0.817-7.842,1.735-8.661,5.69c-0.804,3.879,1.683,7.752,5.544,8.633l0.151,0.033c2.517,0.52,5.075-0.298,6.839-2.188
						l0.196-0.21l2.064,1.132l2.344-0.221L71.766,82.586z"/>
				</g>
			</g>
			<g>
				<g opacity="0.8">
					<path fill="#423F3F" d="M64.313,90.078l1.298-1.803c1.121-1.556,1.963-3.311,2.507-5.22l-0.455-0.25
						c-2.047,1.974-4.91,2.807-7.693,2.233l-0.25-0.056c-4.408-1.05-7.301-5.521-6.451-9.968c0.437-2.28,1.739-4.245,3.666-5.533
						c1.928-1.288,4.241-1.738,6.512-1.269c0.17,0.035,0.334,0.081,0.499,0.127l0.312,0.088l-0.038-0.268
						c-0.23-1.117-0.227-2.273,0.011-3.421c0.959-4.639,5.513-7.634,10.153-6.675c0.214,0.044,0.429,0.096,0.643,0.158
						c4.026,1.152,6.668,5.156,6.144,9.313c-0.178,1.407-0.676,2.705-1.478,3.856l-0.139,0.199l0.239,0.032
						c0.267,0.035,0.437,0.059,0.607,0.094c2.271,0.47,4.216,1.801,5.475,3.748c1.26,1.947,1.676,4.267,1.172,6.532
						c-0.981,4.42-5.408,7.379-9.865,6.596l-0.251-0.048c-2.79-0.577-5.09-2.477-6.186-5.1l-0.518,0.049
						c-0.257,1.968-0.179,3.914,0.232,5.785l0.478,2.171L64.313,90.078z"/>
				</g>
			</g>
		</g>
		<g>
			<g>
				<path fill="#423F3F" d="M93.242,122.764l-0.1,1.939l1.35,0.279l0.658-1.823l1.376,0.284l-3.218,8.388l-1.747-0.361l0.365-8.978
					L93.242,122.764z M92.786,129.695l0.085,0.017l1.206-3.532l-1.022-0.211L92.786,129.695z"/>
			</g>
			<g>
				<g>
					<g opacity="0.8">
						<path fill="#423F3F" d="M97.213,113.625l-0.435,0.604c-0.226,0.314-0.405,0.662-0.533,1.038
							c0.518-0.413,1.186-0.576,1.847-0.44l0.067,0.015c1.171,0.278,1.91,1.422,1.684,2.605c-0.114,0.596-0.454,1.109-0.958,1.445
							c-0.504,0.337-1.108,0.455-1.702,0.332c-0.006-0.001-0.012-0.002-0.017-0.004c0.044,0.313,0.02,0.627-0.069,0.935
							c-0.305,1.053-1.354,1.74-2.44,1.599c-0.058-0.007-0.114-0.017-0.171-0.029c-1.212-0.25-1.995-1.441-1.745-2.653
							c0.053-0.253,0.146-0.49,0.278-0.709c-0.006-0.001-0.012-0.002-0.017-0.004c-0.594-0.122-1.102-0.471-1.431-0.979
							c-0.329-0.509-0.438-1.115-0.306-1.707c0.261-1.175,1.394-1.933,2.579-1.725l0.068,0.013c0.66,0.137,1.209,0.552,1.521,1.136
							c0.031-0.396,0.005-0.786-0.078-1.165l-0.16-0.727L97.213,113.625z M95.769,113.774l0.014,0.067
							c0.083,0.373,0.115,0.758,0.096,1.147c0.137-0.365,0.319-0.704,0.543-1.015l0.04-0.055L95.769,113.774z M96.269,115.848
							l-0.509-0.279l-0.578,0.055l-0.024-0.067c-0.215-0.6-0.714-1.035-1.334-1.163l-0.038-0.007
							c-0.96-0.178-1.901,0.455-2.098,1.412c-0.201,0.975,0.429,1.933,1.404,2.134c0.033,0.007,0.07,0.012,0.109,0.017l0.583,0.078
							l-0.327,0.467c-0.13,0.187-0.222,0.394-0.275,0.615c-0.229,0.962,0.365,1.937,1.325,2.173
							c0.022,0.006,0.045,0.011,0.068,0.015c0.976,0.202,1.933-0.428,2.135-1.404c0.05-0.241,0.05-0.486,0.001-0.727l-0.114-0.558
							l0.568,0.16c0.037,0.011,0.073,0.02,0.106,0.027c0.975,0.201,1.933-0.427,2.135-1.403c0.198-0.956-0.415-1.911-1.367-2.128
							l-0.037-0.008c-0.621-0.129-1.251,0.073-1.686,0.539L96.269,115.848z"/>
					</g>
				</g>
				<g>
					<g opacity="0.8">
						<path fill="#423F3F" d="M95.362,113.372l0.117,0.535c0.102,0.461,0.121,0.941,0.058,1.426l-0.127,0.012
							c-0.271-0.647-0.837-1.115-1.523-1.257l-0.062-0.012c-1.101-0.193-2.192,0.537-2.435,1.626
							c-0.124,0.559-0.021,1.131,0.289,1.611c0.311,0.48,0.79,0.808,1.35,0.924c0.042,0.009,0.083,0.014,0.126,0.019l0.079,0.011
							l-0.035,0.057c-0.161,0.23-0.273,0.492-0.332,0.776c-0.237,1.144,0.502,2.266,1.645,2.503c0.053,0.011,0.106,0.02,0.161,0.027
							c1.024,0.133,2.013-0.515,2.301-1.507c0.097-0.336,0.112-0.678,0.042-1.017l-0.012-0.058l0.058,0.016
							c0.063,0.018,0.104,0.029,0.146,0.038c0.56,0.116,1.13,0.004,1.606-0.313c0.476-0.318,0.796-0.802,0.904-1.364
							c0.209-1.096-0.503-2.199-1.589-2.457l-0.061-0.014c-0.688-0.142-1.394,0.063-1.899,0.55l-0.112-0.061
							c0.134-0.471,0.342-0.904,0.618-1.287l0.32-0.445L95.362,113.372z"/>
					</g>
				</g>
			</g>
		</g>
		<linearGradient id="SVGID_5_" gradientUnits="userSpaceOnUse" x1="39.1594" y1="58.1841" x2="117.942" y2="85.0537">
			<stop  offset="0" style="stop-color:#F1D618"/>
			<stop  offset="1" style="stop-color:#ECB023"/>
		</linearGradient>
		<path fill="url(#SVGID_5_)" d="M135.843,25.561L61.696,0.463c-1.415-0.478-2.949,0.28-3.428,1.694L20.249,114.482
			c-0.479,1.414,0.279,2.949,1.694,3.428l74.148,25.097c1.414,0.478,2.949-0.28,3.428-1.694l38.02-112.325
			C138.016,27.574,137.258,26.039,135.843,25.561z"/>
		<g>
			<path fill="#353841" d="M60.306,15.125l4.225-7.93l1.689,0.572l-1.466,8.864l-1.33-0.45l0.354-1.906l-1.307-0.442l-0.894,1.723
				L60.306,15.125z M63.037,12.696l0.988,0.335l0.745-3.657l-0.082-0.027L63.037,12.696z"/>
		</g>
		<g>
			<path fill="#353841" d="M58.557,25.201l0.322-0.348c0.379-0.41,0.679-0.892,0.891-1.432l-0.181-0.13
				c-0.597,0.499-1.391,0.65-2.125,0.401c-0.11-0.037-0.219-0.084-0.325-0.139c-0.882-0.46-1.208-1.475-0.83-2.587
				c0.884-2.6,5.197-3.631,5.78-3.759c0.384,0.456,3.174,3.893,2.299,6.493c-0.376,1.114-1.247,1.725-2.22,1.556
				c-0.117-0.021-0.232-0.05-0.342-0.088l0,0c-0.734-0.248-1.274-0.85-1.445-1.609l-0.223-0.006
				c-0.159,0.558-0.214,1.123-0.161,1.679l0.045,0.472L58.557,25.201z"/>
		</g>
		<g>
			<path fill="#353841" d="M71.081,86.771l1.305-1.41c1.539-1.663,2.756-3.617,3.617-5.808l-0.733-0.528
				c-2.421,2.027-5.644,2.636-8.62,1.629c-0.448-0.152-0.892-0.342-1.32-0.564c-3.579-1.863-4.901-5.982-3.366-10.494
				c3.587-10.547,21.08-14.724,23.446-15.244c1.559,1.851,12.877,15.79,9.324,26.336c-1.522,4.52-5.057,6.996-9.004,6.306
				c-0.474-0.083-0.943-0.201-1.391-0.353l0,0c-2.976-1.007-5.167-3.448-5.859-6.53l-0.903-0.025
				c-0.647,2.264-0.867,4.555-0.655,6.81l0.181,1.914L71.081,86.771z"/>
		</g>
		<g>
			<path fill="#353841" d="M95.598,122.628l-0.337,1.912l1.307,0.442l0.876-1.729l1.33,0.45l-4.218,7.932l-1.69-0.572l1.461-8.865
				L95.598,122.628z M94.298,129.451l0.082,0.027l1.629-3.358l-0.988-0.335L94.298,129.451z"/>
		</g>
		<g>
			<path fill="#353841" d="M99.057,113.132l0.044,0.472c0.053,0.556-0.001,1.121-0.161,1.679l-0.222-0.006
				c-0.171-0.76-0.711-1.361-1.445-1.609c-0.11-0.037-0.226-0.067-0.342-0.088c-0.981-0.171-1.856,0.438-2.231,1.552
				c-0.876,2.602,1.924,6.04,2.31,6.496c0.582-0.129,4.886-1.165,5.77-3.762c0.378-1.113,0.058-2.128-0.819-2.584
				c-0.106-0.055-0.215-0.101-0.326-0.139l0,0c-0.733-0.248-1.528-0.098-2.125,0.401l-0.181-0.13
				c0.212-0.54,0.512-1.022,0.892-1.432l0.322-0.348L99.057,113.132z"/>
		</g>
	</g>
</g>
</svg>
