<?xml version="1.0" encoding="utf-8"?>
<!-- Generator: Adobe Illustrator 23.1.0, SVG Export Plug-In . SVG Version: 6.00 Build 0)  -->
<svg version="1.1" xmlns="http://www.w3.org/2000/svg" xmlns:xlink="http://www.w3.org/1999/xlink" x="0px" y="0px"
	 viewBox="0 0 144 144" enable-background="new 0 0 144 144" xml:space="preserve">
<g id="BG">
</g>
<g id="Object">
	<g>
		<linearGradient id="SVGID_1_" gradientUnits="userSpaceOnUse" x1="71.926" y1="142.8967" x2="71.926" y2="3.2368">
			<stop  offset="0" style="stop-color:#FAC63A"/>
			<stop  offset="1" style="stop-color:#FCE335"/>
		</linearGradient>
		<path fill="url(#SVGID_1_)" d="M79.568,0.341c-2.508-0.276-5.055-0.414-7.642-0.414c-2.587,0-5.134,0.138-7.642,0.414
			C28.07,4.152-0.148,34.778-0.148,72s28.217,67.848,64.432,71.659c2.508,0.276,5.055,0.415,7.642,0.415
			c2.587,0,5.134-0.138,7.642-0.415C115.782,139.848,144,109.222,144,72S115.782,4.152,79.568,0.341z M79.568,119.273
			c-2.488,0.395-5.035,0.612-7.642,0.612c-2.607,0-5.154-0.218-7.642-0.612C41.477,115.62,24.042,95.834,24.042,72
			c0-23.854,17.435-43.62,40.242-47.272c2.488-0.395,5.035-0.612,7.642-0.612c2.607,0,5.154,0.217,7.642,0.612
			C102.375,28.38,119.811,48.146,119.811,72C119.811,95.834,102.375,115.62,79.568,119.273z"/>
		
			<ellipse transform="matrix(0.1602 -0.9871 0.9871 0.1602 -10.6609 131.4602)" fill=" #1A1A1A" cx="71.926" cy="71.995" rx="47.884" ry="47.885"/>
		<path fill=" #1A1A1A" stroke=" #1A1A1A" stroke-width="0.7681" stroke-miterlimit="10" d="M79.568,0.341v143.319
			c-2.508,0.276-5.055,0.415-7.642,0.415c-2.587,0-5.134-0.138-7.642-0.415V0.341c2.508-0.276,5.055-0.414,7.642-0.414
			C74.513-0.074,77.06,0.064,79.568,0.341z"/>
		<path fill=" #1A1A1A" stroke=" #1A1A1A" stroke-width="0.7681" stroke-miterlimit="10" d="M26.738,16.057l101.341,101.341
			c-1.578,1.969-3.281,3.868-5.11,5.697c-1.829,1.829-3.728,3.533-5.697,5.11L15.931,26.864c1.578-1.969,3.281-3.868,5.11-5.697
			C22.87,19.338,24.769,17.634,26.738,16.057z"/>
		<path fill=" #1A1A1A" stroke=" #1A1A1A" stroke-width="0.7681" stroke-miterlimit="10" d="M16.21,117.356L117.551,16.015
			c1.969,1.578,3.868,3.281,5.697,5.11s3.533,3.728,5.11,5.697L27.017,128.163c-1.968-1.578-3.868-3.281-5.696-5.11
			C19.491,121.224,17.788,119.325,16.21,117.356z"/>
		<linearGradient id="SVGID_2_" gradientUnits="userSpaceOnUse" x1="71.926" y1="142.8967" x2="71.926" y2="3.2368">
			<stop  offset="0" style="stop-color:#FAC63A"/>
			<stop  offset="1" style="stop-color:#FCE335"/>
		</linearGradient>
		<path fill="url(#SVGID_2_)" d="M111.912,71.995c0,22.084-17.903,39.986-39.986,39.986S31.94,94.079,31.94,71.995
			c0-22.084,17.903-39.986,39.986-39.986S111.912,49.911,111.912,71.995z"/>
		<path fill=" #1A1A1A" d="M101.249,71.995c0,16.194-13.128,29.323-29.323,29.323c-16.194,0-29.323-13.128-29.323-29.323
			c0-16.195,13.129-29.323,29.323-29.323C88.121,42.672,101.249,55.8,101.249,71.995z"/>
		<g>
			<linearGradient id="SVGID_3_" gradientUnits="userSpaceOnUse" x1="26.5749" y1="71.8718" x2="117.3774" y2="71.8718">
				<stop  offset="0" style="stop-color:#FAC63A"/>
				<stop  offset="1" style="stop-color:#FCE335"/>
			</linearGradient>
			<path fill="url(#SVGID_3_)" d="M67.286,117.203c-0.053,0-0.107-0.002-0.16-0.008c-4.227-0.444-8.363-1.476-12.287-3.071
				c-0.776-0.315-1.148-1.2-0.835-1.975c0.318-0.778,1.204-1.145,1.976-0.835c3.662,1.488,7.518,2.453,11.462,2.865
				c0.833,0.087,1.437,0.833,1.35,1.666C68.709,116.625,68.052,117.203,67.286,117.203z M79.514,116.793
				c-0.723,0-1.364-0.519-1.493-1.258c-0.142-0.825,0.411-1.608,1.236-1.753c3.897-0.675,7.677-1.899,11.237-3.636
				c0.756-0.369,1.658-0.059,2.027,0.697c0.368,0.754,0.055,1.66-0.696,2.027c-3.817,1.863-7.872,3.174-12.05,3.9
				C79.688,116.785,79.601,116.793,79.514,116.793z M44.82,108.092c-0.326,0-0.657-0.105-0.934-0.324
				c-3.337-2.62-6.29-5.688-8.779-9.121c-0.492-0.679-0.34-1.626,0.337-2.118c0.677-0.498,1.626-0.341,2.118,0.338
				c2.323,3.205,5.08,6.071,8.195,8.517c0.659,0.517,0.774,1.471,0.256,2.128C45.716,107.893,45.27,108.092,44.82,108.092z
				 M101.305,106.179c-0.414,0-0.827-0.17-1.127-0.501c-0.561-0.624-0.509-1.581,0.113-2.141c2.947-2.651,5.507-5.694,7.607-9.048
				c0.446-0.705,1.379-0.924,2.09-0.48c0.709,0.444,0.924,1.38,0.48,2.091c-2.25,3.592-4.991,6.853-8.148,9.691
				C102.029,106.051,101.666,106.179,101.305,106.179z M30.601,88.461c-0.62,0-1.202-0.383-1.425-1.001
				c-1.441-3.982-2.316-8.15-2.598-12.392c-0.055-0.835,0.576-1.557,1.411-1.612c0.841-0.053,1.557,0.576,1.612,1.411
				c0.265,3.958,1.079,7.848,2.424,11.563c0.286,0.786-0.122,1.656-0.91,1.941C30.946,88.431,30.773,88.461,30.601,88.461z
				 M114.168,85.63c-0.138,0-0.278-0.018-0.418-0.059c-0.803-0.231-1.269-1.07-1.038-1.875c1.084-3.784,1.634-7.72,1.634-11.701
				c0.002-1.91-0.126-3.837-0.383-5.73c-0.112-0.829,0.47-1.593,1.299-1.706c0.855-0.117,1.593,0.472,1.706,1.299
				c0.274,2.027,0.413,4.093,0.411,6.139c0,4.261-0.59,8.479-1.753,12.535C115.435,85.198,114.827,85.63,114.168,85.63z
				 M28.967,64.276c-0.107,0-0.214-0.01-0.32-0.033c-0.817-0.176-1.341-0.982-1.165-1.8c0.888-4.149,2.355-8.15,4.363-11.892
				c0.395-0.736,1.307-1.022,2.053-0.62c0.738,0.397,1.014,1.315,0.62,2.053c-1.873,3.492-3.241,7.224-4.07,11.095
				C30.295,63.788,29.665,64.276,28.967,64.276z M112.147,55.8c-0.582,0-1.137-0.337-1.388-0.904
				c-1.595-3.614-3.691-6.993-6.231-10.041c-0.537-0.644-0.45-1.599,0.193-2.136c0.644-0.539,1.597-0.451,2.136,0.193
				c2.722,3.266,4.968,6.885,6.678,10.76c0.337,0.765-0.01,1.66-0.776,1.999C112.559,55.759,112.352,55.8,112.147,55.8z
				 M40.405,42.905c-0.381,0-0.762-0.142-1.056-0.429c-0.6-0.584-0.614-1.543-0.032-2.143c2.959-3.046,6.32-5.661,9.994-7.773
				c0.726-0.413,1.652-0.165,2.071,0.559c0.416,0.727,0.165,1.652-0.559,2.071c-3.431,1.97-6.569,4.411-9.33,7.256
				C41.195,42.751,40.799,42.905,40.405,42.905z M96.627,37.171c-0.292,0-0.59-0.085-0.851-0.263
				c-3.281-2.232-6.847-3.991-10.599-5.222c-0.796-0.263-1.227-1.119-0.967-1.915c0.263-0.794,1.113-1.233,1.915-0.967
				c4.021,1.322,7.842,3.205,11.358,5.598c0.693,0.472,0.872,1.413,0.4,2.106C97.588,36.938,97.112,37.171,96.627,37.171z
				 M61.424,30.839c-0.681,0-1.301-0.463-1.471-1.155c-0.2-0.813,0.298-1.634,1.112-1.834c4.094-1.005,8.373-1.447,12.597-1.273
				c0.837,0.032,1.488,0.736,1.455,1.573c-0.033,0.839-0.805,1.579-1.573,1.455c-3.936-0.146-7.937,0.254-11.756,1.19
				C61.667,30.826,61.544,30.839,61.424,30.839z"/>
		</g>
		<g>
			<g>
				<path fill=" #1A1A1A" d="M24.042,72c0,4.83,0.727,9.49,2.059,13.887h91.651c1.332-4.397,2.059-9.057,2.059-13.887
					c0-4.708-0.689-9.253-1.955-13.551h-91.86C24.731,62.747,24.042,67.292,24.042,72z"/>
				<path fill=" #1A1A1A" d="M24.042,72c0-4.708,0.689-9.253,1.955-13.551H1.126C0.29,62.838-0.148,67.368-0.148,72
					c0,4.751,0.466,9.393,1.343,13.887h24.906C24.769,81.49,24.042,76.83,24.042,72z"/>
				<path fill=" #1A1A1A" d="M142.727,58.449h-24.87c1.266,4.297,1.955,8.842,1.955,13.551c0,4.83-0.727,9.49-2.059,13.887h24.905
					C143.534,81.393,144,76.751,144,72C144,67.368,143.562,62.838,142.727,58.449z"/>
			</g>
			<path fill="none" d="M79.568,24.728c-2.488-0.395-5.035-0.612-7.642-0.612c-2.607,0-5.154,0.217-7.642,0.612
				c-18.305,2.932-33.141,16.247-38.288,33.721h91.86C112.709,40.975,97.873,27.659,79.568,24.728z"/>
			<path fill="none" d="M64.284,119.273c2.488,0.394,5.035,0.612,7.642,0.612c2.607,0,5.154-0.218,7.642-0.612
				c18.185-2.913,32.944-16.086,38.184-33.386H26.101C31.341,103.186,46.099,116.36,64.284,119.273z"/>
		</g>
		<g>
			<path fill="#FCE135" d="M18.211,76.997L20.255,63.1h2.458l-2.628,17.037h-3.991L13.465,63.1h2.701L18.211,76.997z"/>
			<path fill="#FCE135" d="M23.956,63.1h2.677v17.037h-2.677V63.1z"/>
			<path fill="#FCE135" d="M34.178,80.137c-0.146-0.438-0.243-0.706-0.243-2.093v-2.678c0-1.582-0.536-2.166-1.753-2.166h-0.925
				v6.937H28.58V63.1h4.04c2.774,0,3.967,1.29,3.967,3.918v1.339c0,1.752-0.56,2.896-1.752,3.456c1.339,0.56,1.776,1.85,1.776,3.626
				v2.629c0,0.827,0.024,1.436,0.292,2.068H34.178z M31.257,65.534v5.232h1.047c0.998,0,1.606-0.438,1.606-1.801v-1.68
				c0-1.217-0.414-1.752-1.363-1.752H31.257z"/>
			<path fill="#FCE135" d="M37.635,63.1h8.275v2.434h-2.799v14.603h-2.678V65.534h-2.799V63.1z"/>
			<path fill="#FCE135" d="M49.684,63.1v13.142c0,1.218,0.535,1.655,1.387,1.655s1.388-0.438,1.388-1.655V63.1h2.531v12.972
				c0,2.726-1.363,4.283-3.992,4.283c-2.628,0-3.991-1.558-3.991-4.283V63.1H49.684z"/>
			<path fill="#FCE135" d="M65.479,80.137h-2.701l-0.463-3.091H59.03l-0.463,3.091h-2.458L58.835,63.1h3.919L65.479,80.137z
				 M59.371,74.733h2.579l-1.289-8.615L59.371,74.733z"/>
			<path fill="#FCE135" d="M66.722,63.1h2.677v14.603h4.405v2.434h-7.082V63.1z"/>
			<path fill="#FCE135" d="M86.558,73.784v2.264c0,2.726-1.363,4.283-3.991,4.283c-2.629,0-3.991-1.558-3.991-4.283v-8.859
				c0-2.726,1.362-4.283,3.991-4.283c2.628,0,3.991,1.558,3.991,4.283v1.655h-2.531v-1.825c0-1.217-0.535-1.679-1.387-1.679
				c-0.853,0-1.388,0.462-1.388,1.679v9.2c0,1.217,0.535,1.654,1.388,1.654c0.852,0,1.387-0.438,1.387-1.654v-2.435H86.558z"/>
			<path fill="#FCE135" d="M96.853,80.137h-2.701l-0.463-3.091h-3.285l-0.463,3.091h-2.458L90.209,63.1h3.919L96.853,80.137z
				 M90.745,74.733h2.579l-1.289-8.615L90.745,74.733z"/>
			<path fill="#FCE135" d="M101.697,62.906c2.604,0,3.943,1.558,3.943,4.283v0.657h-2.531v-0.828c0-1.217-0.487-1.679-1.339-1.679
				s-1.339,0.462-1.339,1.679c0,3.505,5.233,4.162,5.233,9.029c0,2.726-1.363,4.283-3.992,4.283c-2.628,0-3.991-1.558-3.991-4.283
				V74.88h2.531v1.339c0,1.217,0.535,1.654,1.388,1.654c0.852,0,1.387-0.438,1.387-1.654c0-3.505-5.232-4.162-5.232-9.03
				C97.755,64.463,99.094,62.906,101.697,62.906z"/>
			<path fill="#FCE135" d="M107.199,63.1h2.677v17.037h-2.677V63.1z"/>
			<path fill="#FCE135" d="M114.208,67.797v12.339h-2.409V63.1h3.358l2.75,10.198V63.1h2.386v17.037h-2.75L114.208,67.797z"/>
			<path fill="#FCE135" d="M121.998,67.189c0-2.726,1.436-4.283,4.064-4.283c2.628,0,4.063,1.558,4.063,4.283v8.859
				c0,2.726-1.436,4.283-4.063,4.283c-2.629,0-4.064-1.558-4.064-4.283V67.189z M124.675,76.219c0,1.217,0.535,1.679,1.388,1.679
				c0.852,0,1.387-0.462,1.387-1.679v-9.2c0-1.217-0.535-1.679-1.387-1.679c-0.853,0-1.388,0.462-1.388,1.679V76.219z"/>
		</g>
	</g>
</g>
</svg>
