<svg width="354" height="250" viewBox="0 0 354 250" fill="none" xmlns="http://www.w3.org/2000/svg">
<style>
@keyframes blink {
  0% { opacity: 0; }
  50% { opacity: 1; }
  100% { opacity: 0; }
}

.button {

  animation: blink 2s infinite;
}
</style>
<rect width="354" height="250" rx="11" fill="#050503"/>
<path d="M35.7529 71.1276V57.9692H39.0425V77H36.2423L25.7482 63.4609V77H22.4586V57.9692H25.5579L35.7529 71.1276ZM58.0744 69.8227C58.0744 70.8558 57.8751 71.8254 57.4763 72.7317C57.0957 73.6379 56.561 74.4354 55.8723 75.1241C55.2017 75.7947 54.3951 76.3294 53.4527 76.7281C52.5102 77.1269 51.4861 77.3262 50.3805 77.3262C49.2931 77.3262 48.2781 77.1359 47.3356 76.7553C46.4113 76.3566 45.6047 75.8219 44.916 75.1513C44.2454 74.4626 43.7198 73.6741 43.3391 72.786C42.9585 71.8798 42.7682 70.9101 42.7682 69.877C42.7682 68.8439 42.9585 67.8743 43.3391 66.968C43.7379 66.0437 44.2726 65.2462 44.9432 64.5756C45.6319 63.8869 46.4384 63.3431 47.3628 62.9444C48.3053 62.5456 49.3293 62.3463 50.4349 62.3463C51.5405 62.3463 52.5555 62.5456 53.4798 62.9444C54.4223 63.325 55.2289 63.8597 55.8995 64.5484C56.5882 65.219 57.1229 66.0074 57.5035 66.9137C57.8841 67.8199 58.0744 68.7896 58.0744 69.8227ZM54.7848 69.877C54.7848 69.2427 54.6761 68.6446 54.4586 68.0827C54.2411 67.5208 53.933 67.0315 53.5342 66.6146C53.1536 66.1796 52.6914 65.8443 52.1477 65.6087C51.6221 65.355 51.033 65.2281 50.3805 65.2281C49.7281 65.2281 49.1299 65.355 48.5862 65.6087C48.0606 65.8443 47.6075 66.1706 47.2269 66.5874C46.8462 67.0043 46.5562 67.4937 46.3569 68.0555C46.1575 68.5993 46.0578 69.1883 46.0578 69.8227C46.0578 70.457 46.1666 71.0642 46.3841 71.6442C46.6016 72.206 46.9006 72.6954 47.2812 73.1123C47.68 73.5291 48.1421 73.8644 48.6678 74.1182C49.2115 74.3538 49.8005 74.4716 50.4349 74.4716C51.1055 74.4716 51.7036 74.3538 52.2292 74.1182C52.773 73.8644 53.2352 73.5291 53.6158 73.1123C53.9964 72.6954 54.2864 72.2151 54.4858 71.6714C54.6851 71.1095 54.7848 70.5114 54.7848 69.877ZM71.7721 62.591L74.9802 72.487L77.9164 62.6453H81.206L76.5027 77.1087H73.5665L70.3584 67.2943L67.1232 77.1087H64.187L59.5381 62.6453H62.9092L65.791 72.487L68.9719 62.591H71.7721ZM104.808 74.6347C104.101 75.4322 103.294 76.0847 102.388 76.5922C101.482 77.0816 100.331 77.3262 98.9354 77.3262C97.8661 77.3262 96.8783 77.1359 95.9721 76.7553C95.0658 76.3566 94.2774 75.8219 93.6068 75.1513C92.9543 74.4626 92.4378 73.6741 92.0572 72.786C91.6947 71.8798 91.5134 70.9101 91.5134 69.877C91.5134 68.8439 91.6947 67.8743 92.0572 66.968C92.4378 66.0618 92.9543 65.2643 93.6068 64.5756C94.2774 63.8869 95.0658 63.3431 95.9721 62.9444C96.8964 62.5456 97.8933 62.3463 98.9626 62.3463C100.322 62.3463 101.446 62.5728 102.334 63.0259C103.24 63.4791 104.028 64.0772 104.699 64.8203L102.66 67.0224C102.153 66.4968 101.609 66.0709 101.029 65.7446C100.467 65.4003 99.7692 65.2281 98.9354 65.2281C98.3373 65.2281 97.7845 65.355 97.277 65.6087C96.7696 65.8443 96.3346 66.1706 95.9721 66.5874C95.6096 67.0043 95.3196 67.4937 95.1021 68.0555C94.9027 68.5993 94.803 69.1883 94.803 69.8227C94.803 70.4751 94.9027 71.0823 95.1021 71.6442C95.3196 72.206 95.6186 72.6954 95.9993 73.1123C96.3799 73.5291 96.833 73.8644 97.3586 74.1182C97.8842 74.3538 98.4642 74.4716 99.0986 74.4716C99.8779 74.4716 100.558 74.3085 101.138 73.9823C101.736 73.6379 102.298 73.2029 102.823 72.6773L104.808 74.6347ZM111.123 71.5354V77H107.833V62.6453H111.123V65.8806C111.576 64.7931 112.22 63.9231 113.053 63.2706C113.887 62.6181 114.938 62.3191 116.207 62.3735V65.8534H116.017C115.292 65.8534 114.63 65.9712 114.032 66.2068C113.434 66.4424 112.917 66.7959 112.482 67.2671C112.047 67.7383 111.712 68.3364 111.476 69.0614C111.241 69.7683 111.123 70.593 111.123 71.5354ZM121.087 70.9917C121.287 72.1698 121.758 73.076 122.501 73.7104C123.244 74.3266 124.15 74.6347 125.22 74.6347C126.035 74.6347 126.742 74.4897 127.34 74.1998C127.938 73.9098 128.527 73.4838 129.107 72.922L131.038 74.6347C130.349 75.4503 129.524 76.1028 128.564 76.5922C127.621 77.0816 126.488 77.3262 125.165 77.3262C124.132 77.3262 123.162 77.145 122.256 76.7825C121.368 76.42 120.589 75.9125 119.918 75.26C119.266 74.6076 118.749 73.8282 118.369 72.922C117.988 71.9976 117.798 70.9736 117.798 69.8499C117.798 68.8168 117.97 67.8471 118.314 66.9409C118.659 66.0346 119.139 65.2462 119.755 64.5756C120.389 63.8869 121.133 63.3431 121.984 62.9444C122.836 62.5456 123.779 62.3463 124.812 62.3463C125.954 62.3463 126.951 62.5547 127.802 62.9716C128.672 63.3884 129.388 63.9503 129.95 64.6572C130.53 65.364 130.965 66.1887 131.255 67.1312C131.545 68.0736 131.69 69.0614 131.69 70.0945C131.69 70.2395 131.681 70.3845 131.663 70.5295C131.663 70.6745 131.654 70.8286 131.636 70.9917H121.087ZM121.06 68.8168H128.428C128.373 68.2911 128.255 67.8018 128.074 67.3487C127.893 66.8774 127.648 66.4787 127.34 66.1524C127.032 65.8081 126.661 65.5362 126.226 65.3368C125.809 65.1375 125.328 65.0378 124.785 65.0378C123.77 65.0378 122.927 65.3912 122.256 66.0981C121.604 66.7868 121.205 67.693 121.06 68.8168ZM147.038 77H143.775V75.2329C143.286 75.8128 142.66 76.3022 141.899 76.7009C141.138 77.0997 140.214 77.2991 139.126 77.2991C138.437 77.2991 137.785 77.1994 137.169 77C136.552 76.8188 136.009 76.5469 135.537 76.1844C135.084 75.8038 134.713 75.3416 134.423 74.7979C134.151 74.236 134.015 73.5926 134.015 72.8676V72.8132C134.015 72.0339 134.16 71.3542 134.45 70.7742C134.74 70.1942 135.139 69.7139 135.646 69.3333C136.172 68.9527 136.788 68.6718 137.495 68.4905C138.22 68.2911 138.999 68.1915 139.833 68.1915C140.703 68.1915 141.437 68.2458 142.035 68.3546C142.651 68.4633 143.24 68.6083 143.802 68.7896V68.4361C143.802 67.4393 143.494 66.678 142.878 66.1524C142.28 65.6268 141.41 65.364 140.268 65.364C139.452 65.364 138.727 65.4456 138.093 65.6087C137.459 65.7718 136.815 65.9893 136.163 66.2612L135.266 63.6241C136.063 63.2616 136.879 62.9716 137.712 62.7541C138.546 62.5366 139.552 62.4278 140.73 62.4278C142.869 62.4278 144.455 62.9625 145.488 64.0319C146.521 65.0831 147.038 66.5693 147.038 68.4905V77ZM143.857 71.8073V70.9101C143.44 70.747 142.941 70.6111 142.361 70.5023C141.8 70.3936 141.201 70.3392 140.567 70.3392C139.534 70.3392 138.727 70.5386 138.147 70.9373C137.567 71.3361 137.277 71.907 137.277 72.6501V72.7045C137.277 73.3932 137.54 73.9188 138.066 74.2813C138.61 74.6438 139.271 74.825 140.05 74.825C140.594 74.825 141.093 74.7526 141.546 74.6076C142.017 74.4626 142.425 74.2632 142.769 74.0094C143.114 73.7376 143.376 73.4204 143.558 73.0579C143.757 72.6773 143.857 72.2604 143.857 71.8073ZM154.787 65.4728V72.5142C154.787 73.1485 154.941 73.6107 155.249 73.9007C155.557 74.1726 155.992 74.3085 156.554 74.3085C157.261 74.3085 157.94 74.1454 158.593 73.8191V76.5106C158.176 76.7463 157.732 76.9275 157.261 77.0544C156.789 77.1812 156.246 77.2447 155.629 77.2447C155.031 77.2447 154.479 77.1722 153.971 77.0272C153.464 76.8822 153.019 76.6466 152.639 76.3203C152.276 75.9941 151.995 75.5682 151.796 75.0425C151.597 74.4988 151.497 73.8282 151.497 73.0307V65.4728H149.675V62.6453H151.497V58.7032H154.787V62.6453H158.647V65.4728H154.787ZM164.071 70.9917C164.271 72.1698 164.742 73.076 165.485 73.7104C166.228 74.3266 167.134 74.6347 168.204 74.6347C169.019 74.6347 169.726 74.4897 170.324 74.1998C170.922 73.9098 171.511 73.4838 172.091 72.922L174.022 74.6347C173.333 75.4503 172.508 76.1028 171.548 76.5922C170.605 77.0816 169.472 77.3262 168.149 77.3262C167.116 77.3262 166.146 77.145 165.24 76.7825C164.352 76.42 163.573 75.9125 162.902 75.26C162.25 74.6076 161.733 73.8282 161.352 72.922C160.972 71.9976 160.782 70.9736 160.782 69.8499C160.782 68.8168 160.954 67.8471 161.298 66.9409C161.642 66.0346 162.123 65.2462 162.739 64.5756C163.373 63.8869 164.116 63.3431 164.968 62.9444C165.82 62.5456 166.763 62.3463 167.796 62.3463C168.938 62.3463 169.934 62.5547 170.786 62.9716C171.656 63.3884 172.372 63.9503 172.934 64.6572C173.514 65.364 173.949 66.1887 174.239 67.1312C174.529 68.0736 174.674 69.0614 174.674 70.0945C174.674 70.2395 174.665 70.3845 174.647 70.5295C174.647 70.6745 174.638 70.8286 174.62 70.9917H164.071ZM164.044 68.8168H171.412C171.357 68.2911 171.239 67.8018 171.058 67.3487C170.877 66.8774 170.632 66.4787 170.324 66.1524C170.016 65.8081 169.644 65.5362 169.209 65.3368C168.793 65.1375 168.312 65.0378 167.769 65.0378C166.754 65.0378 165.911 65.3912 165.24 66.0981C164.588 66.7868 164.189 67.693 164.044 68.8168ZM198.172 77H194.91V75.2329C194.42 75.8128 193.795 76.3022 193.034 76.7009C192.273 77.0997 191.348 77.2991 190.261 77.2991C189.572 77.2991 188.92 77.1994 188.303 77C187.687 76.8188 187.143 76.5469 186.672 76.1844C186.219 75.8038 185.847 75.3416 185.558 74.7979C185.286 74.236 185.15 73.5926 185.15 72.8676V72.8132C185.15 72.0339 185.295 71.3542 185.585 70.7742C185.875 70.1942 186.273 69.7139 186.781 69.3333C187.307 68.9527 187.923 68.6718 188.63 68.4905C189.355 68.2911 190.134 68.1915 190.968 68.1915C191.838 68.1915 192.572 68.2458 193.17 68.3546C193.786 68.4633 194.375 68.6083 194.937 68.7896V68.4361C194.937 67.4393 194.629 66.678 194.013 66.1524C193.415 65.6268 192.545 65.364 191.403 65.364C190.587 65.364 189.862 65.4456 189.228 65.6087C188.593 65.7718 187.95 65.9893 187.297 66.2612L186.4 63.6241C187.198 63.2616 188.013 62.9716 188.847 62.7541C189.681 62.5366 190.687 62.4278 191.865 62.4278C194.004 62.4278 195.589 62.9625 196.623 64.0319C197.656 65.0831 198.172 66.5693 198.172 68.4905V77ZM194.991 71.8073V70.9101C194.574 70.747 194.076 70.6111 193.496 70.5023C192.934 70.3936 192.336 70.3392 191.702 70.3392C190.669 70.3392 189.862 70.5386 189.282 70.9373C188.702 71.3361 188.412 71.907 188.412 72.6501V72.7045C188.412 73.3932 188.675 73.9188 189.201 74.2813C189.744 74.6438 190.406 74.825 191.185 74.825C191.729 74.825 192.227 74.7526 192.68 74.6076C193.152 74.4626 193.56 74.2632 193.904 74.0094C194.248 73.7376 194.511 73.4204 194.692 73.0579C194.892 72.6773 194.991 72.2604 194.991 71.8073ZM205.374 68.8983V77H202.085V62.6453H205.374V64.8747C205.61 64.5303 205.864 64.2131 206.136 63.9231C206.426 63.615 206.752 63.3431 207.114 63.1075C207.495 62.8719 207.903 62.6906 208.338 62.5638C208.791 62.4188 209.298 62.3463 209.86 62.3463C211.491 62.3463 212.751 62.8447 213.639 63.8416C214.527 64.8384 214.971 66.1796 214.971 67.8652V77H211.682V68.8439C211.682 67.7202 211.41 66.8593 210.866 66.2612C210.341 65.6449 209.588 65.3368 208.61 65.3368C207.649 65.3368 206.87 65.654 206.272 66.2884C205.673 66.9046 205.374 67.7746 205.374 68.8983ZM239.138 77H235.876V75.2329C235.387 75.8128 234.761 76.3022 234 76.7009C233.239 77.0997 232.314 77.2991 231.227 77.2991C230.538 77.2991 229.886 77.1994 229.27 77C228.653 76.8188 228.11 76.5469 227.638 76.1844C227.185 75.8038 226.814 75.3416 226.524 74.7979C226.252 74.236 226.116 73.5926 226.116 72.8676V72.8132C226.116 72.0339 226.261 71.3542 226.551 70.7742C226.841 70.1942 227.24 69.7139 227.747 69.3333C228.273 68.9527 228.889 68.6718 229.596 68.4905C230.321 68.2911 231.1 68.1915 231.934 68.1915C232.804 68.1915 233.538 68.2458 234.136 68.3546C234.752 68.4633 235.341 68.6083 235.903 68.7896V68.4361C235.903 67.4393 235.595 66.678 234.979 66.1524C234.381 65.6268 233.511 65.364 232.369 65.364C231.553 65.364 230.828 65.4456 230.194 65.6087C229.56 65.7718 228.916 65.9893 228.264 66.2612L227.366 63.6241C228.164 63.2616 228.98 62.9716 229.813 62.7541C230.647 62.5366 231.653 62.4278 232.831 62.4278C234.97 62.4278 236.556 62.9625 237.589 64.0319C238.622 65.0831 239.138 66.5693 239.138 68.4905V77ZM235.958 71.8073V70.9101C235.541 70.747 235.042 70.6111 234.462 70.5023C233.9 70.3936 233.302 70.3392 232.668 70.3392C231.635 70.3392 230.828 70.5386 230.248 70.9373C229.668 71.3361 229.378 71.907 229.378 72.6501V72.7045C229.378 73.3932 229.641 73.9188 230.167 74.2813C230.71 74.6438 231.372 74.825 232.151 74.825C232.695 74.825 233.194 74.7526 233.647 74.6076C234.118 74.4626 234.526 74.2632 234.87 74.0094C235.214 73.7376 235.477 73.4204 235.658 73.0579C235.858 72.6773 235.958 72.2604 235.958 71.8073ZM255.557 74.6347C254.85 75.4322 254.044 76.0847 253.137 76.5922C252.231 77.0816 251.08 77.3262 249.685 77.3262C248.615 77.3262 247.627 77.1359 246.721 76.7553C245.815 76.3566 245.027 75.8219 244.356 75.1513C243.703 74.4626 243.187 73.6741 242.806 72.786C242.444 71.8798 242.263 70.9101 242.263 69.877C242.263 68.8439 242.444 67.8743 242.806 66.968C243.187 66.0618 243.703 65.2643 244.356 64.5756C245.027 63.8869 245.815 63.3431 246.721 62.9444C247.646 62.5456 248.642 62.3463 249.712 62.3463C251.071 62.3463 252.195 62.5728 253.083 63.0259C253.989 63.4791 254.778 64.0772 255.448 64.8203L253.409 67.0224C252.902 66.4968 252.358 66.0709 251.778 65.7446C251.216 65.4003 250.518 65.2281 249.685 65.2281C249.086 65.2281 248.534 65.355 248.026 65.6087C247.519 65.8443 247.084 66.1706 246.721 66.5874C246.359 67.0043 246.069 67.4937 245.851 68.0555C245.652 68.5993 245.552 69.1883 245.552 69.8227C245.552 70.4751 245.652 71.0823 245.851 71.6442C246.069 72.206 246.368 72.6954 246.748 73.1123C247.129 73.5291 247.582 73.8644 248.108 74.1182C248.633 74.3538 249.213 74.4716 249.848 74.4716C250.627 74.4716 251.307 74.3085 251.887 73.9823C252.485 73.6379 253.047 73.2029 253.572 72.6773L255.557 74.6347ZM270.69 74.6347C269.983 75.4322 269.177 76.0847 268.271 76.5922C267.364 77.0816 266.213 77.3262 264.818 77.3262C263.749 77.3262 262.761 77.1359 261.854 76.7553C260.948 76.3566 260.16 75.8219 259.489 75.1513C258.837 74.4626 258.32 73.6741 257.94 72.786C257.577 71.8798 257.396 70.9101 257.396 69.877C257.396 68.8439 257.577 67.8743 257.94 66.968C258.32 66.0618 258.837 65.2643 259.489 64.5756C260.16 63.8869 260.948 63.3431 261.854 62.9444C262.779 62.5456 263.776 62.3463 264.845 62.3463C266.204 62.3463 267.328 62.5728 268.216 63.0259C269.122 63.4791 269.911 64.0772 270.581 64.8203L268.542 67.0224C268.035 66.4968 267.491 66.0709 266.911 65.7446C266.349 65.4003 265.652 65.2281 264.818 65.2281C264.22 65.2281 263.667 65.355 263.159 65.6087C262.652 65.8443 262.217 66.1706 261.854 66.5874C261.492 67.0043 261.202 67.4937 260.985 68.0555C260.785 68.5993 260.685 69.1883 260.685 69.8227C260.685 70.4751 260.785 71.0823 260.985 71.6442C261.202 72.206 261.501 72.6954 261.882 73.1123C262.262 73.5291 262.715 73.8644 263.241 74.1182C263.767 74.3538 264.347 74.4716 264.981 74.4716C265.76 74.4716 266.44 74.3085 267.02 73.9823C267.618 73.6379 268.18 73.2029 268.706 72.6773L270.69 74.6347ZM287.835 69.8227C287.835 70.8558 287.636 71.8254 287.237 72.7317C286.857 73.6379 286.322 74.4354 285.633 75.1241C284.963 75.7947 284.156 76.3294 283.214 76.7281C282.271 77.1269 281.247 77.3262 280.141 77.3262C279.054 77.3262 278.039 77.1359 277.097 76.7553C276.172 76.3566 275.366 75.8219 274.677 75.1513C274.006 74.4626 273.481 73.6741 273.1 72.786C272.719 71.8798 272.529 70.9101 272.529 69.877C272.529 68.8439 272.719 67.8743 273.1 66.968C273.499 66.0437 274.033 65.2462 274.704 64.5756C275.393 63.8869 276.199 63.3431 277.124 62.9444C278.066 62.5456 279.09 62.3463 280.196 62.3463C281.301 62.3463 282.316 62.5456 283.241 62.9444C284.183 63.325 284.99 63.8597 285.66 64.5484C286.349 65.219 286.884 66.0074 287.264 66.9137C287.645 67.8199 287.835 68.7896 287.835 69.8227ZM284.546 69.877C284.546 69.2427 284.437 68.6446 284.22 68.0827C284.002 67.5208 283.694 67.0315 283.295 66.6146C282.915 66.1796 282.452 65.8443 281.909 65.6087C281.383 65.355 280.794 65.2281 280.141 65.2281C279.489 65.2281 278.891 65.355 278.347 65.6087C277.822 65.8443 277.368 66.1706 276.988 66.5874C276.607 67.0043 276.317 67.4937 276.118 68.0555C275.918 68.5993 275.819 69.1883 275.819 69.8227C275.819 70.457 275.928 71.0642 276.145 71.6442C276.363 72.206 276.662 72.6954 277.042 73.1123C277.441 73.5291 277.903 73.8644 278.429 74.1182C278.972 74.3538 279.561 74.4716 280.196 74.4716C280.866 74.4716 281.465 74.3538 281.99 74.1182C282.534 73.8644 282.996 73.5291 283.377 73.1123C283.757 72.6954 284.047 72.2151 284.247 71.6714C284.446 71.1095 284.546 70.5114 284.546 69.877ZM300.619 70.747V62.6453H303.909V77H300.619V74.7707C300.148 75.4594 299.559 76.0575 298.852 76.565C298.145 77.0544 297.239 77.2991 296.134 77.2991C294.502 77.2991 293.243 76.8006 292.355 75.8038C291.466 74.8069 291.022 73.4657 291.022 71.7801V62.6453H294.312V70.8014C294.312 71.9251 294.575 72.7951 295.1 73.4113C295.644 74.0094 296.405 74.3085 297.384 74.3085C298.345 74.3085 299.124 74.0004 299.722 73.3841C300.32 72.7498 300.619 71.8707 300.619 70.747ZM311.334 68.8983V77H308.045V62.6453H311.334V64.8747C311.57 64.5303 311.824 64.2131 312.095 63.9231C312.385 63.615 312.712 63.3431 313.074 63.1075C313.455 62.8719 313.863 62.6906 314.298 62.5638C314.751 62.4188 315.258 62.3463 315.82 62.3463C317.451 62.3463 318.711 62.8447 319.599 63.8416C320.487 64.8384 320.931 66.1796 320.931 67.8652V77H317.642V68.8439C317.642 67.7202 317.37 66.8593 316.826 66.2612C316.3 65.6449 315.548 65.3368 314.569 65.3368C313.609 65.3368 312.829 65.654 312.231 66.2884C311.633 66.9046 311.334 67.7746 311.334 68.8983ZM328.873 65.4728V72.5142C328.873 73.1485 329.027 73.6107 329.335 73.9007C329.643 74.1726 330.078 74.3085 330.64 74.3085C331.347 74.3085 332.027 74.1454 332.679 73.8191V76.5106C332.262 76.7463 331.818 76.9275 331.347 77.0544C330.876 77.1812 330.332 77.2447 329.716 77.2447C329.118 77.2447 328.565 77.1722 328.057 77.0272C327.55 76.8822 327.106 76.6466 326.725 76.3203C326.363 75.9941 326.082 75.5682 325.882 75.0425C325.683 74.4988 325.583 73.8282 325.583 73.0307V65.4728H323.762V62.6453H325.583V58.7032H328.873V62.6453H332.733V65.4728H328.873ZM40.2567 96.9917C40.4561 98.1698 40.9273 99.076 41.6704 99.7104C42.4135 100.327 43.3198 100.635 44.3891 100.635C45.2047 100.635 45.9116 100.49 46.5097 100.2C47.1078 99.9098 47.6969 99.4838 48.2768 98.922L50.2071 100.635C49.5184 101.45 48.6937 102.103 47.7331 102.592C46.7906 103.082 45.6578 103.326 44.3347 103.326C43.3016 103.326 42.332 103.145 41.4257 102.783C40.5376 102.42 39.7583 101.913 39.0877 101.26C38.4352 100.608 37.9186 99.8282 37.538 98.922C37.1574 97.9976 36.9671 96.9736 36.9671 95.8499C36.9671 94.8168 37.1393 93.8471 37.4836 92.9409C37.828 92.0346 38.3083 91.2462 38.9246 90.5756C39.5589 89.8869 40.302 89.3431 41.1539 88.9444C42.0057 88.5456 42.9482 88.3463 43.9813 88.3463C45.1232 88.3463 46.12 88.5547 46.9719 88.9716C47.8418 89.3884 48.5578 89.9503 49.1196 90.6572C49.6996 91.364 50.1346 92.1887 50.4246 93.1312C50.7146 94.0736 50.8596 95.0614 50.8596 96.0945C50.8596 96.2395 50.8505 96.3845 50.8324 96.5295C50.8324 96.6745 50.8233 96.8286 50.8052 96.9917H40.2567ZM40.2295 94.8168H47.5972C47.5428 94.2911 47.425 93.8018 47.2437 93.3487C47.0625 92.8774 46.8178 92.4787 46.5097 92.1524C46.2016 91.8081 45.83 91.5362 45.395 91.3368C44.9782 91.1375 44.4979 91.0378 43.9541 91.0378C42.9391 91.0378 42.0964 91.3912 41.4257 92.0981C40.7733 92.7868 40.3745 93.693 40.2295 94.8168ZM66.207 103H62.9446V101.233C62.4552 101.813 61.8299 102.302 61.0687 102.701C60.3075 103.1 59.3831 103.299 58.2956 103.299C57.6069 103.299 56.9544 103.199 56.3382 103C55.7219 102.819 55.1782 102.547 54.707 102.184C54.2538 101.804 53.8823 101.342 53.5923 100.798C53.3204 100.236 53.1845 99.5926 53.1845 98.8676V98.8132C53.1845 98.0339 53.3295 97.3542 53.6195 96.7742C53.9095 96.1942 54.3082 95.7139 54.8157 95.3333C55.3413 94.9527 55.9576 94.6718 56.6644 94.4905C57.3894 94.2911 58.1688 94.1915 59.0025 94.1915C59.8725 94.1915 60.6065 94.2458 61.2046 94.3546C61.8209 94.4633 62.4099 94.6083 62.9718 94.7896V94.4361C62.9718 93.4393 62.6637 92.678 62.0474 92.1524C61.4493 91.6268 60.5793 91.364 59.4375 91.364C58.6219 91.364 57.8969 91.4456 57.2625 91.6087C56.6282 91.7718 55.9847 91.9893 55.3323 92.2612L54.4351 89.6241C55.2326 89.2616 56.0482 88.9716 56.8819 88.7541C57.7156 88.5366 58.7216 88.4278 59.8997 88.4278C62.0384 88.4278 63.6243 88.9625 64.6574 90.0319C65.6905 91.0831 66.207 92.5693 66.207 94.4905V103ZM63.0261 97.8073V96.9101C62.6093 96.747 62.1109 96.6111 61.5309 96.5023C60.969 96.3936 60.3709 96.3392 59.7365 96.3392C58.7034 96.3392 57.8969 96.5386 57.3169 96.9373C56.7369 97.3361 56.4469 97.907 56.4469 98.6501V98.7045C56.4469 99.3932 56.7097 99.9188 57.2353 100.281C57.7791 100.644 58.4406 100.825 59.22 100.825C59.7637 100.825 60.2621 100.753 60.7153 100.608C61.1865 100.463 61.5943 100.263 61.9387 100.009C62.283 99.7376 62.5458 99.4204 62.7271 99.0579C62.9265 98.6773 63.0261 98.2604 63.0261 97.8073ZM80.369 98.7588C80.369 99.5201 80.2331 100.182 79.9612 100.743C79.6894 101.305 79.3087 101.777 78.8194 102.157C78.3481 102.52 77.7863 102.801 77.1338 103C76.4813 103.181 75.7835 103.272 75.0404 103.272C74.0073 103.272 72.9561 103.091 71.8867 102.728C70.8355 102.366 69.8568 101.831 68.9505 101.124L70.4186 98.8948C71.198 99.4748 71.9864 99.9188 72.7839 100.227C73.5995 100.517 74.3789 100.662 75.122 100.662C75.8288 100.662 76.3726 100.526 76.7532 100.254C77.1519 99.9641 77.3513 99.5835 77.3513 99.1123V99.0579C77.3513 98.786 77.2607 98.5504 77.0794 98.351C76.9163 98.1517 76.6807 97.9795 76.3726 97.8345C76.0826 97.6714 75.7382 97.5354 75.3395 97.4267C74.9588 97.2998 74.5601 97.1729 74.1432 97.0461C73.6176 96.883 73.083 96.7017 72.5392 96.5023C72.0136 96.303 71.5333 96.0492 71.0983 95.7411C70.6814 95.4149 70.3371 95.0252 70.0652 94.5721C69.7933 94.1008 69.6574 93.5208 69.6574 92.8321V92.7777C69.6574 92.1071 69.7843 91.5 70.038 90.9562C70.3099 90.4125 70.6724 89.9503 71.1255 89.5697C71.5967 89.1891 72.1405 88.8991 72.7567 88.6997C73.3911 88.5003 74.0617 88.4006 74.7685 88.4006C75.6748 88.4006 76.5901 88.5456 77.5144 88.8356C78.4388 89.1256 79.2816 89.5244 80.0428 90.0319L78.7378 92.3699C78.0491 91.9531 77.3513 91.6268 76.6444 91.3912C75.9376 91.1375 75.2851 91.0106 74.687 91.0106C74.0526 91.0106 73.5542 91.1465 73.1917 91.4184C72.8473 91.6903 72.6751 92.0346 72.6751 92.4515V92.5059C72.6751 92.7596 72.7658 92.9862 72.947 93.1855C73.1283 93.3668 73.3639 93.539 73.6539 93.7021C73.962 93.8471 74.3064 93.9921 74.687 94.1371C75.0857 94.264 75.4935 94.3908 75.9104 94.5177C76.436 94.6808 76.9616 94.8711 77.4872 95.0886C78.0128 95.3061 78.4841 95.578 78.9009 95.9042C79.3359 96.2123 79.6894 96.593 79.9612 97.0461C80.2331 97.4992 80.369 98.052 80.369 98.7045V98.7588ZM87.3017 86.4432H83.7674V83.3167H87.3017V86.4432ZM87.1929 103H83.9033V88.6453H87.1929V103ZM94.972 103H91.6824V83.1536H94.972V103ZM112.647 88.6453L106.938 103.408C106.648 104.151 106.349 104.776 106.041 105.284C105.733 105.791 105.388 106.199 105.008 106.507C104.627 106.833 104.21 107.069 103.757 107.214C103.304 107.359 102.787 107.431 102.207 107.431C101.519 107.431 100.902 107.35 100.359 107.187C99.833 107.042 99.3164 106.833 98.809 106.561L99.9236 104.115C100.232 104.278 100.54 104.405 100.848 104.495C101.174 104.604 101.51 104.658 101.854 104.658C102.325 104.658 102.715 104.541 103.023 104.305C103.331 104.069 103.621 103.634 103.893 103L97.9118 88.6453H101.419L105.497 99.3026L109.222 88.6453H112.647ZM138.135 95.8227C138.135 96.8558 137.936 97.8254 137.537 98.7317C137.156 99.6379 136.622 100.435 135.933 101.124C135.262 101.795 134.456 102.329 133.513 102.728C132.571 103.127 131.547 103.326 130.441 103.326C129.354 103.326 128.339 103.136 127.396 102.755C126.472 102.357 125.665 101.822 124.977 101.151C124.306 100.463 123.78 99.6741 123.4 98.786C123.019 97.8798 122.829 96.9101 122.829 95.877C122.829 94.8439 123.019 93.8743 123.4 92.968C123.798 92.0437 124.333 91.2462 125.004 90.5756C125.692 89.8869 126.499 89.3431 127.423 88.9444C128.366 88.5456 129.39 88.3463 130.495 88.3463C131.601 88.3463 132.616 88.5456 133.54 88.9444C134.483 89.325 135.289 89.8597 135.96 90.5484C136.649 91.219 137.183 92.0074 137.564 92.9137C137.945 93.8199 138.135 94.7896 138.135 95.8227ZM134.845 95.877C134.845 95.2427 134.737 94.6446 134.519 94.0827C134.302 93.5208 133.994 93.0315 133.595 92.6146C133.214 92.1796 132.752 91.8443 132.208 91.6087C131.683 91.355 131.094 91.2281 130.441 91.2281C129.789 91.2281 129.19 91.355 128.647 91.6087C128.121 91.8443 127.668 92.1706 127.287 92.5874C126.907 93.0043 126.617 93.4937 126.417 94.0555C126.218 94.5993 126.118 95.1883 126.118 95.8227C126.118 96.457 126.227 97.0642 126.445 97.6442C126.662 98.206 126.961 98.6954 127.342 99.1123C127.741 99.5291 128.203 99.8644 128.728 100.118C129.272 100.354 129.861 100.472 130.495 100.472C131.166 100.472 131.764 100.354 132.29 100.118C132.834 99.8644 133.296 99.5291 133.676 99.1123C134.057 98.6954 134.347 98.2151 134.546 97.6714C134.746 97.1095 134.845 96.5114 134.845 95.877ZM144.775 94.8983V103H141.485V88.6453H144.775V90.8747C145.01 90.5303 145.264 90.2131 145.536 89.9231C145.826 89.615 146.152 89.3431 146.515 89.1075C146.895 88.8719 147.303 88.6906 147.738 88.5638C148.191 88.4188 148.699 88.3463 149.261 88.3463C150.892 88.3463 152.151 88.8447 153.04 89.8416C153.928 90.8384 154.372 92.1796 154.372 93.8652V103H151.082V94.8439C151.082 93.7202 150.81 92.8593 150.266 92.2612C149.741 91.6449 148.989 91.3368 148.01 91.3368C147.049 91.3368 146.27 91.654 145.672 92.2884C145.074 92.9046 144.775 93.7746 144.775 94.8983ZM173.564 98.0792L178.24 83.9148H181.067L185.743 98.0792L190.283 83.9692H193.791L187.157 103.136H184.275L179.599 89.4609L174.923 103.136H172.041L165.407 83.9692H169.023L173.564 98.0792ZM200.131 94.8983V103H196.841V83.1536H200.131V90.8747C200.366 90.5303 200.62 90.2131 200.892 89.9231C201.182 89.615 201.508 89.3431 201.871 89.1075C202.251 88.8719 202.659 88.6906 203.094 88.5638C203.547 88.4188 204.055 88.3463 204.617 88.3463C206.248 88.3463 207.508 88.8447 208.396 89.8416C209.284 90.8384 209.728 92.1796 209.728 93.8652V103H206.438V94.8439C206.438 93.7202 206.166 92.8593 205.623 92.2612C205.097 91.6449 204.345 91.3368 203.366 91.3368C202.405 91.3368 201.626 91.654 201.028 92.2884C200.43 92.9046 200.131 93.7746 200.131 94.8983ZM225.744 103H222.482V101.233C221.992 101.813 221.367 102.302 220.606 102.701C219.845 103.1 218.92 103.299 217.833 103.299C217.144 103.299 216.491 103.199 215.875 103C215.259 102.819 214.715 102.547 214.244 102.184C213.791 101.804 213.419 101.342 213.129 100.798C212.857 100.236 212.722 99.5926 212.722 98.8676V98.8132C212.722 98.0339 212.867 97.3542 213.157 96.7742C213.447 96.1942 213.845 95.7139 214.353 95.3333C214.878 94.9527 215.495 94.6718 216.201 94.4905C216.926 94.2911 217.706 94.1915 218.54 94.1915C219.41 94.1915 220.144 94.2458 220.742 94.3546C221.358 94.4633 221.947 94.6083 222.509 94.7896V94.4361C222.509 93.4393 222.201 92.678 221.584 92.1524C220.986 91.6268 220.116 91.364 218.975 91.364C218.159 91.364 217.434 91.4456 216.8 91.6087C216.165 91.7718 215.522 91.9893 214.869 92.2612L213.972 89.6241C214.77 89.2616 215.585 88.9716 216.419 88.7541C217.253 88.5366 218.259 88.4278 219.437 88.4278C221.575 88.4278 223.161 88.9625 224.194 90.0319C225.228 91.0831 225.744 92.5693 225.744 94.4905V103ZM222.563 97.8073V96.9101C222.146 96.747 221.648 96.6111 221.068 96.5023C220.506 96.3936 219.908 96.3392 219.274 96.3392C218.24 96.3392 217.434 96.5386 216.854 96.9373C216.274 97.3361 215.984 97.907 215.984 98.6501V98.7045C215.984 99.3932 216.247 99.9188 216.772 100.281C217.316 100.644 217.978 100.825 218.757 100.825C219.301 100.825 219.799 100.753 220.252 100.608C220.724 100.463 221.131 100.263 221.476 100.009C221.82 99.7376 222.083 99.4204 222.264 99.0579C222.464 98.6773 222.563 98.2604 222.563 97.8073ZM233.493 91.4728V98.5142C233.493 99.1485 233.647 99.6107 233.955 99.9007C234.263 100.173 234.698 100.308 235.26 100.308C235.967 100.308 236.647 100.145 237.299 99.8191V102.511C236.882 102.746 236.438 102.928 235.967 103.054C235.496 103.181 234.952 103.245 234.336 103.245C233.738 103.245 233.185 103.172 232.678 103.027C232.17 102.882 231.726 102.647 231.345 102.32C230.983 101.994 230.702 101.568 230.503 101.043C230.303 100.499 230.204 99.8282 230.204 99.0307V91.4728H228.382V88.6453H230.204V84.7032H233.493V88.6453H237.354V91.4728H233.493ZM250.924 98.7588C250.924 99.5201 250.788 100.182 250.516 100.743C250.245 101.305 249.864 101.777 249.375 102.157C248.903 102.52 248.341 102.801 247.689 103C247.036 103.181 246.339 103.272 245.596 103.272C244.562 103.272 243.511 103.091 242.442 102.728C241.391 102.366 240.412 101.831 239.506 101.124L240.974 98.8948C241.753 99.4748 242.542 99.9188 243.339 100.227C244.155 100.517 244.934 100.662 245.677 100.662C246.384 100.662 246.928 100.526 247.308 100.254C247.707 99.9641 247.906 99.5835 247.906 99.1123V99.0579C247.906 98.786 247.816 98.5504 247.635 98.351C247.471 98.1517 247.236 97.9795 246.928 97.8345C246.638 97.6714 246.293 97.5354 245.895 97.4267C245.514 97.2998 245.115 97.1729 244.698 97.0461C244.173 96.883 243.638 96.7017 243.094 96.5023C242.569 96.303 242.088 96.0492 241.653 95.7411C241.237 95.4149 240.892 95.0252 240.62 94.5721C240.348 94.1008 240.213 93.5208 240.213 92.8321V92.7777C240.213 92.1071 240.339 91.5 240.593 90.9562C240.865 90.4125 241.228 89.9503 241.681 89.5697C242.152 89.1891 242.696 88.8991 243.312 88.6997C243.946 88.5003 244.617 88.4006 245.324 88.4006C246.23 88.4006 247.145 88.5456 248.07 88.8356C248.994 89.1256 249.837 89.5244 250.598 90.0319L249.293 92.3699C248.604 91.9531 247.906 91.6268 247.2 91.3912C246.493 91.1375 245.84 91.0106 245.242 91.0106C244.608 91.0106 244.109 91.1465 243.747 91.4184C243.402 91.6903 243.23 92.0346 243.23 92.4515V92.5059C243.23 92.7596 243.321 92.9862 243.502 93.1855C243.683 93.3668 243.919 93.539 244.209 93.7021C244.517 93.8471 244.862 93.9921 245.242 94.1371C245.641 94.264 246.049 94.3908 246.466 94.5177C246.991 94.6808 247.517 94.8711 248.042 95.0886C248.568 95.3061 249.039 95.578 249.456 95.9042C249.891 96.2123 250.245 96.593 250.516 97.0461C250.788 97.4992 250.924 98.052 250.924 98.7045V98.7588ZM264.49 83.8333L272.864 103H269.33L267.399 98.4054H258.401L256.443 103H253.018L261.391 83.8333H264.49ZM266.176 95.442L262.886 87.8297L259.624 95.442H266.176ZM290.591 95.8227C290.591 97.0189 290.401 98.0792 290.02 99.0035C289.657 99.9279 289.159 100.716 288.525 101.369C287.908 102.003 287.193 102.483 286.377 102.81C285.579 103.136 284.755 103.299 283.903 103.299C282.725 103.299 281.746 103.045 280.967 102.538C280.187 102.03 279.544 101.441 279.036 100.771V107.35H275.747V88.6453H279.036V91.0378C279.562 90.2765 280.215 89.6422 280.994 89.1347C281.773 88.6091 282.743 88.3463 283.903 88.3463C284.755 88.3463 285.579 88.5094 286.377 88.8356C287.174 89.1619 287.881 89.6512 288.498 90.3037C289.132 90.9381 289.639 91.7174 290.02 92.6418C290.401 93.5662 290.591 94.6264 290.591 95.8227ZM287.247 95.8227C287.247 95.1158 287.138 94.4814 286.921 93.9196C286.703 93.3396 286.404 92.8502 286.024 92.4515C285.661 92.0528 285.226 91.7446 284.719 91.5271C284.229 91.3096 283.704 91.2009 283.142 91.2009C282.58 91.2009 282.045 91.3096 281.538 91.5271C281.03 91.7446 280.586 92.0618 280.206 92.4787C279.825 92.8774 279.517 93.3577 279.281 93.9196C279.064 94.4814 278.955 95.1158 278.955 95.8227C278.955 96.5295 279.064 97.1639 279.281 97.7257C279.517 98.2876 279.825 98.777 280.206 99.1938C280.586 99.5926 281.03 99.9007 281.538 100.118C282.045 100.336 282.58 100.444 283.142 100.444C283.704 100.444 284.229 100.336 284.719 100.118C285.226 99.9007 285.661 99.5926 286.024 99.1938C286.404 98.7951 286.703 98.3148 286.921 97.7529C287.138 97.1729 287.247 96.5295 287.247 95.8227ZM308.804 95.8227C308.804 97.0189 308.614 98.0792 308.233 99.0035C307.871 99.9279 307.372 100.716 306.738 101.369C306.122 102.003 305.406 102.483 304.59 102.81C303.793 103.136 302.968 103.299 302.116 103.299C300.938 103.299 299.959 103.045 299.18 102.538C298.4 102.03 297.757 101.441 297.25 100.771V107.35H293.96V88.6453H297.25V91.0378C297.775 90.2765 298.428 89.6422 299.207 89.1347C299.986 88.6091 300.956 88.3463 302.116 88.3463C302.968 88.3463 303.793 88.5094 304.59 88.8356C305.387 89.1619 306.094 89.6512 306.711 90.3037C307.345 90.9381 307.852 91.7174 308.233 92.6418C308.614 93.5662 308.804 94.6264 308.804 95.8227ZM305.46 95.8227C305.46 95.1158 305.351 94.4814 305.134 93.9196C304.916 93.3396 304.617 92.8502 304.237 92.4515C303.874 92.0528 303.439 91.7446 302.932 91.5271C302.442 91.3096 301.917 91.2009 301.355 91.2009C300.793 91.2009 300.258 91.3096 299.751 91.5271C299.243 91.7446 298.799 92.0618 298.419 92.4787C298.038 92.8774 297.73 93.3577 297.494 93.9196C297.277 94.4814 297.168 95.1158 297.168 95.8227C297.168 96.5295 297.277 97.1639 297.494 97.7257C297.73 98.2876 298.038 98.777 298.419 99.1938C298.799 99.5926 299.243 99.9007 299.751 100.118C300.258 100.336 300.793 100.444 301.355 100.444C301.917 100.444 302.442 100.336 302.932 100.118C303.439 99.9007 303.874 99.5926 304.237 99.1938C304.617 98.7951 304.916 98.3148 305.134 97.7529C305.351 97.1729 305.46 96.5295 305.46 95.8227ZM312.282 83.9692H316.142V84.9207L315.136 96.9917H313.315L312.282 84.9207V83.9692ZM316.034 103H312.418V99.2754H316.034V103Z" fill="white"/>
<rect class="button" x="56.6714" y="149.728" width="277.328" height="40.1095" rx="6.87591" fill="url(#paint0_linear_5659_105089)"/>
<g   filter="url(#filter0_d_5659_105089)">
<path fill-rule="evenodd" clip-rule="evenodd" d="M65.1018 149.669C60.1396 144.728 53.5359 142 46.503 142C32.0078 142 20.2273 153.742 20.2146 168.163C20.2146 172.777 21.4268 177.278 23.7248 181.238L20 194.803L33.9396 191.17C37.7781 193.257 42.0963 194.351 46.503 194.351H46.5156C60.9982 194.351 72.7913 182.608 72.8039 168.188C72.8039 161.185 70.064 154.61 65.1018 149.669Z" fill="#42E55F"/>
<path fill-rule="evenodd" clip-rule="evenodd" d="M65.1018 149.669C60.1396 144.728 53.5359 142 46.503 142C32.0078 142 20.2273 153.742 20.2146 168.163C20.2146 172.777 21.4268 177.278 23.7248 181.238L20 194.803L33.9396 191.17C37.7781 193.257 42.0963 194.351 46.503 194.351H46.5156C60.9982 194.351 72.7913 182.608 72.8039 168.188C72.8039 161.185 70.064 154.61 65.1018 149.669ZM46.5156 189.925C42.5888 189.925 38.7377 188.869 35.3917 186.895L34.5962 186.43L26.3259 188.593L28.5355 180.572L28.0178 179.754C25.8334 176.297 24.6718 172.286 24.6718 168.175C24.6718 156.181 34.4826 146.425 46.5282 146.425C52.3617 146.425 57.8542 148.688 61.9704 152.8C66.0993 156.911 68.372 162.38 68.3594 168.188C68.3468 180.169 58.5486 189.925 46.5156 189.925ZM58.4981 173.644C57.8416 173.317 54.6092 171.733 54.0157 171.52C53.4097 171.306 52.9804 171.193 52.5384 171.846C52.0965 172.5 50.8465 173.971 50.4551 174.411C50.0763 174.851 49.6848 174.902 49.0283 174.575C48.3717 174.248 46.2504 173.556 43.7504 171.331C41.7933 169.596 40.4801 167.459 40.1014 166.805C39.7226 166.151 40.0635 165.799 40.3918 165.472C40.6822 165.183 41.0483 164.705 41.3766 164.328C41.7049 163.951 41.8186 163.675 42.0332 163.234C42.2479 162.794 42.1468 162.417 41.9827 162.09C41.8186 161.764 40.5054 158.545 39.9625 157.238C39.4321 155.968 38.8892 156.131 38.4852 156.119C38.1064 156.093 37.6644 156.093 37.2225 156.093C36.7806 156.093 36.0735 156.257 35.4674 156.911C34.8614 157.564 33.1694 159.149 33.1694 162.367C33.1694 165.586 35.5179 168.691 35.8462 169.131C36.1745 169.571 40.4801 176.171 47.0712 179C48.6369 179.679 49.8616 180.081 50.8212 180.383C52.3995 180.886 53.8263 180.81 54.9627 180.647C56.2254 180.458 58.8517 179.063 59.3946 177.542C59.9375 176.02 59.9375 174.7 59.7734 174.436C59.584 174.135 59.1547 173.971 58.4981 173.644Z" fill="white"/>
</g>
<path d="M136.944 161.6V163.904H128.756V167.833H136.018V170.137H128.756V176H126.226V161.6H136.944ZM150.122 170.569C150.122 171.351 149.971 172.084 149.669 172.77C149.381 173.456 148.977 174.059 148.456 174.581C147.948 175.088 147.338 175.493 146.625 175.794C145.912 176.096 145.137 176.247 144.3 176.247C143.477 176.247 142.709 176.103 141.996 175.815C141.297 175.513 140.686 175.109 140.165 174.601C139.658 174.08 139.26 173.483 138.972 172.811C138.684 172.126 138.54 171.392 138.54 170.61C138.54 169.828 138.684 169.095 138.972 168.409C139.274 167.709 139.678 167.106 140.186 166.599C140.707 166.077 141.317 165.666 142.017 165.364C142.73 165.063 143.505 164.912 144.341 164.912C145.178 164.912 145.946 165.063 146.645 165.364C147.359 165.652 147.969 166.057 148.476 166.578C148.997 167.085 149.402 167.682 149.69 168.368C149.978 169.054 150.122 169.787 150.122 170.569ZM147.633 170.61C147.633 170.13 147.551 169.678 147.386 169.252C147.221 168.827 146.988 168.457 146.687 168.141C146.399 167.812 146.049 167.559 145.637 167.38C145.24 167.188 144.794 167.092 144.3 167.092C143.806 167.092 143.354 167.188 142.942 167.38C142.545 167.559 142.202 167.805 141.914 168.121C141.626 168.436 141.406 168.807 141.255 169.232C141.105 169.643 141.029 170.089 141.029 170.569C141.029 171.049 141.111 171.508 141.276 171.947C141.441 172.372 141.667 172.743 141.955 173.058C142.257 173.374 142.606 173.627 143.004 173.819C143.416 173.998 143.861 174.087 144.341 174.087C144.849 174.087 145.301 173.998 145.699 173.819C146.11 173.627 146.46 173.374 146.748 173.058C147.036 172.743 147.256 172.379 147.407 171.968C147.557 171.543 147.633 171.09 147.633 170.61ZM155.146 171.865V176H152.657V165.138H155.146V167.586C155.489 166.763 155.976 166.105 156.607 165.611C157.238 165.117 158.033 164.891 158.993 164.932V167.565H158.849C158.301 167.565 157.8 167.655 157.347 167.833C156.895 168.011 156.504 168.279 156.175 168.635C155.846 168.992 155.592 169.444 155.414 169.993C155.235 170.528 155.146 171.152 155.146 171.865ZM167.755 161.6H170.285V176H167.755V161.6ZM176.341 169.87V176H173.852V165.138H176.341V166.825C176.519 166.564 176.711 166.324 176.917 166.105C177.137 165.872 177.383 165.666 177.658 165.488C177.946 165.309 178.254 165.172 178.583 165.076C178.926 164.967 179.31 164.912 179.735 164.912C180.97 164.912 181.923 165.289 182.595 166.043C183.267 166.797 183.603 167.812 183.603 169.088V176H181.114V169.828C181.114 168.978 180.908 168.327 180.497 167.874C180.099 167.408 179.53 167.175 178.789 167.175C178.062 167.175 177.473 167.415 177.02 167.895C176.567 168.361 176.341 169.019 176.341 169.87ZM194.365 172.791C194.365 173.367 194.262 173.867 194.056 174.293C193.85 174.718 193.562 175.074 193.192 175.362C192.835 175.637 192.41 175.849 191.917 176C191.423 176.137 190.895 176.206 190.332 176.206C189.551 176.206 188.755 176.069 187.946 175.794C187.151 175.52 186.41 175.115 185.724 174.581L186.835 172.894C187.425 173.332 188.022 173.669 188.625 173.902C189.242 174.121 189.832 174.231 190.394 174.231C190.929 174.231 191.341 174.128 191.629 173.922C191.93 173.703 192.081 173.415 192.081 173.058V173.017C192.081 172.811 192.013 172.633 191.875 172.482C191.752 172.331 191.574 172.201 191.341 172.091C191.121 171.968 190.86 171.865 190.559 171.783C190.271 171.687 189.969 171.591 189.654 171.495C189.256 171.371 188.851 171.234 188.44 171.083C188.042 170.932 187.679 170.74 187.35 170.507C187.034 170.26 186.774 169.966 186.568 169.623C186.362 169.266 186.259 168.827 186.259 168.306V168.265C186.259 167.757 186.355 167.298 186.547 166.887C186.753 166.475 187.027 166.125 187.37 165.837C187.727 165.549 188.138 165.33 188.604 165.179C189.084 165.028 189.592 164.953 190.127 164.953C190.812 164.953 191.505 165.063 192.205 165.282C192.904 165.501 193.542 165.803 194.118 166.187L193.13 167.956C192.609 167.641 192.081 167.394 191.546 167.216C191.011 167.024 190.518 166.928 190.065 166.928C189.585 166.928 189.208 167.031 188.934 167.236C188.673 167.442 188.543 167.703 188.543 168.018V168.059C188.543 168.251 188.611 168.423 188.748 168.573C188.886 168.711 189.064 168.841 189.283 168.964C189.516 169.074 189.777 169.184 190.065 169.294C190.367 169.39 190.675 169.486 190.991 169.582C191.389 169.705 191.786 169.849 192.184 170.014C192.582 170.178 192.938 170.384 193.254 170.631C193.583 170.864 193.85 171.152 194.056 171.495C194.262 171.838 194.365 172.256 194.365 172.75V172.791ZM199.698 167.277V172.606C199.698 173.086 199.814 173.435 200.047 173.655C200.28 173.861 200.61 173.963 201.035 173.963C201.57 173.963 202.084 173.84 202.578 173.593V175.63C202.262 175.808 201.926 175.945 201.57 176.041C201.213 176.137 200.802 176.185 200.335 176.185C199.883 176.185 199.464 176.13 199.08 176.021C198.696 175.911 198.36 175.733 198.072 175.486C197.798 175.239 197.586 174.917 197.435 174.519C197.284 174.107 197.208 173.6 197.208 172.996V167.277H195.83V165.138H197.208V162.155H199.698V165.138H202.619V167.277H199.698ZM214.245 176H211.777V174.663C211.406 175.102 210.933 175.472 210.357 175.774C209.781 176.075 209.082 176.226 208.259 176.226C207.738 176.226 207.244 176.151 206.778 176C206.311 175.863 205.9 175.657 205.543 175.383C205.2 175.095 204.919 174.745 204.7 174.334C204.494 173.909 204.391 173.422 204.391 172.873V172.832C204.391 172.242 204.501 171.728 204.72 171.289C204.94 170.85 205.242 170.487 205.626 170.199C206.023 169.911 206.49 169.698 207.024 169.561C207.573 169.41 208.163 169.335 208.794 169.335C209.452 169.335 210.007 169.376 210.46 169.458C210.926 169.54 211.372 169.65 211.797 169.787V169.52C211.797 168.766 211.564 168.189 211.098 167.792C210.645 167.394 209.987 167.195 209.123 167.195C208.506 167.195 207.957 167.257 207.477 167.38C206.997 167.504 206.51 167.668 206.016 167.874L205.338 165.879C205.941 165.604 206.558 165.385 207.189 165.22C207.82 165.056 208.581 164.973 209.473 164.973C211.091 164.973 212.291 165.378 213.073 166.187C213.854 166.983 214.245 168.107 214.245 169.561V176ZM211.838 172.071V171.392C211.523 171.268 211.146 171.166 210.707 171.083C210.282 171.001 209.829 170.96 209.349 170.96C208.567 170.96 207.957 171.111 207.518 171.412C207.079 171.714 206.86 172.146 206.86 172.708V172.75C206.86 173.271 207.059 173.669 207.456 173.943C207.868 174.217 208.368 174.354 208.958 174.354C209.37 174.354 209.747 174.299 210.09 174.19C210.446 174.08 210.755 173.929 211.015 173.737C211.276 173.531 211.475 173.291 211.612 173.017C211.763 172.729 211.838 172.414 211.838 172.071ZM219.695 169.87V176H217.206V165.138H219.695V166.825C219.873 166.564 220.065 166.324 220.271 166.105C220.49 165.872 220.737 165.666 221.012 165.488C221.3 165.309 221.608 165.172 221.937 165.076C222.28 164.967 222.664 164.912 223.089 164.912C224.324 164.912 225.277 165.289 225.949 166.043C226.621 166.797 226.957 167.812 226.957 169.088V176H224.468V169.828C224.468 168.978 224.262 168.327 223.851 167.874C223.453 167.408 222.884 167.175 222.143 167.175C221.416 167.175 220.826 167.415 220.374 167.895C219.921 168.361 219.695 169.019 219.695 169.87ZM232.966 167.277V172.606C232.966 173.086 233.083 173.435 233.316 173.655C233.549 173.861 233.878 173.963 234.304 173.963C234.838 173.963 235.353 173.84 235.846 173.593V175.63C235.531 175.808 235.195 175.945 234.838 176.041C234.482 176.137 234.07 176.185 233.604 176.185C233.152 176.185 232.733 176.13 232.349 176.021C231.965 175.911 231.629 175.733 231.341 175.486C231.067 175.239 230.854 174.917 230.703 174.519C230.553 174.107 230.477 173.6 230.477 172.996V167.277H229.099V165.138H230.477V162.155H232.966V165.138H235.888V167.277H232.966ZM245 161.6H247.531V176H245V161.6ZM264.408 168.779C264.408 169.794 264.222 170.747 263.852 171.639C263.482 172.516 262.954 173.278 262.268 173.922C261.596 174.567 260.787 175.074 259.841 175.445C258.908 175.815 257.879 176 256.755 176H251.385V161.6H256.755C257.879 161.6 258.908 161.785 259.841 162.155C260.787 162.512 261.596 163.012 262.268 163.657C262.954 164.301 263.482 165.063 263.852 165.94C264.222 166.818 264.408 167.764 264.408 168.779ZM261.754 168.82C261.754 168.107 261.63 167.456 261.383 166.866C261.15 166.263 260.814 165.741 260.375 165.303C259.95 164.864 259.429 164.521 258.812 164.274C258.195 164.027 257.509 163.904 256.755 163.904H253.916V173.696H256.755C257.509 173.696 258.195 173.579 258.812 173.346C259.429 173.099 259.95 172.763 260.375 172.338C260.814 171.899 261.15 171.385 261.383 170.795C261.63 170.192 261.754 169.534 261.754 168.82Z" fill="#1A1A1A"/>
<defs>
<filter id="filter0_d_5659_105089" x="20" y="138.562" width="61.9716" height="61.9711" filterUnits="userSpaceOnUse" color-interpolation-filters="sRGB">
<feFlood flood-opacity="0" result="BackgroundImageFix"/>
<feColorMatrix in="SourceAlpha" type="matrix" values="0 0 0 0 0 0 0 0 0 0 0 0 0 0 0 0 0 0 127 0" result="hardAlpha"/>
<feOffset dx="4.58394" dy="1.14599"/>
<feGaussianBlur stdDeviation="2.29197"/>
<feComposite in2="hardAlpha" operator="out"/>
<feColorMatrix type="matrix" values="0 0 0 0 0 0 0 0 0 0 0 0 0 0 0 0 0 0 0.25 0"/>
<feBlend mode="normal" in2="BackgroundImageFix" result="effect1_dropShadow_5659_105089"/>
<feBlend mode="normal" in="SourceGraphic" in2="effect1_dropShadow_5659_105089" result="shape"/>
</filter>
<linearGradient id="paint0_linear_5659_105089" x1="195.346" y1="189.841" x2="195.346" y2="149.728" gradientUnits="userSpaceOnUse">
<stop stop-color="#25CF43"/>
<stop offset="1" stop-color="#61FD7D"/>
</linearGradient>
</defs>
</svg>
