<svg width="13" height="16" viewBox="0 0 13 16" fill="none" xmlns="http://www.w3.org/2000/svg">
<g clip-path="url(#clip0_6494_109437)">
<path d="M10.1188 7.73318C10.9308 7.76212 11.818 7.73318 12.7955 7.66086C12.6601 5.76591 12.0135 4.1892 11.0511 2.97412C11.0962 3.30682 11.1263 3.65399 11.1263 4.00115C11.1113 5.36089 10.7504 6.63383 10.1188 7.73318Z" fill="white"/>
<path d="M9.77291 8.28271C8.32931 10.3657 5.86314 11.7399 3.06615 11.7399C2.87066 11.7399 2.67517 11.7254 2.47968 11.711C1.75788 12.7669 1.30675 13.9386 0.795471 15.038C5.81803 17.6128 12.2992 14.8933 12.7955 8.32611C11.6677 8.25378 10.6752 8.23932 9.77291 8.28271Z" fill="white"/>
<path d="M0.795471 0.96338C2.19397 3.98662 3.23156 7.5306 10.1188 7.74758C10.7504 6.63375 11.1263 5.36081 11.1263 4.00108C11.1263 3.65391 11.0962 3.32121 11.0511 2.97405C8.67517 -0.0202559 4.35938 -0.873705 0.795471 0.96338Z" fill="#E2E2E2"/>
<path d="M9.77291 8.28271C5.63757 8.48523 3.68268 9.93175 2.47968 11.7254C2.67516 11.7399 2.87065 11.7544 3.06614 11.7544C5.86313 11.7399 8.3293 10.3657 9.77291 8.28271Z" fill="#E2E2E2"/>
</g>
<defs>
<clipPath id="clip0_6494_109437">
<rect width="12" height="16" fill="white" transform="translate(0.795471)"/>
</clipPath>
</defs>
</svg>
