<svg width="23" height="19" viewBox="0 0 23 19" fill="none" xmlns="http://www.w3.org/2000/svg">
<g clip-path="url(#clip0_6024_107950)">
<path d="M11.365 0.00829267C14.1896 0.00829267 17.0142 0.00290921 19.8388 0.00829267C21.2938 0.0136762 22.25 0.729679 22.573 2.00826C22.6376 2.26667 22.6402 2.52777 22.6402 2.78888C22.6402 6.29083 22.6428 9.79549 22.6402 13.2974C22.6402 14.9771 21.6426 16.0134 20.0352 16.0215C19.2109 16.0242 18.3864 16.0377 17.5646 16.0161C17.2003 16.008 17.0762 16.148 17.0323 16.5222C16.8592 18.0214 16.2673 18.5409 14.7995 18.5409C12.4297 18.5409 10.0573 18.5409 7.68758 18.5409C6.45489 18.5409 5.72868 17.8545 5.66149 16.5733C5.63823 16.1318 5.49353 16.0054 5.09039 16.0161C4.19882 16.0403 3.30724 16.0323 2.41826 16.0161C1.17522 15.9945 0.164763 15.0174 0.0820664 13.7227C-0.0574844 11.537 0.0355594 9.34593 0.0278066 7.15757C0.0200538 5.63404 -0.0497153 4.10782 0.0665769 2.58968C0.193206 0.928869 1.16746 0.0136735 2.79297 0.00559826C5.65118 -0.00516872 8.50937 0.00290813 11.3676 0.00290813L11.365 0.00829267ZM12.086 9.25986C12.086 8.73496 12.0809 8.21005 12.0886 7.68515C12.0886 7.53442 12.024 7.32715 12.1791 7.25448C12.3703 7.16296 12.4633 7.38637 12.5822 7.49405C12.7579 7.65555 12.9104 7.84666 13.0887 8.00548C13.4505 8.32844 13.8304 8.32844 14.1276 8.02163C14.3937 7.74707 14.4144 7.24102 14.1224 6.92609C13.3859 6.13471 12.6364 5.35679 11.8766 4.58696C11.5511 4.25857 11.1634 4.2451 10.8378 4.5735C10.0625 5.34872 9.30017 6.1401 8.55592 6.94762C8.2225 7.30831 8.25351 7.704 8.56623 8.01893C8.8738 8.3258 9.24584 8.32844 9.60512 8.00817C9.79633 7.8359 9.96178 7.6367 10.1478 7.45905C10.2538 7.35945 10.3391 7.16296 10.5122 7.24909C10.675 7.32984 10.6155 7.52904 10.6155 7.67708C10.6208 8.7457 10.613 9.8116 10.6259 10.8802C10.6311 11.4186 10.9438 11.7551 11.3753 11.7416C11.7888 11.7255 12.0731 11.3971 12.0834 10.8883C12.0963 10.3473 12.086 9.80359 12.086 9.25986ZM11.3624 16.7886C12.5046 16.7886 13.6469 16.7886 14.7892 16.7886C15.0502 16.7886 15.3009 16.7994 15.3138 16.4064C15.3266 15.9892 15.0579 16.0296 14.8046 16.0296C12.5202 16.0296 10.2383 16.0296 7.9538 16.0323C7.7212 16.0323 7.41882 15.9408 7.40331 16.366C7.38781 16.8344 7.70048 16.7913 7.98734 16.7913C9.11149 16.7913 10.2383 16.7913 11.3624 16.7913V16.7886Z" fill="url(#paint0_linear_6024_107950)"/>
</g>
<defs>
<linearGradient id="paint0_linear_6024_107950" x1="2.23239e-08" y1="9.27051" x2="22.6414" y2="9.27051" gradientUnits="userSpaceOnUse">
<stop stop-color="#F2D71A"/>
<stop offset="1" stop-color="#ECB024"/>
</linearGradient>
<clipPath id="clip0_6024_107950">
<rect width="23" height="19" fill="white"/>
</clipPath>
</defs>
</svg>
