<svg width="25" height="22" viewBox="0 0 25 22" fill="none" xmlns="http://www.w3.org/2000/svg">
<path d="M3.99555 11.8748H17.5542C18.2005 11.8748 18.7245 11.3509 18.7245 10.7045C18.7245 10.0582 18.2005 9.53425 17.5542 9.53425H3.99555L5.50867 8.02113C5.96571 7.56409 5.96571 6.82314 5.50867 6.3661C5.0517 5.90906 4.31067 5.90906 3.85363 6.3661L0.342897 9.87691C0.315512 9.90429 0.289609 9.93301 0.265111 9.96296C0.254423 9.97599 0.245138 9.9898 0.235074 10.0031C0.2222 10.0203 0.208937 10.0371 0.197 10.055C0.186077 10.0713 0.176637 10.0882 0.16665 10.1049C0.157054 10.121 0.146989 10.1366 0.138173 10.1532C0.128967 10.1703 0.121243 10.188 0.112973 10.2055C0.104859 10.2225 0.0963544 10.2394 0.0890986 10.2569C0.0820768 10.274 0.0763034 10.2914 0.0701398 10.3087C0.0633521 10.3274 0.0561743 10.3459 0.0504008 10.365C0.0451735 10.3823 0.0413505 10.3999 0.0369814 10.4174C0.0320661 10.4369 0.0266048 10.4562 0.0227038 10.476C0.0187248 10.4962 0.0163061 10.5167 0.0134194 10.537C0.0109228 10.5544 0.00756792 10.5716 0.00585148 10.5892C0.00210653 10.627 0.00015604 10.665 7.80198e-05 10.7029C7.80198e-05 10.7035 0 10.7041 0 10.7046C0 10.7052 7.80198e-05 10.7058 7.80198e-05 10.7063C0.00015604 10.7443 0.00210653 10.7823 0.00585148 10.8201C0.00756792 10.8375 0.0108448 10.8544 0.0132634 10.8717C0.0162281 10.8923 0.0186467 10.9129 0.0227038 10.9333C0.0266048 10.953 0.0319881 10.972 0.0369034 10.9913C0.0413505 11.009 0.0452515 11.0268 0.0505568 11.0444C0.0562523 11.0632 0.0633521 11.0814 0.0699057 11.0998C0.0762253 11.1174 0.0819988 11.1351 0.0891766 11.1525C0.0962764 11.1696 0.104625 11.1861 0.112583 11.2029C0.121009 11.2207 0.128967 11.2387 0.138329 11.2563C0.146911 11.2723 0.156664 11.2875 0.165948 11.303C0.176169 11.3203 0.185921 11.3377 0.197156 11.3544C0.208547 11.3715 0.221264 11.3875 0.233513 11.404C0.244124 11.4181 0.253954 11.4327 0.265267 11.4464C0.288595 11.4748 0.313328 11.5021 0.339152 11.5282C0.3404 11.5294 0.341415 11.5309 0.342663 11.5321L3.85355 15.0431C4.08215 15.2716 4.38159 15.3859 4.68111 15.3859C4.98055 15.3858 5.28015 15.2716 5.50859 15.0431C5.96563 14.5861 5.96563 13.8452 5.50867 13.3881L3.99555 11.8748Z" fill="url(#paint0_linear_5112_115016)"/>
<path d="M23.7968 0.172363H8.97303C8.32672 0.172363 7.80273 0.696344 7.80273 1.34266V6.02385C7.80273 6.67016 8.32672 7.19415 8.97303 7.19415C9.61935 7.19415 10.1433 6.67016 10.1433 6.02385V2.51296H22.6265V18.8972H10.1433V15.3862C10.1433 14.7399 9.61935 14.2159 8.97303 14.2159C8.32672 14.2159 7.80273 14.7399 7.80273 15.3862V20.0675C7.80273 20.7138 8.32672 21.2378 8.97303 21.2378H23.7968C24.4431 21.2378 24.9671 20.7138 24.9671 20.0675V1.34266C24.9671 0.696344 24.4431 0.172363 23.7968 0.172363Z" fill="url(#paint1_linear_5112_115016)"/>
<defs>
<linearGradient id="paint0_linear_5112_115016" x1="0" y1="10.7046" x2="18.7246" y2="10.7046" gradientUnits="userSpaceOnUse">
<stop stop-color="#F2D71A"/>
<stop offset="1" stop-color="#ECB024"/>
</linearGradient>
<linearGradient id="paint1_linear_5112_115016" x1="7.80273" y1="10.7051" x2="24.9671" y2="10.7051" gradientUnits="userSpaceOnUse">
<stop stop-color="#F2D71A"/>
<stop offset="1" stop-color="#ECB024"/>
</linearGradient>
</defs>
</svg>
