<svg width="25" height="22" viewBox="0 0 25 22" fill="none" xmlns="http://www.w3.org/2000/svg">
<path d="M14.7289 9.53434L1.17027 9.53434C0.523952 9.53434 -2.9176e-05 10.0583 -2.92325e-05 10.7046C-2.9289e-05 11.351 0.523952 11.8749 1.17027 11.8749L14.7289 11.8749L13.2158 13.388C12.7588 13.8451 12.7588 14.586 13.2158 15.0431C13.6728 15.5001 14.4138 15.5001 14.8709 15.0431L18.3816 11.5323C18.409 11.5049 18.4349 11.4762 18.4594 11.4462C18.4701 11.4332 18.4793 11.4194 18.4894 11.406C18.5023 11.3889 18.5156 11.3721 18.5275 11.3542C18.5384 11.3379 18.5479 11.321 18.5578 11.3043C18.5674 11.2882 18.5775 11.2725 18.5863 11.256C18.5955 11.2388 18.6032 11.2212 18.6115 11.2037C18.6196 11.1866 18.6281 11.1698 18.6354 11.1523C18.6424 11.1352 18.6482 11.1178 18.6543 11.1005C18.6611 11.0818 18.6683 11.0633 18.6741 11.0442C18.6793 11.0269 18.6831 11.0093 18.6875 10.9917C18.6924 10.9723 18.6979 10.953 18.7018 10.9332C18.7058 10.9129 18.7082 10.8925 18.7111 10.8721C18.7136 10.8547 18.7169 10.8376 18.7186 10.82C18.7224 10.7822 18.7243 10.7442 18.7244 10.7063C18.7244 10.7057 18.7245 10.7051 18.7245 10.7046C18.7245 10.704 18.7244 10.7034 18.7244 10.7028C18.7243 10.6648 18.7224 10.6269 18.7186 10.5891C18.7169 10.5717 18.7136 10.5548 18.7112 10.5375C18.7083 10.5169 18.7058 10.4963 18.7018 10.4759C18.6979 10.4562 18.6925 10.4372 18.6876 10.4179C18.6831 10.4002 18.6792 10.3823 18.6739 10.3648C18.6682 10.346 18.6611 10.3278 18.6546 10.3094C18.6483 10.2918 18.6425 10.274 18.6353 10.2567C18.6282 10.2396 18.6199 10.2231 18.6119 10.2063C18.6035 10.1885 18.5955 10.1704 18.5862 10.1529C18.5776 10.1369 18.5678 10.1217 18.5585 10.1061C18.5483 10.0889 18.5386 10.0715 18.5273 10.0547C18.5159 10.0376 18.5032 10.0217 18.491 10.0052C18.4804 9.99107 18.4705 9.97648 18.4592 9.96275C18.4359 9.93435 18.4112 9.90712 18.3853 9.88098C18.3841 9.87973 18.3831 9.87833 18.3818 9.87708L14.8709 6.36611C14.6423 6.13759 14.3429 6.02329 14.0434 6.02329C13.7439 6.02337 13.4443 6.13759 13.2159 6.36603C12.7589 6.82307 12.7589 7.56403 13.2158 8.02107L14.7289 9.53434Z" fill="url(#paint0_linear_5112_115019)"/>
<path d="M23.7968 0.172363H8.97303C8.32672 0.172363 7.80273 0.696344 7.80273 1.34266V6.02385C7.80273 6.67016 8.32672 7.19415 8.97303 7.19415C9.61935 7.19415 10.1433 6.67016 10.1433 6.02385V2.51296H22.6265V18.8972H10.1433V15.3862C10.1433 14.7399 9.61935 14.2159 8.97303 14.2159C8.32672 14.2159 7.80273 14.7399 7.80273 15.3862V20.0675C7.80273 20.7138 8.32672 21.2378 8.97303 21.2378H23.7968C24.4431 21.2378 24.9671 20.7138 24.9671 20.0675V1.34266C24.9671 0.696344 24.4431 0.172363 23.7968 0.172363Z" fill="url(#paint1_linear_5112_115019)"/>
<defs>
<linearGradient id="paint0_linear_5112_115019" x1="18.7245" y1="10.7046" x2="-6.58226e-05" y2="10.7046" gradientUnits="userSpaceOnUse">
<stop stop-color="#F2D71A"/>
<stop offset="1" stop-color="#ECB024"/>
</linearGradient>
<linearGradient id="paint1_linear_5112_115019" x1="7.80273" y1="10.7051" x2="24.9671" y2="10.7051" gradientUnits="userSpaceOnUse">
<stop stop-color="#F2D71A"/>
<stop offset="1" stop-color="#ECB024"/>
</linearGradient>
</defs>
</svg>
