<svg width="24" height="22" viewBox="0 0 24 22" fill="none" xmlns="http://www.w3.org/2000/svg">
<path d="M24 15.2577C23.7499 15.6715 23.3694 15.9686 23.0378 16.3019C21.9098 17.4377 20.7709 18.5624 19.6375 19.6899C19.1591 20.1648 18.678 20.6369 18.2051 21.1146C17.9577 21.3645 17.6778 21.4812 17.3407 21.3562C17.0037 21.2312 16.8379 20.9646 16.8324 20.6064C16.8216 19.9399 16.8216 19.2762 16.8189 18.6096C16.8189 18.2347 16.8189 18.2347 16.4601 18.2347C14.5139 18.2347 12.5651 18.2347 10.6189 18.2347C9.90952 18.2347 9.62412 17.9459 9.62412 17.2239C9.62412 15.7215 9.62412 14.2191 9.62412 12.7194C9.62412 12.0501 9.90952 11.7585 10.5646 11.7585C12.5107 11.7585 14.4596 11.7585 16.4057 11.7585C16.8379 11.7585 16.8161 11.8113 16.8161 11.3281C16.8161 10.7255 16.8107 10.1201 16.8161 9.51742C16.8216 9.02032 16.9955 8.73984 17.3516 8.61764C17.6778 8.50378 17.9414 8.62042 18.1752 8.8537C19.3684 10.0423 20.5644 11.2309 21.7576 12.4195C22.3936 13.0527 23.0242 13.6859 23.663 14.3135C23.7961 14.444 23.913 14.5829 23.9946 14.7495L23.9946 15.2605L24 15.2577Z" fill="white"/>
<path d="M11.2358 9.65074C10.222 9.65074 9.20543 9.65629 8.19159 9.64518C7.96055 9.64518 7.88988 9.71739 7.89532 9.95066C7.90891 10.6005 7.90347 11.2503 7.89532 11.9002C7.88988 12.3862 7.72408 12.6611 7.37617 12.7889C7.04184 12.9138 6.77004 12.7944 6.53085 12.5556C5.35936 11.3892 4.18787 10.2228 3.01366 9.05644C2.33958 8.38715 1.6655 7.71787 0.991415 7.05137C0.600012 6.66535 0.586423 6.19325 0.972389 5.81001C2.82611 3.96046 4.68256 2.11647 6.539 0.266918C6.77547 0.0308649 7.05 -0.0663335 7.36801 0.0475276C7.6969 0.164166 7.87357 0.414104 7.87901 0.766795C7.8926 1.43885 7.8926 2.11369 7.89804 2.78575C7.89804 3.17176 7.89804 3.17176 8.26769 3.17176C10.2138 3.17176 12.1627 3.17176 14.1088 3.17176C14.8101 3.17176 15.0928 3.4578 15.0928 4.16874C15.0928 5.67671 15.0928 7.18745 15.0928 8.69541C15.0928 9.35081 14.8047 9.64796 14.1659 9.64796C13.1874 9.64796 12.2116 9.64796 11.2331 9.64796L11.2358 9.65074Z" fill="white"/>
</svg>
