<svg width="27" height="29" viewBox="0 0 27 29" fill="none" xmlns="http://www.w3.org/2000/svg">
<path d="M7.81472 28.9003C7.31749 28.5998 6.96043 28.1425 6.55998 27.7441C5.19512 26.3886 3.8436 25.0201 2.48875 23.6581C1.91811 23.0833 1.35081 22.5052 0.776836 21.9369C0.476499 21.6396 0.336342 21.3032 0.486511 20.8982C0.636679 20.4932 0.957038 20.294 1.38752 20.2874C2.18842 20.2744 2.98598 20.2744 3.78687 20.2711C4.23738 20.2711 4.23738 20.2711 4.23738 19.84C4.23738 17.5014 4.23738 15.1596 4.23738 12.821C4.23738 11.9686 4.58444 11.6256 5.45207 11.6256C7.25743 11.6256 9.06279 11.6256 10.8648 11.6256C11.669 11.6256 12.0194 11.9686 12.0194 12.7557C12.0194 15.0943 12.0194 17.4361 12.0194 19.7747C12.0194 20.294 11.956 20.2679 12.5367 20.2679C13.2608 20.2679 13.9883 20.2613 14.7124 20.2679C15.3098 20.2744 15.6468 20.4834 15.7937 20.9113C15.9305 21.3032 15.7903 21.62 15.51 21.9009C14.0817 23.3348 12.6535 24.7719 11.2252 26.2057C10.4644 26.97 9.7035 27.7277 8.94932 28.4953C8.79248 28.6553 8.62563 28.7958 8.4254 28.8937L7.81138 28.8937L7.81472 28.9003Z" fill="url(#paint0_linear_4996_104786)"/>
<path d="M14.552 13.5626C14.552 12.3443 14.5453 11.1228 14.5587 9.90453C14.5587 9.62691 14.4719 9.54199 14.1916 9.54852C13.4107 9.56485 12.6298 9.55832 11.849 9.54852C11.265 9.54199 10.9346 9.34275 10.7811 8.92469C10.6309 8.52295 10.7744 8.19634 11.0614 7.90892C12.463 6.50121 13.8645 5.0935 15.2661 3.68253C16.0704 2.87252 16.8746 2.06252 17.6755 1.25252C18.1393 0.782193 18.7066 0.765863 19.1672 1.22965C21.3896 3.45716 23.6055 5.68794 25.8279 7.91872C26.1116 8.20287 26.2284 8.53275 26.0916 8.91489C25.9514 9.31009 25.6511 9.52239 25.2273 9.52892C24.4197 9.54525 23.6088 9.54525 22.8012 9.55179C22.3374 9.55179 22.3374 9.55179 22.3374 9.99598C22.3374 12.3345 22.3374 14.6764 22.3374 17.0149C22.3374 17.8576 21.9937 18.1973 21.1394 18.1973C19.3273 18.1973 17.512 18.1973 15.6999 18.1973C14.9124 18.1973 14.5553 17.8511 14.5553 17.0835C14.5553 15.9077 14.5553 14.7352 14.5553 13.5593L14.552 13.5626Z" fill="url(#paint1_linear_4996_104786)"/>
<defs>
<linearGradient id="paint0_linear_4996_104786" x1="8.1362" y1="28.9003" x2="8.13621" y2="11.6256" gradientUnits="userSpaceOnUse">
<stop stop-color="#F2D71A"/>
<stop offset="1" stop-color="#ECB024"/>
</linearGradient>
<linearGradient id="paint1_linear_4996_104786" x1="18.4347" y1="18.1973" x2="18.4347" y2="0.890604" gradientUnits="userSpaceOnUse">
<stop stop-color="#F2D71A"/>
<stop offset="1" stop-color="#ECB024"/>
</linearGradient>
</defs>
</svg>
