<svg width="16" height="16" viewBox="0 0 16 16" fill="none" xmlns="http://www.w3.org/2000/svg">
<g clip-path="url(#clip0_5786_107616)">
<path d="M8.04321 0.449707C3.92187 0.449707 0.568848 3.80265 0.568848 7.92407C0.568848 12.0455 3.92187 15.3985 8.04321 15.3985C12.1646 15.3985 15.5176 12.0455 15.5176 7.92407C15.5176 3.80265 12.1646 0.449707 8.04321 0.449707ZM12.3351 6.66159L7.63936 11.3574C7.4397 11.557 7.17429 11.6669 6.89195 11.6669C6.60961 11.6669 6.3442 11.557 6.14454 11.3574L3.7513 8.96412C3.55164 8.76445 3.44167 8.49904 3.44167 8.21671C3.44167 7.93429 3.55164 7.66888 3.7513 7.46921C3.95089 7.26955 4.2163 7.15958 4.49871 7.15958C4.78105 7.15958 5.04654 7.26955 5.24613 7.46929L6.89187 9.11496L10.8401 5.16669C11.0398 4.96702 11.3052 4.85713 11.5876 4.85713C11.8699 4.85713 12.1353 4.96702 12.335 5.16669C12.7472 5.57896 12.7472 6.24947 12.3351 6.66159Z" fill="url(#paint0_linear_5786_107616)"/>
</g>
<defs>
<linearGradient id="paint0_linear_5786_107616" x1="0.568848" y1="7.92411" x2="15.5176" y2="7.92411" gradientUnits="userSpaceOnUse">
<stop stop-color="#F2D71A"/>
<stop offset="1" stop-color="#ECB024"/>
</linearGradient>
<clipPath id="clip0_5786_107616">
<rect width="14.9488" height="14.9488" fill="white" transform="translate(0.568848 0.449707)"/>
</clipPath>
</defs>
</svg>
