<svg width="26" height="27" viewBox="0 0 26 27" fill="none" xmlns="http://www.w3.org/2000/svg">
<path fill-rule="evenodd" clip-rule="evenodd" d="M15.2906 24.4854H1.29338C0.185525 24.4002 -0.0821873 23.6008 0.0201093 22.6769C0.627359 17.2342 6.71074 18.8089 9.15498 16.6008C10.3738 20.2002 15.4691 20.3334 16.6117 16.6008C16.8751 16.8388 17.2408 17.0398 17.6695 17.2167C17.2756 17.4569 16.9034 17.7474 16.5639 18.0881C14.8401 19.8158 14.4156 22.3559 15.2906 24.4854ZM23.9423 18.9924C25.7314 20.7877 25.7314 23.6969 23.9423 25.4922C22.1532 27.2875 19.254 27.2875 17.4649 25.4922C15.6758 23.6969 15.6758 20.7877 17.4649 18.9924C19.254 17.197 22.1553 17.197 23.9423 18.9924ZM20.2357 19.6913H21.1716C21.3 19.6913 21.4044 19.7961 21.4044 19.925V21.5368H23.0107C23.1391 21.5368 23.2436 21.6417 23.2436 21.7705V22.7097C23.2436 22.8385 23.1391 22.9434 23.0107 22.9434H21.4044V24.5552C21.4044 24.6841 21.3 24.7889 21.1716 24.7889H20.2357C20.1072 24.7889 20.0028 24.6841 20.0028 24.5552V22.9434H18.3965C18.2681 22.9434 18.1636 22.8385 18.1636 22.7097V21.7705C18.1636 21.6417 18.2681 21.5368 18.3965 21.5368H20.0028V19.925C20.0028 19.7983 20.1072 19.6913 20.2357 19.6913ZM9.12233 12.9905C9.58593 13.7265 10.0691 14.48 10.6698 15.0348C11.2488 15.5655 11.9518 15.9259 12.879 15.9281C13.8867 15.9303 14.6202 15.5568 15.2188 14.9955C15.8413 14.4123 16.3288 13.6129 16.8142 12.8136L18.1135 10.6666C18.3551 10.1097 18.4444 9.74055 18.3878 9.52214C18.353 9.39328 18.2115 9.32994 17.9699 9.31902C17.9198 9.31684 17.8654 9.31684 17.8132 9.31684C17.7566 9.31902 17.6957 9.32339 17.6304 9.32776C17.5934 9.32995 17.5629 9.32776 17.5302 9.32121C17.4171 9.32776 17.2952 9.31902 17.1755 9.30155L17.6195 7.32495C14.3177 7.84695 11.8495 5.38766 8.36272 6.83353L8.6152 9.16177C8.47808 9.17051 8.34313 9.16395 8.21907 9.14648C6.21667 9.212 8.72838 12.3593 9.12233 12.9905ZM18.4183 8.72714C18.7382 8.82542 18.9428 9.02854 19.0277 9.35834C19.1213 9.72308 19.019 10.2363 18.7099 10.9396C18.7034 10.9527 18.699 10.9658 18.6903 10.9767L17.3779 13.1477C16.8708 13.9842 16.3593 14.8251 15.6715 15.4672C14.9619 16.1356 14.0848 16.5789 12.8877 16.5746C11.7712 16.5724 10.9267 16.1443 10.2367 15.5087C9.4031 14.7399 5.55936 9.9131 7.27664 8.74898C7.36152 8.69438 7.45511 8.64414 7.55523 8.60701C7.47905 7.60888 7.45294 6.35085 7.50082 5.29811C7.52694 5.04913 7.57482 4.80014 7.64229 4.54897C7.93612 3.49187 8.67614 2.64008 9.59028 2.05692C10.0952 1.73368 10.6481 1.49124 11.2227 1.32962C11.5883 1.22478 10.9114 0.0497439 11.288 0.0147984C13.1162 -0.175217 16.0807 1.50216 17.3583 2.89125C17.996 3.58579 18.4008 4.50747 18.4879 5.7262L18.4183 8.72714Z" fill="url(#paint0_linear_5112_119990)"/>
<defs>
<linearGradient id="paint0_linear_5112_119990" x1="0" y1="13.4194" x2="25.2841" y2="13.4194" gradientUnits="userSpaceOnUse">
<stop stop-color="#F2D71A"/>
<stop offset="1" stop-color="#ECB024"/>
</linearGradient>
</defs>
</svg>
