<svg width="25" height="24" viewBox="0 0 25 24" fill="none" xmlns="http://www.w3.org/2000/svg">
<path d="M22.8811 5.77527H15.3967L18.0543 1.41462C18.2848 1.03657 18.1651 0.543285 17.787 0.312891C17.409 0.0823905 16.9157 0.202157 16.6853 0.580215L13.5191 5.77527H11.5462L8.38009 0.580215C8.1497 0.202264 7.65642 0.0825509 7.27836 0.312891C6.9003 0.543339 6.78059 1.03657 7.01104 1.41462L9.66866 5.77527H2.18415C1.21565 5.77527 0.427734 6.56319 0.427734 7.53163V22.0292C0.427734 22.9977 1.21565 23.7856 2.18415 23.7856H22.8812C23.8497 23.7856 24.6376 22.9977 24.6376 22.0292V7.53163C24.6375 6.56319 23.8496 5.77527 22.8811 5.77527ZM17.4054 19.9222C17.4054 20.4495 16.978 20.877 16.4507 20.877H4.23225C3.70498 20.8769 3.27754 20.4495 3.27754 19.9222V9.63874C3.27754 9.11147 3.70498 8.68398 4.23231 8.68398H16.4507C16.9779 8.68398 17.4054 9.11147 17.4054 9.63874V19.9222ZM20.9388 19.6171C20.0253 19.6171 19.2821 18.8738 19.2821 17.9603C19.2821 17.0468 20.0253 16.3036 20.9388 16.3036C21.8523 16.3036 22.5956 17.0468 22.5956 17.9603C22.5956 18.8739 21.8523 19.6171 20.9388 19.6171ZM20.9388 13.2573C20.0253 13.2573 19.2821 12.5142 19.2821 11.6006C19.2821 10.687 20.0253 9.94385 20.9388 9.94385C21.8523 9.94385 22.5956 10.687 22.5956 11.6006C22.5956 12.5142 21.8523 13.2573 20.9388 13.2573Z" fill="url(#paint0_linear_4871_104877)"/>
<defs>
<linearGradient id="paint0_linear_4871_104877" x1="0.427734" y1="11.9906" x2="24.6376" y2="11.9906" gradientUnits="userSpaceOnUse">
<stop stop-color="#F2D71A"/>
<stop offset="1" stop-color="#ECB024"/>
</linearGradient>
</defs>
</svg>
