<svg width="14" height="14" viewBox="0 0 14 14" fill="none" xmlns="http://www.w3.org/2000/svg">
<g clip-path="url(#clip0_5786_107599)">
<path d="M7.16269 0.866699C3.73849 0.866699 0.952637 3.65249 0.952637 7.07676C0.952637 10.501 3.73849 13.2869 7.16269 13.2869C10.5869 13.2869 13.3727 10.501 13.3727 7.07676C13.3727 3.65249 10.587 0.866699 7.16269 0.866699ZM10.7286 6.02782L6.82715 9.92929C6.66126 10.0952 6.44075 10.1865 6.20617 10.1865C5.97159 10.1865 5.75107 10.0952 5.58518 9.92929L3.59677 7.94087C3.43088 7.77498 3.33951 7.55447 3.33951 7.31989C3.33951 7.08524 3.43088 6.86473 3.59677 6.69884C3.76259 6.53295 3.98311 6.44158 4.21776 6.44158C4.45233 6.44158 4.67292 6.53295 4.83874 6.6989L6.2061 8.0662L9.48651 4.78579C9.6524 4.6199 9.87292 4.52859 10.1075 4.52859C10.3421 4.52859 10.5626 4.6199 10.7285 4.78579C11.071 5.12832 11.071 5.68542 10.7286 6.02782Z" fill="#B4B4B4" fill-opacity="0.18"/>
</g>
<defs>
<clipPath id="clip0_5786_107599">
<rect width="12.4202" height="12.4202" fill="white" transform="translate(0.952637 0.866699)"/>
</clipPath>
</defs>
</svg>
