<svg width="126" height="48" viewBox="0 0 126 48" fill="none" xmlns="http://www.w3.org/2000/svg">
<rect x="7.16504" y="5.96875" width="112.299" height="35.4098" rx="8.76439" fill="#B4B4B4"/>
<rect x="1.19603" y="0.674548" width="124.238" height="46.3366" rx="8.32617" stroke="#B4B4B4" stroke-width="0.876439"/>
<g clip-path="url(#clip0_8538_134275)">
<path d="M51.2057 29.0171C53.0412 31.1585 54.7879 31.1159 56.2007 30.5338C57.4959 29.9943 58.1716 28.5627 57.9474 26.9609C57.9168 26.9746 57.8571 26.9746 57.8571 27.0035C57.0297 28.9031 54.9379 29.1737 53.2976 28.7481C51.838 28.3788 51.0848 27.3864 50.859 26.0262C50.7832 25.5293 50.738 25.0186 50.738 24.5095C50.7235 22.4533 50.738 20.4107 50.738 18.3135H53.3412C53.3557 18.4974 53.3718 18.6965 53.3718 18.8955V23.9153C53.3718 24.2694 53.4024 24.625 53.4621 24.9791C53.6734 26.312 54.5459 26.8363 55.9604 26.4822C57.1039 26.198 57.8716 25.2056 57.9474 23.7451C58.0233 22.1858 58.0071 20.6266 58.0233 19.0658V18.2998H60.5506C60.5812 18.3849 60.5957 18.47 60.6103 18.5688C60.6103 21.6174 60.6861 24.6661 60.5812 27.7147C60.4458 31.3165 57.1959 33.5141 53.4331 32.6782C52.1847 32.394 51.0396 31.9259 50.138 31.0338C49.8671 30.7648 49.8219 30.5658 50.1074 30.2679C50.4993 29.8986 50.8138 29.4731 51.2057 29.0202V29.0171Z" fill="black"/>
<path d="M35.5256 18.4243V19.9835C34.7128 18.8771 33.5547 18.1826 32.2596 18.1826C29.8371 18.1826 27.8662 20.6355 27.8662 23.6553C27.8662 26.675 29.8371 29.1279 32.2596 29.1279C33.5531 29.1279 34.7128 28.4334 35.5256 27.327V29.1279H38.1739V18.4243H35.5256ZM33.0128 26.8756C31.5838 26.8756 30.4097 25.4288 30.4097 23.6431C30.4097 21.8574 31.5677 20.4091 33.0128 20.4091C34.4579 20.4091 35.616 21.8559 35.616 23.6431C35.616 25.4303 34.4579 26.8756 33.0128 26.8756Z" fill="black"/>
<path d="M81.662 18.4243V19.9835C80.8636 18.8771 79.6911 18.1826 78.396 18.1826C75.9735 18.1826 74.001 20.6355 74.001 23.6553C74.001 26.675 75.9719 29.1279 78.396 29.1279C79.6895 29.1279 80.8491 28.4334 81.662 27.327V29.1279H84.3103V18.4243H81.662ZM79.1637 26.8756C77.7347 26.8756 76.5606 25.4288 76.5606 23.6431C76.5606 21.8574 77.7186 20.4091 79.1637 20.4091C80.6088 20.4091 81.7668 21.8559 81.7668 23.6431C81.7668 25.4303 80.5927 26.8756 79.1637 26.8756Z" fill="black"/>
<path d="M109.352 18.4243V19.9835C108.553 18.8771 107.381 18.1826 106.086 18.1826C103.663 18.1826 101.692 20.6355 101.692 23.6553C101.692 26.675 103.663 29.1279 106.086 29.1279C107.379 29.1279 108.539 28.4334 109.352 27.327V29.1279H112V18.4243H109.352ZM106.853 26.8756C105.425 26.8756 104.25 25.4288 104.25 23.6431C104.25 21.8574 105.408 20.4091 106.853 20.4091C108.299 20.4091 109.457 21.8559 109.457 23.6431C109.457 25.4303 108.282 26.8756 106.853 26.8756Z" fill="black"/>
<path d="M86.2666 29.1294H88.9762V18.1826H86.2666V29.1294Z" fill="black"/>
<path d="M89.293 15.5745C89.293 14.7052 88.5446 14 87.6221 14C86.6995 14 85.9512 14.7052 85.9512 15.5745C85.9512 16.4438 86.6995 17.1489 87.6221 17.1489C88.5446 17.1489 89.293 16.4438 89.293 15.5745Z" fill="black"/>
<path d="M68.5419 18.3528C67.2774 18.3528 66.1339 18.9759 65.321 19.9835V18.1826H62.6582V33.0002H65.321V27.5124C66.1339 28.52 67.2774 29.1431 68.5419 29.1431C71.024 29.1431 73.0417 26.7328 73.0417 23.754C73.0417 20.7753 71.0257 18.3528 68.5419 18.3528ZM67.7887 26.8741C66.6597 26.8741 65.7113 26.0656 65.321 24.903V22.6066C65.7129 21.4577 66.6758 20.6355 67.7887 20.6355C69.2628 20.6355 70.4515 22.0246 70.4515 23.754C70.4515 25.4835 69.2483 26.8741 67.7887 26.8741Z" fill="black"/>
<path d="M47.3236 22.053L49.2203 21.1168C49.1897 20.2946 48.6026 19.5423 47.8655 19.1031C47.1284 18.6639 46.2398 18.48 45.3527 18.3934C43.9382 18.2521 42.4189 18.3645 41.2593 19.1168C40.0996 19.8676 39.4077 21.4284 40.0706 22.6047C40.6125 23.5834 41.8157 24.0363 42.9592 24.2354C44.1027 24.4344 45.3059 24.5043 46.3301 25.0013C46.5865 25.129 46.8575 25.3129 46.872 25.5834C46.8865 25.8524 46.6914 26.0651 46.4962 26.2354C45.1414 27.2992 43.1253 27.129 41.9963 25.8524C41.6802 25.4846 41.4399 25.0575 41.3351 24.591L39.2432 25.6259C38.8061 25.8524 40.4319 27.7536 40.6432 27.9238C42.1931 29.2004 44.5253 29.398 46.4365 28.8037C47.7752 28.3782 49.0397 27.442 49.3106 26.1381C49.4767 25.3022 49.2203 24.436 48.6187 23.7992C47.972 23.132 47.0236 22.8205 46.0752 22.6366C45.1269 22.4527 44.1785 22.3949 43.2608 22.1259C42.8689 22.0119 42.4173 21.7581 42.4334 21.36C42.4479 21.0059 42.8689 20.7794 43.2302 20.6654C43.9979 20.4238 44.8398 20.325 45.622 20.5378C46.4043 20.7505 47.1123 21.3326 47.322 22.0545L47.3236 22.053Z" fill="black"/>
<path d="M98.457 22.053L100.352 21.1168C100.323 20.2946 99.736 19.5423 98.9973 19.1031C98.2603 18.6639 97.3716 18.48 96.4845 18.3934C95.0701 18.2521 93.5508 18.3645 92.3911 19.1168C91.2331 19.8676 90.5396 21.4284 91.2024 22.6047C91.7444 23.5834 92.9475 24.0363 94.0911 24.2354C95.2346 24.4344 96.4377 24.5043 97.4619 25.0013C97.7184 25.129 97.9877 25.3129 98.0038 25.5834C98.0183 25.8524 97.8232 26.0651 97.628 26.2354C96.2732 27.2992 94.2572 27.129 93.1282 25.8524C92.8121 25.4846 92.5717 25.0575 92.4669 24.591L90.3751 25.6259C89.938 25.8524 91.5637 27.7536 91.775 27.9238C93.325 29.2004 95.6571 29.398 97.5684 28.8037C98.907 28.3782 100.171 27.442 100.442 26.1381C100.609 25.3022 100.352 24.436 99.736 23.7992C99.0893 23.132 98.1409 22.8205 97.1926 22.6366C96.2442 22.4527 95.2959 22.4101 94.3943 22.1411C94.0023 22.0271 93.5508 21.7718 93.5669 21.3752C93.5814 21.0211 94.004 20.7946 94.3636 20.6806C95.1313 20.439 95.9732 20.3402 96.7571 20.553C97.5393 20.7657 98.2474 21.3326 98.457 22.056V22.053Z" fill="black"/>
<path d="M25.6091 20.0415C25.6091 20.0415 23.6382 17.2057 19.3642 18.6236C19.3642 18.6236 17.0465 19.2193 16.0078 22.7072C16.0078 22.7072 18.1448 25.926 23.3511 24.8911C23.3511 24.8911 27.8058 23.7999 25.6091 20.0415ZM22.8108 22.8774C21.9383 23.2604 20.6141 23.1616 19.6964 22.9336C19.6367 22.9199 18.4481 22.5218 18.5077 22.423C19.3803 20.9063 21.6528 19.5157 23.2334 21.0613C23.3995 21.2026 23.5189 21.4017 23.5785 21.6008C23.714 22.1388 23.3076 22.6646 22.8108 22.8774Z" fill="black"/>
<path d="M16.0245 23.7549C16.0245 23.7549 15.5132 27.5558 19.2599 28.8035C23.0065 30.0512 25.9564 27.7686 26.829 26.3506L24.6919 25.1591C24.6919 25.1591 23.021 28.4205 18.2212 26.3081C18.2212 26.3081 16.4761 25.3445 16.0245 23.7549Z" fill="black"/>
</g>
<defs>
<clipPath id="clip0_8538_134275">
<rect width="96" height="19" fill="white" transform="translate(16 14)"/>
</clipPath>
</defs>
</svg>
