<svg width="126" height="48" viewBox="0 0 126 48" fill="none" xmlns="http://www.w3.org/2000/svg">
<rect x="6.40723" y="5.96875" width="112.299" height="35.4098" rx="8.76439" fill="#B4B4B4"/>
<rect x="0.438219" y="0.674548" width="124.238" height="46.3366" rx="8.32617" stroke="#B4B4B4" stroke-width="0.876439"/>
<g clip-path="url(#clip0_8538_134276)">
<path d="M67.934 31.328C66.7117 30.967 65.6236 30.3099 64.7011 29.3728C63.2187 27.8837 62.5066 26.003 62.5861 23.784C62.6689 21.4403 63.4854 19.5272 65.0108 18.0964C66.5378 16.6527 68.5104 15.9616 70.8738 16.0425C71.5578 16.0668 72.1806 16.159 72.7205 16.3176C73.229 16.4682 73.6795 16.6802 74.062 16.9505C74.9216 17.5591 75.339 18.4056 75.2992 19.4641L75.2512 20.8479L74.7742 20.8334L74.703 20.7363C74.3237 20.2151 73.7209 19.7991 72.911 19.5013C72.7801 19.4544 72.6476 19.4107 72.5135 19.3702C71.9603 19.2067 71.3806 19.1145 70.786 19.0934C69.4876 19.0481 68.3978 19.4301 67.5498 20.228C66.667 21.0292 66.1966 22.1201 66.1486 23.4732C66.0906 25.0998 66.4765 26.3752 67.2964 27.2622C67.78 27.8044 68.3978 28.188 69.1331 28.4049C69.5604 28.5311 70.0391 28.604 70.5542 28.6218C72.2203 28.68 73.5254 28.2689 74.4347 27.403L74.5092 27.3318L74.9713 27.3464L74.9233 28.6881C74.8868 29.7143 74.3237 30.5074 73.2488 31.0463C72.3578 31.4947 71.2796 31.7018 70.0457 31.6581C69.3021 31.6322 68.5915 31.5206 67.9324 31.3263L67.934 31.328Z" fill="black"/>
<path d="M59.129 29.065C59.0909 29.4341 58.8805 29.7545 58.5029 30.0281C58.1402 30.287 57.7559 30.3971 57.3469 30.355L51.1344 29.7286C49.6852 29.583 49.0194 28.9631 49.1336 27.8722C49.2314 26.948 49.9965 25.8749 51.4308 24.6513L55.0016 21.5583C55.265 21.3203 55.4952 21.1035 55.6923 20.9044C55.9407 20.6487 56.1229 20.435 56.2372 20.2586L49.9783 19.629L50.0777 18.6821C50.1936 17.5896 50.9505 17.1138 52.3533 17.2546L58.1385 17.8373C58.8159 17.9052 59.3161 18.1351 59.6424 18.5251C59.8941 18.8456 60.0001 19.2146 59.9554 19.629C59.8444 20.6762 59.1853 21.7217 57.9779 22.7657L54.4336 25.815C53.8009 26.3734 53.3454 26.8493 53.0655 27.241L59.2532 27.8641L59.1273 29.065H59.129Z" fill="black"/>
<path d="M59.129 29.065C59.0909 29.4341 58.8805 29.7545 58.5029 30.0281C58.1402 30.287 57.7559 30.3971 57.3469 30.355L51.1344 29.7286C49.6852 29.583 49.0194 28.9631 49.1336 27.8722C49.2314 26.948 49.9965 25.8749 51.4308 24.6513L55.0016 21.5583C55.265 21.3203 55.4952 21.1035 55.6923 20.9044C55.9407 20.6487 56.1229 20.435 56.2372 20.2586L49.9783 19.629L50.0777 18.6821C50.1936 17.5896 50.9505 17.1138 52.3533 17.2546L58.1385 17.8373C58.8159 17.9052 59.3161 18.1351 59.6424 18.5251C59.8941 18.8456 60.0001 19.2146 59.9554 19.629C59.8444 20.6762 59.1853 21.7217 57.9779 22.7657L54.4336 25.815C53.8009 26.3734 53.3454 26.8493 53.0655 27.241L59.2532 27.8641L59.1273 29.065H59.129Z" fill="black"/>
<path d="M50.8876 29.6286C50.8611 29.9992 50.6623 30.3262 50.293 30.611C49.9402 30.8813 49.5593 31.0027 49.1486 30.9736L42.9195 30.5479C41.467 30.4492 40.7797 29.8519 40.8575 28.7562C40.9238 27.8304 41.6525 26.733 43.0454 25.4641L46.5119 22.2578C46.7669 22.0117 46.9905 21.7868 47.1793 21.5828C47.4195 21.3206 47.595 21.0989 47.7027 20.9209L41.4256 20.4919L41.4935 19.5419C41.5713 18.4461 42.3133 17.946 43.7195 18.0431L49.5229 18.4396C50.2019 18.4866 50.7104 18.7002 51.0482 19.079C51.3116 19.3913 51.4275 19.7555 51.3977 20.1731C51.3232 21.2235 50.6988 22.2885 49.5262 23.3713L46.0862 26.5323C45.4734 27.1118 45.0345 27.6006 44.7662 28.0019L50.9721 28.426L50.8859 29.6302L50.8876 29.6286Z" fill="black"/>
<path d="M50.8876 29.6286C50.8611 29.9992 50.6623 30.3262 50.293 30.611C49.9402 30.8813 49.5593 31.0027 49.1486 30.9736L42.9195 30.5479C41.467 30.4492 40.7797 29.8519 40.8575 28.7562C40.9238 27.8304 41.6525 26.733 43.0454 25.4641L46.5119 22.2578C46.7669 22.0117 46.9905 21.7868 47.1793 21.5828C47.4195 21.3206 47.595 21.0989 47.7027 20.9209L41.4256 20.4919L41.4935 19.5419C41.5713 18.4461 42.3133 17.946 43.7195 18.0431L49.5229 18.4396C50.2019 18.4866 50.7104 18.7002 51.0482 19.079C51.3116 19.3913 51.4275 19.7555 51.3977 20.1731C51.3232 21.2235 50.6988 22.2885 49.5262 23.3713L46.0862 26.5323C45.4734 27.1118 45.0345 27.6006 44.7662 28.0019L50.9721 28.426L50.8859 29.6302L50.8876 29.6286Z" fill="black"/>
<path d="M36.1406 26.1455C36.1456 26.1455 36.1506 26.1487 36.1539 26.1504C36.1489 26.1504 36.1439 26.1471 36.1406 26.1455Z" fill="black"/>
<path d="M35.9863 27.8047L35.9996 27.8257L35.9863 27.8047Z" fill="black"/>
<path d="M35.5277 25.7881C35.5277 25.7881 35.5261 25.7897 35.5244 25.7913C35.5244 25.7913 35.5261 25.7913 35.5277 25.7881Z" fill="black"/>
<path d="M40.8557 20.5728C40.0855 19.7506 38.961 19.2618 37.4786 19.1032C36.0394 18.9494 34.8982 19.1404 34.0519 19.6746C33.3331 20.1342 32.9307 20.7379 32.8478 21.4825L32.7452 22.4083L32.8561 22.4196C33.1725 22.1056 33.623 21.8628 34.2059 21.6929C34.9595 21.4549 35.8141 21.3853 36.7665 21.4873C38.4691 21.6686 39.2409 22.4681 39.0819 23.8876L39.0653 24.0381L38.0302 23.9281C35.9615 23.7079 34.3981 23.8892 33.3381 24.4735C32.3891 24.9963 31.8525 25.8169 31.7282 26.9353C31.609 28.01 31.9502 28.9391 32.7534 29.7208C33.5716 30.5042 34.678 30.9703 36.0725 31.1176L36.6671 31.1807C37.9871 31.3199 39.11 31.048 40.0309 30.3634C40.9534 29.6787 41.4834 28.727 41.6175 27.5083L41.914 24.8409C42.121 22.978 41.7683 21.5537 40.854 20.5712L40.8557 20.5728ZM38.8301 27.2574C38.8301 27.2574 38.8218 27.2687 38.8169 27.272C38.8169 27.272 38.8136 27.272 38.8119 27.2736C38.8086 27.2736 38.8053 27.2752 38.802 27.2736C38.802 27.2736 38.7987 27.2736 38.797 27.2736C38.792 27.2736 38.7887 27.2703 38.7871 27.2687C38.7755 27.259 38.6993 27.1441 38.6281 27.068C38.6181 27.0567 38.5999 27.0373 38.58 27.0146C38.5684 27.0017 38.5568 26.9887 38.5419 26.9725C38.5337 26.9628 38.5221 26.9515 38.5121 26.9402C38.4989 26.9256 38.484 26.9094 38.4691 26.8932C38.4575 26.8803 38.4426 26.8657 38.4293 26.8511C38.4128 26.8333 38.3945 26.8155 38.3747 26.7961C38.3581 26.7799 38.3399 26.7637 38.3233 26.7459C38.3034 26.7265 38.2803 26.7055 38.2587 26.6861C38.2389 26.6666 38.2173 26.6472 38.1941 26.6278C38.1693 26.6067 38.1444 26.5841 38.1179 26.563C38.0931 26.542 38.0666 26.521 38.0384 26.4983C38.0103 26.4756 37.9805 26.453 37.949 26.4303C37.9175 26.406 37.8877 26.3834 37.8546 26.3591C37.7917 26.3138 37.7254 26.2669 37.6542 26.2183C37.4571 26.1001 37.1573 25.9124 36.8112 25.7813C36.7996 25.8234 36.7797 25.914 36.7946 26.0192C36.8112 26.1244 36.846 26.2636 36.9768 26.5323C36.9735 26.5307 36.9702 26.5291 36.9669 26.5274C37.2385 26.6861 37.5184 26.8754 37.7834 27.0891C37.7834 27.0891 38.2604 27.4532 38.537 27.8287C38.5154 27.8028 38.4939 27.7753 38.4724 27.7494C38.4939 27.7753 38.5154 27.8012 38.537 27.8271C38.5751 27.8789 38.6098 27.9291 38.6397 27.9809C38.7457 28.1573 38.7192 28.1913 38.7142 28.222C38.7092 28.2528 38.633 28.4859 38.3846 28.7999C38.1345 29.1122 37.7751 29.321 37.7006 29.3388C37.7039 29.3388 37.7072 29.3372 37.7089 29.3356C37.6708 29.3534 37.6062 29.3405 37.525 29.3032L37.5151 29.2984C37.2584 29.1786 36.8493 28.8387 36.581 28.5636L36.5677 28.5474C36.2282 28.1978 36.0079 27.8417 35.9996 27.8271C35.9003 27.7802 35.7678 27.7235 35.6154 27.675C35.5193 27.6442 35.3388 27.5924 35.2013 27.6005C35.1864 27.6005 35.1715 27.6054 35.155 27.6086C35.1964 27.7073 35.7727 28.9876 36.8228 29.4975C36.8443 29.5072 36.8658 29.525 36.8609 29.5412C36.8592 29.546 36.8543 29.5476 36.8509 29.5476C36.8543 29.5476 36.8576 29.5476 36.8592 29.5444C36.8592 29.5444 36.8576 29.546 36.8559 29.5476C36.846 29.5557 36.8377 29.559 36.8079 29.5654H36.8046C36.8046 29.5654 36.7946 29.5687 36.7913 29.5687H36.788C36.6787 29.5865 36.4468 29.5881 36.094 29.4861C35.4415 29.2984 35.0589 28.8112 35.0589 28.8112C35.0125 28.7562 34.9728 28.7011 34.933 28.6429C34.9247 28.6315 34.9165 28.6186 34.9098 28.6073C34.8734 28.5522 34.8419 28.4956 34.8121 28.4373C34.8055 28.426 34.8005 28.413 34.7956 28.4017C34.7856 28.3807 34.7757 28.3612 34.7658 28.3402H34.7691C34.5968 27.9582 34.5504 27.5471 34.6001 27.1927C34.6713 26.6828 34.9645 26.3106 34.9645 26.3106C34.9645 26.3106 35.0506 26.1956 35.1666 26.1438C35.1931 26.1309 35.2212 26.1212 35.2477 26.1115C35.2974 26.0953 35.3587 26.0823 35.4183 26.0726C35.4051 26.0726 35.3935 26.0759 35.3802 26.0791C35.3802 26.0791 35.3802 26.0759 35.3802 26.0742C35.3802 26.0726 35.3802 26.0662 35.3819 26.0581C35.3819 26.05 35.3852 26.0403 35.3885 26.0273C35.3885 26.0273 35.3885 26.0273 35.3885 26.0257C35.3951 26.0014 35.4067 25.969 35.4249 25.9318C35.4266 25.927 35.4299 25.9221 35.4332 25.9172C35.4398 25.9043 35.4498 25.8897 35.4581 25.8752C35.4614 25.8703 35.4647 25.8638 35.4696 25.859C35.4829 25.8412 35.4961 25.8234 35.5127 25.804C35.5127 25.804 35.516 25.8007 35.516 25.7991C35.516 25.7991 35.5193 25.7959 35.5193 25.7942C35.5193 25.7942 35.521 25.7926 35.5226 25.791C35.5226 25.791 35.521 25.7926 35.5193 25.7942C35.521 25.7942 35.5226 25.791 35.5243 25.7894C35.5624 25.7489 35.6071 25.7101 35.6667 25.6728C35.67 25.6712 35.6734 25.668 35.6767 25.6664C35.6949 25.655 35.7148 25.6437 35.738 25.6324C35.7495 25.6259 35.7628 25.6194 35.7744 25.6146C35.7876 25.6081 35.8009 25.6016 35.8175 25.5935C35.8191 25.5935 35.8224 25.5919 35.8241 25.5903C35.8373 25.5838 35.8506 25.579 35.8638 25.5725C35.8738 25.5676 35.8837 25.5644 35.8936 25.5596C35.9201 25.5498 35.9466 25.5385 35.9765 25.5288C35.988 25.5239 36.0013 25.5207 36.0129 25.5175C36.0311 25.511 36.051 25.5045 36.0709 25.4997C36.0858 25.4948 36.1007 25.4916 36.1156 25.4867C36.1338 25.4819 36.1537 25.477 36.1735 25.4722C36.1901 25.4689 36.205 25.4641 36.2216 25.4608C36.2414 25.456 36.263 25.4527 36.2829 25.4479C36.2994 25.4446 36.316 25.4414 36.3342 25.4382C36.3574 25.4349 36.3789 25.4317 36.4021 25.4285C36.4187 25.4268 36.4352 25.4236 36.4518 25.422C36.4783 25.4187 36.5064 25.4171 36.5346 25.4139C36.5495 25.4139 36.5628 25.4106 36.5777 25.4106C36.6207 25.4074 36.6638 25.4058 36.7068 25.4058C36.7151 25.4058 36.7234 25.4058 36.7317 25.4058C36.7681 25.4058 36.8046 25.4058 36.8427 25.409C36.8576 25.409 36.8741 25.4123 36.8907 25.4123C36.9222 25.4139 36.952 25.4171 36.9834 25.4204C37.0017 25.422 37.0199 25.4252 37.0381 25.4285C37.0679 25.4333 37.0994 25.4382 37.1292 25.443C37.1474 25.4463 37.1673 25.4495 37.1855 25.4543C37.217 25.4608 37.2484 25.4689 37.2799 25.477C37.2981 25.4819 37.3163 25.4867 37.3362 25.4916C37.371 25.5013 37.4041 25.5126 37.4389 25.5239C37.4555 25.5288 37.4704 25.5337 37.4869 25.5401C37.5383 25.5579 37.5896 25.579 37.641 25.6016C38.4227 25.9529 38.797 26.7346 38.8334 27.2153C38.8334 27.2315 38.8318 27.2444 38.8285 27.2525L38.8301 27.2574Z" fill="black"/>
<path d="M36.627 26.3448C36.5939 26.3286 36.5608 26.3124 36.5293 26.2979C36.5608 26.3124 36.5939 26.3302 36.627 26.3448Z" fill="black"/>
<path d="M37.8066 27.1235C37.2401 26.6703 36.624 26.2996 36.1338 26.1523C36.624 26.3012 37.2401 26.6703 37.8066 27.1235Z" fill="black"/>
<path d="M36.8191 26.4434C36.7926 26.4289 36.7677 26.4143 36.7412 26.4014C36.7661 26.4143 36.7926 26.4289 36.8191 26.4434Z" fill="black"/>
<path d="M32.3393 26.3588L31.4499 16.7026C31.3207 15.309 30.7179 14.4447 29.6562 14.1307C29.2405 14.0077 28.747 13.9705 28.1921 14.0207L26.7777 14.1469C26.6916 14.155 26.6303 14.2278 26.6369 14.312L27.7698 26.5821C27.8427 27.3574 27.692 27.9611 27.3243 28.3755C26.9566 28.7914 26.3504 29.0407 25.524 29.1135C24.2056 29.2301 23.1456 29.107 22.3755 28.7477C22.3506 28.7364 22.3225 28.7315 22.2943 28.7332L22.1403 28.7461C22.0542 28.7542 21.9929 28.827 21.9995 28.9112L22.1751 30.8049C22.2397 31.4976 22.6802 32.0625 23.4868 32.4833C23.7286 32.6079 23.987 32.7099 24.2553 32.7892C24.9078 32.9818 25.6531 33.0417 26.4697 32.9689C28.5747 32.7827 30.163 32.0544 31.1882 30.8065C32.1174 29.6493 32.5033 28.1521 32.3377 26.3571L32.3393 26.3588Z" fill="black"/>
<path d="M32.3393 26.3588L31.4499 16.7026C31.3207 15.309 30.7179 14.4447 29.6562 14.1307C29.2405 14.0077 28.747 13.9705 28.1921 14.0207L26.7777 14.1469C26.6916 14.155 26.6303 14.2278 26.6369 14.312L27.7698 26.5821C27.8427 27.3574 27.692 27.9611 27.3243 28.3755C26.9566 28.7914 26.3504 29.0407 25.524 29.1135C24.2056 29.2301 23.1456 29.107 22.3755 28.7477C22.3506 28.7364 22.3225 28.7315 22.2943 28.7332L22.1403 28.7461C22.0542 28.7542 21.9929 28.827 21.9995 28.9112L22.1751 30.8049C22.2397 31.4976 22.6802 32.0625 23.4868 32.4833C23.7286 32.6079 23.987 32.7099 24.2553 32.7892C24.9078 32.9818 25.6531 33.0417 26.4697 32.9689C28.5747 32.7827 30.163 32.0544 31.1882 30.8065C32.1174 29.6493 32.5033 28.1521 32.3377 26.3571L32.3393 26.3588Z" fill="black"/>
<path d="M77.7821 31.385C77.05 31.1697 76.4074 30.8282 75.8708 30.3686C74.9516 29.5706 74.5177 28.5736 74.5789 27.4034C74.6435 26.1846 75.1818 25.2475 76.1822 24.6211C77.2637 23.943 78.9066 23.6549 81.0647 23.7617L81.8763 23.8022C81.9011 22.8408 81.4771 22.2451 80.5844 21.9829C80.3062 21.9004 79.9782 21.8502 79.6089 21.8308C78.6731 21.7838 77.8351 21.8988 77.1179 22.1691C76.5714 22.3633 76.159 22.6158 75.884 22.9201L75.8062 23.0075L75.3309 22.9816L75.3938 21.7984C75.4385 20.9649 75.8459 20.2624 76.6078 19.7105C77.4806 19.089 78.693 18.8122 80.2151 18.8883C80.8444 18.919 81.4258 19.0129 81.9425 19.1651C82.716 19.3933 83.3718 19.7607 83.8935 20.2576C84.9303 21.2497 85.404 22.7517 85.2997 24.7215L85.1556 27.4487C85.086 28.7581 84.5726 29.8215 83.6269 30.6113C82.6861 31.398 81.4937 31.7605 80.0842 31.6893L79.4764 31.6585C78.8669 31.6278 78.2972 31.5355 77.7837 31.3834L77.7821 31.385ZM80.9272 26.3514C79.8789 26.2996 79.1236 26.3773 78.6864 26.5844C78.3551 26.7544 78.1796 27.0473 78.1564 27.4714C78.1233 28.0929 78.4147 28.4733 79.0723 28.6659C79.3141 28.7371 79.6056 28.7808 79.9401 28.7986C80.5165 28.8277 80.9554 28.7177 81.2419 28.4733C81.5268 28.2305 81.6858 27.8356 81.7139 27.2966L81.762 26.3918L80.9256 26.3497L80.9272 26.3514Z" fill="black"/>
<path d="M87.184 31.2115C86.6805 31.0626 86.2218 30.8457 85.8193 30.5657C85.0641 30.0186 84.703 29.3955 84.7444 28.7157L84.8388 27.1765L85.2893 27.2024L85.3556 27.2703C85.7762 27.7009 86.341 28.0213 87.0383 28.2269C87.5136 28.3661 88.0602 28.4567 88.663 28.4907C90.5561 28.6008 90.6025 27.8336 90.619 27.5827C90.6339 27.3286 90.5379 27.1441 90.3176 27.0033C90.1536 26.8964 89.8953 26.7912 89.5491 26.6893C89.2493 26.6003 88.8783 26.5145 88.4494 26.4319C88.1479 26.372 87.8664 26.3041 87.6047 26.2264C85.6123 25.6388 84.6517 24.5253 84.7494 22.9181C84.8206 21.7414 85.3721 20.7687 86.3924 20.0274C87.4291 19.257 88.726 18.909 90.248 18.998C90.788 19.0304 91.2848 19.1113 91.7221 19.2392C92.315 19.414 92.8218 19.6826 93.2276 20.0371C93.8387 20.5761 94.1253 21.2105 94.0805 21.9227L94.001 23.2499L93.5456 23.2224L93.4777 23.1479C93.0951 22.7271 92.5601 22.4131 91.8877 22.214C91.4405 22.0829 90.9238 21.9988 90.3507 21.9648C89.6104 21.9227 89.0506 21.9874 88.6846 22.159C88.3583 22.3128 88.1976 22.5426 88.1761 22.8825C88.1629 23.0913 88.2473 23.2337 88.4494 23.347C88.5984 23.4344 88.8452 23.5283 89.1881 23.6302C89.4829 23.7176 89.8439 23.8083 90.2729 23.9022C90.5097 23.9539 90.735 24.0122 90.9486 24.0753C93.0901 24.7066 94.1219 25.9043 94.0159 27.6329C93.9331 28.9957 93.4263 30.0121 92.5088 30.6531C91.6078 31.2827 90.2961 31.5514 88.61 31.4526C88.0983 31.4235 87.618 31.3426 87.1824 31.2147L87.184 31.2115Z" fill="black"/>
<path d="M95.0424 31.4965C94.1 31.2181 93.628 30.4962 93.6429 29.3519L93.8367 15.1201L95.0358 15.1347C95.4035 15.1395 95.7331 15.1849 96.0163 15.2674C96.6622 15.4584 97.429 15.9666 97.4108 17.3149L97.3727 20.0324C97.5765 19.8284 97.8083 19.6439 98.0684 19.4788C98.6397 19.1066 99.2244 18.9204 99.8024 18.9285C100.531 18.9382 101.194 19.0289 101.77 19.1988C103.95 19.8414 105.034 21.6169 104.996 24.4785L104.897 31.736L103.651 31.7198C103.32 31.715 103.019 31.6745 102.759 31.5984C101.82 31.3217 101.353 30.5998 101.369 29.4523L101.435 24.5659C101.447 23.7016 101.242 23.0461 100.826 22.6139C100.611 22.3987 100.342 22.2417 100.028 22.1494C99.8057 22.0847 99.554 22.0491 99.2807 22.0458C98.7722 22.0394 98.3532 22.2125 97.9988 22.5751C97.5367 23.0283 97.2999 23.7097 97.2883 24.6015L97.1922 31.6373L95.9484 31.6211C95.6105 31.6162 95.3058 31.5742 95.0408 31.4965H95.0424Z" fill="black"/>
</g>
<defs>
<clipPath id="clip0_8538_134276">
<rect width="83" height="19" fill="white" transform="translate(22 14)"/>
</clipPath>
</defs>
</svg>
