<svg width="84" height="32" viewBox="0 0 84 32" fill="none" xmlns="http://www.w3.org/2000/svg">
<path d="M31.7158 8.68754C31.6118 8.72919 31.6326 8.8385 31.591 8.91658C31.3412 9.39027 30.9718 9.69218 30.4255 9.73382C30.2954 9.74423 30.1601 9.75464 30.03 9.75464C20.6956 9.75464 11.361 9.75464 2.02658 9.75464C1.61032 9.75464 1.2149 9.7182 0.876699 9.43711C0.0233803 8.73439 0.205471 7.46428 1.2461 6.98018C2.51047 6.39718 3.78528 5.83501 5.05485 5.26242C8.44731 3.73725 11.8397 2.21207 15.2322 0.686904C15.4143 0.603619 15.6017 0.535949 15.789 0.463074C15.9503 0.463074 16.1167 0.463074 16.278 0.463074C16.9388 0.551565 17.5008 0.905529 18.0887 1.1658C20.0867 2.05591 22.0743 2.95124 24.0672 3.85176C25.8258 4.64818 27.5897 5.43419 29.3432 6.23061C29.8062 6.44403 30.2746 6.65225 30.7429 6.85526C31.284 7.0895 31.6742 7.43305 31.721 8.05769V8.67193L31.7158 8.68754Z" fill="#848484"/>
<path d="M31.7162 30.7603C31.6121 30.8019 31.6278 30.9112 31.5913 30.9893C31.3312 31.5359 30.8993 31.8274 30.2958 31.8638C30.2437 31.8638 30.1917 31.8638 30.1448 31.8638C20.7323 31.8638 11.3146 31.8638 1.90208 31.8638C1.17363 31.8638 0.622105 31.5098 0.413979 30.9112C0.0965864 29.9951 0.720971 29.0789 1.71998 28.9957C1.83965 28.9852 1.96451 28.9957 2.08938 28.9957C11.351 28.9957 20.6126 28.9957 29.8743 28.9957C30.9773 28.9957 31.326 29.2247 31.7162 30.2137V30.7655V30.7603Z" fill="#848484"/>
<path d="M28.4902 25.2963C28.2092 25.2963 28.1416 25.2182 28.1416 24.9423C28.152 20.8977 28.1468 16.8532 28.1416 12.8086C28.1416 12.5796 28.1416 12.4338 28.4486 12.4547C28.7712 12.4703 29.0365 12.3037 29.1562 11.9758C29.2498 11.7103 29.1926 11.4656 29.0053 11.2626C28.8024 11.0388 28.5266 11.018 28.2456 11.018C22.0174 11.018 15.7893 11.018 9.56113 11.018C7.59954 11.018 5.63792 11.018 3.68153 11.018C3.17162 11.018 2.85423 11.2834 2.83341 11.7051C2.8178 12.1371 3.10397 12.4494 3.60868 12.4547C3.87404 12.4547 3.88967 12.5588 3.88967 12.7722C3.88967 16.8376 3.88967 20.903 3.88967 24.9683C3.88967 25.0204 3.88967 25.0724 3.88967 25.1193C3.90528 25.2598 3.83759 25.3015 3.71272 25.2859C3.63467 25.2807 3.55143 25.2859 3.46818 25.2911C2.40154 25.3431 1.77716 26.4779 2.29747 27.4097C2.62007 27.9822 3.14562 28.154 3.7648 28.154C7.83887 28.154 11.9129 28.154 15.987 28.154C20.0611 28.154 24.1143 28.154 28.178 28.154C28.3185 28.154 28.4642 28.1488 28.6047 28.128C29.3904 28.0343 29.9523 27.4044 29.9159 26.6653C29.8795 25.8845 29.2863 25.3015 28.4798 25.2963H28.4902ZM10.7162 25.2963C9.48827 25.2807 8.26549 25.2807 7.03754 25.2963C6.7982 25.2963 6.75662 25.2286 6.75662 25.0048C6.76182 20.9186 6.76182 16.8324 6.75662 12.7462C6.75662 12.5171 6.81381 12.4599 7.04275 12.4651C8.2759 12.4755 9.51425 12.4755 10.7474 12.4651C10.9659 12.4651 11.018 12.5223 11.0128 12.7357C11.0024 14.7919 11.0128 16.8428 11.0128 18.8989C11.0128 20.955 11.0128 22.9643 11.018 24.9996C11.018 25.239 10.9608 25.3067 10.7162 25.3015V25.2963ZM17.8601 25.2963C16.627 25.2859 15.3886 25.2859 14.1555 25.2963C13.9214 25.2963 13.8745 25.2338 13.8745 25.01C13.8849 22.9591 13.8797 20.903 13.8797 18.852C13.8797 16.8011 13.8797 14.8075 13.8745 12.7878C13.8745 12.5484 13.9109 12.4599 14.1815 12.4651C15.4146 12.4807 16.653 12.4755 17.8862 12.4651C18.0943 12.4651 18.1619 12.5171 18.1619 12.7357C18.1567 16.8324 18.1567 20.9238 18.1619 25.0204C18.1619 25.265 18.0787 25.2963 17.8653 25.2963H17.8601ZM25.2851 24.9735C25.2851 25.213 25.2486 25.3015 24.978 25.3015C23.7449 25.2859 22.5065 25.2911 21.2734 25.3015C21.0757 25.3015 21.0132 25.2546 21.0132 25.0516C21.0184 20.9446 21.0184 16.8376 21.0132 12.7305C21.0132 12.5327 21.0601 12.4703 21.2682 12.4703C22.5118 12.4807 23.7605 12.4807 25.0041 12.4703C25.2278 12.4703 25.2903 12.5171 25.2903 12.7514C25.2799 14.8023 25.2851 16.8584 25.2851 18.9093C25.2851 20.9602 25.2851 22.9539 25.2903 24.9788L25.2851 24.9735Z" fill="#848484"/>
<path d="M39.5881 6.4226C40.0772 6.33411 41.0606 6.25082 42.0024 6.25082C43.1419 6.25082 43.8391 6.36014 44.4531 6.71931C45.0306 7.02642 45.4313 7.5886 45.4313 8.34858C45.4313 9.10857 45.0046 9.74362 44.0733 10.1028V10.1288C45.015 10.3735 45.7175 11.097 45.7175 12.1485C45.7175 12.9085 45.3741 13.4967 44.8589 13.9131C44.2606 14.392 43.2564 14.6627 41.6122 14.6627C40.6912 14.6627 40.0096 14.6002 39.5933 14.5378V6.4226H39.5881ZM41.4404 9.58225H42.0544C43.0482 9.58225 43.5634 9.17624 43.5634 8.56721C43.5634 7.95818 43.0846 7.60942 42.2417 7.60942C41.8255 7.60942 41.5913 7.63545 41.4456 7.65627V9.58225H41.4404ZM41.4404 13.2468C41.6225 13.2729 41.8463 13.2729 42.1637 13.2729C43.0066 13.2729 43.7559 12.9397 43.7559 12.0704C43.7559 11.248 43.0066 10.92 42.0753 10.92H41.4404V13.2468Z" fill="#848484"/>
<path d="M51.946 13.1239C51.946 13.6861 51.972 14.2379 52.0448 14.571H50.3642L50.2549 13.9724H50.2185C49.8282 14.4513 49.2143 14.7064 48.5015 14.7064C47.2891 14.7064 46.5659 13.8267 46.5659 12.8689C46.5659 11.3125 47.9603 10.5785 50.0832 10.5785V10.5056C50.0832 10.1725 49.9115 9.71964 48.9905 9.71964C48.3766 9.71964 47.7314 9.92785 47.336 10.1725L46.9925 8.97007C47.4088 8.73583 48.2309 8.42871 49.3183 8.42871C51.3164 8.42871 51.9408 9.60512 51.9408 11.0262V13.1239H51.946ZM50.1457 11.7393C49.1675 11.7393 48.4078 11.9736 48.4078 12.6815C48.4078 13.1604 48.7252 13.3946 49.1415 13.3946C49.5941 13.3946 49.9844 13.0875 50.1092 12.7075C50.1353 12.6086 50.1457 12.4993 50.1457 12.39V11.7393Z" fill="#848484"/>
<path d="M53.4286 10.4874C53.4286 9.73779 53.4026 9.11314 53.3818 8.57699H55L55.0833 9.40985H55.1197C55.3642 9.01945 55.9626 8.44165 56.9668 8.44165C58.1896 8.44165 59.1105 9.2641 59.1105 11.0287V14.5684H57.2477V11.2473C57.2477 10.4769 56.9772 9.946 56.306 9.946C55.7909 9.946 55.4839 10.3 55.3486 10.6435C55.3018 10.7684 55.2861 10.935 55.2861 11.1068V14.5632H53.4234V10.4822L53.4286 10.4874Z" fill="#848484"/>
<path d="M62.472 11.1012H62.498C62.6333 10.8462 62.779 10.5963 62.9247 10.3777L64.137 8.57662H66.3796L64.2359 11.0023L66.6865 14.568H64.3971L62.9403 12.1058L62.4772 12.6941V14.568H60.6145V5.86462H62.4772V11.096L62.472 11.1012Z" fill="#848484"/>
<path d="M41.1909 22.5836H38.9587V21.0168H45.3066V22.5836H43.0536V29.2725H41.1909V22.5836Z" fill="#848484"/>
<path d="M45.5771 25.2596C45.5771 24.3799 45.5667 23.8021 45.5303 23.2867H47.1225L47.1953 24.3903H47.2421C47.5491 23.5054 48.2724 23.141 48.8603 23.141C49.032 23.141 49.1153 23.1514 49.2505 23.1774V24.9316C49.1049 24.9056 48.9592 24.8848 48.7511 24.8848C48.0642 24.8848 47.6012 25.2544 47.4763 25.827C47.4503 25.9519 47.4399 26.0976 47.4399 26.2434V29.2833H45.5771V25.2648V25.2596Z" fill="#848484"/>
<path d="M55.0835 27.8309C55.0835 28.393 55.1095 28.9448 55.1823 29.2779H53.5017L53.3925 28.6793H53.356C52.9658 29.1582 52.3518 29.4133 51.639 29.4133C50.4267 29.4133 49.7034 28.5336 49.7034 27.5758C49.7034 26.0194 51.0978 25.2854 53.2207 25.2854V25.2126C53.2207 24.8794 53.049 24.4265 52.1281 24.4265C51.5141 24.4265 50.8689 24.6348 50.4734 24.8794L50.1301 23.677C50.5463 23.4427 51.3684 23.1356 52.4559 23.1356C54.4539 23.1356 55.0783 24.312 55.0783 25.7331V27.8309H55.0835ZM53.2831 26.4462C52.305 26.4462 51.5453 26.6805 51.5453 27.3884C51.5453 27.8673 51.8627 28.1015 52.279 28.1015C52.7316 28.1015 53.1219 27.7944 53.2468 27.4144C53.2728 27.3155 53.2831 27.2062 53.2831 27.0969V26.4462Z" fill="#848484"/>
<path d="M56.5663 25.1982C56.5663 24.4486 56.5403 23.824 56.5195 23.2878H58.1377L58.2209 24.1207H58.2574C58.5019 23.7303 59.1002 23.1525 60.1045 23.1525C61.3272 23.1525 62.2482 23.9749 62.2482 25.7395V29.2792H60.3854V25.9582C60.3854 25.1878 60.1149 24.6568 59.4437 24.6568C58.9286 24.6568 58.6216 25.0108 58.4863 25.3543C58.4394 25.4793 58.4238 25.6458 58.4238 25.8176V29.274H56.5611V25.193L56.5663 25.1982Z" fill="#848484"/>
<path d="M63.7363 27.6592C64.0797 27.8675 64.7873 28.1017 65.3389 28.1017C65.8904 28.1017 66.135 27.9195 66.135 27.6124C66.135 27.3053 65.9528 27.1491 65.266 26.9149C64.0173 26.4984 63.5386 25.8218 63.549 25.1138C63.549 23.9843 64.5064 23.141 65.9893 23.141C66.6865 23.141 67.3005 23.3128 67.6699 23.495L67.3525 24.7807C67.0819 24.6349 66.5564 24.4371 66.0517 24.4371C65.599 24.4371 65.3389 24.6193 65.3389 24.916C65.3389 25.2127 65.573 25.3585 66.3067 25.6135C67.4462 26.0039 67.9092 26.5921 67.9248 27.4666C67.9248 28.5962 67.0559 29.4135 65.3389 29.4135C64.5532 29.4135 63.856 29.2313 63.4033 28.9866L63.7363 27.6645V27.6592Z" fill="#848484"/>
<path d="M69.2826 29.277V24.6547H68.4866V23.2805H69.2826V23.0462C69.2826 22.3227 69.5012 21.5262 70.0319 21.0369C70.5106 20.5945 71.1453 20.4383 71.6969 20.4383C72.1027 20.4383 72.4201 20.5008 72.6751 20.5633L72.6022 21.9947C72.4409 21.9479 72.2484 21.9114 72.0038 21.9114C71.3899 21.9114 71.135 22.3903 71.135 22.9785V23.2857H72.3369V24.6599H71.1506V29.2822H69.2878L69.2826 29.277Z" fill="#848484"/>
<path d="M74.5535 26.8732C74.6004 27.6435 75.3756 28.0131 76.2446 28.0131C76.8793 28.0131 77.3945 27.9298 77.8992 27.7581L78.1437 29.0178C77.5297 29.2728 76.7857 29.3978 75.974 29.3978C73.9395 29.3978 72.7793 28.2213 72.7793 26.3474C72.7793 24.8274 73.721 23.1461 75.8075 23.1461C77.7431 23.1461 78.4767 24.6557 78.4767 26.134C78.4767 26.4515 78.4403 26.7326 78.4143 26.8679H74.5535V26.8732ZM76.7441 25.5978C76.7441 25.145 76.5464 24.385 75.6931 24.385C74.9074 24.385 74.5899 25.1085 74.5431 25.5978H76.7492H76.7441Z" fill="#848484"/>
<path d="M79.5903 25.2596C79.5903 24.3799 79.5799 23.8021 79.5435 23.2867H81.1356L81.2084 24.3903H81.2553C81.5622 23.5054 82.2855 23.141 82.8734 23.141C83.0451 23.141 83.1284 23.1514 83.2637 23.1774V24.9316C83.118 24.9056 82.9723 24.8848 82.7642 24.8848C82.0774 24.8848 81.6143 25.2544 81.4894 25.827C81.4634 25.9519 81.453 26.0976 81.453 26.2434V29.2833H79.5903V25.2648V25.2596Z" fill="#848484"/>
</svg>
