<svg width="27" height="23" viewBox="0 0 27 23" fill="none" xmlns="http://www.w3.org/2000/svg">
<path d="M26.4241 10.5374C26.0952 7.1032 23.0453 4.58667 19.6125 4.91826C19.4969 4.92855 19.3813 4.94397 19.2682 4.96196C18.2276 5.10848 17.2435 5.52233 16.4084 6.15982C16.7348 7.34226 16.9994 8.53241 17.2204 9.73541C17.9989 8.09028 19.9645 7.38853 21.6115 8.16739C23.256 8.94626 23.9574 10.9127 23.1789 12.5604C22.6162 13.748 21.4034 14.4883 20.0904 14.4446C19.2091 14.4266 18.3741 14.0487 17.7805 13.401C17.8525 13.9793 17.9218 14.5628 17.9886 15.1489C18.0298 15.1823 18.0734 15.2106 18.1223 15.2363C18.3843 15.3751 18.6567 15.4908 18.9368 15.5808C19.0138 15.6013 19.0986 15.6193 19.0704 15.7144C19.0267 15.9226 18.9856 16.1077 18.9496 16.2954C18.9265 16.4085 18.8571 16.4059 18.7698 16.3802C18.5359 16.3082 18.3175 16.226 18.0991 16.1334C18.1325 16.447 18.1659 16.7632 18.1993 17.0665C18.8211 17.2722 19.4686 17.3827 20.1238 17.393C21.0925 17.4161 22.0509 17.2027 22.9194 16.7735C24.2863 16.118 25.368 14.9895 25.9641 13.5937C26.1646 13.0848 26.3162 12.5604 26.4189 12.0232L26.46 10.6814C26.4292 10.6402 26.4292 10.5914 26.4292 10.5451L26.4241 10.5374ZM19.4352 6.5891C18.8802 6.66878 18.3509 6.86671 17.8782 7.17003C17.8062 7.21373 17.7471 7.22401 17.6957 7.14176C17.5904 6.97982 17.485 6.82301 17.3771 6.67649C17.3206 6.59167 17.354 6.54797 17.4311 6.50684C18.0272 6.1701 18.6773 5.93362 19.3504 5.80766C19.4378 5.79224 19.4866 5.80766 19.4969 5.91048C19.5175 6.09299 19.5431 6.27292 19.5663 6.458C19.5894 6.56596 19.5097 6.58139 19.4327 6.59167L19.4352 6.5891ZM23.2072 6.93098C23.0941 7.0595 22.9913 7.19574 22.8937 7.33712C22.8269 7.42708 22.7678 7.45022 22.6599 7.37567C22.2847 7.09549 21.8633 6.88471 21.4111 6.76132C21.3161 6.73305 21.2492 6.69449 21.2749 6.58396C21.3135 6.39631 21.3572 6.21123 21.3957 6.02358C21.3957 5.96703 21.424 5.91819 21.5011 5.93105C21.6629 5.98503 21.8274 6.03387 21.9867 6.09299C22.3978 6.24465 22.7935 6.43744 23.166 6.66878C23.2868 6.74847 23.3253 6.81016 23.2174 6.93098H23.2097H23.2072ZM22.9065 15.8044C22.4055 16.0692 21.8633 16.2439 21.3032 16.3211C21.1902 16.3365 21.1619 16.2902 21.149 16.2002C21.1336 16.0512 21.1131 15.8995 21.0951 15.717C21.0745 15.6476 21.1285 15.6039 21.2184 15.5833C21.6526 15.4779 22.0715 15.316 22.462 15.1001C22.5468 15.0589 22.5982 15.0461 22.6547 15.1386C22.7524 15.3006 22.8603 15.4574 22.9682 15.6039C23.0144 15.699 23.0067 15.7504 22.9091 15.7992H22.9014L22.9065 15.8044ZM24.1733 8.49385C24.3069 8.40902 24.4379 8.32419 24.5638 8.23166C24.6897 8.13912 24.7205 8.18282 24.7822 8.28307C25.1317 8.85372 25.3629 9.48607 25.4657 10.1467C25.4862 10.2778 25.4657 10.3343 25.3295 10.3472L24.7437 10.4115C24.7103 10.4115 24.6923 10.3498 24.682 10.2804C24.5818 9.72512 24.3891 9.18789 24.1167 8.69435C24.0705 8.58639 24.0936 8.54269 24.1784 8.49385H24.1707H24.1733ZM25.1985 13.1311C25.0597 13.4215 24.8953 13.7017 24.7103 13.9639C24.6255 14.0796 24.5587 14.0821 24.4585 13.9973C24.3223 13.8816 24.1219 13.7968 24.0628 13.6529C24.0037 13.5089 24.1964 13.347 24.2709 13.1876C24.4276 12.8843 24.5587 12.5681 24.6589 12.2417C24.6949 12.1234 24.7462 12.0823 24.8721 12.1183C25.034 12.1671 25.2062 12.1902 25.3732 12.2262C25.4348 12.2262 25.4914 12.2468 25.4862 12.3213C25.4246 12.6015 25.3295 12.874 25.2062 13.1336H25.1985V13.1311Z" fill="white"/>
<path d="M22.603 11.2135C22.5645 12.5476 21.4519 13.5964 20.1184 13.5578C20.1133 13.5578 20.1081 13.5578 20.103 13.5578C18.7669 13.5424 17.6954 12.4474 17.7109 11.1107C17.7263 9.77405 18.8208 8.70215 20.157 8.71757C20.1981 8.71757 20.2366 8.71757 20.2777 8.72271C21.6035 8.76384 22.6442 9.8743 22.603 11.2007C22.603 11.2058 22.603 11.211 22.603 11.2187V11.2135Z" fill="white"/>
<path d="M0.704102 3.88768C0.704102 2.64869 1.49292 1.66419 2.63888 1.49196C5.08498 1.12181 7.53107 0.792783 9.99001 0.438052C10.8585 0.314667 11.7295 0.204135 12.598 0.0730391C13.9444 -0.135173 15.1237 0.669398 15.3241 2.01635C15.7635 4.97244 16.1695 7.92853 16.5857 10.8872C16.9223 13.2701 17.2435 15.6581 17.5904 18.0384C17.7857 19.375 17.0534 20.5472 15.7275 20.7682C13.5615 21.1255 11.3826 21.4057 9.20377 21.7142C8.0578 21.8761 6.90927 22.0278 5.7633 22.2026C4.38609 22.4108 3.217 21.6114 3.00888 20.2259C2.57208 17.3083 2.16868 14.3831 1.755 11.4604C1.4184 9.08012 1.09209 6.69211 0.75806 4.31182C0.737504 4.13702 0.714379 3.96223 0.704102 3.88768ZM12.3333 10.0158C12.3642 9.29347 11.9453 8.62514 11.2824 8.33467C10.6041 7.98251 9.77932 8.09047 9.21918 8.60972C9.00849 8.79479 8.85432 8.91561 8.53315 8.77166C7.5285 8.31925 6.52385 8.62771 6.01768 9.4914C5.5115 10.3551 5.72219 11.355 6.60864 12.0542C7.27156 12.5734 7.94475 13.0824 8.62565 13.5811C9.29627 14.0721 9.84355 14.0027 10.36 13.3472C10.915 12.648 11.4417 11.918 11.9916 11.2034C12.2408 10.8589 12.3616 10.4399 12.3333 10.0158ZM15.5631 17.0076C15.5759 16.6451 15.4552 16.4832 15.2496 16.3907C15.0672 16.2878 14.8334 16.3521 14.728 16.5346C14.7203 16.5475 14.7152 16.5603 14.7075 16.5757C14.4737 17.2749 14.2141 17.5088 13.726 16.7377C13.5872 16.5629 13.3328 16.532 13.1555 16.6734C13.1401 16.6863 13.1247 16.7017 13.1093 16.7145C12.9089 16.8405 12.8498 17.1053 12.9783 17.3058C12.9808 17.3109 12.986 17.316 12.9885 17.3212C13.3508 17.861 13.7003 18.4085 14.0985 18.92C14.3323 19.2311 14.7229 19.2157 14.8822 18.8712C15.1725 18.2337 15.3653 17.5525 15.5605 17.0024V17.0076H15.5631ZM2.77763 5.26291C2.77763 5.63563 2.88041 5.82328 3.12964 5.89268C3.35575 5.95694 3.59728 5.84898 3.69748 5.63306C3.82852 5.42742 3.78741 5.05727 4.02123 5.00843C4.31415 4.94673 4.35783 5.34516 4.54796 5.50968C4.7381 5.67419 4.9231 5.77958 5.15949 5.62021C5.38046 5.51996 5.47553 5.25777 5.37275 5.03927C5.36504 5.02385 5.35733 5.00586 5.34706 4.99043C5.02331 4.4095 4.64303 3.86455 4.21137 3.35816C4.07262 3.15509 3.79769 3.10367 3.59728 3.24248C3.52019 3.29646 3.4611 3.37101 3.43026 3.45841C3.15277 4.05991 2.96777 4.72053 2.77763 5.26291Z" fill="white"/>
</svg>
