<svg width="96" height="19" viewBox="0 0 96 19" fill="none" xmlns="http://www.w3.org/2000/svg">
<g clip-path="url(#clip0_8589_132744)">
<path d="M35.2057 15.0171C37.0412 17.1585 38.7879 17.1159 40.2007 16.5338C41.4959 15.9943 42.1716 14.5627 41.9474 12.9609C41.9168 12.9746 41.8571 12.9746 41.8571 13.0035C41.0297 14.9031 38.9379 15.1737 37.2976 14.7481C35.838 14.3788 35.0848 13.3864 34.859 12.0262C34.7832 11.5293 34.738 11.0186 34.738 10.5095C34.7235 8.4533 34.738 6.41075 34.738 4.31348H37.3412C37.3557 4.49737 37.3718 4.69646 37.3718 4.89555V9.91531C37.3718 10.2694 37.4024 10.625 37.4621 10.9791C37.6734 12.312 38.5459 12.8363 39.9604 12.4822C41.1039 12.198 41.8716 11.2056 41.9474 9.74509C42.0233 8.18582 42.0071 6.62655 42.0233 5.06576V4.2998H44.5506C44.5812 4.38491 44.5957 4.47002 44.6103 4.5688C44.6103 7.61743 44.6861 10.6661 44.5812 13.7147C44.4458 17.3165 41.1959 19.5141 37.4331 18.6782C36.1847 18.394 35.0396 17.9259 34.138 17.0338C33.8671 16.7648 33.8219 16.5658 34.1074 16.2679C34.4993 15.8986 34.8138 15.4731 35.2057 15.0202V15.0171Z" fill="#848484"/>
<path d="M19.5256 4.42426V5.98353C18.7128 4.87715 17.5547 4.18262 16.2596 4.18262C13.8371 4.18262 11.8662 6.6355 11.8662 9.65526C11.8662 12.675 13.8371 15.1279 16.2596 15.1279C17.5531 15.1279 18.7128 14.4334 19.5256 13.327V15.1279H22.1739V4.42426H19.5256ZM17.0128 12.8756C15.5838 12.8756 14.4097 11.4288 14.4097 9.6431C14.4097 7.85739 15.5677 6.40906 17.0128 6.40906C18.4579 6.40906 19.616 7.85587 19.616 9.6431C19.616 11.4303 18.4579 12.8756 17.0128 12.8756Z" fill="#848484"/>
<path d="M65.662 4.42426V5.98353C64.8636 4.87715 63.6911 4.18262 62.396 4.18262C59.9735 4.18262 58.001 6.6355 58.001 9.65526C58.001 12.675 59.9719 15.1279 62.396 15.1279C63.6895 15.1279 64.8491 14.4334 65.662 13.327V15.1279H68.3103V4.42426H65.662ZM63.1637 12.8756C61.7347 12.8756 60.5606 11.4288 60.5606 9.6431C60.5606 7.85739 61.7186 6.40906 63.1637 6.40906C64.6088 6.40906 65.7668 7.85587 65.7668 9.6431C65.7668 11.4303 64.5927 12.8756 63.1637 12.8756Z" fill="#848484"/>
<path d="M93.3518 4.42426V5.98353C92.5534 4.87715 91.3809 4.18262 90.0858 4.18262C87.6633 4.18262 85.6924 6.6355 85.6924 9.65526C85.6924 12.675 87.6633 15.1279 90.0858 15.1279C91.3793 15.1279 92.5389 14.4334 93.3518 13.327V15.1279H96.0001V4.42426H93.3518ZM90.8535 12.8756C89.4245 12.8756 88.2504 11.4288 88.2504 9.6431C88.2504 7.85739 89.4084 6.40906 90.8535 6.40906C92.2986 6.40906 93.4566 7.85587 93.4566 9.6431C93.4566 11.4303 92.2825 12.8756 90.8535 12.8756Z" fill="#848484"/>
<path d="M70.2666 15.1294H72.9762V4.18262H70.2666V15.1294Z" fill="#848484"/>
<path d="M73.293 1.57447C73.293 0.705167 72.5446 0 71.6221 0C70.6995 0 69.9512 0.705167 69.9512 1.57447C69.9512 2.44377 70.6995 3.14894 71.6221 3.14894C72.5446 3.14894 73.293 2.44377 73.293 1.57447Z" fill="#848484"/>
<path d="M52.5419 4.35283C51.2774 4.35283 50.1339 4.97593 49.321 5.98353V4.18262H46.6582V19.0002H49.321V13.5124C50.1339 14.52 51.2774 15.1431 52.5419 15.1431C55.024 15.1431 57.0417 12.7328 57.0417 9.75405C57.0417 6.77532 55.0257 4.35283 52.5419 4.35283ZM51.7887 12.8741C50.6597 12.8741 49.7113 12.0656 49.321 10.903V8.60663C49.7129 7.45769 50.6758 6.6355 51.7887 6.6355C53.2628 6.6355 54.4515 8.02456 54.4515 9.75405C54.4515 11.4835 53.2483 12.8741 51.7887 12.8741Z" fill="#848484"/>
<path d="M31.3236 8.05298L33.2203 7.11681C33.1897 6.29462 32.6026 5.54234 31.8655 5.10313C31.1284 4.66392 30.2398 4.48003 29.3527 4.39341C27.9382 4.25207 26.4189 4.36453 25.2593 5.11681C24.0996 5.86757 23.4077 7.42836 24.0706 8.60465C24.6125 9.58338 25.8157 10.0363 26.9592 10.2354C28.1027 10.4344 29.3059 10.5043 30.3301 11.0013C30.5865 11.129 30.8575 11.3129 30.872 11.5834C30.8865 11.8524 30.6914 12.0651 30.4962 12.2354C29.1414 13.2992 27.1253 13.129 25.9963 11.8524C25.6802 11.4846 25.4399 11.0575 25.3351 10.591L23.2432 11.6259C22.8061 11.8524 24.4319 13.7536 24.6432 13.9238C26.1931 15.2004 28.5253 15.398 30.4365 14.8037C31.7752 14.3782 33.0397 13.442 33.3106 12.1381C33.4767 11.3022 33.2203 10.436 32.6187 9.79918C31.972 9.13201 31.0236 8.82046 30.0752 8.63657C29.1269 8.45268 28.1785 8.39493 27.2608 8.12593C26.8689 8.01195 26.4173 7.75815 26.4334 7.35997C26.4479 7.00587 26.8689 6.77942 27.2302 6.66544C27.9979 6.4238 28.8398 6.32502 29.622 6.53778C30.4043 6.75055 31.1123 7.33262 31.322 8.0545L31.3236 8.05298Z" fill="#848484"/>
<path d="M82.457 8.05298L84.3521 7.11681C84.3231 6.29462 83.736 5.54234 82.9973 5.10313C82.2603 4.66392 81.3716 4.48003 80.4845 4.39341C79.0701 4.25207 77.5508 4.36453 76.3911 5.11681C75.2331 5.86757 74.5396 7.42836 75.2024 8.60465C75.7444 9.58338 76.9475 10.0363 78.0911 10.2354C79.2346 10.4344 80.4377 10.5043 81.4619 11.0013C81.7184 11.129 81.9877 11.3129 82.0038 11.5834C82.0183 11.8524 81.8232 12.0651 81.628 12.2354C80.2732 13.2992 78.2572 13.129 77.1282 11.8524C76.8121 11.4846 76.5717 11.0575 76.4669 10.591L74.3751 11.6259C73.938 11.8524 75.5637 13.7536 75.775 13.9238C77.325 15.2004 79.6571 15.398 81.5684 14.8037C82.907 14.3782 84.1715 13.442 84.4425 12.1381C84.6086 11.3022 84.3521 10.436 83.736 9.79918C83.0893 9.13201 82.1409 8.82046 81.1926 8.63657C80.2442 8.45268 79.2959 8.41012 78.3943 8.14113C78.0023 8.02714 77.5508 7.77183 77.5669 7.37517C77.5814 7.02107 78.004 6.79462 78.3636 6.68064C79.1313 6.439 79.9732 6.34021 80.7571 6.55298C81.5393 6.76575 82.2474 7.33262 82.457 8.05602V8.05298Z" fill="#848484"/>
<path d="M9.6091 6.04152C9.6091 6.04152 7.6382 3.20565 3.36415 4.62358C3.36415 4.62358 1.04649 5.21933 0.0078125 8.70717C0.0078125 8.70717 2.14484 11.926 7.35111 10.8911C7.35111 10.8911 11.8058 9.79988 9.6091 6.04152ZM6.81081 8.87738C5.93826 9.26036 4.61411 9.16158 3.6964 8.93361C3.63672 8.91994 2.44805 8.52176 2.50773 8.42298C3.38028 6.90626 5.65278 5.51568 7.23338 7.06127C7.3995 7.20261 7.51885 7.4017 7.57853 7.60079C7.71401 8.13878 7.30757 8.66462 6.81081 8.87738Z" fill="#848484"/>
<path d="M0.0244799 9.75488C0.0244799 9.75488 -0.486793 13.5558 3.25986 14.8035C7.0065 16.0512 9.9564 13.7686 10.829 12.3506L8.69193 11.1591C8.69193 11.1591 7.02102 14.4205 2.22118 12.3081C2.22118 12.3081 0.476078 11.3445 0.0244799 9.75488Z" fill="#848484"/>
</g>
<defs>
<clipPath id="clip0_8589_132744">
<rect width="96" height="19" fill="white"/>
</clipPath>
</defs>
</svg>
