<svg width="82" height="27" viewBox="0 0 82 27" fill="none" xmlns="http://www.w3.org/2000/svg">
<path d="M8.91868 7.19436C8.6632 6.96498 8.35663 6.78657 8.0245 6.63365C8.17779 6.5317 8.27998 6.45524 8.43327 6.37878C8.84204 6.14939 9.17416 5.81806 9.32745 5.33381C9.65957 4.28884 9.48074 3.32034 8.84204 2.4283C8.27998 1.6382 7.46245 1.30687 6.49163 1.30687C5.26532 1.23041 4.06457 1.23041 2.83827 1.23041H0.0790853L0.00244141 3.16742H0.89662V10.9155H0.00244141V12.776H6.08286C6.33834 12.776 6.56827 12.6995 6.82375 12.6995C7.53909 12.6231 8.20334 12.3682 8.7654 11.884C9.55738 11.2468 9.88951 10.4312 9.88951 9.4627C9.88951 8.57065 9.55738 7.75507 8.91868 7.19436ZM3.32368 3.09096C4.19231 3.16742 5.00984 3.09096 5.90402 3.16742C6.1595 3.16742 6.38943 3.34583 6.64491 3.49875C7.38581 3.983 7.38581 5.02797 6.64491 5.58868C6.33834 5.84355 6.00621 5.92001 5.59745 5.92001H3.32368V3.09096ZM6.1595 10.839H3.32368V7.62764H4.85656C5.26532 7.62764 5.75074 7.62764 6.1595 7.7041C6.72156 7.85702 7.30916 8.18835 7.46245 8.82552C7.76903 9.79403 7.13033 10.6861 6.1595 10.839Z" fill="#848484"/>
<path d="M11.8822 5.79295C11.1668 6.93986 11.0646 8.21421 11.3201 9.51404C11.6523 10.7884 12.291 11.8588 13.5173 12.496C14.4114 12.9803 15.3823 13.0567 16.3531 12.9038C17.5027 12.7254 18.3969 12.1647 19.0356 11.1962C19.2655 10.7884 19.4444 10.3806 19.521 9.89635H19.4444C18.8057 9.89635 18.0648 9.97281 17.4261 9.97281C17.3494 9.97281 17.2728 9.97281 17.2728 10.0493C17.0429 10.6864 16.5575 11.0942 15.8166 11.1707C14.999 11.2472 14.2837 11.0178 13.8749 10.2787C13.6961 9.94732 13.6194 9.64148 13.5428 9.31015C13.4662 9.15722 13.4662 8.97882 13.4662 8.82589H19.6999L19.751 8.77492C19.751 7.55155 19.4188 6.43012 18.7801 5.46161C17.0684 3.04035 13.3384 3.29522 11.8822 5.79295ZM17.3494 7.27119L13.6194 7.19473C13.6961 6.22622 14.7436 5.43613 15.7399 5.56356C16.7107 5.66551 17.4261 6.37915 17.3494 7.27119Z" fill="#848484"/>
<path d="M44.3284 5.51283C44.6605 5.1815 44.8905 4.87566 45.2226 4.54433C45.9635 3.90715 46.7555 3.65229 47.7263 3.80521C48.4672 3.95813 48.8504 4.36592 49.1059 5.02858C49.1825 5.1815 49.1825 5.35991 49.2592 5.51283C49.3358 5.43637 49.4125 5.25796 49.5147 5.1815C49.9234 4.54433 50.4855 3.95813 51.303 3.80521C52.0439 3.65229 52.7593 3.65229 53.3213 4.13654C53.8067 4.54433 53.96 5.10504 54.0622 5.66576V11.5023H55.2885V12.5472H52.8614V6.30293C52.8614 6.04806 52.8614 5.89514 52.7848 5.66576C52.6315 4.85017 52.0439 4.44238 51.1753 4.69725C50.5366 4.85017 50.1278 5.25796 49.719 5.81868C49.3869 6.30293 49.2336 6.86364 49.2336 7.42436V11.5532H50.5366V12.5982H47.8796V6.27744C47.8796 6.02257 47.8796 5.79319 47.803 5.53832C47.6497 5.05407 47.3175 4.7992 46.8321 4.72274C46.0912 4.64628 45.6058 4.97761 45.1204 5.46186C44.5584 6.09903 44.2262 6.76169 44.3029 7.65374V11.6297H45.6058V12.6747H41.9014V11.6297H43.1277V4.92663H41.9014V3.88167H44.4817C44.2518 4.44238 44.2518 4.95212 44.3284 5.51283Z" fill="#848484"/>
<path d="M29.4849 8.01044H26.8024C26.8024 7.67911 26.8024 7.27131 26.8791 6.96547H30.9412V12.6236H29.6638V10.8395C29.6127 10.8905 29.5871 10.9414 29.5871 10.9924C28.7696 12.2158 27.7221 12.853 26.2659 12.9294C25.1418 12.9294 24.2476 12.5216 23.3534 11.808C22.3826 10.916 21.8206 9.79452 21.5651 8.57115C21.233 6.96547 21.4118 5.3343 22.0505 3.80509C22.5359 2.76012 23.2768 1.86808 24.3243 1.38382C26.036 0.568242 28.1309 0.899572 29.3572 2.68366C29.3572 2.76012 29.4339 2.76012 29.5105 2.83658V1.05249H30.7368V4.69713H29.4083C29.3317 4.21288 29.0762 3.80509 28.8462 3.39729C28.2075 2.50525 27.3134 2.021 26.2659 2.021C25.2951 2.021 24.4775 2.50525 23.9155 3.24437C23.3534 3.88155 23.098 4.69713 22.9447 5.58917C22.7914 6.81255 22.868 7.93397 23.2768 9.0554C23.5323 9.69258 23.8388 10.2788 24.4009 10.763C25.3717 11.6551 26.598 11.808 27.7221 11.2473C28.8462 10.763 29.5871 9.38673 29.4849 8.01044Z" fill="#848484"/>
<path d="M65.2267 7.14381C64.9967 6.17531 64.588 5.28326 63.7704 4.64609C62.6208 3.67758 61.2412 3.67758 60.1171 4.49317C59.7083 4.79901 59.3251 5.2068 59.0696 5.61459C58.993 5.61459 58.993 5.69105 58.9163 5.76752V0.746582H56.4893V1.79155H57.7156V11.7315H56.4893V12.7764H58.993V11.2472C59.2229 11.5021 59.4784 11.7315 59.6317 11.9863C60.4492 12.8784 61.7521 13.2097 62.8763 12.8019C63.6171 12.4961 64.1792 11.9099 64.588 11.2727C65.38 9.97287 65.5588 8.59657 65.2267 7.14381ZM63.8471 8.26524C63.8471 9.05533 63.6938 9.79446 63.5149 10.5846C63.1317 11.4001 62.3142 11.8844 61.42 11.8079C60.3725 11.655 59.2995 10.763 59.1462 9.718C58.993 9.08082 59.0696 8.49462 58.993 7.85745C58.8141 6.63407 59.7083 5.51265 60.6025 5.10485C61.5733 4.6206 62.6463 4.95193 63.285 5.84398C63.5916 6.40469 63.7704 7.06735 63.8471 7.70452V8.26524Z" fill="#848484"/>
<path d="M40.5985 12.7767C40.5985 12.4709 40.5219 12.0631 40.5219 11.7318H39.2956L39.2445 11.324V6.15011C39.0912 5.18161 38.6058 4.46797 37.7116 4.06018C36.5875 3.57593 35.4378 3.57593 34.3137 4.06018C33.3429 4.54443 32.8575 5.28355 32.602 6.32852H33.7261C33.9816 6.32852 33.9816 6.22657 34.0582 6.07365C34.2371 5.48745 34.6458 5.0032 35.2845 4.85028C35.77 4.77382 36.332 4.69735 36.8174 4.85028C37.405 5.0032 37.8904 5.33453 38.0437 5.9717C38.1204 6.37949 38.1204 6.86375 38.1204 7.27154C37.4817 7.37349 36.8174 7.44995 36.2554 7.52641C35.4378 7.67933 34.6458 7.83225 33.905 8.16358C33.3429 8.39296 32.8575 8.64783 32.602 9.20855C32.1166 10.1006 32.2699 10.8907 32.7553 11.7063C33.3174 12.5983 34.1349 13.0061 35.1824 12.9296C36.4087 12.8532 37.3795 12.3689 38.0182 11.324L38.0948 11.2475V12.7767H40.5985ZM38.0693 10.1261C37.8393 11.2475 36.613 12.1395 35.4889 12.0631C34.4415 11.9866 33.7261 11.0181 33.8794 10.0496C33.8794 9.64183 34.1093 9.38696 34.3648 9.23403C34.7736 8.92819 35.259 8.74978 35.7444 8.67332C36.5619 8.5204 37.2773 8.34199 38.0182 8.26553H38.1715C38.0693 8.82624 38.1715 9.38696 38.0693 10.1261Z" fill="#848484"/>
<path d="M76.6466 10.5337C76.3911 10.9415 76.1612 11.3238 75.7524 11.5787C74.8582 12.1394 73.402 11.8081 72.7633 10.8396C72.4567 10.3553 72.2779 9.87107 72.2012 9.38682C72.1246 9.13195 72.1246 8.90256 72.048 8.57123H78.3583L78.3328 8.39282C78.3328 7.42432 78.1795 6.53228 77.7707 5.71669C77.0554 4.26394 75.5736 3.44835 73.964 3.70322C72.8399 3.88163 71.9458 4.51881 71.3837 5.48731C70.6684 6.63422 70.4895 7.90857 70.745 9.20841C71.0771 11.2474 72.4567 12.6237 74.475 12.7766C75.9568 12.955 77.4897 12.0629 78.0517 10.7631C78.1284 10.6102 78.1284 10.4318 78.205 10.2789H76.9787C76.7999 10.2789 76.7232 10.3808 76.6466 10.5337ZM74.4495 4.9266C75.267 4.77368 75.8291 5.10501 76.3145 5.74218C76.621 6.30289 76.8765 6.86361 76.8765 7.60273H72.0991C72.2012 6.22643 72.9166 5.10501 74.4495 4.9266Z" fill="#848484"/>
<path d="M67.1682 1.71509H65.9419V0.746582H68.4456V11.655H69.5697V12.7H65.9419V11.655H67.1682V1.71509Z" fill="#848484"/>
<path d="M70.7937 26.4378C70.7937 26.4378 70.7754 26.4326 70.7676 26.4326V26.4378H70.7937Z" fill="#848484"/>
<path d="M72.9649 18.0527V19.0976C72.8627 18.9192 72.786 18.8427 72.7094 18.7663C71.8152 17.4665 69.8736 17.6958 69.056 18.9192C68.8261 19.4035 68.5706 19.8877 68.5706 20.4484C68.494 21.3405 68.5706 22.1306 69.1327 22.8697C69.9502 24.0166 71.7386 24.246 72.7094 23.1246C72.8116 23.0481 72.8882 22.8697 72.9649 22.7932V24.246C72.8882 24.7302 72.7349 25.0361 72.3262 25.291C71.3554 25.8772 70.2057 25.6223 69.6436 24.6538C69.567 24.6538 69.567 24.5773 69.4904 24.5773H68.5195C68.775 25.291 69.1838 25.7752 69.8225 26.1065C70.0473 26.2798 70.4407 26.3563 70.7678 26.4328V26.4124H71.5853C71.7386 26.4124 71.8408 26.3359 71.9941 26.3359C73.1182 26.081 73.8591 25.3674 73.8591 24.144V18.7918H74.7532V18.0527H72.9649ZM72.8882 21.0346V21.5189C72.8882 22.6403 71.5853 23.5324 70.5378 23.1246C69.9758 22.8697 69.7203 22.4619 69.567 21.9012C69.3882 21.1876 69.3882 20.5504 69.6436 19.8113C70.0524 18.8173 71.0999 18.5114 71.9941 19.0721C72.4795 19.327 72.8116 19.7348 72.8882 20.2955V21.0346Z" fill="#848484"/>
<path d="M22.3543 18.5114C22.201 19.3269 21.9455 20.117 21.7922 20.9326C21.5368 22.0541 21.2302 23.201 20.9747 24.3224C20.9747 24.3989 20.9747 24.4753 20.8214 24.4753H18.6243C18.5476 24.2204 18.471 23.9911 18.471 23.7362C17.9089 21.7227 17.3469 19.6838 16.8615 17.6703C16.8615 17.5174 16.7848 17.4154 16.606 17.4154H16.0439V15.7078H19.5185V17.4154H18.6243C19.0331 19.1231 19.4418 20.8052 19.8506 22.5128C19.9272 22.3599 19.9272 22.105 20.0039 21.9521C20.4126 19.9386 20.8214 17.8997 21.3068 15.9627C21.3068 15.8862 21.3835 15.8097 21.4601 15.8097H23.4018C23.555 15.8097 23.555 15.8862 23.555 15.9627C24.0405 18.0526 24.4492 20.168 24.9346 22.258C24.9346 22.3089 24.9602 22.3599 25.0113 22.4109L26.1354 17.3899H25.2412V15.6823H28.7157V17.3899H28.1537C28.077 17.3899 28.0004 17.3899 28.0004 17.5429C27.4383 19.7347 26.7741 21.9776 26.212 24.1695C26.1354 24.3224 26.1354 24.4243 25.9566 24.4243H24.0149C23.9127 24.4243 23.8276 24.3734 23.7594 24.2714C23.274 22.4109 22.8653 20.5503 22.3798 18.6133C22.4139 18.5963 22.4054 18.5623 22.3543 18.5114Z" fill="#848484"/>
<path d="M15.6096 22.5384C15.4904 22.5384 15.4052 22.4874 15.3541 22.3854C14.2811 19.3015 13.3103 16.1666 12.2628 13.0827C12.1606 13.0062 12.1606 12.9298 12.0074 12.9298H9.50366C9.32482 12.9298 9.24818 12.9298 9.24818 13.0827C8.27736 16.2431 7.22989 19.3015 6.25907 22.4619C6.19094 22.5639 6.10578 22.6148 6.00359 22.6148H5.2627V24.4754H7.94523C7.99633 24.4244 8.02188 24.3734 8.02188 24.3225C8.25181 23.5833 8.4051 22.8697 8.66058 22.1306C8.66058 22.0541 8.66058 21.9777 8.81386 21.9777H12.6205C12.6972 21.9777 12.7738 21.9777 12.7738 22.0541C12.876 22.309 12.9526 22.5384 13.0293 22.7932C13.1826 23.3794 13.3614 23.9401 13.5147 24.5009H16.095V22.6403C15.8651 22.6403 15.6096 22.6403 15.6096 22.5384ZM9.14599 20.2955C9.6314 18.5879 10.1168 16.9822 10.6789 15.2746C11.1643 16.9057 11.6497 18.5879 12.1351 20.2955H9.14599Z" fill="#848484"/>
<path d="M53.2931 17.2624C51.6835 15.096 48.2601 14.9941 46.6506 17.1859C45.6798 18.4858 45.5009 19.9385 45.8331 21.4678C46.1652 22.7676 46.9061 23.7361 48.0302 24.2968C48.9244 24.7811 49.8185 24.8575 50.7894 24.7046C52.4244 24.4497 53.4719 23.5577 53.9573 22.0285C53.9573 21.952 54.034 21.8501 54.034 21.6971C53.3953 21.7736 52.6544 21.7736 52.0157 21.7736C51.8368 21.7736 51.8368 21.8501 51.7602 21.9265C51.5302 22.4108 51.2748 22.7421 50.7894 22.895C50.074 23.1244 49.4098 23.0479 48.8477 22.6402C48.209 22.1559 47.9535 21.4423 47.8769 20.6267H54.1106C54.1872 19.6582 53.7785 18.1035 53.2931 17.2624ZM47.8769 18.9955C47.9535 18.1035 48.9244 17.3134 49.8952 17.3644C50.866 17.3644 51.6069 18.1035 51.6069 19.072L47.8769 18.9955Z" fill="#848484"/>
<path d="M37.2485 22.9461V21.4169C37.2485 20.3719 37.3252 19.4034 37.2485 18.4349C37.1719 17.3899 36.6865 16.4979 35.639 16.0901C34.3361 15.5294 33.0587 15.5294 31.7557 16.0136C31.117 16.2685 30.5549 16.7528 30.2228 17.3899C29.9673 17.6958 29.8907 18.1036 29.8907 18.5114L31.9856 18.5878V18.333C31.9856 17.6958 32.3944 17.3645 32.9565 17.2115C33.263 17.1351 33.6718 17.1351 34.0039 17.2115C34.4893 17.288 34.8215 17.6193 34.8981 18.1036C34.8981 18.3584 34.9747 18.6643 34.9747 18.9192C34.9237 18.9192 34.9492 18.9786 35.0514 19.0976C34.336 19.1995 33.6718 19.276 33.0331 19.3524C32.2156 19.4289 31.5002 19.5818 30.7593 19.9896C29.1498 20.7797 29.1498 22.8951 30.1973 23.9401C31.4236 25.0615 33.5952 25.138 34.8981 24.0166L35.2302 23.6852V24.6537H37.9894V22.9461H37.2485ZM34.6171 22.4109C34.0295 22.9716 33.1608 23.2265 32.42 22.9716C31.9345 22.8187 31.6024 22.4873 31.6024 22.0031C31.6024 21.5188 31.7557 21.111 32.2411 20.9581C32.6243 20.7797 32.9565 20.7032 33.3652 20.6268C33.8506 20.4484 34.4127 20.4484 34.9747 20.3719C35.0769 21.111 35.0769 21.8247 34.6171 22.4109Z" fill="#848484"/>
<path d="M42.0264 22.7933H43.0738V24.5009H39.0117V22.7933H39.9059V17.4665H39.0117V15.7589H42.0008V17.0587C42.0775 16.9823 42.1541 16.8039 42.1541 16.7274C42.4862 16.2431 42.895 15.7589 43.5337 15.6824C44.0191 15.5295 44.5812 15.606 45.0666 15.6824L45.1432 15.7589V17.6959C44.8878 17.6959 44.6578 17.6194 44.4023 17.6194C43.7636 17.543 43.0994 17.6959 42.614 18.1037C42.2052 18.435 42.0519 18.9193 41.9753 19.4035V22.6404C41.9582 22.6914 41.9753 22.7423 42.0264 22.7933Z" fill="#848484"/>
<path d="M62.5669 19.5564C62.0815 18.5115 61.264 17.9507 60.0632 17.9507C58.8625 17.9507 57.9683 18.5115 57.4829 19.5564C56.9975 20.6014 57.0741 21.7483 57.4829 22.7933C57.8917 23.7618 58.6326 24.4244 59.68 24.5009C60.8297 24.5774 61.7239 24.246 62.3626 23.2775C62.7713 22.7168 62.9246 22.0032 62.9246 21.1876C62.9246 20.7033 62.848 20.1426 62.5669 19.5564ZM61.9793 21.6464C61.9027 22.1306 61.8005 22.4619 61.6472 22.8697C61.3406 23.5069 60.753 23.8382 60.0377 23.8382C59.3224 23.8382 58.8369 23.4304 58.5048 22.7933C58.326 22.309 58.2493 21.8248 58.2493 21.3405C58.2493 20.7798 58.2493 20.2955 58.5815 19.7858C58.9136 19.2251 59.3224 18.8173 60.0377 18.8173C60.753 18.8173 61.3151 19.1486 61.6472 19.7858C61.9793 20.3465 62.056 21.0092 61.9793 21.6464Z" fill="#848484"/>
<path d="M66.5014 24.4242H63.6655V23.6851H64.5597V18.919H63.6655V18.1799H65.5305V19.4798C65.8626 18.919 66.2714 18.3583 66.9101 18.1035C67.2422 18.027 67.8043 18.027 68.1364 18.1035V18.9955C67.9831 18.9955 67.8043 18.9955 67.651 18.919C66.5269 18.8426 65.5561 19.6582 65.5561 20.7796V23.6086H66.6035L66.5014 24.4242Z" fill="#848484"/>
<path d="M56.2057 23.3794H55.1582V24.4239H56.2057V23.3794Z" fill="#848484"/>
<path d="M81.6078 3.08637C81.6078 4.14153 80.7571 4.9775 79.679 4.9775C78.6008 4.9775 77.7373 4.14153 77.7373 3.08637C77.7373 2.03121 78.5983 1.20798 79.6892 1.20798C80.7801 1.20798 81.6078 2.03376 81.6078 3.08637ZM78.2202 3.08637C78.2202 3.92234 78.8512 4.58755 79.6892 4.58755C80.5042 4.59774 81.125 3.92234 81.125 3.09911C81.125 2.27588 80.5042 1.58773 79.6662 1.58773C78.8282 1.58773 78.2176 2.26314 78.2176 3.08892L78.2202 3.08637ZM79.38 4.05997H78.9432V2.18158C79.1143 2.15864 79.3571 2.12551 79.6662 2.12551C80.0213 2.12551 80.1822 2.18158 80.31 2.27333C80.425 2.35234 80.5042 2.48997 80.5042 2.67348C80.5042 2.90286 80.333 3.05069 80.1133 3.1195V3.14244C80.2972 3.19851 80.3892 3.34888 80.4454 3.6012C80.5016 3.88666 80.5476 3.99115 80.5834 4.05997H80.1235C80.0673 3.99115 80.0315 3.83059 79.9753 3.6012C79.9421 3.4075 79.8271 3.31575 79.5844 3.31575H79.3775V4.05997H79.38ZM79.3903 3.00481H79.5972C79.8373 3.00481 80.0341 2.92325 80.0341 2.72955C80.0341 2.55879 79.9089 2.4441 79.633 2.4441C79.518 2.4441 79.4388 2.45429 79.3928 2.46703V3.00481H79.3903Z" fill="#848484"/>
</svg>
