<svg width="76" height="31" viewBox="0 0 76 31" fill="none" xmlns="http://www.w3.org/2000/svg">
<path d="M36.076 14.7771V23.5087H33.2588V1.91751H40.5781C42.3627 1.91751 44.0521 2.57453 45.3656 3.79343C46.679 4.9217 47.3358 6.61183 47.3358 8.39259C47.3358 10.1734 46.679 11.7729 45.3656 12.9918C44.0521 14.2107 42.4578 14.8677 40.5781 14.8677L36.0715 14.7725L36.076 14.7771ZM36.076 4.54107V12.0538H40.7684C41.8011 12.0538 42.8337 11.6777 43.4904 10.9255C44.9941 9.51633 44.9942 7.16917 43.5856 5.75997L43.4904 5.66481C42.7386 4.91263 41.8011 4.44592 40.7684 4.53654H36.076V4.54107Z" fill="#848484"/>
<path d="M53.8128 8.30241C55.8781 8.30241 57.4724 8.86428 58.6908 9.99255C59.9092 11.1208 60.4753 12.6206 60.4753 14.5011V23.5136H57.8484V21.4474H57.7533C56.6255 23.1376 55.0312 23.9804 53.1561 23.9804C51.5617 23.9804 50.1531 23.5091 49.0254 22.5712C47.9927 21.6332 47.3359 20.3191 47.3359 18.9099C47.3359 17.4056 47.8976 16.1867 49.0254 15.2487C50.1531 14.3108 51.7475 13.9347 53.6226 13.9347C55.312 13.9347 56.6255 14.2156 57.6581 14.8727V14.2156C57.6581 13.2777 57.2822 12.3397 56.5303 11.7733C55.7785 11.1163 54.8409 10.7402 53.8082 10.7402C52.2139 10.7402 50.9911 11.3972 50.1486 12.7113L47.7073 11.2069C49.211 9.23584 51.1813 8.29788 53.8082 8.29788L53.8128 8.30241ZM50.2482 19.0051C50.2482 19.7573 50.6242 20.4143 51.1858 20.7904C51.8426 21.2616 52.5944 21.5426 53.3462 21.5426C54.474 21.5426 55.5973 21.0713 56.4443 20.2285C57.3819 19.3857 57.8529 18.3526 57.8529 17.2243C57.0105 16.5673 55.7875 16.1912 54.1932 16.1912C53.0654 16.1912 52.1279 16.4722 51.376 17.034C50.6242 17.5053 50.2482 18.1623 50.2482 19.0051Z" fill="#848484"/>
<path d="M75.6801 8.77051L66.3905 30.0853H63.5733L67.0472 22.6677L60.9463 8.86566H63.9492L68.3607 19.4732H68.4559L72.7722 8.86566H75.6801V8.77051Z" fill="#848484"/>
<path d="M24.907 12.9014C24.907 12.0586 24.8119 11.2113 24.7213 10.3685H12.9905V15.1579H19.6531C19.3723 16.6623 18.5253 18.067 17.2118 18.9143V22.0136H21.2474C23.5935 19.8523 24.907 16.6623 24.907 12.9059V12.9014Z" fill="#848484"/>
<path d="M12.9859 25.0141C16.3648 25.0141 19.182 23.8858 21.2428 22.0099L17.2073 18.9106C16.0795 19.6627 14.6754 20.1295 12.9859 20.1295C9.79279 20.1295 6.98013 17.9681 6.04257 14.9639H1.91187V18.1584C4.07233 22.3815 8.2936 25.0141 12.9859 25.0141Z" fill="#848484"/>
<path d="M6.04235 14.9667C5.48072 13.4624 5.48072 11.7722 6.04235 10.1773V6.98276H1.91164C0.127108 10.4582 0.127108 14.5861 1.91164 18.1567L6.04235 14.9622V14.9667Z" fill="#848484"/>
<path d="M12.9858 5.10874C14.7703 5.10874 16.4598 5.76577 17.7733 6.98466L21.3378 3.41861C19.0868 1.35238 16.0839 0.13349 13.081 0.224114C8.38863 0.224114 4.07219 2.85221 2.00684 7.07981L6.13754 10.2743C6.97999 7.27012 9.7972 5.10874 12.9903 5.10874H12.9858Z" fill="#848484"/>
</svg>
