<svg width="23" height="22" viewBox="0 0 23 22" fill="none" xmlns="http://www.w3.org/2000/svg">
<path d="M3.56562 11.2545C3.29924 11.4791 3.11067 11.6467 2.91611 11.8025C2.3564 12.2486 1.76675 12.1498 1.19806 11.527C0.704191 10.985 0.677253 10.3771 1.18609 9.89802C2.41626 8.73919 3.66739 7.59833 4.91253 6.45746C6.83711 4.69077 8.76768 2.92707 10.6953 1.15738C10.9916 0.884888 11.2879 0.62737 11.7219 0.612398C12.135 0.594432 12.4582 0.762118 12.7605 1.02563C14.9724 2.963 17.1874 4.89738 19.4023 6.83475C20.3421 7.65821 21.279 8.48766 22.2248 9.30513C22.6229 9.64949 22.8743 10.0687 22.6738 10.5807C22.4433 11.1676 22.0243 11.6108 21.3837 11.7815C21.0844 11.8623 20.8929 11.6138 20.6594 11.494C20.5397 11.6497 20.5905 11.8114 20.5905 11.9582C20.5876 14.7729 20.5905 17.5876 20.5876 20.4024C20.5876 21.4354 20.2014 21.8247 19.1808 21.8277C17.9746 21.8277 16.7653 21.8307 15.5591 21.8277C14.8138 21.8277 14.4726 21.5073 14.3888 20.7677C14.3169 20.1149 14.3559 19.4621 14.3529 18.8093C14.3469 17.387 14.3409 15.9677 14.3559 14.5453C14.3589 14.171 14.2301 14.0512 13.859 14.0572C12.5959 14.0752 11.3298 14.0782 10.0667 14.0572C9.68059 14.0512 9.5878 14.186 9.59079 14.5513C9.60576 16.5276 9.59977 18.5039 9.59678 20.4772C9.59678 21.4354 9.20767 21.8277 8.26184 21.8307C7.11248 21.8307 5.96013 21.8337 4.81077 21.8307C3.99963 21.8277 3.5776 21.4085 3.5746 20.594C3.57161 17.6655 3.5746 14.737 3.5746 11.8084C3.5746 11.6587 3.5746 11.506 3.5746 11.2605L3.56562 11.2545Z" fill="white"/>
</svg>
