<svg width="24" height="19" viewBox="0 0 24 19" fill="none" xmlns="http://www.w3.org/2000/svg">
<path d="M12.047 0.00846749C15.0411 0.00846749 18.0352 0.00295072 21.0293 0.00846749C22.5716 0.0139843 23.5851 0.747714 23.9276 2.05795C23.996 2.32275 23.9988 2.59032 23.9988 2.85789C23.9988 6.44655 24.0015 10.038 23.9988 13.6266C23.9988 15.3479 22.9414 16.4098 21.2375 16.4181C20.3637 16.4209 19.4898 16.4347 18.6187 16.4126C18.2325 16.4043 18.1009 16.5478 18.0544 16.9312C17.8708 18.4676 17.2435 19 15.6876 19C13.1756 19 10.6609 19 8.14891 19C6.84224 19 6.07245 18.2966 6.00123 16.9836C5.97657 16.5312 5.8232 16.4016 5.39586 16.4126C4.45078 16.4374 3.50571 16.4292 2.56337 16.4126C1.24575 16.3905 0.17465 15.3892 0.0869909 14.0625C-0.060934 11.8226 0.0376933 9.57732 0.0294753 7.33475C0.0212572 5.77351 -0.0526986 4.2095 0.0705721 2.65377C0.2048 0.951835 1.23752 0.0139815 2.96058 0.00570634C5.9903 -0.0053272 9.02002 0.00294961 12.0497 0.00294961L12.047 0.00846749ZM12.8113 9.48905C12.8113 8.95117 12.8058 8.41328 12.814 7.8754C12.814 7.72093 12.7455 7.50853 12.9099 7.43405C13.1126 7.34027 13.2112 7.56922 13.3372 7.67955C13.5235 7.84505 13.6851 8.0409 13.8741 8.20364C14.2577 8.53465 14.6603 8.53465 14.9753 8.22019C15.2575 7.93884 15.2794 7.42026 14.9699 7.09753C14.1892 6.28657 13.3948 5.48939 12.5894 4.70049C12.2442 4.36397 11.8333 4.35018 11.4882 4.6867C10.6664 5.48112 9.85826 6.29208 9.06933 7.1196C8.71595 7.48922 8.74882 7.89471 9.08028 8.21744C9.40627 8.53189 9.80071 8.53465 10.1815 8.2064C10.3842 8.02987 10.5595 7.82575 10.7568 7.64369C10.8691 7.54163 10.9595 7.34027 11.143 7.42854C11.3156 7.51129 11.2526 7.71541 11.2526 7.86712C11.2581 8.9622 11.2498 10.0545 11.2635 11.1496C11.269 11.7013 11.6005 12.0461 12.058 12.0323C12.4963 12.0157 12.7976 11.6792 12.8085 11.1579C12.8222 10.6034 12.8113 10.0462 12.8113 9.48905ZM12.0443 17.2043C13.2551 17.2043 14.4658 17.2043 15.6766 17.2043C15.9533 17.2043 16.219 17.2153 16.2327 16.8126C16.2464 16.385 15.9615 16.4264 15.693 16.4264C13.2715 16.4264 10.8527 16.4264 8.43109 16.4292C8.18454 16.4292 7.86401 16.3354 7.84758 16.7712C7.83114 17.2512 8.16257 17.207 8.46664 17.207C9.65826 17.207 10.8526 17.207 12.0443 17.207V17.2043Z" fill="white"/>
</svg>
