<svg width="97" height="19" viewBox="0 0 97 19" fill="none" xmlns="http://www.w3.org/2000/svg">
<g clip-path="url(#clip0_8589_132756)">
<path d="M52.934 17.328C51.7117 16.967 50.6236 16.3099 49.7011 15.3728C48.2187 13.8837 47.5066 12.003 47.5861 9.78396C47.6689 7.44032 48.4854 5.52721 50.0108 4.09642C51.5378 2.65269 53.5104 1.96157 55.8738 2.0425C56.5578 2.06678 57.1806 2.15903 57.7205 2.31765C58.229 2.46817 58.6795 2.6802 59.062 2.9505C59.9216 3.55907 60.339 4.40556 60.2992 5.46408L60.2512 6.84793L59.7742 6.83337L59.703 6.73625C59.3237 6.21508 58.7209 5.79912 57.911 5.50131C57.7801 5.45437 57.6476 5.41067 57.5135 5.37021C56.9603 5.20674 56.3806 5.11448 55.786 5.09344C54.4876 5.04812 53.3978 5.43009 52.5498 6.22803C51.667 7.02921 51.1966 8.1201 51.1486 9.4732C51.0906 11.0998 51.4765 12.3752 52.2964 13.2622C52.78 13.8044 53.3978 14.188 54.1331 14.4049C54.5604 14.5311 55.0391 14.604 55.5542 14.6218C57.2203 14.68 58.5254 14.2689 59.4347 13.403L59.5092 13.3318L59.9713 13.3464L59.9233 14.6881C59.8868 15.7143 59.3237 16.5074 58.2488 17.0463C57.3578 17.4947 56.2796 17.7018 55.0457 17.6581C54.3021 17.6322 53.5915 17.5206 52.9324 17.3263L52.934 17.328Z" fill="#848484"/>
<path d="M44.129 15.065C44.0909 15.4341 43.8805 15.7545 43.5029 16.0281C43.1402 16.287 42.7559 16.3971 42.3469 16.355L36.1344 15.7286C34.6852 15.583 34.0194 14.9631 34.1336 13.8722C34.2314 12.948 34.9965 11.8749 36.4308 10.6513L40.0016 7.55827C40.265 7.32035 40.4952 7.10346 40.6923 6.90438C40.9407 6.64866 41.1229 6.43501 41.2372 6.25859L34.9783 5.62898L35.0777 4.68213C35.1936 3.58962 35.9505 3.11377 37.3533 3.25458L43.1385 3.83726C43.8159 3.90524 44.3161 4.13507 44.6424 4.52514C44.8941 4.84561 45.0001 5.21463 44.9554 5.62898C44.8444 6.67617 44.1853 7.72174 42.9779 8.7657L39.4336 11.815C38.8009 12.3734 38.3454 12.8493 38.0655 13.241L44.2532 13.8641L44.1273 15.065H44.129Z" fill="#848484"/>
<path d="M44.129 15.065C44.0909 15.4341 43.8805 15.7545 43.5029 16.0281C43.1402 16.287 42.7559 16.3971 42.3469 16.355L36.1344 15.7286C34.6852 15.583 34.0194 14.9631 34.1336 13.8722C34.2314 12.948 34.9965 11.8749 36.4308 10.6513L40.0016 7.55827C40.265 7.32035 40.4952 7.10346 40.6923 6.90438C40.9407 6.64866 41.1229 6.43501 41.2372 6.25859L34.9783 5.62898L35.0777 4.68213C35.1936 3.58962 35.9505 3.11377 37.3533 3.25458L43.1385 3.83726C43.8159 3.90524 44.3161 4.13507 44.6424 4.52514C44.8941 4.84561 45.0001 5.21463 44.9554 5.62898C44.8444 6.67617 44.1853 7.72174 42.9779 8.7657L39.4336 11.815C38.8009 12.3734 38.3454 12.8493 38.0655 13.241L44.2532 13.8641L44.1273 15.065H44.129Z" fill="#848484"/>
<path d="M35.8876 15.6286C35.8611 15.9992 35.6623 16.3262 35.293 16.611C34.9402 16.8813 34.5593 17.0027 34.1486 16.9736L27.9195 16.5479C26.467 16.4492 25.7797 15.8519 25.8575 14.7562C25.9238 13.8304 26.6525 12.733 28.0454 11.4641L31.5119 8.25776C31.7669 8.01175 31.9905 7.78677 32.1793 7.58283C32.4195 7.32063 32.595 7.09889 32.7027 6.92085L26.4256 6.49194L26.4935 5.54186C26.5713 4.44611 27.3133 3.94598 28.7195 4.04309L34.5229 4.43964C35.2019 4.48657 35.7104 4.70022 36.0482 5.07896C36.3116 5.39133 36.4275 5.75551 36.3977 6.17309C36.3232 7.22352 35.6988 8.28852 34.5262 9.37132L31.0862 12.5323C30.4734 13.1118 30.0345 13.6006 29.7662 14.0019L35.9721 14.426L35.8859 15.6302L35.8876 15.6286Z" fill="#848484"/>
<path d="M35.8876 15.6286C35.8611 15.9992 35.6623 16.3262 35.293 16.611C34.9402 16.8813 34.5593 17.0027 34.1486 16.9736L27.9195 16.5479C26.467 16.4492 25.7797 15.8519 25.8575 14.7562C25.9238 13.8304 26.6525 12.733 28.0454 11.4641L31.5119 8.25776C31.7669 8.01175 31.9905 7.78677 32.1793 7.58283C32.4195 7.32063 32.595 7.09889 32.7027 6.92085L26.4256 6.49194L26.4935 5.54186C26.5713 4.44611 27.3133 3.94598 28.7195 4.04309L34.5229 4.43964C35.2019 4.48657 35.7104 4.70022 36.0482 5.07896C36.3116 5.39133 36.4275 5.75551 36.3977 6.17309C36.3232 7.22352 35.6988 8.28852 34.5262 9.37132L31.0862 12.5323C30.4734 13.1118 30.0345 13.6006 29.7662 14.0019L35.9721 14.426L35.8859 15.6302L35.8876 15.6286Z" fill="#848484"/>
<path d="M21.1406 12.1455C21.1456 12.1455 21.1506 12.1487 21.1539 12.1504C21.1489 12.1504 21.1439 12.1471 21.1406 12.1455Z" fill="#848484"/>
<path d="M20.9863 13.8047L20.9996 13.8257L20.9863 13.8047Z" fill="#848484"/>
<path d="M20.5277 11.7881C20.5277 11.7881 20.5261 11.7897 20.5244 11.7913C20.5244 11.7913 20.5261 11.7913 20.5277 11.7881Z" fill="#848484"/>
<path d="M25.8557 6.57284C25.0855 5.75062 23.961 5.26183 22.4786 5.10321C21.0394 4.94945 19.8982 5.14044 19.0519 5.67455C18.3331 6.13422 17.9307 6.73793 17.8478 7.48246L17.7452 8.40826L17.8561 8.41959C18.1725 8.10559 18.623 7.86281 19.2059 7.69287C19.9595 7.45494 20.8141 7.38535 21.7665 7.48731C23.4691 7.66859 24.2409 8.46815 24.0819 9.8876L24.0653 10.0381L23.0302 9.92807C20.9615 9.70795 19.3981 9.88922 18.3381 10.4735C17.3891 10.9963 16.8525 11.8169 16.7282 12.9353C16.609 14.01 16.9502 14.9391 17.7534 15.7208C18.5716 16.5042 19.678 16.9703 21.0725 17.1176L21.6671 17.1807C22.9871 17.3199 24.11 17.048 25.0309 16.3634C25.9534 15.6787 26.4834 14.727 26.6175 13.5083L26.914 10.8409C27.121 8.97799 26.7683 7.55367 25.854 6.57122L25.8557 6.57284ZM23.8301 13.2574C23.8301 13.2574 23.8218 13.2687 23.8169 13.272C23.8169 13.272 23.8136 13.272 23.8119 13.2736C23.8086 13.2736 23.8053 13.2752 23.802 13.2736C23.802 13.2736 23.7987 13.2736 23.797 13.2736C23.792 13.2736 23.7887 13.2703 23.7871 13.2687C23.7755 13.259 23.6993 13.1441 23.6281 13.068C23.6181 13.0567 23.5999 13.0373 23.58 13.0146C23.5684 13.0017 23.5568 12.9887 23.5419 12.9725C23.5337 12.9628 23.5221 12.9515 23.5121 12.9402C23.4989 12.9256 23.484 12.9094 23.4691 12.8932C23.4575 12.8803 23.4426 12.8657 23.4293 12.8511C23.4128 12.8333 23.3945 12.8155 23.3747 12.7961C23.3581 12.7799 23.3399 12.7637 23.3233 12.7459C23.3034 12.7265 23.2803 12.7055 23.2587 12.6861C23.2389 12.6666 23.2173 12.6472 23.1941 12.6278C23.1693 12.6067 23.1444 12.5841 23.1179 12.563C23.0931 12.542 23.0666 12.521 23.0384 12.4983C23.0103 12.4756 22.9805 12.453 22.949 12.4303C22.9175 12.406 22.8877 12.3834 22.8546 12.3591C22.7917 12.3138 22.7254 12.2669 22.6542 12.2183C22.4571 12.1001 22.1573 11.9124 21.8112 11.7813C21.7996 11.8234 21.7797 11.914 21.7946 12.0192C21.8112 12.1244 21.846 12.2636 21.9768 12.5323C21.9735 12.5307 21.9702 12.5291 21.9669 12.5274C22.2385 12.6861 22.5184 12.8754 22.7834 13.0891C22.7834 13.0891 23.2604 13.4532 23.537 13.8287C23.5154 13.8028 23.4939 13.7753 23.4724 13.7494C23.4939 13.7753 23.5154 13.8012 23.537 13.8271C23.5751 13.8789 23.6098 13.9291 23.6397 13.9809C23.7457 14.1573 23.7192 14.1913 23.7142 14.222C23.7092 14.2528 23.633 14.4859 23.3846 14.7999C23.1345 15.1122 22.7751 15.321 22.7006 15.3388C22.7039 15.3388 22.7072 15.3372 22.7089 15.3356C22.6708 15.3534 22.6062 15.3405 22.525 15.3032L22.5151 15.2984C22.2584 15.1786 21.8493 14.8387 21.581 14.5636L21.5677 14.5474C21.2282 14.1978 21.0079 13.8417 20.9996 13.8271C20.9003 13.7802 20.7678 13.7235 20.6154 13.675C20.5193 13.6442 20.3388 13.5924 20.2013 13.6005C20.1864 13.6005 20.1715 13.6054 20.155 13.6086C20.1964 13.7073 20.7727 14.9876 21.8228 15.4975C21.8443 15.5072 21.8658 15.525 21.8609 15.5412C21.8592 15.546 21.8543 15.5476 21.8509 15.5476C21.8543 15.5476 21.8576 15.5476 21.8592 15.5444C21.8592 15.5444 21.8576 15.546 21.8559 15.5476C21.846 15.5557 21.8377 15.559 21.8079 15.5654H21.8046C21.8046 15.5654 21.7946 15.5687 21.7913 15.5687H21.788C21.6787 15.5865 21.4468 15.5881 21.094 15.4861C20.4415 15.2984 20.0589 14.8112 20.0589 14.8112C20.0125 14.7562 19.9728 14.7011 19.933 14.6429C19.9247 14.6315 19.9165 14.6186 19.9098 14.6073C19.8734 14.5522 19.8419 14.4956 19.8121 14.4373C19.8055 14.426 19.8005 14.413 19.7956 14.4017C19.7856 14.3807 19.7757 14.3612 19.7658 14.3402H19.7691C19.5968 13.9582 19.5504 13.5471 19.6001 13.1927C19.6713 12.6828 19.9645 12.3106 19.9645 12.3106C19.9645 12.3106 20.0506 12.1956 20.1666 12.1438C20.1931 12.1309 20.2212 12.1212 20.2477 12.1115C20.2974 12.0953 20.3587 12.0823 20.4183 12.0726C20.4051 12.0726 20.3935 12.0759 20.3802 12.0791C20.3802 12.0791 20.3802 12.0759 20.3802 12.0742C20.3802 12.0726 20.3802 12.0662 20.3819 12.0581C20.3819 12.05 20.3852 12.0403 20.3885 12.0273C20.3885 12.0273 20.3885 12.0273 20.3885 12.0257C20.3951 12.0014 20.4067 11.969 20.4249 11.9318C20.4266 11.927 20.4299 11.9221 20.4332 11.9172C20.4398 11.9043 20.4498 11.8897 20.4581 11.8752C20.4614 11.8703 20.4647 11.8638 20.4696 11.859C20.4829 11.8412 20.4961 11.8234 20.5127 11.804C20.5127 11.804 20.516 11.8007 20.516 11.7991C20.516 11.7991 20.5193 11.7959 20.5193 11.7942C20.5193 11.7942 20.521 11.7926 20.5226 11.791C20.5226 11.791 20.521 11.7926 20.5193 11.7942C20.521 11.7942 20.5226 11.791 20.5243 11.7894C20.5624 11.7489 20.6071 11.7101 20.6667 11.6728C20.67 11.6712 20.6734 11.668 20.6767 11.6664C20.6949 11.655 20.7148 11.6437 20.738 11.6324C20.7495 11.6259 20.7628 11.6194 20.7744 11.6146C20.7876 11.6081 20.8009 11.6016 20.8175 11.5935C20.8191 11.5935 20.8224 11.5919 20.8241 11.5903C20.8373 11.5838 20.8506 11.579 20.8638 11.5725C20.8738 11.5676 20.8837 11.5644 20.8936 11.5596C20.9201 11.5498 20.9466 11.5385 20.9765 11.5288C20.988 11.5239 21.0013 11.5207 21.0129 11.5175C21.0311 11.511 21.051 11.5045 21.0709 11.4997C21.0858 11.4948 21.1007 11.4916 21.1156 11.4867C21.1338 11.4819 21.1537 11.477 21.1735 11.4722C21.1901 11.4689 21.205 11.4641 21.2216 11.4608C21.2414 11.456 21.263 11.4527 21.2829 11.4479C21.2994 11.4446 21.316 11.4414 21.3342 11.4382C21.3574 11.4349 21.3789 11.4317 21.4021 11.4285C21.4187 11.4268 21.4352 11.4236 21.4518 11.422C21.4783 11.4187 21.5064 11.4171 21.5346 11.4139C21.5495 11.4139 21.5628 11.4106 21.5777 11.4106C21.6207 11.4074 21.6638 11.4058 21.7068 11.4058C21.7151 11.4058 21.7234 11.4058 21.7317 11.4058C21.7681 11.4058 21.8046 11.4058 21.8427 11.409C21.8576 11.409 21.8741 11.4123 21.8907 11.4123C21.9222 11.4139 21.952 11.4171 21.9834 11.4204C22.0017 11.422 22.0199 11.4252 22.0381 11.4285C22.0679 11.4333 22.0994 11.4382 22.1292 11.443C22.1474 11.4463 22.1673 11.4495 22.1855 11.4543C22.217 11.4608 22.2484 11.4689 22.2799 11.477C22.2981 11.4819 22.3163 11.4867 22.3362 11.4916C22.371 11.5013 22.4041 11.5126 22.4389 11.5239C22.4555 11.5288 22.4704 11.5337 22.4869 11.5401C22.5383 11.5579 22.5896 11.579 22.641 11.6016C23.4227 11.9529 23.797 12.7346 23.8334 13.2153C23.8334 13.2315 23.8318 13.2444 23.8285 13.2525L23.8301 13.2574Z" fill="#848484"/>
<path d="M21.627 12.3448C21.5939 12.3286 21.5608 12.3124 21.5293 12.2979C21.5608 12.3124 21.5939 12.3302 21.627 12.3448Z" fill="#848484"/>
<path d="M22.8066 13.1235C22.2401 12.6703 21.624 12.2996 21.1338 12.1523C21.624 12.3012 22.2401 12.6703 22.8066 13.1235Z" fill="#848484"/>
<path d="M21.8191 12.4434C21.7926 12.4289 21.7677 12.4143 21.7412 12.4014C21.7661 12.4143 21.7926 12.4289 21.8191 12.4434Z" fill="#848484"/>
<path d="M17.3393 12.3588L16.4499 2.70258C16.3207 1.30902 15.7179 0.444721 14.6562 0.130725C14.2405 0.00771655 13.747 -0.0295098 13.1921 0.0206648L11.7777 0.146911C11.6916 0.155003 11.6303 0.227838 11.6369 0.312001L12.7698 12.5821C12.8427 13.3574 12.692 13.9611 12.3243 14.3755C11.9566 14.7914 11.3504 15.0407 10.524 15.1135C9.2056 15.2301 8.14562 15.107 7.37548 14.7477C7.35063 14.7364 7.32248 14.7315 7.29432 14.7332L7.14029 14.7461C7.05417 14.7542 6.99289 14.827 6.99951 14.9112L7.17507 16.8049C7.23967 17.4976 7.68022 18.0625 8.4868 18.4833C8.72861 18.6079 8.98698 18.7099 9.25529 18.7892C9.90784 18.9818 10.6531 19.0417 11.4697 18.9689C13.5747 18.7827 15.163 18.0544 16.1882 16.8065C17.1174 15.6493 17.5033 14.1521 17.3377 12.3571L17.3393 12.3588Z" fill="#848484"/>
<path d="M17.3393 12.3588L16.4499 2.70258C16.3207 1.30902 15.7179 0.444721 14.6562 0.130725C14.2405 0.00771655 13.747 -0.0295098 13.1921 0.0206648L11.7777 0.146911C11.6916 0.155003 11.6303 0.227838 11.6369 0.312001L12.7698 12.5821C12.8427 13.3574 12.692 13.9611 12.3243 14.3755C11.9566 14.7914 11.3504 15.0407 10.524 15.1135C9.2056 15.2301 8.14562 15.107 7.37548 14.7477C7.35063 14.7364 7.32248 14.7315 7.29432 14.7332L7.14029 14.7461C7.05417 14.7542 6.99289 14.827 6.99951 14.9112L7.17507 16.8049C7.23967 17.4976 7.68022 18.0625 8.4868 18.4833C8.72861 18.6079 8.98698 18.7099 9.25529 18.7892C9.90784 18.9818 10.6531 19.0417 11.4697 18.9689C13.5747 18.7827 15.163 18.0544 16.1882 16.8065C17.1174 15.6493 17.5033 14.1521 17.3377 12.3571L17.3393 12.3588Z" fill="#848484"/>
<path d="M62.7821 17.385C62.05 17.1697 61.4074 16.8282 60.8708 16.3686C59.9516 15.5706 59.5177 14.5736 59.5789 13.4034C59.6435 12.1846 60.1818 11.2475 61.1822 10.6211C62.2637 9.94298 63.9066 9.65488 66.0647 9.7617L66.8763 9.80216C66.9011 8.84075 66.4771 8.24513 65.5844 7.98293C65.3062 7.90038 64.9782 7.85021 64.6089 7.83079C63.6731 7.78385 62.8351 7.89877 62.1179 8.16906C61.5714 8.36329 61.159 8.61578 60.884 8.92006L60.8062 9.00746L60.3309 8.98157L60.3938 7.79842C60.4385 6.96487 60.8459 6.26242 61.6078 5.7105C62.4806 5.08899 63.693 4.81222 65.2151 4.88829C65.8444 4.91904 66.4258 5.01291 66.9425 5.16506C67.716 5.39327 68.3718 5.76068 68.8935 6.25757C69.9303 7.24973 70.404 8.75173 70.2997 10.7215L70.1556 13.4487C70.086 14.7581 69.5726 15.8215 68.6269 16.6113C67.6861 17.398 66.4937 17.7605 65.0842 17.6893L64.4764 17.6585C63.8669 17.6278 63.2972 17.5355 62.7837 17.3834L62.7821 17.385ZM65.9272 12.3514C64.8789 12.2996 64.1236 12.3773 63.6864 12.5844C63.3551 12.7544 63.1796 13.0473 63.1564 13.4714C63.1233 14.0929 63.4147 14.4733 64.0723 14.6659C64.3141 14.7371 64.6056 14.7808 64.9401 14.7986C65.5165 14.8277 65.9554 14.7177 66.2419 14.4733C66.5268 14.2305 66.6858 13.8356 66.7139 13.2966L66.762 12.3918L65.9256 12.3497L65.9272 12.3514Z" fill="#848484"/>
<path d="M72.184 17.2115C71.6805 17.0626 71.2218 16.8457 70.8193 16.5657C70.0641 16.0186 69.703 15.3955 69.7444 14.7157L69.8388 13.1765L70.2893 13.2024L70.3556 13.2703C70.7762 13.7009 71.341 14.0213 72.0383 14.2269C72.5136 14.3661 73.0602 14.4567 73.663 14.4907C75.5561 14.6008 75.6025 13.8336 75.619 13.5827C75.6339 13.3286 75.5379 13.1441 75.3176 13.0033C75.1536 12.8964 74.8953 12.7912 74.5491 12.6893C74.2493 12.6003 73.8783 12.5145 73.4494 12.4319C73.1479 12.372 72.8664 12.3041 72.6047 12.2264C70.6123 11.6388 69.6517 10.5253 69.7494 8.91809C69.8206 7.74141 70.3721 6.76867 71.3924 6.02738C72.4291 5.25696 73.726 4.90897 75.248 4.99799C75.788 5.03036 76.2848 5.11129 76.7221 5.23915C77.315 5.41395 77.8218 5.68263 78.2276 6.03709C78.8387 6.57606 79.1253 7.21053 79.0805 7.92269L79.001 9.24989L78.5456 9.22237L78.4777 9.14792C78.0951 8.7271 77.5601 8.4131 76.8877 8.21402C76.4405 8.08292 75.9238 7.99876 75.3507 7.96477C74.6104 7.92269 74.0506 7.98743 73.6846 8.15899C73.3583 8.31275 73.1976 8.54259 73.1761 8.88248C73.1629 9.09127 73.2473 9.2337 73.4494 9.347C73.5984 9.4344 73.8452 9.52827 74.1881 9.63024C74.4829 9.71764 74.8439 9.80828 75.2729 9.90216C75.5097 9.95395 75.735 10.0122 75.9486 10.0753C78.0901 10.7066 79.1219 11.9043 79.0159 13.6329C78.9331 14.9957 78.4263 16.0121 77.5088 16.6531C76.6078 17.2827 75.2961 17.5514 73.61 17.4526C73.0983 17.4235 72.618 17.3426 72.1824 17.2147L72.184 17.2115Z" fill="#848484"/>
<path d="M80.0424 17.4965C79.1 17.2181 78.628 16.4962 78.6429 15.3519L78.8367 1.12012L80.0358 1.13468C80.4035 1.13954 80.7331 1.18486 81.0163 1.2674C81.6622 1.45839 82.429 1.96661 82.4108 3.31485L82.3727 6.03238C82.5765 5.82844 82.8083 5.64393 83.0684 5.47884C83.6397 5.10657 84.2244 4.92044 84.8024 4.92853C85.5312 4.93825 86.1936 5.02888 86.77 5.19883C88.9496 5.84139 90.0344 7.61692 89.9963 10.4785L89.897 17.736L88.6515 17.7198C88.3202 17.715 88.0188 17.6745 87.7588 17.5984C86.8197 17.3217 86.3526 16.5998 86.3692 15.4523L86.4355 10.5659C86.447 9.7016 86.2417 9.04609 85.826 8.61394C85.6107 8.39868 85.3423 8.24168 85.0277 8.14942C84.8057 8.08468 84.554 8.04907 84.2807 8.04584C83.7722 8.03936 83.3532 8.21254 82.9988 8.5751C82.5367 9.02829 82.2999 9.70969 82.2883 10.6015L82.1922 17.6373L80.9484 17.6211C80.6105 17.6162 80.3058 17.5742 80.0408 17.4965H80.0424Z" fill="#848484"/>
</g>
<defs>
<clipPath id="clip0_8589_132756">
<rect width="83" height="19" fill="white" transform="translate(7)"/>
</clipPath>
</defs>
</svg>
