<svg width="28" height="20" viewBox="0 0 28 20" fill="none" xmlns="http://www.w3.org/2000/svg">
<path d="M27.2148 10.1515C27.1428 13.4212 26.1176 16.3361 23.9644 18.8295C23.2964 19.6033 22.5153 19.7292 21.8447 19.1791C21.1895 18.6445 21.1715 17.7885 21.8215 17.0302C23.5893 14.9686 24.4552 12.5781 24.391 9.8713C24.3319 7.37533 23.4737 5.16726 21.8421 3.26508C21.079 2.37568 21.2408 1.29864 22.1838 0.882215C22.7645 0.625163 23.3529 0.753689 23.818 1.27036C25.6166 3.27536 26.6829 5.62738 27.076 8.2853C27.1659 8.89965 27.2559 9.51914 27.2148 10.1489V10.1515Z" fill="white"/>
<path d="M0.474854 9.48061C0.539089 6.84326 1.57457 3.9103 3.75087 1.40662C4.40608 0.650892 5.22059 0.545501 5.87579 1.11616C6.49759 1.65853 6.50016 2.4811 5.88093 3.22398C2.40706 7.40106 2.40192 12.8788 5.87065 17.0302C6.49502 17.7757 6.50016 18.5931 5.8835 19.1406C5.23343 19.719 4.43177 19.6161 3.75344 18.8655C1.70047 16.5906 0.474854 13.3338 0.474854 9.48061Z" fill="white"/>
<path d="M5.81378 10.1743C5.7958 7.98937 6.56663 6.1823 7.96439 4.62456C8.60932 3.90482 9.42126 3.80714 10.0482 4.35723C10.6828 4.91246 10.6854 5.77358 10.0533 6.50875C8.11085 8.77337 8.098 11.4827 10.0251 13.7319C10.67 14.4851 10.6828 15.3282 10.0585 15.886C9.41355 16.4644 8.56307 16.3358 7.88474 15.557C6.52552 13.9941 5.78295 12.1999 5.81635 10.1769L5.81378 10.1743Z" fill="white"/>
<path d="M21.8728 10.0663C21.8856 12.3155 21.0994 14.1406 19.6734 15.7034C19.1697 16.2561 18.5659 16.3743 17.9878 16.107C17.4225 15.8448 17.1168 15.3076 17.1784 14.6932C17.2118 14.3719 17.3377 14.0789 17.5613 13.8604C19.5654 11.8965 19.5809 8.44431 17.5767 6.4316C17.1707 6.02289 17.0577 5.49851 17.2787 4.93299C17.4816 4.41632 17.8748 4.14385 18.4041 4.0693C19.0027 3.98447 19.4344 4.29551 19.8044 4.71964C21.1662 6.28251 21.9062 8.08187 21.8728 10.0689V10.0663Z" fill="white"/>
<path d="M15.881 10.1514C15.8759 11.321 15.0049 12.1795 13.8281 12.1744C12.6564 12.1693 11.8008 11.2978 11.8059 10.1206C11.8111 8.9484 12.6795 8.09242 13.8589 8.09756C15.0306 8.1027 15.8862 8.9741 15.881 10.1514Z" fill="white"/>
</svg>
