<svg width="28" height="22" viewBox="0 0 28 22" fill="none" xmlns="http://www.w3.org/2000/svg">
<path d="M19.5232 9.79468C19.4667 9.79468 19.4076 9.79468 19.351 9.79468C17.555 9.83324 16.129 11.3216 16.1675 13.1184C16.2061 14.9151 17.6938 16.3418 19.4898 16.3032C19.4949 16.3032 19.5001 16.3032 19.5026 16.3032C21.2987 16.3006 22.7504 14.8432 22.7478 13.0464C22.7478 13.0412 22.7478 13.0361 22.7478 13.031C22.7478 11.247 21.3064 9.79725 19.5206 9.79468H19.5232ZM20.4405 13.3368C20.2812 13.5759 19.9754 13.671 19.7108 13.5631C19.626 13.5296 19.6157 13.5553 19.6208 13.6299V13.7044C19.6208 13.8055 19.6696 13.8595 19.7673 13.8664C19.8546 13.8612 19.9292 13.9306 19.9343 14.018C19.9343 14.0232 19.9343 14.0257 19.9343 14.0309C19.9394 14.1183 19.8752 14.1928 19.7878 14.198C19.7801 14.198 19.775 14.198 19.7673 14.198C19.6645 14.2005 19.5592 14.198 19.4538 14.198C19.3485 14.198 19.2457 14.2005 19.1403 14.198C19.0555 14.2031 18.981 14.1363 18.9785 14.0489C18.9785 14.0437 18.9785 14.036 18.9785 14.0309C18.9785 13.9435 19.0453 13.8715 19.1326 13.8715C19.1326 13.8715 19.1352 13.8715 19.1378 13.8715C19.2405 13.8629 19.2919 13.8072 19.2919 13.7044V13.6196C19.2996 13.5476 19.2791 13.5373 19.2097 13.5631C18.8834 13.689 18.516 13.5245 18.3901 13.198C18.3644 13.1338 18.3515 13.0644 18.349 12.995C18.3335 12.7353 18.4312 12.5246 18.5982 12.3395C18.8192 12.0901 19.0889 11.8845 19.3433 11.666C19.405 11.6043 19.5026 11.6043 19.5643 11.6609C19.8495 11.9076 20.1578 12.1287 20.3891 12.432C20.61 12.7199 20.628 13.0721 20.4405 13.3394V13.3368Z" fill="white"/>
<path d="M11.9149 7.47621C11.3445 6.37603 10.1831 5.71027 8.94466 5.77453C7.19231 5.82337 5.80225 7.268 5.82024 9.02109C5.82024 9.34498 5.86649 9.66886 5.96156 9.97732C6.48315 11.6944 8.29717 12.6609 10.0135 12.1391C10.2242 12.098 10.381 11.9232 10.3938 11.7098C10.5763 10.3243 11.0901 9.00567 11.8969 7.86436C11.9894 7.75383 11.9971 7.59446 11.9149 7.47621ZM9.95188 9.04423C9.70778 9.31156 9.46369 9.58146 9.21702 9.8488C9.12966 9.94133 9.05001 9.94133 8.96522 9.8488C8.72883 9.58403 8.49501 9.31927 8.26377 9.05194C8.18668 8.96454 8.18925 8.90028 8.26377 8.81288C8.49758 8.54555 8.7314 8.28078 8.96522 8.01602C9.04744 7.92348 9.12709 7.92348 9.21188 8.01345C9.46112 8.28335 9.70521 8.55326 9.95188 8.82316C9.98271 8.85144 10.0007 8.88742 10.0033 8.92855C10.0033 8.97225 9.98528 9.01595 9.95188 9.0468V9.04423Z" fill="white"/>
<path d="M27.8865 13.9563C27.7709 14.6786 27.5859 15.3855 27.3392 16.0744C26.6044 17.9792 25.1963 19.5472 23.3875 20.488C22.2415 21.0972 20.9645 21.4211 19.6669 21.4288C17.6088 21.4828 15.6021 20.7605 14.0502 19.4084C10.5275 16.388 10.1189 11.0825 13.138 7.55574C14.3893 6.09569 16.1057 5.10604 17.9968 4.75903C22.5627 3.92361 26.9435 6.9491 27.7786 11.5169C27.8043 11.6609 27.8274 11.8048 27.8454 11.9488C27.8557 12.0104 27.8685 12.0696 27.8865 12.1287V13.9563ZM23.9425 13.0489C23.9425 10.5992 21.9589 8.61223 19.5102 8.60966C17.0615 8.60966 15.0754 10.5941 15.0728 13.0438C15.0728 15.4935 17.0564 17.4805 19.5051 17.4831C21.9511 17.4882 23.9373 15.5063 23.9399 13.0592C23.9399 13.0541 23.9399 13.0515 23.9399 13.0464L23.9425 13.0489ZM25.6049 11.8588L26.386 11.7483C26.553 11.7251 26.5941 11.6506 26.5633 11.4758C26.3963 10.5967 26.0571 9.76124 25.5663 9.01323C25.479 8.88213 25.4045 8.85128 25.2734 8.9541C25.1424 9.05692 24.9317 9.20601 24.757 9.32426C24.6542 9.39366 24.6156 9.45535 24.6876 9.58131C25.0781 10.2368 25.3582 10.9514 25.5149 11.6994C25.5329 11.7842 25.5638 11.8639 25.6074 11.8614L25.6049 11.8588ZM18.4799 6.76917C18.4413 6.53268 18.4002 6.28077 18.3642 6.03657C18.3488 5.90547 18.2769 5.87977 18.1612 5.9029C17.2619 6.10083 16.4012 6.44014 15.6124 6.91312C15.5122 6.97224 15.4685 7.03393 15.5481 7.1496C15.6997 7.35524 15.8488 7.56346 15.9952 7.77424C16.0672 7.8822 16.1468 7.86935 16.2316 7.80508C16.8534 7.38095 17.5574 7.09305 18.2974 6.95939C18.4028 6.94653 18.5055 6.91826 18.4773 6.77174L18.4799 6.76917ZM21.0673 5.98002C20.9671 5.96717 20.9439 6.034 20.9311 6.10854C20.8848 6.36046 20.836 6.61237 20.7923 6.86428C20.7666 7.01594 20.8566 7.06478 20.9825 7.10076C21.594 7.24985 22.1721 7.51462 22.6886 7.87449C22.8248 7.9696 22.9018 7.94132 22.9892 7.8128C23.1151 7.62001 23.2487 7.43493 23.3926 7.25499C23.5313 7.09048 23.48 7.00822 23.3129 6.90797C22.8093 6.61237 22.2775 6.36817 21.725 6.17795C21.5015 6.10854 21.2805 6.05971 21.0596 5.98516L21.0647 5.97745L21.0673 5.98002ZM18.1792 19.2362C18.2152 19.1076 18.0996 19.0871 17.9942 19.0614C17.6114 18.9508 17.2414 18.8095 16.8842 18.6347C16.6247 18.5164 16.3883 18.1643 16.1417 18.2722C15.895 18.3802 15.7717 18.7272 15.5944 18.9663L15.5636 19.0074C15.4839 19.1025 15.5199 19.159 15.6124 19.2156C16.2984 19.6192 17.0358 19.9302 17.8041 20.1358C17.9223 20.1693 18.0148 20.1667 18.0405 20.0176C18.0842 19.7528 18.133 19.5035 18.1818 19.231L18.1792 19.2362ZM26.6763 14.4242C26.6763 14.3239 26.6044 14.3136 26.5222 14.2982C26.2858 14.2596 26.0648 14.2314 25.8438 14.1748C25.6717 14.1337 25.6074 14.1877 25.5612 14.3496C25.4404 14.7917 25.2786 15.2236 25.0781 15.6374C24.9831 15.8482 24.721 16.0539 24.8186 16.2646C24.9163 16.4754 25.1783 16.5577 25.3608 16.7093C25.5021 16.8224 25.5972 16.8147 25.6999 16.6554C25.9389 16.2955 26.1496 15.9125 26.3243 15.5166C26.481 15.1619 26.5992 14.7917 26.6738 14.4139V14.4242H26.6763ZM20.9182 19.1539C20.9542 19.4007 20.9825 19.6012 21.0133 19.8017C21.0287 19.9251 21.075 19.9867 21.2214 19.9585C21.9717 19.8299 22.6937 19.5703 23.3541 19.195C23.48 19.1256 23.4902 19.0588 23.408 18.9457C23.2564 18.7401 23.1048 18.5344 22.9661 18.3185C22.8864 18.1951 22.8145 18.2131 22.704 18.2748C22.1952 18.5781 21.648 18.8146 21.0801 18.9817C20.9619 19.0048 20.8951 19.0665 20.9182 19.159V19.1539ZM13.3359 14.2956C13.0995 14.3316 12.8657 14.3753 12.6293 14.401C12.4597 14.419 12.4211 14.5013 12.4648 14.6529C12.6729 15.3675 12.9659 16.0539 13.341 16.6939C13.4104 16.8147 13.4849 16.8276 13.5954 16.7428C13.7572 16.6168 13.9217 16.5063 14.0913 16.388C14.2146 16.3058 14.2172 16.2158 14.1504 16.0976C13.8703 15.5937 13.6776 15.0488 13.5774 14.4807C13.5748 14.3727 13.4823 14.2853 13.3744 14.2905C13.3616 14.2905 13.3487 14.2905 13.3359 14.2956ZM13.305 11.5349C13.472 11.576 13.4977 11.4552 13.526 11.3421C13.6468 10.8794 13.824 10.4347 14.0502 10.0132C14.1478 9.82037 14.3996 9.65328 14.3405 9.44507C14.2814 9.23686 13.9936 9.16746 13.824 9.0158C13.6545 8.86414 13.5877 8.91812 13.5054 9.08263C13.1586 9.69698 12.8811 10.3499 12.6807 11.0285C12.607 11.277 12.6944 11.4235 12.9427 11.4681L13.3076 11.5375L13.305 11.5349Z" fill="white"/>
<path d="M0.645508 9.01075C0.833076 5.43259 2.46723 2.77211 5.77665 1.29664C9.44837 -0.291941 13.7316 0.954759 15.9798 4.26558C16.1751 4.55348 16.1726 4.55091 15.8539 4.68458C15.6921 4.75398 15.5302 4.82595 15.3683 4.89793C15.2553 4.94934 15.1499 5.02388 15.0394 4.89793C14.9906 4.83624 14.9264 4.87222 14.875 4.91078C14.6669 5.05987 14.3688 5.16269 14.2635 5.36833C13.9808 5.903 13.3976 6.08808 13.0507 6.52763C12.9094 6.70757 12.8143 6.65873 12.6858 6.48908C11.8739 5.29122 10.5121 4.58432 9.06809 4.60746C6.61686 4.59975 4.62555 6.58161 4.61784 9.03389C4.6127 11.1494 6.09783 12.9745 8.16879 13.396C8.76747 13.5271 9.38927 13.5194 9.98538 13.3755C10.2218 13.3189 10.3117 13.3755 10.3271 13.6351C10.3554 13.9975 10.4016 14.3548 10.4659 14.7122C10.5198 15.0592 10.4787 15.419 10.5661 15.7609C10.5918 15.8637 10.5841 15.9743 10.7331 15.9974C10.8256 15.9974 10.8487 16.0951 10.8821 16.1696C10.9926 16.419 11.0954 16.676 11.2136 16.9202C11.2958 17.0873 11.2804 17.167 11.0774 17.2158C10.0342 17.4703 8.95247 17.5243 7.89129 17.3726C4.24528 16.8534 1.35981 14.031 0.76884 10.3988C0.694327 9.94128 0.653216 9.47858 0.645508 9.01332V9.01075ZM8.04289 2.82095C7.99407 2.51506 7.95553 2.26315 7.91699 2.01124C7.90157 1.90328 7.84247 1.86986 7.72942 1.893C6.83012 2.08321 5.96679 2.42252 5.17798 2.8955C5.06235 2.96233 5.03409 3.03945 5.11888 3.15255C5.26534 3.35305 5.40923 3.55355 5.54798 3.75662C5.60707 3.84659 5.66617 3.87743 5.76124 3.80803C6.40359 3.36333 7.13331 3.06515 7.90157 2.93148C7.98379 2.91863 8.04803 2.86722 8.04289 2.82095ZM10.6586 1.98553C10.5301 1.94955 10.4864 2.02152 10.4684 2.13462C10.4299 2.37111 10.3913 2.62302 10.34 2.86722C10.3117 2.99318 10.3657 3.04716 10.4761 3.07286C11.1134 3.23223 11.7146 3.50214 12.2567 3.87229C12.3492 3.93398 12.434 3.94684 12.5086 3.84402C12.673 3.60753 12.8374 3.37361 13.007 3.16026C13.0661 3.078 13.0584 3.02402 12.9685 2.96747C12.2542 2.52534 11.4756 2.19632 10.6586 1.98811V1.98553ZM7.72171 15.2854C7.74227 15.1234 7.67546 15.0695 7.57011 15.0489C6.96116 14.8947 6.38304 14.6325 5.86915 14.27C5.80492 14.2058 5.70214 14.2083 5.64047 14.27C5.62506 14.2854 5.61478 14.3009 5.60707 14.3214C5.45548 14.5374 5.29874 14.7533 5.13687 14.9641C5.04694 15.0797 5.07777 15.1466 5.19339 15.216C5.87943 15.6195 6.61686 15.928 7.38768 16.1285C7.47505 16.1516 7.56241 16.1696 7.58553 16.0334C7.63178 15.7635 7.68317 15.5039 7.72428 15.2828L7.72171 15.2854ZM1.99703 10.5453C2.00987 10.5942 2.02272 10.6456 2.03814 10.697C2.22827 11.3319 2.48779 11.9411 2.8141 12.5169C2.98883 12.8305 2.98626 12.8305 3.26632 12.6326C3.4025 12.5349 3.53868 12.4347 3.67743 12.3421C3.75195 12.3087 3.78535 12.2188 3.74938 12.1442C3.74424 12.1339 3.7391 12.1262 3.73396 12.1185C3.43334 11.589 3.22521 11.0106 3.11473 10.4117C3.09674 10.3089 3.04535 10.2472 2.93487 10.26L2.1255 10.386C2.04585 10.3988 1.96876 10.4297 1.99703 10.5428V10.5453ZM2.89119 7.50957C3.03764 7.53271 3.0582 7.39647 3.08903 7.27308C3.21237 6.81296 3.38966 6.36826 3.6209 5.95184C3.71854 5.76933 3.97292 5.59968 3.89583 5.4146C3.81875 5.22952 3.56438 5.14213 3.39993 4.99818C3.23549 4.85423 3.13785 4.90821 3.03764 5.08558C2.73702 5.60482 2.49293 6.15748 2.31564 6.73327C2.07925 7.53013 2.02786 7.3322 2.8064 7.49929C2.83466 7.50443 2.86292 7.507 2.89119 7.50957Z" fill="white"/>
</svg>
