<svg width="28" height="22" viewBox="0 0 28 22" fill="none" xmlns="http://www.w3.org/2000/svg">
<path d="M18.8779 9.79462C18.8214 9.79462 18.7623 9.79462 18.7058 9.79462C16.9097 9.83317 15.4837 11.3215 15.5222 13.1183C15.5608 14.9151 17.0485 16.3417 18.8445 16.3032C18.8497 16.3032 18.8548 16.3032 18.8574 16.3032C20.6534 16.3006 22.1051 14.8431 22.1025 13.0463C22.1025 13.0412 22.1025 13.036 22.1025 13.0309C22.1025 11.247 20.6611 9.79719 18.8753 9.79462H18.8779ZM19.7952 13.3368C19.6359 13.5758 19.3301 13.671 19.0655 13.563C18.9807 13.5296 18.9704 13.5553 18.9756 13.6298V13.7044C18.9756 13.8055 19.0244 13.8595 19.122 13.8663C19.2094 13.8612 19.2839 13.9306 19.289 14.018C19.289 14.0231 19.289 14.0257 19.289 14.0308C19.2942 14.1182 19.2299 14.1928 19.1426 14.1979C19.1349 14.1979 19.1297 14.1979 19.122 14.1979C19.0192 14.2005 18.9139 14.1979 18.8085 14.1979C18.7032 14.1979 18.6004 14.2005 18.4951 14.1979C18.4103 14.203 18.3358 14.1362 18.3332 14.0488C18.3332 14.0437 18.3332 14.036 18.3332 14.0308C18.3332 13.9434 18.4 13.8715 18.4874 13.8715C18.4874 13.8715 18.4899 13.8715 18.4925 13.8715C18.5953 13.8629 18.6467 13.8072 18.6467 13.7044V13.6195C18.6544 13.5476 18.6338 13.5373 18.5644 13.563C18.2381 13.6889 17.8707 13.5244 17.7448 13.198C17.7191 13.1337 17.7063 13.0643 17.7037 12.9949C17.6883 12.7353 17.7859 12.5245 17.9529 12.3394C18.1739 12.0901 18.4437 11.8844 18.6981 11.666C18.7597 11.6043 18.8574 11.6043 18.919 11.6608C19.2042 11.9076 19.5126 12.1286 19.7438 12.432C19.9648 12.7199 19.9828 13.072 19.7952 13.3394V13.3368Z" fill="url(#paint0_linear_5699_104876)"/>
<path d="M11.2697 7.47615C10.6992 6.37597 9.53786 5.71021 8.2994 5.77447C6.54705 5.82331 5.15699 7.26794 5.17498 9.02103C5.17498 9.34491 5.22123 9.6688 5.3163 9.97726C5.83789 11.6944 7.6519 12.6609 9.36828 12.1391C9.57897 12.0979 9.73571 11.9231 9.74856 11.7098C9.93099 10.3243 10.4449 9.00561 11.2517 7.8643C11.3442 7.75377 11.3519 7.59439 11.2697 7.47615ZM9.30662 9.04416C9.06252 9.3115 8.81842 9.5814 8.57176 9.84873C8.4844 9.94127 8.40475 9.94127 8.31996 9.84873C8.08357 9.58397 7.84975 9.31921 7.6185 9.05188C7.54142 8.96448 7.54399 8.90022 7.6185 8.81282C7.85232 8.54548 8.08614 8.28072 8.31996 8.01596C8.40218 7.92342 8.48183 7.92342 8.56662 8.01339C8.81586 8.28329 9.05995 8.5532 9.30662 8.8231C9.33745 8.85138 9.35543 8.88736 9.358 8.92849C9.358 8.97219 9.34002 9.01589 9.30662 9.04673V9.04416Z" fill="url(#paint1_linear_5699_104876)"/>
<path d="M27.2413 13.9563C27.1256 14.6786 26.9406 15.3855 26.694 16.0744C25.9591 17.9791 24.5511 19.5471 22.7422 20.4879C21.5962 21.0972 20.3192 21.421 19.0217 21.4287C16.9636 21.4827 14.9568 20.7604 13.4049 19.4083C9.88221 16.388 9.47367 11.0824 12.4927 7.55568C13.7441 6.09563 15.4604 5.10598 17.3515 4.75896C21.9174 3.92355 26.2983 6.94904 27.1333 11.5168C27.159 11.6608 27.1822 11.8047 27.2001 11.9487C27.2104 12.0104 27.2233 12.0695 27.2413 12.1286V13.9563ZM23.2972 13.0489C23.2972 10.5992 21.3136 8.61216 18.8649 8.60959C16.4163 8.60959 14.4301 10.594 14.4275 13.0437C14.4275 15.4934 16.4111 17.4804 18.8598 17.483C21.3059 17.4881 23.2921 15.5063 23.2946 13.0592C23.2946 13.054 23.2946 13.0514 23.2946 13.0463L23.2972 13.0489ZM24.9596 11.8587L25.7407 11.7482C25.9077 11.7251 25.9488 11.6505 25.918 11.4757C25.751 10.5966 25.4118 9.76118 24.9211 9.01316C24.8337 8.88207 24.7592 8.85122 24.6282 8.95404C24.4971 9.05686 24.2864 9.20595 24.1117 9.3242C24.0089 9.3936 23.9704 9.45529 24.0423 9.58125C24.4329 10.2367 24.7129 10.9513 24.8697 11.6994C24.8877 11.7842 24.9185 11.8639 24.9622 11.8613L24.9596 11.8587ZM17.8346 6.76911C17.796 6.53262 17.7549 6.28071 17.719 6.03651C17.7035 5.90541 17.6316 5.87971 17.516 5.90284C16.6167 6.10077 15.7559 6.44008 14.9671 6.91305C14.8669 6.97218 14.8232 7.03387 14.9029 7.14954C15.0545 7.35518 15.2035 7.5634 15.35 7.77418C15.4219 7.88214 15.5015 7.86929 15.5863 7.80502C16.2081 7.38089 16.9122 7.09299 17.6522 6.95932C17.7575 6.94647 17.8603 6.9182 17.832 6.77168L17.8346 6.76911ZM20.422 5.97996C20.3218 5.96711 20.2987 6.03394 20.2858 6.10848C20.2396 6.36039 20.1908 6.6123 20.1471 6.86422C20.1214 7.01588 20.2113 7.06472 20.3372 7.1007C20.9487 7.24979 21.5269 7.51456 22.0433 7.87443C22.1795 7.96954 22.2566 7.94126 22.3439 7.81273C22.4698 7.61995 22.6034 7.43487 22.7473 7.25493C22.8861 7.09042 22.8347 7.00816 22.6677 6.90791C22.1641 6.6123 21.6322 6.36811 21.0798 6.17789C20.8562 6.10848 20.6353 6.05964 20.4143 5.9851L20.4194 5.97739L20.422 5.97996ZM17.534 19.2361C17.5699 19.1076 17.4543 19.087 17.349 19.0613C16.9661 18.9508 16.5961 18.8094 16.239 18.6346C15.9795 18.5164 15.7431 18.1642 15.4964 18.2722C15.2497 18.3801 15.1264 18.7271 14.9491 18.9662L14.9183 19.0073C14.8386 19.1024 14.8746 19.159 14.9671 19.2155C15.6531 19.6191 16.3906 19.9301 17.1588 20.1358C17.277 20.1692 17.3695 20.1666 17.3952 20.0175C17.4389 19.7528 17.4877 19.5034 17.5365 19.231L17.534 19.2361ZM26.0311 14.4241C26.0311 14.3238 25.9591 14.3136 25.8769 14.2981C25.6405 14.2596 25.4195 14.2313 25.1986 14.1748C25.0264 14.1336 24.9622 14.1876 24.9159 14.3496C24.7952 14.7917 24.6333 15.2235 24.4329 15.6374C24.3378 15.8482 24.0757 16.0538 24.1734 16.2646C24.271 16.4754 24.5331 16.5576 24.7155 16.7093C24.8568 16.8224 24.9519 16.8147 25.0547 16.6553C25.2936 16.2954 25.5043 15.9124 25.679 15.5166C25.8358 15.1618 25.954 14.7917 26.0285 14.4138V14.4241H26.0311ZM20.273 19.1538C20.3089 19.4006 20.3372 19.6011 20.368 19.8016C20.3835 19.925 20.4297 19.9867 20.5762 19.9584C21.3264 19.8299 22.0484 19.5703 22.7088 19.195C22.8347 19.1256 22.845 19.0587 22.7627 18.9456C22.6112 18.74 22.4596 18.5343 22.3208 18.3184C22.2412 18.195 22.1692 18.213 22.0587 18.2747C21.55 18.578 21.0027 18.8145 20.4348 18.9816C20.3167 19.0048 20.2498 19.0664 20.273 19.159V19.1538ZM12.6906 14.2956C12.4542 14.3316 12.2204 14.3753 11.984 14.401C11.8144 14.419 11.7759 14.5012 11.8196 14.6529C12.0277 15.3675 12.3206 16.0538 12.6957 16.6939C12.7651 16.8147 12.8396 16.8275 12.9501 16.7427C13.112 16.6167 13.2764 16.5062 13.446 16.388C13.5693 16.3057 13.5719 16.2157 13.5051 16.0975C13.225 15.5937 13.0323 15.0487 12.9321 14.4806C12.9296 14.3727 12.8371 14.2853 12.7291 14.2904C12.7163 14.2904 12.7034 14.2904 12.6906 14.2956ZM12.6598 11.5348C12.8268 11.576 12.8525 11.4552 12.8807 11.3421C13.0015 10.8794 13.1788 10.4347 13.4049 10.0131C13.5025 9.82031 13.7543 9.65322 13.6952 9.44501C13.6361 9.2368 13.3484 9.1674 13.1788 9.01574C13.0092 8.86408 12.9424 8.91806 12.8602 9.08257C12.5133 9.69692 12.2358 10.3498 12.0354 11.0284C11.9617 11.2769 12.0491 11.4235 12.2975 11.468L12.6623 11.5374L12.6598 11.5348Z" fill="url(#paint2_linear_5699_104876)"/>
<path d="M0 9.01075C0.187568 5.43259 1.82172 2.77211 5.13115 1.29664C8.80286 -0.291941 13.0861 0.954759 15.3343 4.26558C15.5296 4.55348 15.527 4.55091 15.2084 4.68457C15.0466 4.75398 14.8847 4.82595 14.7228 4.89793C14.6098 4.94934 14.5044 5.02388 14.3939 4.89793C14.3451 4.83624 14.2809 4.87222 14.2295 4.91078C14.0214 5.05987 13.7233 5.16269 13.618 5.36833C13.3353 5.903 12.7521 6.08808 12.4052 6.52763C12.2639 6.70757 12.1688 6.65873 12.0403 6.48908C11.2284 5.29122 9.8666 4.58432 8.42258 4.60746C5.97135 4.59975 3.98004 6.58161 3.97233 9.03389C3.9672 11.1494 5.45232 12.9745 7.52328 13.396C8.12196 13.5271 8.74376 13.5194 9.33987 13.3755C9.57625 13.3189 9.66619 13.3755 9.6816 13.6351C9.70987 13.9975 9.75612 14.3548 9.82035 14.7122C9.87431 15.0592 9.8332 15.419 9.92056 15.7609C9.94625 15.8637 9.93854 15.9743 10.0876 15.9974C10.1801 15.9974 10.2032 16.0951 10.2366 16.1696C10.3471 16.419 10.4499 16.676 10.5681 16.9202C10.6503 17.0873 10.6349 17.167 10.4319 17.2158C9.38869 17.4703 8.30696 17.5243 7.24578 17.3726C3.59977 16.8534 0.714301 14.031 0.123333 10.3988C0.0488191 9.94128 0.00770828 9.47858 0 9.01332V9.01075ZM7.39738 2.82095C7.34856 2.51506 7.31002 2.26315 7.27148 2.01124C7.25606 1.90328 7.19697 1.86986 7.08391 1.893C6.18461 2.08321 5.32128 2.42252 4.53247 2.8955C4.41685 2.96233 4.38858 3.03945 4.47337 3.15255C4.61983 3.35305 4.76372 3.55355 4.90247 3.75662C4.96156 3.84659 5.02066 3.87743 5.11573 3.80803C5.75809 3.36333 6.4878 3.06515 7.25606 2.93148C7.33828 2.91863 7.40252 2.86722 7.39738 2.82095ZM10.0131 1.98553C9.88459 1.94955 9.84091 2.02152 9.82292 2.13462C9.78438 2.37111 9.74584 2.62302 9.69445 2.86722C9.66618 2.99318 9.72014 3.04716 9.83063 3.07286C10.4678 3.23223 11.0691 3.50214 11.6112 3.87229C11.7037 3.93398 11.7885 3.94684 11.863 3.84402C12.0275 3.60753 12.1919 3.37361 12.3615 3.16026C12.4206 3.078 12.4129 3.02402 12.323 2.96747C11.6087 2.52534 10.8301 2.19632 10.0131 1.98811V1.98553ZM7.0762 15.2854C7.09676 15.1234 7.02995 15.0695 6.92461 15.0489C6.31565 14.8947 5.73753 14.6325 5.22365 14.27C5.15941 14.2058 5.05663 14.2083 4.99497 14.27C4.97955 14.2854 4.96927 14.3009 4.96156 14.3214C4.80997 14.5374 4.65323 14.7533 4.49136 14.9641C4.40143 15.0797 4.43226 15.1466 4.54789 15.216C5.23392 15.6195 5.97135 15.928 6.74218 16.1285C6.82954 16.1516 6.9169 16.1696 6.94002 16.0334C6.98627 15.7635 7.03766 15.5039 7.07877 15.2828L7.0762 15.2854ZM1.35152 10.5453C1.36437 10.5942 1.37721 10.6456 1.39263 10.697C1.58277 11.3319 1.84228 11.9411 2.1686 12.5169C2.34332 12.8305 2.34075 12.8305 2.62082 12.6326C2.757 12.5349 2.89318 12.4347 3.03192 12.3421C3.10644 12.3087 3.13984 12.2188 3.10387 12.1442C3.09873 12.1339 3.09359 12.1262 3.08845 12.1185C2.78783 11.589 2.5797 11.0106 2.46922 10.4117C2.45123 10.3089 2.39984 10.2472 2.28936 10.26L1.47999 10.386C1.40034 10.3988 1.32326 10.4297 1.35152 10.5428V10.5453ZM2.24568 7.50957C2.39214 7.53271 2.41269 7.39647 2.44353 7.27308C2.56686 6.81296 2.74415 6.36826 2.9754 5.95184C3.07303 5.76933 3.32741 5.59968 3.25033 5.4146C3.17324 5.22952 2.91887 5.14213 2.75443 4.99818C2.58998 4.85423 2.49234 4.90821 2.39214 5.08558C2.09151 5.60482 1.84742 6.15748 1.67013 6.73327C1.43374 7.53013 1.38235 7.3322 2.16089 7.49929C2.18915 7.50443 2.21742 7.507 2.24568 7.50957Z" fill="url(#paint3_linear_5699_104876)"/>
<defs>
<linearGradient id="paint0_linear_5699_104876" x1="15.5215" y1="13.0493" x2="22.1026" y2="13.0493" gradientUnits="userSpaceOnUse">
<stop stop-color="#F2D71A"/>
<stop offset="1" stop-color="#ECB024"/>
</linearGradient>
<linearGradient id="paint1_linear_5699_104876" x1="5.1748" y1="9.02537" x2="11.3266" y2="9.02537" gradientUnits="userSpaceOnUse">
<stop stop-color="#F2D71A"/>
<stop offset="1" stop-color="#ECB024"/>
</linearGradient>
<linearGradient id="paint2_linear_5699_104876" x1="10.4707" y1="13.0259" x2="27.2413" y2="13.0259" gradientUnits="userSpaceOnUse">
<stop stop-color="#F2D71A"/>
<stop offset="1" stop-color="#ECB024"/>
</linearGradient>
<linearGradient id="paint3_linear_5699_104876" x1="0" y1="9.03393" x2="15.4672" y2="9.03393" gradientUnits="userSpaceOnUse">
<stop stop-color="#F2D71A"/>
<stop offset="1" stop-color="#ECB024"/>
</linearGradient>
</defs>
</svg>
