<svg width="24" height="17" viewBox="0 0 24 17" fill="none" xmlns="http://www.w3.org/2000/svg">
<path d="M23.991 8.26556C23.9277 11.1411 23.0261 13.7047 21.1325 15.8975C20.545 16.5779 19.858 16.6887 19.2683 16.2049C18.692 15.7347 18.6762 14.9819 19.2479 14.315C20.8026 12.502 21.5641 10.3996 21.5076 8.01915C21.4556 5.82407 20.7009 3.88218 19.266 2.20931C18.5949 1.42713 18.7372 0.47992 19.5665 0.113696C20.0772 -0.112368 20.5947 0.000664085 21.0037 0.455053C22.5855 2.21835 23.5232 4.28684 23.869 6.62434C23.9481 7.16463 24.0272 7.70945 23.991 8.2633V8.26556Z" fill="url(#paint0_linear_5818_113253)"/>
<path d="M0.474609 7.67556C0.531101 5.35614 1.44175 2.77675 3.35571 0.574891C3.93193 -0.0897367 4.64825 -0.182423 5.22447 0.319439C5.77131 0.796434 5.77357 1.51984 5.22898 2.17316C2.17389 5.8467 2.16937 10.6641 5.21995 14.3151C5.76905 14.9706 5.77357 15.6895 5.23124 16.171C4.65954 16.6797 3.95452 16.5893 3.35797 15.9292C1.55248 13.9285 0.474609 11.0643 0.474609 7.67556Z" fill="url(#paint1_linear_5818_113253)"/>
<path d="M5.17019 8.28562C5.15437 6.36408 5.83228 4.77485 7.06155 3.4049C7.62873 2.77192 8.34279 2.68602 8.89415 3.1698C9.45229 3.6581 9.45455 4.41541 8.89867 5.06195C7.19035 7.05358 7.17905 9.43629 8.87381 11.4143C9.44099 12.0767 9.45229 12.8182 8.90319 13.3088C8.33601 13.8174 7.58805 13.7044 6.9915 13.0194C5.79612 11.6449 5.14308 10.067 5.17245 8.28788L5.17019 8.28562Z" fill="url(#paint2_linear_5818_113253)"/>
<path d="M19.2929 8.19065C19.3042 10.1687 18.6127 11.7738 17.3586 13.1482C16.9157 13.6343 16.3847 13.7383 15.8762 13.5032C15.3791 13.2726 15.1102 12.8001 15.1644 12.2598C15.1938 11.9772 15.3045 11.7195 15.5011 11.5274C17.2637 9.80023 17.2772 6.76419 15.5147 4.99411C15.1576 4.63467 15.0582 4.1735 15.2526 3.67616C15.4311 3.22177 15.7768 2.98214 16.2423 2.91658C16.7688 2.84198 17.1484 3.11552 17.4738 3.48852C18.6715 4.86299 19.3222 6.44544 19.2929 8.19291V8.19065Z" fill="url(#paint3_linear_5818_113253)"/>
<path d="M14.0236 8.26549C14.0191 9.29408 13.253 10.0491 12.2181 10.0446C11.1877 10.0401 10.4352 9.27373 10.4397 8.23836C10.4442 7.20751 11.208 6.45471 12.2452 6.45923C13.2756 6.46375 14.0281 7.23011 14.0236 8.26549Z" fill="url(#paint4_linear_5818_113253)"/>
<defs>
<linearGradient id="paint0_linear_5818_113253" x1="18.8275" y1="8.2513" x2="24" y2="8.2513" gradientUnits="userSpaceOnUse">
<stop stop-color="#F2D71A"/>
<stop offset="1" stop-color="#ECB024"/>
</linearGradient>
<linearGradient id="paint1_linear_5818_113253" x1="0.474609" y1="8.24861" x2="5.63602" y2="8.24861" gradientUnits="userSpaceOnUse">
<stop stop-color="#F2D71A"/>
<stop offset="1" stop-color="#ECB024"/>
</linearGradient>
<linearGradient id="paint2_linear_5818_113253" x1="5.16992" y1="8.24215" x2="9.31418" y2="8.24215" gradientUnits="userSpaceOnUse">
<stop stop-color="#F2D71A"/>
<stop offset="1" stop-color="#ECB024"/>
</linearGradient>
<linearGradient id="paint3_linear_5818_113253" x1="15.1548" y1="8.26397" x2="19.2938" y2="8.26397" gradientUnits="userSpaceOnUse">
<stop stop-color="#F2D71A"/>
<stop offset="1" stop-color="#ECB024"/>
</linearGradient>
<linearGradient id="paint4_linear_5818_113253" x1="10.4397" y1="8.25192" x2="14.0236" y2="8.25192" gradientUnits="userSpaceOnUse">
<stop stop-color="#F2D71A"/>
<stop offset="1" stop-color="#ECB024"/>
</linearGradient>
</defs>
</svg>
