<svg width="87" height="28" viewBox="0 0 87 28" fill="none" xmlns="http://www.w3.org/2000/svg">
<path d="M85.7586 8.86211C84.9818 6.63534 82.8605 5.04025 80.3712 5.04025H80.3213C78.7041 5.04025 77.2414 5.71283 76.2058 6.7944C75.1655 5.71283 73.7074 5.04025 72.0903 5.04025H72.0403C70.6185 5.04025 69.3148 5.56286 68.3154 6.4263V5.98549C68.2791 5.54923 67.9202 5.20385 67.4796 5.20385H63.6594C63.1915 5.20385 62.8145 5.58104 62.8145 6.04911V26.8035C62.8145 27.2715 63.1915 27.6487 63.6594 27.6487H67.4796C67.9066 27.6487 68.2564 27.3306 68.3109 26.9171V12.0205C68.3109 11.9705 68.3109 11.9205 68.3154 11.8705C68.3745 11.207 68.8651 10.6572 69.6327 10.589H70.3368C70.6593 10.6163 70.9319 10.7299 71.1454 10.9026C71.477 11.1661 71.6633 11.5751 71.6633 12.0205L71.6769 26.8444C71.6769 27.3124 72.0539 27.6942 72.5218 27.6942H76.342C76.7917 27.6942 77.1597 27.3352 77.1824 26.8853V11.9978C77.1824 11.507 77.405 11.0662 77.8002 10.8026C77.9955 10.6753 78.2317 10.5935 78.5043 10.5663H79.2083C80.0351 10.639 80.5347 11.2661 80.5347 11.9932L80.5484 26.7989C80.5484 27.267 80.9254 27.6442 81.3933 27.6442H85.2135C85.6768 27.6442 86.0584 27.267 86.0584 26.7989V10.8844C86.0584 9.79826 85.9358 9.33473 85.7677 8.86211" fill="#848484"/>
<path d="M59.8983 5.2575H57.7133V1.7174V1.70831C57.7133 1.28114 57.3681 0.93576 56.9411 0.93576C56.8911 0.93576 56.8412 0.944849 56.7957 0.953938C54.3746 1.61742 54.8606 4.97575 50.4362 5.26205H50.0047C49.9411 5.26205 49.8775 5.27114 49.8185 5.28477C49.4414 5.37111 49.1553 5.7074 49.1553 6.10731V9.92917C49.1553 10.3927 49.5323 10.7744 50.0002 10.7744H52.3032V26.9798C52.3032 27.4434 52.6711 27.816 53.1345 27.816H56.9093C57.3681 27.816 57.7451 27.4434 57.7451 26.9798V10.7699H59.8847C60.348 10.7699 60.7295 10.3927 60.7295 9.92462V6.10276C60.7295 5.63923 60.3525 5.2575 59.8847 5.2575" fill="#848484"/>
<path d="M46.1571 5.25885H42.3369C41.8736 5.25885 41.492 5.63604 41.492 6.10411V14.0069C41.4829 14.4977 41.0877 14.8885 40.5971 14.8885H38.9981C38.503 14.8885 38.1033 14.4886 38.1033 13.9932L38.0896 6.10411C38.0896 5.64058 37.7126 5.25885 37.2447 5.25885H33.4245C32.9566 5.25885 32.5796 5.63604 32.5796 6.10411V14.7658C32.5796 18.0559 34.9235 20.4009 38.2123 20.4009C38.2123 20.4009 40.6789 20.4009 40.7561 20.4145C41.2013 20.4645 41.5465 20.8371 41.5465 21.3007C41.5465 21.7642 41.2058 22.1277 40.7652 22.1823C40.7425 22.1823 40.7243 22.1914 40.7016 22.1959L35.1143 22.2141C34.6464 22.2141 34.2694 22.5913 34.2694 23.0593V26.8812C34.2694 27.3493 34.6464 27.7265 35.1143 27.7265H41.3602C44.6536 27.7265 46.993 25.3815 46.993 22.0914V6.10411C46.993 5.64058 46.6159 5.25885 46.148 5.25885" fill="#848484"/>
<path d="M9.18102 12.2613V14.6199C9.18102 15.1152 8.78126 15.5151 8.28613 15.5151H5.86045V10.7935H8.28613C8.78126 10.7935 9.18102 11.1934 9.18102 11.6887V12.2613ZM9.51716 5.25839H1.16805C0.709254 5.25839 0.341309 5.63103 0.341309 6.08547V9.83007C0.341309 9.83007 0.341309 9.84371 0.341309 9.8528C0.341309 9.87097 0.341309 9.88915 0.341309 9.90279V26.8489C0.341309 27.3079 0.686544 27.6851 1.11354 27.6942H5.00646C5.4698 27.6942 5.85136 27.317 5.85136 26.8489L5.86497 21.0412H9.52171C12.5788 21.0412 14.7092 18.9189 14.7092 15.8469V10.4572C14.7092 7.38518 12.5788 5.25385 9.52171 5.25385" fill="#848484"/>
<path d="M25.03 21.2337V21.829C25.03 21.879 25.0209 21.9245 25.0164 21.9699C25.0073 22.0108 24.9936 22.0563 24.98 22.0926C24.8619 22.4289 24.5258 22.6698 24.1306 22.6698H22.5407C22.0456 22.6698 21.6413 22.2926 21.6413 21.829V21.1065C21.6413 21.1065 21.6413 21.0883 21.6413 21.0792V19.1615V18.5661C21.6413 18.0981 22.0456 17.7254 22.5407 17.7254H24.1306C24.6302 17.7254 25.03 18.1026 25.03 18.5661V21.2337ZM24.4213 5.28281H19.1202C18.6523 5.28281 18.2707 5.63727 18.2707 6.07354V7.55956C18.2707 7.55956 18.2707 7.57774 18.2707 7.58683C18.2707 7.59592 18.2707 7.60955 18.2707 7.61864V9.65454C18.2707 10.1181 18.675 10.4953 19.1702 10.4953H24.2169C24.6166 10.5589 24.93 10.8497 24.9755 11.3042V11.795C24.93 12.2267 24.6166 12.5448 24.235 12.5811H21.7367C18.4115 12.5811 16.0449 14.7897 16.0449 17.8936V22.338C16.0449 25.4237 18.08 27.6186 21.3824 27.6186H28.3097C29.5543 27.6186 30.5627 26.6779 30.5627 25.5191V11.0179C30.5627 7.50048 28.7503 5.28281 24.4213 5.28281Z" fill="#848484"/>
</svg>
