<svg width="89" height="25" viewBox="0 0 89 25" fill="none" xmlns="http://www.w3.org/2000/svg">
<path d="M60.7338 19.2393V14.9991C60.7338 13.9555 60.3327 13.4337 59.3302 13.4337C58.9291 13.4337 58.4614 13.499 58.1939 13.5641V19.7611C58.1939 19.9569 57.9933 20.1526 57.7928 20.1526H56.2553C56.0548 20.1526 55.8542 19.9569 55.8542 19.7611V12.5204C55.8542 12.2594 56.0548 12.064 56.2553 11.9986C57.2581 11.6725 58.2605 11.4768 59.3299 11.4768C61.7362 11.4768 63.0731 12.7162 63.0731 14.9995V19.8265C63.0731 20.0222 62.8725 20.2179 62.672 20.2179H61.7362C61.1349 20.2176 60.7338 19.7611 60.7338 19.2393ZM66.7497 16.6953L66.6827 17.2824C66.6827 18.0653 67.2174 18.5218 68.0863 18.5218C68.7545 18.5218 69.3562 18.3261 70.0248 18C70.0918 18 70.1584 17.9346 70.2254 17.9346C70.359 17.9346 70.4259 18 70.4929 18.065C70.5599 18.1303 70.6935 18.3261 70.6935 18.3261C70.827 18.5218 70.961 18.7825 70.961 18.9782C70.961 19.3043 70.7604 19.6304 70.4933 19.7611C69.758 20.1526 68.8892 20.3483 67.9534 20.3483C66.884 20.3483 66.0148 20.0872 65.3465 19.5654C64.6782 18.9782 64.2771 18.1957 64.2771 17.2171V14.673C64.2771 12.6508 65.614 11.4115 67.8868 11.4115C70.0925 11.4115 71.3624 12.5858 71.3624 14.673V16.2385C71.3624 16.4342 71.1619 16.6299 70.9613 16.6299H66.7504L66.7497 16.6953ZM66.6827 15.2602H69.2226V14.608C69.2226 13.8251 68.7549 13.3033 67.9527 13.3033C67.1504 13.3033 66.6827 13.7598 66.6827 14.608V15.2602ZM83.7277 16.6953L83.6608 17.2824C83.6608 18.0653 84.1954 18.5218 85.0643 18.5218C85.7326 18.5218 86.3342 18.3261 87.0029 18C87.0698 18 87.1364 17.9346 87.2034 17.9346C87.337 17.9346 87.404 18 87.4709 18.065C87.5379 18.1303 87.6715 18.3261 87.6715 18.3261C87.8051 18.5218 87.939 18.7825 87.939 18.9782C87.939 19.3043 87.7385 19.6304 87.4713 19.7611C86.736 20.1526 85.8672 20.3483 84.9314 20.3483C83.862 20.3483 82.9928 20.0872 82.3245 19.5654C81.6563 18.9782 81.2552 18.1957 81.2552 17.2171V14.673C81.2552 12.6508 82.5921 11.4115 84.8648 11.4115C87.0705 11.4115 88.3405 12.5858 88.3405 14.673V16.2385C88.3405 16.4342 88.1399 16.6299 87.9394 16.6299H83.7284V16.6953H83.7277ZM83.6608 15.2602H86.2006V14.608C86.2006 13.8251 85.7329 13.3033 84.9307 13.3033C84.1285 13.3033 83.6608 13.7598 83.6608 14.608V15.2602ZM44.3574 20.2176H45.2932C45.4938 20.2176 45.6943 20.0219 45.6943 19.8261V14.9991C45.6943 12.7812 44.491 11.4765 42.4858 11.4765C41.8841 11.4765 41.2159 11.6068 40.8148 11.7375V9.32386C40.8148 8.80205 40.347 8.34525 39.812 8.34525H38.8762C38.6756 8.34525 38.4751 8.54097 38.4751 8.73669V19.8261C38.4751 20.0219 38.6756 20.2176 38.8762 20.2176H40.4136C40.6142 20.2176 40.8148 20.0219 40.8148 19.8261V13.6944C41.1489 13.5641 41.617 13.4987 41.9511 13.4987C42.9539 13.4987 43.3546 13.9552 43.3546 15.0641V19.3043C43.4216 19.7611 43.8227 20.2176 44.3574 20.2176ZM54.4507 14.738V17.1517C54.4507 19.174 53.0472 20.4133 50.7075 20.4133C48.4348 20.4133 46.9643 19.174 46.9643 17.1517V14.738C46.9643 12.7158 48.3678 11.4765 50.7075 11.4765C53.0472 11.4765 54.4507 12.7162 54.4507 14.738ZM52.1114 14.738C52.1114 13.9552 51.6436 13.4333 50.7744 13.4333C49.9053 13.4333 49.4375 13.8898 49.4375 14.738V17.1517C49.4375 17.9346 49.9053 18.3911 50.7744 18.3911C51.6436 18.3911 52.1114 17.9346 52.1114 17.1517V14.738ZM37.2055 13.6294C37.2055 15.717 35.6014 17.1521 33.4623 17.1521C32.9276 17.1521 32.4595 17.0867 31.9918 16.891V19.8265C31.9918 20.0222 31.7912 20.2179 31.5907 20.2179H30.0532C29.8527 20.2179 29.6521 20.0222 29.6521 19.8265V9.45457C29.6521 9.19349 29.8527 8.99811 30.0532 8.93276C31.056 8.60667 32.0584 8.41094 33.1278 8.41094C35.5341 8.41094 37.2051 9.84601 37.2051 12.064C37.2055 12.0636 37.2055 13.6294 37.2055 13.6294ZM34.7992 11.9333C34.7992 10.8896 34.0639 10.3678 33.0612 10.3678C32.4595 10.3678 32.0584 10.5635 32.0584 10.5635V14.8688C32.4595 15.0645 32.6601 15.1298 33.1278 15.1298C34.1306 15.1298 34.8658 14.5427 34.8658 13.5644V11.9336H34.7992V11.9333ZM80.3856 13.6294C80.3856 15.717 78.7815 17.1521 76.6424 17.1521C76.1077 17.1521 75.6396 17.0867 75.1719 16.891V19.8265C75.1719 20.0222 74.9714 20.2179 74.7708 20.2179H73.2333C73.0328 20.2179 72.8322 20.0222 72.8322 19.8265V9.45457C72.8322 9.19349 73.0328 8.99811 73.2333 8.93276C74.2361 8.60667 75.2385 8.41094 76.3079 8.41094C78.7142 8.41094 80.3853 9.84601 80.3853 12.064C80.3856 12.0636 80.3856 13.6294 80.3856 13.6294ZM77.9793 11.9333C77.9793 10.8896 77.2441 10.3678 76.2413 10.3678C75.6396 10.3678 75.2385 10.5635 75.2385 10.5635V14.8688C75.6396 15.0645 75.8402 15.1298 76.3079 15.1298C77.3107 15.1298 78.0459 14.5427 78.0459 13.5644V11.9336H77.9793V11.9333Z" fill="#848484"/>
<path fill-rule="evenodd" clip-rule="evenodd" d="M24.0948 12.5496C24.0948 18.99 18.7548 24.2109 12.1674 24.2109C5.58008 24.2109 0.23999 18.99 0.23999 12.5496C0.23999 6.10927 5.58008 0.888336 12.1674 0.888336C18.7548 0.888336 24.0948 6.10927 24.0948 12.5496ZM16.7184 8.66578C17.187 8.66578 17.5889 9.05489 17.5889 9.50864V10.1573C17.5889 10.3518 17.455 10.4814 17.2541 10.4814H15.7136V19.7543C15.7136 19.9488 15.5127 20.1434 15.3118 20.1434H14.3741C13.7713 20.1434 13.3027 19.6896 13.3027 19.106V17.0308C12.6331 17.29 12.097 17.3549 11.4274 17.3549C9.28416 17.3549 8.01175 15.993 8.01175 13.6587V10.5461H7.07413C6.6055 10.5461 6.20361 10.1569 6.20361 9.70319V9.05489C6.20361 8.86033 6.33746 8.73074 6.5384 8.73074H12.6335L8.61529 5.03447C8.48109 4.90488 8.54819 4.64569 8.74913 4.58073L10.0215 4.19161C10.5573 4.06202 11.093 4.19161 11.4278 4.58073L15.1112 8.66578H16.7184ZM11.9632 15.3447C12.3651 15.3447 12.9008 15.2797 13.3027 15.0852V10.5461H10.356V13.6587C10.356 14.826 10.8917 15.3447 11.9632 15.3447Z" fill="#848484"/>
</svg>
