<svg width="77" height="28" viewBox="0 0 77 28" fill="none" xmlns="http://www.w3.org/2000/svg">
<path d="M0.860187 24.1434H1.43026L0.896382 26.3658C0.819469 26.6962 0.833044 26.9452 0.941628 27.1081C1.05021 27.2756 1.25381 27.357 1.54789 27.357C1.84197 27.357 2.08176 27.2756 2.27178 27.1081C2.4618 26.9406 2.59301 26.6962 2.67445 26.3658L3.20379 24.1434H3.78291L3.23999 26.4201C3.12236 26.9135 2.90971 27.2846 2.60658 27.529C2.30345 27.7735 1.90984 27.8957 1.41668 27.8957C0.923532 27.8957 0.588727 27.7735 0.407754 27.529C0.222256 27.2846 0.19059 26.9135 0.312747 26.4156L0.855665 24.1389L0.860187 24.1434Z" fill="#848484"/>
<path d="M3.71058 27.8046L4.61997 24.0026L6.34826 26.2386C6.39351 26.3019 6.44327 26.3698 6.48851 26.4422C6.53376 26.5147 6.58352 26.5961 6.62877 26.6867L7.23503 24.152H7.7689L6.85951 27.954L5.09502 25.6773C5.04978 25.6139 5.00454 25.5506 4.96382 25.4827C4.9231 25.4148 4.8869 25.3424 4.85071 25.2699L4.23992 27.8137H3.70605L3.71058 27.8046Z" fill="#848484"/>
<path d="M7.72388 27.8026L8.60159 24.1454H9.1807L8.30751 27.8026H7.7284H7.72388Z" fill="#848484"/>
<path d="M9.1355 27.8026L10.0132 24.1454H12.0039L11.8818 24.6523H10.4702L10.253 25.5666H11.6646L11.5379 26.0871H10.1263L9.71461 27.8071H9.1355V27.8026Z" fill="#848484"/>
<path d="M11.7637 27.8026L12.6414 24.1454H13.2205L12.3473 27.8026H11.7682H11.7637Z" fill="#848484"/>
<path d="M13.1752 27.8026L14.0529 24.1454H16.0436L15.9214 24.6523H14.5099L14.2882 25.5711H15.6998L15.5731 26.0916H14.1615L13.8764 27.273H15.288L15.1614 27.8071H13.1707L13.1752 27.8026Z" fill="#848484"/>
<path d="M16.5371 27.2639H17.0257C17.2927 27.2639 17.5008 27.2458 17.641 27.2096C17.7858 27.1734 17.917 27.11 18.0346 27.024C18.1975 26.9064 18.3332 26.757 18.4418 26.585C18.5504 26.4085 18.6319 26.2048 18.6907 25.9694C18.745 25.7341 18.7631 25.5304 18.7359 25.3584C18.7088 25.1819 18.6454 25.037 18.5368 24.9148C18.4554 24.8288 18.3513 24.7655 18.2201 24.7292C18.0889 24.693 17.8718 24.6749 17.5732 24.6749H17.1524L16.5326 27.2639H16.5371ZM15.8313 27.8026L16.709 24.1454H17.4917C17.9985 24.1454 18.3514 24.1725 18.5459 24.2223C18.7404 24.2766 18.8988 24.3626 19.0255 24.4848C19.1929 24.6478 19.3015 24.856 19.3467 25.1049C19.3919 25.3584 19.3784 25.6481 19.2969 25.974C19.22 26.2998 19.0979 26.585 18.9305 26.8385C18.7631 27.0874 18.5595 27.2956 18.3152 27.4586C18.1297 27.5808 17.9306 27.6713 17.7179 27.7211C17.5053 27.7754 17.1886 27.798 16.7678 27.798H15.8313V27.8026Z" fill="#848484"/>
<path d="M22.1155 25.6736H22.2648C22.586 25.6736 22.8077 25.6374 22.9344 25.565C23.0611 25.4926 23.1425 25.3658 23.1878 25.1848C23.233 24.9902 23.2104 24.8544 23.1154 24.7729C23.0204 24.6914 22.8213 24.6507 22.5137 24.6507H22.3643L22.12 25.6691L22.1155 25.6736ZM21.9617 26.1625L21.5681 27.8055H21.0251L21.9029 24.1483H22.7806C23.0385 24.1483 23.2285 24.1619 23.3416 24.1935C23.4547 24.2207 23.5542 24.2705 23.6266 24.3384C23.7171 24.4244 23.7805 24.5375 23.8076 24.6824C23.8348 24.8272 23.8302 24.9856 23.7895 25.1576C23.7488 25.3296 23.6764 25.4926 23.5814 25.6374C23.4819 25.7823 23.3687 25.8999 23.2375 25.9814C23.129 26.0493 23.0113 26.0946 22.8846 26.1217C22.7534 26.1489 22.5589 26.1625 22.301 26.1625H21.9662H21.9617Z" fill="#848484"/>
<path d="M24.5043 26.3698H25.4996L25.3322 25.537C25.3232 25.4827 25.3187 25.4238 25.3096 25.3514C25.3051 25.2835 25.3006 25.2066 25.296 25.1206C25.2598 25.202 25.2191 25.2745 25.1784 25.3424C25.1422 25.4103 25.1015 25.4736 25.0653 25.5325L24.4998 26.3653L24.5043 26.3698ZM25.762 27.8046L25.5811 26.8632H24.1695L23.5316 27.8046H22.9253L25.563 24.0026L26.3773 27.8046H25.7666H25.762Z" fill="#848484"/>
<path d="M27.2054 27.8026L27.6035 26.1279L26.8796 24.1454H27.4904L27.9429 25.3855C27.9519 25.4172 27.9655 25.458 27.979 25.5123C27.9926 25.5621 28.0062 25.6209 28.0198 25.6798C28.056 25.6209 28.0922 25.5666 28.1329 25.5168C28.1691 25.467 28.2098 25.4172 28.246 25.3765L29.3047 24.1499H29.8838L28.1826 26.1324L27.78 27.8071H27.2054V27.8026Z" fill="#848484"/>
<path d="M32.7342 25.9966C32.7342 25.9695 32.7432 25.888 32.7568 25.7613C32.7704 25.6526 32.7794 25.5666 32.784 25.4942C32.7478 25.5757 32.7071 25.6617 32.6618 25.7432C32.6166 25.8246 32.5623 25.9106 32.4989 25.9966L31.1009 27.9474L30.644 25.9559C30.6259 25.8744 30.6078 25.7929 30.5987 25.7205C30.5897 25.6436 30.5806 25.5666 30.5806 25.4942C30.5625 25.5712 30.5354 25.6526 30.5037 25.7341C30.472 25.8201 30.4358 25.9061 30.3951 25.9966L29.5807 27.7981H29.0469L30.8023 23.9825L31.3 26.2908C31.309 26.327 31.3181 26.3904 31.3317 26.4719C31.3452 26.5579 31.3588 26.662 31.3769 26.7887C31.4357 26.6846 31.5217 26.5488 31.6348 26.3904C31.6665 26.3452 31.6891 26.3135 31.7027 26.2908L33.2816 23.9825L33.2319 27.7981H32.6935L32.7297 25.9921L32.7342 25.9966Z" fill="#848484"/>
<path d="M33.6978 27.8026L34.5755 24.1454H36.5662L36.444 24.6523H35.0324L34.8153 25.5711H36.2269L36.1002 26.0916H34.6886L34.4035 27.273H35.8151L35.6885 27.8071H33.6978V27.8026Z" fill="#848484"/>
<path d="M36.3536 27.8046L37.263 24.0026L38.9913 26.2386C39.0366 26.3019 39.0863 26.3698 39.1316 26.4422C39.1768 26.5147 39.2266 26.5961 39.2718 26.6867L39.8781 24.152H40.412L39.5026 27.954L37.7381 25.6773C37.6929 25.6139 37.6476 25.5506 37.6069 25.4827C37.5662 25.4148 37.53 25.3424 37.4938 25.2699L36.883 27.8137H36.3491L36.3536 27.8046Z" fill="#848484"/>
<path d="M42.2669 24.6458L41.5113 27.8006H40.9322L41.6878 24.6458H40.7422L40.8644 24.1389H43.3346L43.2125 24.6458H42.2714H42.2669Z" fill="#848484"/>
<path d="M42.8642 27.0708L43.38 26.849C43.3845 27.012 43.4343 27.1387 43.5338 27.2247C43.6288 27.3107 43.7691 27.3514 43.95 27.3514C44.122 27.3514 44.2713 27.3016 44.3934 27.2021C44.5201 27.1025 44.6015 26.9712 44.6423 26.8083C44.692 26.591 44.5653 26.4009 44.2577 26.2334C44.217 26.2063 44.1808 26.1882 44.1582 26.1791C43.8143 25.9845 43.5926 25.8035 43.5021 25.645C43.4116 25.4866 43.389 25.292 43.4478 25.0612C43.5202 24.7624 43.6741 24.5225 43.9184 24.337C44.1582 24.1514 44.4387 24.0609 44.7599 24.0609C45.0223 24.0609 45.2304 24.1152 45.3842 24.2193C45.5381 24.3234 45.624 24.4727 45.6467 24.6674L45.1354 24.9073C45.0902 24.7941 45.0313 24.7081 44.959 24.6538C44.8866 24.5995 44.7961 24.5723 44.683 24.5723C44.5292 24.5723 44.3934 24.6131 44.2803 24.6991C44.1672 24.7805 44.0948 24.8937 44.0632 25.034C44.0089 25.2558 44.1627 25.4595 44.5201 25.6496C44.5472 25.6631 44.5699 25.6767 44.5834 25.6858C44.8956 25.8532 45.0992 26.0162 45.1942 26.1746C45.2892 26.333 45.3073 26.5322 45.2485 26.7721C45.1671 27.1206 44.9952 27.3922 44.7327 27.6004C44.4703 27.8041 44.1581 27.9082 43.7962 27.9082C43.4931 27.9082 43.2623 27.8357 43.0995 27.6954C42.9411 27.5506 42.8597 27.3469 42.8642 27.0799" fill="#848484"/>
<path d="M47.1487 27.8026L48.0264 24.1454H48.6055L47.7278 27.8026H47.1487Z" fill="#848484"/>
<path d="M48.5599 27.8046L49.4693 24.0026L51.1976 26.2386C51.2429 26.3019 51.2926 26.3698 51.3379 26.4422C51.3831 26.5147 51.4329 26.5961 51.4781 26.6867L52.0844 24.152H52.6183L51.7089 27.954L49.9444 25.6773C49.8991 25.6139 49.8539 25.5506 49.8132 25.4827C49.7725 25.4148 49.7363 25.3424 49.7001 25.2699L49.0893 27.8137H48.5554L48.5599 27.8046Z" fill="#848484"/>
<path d="M54.4737 24.6458L53.7181 27.8006H53.139L53.8946 24.6458H52.949L53.0711 24.1389H55.5414L55.4193 24.6458H54.4782H54.4737Z" fill="#848484"/>
<path d="M55.1024 27.8026L55.9802 24.1454H57.9709L57.8487 24.6523H56.4371L56.2154 25.5711H57.627L57.5003 26.0916H56.0887L55.8037 27.273H57.2153L57.0886 27.8071H55.0979L55.1024 27.8026Z" fill="#848484"/>
<path d="M58.8395 25.7024H58.9436C59.2512 25.7024 59.4639 25.6662 59.5815 25.5938C59.6991 25.5213 59.7806 25.3901 59.8258 25.2045C59.8756 25.0008 59.853 24.8605 59.767 24.779C59.681 24.6976 59.491 24.6568 59.1969 24.6568H59.0929L58.8395 25.7069V25.7024ZM58.6902 26.1641L58.2966 27.8026H57.7537L58.6314 24.1454H59.4412C59.6765 24.1454 59.8575 24.1589 59.9796 24.1951C60.1018 24.2268 60.2013 24.2811 60.2782 24.3536C60.3687 24.4396 60.4275 24.5572 60.4502 24.6976C60.4773 24.8379 60.4683 24.9918 60.4321 25.1592C60.3642 25.4534 60.2375 25.6843 60.0611 25.8472C59.8846 26.0147 59.6539 26.1143 59.3779 26.146L60.2059 27.8116H59.5498L58.7535 26.1731H58.6857L58.6902 26.1641Z" fill="#848484"/>
<path d="M60.5496 27.8026L61.4273 24.1454H63.418L63.2958 24.6523H61.8842L61.6671 25.5666H63.0787L62.952 26.0871H61.5404L61.1287 27.8071H60.5496V27.8026Z" fill="#848484"/>
<path d="M64.0877 26.3698H65.083L64.9156 25.537C64.9066 25.4827 64.902 25.4238 64.893 25.3514C64.8885 25.2835 64.8839 25.2066 64.8794 25.1206C64.8387 25.202 64.8025 25.2745 64.7618 25.3424C64.7256 25.4103 64.6849 25.4736 64.6487 25.5325L64.0832 26.3653L64.0877 26.3698ZM65.3454 27.8046L65.1645 26.8632H63.7529L63.1149 27.8046H62.5042L65.1418 24.0026L65.9562 27.8046H65.3454Z" fill="#848484"/>
<path d="M69.7298 25.034C69.5986 24.8892 69.4538 24.785 69.2864 24.7126C69.119 24.6402 68.9381 24.604 68.7345 24.604C68.3454 24.604 67.997 24.7307 67.6939 24.9887C67.3862 25.2467 67.1872 25.5771 67.0876 25.9845C66.9926 26.3783 67.0333 26.7042 67.2098 26.9622C67.3862 27.2202 67.6577 27.3469 68.0151 27.3469C68.2277 27.3469 68.4359 27.3107 68.644 27.2337C68.8521 27.1568 69.0647 27.0391 69.2774 26.8852L69.1145 27.5596C68.929 27.6728 68.739 27.7588 68.5445 27.8176C68.3454 27.8765 68.1418 27.9036 67.9291 27.9036C67.6577 27.9036 67.4134 27.8584 67.2053 27.7678C66.9971 27.6773 66.8252 27.5415 66.694 27.365C66.5628 27.1885 66.4768 26.9848 66.4406 26.7449C66.4044 26.5095 66.418 26.2561 66.4814 25.9845C66.5447 25.7175 66.6533 25.464 66.8026 25.2286C66.9519 24.9933 67.1374 24.7851 67.3546 24.6085C67.5762 24.4275 67.8115 24.2917 68.0603 24.2012C68.3092 24.1106 68.5716 24.0609 68.8385 24.0609C69.0466 24.0609 69.2412 24.0925 69.4131 24.1559C69.5896 24.2193 69.7479 24.3143 69.8972 24.4411L69.7208 25.0385L69.7298 25.034Z" fill="#848484"/>
<path d="M69.7838 27.8026L70.6615 24.1454H72.6522L72.5301 24.6523H71.1185L70.8968 25.5711H72.3084L72.1817 26.0916H70.7701L70.4851 27.273H71.8967L71.77 27.8071H69.7793L69.7838 27.8026Z" fill="#848484"/>
<path d="M59.2151 20.9553H55.2336L60.7759 0.93573H64.7619L59.2196 20.9553H59.2151Z" fill="#848484"/>
<path d="M57.1474 1.57236C56.8714 1.19216 56.4461 0.997528 55.867 0.997528H33.9602L32.8743 4.91726H36.8603H52.804L51.6458 9.10856H35.702V9.0995H31.7206L28.4133 21.0443H32.3993L34.6162 13.0283H52.5371C53.0981 13.0283 53.6229 12.8382 54.1206 12.4535C54.6137 12.0732 54.9395 11.598 55.0978 11.0367L57.3148 3.02076C57.4776 2.43687 57.4188 1.95709 57.1474 1.57689" fill="#848484"/>
<path d="M26.0925 19.7045C25.8708 20.4966 25.1515 21.0443 24.328 21.0443H3.774C3.21298 21.0443 2.79675 20.8542 2.52529 20.474C2.25383 20.0938 2.19501 19.6185 2.34884 19.0572L7.3618 0.997528H11.3477L6.86864 17.1291H22.8169L27.296 0.997528H31.2819L26.088 19.709L26.0925 19.7045Z" fill="#848484"/>
<path d="M71.6342 0.973511L76.6789 11.0082L66.0784 21.0384L71.6388 0.973511H71.6342Z" fill="#848484"/>
<path d="M68.1006 0.973511L73.1407 11.0082L62.5356 21.0384L68.1006 0.973511Z" fill="#848484"/>
</svg>
