<?xml version="1.0" encoding="utf-8"?>
<!-- Generator: Adobe Illustrator 27.5.0, SVG Export Plug-In . SVG Version: 6.00 Build 0)  -->
<svg version="1.1" id="Layer_1" xmlns="http://www.w3.org/2000/svg"
	xmlns:xlink="http://www.w3.org/1999/xlink" x="0px" y="0px"
	viewBox="0 0 1080 608.2" style="enable-background:new 0 0 1080 608.2;" xml:space="preserve">
<style type="text/css">
	.st0{fill:url(#SVGID_1_);}
	.st1{fill:url(#SVGID_00000060002684944854812790000005685676866772707732_);}

@keyframes group1Animation {
  0% {
	opacity: 0;
    transform: translateY(-100%);
  }
  40%{
	opacity: 1;
	transform: translateY(0%);
  }
  100% {
	opacity: 1;
    transform: translateY(0%);
  }
}

@keyframes group2Animation {
  0% {
    transform: translateX(-100%);
    opacity: 0;
  }
  40%{
	transform: translateX(-20%);
	opacity:0;
  }
  60%{
	transform: translateX(0%);
	opacity:1;
  }
  100% {
    transform: translateX(0%);
    opacity: 1;
  }
}

#group1 {
opacity: 0;
  animation: group1Animation 1.5s infinite;
}

#group2 {
	opacity: 0;
  animation: group2Animation 1.5s infinite;
}



</style>
<linearGradient id="SVGID_1_" gradientUnits="userSpaceOnUse" x1="188.811" y1="353.6534" x2="631.4352" y2="353.6534">
	<stop  offset="2.074940e-07" style="stop-color:#DDB13F"/>
	<stop  offset="0.5" style="stop-color:#A97316"/>
	<stop  offset="1" style="stop-color:#F0E382"/>
</linearGradient>
<path id="group1" class="st0" d="M292.2,287.3c43.8,60.4,126.5,176.7,170.3,237.1c0,0,0,0,0,0.1c10.9,15.1,21.9,30.3,32.8,45.4h136.2
	c-2.8-3.9-5.6-7.8-8.4-11.7c-17.8-24.6-35.5-49.2-53.3-73.8l0,0c-51.2-72.8-142.7-198.1-194-270.9c-13.6-18.7-27.2-37.5-40.8-56.3
	c-6.6-9.2-13.8-13.8-25.7-14.1c-35.2-0.8-70.3-3.1-105.5-4.6c-4.8-0.2-11.5-3-14.1,1.5c-3.2,5.4,3.3,9.5,6.3,13.7
	C228,198.3,260,242.8,292.2,287.3z"/>
<g>
	<g>
		<g id="group2">
			
				<linearGradient id="SVGID_00000141431196634940029860000012990894091694152367_" gradientUnits="userSpaceOnUse" x1="40.9863" y1="309.1619" x2="1063.5803" y2="309.1619">
				<stop  offset="2.074940e-07" style="stop-color:#DDB13F"/>
				<stop  offset="0.5" style="stop-color:#A97316"/>
				<stop  offset="1" style="stop-color:#F0E382"/>
			</linearGradient>
			<path style="fill:url(#SVGID_00000141431196634940029860000012990894091694152367_);" d="M41,597.8c0.2-0.4,23.1-41.2,64.9-100
				c38.6-54.2,101.7-135.4,183.4-214.2c26.2-26,83.3-73.6,83.9-74.1c97.3-78.3,198.1-133.3,299.7-163.7c20.9-6,42.2-11.3,63.4-15.7
				c15.9-3.3,39.9-8.4,68.1-11.7c20.2-2.3,40.8-3.5,61.4-3.5c20.5,0,41,1.2,60.8,3.5c64,7.5,89.3,22.7,97.6,27.7
				c19,11.5,41.3,28.5,39.3,44.9c-3,24.5-49,33.8-54.2,34.8l-48.5,9.1l45.7-18.6c8.4-3.4,25.3-13.1,24.2-21
				c-0.7-5.1-11.8-22.6-123.8-34c-10.3-1.1-21.1-1.6-32.1-1.6c-103.1,0-216.5,47.3-293.4,86.9c-83.6,43.1-143.4,86.8-144,87.2
				l-3.9,2.8l0,0C302.2,331.3,172.9,454.7,49.2,603.4L41,597.8z"/>
			<path  d="M865.8,19.9c26.6,0,47.6,2,60.2,3.5c59.6,7,84.7,20.5,95.6,27c8.5,5.1,38.9,24,36.9,40c-2.6,21.6-50.2,30.5-50.2,30.5
				c0,0,106.6-43.4-101-64.7c-10.7-1.1-21.6-1.6-32.6-1.6c-201.7,0-440.4,175.2-440.4,175.2l0,0C317,313.9,184.7,432.7,45.4,600.2
				c0,0,89.7-161,247.4-313c26.4-26.2,83.6-73.8,83.6-73.8c85.5-68.8,185.6-129.2,298-162.7l0,0c16.3-4.7,37.7-10.3,63-15.6
				c15.6-3.3,39.7-8.4,67.7-11.6C827.3,20.8,847.8,19.9,865.8,19.9 M865.8,9.9c-20.7,0-41.5,1.2-61.9,3.5
				c-28.4,3.3-52.6,8.4-68.6,11.7c-18.2,3.8-36.5,8.3-54.5,13.2l0-0.1l-9.3,2.8C569.2,71.6,467.8,126.9,370,205.5l-0.1,0.1l-0.1,0.1
				c-2.3,2-57.8,48.2-84.2,74.4c-82,79-145.3,160.5-184,214.9c-42,59-64.2,98.8-65.2,100.4L53,606.6
				c122.1-146.8,249.6-268.9,379.1-363l0,0.1l8.1-5.9c0.6-0.4,60.2-44,143.5-86.9c76.4-39.4,188.9-86.3,290.9-86.3
				c10.8,0,21.4,0.5,31.6,1.6c44.5,4.5,77.5,10.5,98.2,17.5c19.9,6.8,21.2,12.2,21.2,12.2c0.1,0.5-1.2,3.8-8.3,8.8
				c-6.1,4.2-12.7,6.9-12.8,7l-89.8,36.9l95.5-17.8c0.5-0.1,13.1-2.5,26-7.7c19.8-8,30.6-18.5,32.2-31.4c1.9-15.3-12.2-32-41.7-49.8
				c-8.5-5.1-34.5-20.8-99.6-28.4C907.2,11.1,886.5,9.9,865.8,9.9L865.8,9.9z"/>
		</g>
	</g>
</g>
</svg>