<svg width="46" height="46" viewBox="0 0 46 46" fill="none" xmlns="http://www.w3.org/2000/svg">
<g clip-path="url(#clip0_5477_104754)">
<path d="M45.5205 22.8162C45.5205 35.3341 35.3641 45.4822 22.8353 45.4822C10.3065 45.4822 0.150106 35.3341 0.150106 22.8162C0.150106 10.2982 10.3065 0.150106 22.8353 0.150106C35.3641 0.150106 45.5205 10.2982 45.5205 22.8162Z" fill="#1F1D14" stroke="url(#paint0_linear_5477_104754)" stroke-width="0.300213"/>
<path d="M22.8369 13.8125C17.8671 13.8125 13.8232 17.8527 13.8232 22.8189C13.8232 27.7851 17.8671 31.8253 22.8369 31.8253C27.8076 31.8253 31.8508 27.7851 31.8508 22.8189C31.8508 17.8527 27.8076 13.8125 22.8369 13.8125ZM22.8369 30.6245C18.5294 30.6245 15.025 27.1231 15.025 22.8189C15.025 18.5147 18.5297 15.0133 22.8369 15.0133C27.145 15.0133 30.649 18.5147 30.649 22.8189C30.649 27.1231 27.1453 30.6245 22.8369 30.6245Z" fill="white"/>
<path d="M27.3006 22.1691H23.4375V17.0654C23.4375 16.7337 23.1684 16.4648 22.8367 16.4648C22.5054 16.4648 22.2363 16.7341 22.2363 17.0654V23.3696H27.3006C27.6323 23.3696 27.9014 23.101 27.9011 22.7694C27.9011 22.438 27.6316 22.1691 27.3006 22.1691Z" fill="white"/>
</g>
<defs>
<linearGradient id="paint0_linear_5477_104754" x1="0" y1="22.8162" x2="45.6707" y2="22.8162" gradientUnits="userSpaceOnUse">
<stop stop-color="#F2D71A"/>
<stop offset="1" stop-color="#ECB024"/>
</linearGradient>
<clipPath id="clip0_5477_104754">
<rect width="46" height="46" fill="white"/>
</clipPath>
</defs>
</svg>
