<svg width="46" height="46" viewBox="0 0 46 46" fill="none" xmlns="http://www.w3.org/2000/svg">
<g clip-path="url(#clip0_5477_104757)">
<path d="M45.5205 22.8162C45.5205 35.3341 35.3641 45.4822 22.8353 45.4822C10.3065 45.4822 0.150106 35.3341 0.150106 22.8162C0.150106 10.2982 10.3065 0.150106 22.8353 0.150106C35.3641 0.150106 45.5205 10.2982 45.5205 22.8162Z" fill="#1F1D14" stroke="url(#paint0_linear_5477_104757)" stroke-width="0.300213"/>
<path d="M23.8322 22.6451L31.6439 14.8399C31.9189 14.5651 31.9189 14.1195 31.6439 13.8448C31.3689 13.57 30.923 13.57 30.648 13.8448L22.8362 21.65L15.0245 13.8448C14.7494 13.57 14.3035 13.57 14.0285 13.8448C13.7535 14.1196 13.7535 14.5651 14.0285 14.8399L21.8403 22.645L14.0285 30.4502C13.7535 30.725 13.7535 31.1706 14.0285 31.4453C14.166 31.5827 14.3463 31.6514 14.5265 31.6514C14.7068 31.6514 14.887 31.5827 15.0245 31.4453L22.8362 23.6402L30.6479 31.4453C30.7854 31.5827 30.9657 31.6514 31.1459 31.6514C31.3262 31.6514 31.5064 31.5827 31.6439 31.4453C31.9189 31.1705 31.9189 30.725 31.6439 30.4502L23.8322 22.6451Z" fill="#F43939"/>
</g>
<defs>
<linearGradient id="paint0_linear_5477_104757" x1="0" y1="22.8162" x2="45.6707" y2="22.8162" gradientUnits="userSpaceOnUse">
<stop stop-color="#F2D71A"/>
<stop offset="1" stop-color="#ECB024"/>
</linearGradient>
<clipPath id="clip0_5477_104757">
<rect width="46" height="46" fill="white"/>
</clipPath>
</defs>
</svg>
