<svg width="46" height="46" viewBox="0 0 46 46" fill="none" xmlns="http://www.w3.org/2000/svg">
<g clip-path="url(#clip0_5477_104755)">
<path d="M45.5205 22.8318C45.5205 35.3498 35.3641 45.4978 22.8353 45.4978C10.3065 45.4978 0.150106 35.3498 0.150106 22.8318C0.150106 10.3138 10.3065 0.165731 22.8353 0.165731C35.3641 0.165731 45.5205 10.3138 45.5205 22.8318Z" fill="#1F1D14" stroke="url(#paint0_linear_5477_104755)" stroke-width="0.300213"/>
<path d="M31.5871 16.4806C31.2351 16.1289 30.6644 16.1289 30.3124 16.4806L19.5131 27.2709L15.362 23.1233C15.01 22.7716 14.4393 22.7716 14.0873 23.1233C13.7352 23.475 13.7352 24.0453 14.0873 24.397L18.8757 29.1814C19.2276 29.5331 19.7987 29.5328 20.1505 29.1814L31.5871 17.7543C31.9392 17.4026 31.9391 16.8323 31.5871 16.4806Z" fill="#49B474"/>
</g>
<defs>
<linearGradient id="paint0_linear_5477_104755" x1="0" y1="22.8318" x2="45.6707" y2="22.8318" gradientUnits="userSpaceOnUse">
<stop stop-color="#F2D71A"/>
<stop offset="1" stop-color="#ECB024"/>
</linearGradient>
<clipPath id="clip0_5477_104755">
<rect width="46" height="46" fill="white"/>
</clipPath>
</defs>
</svg>
