<svg width="279" height="104" viewBox="0 0 279 104" fill="none" xmlns="http://www.w3.org/2000/svg">
<style>
@keyframes fadeInLeft {
  0% {
    opacity: 0;
    transform: translateX(-35px);
  }
  100% {
    opacity: 1;
    transform: translateX(0);
  }
}

@keyframes fadeOutLeft {
  0% {
    opacity: 1;
    transform: translateX(0);
  }
  100% {
    opacity: 0;
    transform: translateX(-35px);
  }
}

#animate {
  opacity: 0;
  animation: fadeInLeft 1s ease-in-out 2s forwards, fadeOutLeft 1s ease-in-out 20s forwards;
}


</style>
<rect id="animate" x="47.7764" y="10" width="231.223" height="47.0397" rx="9" fill="url(#paint0_linear_7303_121340)"/>
<path id="animate" d="M82.7714 31.1795V22.7795H86.0834C88.0514 22.7795 89.2754 23.8955 89.2754 25.5875V25.6115C89.2754 27.4835 87.7754 28.4795 85.9154 28.4795H84.2474V31.1795H82.7714ZM84.2474 27.1475H85.9634C87.0794 27.1475 87.7754 26.5235 87.7754 25.6475V25.6235C87.7754 24.6275 87.0674 24.1235 85.9634 24.1235H84.2474V27.1475ZM90.691 31.1795V22.4195H92.155V31.1795H90.691ZM95.8766 31.3115C94.6886 31.3115 93.6206 30.6395 93.6206 29.3555V29.3315C93.6206 27.9515 94.7006 27.2915 96.2486 27.2915C96.9686 27.2915 97.4606 27.3995 97.9526 27.5555V27.3995C97.9526 26.4875 97.4006 26.0195 96.3806 26.0195C95.6606 26.0195 95.1446 26.1755 94.5686 26.4155L94.1726 25.2755C94.8806 24.9755 95.5646 24.7595 96.5726 24.7595C97.5206 24.7595 98.2166 24.9995 98.6726 25.4675C99.1406 25.9355 99.3566 26.5955 99.3566 27.4235V31.1795H97.9406V30.3875C97.5086 30.9035 96.8486 31.3115 95.8766 31.3115ZM96.2846 30.2555C97.2446 30.2555 97.9766 29.7155 97.9766 28.8995V28.4675C97.6046 28.3235 97.1126 28.2155 96.5366 28.2155C95.5886 28.2155 95.0486 28.5995 95.0486 29.2715V29.2955C95.0486 29.9075 95.5766 30.2555 96.2846 30.2555ZM103.597 29.5475L105.253 24.8435H106.765L104.245 31.3475C103.729 32.6555 103.177 33.1355 102.157 33.1355C101.545 33.1355 101.101 32.9915 100.657 32.7395L101.149 31.6715C101.425 31.8155 101.701 31.9115 102.001 31.9115C102.421 31.9115 102.661 31.7315 102.901 31.1915L100.261 24.8435H101.821L103.597 29.5475ZM113.431 31.3115C112.243 31.3115 111.175 30.6395 111.175 29.3555V29.3315C111.175 27.9515 112.255 27.2915 113.803 27.2915C114.523 27.2915 115.015 27.3995 115.507 27.5555V27.3995C115.507 26.4875 114.955 26.0195 113.935 26.0195C113.215 26.0195 112.699 26.1755 112.123 26.4155L111.727 25.2755C112.435 24.9755 113.119 24.7595 114.127 24.7595C115.075 24.7595 115.771 24.9995 116.227 25.4675C116.695 25.9355 116.911 26.5955 116.911 27.4235V31.1795H115.495V30.3875C115.063 30.9035 114.403 31.3115 113.431 31.3115ZM113.839 30.2555C114.799 30.2555 115.531 29.7155 115.531 28.8995V28.4675C115.159 28.3235 114.667 28.2155 114.091 28.2155C113.143 28.2155 112.603 28.5995 112.603 29.2715V29.2955C112.603 29.9075 113.131 30.2555 113.839 30.2555ZM118.638 31.1795V24.8435H120.102V25.8155C120.522 25.2275 121.086 24.7115 122.082 24.7115C123.522 24.7115 124.338 25.6595 124.338 27.1355V31.1795H122.886V27.5795C122.886 26.5835 122.394 26.0315 121.53 26.0315C120.678 26.0315 120.102 26.6075 120.102 27.6035V31.1795H118.638ZM128.708 31.3115C127.22 31.3115 125.768 30.1355 125.768 28.0235V27.9995C125.768 25.8875 127.196 24.7115 128.708 24.7115C129.74 24.7115 130.424 25.2275 130.868 25.8275V22.4195H132.32V31.1795H130.868V30.1235C130.4 30.7835 129.728 31.3115 128.708 31.3115ZM129.056 30.0515C130.028 30.0515 130.892 29.2355 130.892 28.0235V27.9995C130.892 26.7755 130.028 25.9715 129.056 25.9715C128.06 25.9715 127.232 26.7515 127.232 27.9995V28.0235C127.232 29.2475 128.06 30.0515 129.056 30.0515ZM140.176 31.2395L137.26 22.7795H138.856L140.86 29.0075L142.924 22.7555H144.172L146.236 29.0075L148.24 22.7795H149.788L146.872 31.2395H145.588L143.524 25.2035L141.46 31.2395H140.176ZM150.983 23.8715V22.4915H152.543V23.8715H150.983ZM151.031 31.1795V24.8435H152.495V31.1795H151.031ZM154.38 31.1795V24.8435H155.844V25.8155C156.264 25.2275 156.828 24.7115 157.824 24.7115C159.264 24.7115 160.08 25.6595 160.08 27.1355V31.1795H158.628V27.5795C158.628 26.5835 158.136 26.0315 157.272 26.0315C156.42 26.0315 155.844 26.6075 155.844 27.6035V31.1795H154.38ZM161.738 31.1795V29.5235H163.334V31.1795H161.738ZM172.806 31.3235C170.178 31.3235 168.45 29.4515 168.45 27.0035V26.9795C168.45 24.6275 170.238 22.6355 172.782 22.6355C174.234 22.6355 175.146 23.0435 176.01 23.7755L175.074 24.8915C174.426 24.3395 173.778 24.0035 172.722 24.0035C171.186 24.0035 169.998 25.3475 169.998 26.9555V26.9795C169.998 28.7075 171.138 29.9795 172.854 29.9795C173.658 29.9795 174.366 29.7275 174.882 29.3435V27.7835H172.734V26.4875H176.31V30.0155C175.47 30.7235 174.294 31.3235 172.806 31.3235ZM180.968 31.3235C179.144 31.3235 177.716 29.9915 177.716 28.0355V28.0115C177.716 26.1875 179 24.7115 180.812 24.7115C182.828 24.7115 183.848 26.2955 183.848 28.1195C183.848 28.2515 183.836 28.3835 183.824 28.5275H179.168C179.324 29.5715 180.044 30.1355 180.992 30.1355C181.712 30.1355 182.192 29.8715 182.708 29.3795L183.56 30.1355C182.948 30.8555 182.132 31.3235 180.968 31.3235ZM179.156 27.5675H182.408C182.312 26.6435 181.76 25.8995 180.8 25.8995C179.9 25.8995 179.288 26.5715 179.156 27.5675ZM187.431 31.2875C186.363 31.2875 185.607 30.8195 185.607 29.4275V26.0915H184.803V24.8435H185.607V23.1035H187.059V24.8435H188.763V26.0915H187.059V29.1995C187.059 29.7635 187.347 29.9915 187.839 29.9915C188.151 29.9915 188.451 29.9195 188.739 29.7755V30.9635C188.367 31.1675 187.995 31.2875 187.431 31.2875ZM195.662 31.3115C194.474 31.3115 193.406 30.6395 193.406 29.3555V29.3315C193.406 27.9515 194.486 27.2915 196.034 27.2915C196.754 27.2915 197.246 27.3995 197.738 27.5555V27.3995C197.738 26.4875 197.186 26.0195 196.166 26.0195C195.446 26.0195 194.93 26.1755 194.354 26.4155L193.958 25.2755C194.666 24.9755 195.35 24.7595 196.358 24.7595C197.306 24.7595 198.002 24.9995 198.458 25.4675C198.926 25.9355 199.142 26.5955 199.142 27.4235V31.1795H197.726V30.3875C197.294 30.9035 196.634 31.3115 195.662 31.3115ZM196.07 30.2555C197.03 30.2555 197.762 29.7155 197.762 28.8995V28.4675C197.39 28.3235 196.898 28.2155 196.322 28.2155C195.374 28.2155 194.834 28.5995 194.834 29.2715V29.2955C194.834 29.9075 195.362 30.2555 196.07 30.2555ZM204.466 31.1795V24.8435H205.93V25.8155C206.35 25.2275 206.914 24.7115 207.91 24.7115C209.35 24.7115 210.166 25.6595 210.166 27.1355V31.1795H208.714V27.5795C208.714 26.5835 208.222 26.0315 207.358 26.0315C206.506 26.0315 205.93 26.6075 205.93 27.6035V31.1795H204.466ZM214.824 31.3235C213 31.3235 211.572 29.9915 211.572 28.0355V28.0115C211.572 26.1875 212.856 24.7115 214.668 24.7115C216.684 24.7115 217.704 26.2955 217.704 28.1195C217.704 28.2515 217.692 28.3835 217.68 28.5275H213.024C213.18 29.5715 213.9 30.1355 214.848 30.1355C215.568 30.1355 216.048 29.8715 216.564 29.3795L217.416 30.1355C216.804 30.8555 215.988 31.3235 214.824 31.3235ZM213.012 27.5675H216.264C216.168 26.6435 215.616 25.8995 214.656 25.8995C213.756 25.8995 213.144 26.5715 213.012 27.5675ZM220.381 31.2275L218.317 24.8435H219.817L221.089 29.1875L222.493 24.8195H223.741L225.145 29.1875L226.441 24.8435H227.905L225.829 31.2275H224.521L223.105 26.8955L221.677 31.2275H220.381ZM233.043 31.1795V22.7795H234.519V31.1795H233.043ZM236.768 31.1795V22.7795H239.9C242.54 22.7795 244.364 24.5915 244.364 26.9555V26.9795C244.364 29.3435 242.54 31.1795 239.9 31.1795H236.768ZM239.9 24.1235H238.244V29.8355H239.9C241.664 29.8355 242.816 28.6475 242.816 27.0035V26.9795C242.816 25.3355 241.664 24.1235 239.9 24.1235ZM82.6274 37.8715V36.4915H84.1874V37.8715H82.6274ZM82.6754 45.1795V38.8435H84.1394V45.1795H82.6754ZM86.025 45.1795V38.8435H87.489V39.8155C87.909 39.2275 88.473 38.7115 89.469 38.7115C90.909 38.7115 91.725 39.6595 91.725 41.1355V45.1795H90.273V41.5795C90.273 40.5835 89.781 40.0315 88.917 40.0315C88.065 40.0315 87.489 40.6075 87.489 41.6035V45.1795H86.025ZM95.6504 45.2995C94.7384 45.2995 93.7664 44.9875 92.9624 44.3515L93.6104 43.3675C94.3184 43.8835 95.0264 44.1475 95.6864 44.1475C96.3104 44.1475 96.6704 43.8835 96.6704 43.4635V43.4395C96.6704 42.9595 95.9984 42.7795 95.2544 42.5515C94.3304 42.2995 93.2744 41.9035 93.2744 40.7035V40.6795C93.2744 39.4675 94.2704 38.7355 95.5304 38.7355C96.3344 38.7355 97.1864 39.0115 97.8584 39.4555L97.2824 40.4875C96.6704 40.1155 96.0224 39.8875 95.4944 39.8875C94.9304 39.8875 94.6064 40.1635 94.6064 40.5115V40.5355C94.6064 40.9915 95.2904 41.2075 96.0344 41.4355C96.9464 41.7235 98.0024 42.1435 98.0024 43.2835V43.3075C98.0024 44.6395 96.9704 45.2995 95.6504 45.2995ZM101.497 45.2875C100.429 45.2875 99.6729 44.8195 99.6729 43.4275V40.0915H98.8689V38.8435H99.6729V37.1035H101.125V38.8435H102.829V40.0915H101.125V43.1995C101.125 43.7635 101.413 43.9915 101.905 43.9915C102.217 43.9915 102.517 43.9195 102.805 43.7755V44.9635C102.433 45.1675 102.061 45.2875 101.497 45.2875ZM106.131 45.3115C104.943 45.3115 103.875 44.6395 103.875 43.3555V43.3315C103.875 41.9515 104.955 41.2915 106.503 41.2915C107.223 41.2915 107.715 41.3995 108.207 41.5555V41.3995C108.207 40.4875 107.655 40.0195 106.635 40.0195C105.915 40.0195 105.399 40.1755 104.823 40.4155L104.427 39.2755C105.135 38.9755 105.819 38.7595 106.827 38.7595C107.775 38.7595 108.471 38.9995 108.927 39.4675C109.395 39.9355 109.611 40.5955 109.611 41.4235V45.1795H108.195V44.3875C107.763 44.9035 107.103 45.3115 106.131 45.3115ZM106.539 44.2555C107.499 44.2555 108.231 43.7155 108.231 42.8995V42.4675C107.859 42.3235 107.367 42.2155 106.791 42.2155C105.843 42.2155 105.303 42.5995 105.303 43.2715V43.2955C105.303 43.9075 105.831 44.2555 106.539 44.2555ZM111.338 45.1795V38.8435H112.802V39.8155C113.222 39.2275 113.786 38.7115 114.782 38.7115C116.222 38.7115 117.038 39.6595 117.038 41.1355V45.1795H115.586V41.5795C115.586 40.5835 115.094 40.0315 114.23 40.0315C113.378 40.0315 112.802 40.6075 112.802 41.6035V45.1795H111.338ZM120.915 45.2875C119.847 45.2875 119.091 44.8195 119.091 43.4275V40.0915H118.287V38.8435H119.091V37.1035H120.543V38.8435H122.247V40.0915H120.543V43.1995C120.543 43.7635 120.831 43.9915 121.323 43.9915C121.635 43.9915 121.935 43.9195 122.223 43.7755V44.9635C121.851 45.1675 121.479 45.2875 120.915 45.2875ZM123.797 45.1795V36.4195H125.261V45.1795H123.797ZM129.894 43.5475L131.55 38.8435H133.062L130.542 45.3475C130.026 46.6555 129.474 47.1355 128.454 47.1355C127.842 47.1355 127.398 46.9915 126.954 46.7395L127.446 45.6715C127.722 45.8155 127.998 45.9115 128.298 45.9115C128.718 45.9115 128.958 45.7315 129.198 45.1915L126.558 38.8435H128.118L129.894 43.5475ZM140.916 45.3235C138.984 45.3235 137.556 43.8475 137.556 42.0475V42.0235C137.556 40.2115 138.996 38.7115 140.94 38.7115C142.896 38.7115 144.312 40.1875 144.312 41.9995V42.0235C144.312 43.8115 142.872 45.3235 140.916 45.3235ZM140.94 44.0515C142.128 44.0515 142.86 43.1395 142.86 42.0475V42.0235C142.86 40.9075 142.056 39.9835 140.916 39.9835C139.752 39.9835 139.008 40.8955 139.008 41.9995V42.0235C139.008 43.1275 139.824 44.0515 140.94 44.0515ZM147.432 45.2275L144.828 38.8435H146.388L148.092 43.4995L149.808 38.8435H151.332L148.74 45.2275H147.432ZM155.105 45.3235C153.281 45.3235 151.853 43.9915 151.853 42.0355V42.0115C151.853 40.1875 153.137 38.7115 154.949 38.7115C156.965 38.7115 157.985 40.2955 157.985 42.1195C157.985 42.2515 157.973 42.3835 157.961 42.5275H153.305C153.461 43.5715 154.181 44.1355 155.129 44.1355C155.849 44.1355 156.329 43.8715 156.845 43.3795L157.697 44.1355C157.085 44.8555 156.269 45.3235 155.105 45.3235ZM153.293 41.5675H156.545C156.449 40.6435 155.897 39.8995 154.937 39.8995C154.037 39.8995 153.425 40.5715 153.293 41.5675ZM159.431 45.1795V38.8435H160.895V40.2715C161.291 39.3115 162.023 38.6755 163.139 38.7235V40.2595H163.055C161.771 40.2595 160.895 41.0875 160.895 42.7675V45.1795H159.431ZM170.434 45.2395L167.518 36.7795H169.114L171.118 43.0075L173.182 36.7555H174.43L176.494 43.0075L178.498 36.7795H180.046L177.13 45.2395H175.846L173.782 39.2035L171.718 45.2395H170.434ZM181.263 45.1795V36.4195H182.727V39.8155C183.147 39.2275 183.711 38.7115 184.707 38.7115C186.147 38.7115 186.963 39.6595 186.963 41.1355V45.1795H185.511V41.5795C185.511 40.5835 185.019 40.0315 184.155 40.0315C183.303 40.0315 182.727 40.6075 182.727 41.6035V45.1795H181.263ZM190.541 45.3115C189.353 45.3115 188.285 44.6395 188.285 43.3555V43.3315C188.285 41.9515 189.365 41.2915 190.913 41.2915C191.633 41.2915 192.125 41.3995 192.617 41.5555V41.3995C192.617 40.4875 192.065 40.0195 191.045 40.0195C190.325 40.0195 189.809 40.1755 189.233 40.4155L188.837 39.2755C189.545 38.9755 190.229 38.7595 191.237 38.7595C192.185 38.7595 192.881 38.9995 193.337 39.4675C193.805 39.9355 194.021 40.5955 194.021 41.4235V45.1795H192.605V44.3875C192.173 44.9035 191.513 45.3115 190.541 45.3115ZM190.949 44.2555C191.909 44.2555 192.641 43.7155 192.641 42.8995V42.4675C192.269 42.3235 191.777 42.2155 191.201 42.2155C190.253 42.2155 189.713 42.5995 189.713 43.2715V43.2955C189.713 43.9075 190.241 44.2555 190.949 44.2555ZM197.825 45.2875C196.757 45.2875 196.001 44.8195 196.001 43.4275V40.0915H195.197V38.8435H196.001V37.1035H197.453V38.8435H199.157V40.0915H197.453V43.1995C197.453 43.7635 197.741 43.9915 198.233 43.9915C198.545 43.9915 198.845 43.9195 199.133 43.7755V44.9635C198.761 45.1675 198.389 45.2875 197.825 45.2875ZM202.807 45.2995C201.895 45.2995 200.923 44.9875 200.119 44.3515L200.767 43.3675C201.475 43.8835 202.183 44.1475 202.843 44.1475C203.467 44.1475 203.827 43.8835 203.827 43.4635V43.4395C203.827 42.9595 203.155 42.7795 202.411 42.5515C201.487 42.2995 200.431 41.9035 200.431 40.7035V40.6795C200.431 39.4675 201.427 38.7355 202.687 38.7355C203.491 38.7355 204.343 39.0115 205.015 39.4555L204.439 40.4875C203.827 40.1155 203.179 39.8875 202.651 39.8875C202.087 39.8875 201.763 40.1635 201.763 40.5115V40.5355C201.763 40.9915 202.447 41.2075 203.191 41.4355C204.103 41.7235 205.159 42.1435 205.159 43.2835V43.3075C205.159 44.6395 204.127 45.2995 202.807 45.2995ZM206.094 45.1795L209.79 36.7195H211.158L214.854 45.1795H213.294L212.442 43.1515H208.47L207.606 45.1795H206.094ZM209.01 41.8435H211.902L210.45 38.4835L209.01 41.8435ZM216.115 47.0995V38.8435H217.579V39.8995C218.047 39.2395 218.695 38.7115 219.739 38.7115C221.227 38.7115 222.679 39.8875 222.679 41.9995V42.0235C222.679 44.1355 221.239 45.3115 219.739 45.3115C218.683 45.3115 218.023 44.7835 217.579 44.1955V47.0995H216.115ZM219.391 44.0515C220.387 44.0515 221.203 43.2715 221.203 42.0235V41.9995C221.203 40.7755 220.363 39.9715 219.391 39.9715C218.395 39.9715 217.543 40.7875 217.543 41.9995V42.0235C217.543 43.2355 218.395 44.0515 219.391 44.0515ZM224.166 47.0995V38.8435H225.63V39.8995C226.098 39.2395 226.746 38.7115 227.79 38.7115C229.278 38.7115 230.73 39.8875 230.73 41.9995V42.0235C230.73 44.1355 229.29 45.3115 227.79 45.3115C226.734 45.3115 226.074 44.7835 225.63 44.1955V47.0995H224.166ZM227.442 44.0515C228.438 44.0515 229.254 43.2715 229.254 42.0235V41.9995C229.254 40.7755 228.414 39.9715 227.442 39.9715C226.446 39.9715 225.594 40.7875 225.594 41.9995V42.0235C225.594 43.2355 226.446 44.0515 227.442 44.0515Z" fill="#1A1A1A"/>
<path id="animate" d="M264.424 30.042L267.288 32.9063C267.353 32.9709 267.353 33.0758 267.288 33.1405L264.424 36.0048" stroke="#1A1A1A" stroke-width="1.32506" stroke-linecap="round"/>
<g filter="url(#filter0_ddddd_7303_121340)">
<path d="M70.7298 32.445C70.7298 48.0552 58.0752 60.7098 42.465 60.7098C37.5248 60.7098 32.8807 59.4424 28.8399 57.215C26.9022 56.1468 18.7255 60.5912 17.0992 59.1154C15.8288 57.9626 21.0416 50.9625 19.9981 49.5979C16.3609 44.8411 14.2002 38.8954 14.2002 32.445C14.2002 16.8347 26.8548 4.18015 42.465 4.18015C58.0752 4.18015 70.7298 16.8347 70.7298 32.445Z" fill="url(#paint1_linear_7303_121340)"/>
<path fill-rule="evenodd" clip-rule="evenodd" d="M65.1939 11.0841C59.3413 5.23154 51.5529 2 43.2581 2C26.1622 2 12.2681 15.909 12.2532 32.99C12.2532 38.4554 13.6828 43.7867 16.3931 48.4776L12 64.546L28.4407 60.2422C32.9678 62.7143 38.0608 64.0099 43.2581 64.0099H43.273C60.354 64.0099 74.263 50.1008 74.2779 33.0198C74.2779 24.725 71.0464 16.9366 65.1939 11.0841ZM43.273 58.7679C38.6416 58.7679 34.0996 57.517 30.1532 55.179L29.215 54.628L19.4608 57.1894L22.0669 47.6883L21.4564 46.7204C18.8801 42.6251 17.51 37.8746 17.51 33.0049C17.51 18.7981 29.081 7.24195 43.2879 7.24195C50.1679 7.24195 56.6459 9.92249 61.5007 14.7921C66.3703 19.6618 69.0509 26.1398 69.036 33.0198C69.0211 47.2118 57.465 58.7679 43.273 58.7679ZM57.4054 39.4829C56.631 39.0957 52.8187 37.2193 52.1188 36.9662C51.404 36.713 50.8976 36.579 50.3764 37.3534C49.8552 38.1277 48.3809 39.8701 47.9193 40.3913C47.4725 40.9125 47.0108 40.9721 46.2365 40.5849C45.4621 40.1977 42.9603 39.3787 40.0117 36.7428C37.7034 34.6877 36.1547 32.1561 35.7079 31.3817C35.2611 30.6073 35.6632 30.1904 36.0504 29.8032C36.3929 29.4607 36.8248 28.8948 37.212 28.448C37.5992 28.0013 37.7332 27.6736 37.9864 27.1524C38.2395 26.6312 38.1204 26.1844 37.9268 25.7973C37.7332 25.4101 36.1844 21.5977 35.5441 20.049C34.9186 18.5449 34.2783 18.7385 33.8017 18.7236C33.355 18.6938 32.8338 18.6938 32.3125 18.6938C31.7913 18.6938 30.9574 18.8874 30.2426 19.6618C29.5278 20.4362 27.5322 22.3125 27.5322 26.1249C27.5322 29.9372 30.3021 33.6155 30.6893 34.1367C31.0765 34.6579 36.1547 42.4762 43.9282 45.8269C45.7748 46.631 47.2193 47.1076 48.3511 47.465C50.2126 48.0606 51.8954 47.9713 53.2357 47.7777C54.7249 47.5543 57.8224 45.9013 58.4627 44.0994C59.1031 42.2975 59.1031 40.7338 58.9095 40.4211C58.6861 40.0637 58.1798 39.8701 57.4054 39.4829Z" fill="white"/>
</g>
<defs>
<filter id="filter0_ddddd_7303_121340" x="0.736973" y="0.0124069" width="84.8044" height="103.623" filterUnits="userSpaceOnUse" color-interpolation-filters="sRGB">
<feFlood flood-opacity="0" result="BackgroundImageFix"/>
<feColorMatrix in="SourceAlpha" type="matrix" values="0 0 0 0 0 0 0 0 0 0 0 0 0 0 0 0 0 0 127 0" result="hardAlpha"/>
<feOffset/>
<feColorMatrix type="matrix" values="0 0 0 0 0 0 0 0 0 0 0 0 0 0 0 0 0 0 0.1 0"/>
<feBlend mode="normal" in2="BackgroundImageFix" result="effect1_dropShadow_7303_121340"/>
<feColorMatrix in="SourceAlpha" type="matrix" values="0 0 0 0 0 0 0 0 0 0 0 0 0 0 0 0 0 0 127 0" result="hardAlpha"/>
<feOffset dy="1.98759"/>
<feGaussianBlur stdDeviation="1.98759"/>
<feColorMatrix type="matrix" values="0 0 0 0 0 0 0 0 0 0 0 0 0 0 0 0 0 0 0.1 0"/>
<feBlend mode="normal" in2="effect1_dropShadow_7303_121340" result="effect2_dropShadow_7303_121340"/>
<feColorMatrix in="SourceAlpha" type="matrix" values="0 0 0 0 0 0 0 0 0 0 0 0 0 0 0 0 0 0 127 0" result="hardAlpha"/>
<feOffset dy="6.62531"/>
<feGaussianBlur stdDeviation="3.31265"/>
<feColorMatrix type="matrix" values="0 0 0 0 0 0 0 0 0 0 0 0 0 0 0 0 0 0 0.09 0"/>
<feBlend mode="normal" in2="effect2_dropShadow_7303_121340" result="effect3_dropShadow_7303_121340"/>
<feColorMatrix in="SourceAlpha" type="matrix" values="0 0 0 0 0 0 0 0 0 0 0 0 0 0 0 0 0 0 127 0" result="hardAlpha"/>
<feOffset dy="15.2382"/>
<feGaussianBlur stdDeviation="4.63772"/>
<feColorMatrix type="matrix" values="0 0 0 0 0 0 0 0 0 0 0 0 0 0 0 0 0 0 0.05 0"/>
<feBlend mode="normal" in2="effect3_dropShadow_7303_121340" result="effect4_dropShadow_7303_121340"/>
<feColorMatrix in="SourceAlpha" type="matrix" values="0 0 0 0 0 0 0 0 0 0 0 0 0 0 0 0 0 0 127 0" result="hardAlpha"/>
<feOffset dy="27.8263"/>
<feGaussianBlur stdDeviation="5.63151"/>
<feColorMatrix type="matrix" values="0 0 0 0 0 0 0 0 0 0 0 0 0 0 0 0 0 0 0.01 0"/>
<feBlend mode="normal" in2="effect4_dropShadow_7303_121340" result="effect5_dropShadow_7303_121340"/>
<feBlend mode="normal" in="SourceGraphic" in2="effect5_dropShadow_7303_121340" result="shape"/>
</filter>
<linearGradient id="paint0_linear_7303_121340" x1="47.7764" y1="33.5199" x2="279" y2="33.5199" gradientUnits="userSpaceOnUse">
<stop stop-color="#F2D71A"/>
<stop offset="1" stop-color="#ECB024"/>
</linearGradient>
<linearGradient id="paint1_linear_7303_121340" x1="42.4672" y1="60.7141" x2="42.4672" y2="4.18015" gradientUnits="userSpaceOnUse">
<stop stop-color="#25CF43"/>
<stop offset="1" stop-color="#61FD7D"/>
</linearGradient>
</defs>
</svg>
