<svg width="144" height="144" viewBox="0 0 144 144" fill="none" xmlns="http://www.w3.org/2000/svg">
<path d="M20.2208 68.3647C22.3008 68.3307 24.0838 70.0857 24.0698 72.1547C24.0568 74.1717 22.3518 75.8787 20.3248 75.9037C18.2298 75.9287 16.4798 74.2047 16.4868 72.1227C16.4948 70.0857 18.1718 68.3987 20.2208 68.3647Z" fill="url(#paint0_linear_8611_133656)"/>
<path d="M101.798 116.95C101.757 119.073 100.03 120.703 97.8918 120.637C95.8238 120.573 94.2268 118.895 94.2598 116.822C94.2938 114.71 96.0198 113.078 98.1588 113.136C100.21 113.191 101.837 114.897 101.798 116.95Z" fill="url(#paint1_linear_8611_133656)"/>
<path d="M123.828 68.2306C125.922 68.2116 127.67 69.9446 127.654 72.0236C127.638 74.0576 125.949 75.7456 123.905 75.7686C121.819 75.7926 120.046 74.0336 120.071 71.9636C120.095 69.9336 121.79 68.2486 123.828 68.2306Z" fill="url(#paint2_linear_8611_133656)"/>
<path d="M49.9891 116.953C49.9911 119 48.3371 120.702 46.2991 120.75C44.2331 120.798 42.4741 119.055 42.4741 116.959C42.4741 114.853 44.2061 113.138 46.2951 113.174C48.3401 113.209 49.9871 114.893 49.9891 116.953Z" fill="url(#paint3_linear_8611_133656)"/>
<path d="M46.1601 23.4895C48.2301 23.5105 49.8701 25.1555 49.8831 27.2205C49.8951 29.3375 48.2031 31.0165 46.0741 30.9995C44.0161 30.9825 42.3531 29.3255 42.3351 27.2735C42.3171 25.1735 44.0411 23.4675 46.1601 23.4895Z" fill="url(#paint4_linear_8611_133656)"/>
<path d="M101.667 27.1209C101.692 29.2299 99.9898 30.9629 97.8988 30.9579C95.8538 30.9529 94.1808 29.2899 94.1508 27.2339C94.1198 25.1409 95.8558 23.3699 97.9248 23.3809C99.9478 23.3919 101.644 25.0859 101.667 27.1209Z" fill="url(#paint5_linear_8611_133656)"/>
<path fill-rule="evenodd" clip-rule="evenodd" d="M1.79688 71.9999C1.79688 33.2279 33.2279 1.79688 71.9999 1.79688C110.772 1.79688 142.203 33.2279 142.203 71.9999C142.203 110.772 110.772 142.203 71.9999 142.203C33.2279 142.203 1.79688 110.772 1.79688 71.9999ZM82.9709 16.3627C81.975 21.5372 80.979 26.7118 79.9349 31.8769C79.7609 32.7389 79.9629 32.9729 80.7269 33.1409C88.8509 34.9219 95.7229 38.9029 101.352 45.0119C101.984 45.6979 102.322 45.7569 103.051 45.1129C108.047 40.7029 113.074 36.3289 118.139 31.9999C119.001 31.2629 119.175 30.9049 118.303 29.9649C111.972 23.1399 104.544 17.9059 95.9509 14.3459C92.3289 12.8459 88.5889 11.6919 84.7029 10.9429C84.0281 10.7002 83.9599 11.1312 83.8909 11.5673C83.8809 11.6307 83.8708 11.6943 83.8589 11.7559C83.5621 13.2913 83.2665 14.827 82.9709 16.3627ZM58.9749 10.9909C45.7829 13.8489 34.6709 20.3079 25.5449 30.2409C24.8869 30.9569 25.1649 31.2129 25.7199 31.6929C30.8979 36.1699 36.0659 40.6579 41.2049 45.1789C41.8279 45.7279 42.1479 45.7409 42.7059 45.1079C44.8889 42.6309 47.4059 40.5259 50.1649 38.7159C54.2409 36.0429 58.6539 34.1639 63.4249 33.1319C63.4852 33.1188 63.5466 33.1078 63.6076 33.097C64.0406 33.0196 64.4504 32.9465 64.2909 32.1479C63.2714 27.0561 62.288 21.9561 61.3047 16.8565C60.96 15.0684 60.6152 13.2805 60.2689 11.4929C60.2613 11.4532 60.2546 11.4122 60.2479 11.371C60.1967 11.0569 60.1437 10.7321 59.6459 10.8639C59.5765 10.8769 59.507 10.8894 59.4375 10.9019C59.2828 10.9299 59.1281 10.9577 58.9749 10.9909ZM12.5569 91.3899C12.8179 92.2069 13.0629 92.3389 13.8439 92.0659C20.3239 89.8019 26.8129 87.5649 33.3119 85.3569C34.0529 85.1049 34.2979 84.8979 34.0339 84.0469C31.5589 76.0769 31.5429 68.0849 34.0259 60.1109C34.2699 59.3299 34.1719 59.0429 33.3629 58.7689C26.8619 56.5679 20.3699 54.3369 13.8989 52.0459C12.9569 51.7129 12.7909 52.0039 12.5319 52.8039C10.5119 59.0569 9.50988 65.4599 9.53588 70.9749C9.52888 78.6409 10.5489 85.0869 12.5569 91.3899ZM63.3041 116.822C63.6284 115.159 63.9532 113.492 64.2789 111.821L64.2793 111.818C64.3469 111.234 64.3493 111.214 63.4299 111.011C55.2599 109.205 48.3629 105.19 42.7049 99.0449C42.1789 98.4729 41.8859 98.3189 41.2089 98.9149C36.0379 103.468 30.8279 107.978 25.6079 112.476C25.0539 112.954 24.9079 113.209 25.4789 113.831C34.6589 123.834 45.8179 130.384 59.1129 133.272C59.9269 133.449 60.1529 133.278 60.2699 132.534C60.4233 131.563 60.6148 130.598 60.8063 129.634C60.8632 129.347 60.92 129.061 60.9759 128.774C61.7498 124.796 62.5251 120.818 63.3041 116.822ZM84.9279 133.278C98.2279 130.425 109.416 123.926 118.571 113.89C118.755 113.688 118.937 113.484 119.113 113.286C119.102 112.979 118.9 112.832 118.703 112.69C118.645 112.647 118.587 112.606 118.535 112.56C117.061 111.276 115.586 109.993 114.112 108.71C110.354 105.441 106.596 102.173 102.856 98.8839C102.241 98.3429 101.946 98.4789 101.461 99.0069C95.7719 105.192 88.8289 109.212 80.6119 111.013C80.0179 111.144 79.7159 111.286 79.8759 112.085C81.2449 118.917 82.5529 125.762 83.8479 132.609C83.9859 133.335 84.2049 133.433 84.9279 133.278ZM110.823 85.3789C117.321 87.5899 123.812 89.8219 130.291 92.0889C131.081 92.3659 131.325 92.2499 131.591 91.4259C133.607 85.1719 134.619 78.7719 134.596 72.2039C134.62 65.5439 133.572 59.0559 131.562 52.7079C131.289 51.8459 130.975 51.8289 130.249 52.0819C123.769 54.3439 117.286 56.5959 110.783 58.7909C109.948 59.0729 109.889 59.3719 110.124 60.1319C112.588 68.1079 112.592 76.0989 110.099 84.0669C109.828 84.9329 110.099 85.1319 110.823 85.3789ZM67.1917 90.9231H72.0588H76.8081C77.567 90.9231 78.1821 90.3178 78.1821 89.571C78.1821 89.2317 78.0556 88.9052 77.8198 88.6578C76.1847 86.9416 73.7325 81.9834 73.7325 81.9834C76.429 84.3957 80.5714 84 80.5714 84C85.2609 83.8474 89.0231 80.2267 88.9998 75.6235C88.9734 70.3539 84.8878 66.6361 79.7894 62.0504C73.432 56.333 71.9998 53 71.9998 53C71.9998 53 70.5675 56.333 64.2104 62.0504C59.112 66.6361 55.0266 70.3542 55 75.6235C54.9767 80.2267 58.7387 83.8474 63.4284 84C63.4284 84 67.5708 84.3957 70.2673 81.9834C70.2673 81.9834 67.8151 86.9416 66.18 88.6578C65.9442 88.9052 65.8177 89.2317 65.8177 89.571C65.8177 90.3178 66.4328 90.9231 67.1917 90.9231Z" fill="url(#paint6_linear_8611_133656)"/>
<defs>
<linearGradient id="paint0_linear_8611_133656" x1="16.4868" y1="72.1341" x2="24.0699" y2="72.1341" gradientUnits="userSpaceOnUse">
<stop stop-color="#F2D71A"/>
<stop offset="1" stop-color="#ECB024"/>
</linearGradient>
<linearGradient id="paint1_linear_8611_133656" x1="94.2593" y1="116.887" x2="101.798" y2="116.887" gradientUnits="userSpaceOnUse">
<stop stop-color="#F2D71A"/>
<stop offset="1" stop-color="#ECB024"/>
</linearGradient>
<linearGradient id="paint2_linear_8611_133656" x1="120.071" y1="71.9997" x2="127.654" y2="71.9997" gradientUnits="userSpaceOnUse">
<stop stop-color="#F2D71A"/>
<stop offset="1" stop-color="#ECB024"/>
</linearGradient>
<linearGradient id="paint3_linear_8611_133656" x1="42.4741" y1="116.962" x2="49.9891" y2="116.962" gradientUnits="userSpaceOnUse">
<stop stop-color="#F2D71A"/>
<stop offset="1" stop-color="#ECB024"/>
</linearGradient>
<linearGradient id="paint4_linear_8611_133656" x1="42.335" y1="27.2444" x2="49.8832" y2="27.2444" gradientUnits="userSpaceOnUse">
<stop stop-color="#F2D71A"/>
<stop offset="1" stop-color="#ECB024"/>
</linearGradient>
<linearGradient id="paint5_linear_8611_133656" x1="94.1504" y1="27.1694" x2="101.667" y2="27.1694" gradientUnits="userSpaceOnUse">
<stop stop-color="#F2D71A"/>
<stop offset="1" stop-color="#ECB024"/>
</linearGradient>
<linearGradient id="paint6_linear_8611_133656" x1="1.79688" y1="71.9999" x2="142.203" y2="71.9999" gradientUnits="userSpaceOnUse">
<stop stop-color="#F2D71A"/>
<stop offset="1" stop-color="#ECB024"/>
</linearGradient>
</defs>
</svg>
