<svg width="22" height="24" viewBox="0 0 22 24" fill="none" xmlns="http://www.w3.org/2000/svg">
<g clip-path="url(#clip0_4450_141061)">
<path d="M15.3768 -2.70992e-07C15.7952 0.258333 16.0918 0.648333 16.4302 0.991666C17.5735 2.15333 18.7085 3.325 19.8452 4.49333C20.3235 4.985 20.8002 5.48 21.2818 5.96833C21.5335 6.22333 21.6518 6.51 21.5252 6.86C21.3985 7.20833 21.1302 7.37667 20.7685 7.38333C20.0985 7.395 19.4268 7.39333 18.7568 7.39667C18.3785 7.39833 18.3785 7.39667 18.3785 7.76667C18.3785 9.77167 18.3785 11.7767 18.3785 13.7817C18.3785 14.5133 18.0868 14.805 17.3585 14.8067C15.8452 14.8067 14.3318 14.8067 12.8185 14.8067C12.1418 14.8067 11.8518 14.5133 11.8518 13.8367C11.8518 11.8317 11.8518 9.82667 11.8518 7.82167C11.8518 7.37833 11.9052 7.39833 11.4168 7.39833C10.8085 7.39833 10.2002 7.40333 9.59184 7.39667C9.09184 7.39167 8.80684 7.21333 8.68351 6.845C8.57018 6.50833 8.68684 6.23667 8.92184 5.995C10.1202 4.76667 11.3168 3.53667 12.5152 2.30667C13.1518 1.65333 13.7918 1.00167 14.4252 0.345C14.5568 0.208333 14.6968 0.088333 14.8652 0.00333304L15.3802 0.00333306L15.3768 -2.70992e-07Z" fill="url(#paint0_linear_4450_141061)"/>
<path d="M9.725 13.1433C9.725 14.1883 9.73167 15.2333 9.72 16.2783C9.71667 16.5183 9.79334 16.5883 10.0267 16.5833C10.6817 16.57 11.3367 16.5733 11.9917 16.5817C12.4817 16.5867 12.7583 16.76 12.8883 17.1167C13.0133 17.4617 12.8933 17.74 12.6533 17.9867C11.4767 19.1933 10.3017 20.4 9.12667 21.6067C8.45167 22.3 7.77834 22.9933 7.10667 23.69C6.71834 24.0917 6.24167 24.1083 5.855 23.7117C3.99167 21.8033 2.13167 19.8917 0.270003 17.9817C0.0333363 17.7383 -0.0666632 17.4567 0.0483366 17.1267C0.16667 16.7883 0.41667 16.6067 0.773336 16.6C1.45167 16.5867 2.13 16.585 2.80834 16.5817C3.19834 16.58 3.19834 16.5817 3.19834 16.2017C3.19834 14.1967 3.19834 12.1917 3.19834 10.1883C3.19834 9.46501 3.48667 9.17334 4.20334 9.17334C5.725 9.17334 7.245 9.17334 8.76667 9.17334C9.42834 9.17334 9.72667 9.47001 9.72667 10.1267C9.72667 11.1333 9.72667 12.14 9.72667 13.145L9.725 13.1433Z" fill="url(#paint1_linear_4450_141061)"/>
</g>
<defs>
<linearGradient id="paint0_linear_4450_141061" x1="15.1081" y1="-2.82739e-07" x2="15.1081" y2="14.8067" gradientUnits="userSpaceOnUse">
<stop stop-color="#F2D71A"/>
<stop offset="1" stop-color="#ECB024"/>
</linearGradient>
<linearGradient id="paint1_linear_4450_141061" x1="6.46953" y1="9.17334" x2="6.46953" y2="24.0004" gradientUnits="userSpaceOnUse">
<stop stop-color="#F2D71A"/>
<stop offset="1" stop-color="#ECB024"/>
</linearGradient>
<clipPath id="clip0_4450_141061">
<rect width="24" height="21.5767" fill="white" transform="translate(21.5767) rotate(90)"/>
</clipPath>
</defs>
</svg>
