<svg xmlns="http://www.w3.org/2000/svg" viewBox="0 0 23 21" xmlns:v="https://vecta.io/nano"><linearGradient id="A" gradientUnits="userSpaceOnUse" x1="3.596" y1="3.745" x2="10.404" y2="3.745"><stop offset="0" stop-color="#f2d71a"/><stop offset="1" stop-color="#ecb024"/></linearGradient><path d="M7 .9h3.1c.3 0 .4.1.2.4L7.4 6.4c-.1.2-.3.3-.4 0L3.7 1.3c-.2-.3-.1-.4.2-.4H7h0z" fill="url(#A)"/><linearGradient id="B" gradientUnits="userSpaceOnUse" x1=".346" y1="4.05" x2="6.357" y2="4.05"><stop offset="0" stop-color="#f2d71a"/><stop offset="1" stop-color="#ecb024"/></linearGradient><path d="M3.4 7.1H.8c-.4 0-.5-.1-.4-.5l2-5.3c0-.1.1-.3.2-.3s.2.1.3.2l3.3 5.5c.3.4.2.4-.2.4H3.4h0z" fill="url(#B)"/><linearGradient id="C" gradientUnits="userSpaceOnUse" x1="5.418" y1="12.962" x2="22.999" y2="12.962"><stop offset="0" stop-color="#f2d71a"/><stop offset="1" stop-color="#ecb024"/></linearGradient><path d="M22.6 12.3c.7 1.8.4 3.1-.9 3.9-.6.4-1.2.3-1.8.2-.8-.2-1.5-.6-2.2-.9-.1 0-.1-.1-.2-.1-.7-.4-1.5-.6-2.3-.1l-1.5.6c-.3.1-.6.3-.8.6-.4.6-.6 1.3-.9 1.9-.1.3-.3.6-.5.9-.7 1.2-1.7 1.5-3 1.1-.5-.4-1.1-.9-1.4-1.7-.7-2.1-1.3-4.2-1.6-6.3-.4-2.6 1.8-4.5 3.8-4.3.8.1 1.5-.1 2.2-.3.2-.1.5-.2.7-.3.7-.2 1.4-.6 1.9-1.2 1.1-1.1 3-1.2 4.3-.5.6.3 1.1.8 1.4 1.3 1.2 1.8 2.2 3.6 2.8 5.2h0zm-12 2.3c.4-.1.5-.4.3-.9s0-.9.5-1.1c.4-.2.6-.5.5-.8-.1-.4-.5-.5-.9-.4-.5.2-.9 0-1.1-.5-.2-.4-.5-.6-.8-.4-.3.1-.5.5-.4.9.1.2.1.4.2.5.1.2 0 .3-.2.4s-.4.1-.6.2c-.3.2-.5.5-.4.8s.5.5.8.3c.2-.1.4-.1.5-.2.2-.1.4-.1.4.2.1.2.1.4.2.5.3.5.6.6 1 .5h0zm7.8-6.5c-.2-.5-.7-.7-1.2-.6a.88.88 0 0 0-.5 1.2c.2.5.7.7 1.2.6.4-.2.6-.7.5-1.2zm-1.2 4.1c.5-.2.7-.7.6-1.2a.88.88 0 0 0-1.2-.5c-.5.2-.7.7-.6 1.2.2.4.7.7 1.2.5h0z" fill="url(#C)"/><linearGradient id="D" gradientUnits="userSpaceOnUse" x1=".613" y1="10.5" x2="6.973" y2="10.5"><stop offset="0" stop-color="#f2d71a"/><stop offset="1" stop-color="#ecb024"/></linearGradient><path d="M5 12.4c-.2-1.3.2-2.6 1.1-3.5.2-.3.5-.5.9-.7-.1-.3-.3-.4-.6-.4H1c-.1 0-.3 0-.4.1 0 .2.1.3.2.4 0 .1.1.1.2.2l4.2 4.7c-.1-.3-.2-.5-.2-.8z" fill="url(#D)"/><linearGradient id="E" gradientUnits="userSpaceOnUse" x1="7.977" y1="4.337" x2="13.593" y2="4.337"><stop offset="0" stop-color="#f2d71a"/><stop offset="1" stop-color="#ecb024"/></linearGradient><path d="M8.4 7.1H11h0 .7c.1 0 .3-.1.4-.1a5.3 5.3 0 0 0 1.5-.8l-2.2-4.4c-.1-.3-.2-.3-.4 0L8.1 6.7c-.2.4-.1.4.3.4z" fill="url(#E)"/><linearGradient id="F" gradientUnits="userSpaceOnUse" x1="11.948" y1="3.331" x2="17.747" y2="3.331"><stop offset="0" stop-color="#f2d71a"/><stop offset="1" stop-color="#ecb024"/></linearGradient><path d="M14.2 5.7c.4-.3.9-.6 1.5-.7l2-3.6c.2-.3.1-.4-.3-.4h-2.5 0-2.5c-.4-.1-.5 0-.4.3l2.2 4.4z" fill="url(#F)"/><linearGradient id="G" gradientUnits="userSpaceOnUse" x1="16.577" y1="3.1" x2="19.593" y2="3.1"><stop offset="0" stop-color="#f2d71a"/><stop offset="1" stop-color="#ecb024"/></linearGradient><path d="M17.9 5l.6-.6c.4-.4.8-.7 1.1-1.1l-.7-1.8c0-.1 0-.3-.2-.3-.1 0-.2.1-.2.2l-1.9 3.4c.4 0 .8.1 1.3.2z" fill="url(#G)"/></svg>