<?xml version="1.0" encoding="utf-8"?>
<!-- Generator: Adobe Illustrator 27.5.0, SVG Export Plug-In . SVG Version: 6.00 Build 0)  -->
<svg version="1.1" id="Layer_1" xmlns="http://www.w3.org/2000/svg" xmlns:xlink="http://www.w3.org/1999/xlink" x="0px" y="0px"
	 viewBox="0 0 26 22" style="enable-background:new 0 0 26 22;" xml:space="preserve">
<style type="text/css">
	.st0{fill:url(#SVGID_1_);}
	.st1{fill:url(#SVGID_00000037650484518940900160000003923928959690420154_);}
	.st2{fill:url(#SVGID_00000025422168472844861730000010507767875848482443_);}
	.st3{fill:url(#SVGID_00000178189720375210459520000004366950229039459985_);}
	.st4{fill:url(#SVGID_00000175290641151519259480000003421576992300685208_);}
	.st5{fill:url(#SVGID_00000012471306630787269670000009462510858668332424_);}
	.st6{fill:url(#SVGID_00000041268830765923234940000001760444415039324058_);}
	.st7{fill:url(#SVGID_00000099633504121004272240000017390921966084845698_);}
	.st8{fill:url(#SVGID_00000158733799133914051640000003525238533601136787_);}
</style>
<g>
	
		<linearGradient id="SVGID_1_" gradientUnits="userSpaceOnUse" x1="3.2516" y1="1058.8447" x2="10.0649" y2="1058.8447" gradientTransform="matrix(1 0 0 1 0 -1056)">
		<stop  offset="0" style="stop-color:#F2D71A"/>
		<stop  offset="1" style="stop-color:#ECB024"/>
	</linearGradient>
	<path class="st0" d="M6.7,0c1,0,2,0,3.1,0c0.3,0,0.4,0.1,0.2,0.4C9,2.1,8,3.8,7,5.5c-0.1,0.2-0.3,0.3-0.4,0
		C5.5,3.8,4.4,2.1,3.4,0.4C3.1,0.1,3.3,0,3.6,0C4.6,0,5.6,0,6.7,0L6.7,0z"/>
	
		<linearGradient id="SVGID_00000035518409735762847490000006942520141460042678_" gradientUnits="userSpaceOnUse" x1="-9.033101e-09" y1="1059.2" x2="6.0126" y2="1059.2" gradientTransform="matrix(1 0 0 1 0 -1056)">
		<stop  offset="0" style="stop-color:#F2D71A"/>
		<stop  offset="1" style="stop-color:#ECB024"/>
	</linearGradient>
	<path style="fill:url(#SVGID_00000035518409735762847490000006942520141460042678_);" d="M3,6.2c-0.9,0-1.7,0-2.6,0
		C0,6.2-0.1,6.1,0,5.7C0.7,4,1.4,2.2,2,0.5c0-0.1,0.1-0.3,0.2-0.3c0.1,0,0.2,0.1,0.3,0.2C3.6,2.2,4.8,4,5.9,5.8
		c0.2,0.4,0.2,0.4-0.2,0.4C4.8,6.2,3.9,6.2,3,6.2L3,6.2z"/>
	
		<linearGradient id="SVGID_00000045602894426371600570000001519550635060257965_" gradientUnits="userSpaceOnUse" x1="7.6304" y1="1059.3553" x2="13.5924" y2="1059.3553" gradientTransform="matrix(1 0 0 1 0 -1056)">
		<stop  offset="0" style="stop-color:#F2D71A"/>
		<stop  offset="1" style="stop-color:#ECB024"/>
	</linearGradient>
	<path style="fill:url(#SVGID_00000045602894426371600570000001519550635060257965_);" d="M10.6,6.2c-0.9,0-1.7,0-2.6,0
		c-0.4,0-0.5-0.1-0.3-0.5c1-1.7,1.9-3.3,2.9-5c0.2-0.3,0.3-0.2,0.4,0c0.8,1.7,1.7,3.3,2.5,5c0.2,0.3,0.1,0.4-0.3,0.4
		C12.4,6.2,11.5,6.2,10.6,6.2L10.6,6.2z"/>
	
		<linearGradient id="SVGID_00000043429994386036275750000005574445674276810663_" gradientUnits="userSpaceOnUse" x1="11.6" y1="1058.7625" x2="17.3995" y2="1058.7625" gradientTransform="matrix(1 0 0 1 0 -1056)">
		<stop  offset="0" style="stop-color:#F2D71A"/>
		<stop  offset="1" style="stop-color:#ECB024"/>
	</linearGradient>
	<path style="fill:url(#SVGID_00000043429994386036275750000005574445674276810663_);" d="M14.5,0c0.8,0,1.7,0,2.5,0
		c0.4,0,0.4,0.1,0.3,0.4c-0.9,1.6-1.8,3.3-2.7,4.9c-0.1,0.3-0.3,0.3-0.4,0c-0.8-1.6-1.6-3.3-2.5-4.9C11.5,0.1,11.6,0,12,0
		C12.8,0,13.6,0,14.5,0L14.5,0z"/>
	
		<linearGradient id="SVGID_00000160190314800765670020000016656981146622740414_" gradientUnits="userSpaceOnUse" x1="15.0957" y1="1059.25" x2="19.2472" y2="1059.25" gradientTransform="matrix(1 0 0 1 0 -1056)">
		<stop  offset="0" style="stop-color:#F2D71A"/>
		<stop  offset="1" style="stop-color:#ECB024"/>
	</linearGradient>
	<path style="fill:url(#SVGID_00000160190314800765670020000016656981146622740414_);" d="M15.3,6.2l2.8-2.7
		c0.4-0.4,0.8-0.7,1.1-1.1c-0.2-0.6-0.5-1.2-0.7-1.8c0-0.1,0-0.3-0.2-0.3c-0.1,0-0.2,0.1-0.2,0.2c-1,1.8-2,3.5-3,5.3
		C15,6.1,15.1,6.2,15.3,6.2L15.3,6.2z"/>
	
		<linearGradient id="SVGID_00000037665120444597955470000002574153193274276242_" gradientUnits="userSpaceOnUse" x1="7.4146" y1="1066.7" x2="13.6969" y2="1066.7" gradientTransform="matrix(1 0 0 1 0 -1056)">
		<stop  offset="0" style="stop-color:#F2D71A"/>
		<stop  offset="1" style="stop-color:#ECB024"/>
	</linearGradient>
	<path style="fill:url(#SVGID_00000037665120444597955470000002574153193274276242_);" d="M9.6,14.5v-4.2C9.6,9.5,10,9,10.9,9h2.2
		c0.2-0.5,0.4-1.1,0.5-1.6c0.2-0.4,0-0.5-0.4-0.5c-1.8,0-3.6,0-5.3,0c-0.5,0-0.6,0-0.4,0.6C8.2,9.8,8.9,12.2,9.6,14.5z"/>
	
		<linearGradient id="SVGID_00000070805686798385614270000007831120100390375094_" gradientUnits="userSpaceOnUse" x1="0.2727" y1="1067.15" x2="9.0104" y2="1067.15" gradientTransform="matrix(1 0 0 1 0 -1056)">
		<stop  offset="0" style="stop-color:#F2D71A"/>
		<stop  offset="1" style="stop-color:#ECB024"/>
	</linearGradient>
	<path style="fill:url(#SVGID_00000070805686798385614270000007831120100390375094_);" d="M7.9,15.3c0.4,0,0.7,0,1.1,0
		C8.2,12.6,7.4,10,6.7,7.4C6.6,7,6.4,6.9,6.1,6.9c-1.8,0-3.6,0-5.4,0c-0.1,0-0.3,0-0.4,0.1C0.2,7.2,0.4,7.3,0.5,7.4
		c0,0.1,0.1,0.1,0.2,0.2c2.3,2.6,4.6,5.2,6.9,7.8C7.7,15.3,7.8,15.3,7.9,15.3L7.9,15.3z"/>
	
		<linearGradient id="SVGID_00000166663089806040817500000008586412790379712920_" gradientUnits="userSpaceOnUse" x1="7.6304" y1="8.1" x2="18.3089" y2="8.1" gradientTransform="matrix(1 0 0 -1 0 24)">
		<stop  offset="0" style="stop-color:#F2D71A"/>
		<stop  offset="1" style="stop-color:#ECB024"/>
	</linearGradient>
	<path style="fill:url(#SVGID_00000166663089806040817500000008586412790379712920_);" d="M12.8,21.8c-0.3-0.2-0.6-0.5-0.9-0.8
		c-0.9-0.9-1.9-1.9-2.8-2.8c-0.4-0.4-0.8-0.8-1.2-1.2c-0.2-0.2-0.3-0.4-0.2-0.7C7.8,16,8,15.9,8.3,15.9c0.6,0,1.1,0,1.7,0
		c0.3,0,0.3,0,0.3-0.3c0-1.6,0-3.2,0-4.9c0-0.6,0.2-0.8,0.8-0.8c1.3,0,2.5,0,3.8,0c0.6,0,0.8,0.2,0.8,0.8c0,1.6,0,3.2,0,4.9
		c0,0.4,0,0.3,0.4,0.3c0.5,0,1,0,1.5,0c0.4,0,0.6,0.1,0.7,0.4c0.1,0.3,0,0.5-0.2,0.7c-1,1-2,2-3,3c-0.5,0.5-1.1,1.1-1.6,1.6
		c-0.1,0.1-0.2,0.2-0.4,0.3L12.8,21.8L12.8,21.8z"/>
	
		<linearGradient id="SVGID_00000029012815839075858380000010606603313758291618_" gradientUnits="userSpaceOnUse" x1="14.7608" y1="15.4625" x2="25.4516" y2="15.4625" gradientTransform="matrix(1 0 0 -1 0 24)">
		<stop  offset="0" style="stop-color:#F2D71A"/>
		<stop  offset="1" style="stop-color:#ECB024"/>
	</linearGradient>
	<path style="fill:url(#SVGID_00000029012815839075858380000010606603313758291618_);" d="M17.4,11.2c0-0.8,0-1.7,0-2.5
		c0-0.2-0.1-0.3-0.3-0.2c-0.5,0-1.1,0-1.6,0c-0.4,0-0.6-0.1-0.7-0.4c-0.1-0.3,0-0.5,0.2-0.7c1-1,1.9-2,2.9-2.9
		c0.6-0.6,1.1-1.1,1.7-1.7c0.3-0.3,0.7-0.3,1,0c1.5,1.5,3.1,3.1,4.6,4.6c0.2,0.2,0.3,0.4,0.2,0.7c-0.1,0.3-0.3,0.4-0.6,0.4
		c-0.6,0-1.1,0-1.7,0c-0.3,0-0.3,0-0.3,0.3c0,1.6,0,3.2,0,4.9c0,0.6-0.2,0.8-0.8,0.8c-1.3,0-2.5,0-3.8,0c-0.5,0-0.8-0.2-0.8-0.8
		C17.4,12.8,17.4,12,17.4,11.2L17.4,11.2z"/>
</g>
</svg>
