<svg width="25" height="19" viewBox="0 0 25 19" fill="none" xmlns="http://www.w3.org/2000/svg">
<path d="M12.2982 3.29185C13.3162 4.3111 14.6082 6.6265 15.6481 9.45659C16.1739 10.8873 16.5646 12.2567 16.8067 13.4447C17.0466 14.622 17.1404 15.6202 17.0757 16.3236C15.2148 15.8932 13.356 15.6455 11.6688 15.509L11.6434 15.5069L11.6506 15.5314C11.8579 16.2296 11.4768 16.977 10.7666 17.2263L10.7723 17.2428L10.7666 17.2263L5.99783 18.9006C5.25896 19.1598 4.44228 18.7833 4.17732 18.0617L4.16091 18.0677L4.17732 18.0617L3.31771 15.7228L3.31176 15.7066L3.2955 15.7123L2.21891 16.0903L2.21889 16.0903C2.16514 16.1093 2.1042 16.0971 2.03619 16.055C1.96813 16.0129 1.89523 15.942 1.81968 15.8482L1.81193 15.8386L1.80027 15.8427L1.11296 16.0841L1.1129 16.0841C1.06575 16.1009 1.00742 16.0811 0.938788 16.0224C0.870891 15.9643 0.797446 15.8716 0.722488 15.754C0.572737 15.5191 0.419406 15.1886 0.29406 14.8475C0.168713 14.5064 0.0717819 14.1559 0.0343102 13.8814C0.0155525 13.7439 0.0118684 13.6267 0.0263529 13.5396C0.0409886 13.4515 0.0729984 13.4001 0.120069 13.3836L0.114276 13.3671L0.12007 13.3836L0.807379 13.1422L0.819337 13.138L0.819067 13.1253C0.816533 13.0068 0.82682 12.9071 0.85194 12.8325C0.877023 12.758 0.915972 12.7109 0.969467 12.6921L0.96368 12.6756L0.969472 12.6921L3.09236 11.9468L4.34131 15.3455L4.00962 15.4619L3.99287 15.4677L3.99899 15.4844L4.85861 17.8233L4.85861 17.8233C4.98932 18.1785 5.39057 18.363 5.75319 18.2358L5.7474 18.2193L5.75319 18.2358L10.5219 16.5615L10.5219 16.5615C10.8847 16.434 11.0743 16.0416 10.9438 15.6863L10.9274 15.6923L10.9438 15.6863L10.8606 15.4595L10.8566 15.4488L10.8453 15.4481C8.07381 15.2714 5.89289 15.3825 5.17504 15.4316L3.68143 11.3675C4.67748 10.7021 9.0094 7.67566 12.2982 3.29185Z" fill="url(#paint0_linear_4440_129353)" stroke="url(#paint1_linear_4440_129353)" stroke-width="0.0349723"/>
<path d="M17.8275 16.5088L17.8281 16.508L17.8224 16.5063C17.8173 16.5048 17.8116 16.5034 17.8061 16.502C17.9615 15.8691 17.9138 14.8375 17.6837 13.5711C17.4513 12.2925 17.0324 10.7722 16.4462 9.17648C15.8616 7.5861 15.1974 6.15651 14.5464 5.02706C13.8995 3.9049 13.2645 3.07707 12.7322 2.68316C12.8174 2.34526 12.9616 2.13284 13.1636 2.06179C13.4004 1.97869 13.7037 2.09565 14.0531 2.39159C14.4014 2.68653 14.7902 3.15492 15.1954 3.76168C16.0056 4.97497 16.8794 6.73823 17.6239 8.76373C18.3682 10.7892 18.842 12.6929 19.0067 14.1328C19.0891 14.8529 19.0941 15.456 19.0174 15.9C18.9405 16.3455 18.7827 16.6241 18.5462 16.7071C18.3495 16.776 18.1053 16.7053 17.8275 16.5088Z" fill="url(#paint2_linear_4440_129353)" stroke="url(#paint3_linear_4440_129353)" stroke-width="0.0349723"/>
<path d="M17.113 3.26552L20.2672 0.977417" stroke="url(#paint4_linear_4440_129353)" stroke-width="0.699445" stroke-miterlimit="10"/>
<path d="M19.0891 8.68414L22.6284 7.01984" stroke="url(#paint5_linear_4440_129353)" stroke-width="0.699445" stroke-miterlimit="10"/>
<path d="M20.0742 13.8474L23.9999 13.9709" stroke="url(#paint6_linear_4440_129353)" stroke-width="0.699445" stroke-miterlimit="10"/>
<defs>
<linearGradient id="paint0_linear_4440_129353" x1="0" y1="11.1326" x2="17.1131" y2="11.1326" gradientUnits="userSpaceOnUse">
<stop stop-color="#F2D71A"/>
<stop offset="1" stop-color="#ECB024"/>
</linearGradient>
<linearGradient id="paint1_linear_4440_129353" x1="0" y1="11.1326" x2="17.1131" y2="11.1326" gradientUnits="userSpaceOnUse">
<stop stop-color="#F2D71A"/>
<stop offset="1" stop-color="#ECB024"/>
</linearGradient>
<linearGradient id="paint2_linear_4440_129353" x1="12.7124" y1="9.38426" x2="19.0893" y2="9.38426" gradientUnits="userSpaceOnUse">
<stop stop-color="#F2D71A"/>
<stop offset="1" stop-color="#ECB024"/>
</linearGradient>
<linearGradient id="paint3_linear_4440_129353" x1="12.7124" y1="9.38426" x2="19.0893" y2="9.38426" gradientUnits="userSpaceOnUse">
<stop stop-color="#F2D71A"/>
<stop offset="1" stop-color="#ECB024"/>
</linearGradient>
<linearGradient id="paint4_linear_4440_129353" x1="17.113" y1="2.12147" x2="20.2672" y2="2.12147" gradientUnits="userSpaceOnUse">
<stop stop-color="#F2D71A"/>
<stop offset="1" stop-color="#ECB024"/>
</linearGradient>
<linearGradient id="paint5_linear_4440_129353" x1="19.0891" y1="7.85199" x2="22.6284" y2="7.85199" gradientUnits="userSpaceOnUse">
<stop stop-color="#F2D71A"/>
<stop offset="1" stop-color="#ECB024"/>
</linearGradient>
<linearGradient id="paint6_linear_4440_129353" x1="20.0742" y1="13.9092" x2="23.9999" y2="13.9092" gradientUnits="userSpaceOnUse">
<stop stop-color="#F2D71A"/>
<stop offset="1" stop-color="#ECB024"/>
</linearGradient>
</defs>
</svg>
