<svg width="19" height="20" viewBox="0 0 19 20" fill="none" xmlns="http://www.w3.org/2000/svg">
<g id="Group">
<g id="Group 48096954">
<path id="Vector" d="M14.8825 15.7715C14.8825 16.6218 14.8718 17.4743 14.8868 18.3247C14.891 18.6182 14.7971 18.793 14.5303 18.9225C11.5804 20.3664 8.64116 20.3578 5.69765 18.9053C5.4287 18.7736 5.33691 18.5902 5.33691 18.3031C5.34332 16.6003 5.34545 14.8974 5.33691 13.1967C5.33691 12.8838 5.46285 12.7111 5.7382 12.5773C8.6561 11.155 11.5697 11.1248 14.494 12.56C14.7907 12.7068 14.8974 12.8902 14.8889 13.2183C14.8697 14.0686 14.8825 14.9211 14.8825 15.7715ZM12.9742 14.7528C13.1386 14.7528 13.335 14.7916 13.3755 14.5586C13.4182 14.3276 13.2411 14.2391 13.0639 14.1701C13.0127 14.1506 12.9593 14.1269 12.9038 14.1183C12.5922 14.0643 12.3979 13.9003 12.3659 13.5658C12.3574 13.4686 12.3125 13.3758 12.2762 13.283C12.2229 13.1492 12.1226 13.0823 11.9796 13.1017C11.828 13.1212 11.7341 13.2291 11.764 13.3629C11.8728 13.8809 11.5591 13.7924 11.2581 13.7471C11.0788 13.7212 10.8952 13.6888 10.7159 13.6974C10.4448 13.7104 10.2506 13.6456 10.1908 13.3435C10.1609 13.1924 10.067 13.0866 9.89626 13.0953C9.72123 13.1039 9.64652 13.2226 9.64865 13.3802C9.65506 13.6283 9.51845 13.6909 9.30713 13.706C9.09794 13.7212 8.88236 13.7319 8.68385 13.7967C8.32738 13.9111 8.15448 13.7859 8.09685 13.4298C8.06697 13.2442 7.99226 13.1039 7.7596 13.1686C7.54188 13.2269 7.49705 13.3931 7.55895 13.5658C7.69983 13.9607 7.50132 14.1053 7.16834 14.1895C6.97836 14.237 6.81187 14.3406 6.88444 14.5758C6.95915 14.8175 7.1726 14.7852 7.34123 14.7226C7.65928 14.6039 7.84498 14.6492 7.90261 15.0269C7.93249 15.219 8.02214 15.4542 8.27615 15.3938C8.55151 15.3269 8.51095 15.0938 8.45759 14.8715C8.42343 14.7291 8.31884 14.5262 8.50028 14.4506C8.87809 14.2909 9.29219 14.2866 9.69775 14.2866C9.82155 14.2866 9.86637 14.4204 9.89412 14.5348C9.93254 14.6859 9.95816 14.8413 10.0073 14.988C10.0713 15.1844 10.1076 15.4607 10.3936 15.3916C10.6647 15.3247 10.622 15.0787 10.5644 14.8629C10.5345 14.7528 10.5153 14.6427 10.4897 14.5305C10.4555 14.3708 10.5217 14.265 10.6796 14.2801C11.0831 14.319 11.5014 14.3039 11.8771 14.4722C12.1226 14.5823 12.0628 14.8952 12.1524 15.1111C12.2143 15.2621 12.2784 15.4197 12.4662 15.4003C12.6733 15.3787 12.7352 15.2103 12.7117 15.0226C12.6861 14.8111 12.716 14.6773 12.9742 14.7571V14.7528Z" fill="url(#paint0_linear_4440_129036)"/>
<path id="Vector_2" d="M8.53417 7.73846C7.78425 7.73846 7.40928 7.35717 7.40928 6.59459C7.40928 4.85073 7.41782 3.10687 7.40074 1.36517C7.39647 0.972365 7.51814 0.821288 7.90876 0.877403C9.03579 1.03711 10.086 1.39106 11.0358 2.0407C11.2642 2.19609 11.3112 2.34285 11.2023 2.604C10.5513 4.14283 9.96857 5.70755 9.69962 7.3694C9.6548 7.64134 9.52886 7.76436 9.24924 7.74278C9.01231 7.72551 8.77324 7.73846 8.53417 7.73846Z" fill="url(#paint1_linear_4440_129036)"/>
<path id="Vector_3" d="M6.81154 4.33921C6.81154 5.34495 6.80514 6.35069 6.81581 7.35644C6.81795 7.6219 6.74324 7.74924 6.46148 7.74276C5.95774 7.72981 5.45399 7.73413 4.94811 7.74276C4.71971 7.74492 4.58524 7.67801 4.54255 7.4255C4.25225 5.73128 3.77412 4.09101 3.11242 2.50686C3.01209 2.2673 3.06332 2.11406 3.27677 1.97377C4.22664 1.3522 5.26828 1.0112 6.38251 0.875228C6.69415 0.836379 6.80514 0.965874 6.80301 1.28098C6.7902 2.29967 6.79874 3.32052 6.79874 4.33921C6.80301 4.33921 6.80728 4.33921 6.81154 4.33921Z" fill="url(#paint2_linear_4440_129036)"/>
<path id="Vector_4" d="M2.03472 8.35572C2.55341 8.35572 3.0721 8.35356 3.59079 8.35572C4.05825 8.35787 4.12442 8.4442 4.06892 8.95571C3.93872 10.1773 3.60786 11.3449 3.18309 12.4909C3.0785 12.7693 2.9547 13.0391 2.85651 13.3218C2.73911 13.6672 2.58116 13.6434 2.34636 13.4254C1.25775 12.4218 0.527747 11.2046 0.17982 9.75642C0.107246 9.45426 0.0624211 9.14563 0.0133271 8.83701C-0.040036 8.50679 0.0602866 8.33413 0.433828 8.34924C0.965325 8.37298 1.49896 8.35572 2.03259 8.35572H2.03472Z" fill="url(#paint3_linear_4440_129036)"/>
<path id="Vector_5" d="M1.99864 7.73843C1.46501 7.73843 0.933511 7.72548 0.39988 7.74275C0.0754323 7.75354 -0.0248903 7.60894 0.00926209 7.30678C0.212042 5.5176 0.965529 4.00683 2.25478 2.768C2.45329 2.57591 2.55788 2.65145 2.64967 2.87591C3.23026 4.30898 3.66143 5.78522 3.94319 7.3111C4.01149 7.68447 3.87061 7.75354 3.55257 7.74275C3.03388 7.72764 2.51519 7.73843 1.9965 7.73843H1.99864Z" fill="url(#paint4_linear_4440_129036)"/>
<path id="Vector_6" d="M12.1891 7.73848C11.6704 7.73848 11.1518 7.72121 10.6352 7.74495C10.2894 7.76006 10.2254 7.60898 10.2873 7.31114C10.5968 5.80901 11.0621 4.35867 11.6726 2.95581C11.8263 2.5997 11.9735 2.78315 12.1294 2.9407C13.1774 4.00471 13.8477 5.26944 14.1145 6.74784C14.2938 7.74063 14.2874 7.74063 13.2799 7.74063C12.9149 7.74063 12.552 7.74063 12.187 7.74063L12.1891 7.73848Z" fill="url(#paint5_linear_4440_129036)"/>
<path id="Vector_7" d="M12.193 8.35577C12.7394 8.35577 13.2837 8.36225 13.8302 8.35362C14.0927 8.3493 14.2229 8.4421 14.1994 8.72268C14.1247 9.66799 13.8515 10.5507 13.4225 11.3903C13.335 11.5629 13.2047 11.591 13.0383 11.5392C12.2869 11.3061 11.5227 11.1399 10.7351 11.1097C10.5088 11.1011 10.3957 10.991 10.3445 10.7536C10.2036 10.0716 10.2015 9.37662 10.1438 8.68814C10.1225 8.43131 10.274 8.3493 10.5131 8.35362C11.0724 8.36225 11.6316 8.35577 12.193 8.35577Z" fill="url(#paint6_linear_4440_129036)"/>
<path id="Vector_8" d="M3.56068 13.378C3.49878 13.1233 3.60978 12.9809 3.66954 12.8276C4.17329 11.5003 4.58739 10.1492 4.63862 8.71401C4.64716 8.46797 4.73681 8.34926 4.99081 8.35358C5.49456 8.36221 6.00044 8.36221 6.50419 8.35358C6.73472 8.34926 6.84358 8.45717 6.84358 8.68163C6.84785 9.58809 6.85212 10.4967 6.85425 11.4032C6.85425 11.5564 6.79022 11.6773 6.6408 11.7377C5.56714 12.1564 4.55751 12.7046 3.56282 13.378H3.56068Z" fill="url(#paint7_linear_4440_129036)"/>
<path id="Vector_9" d="M4.77537 15.7347C4.77537 16.4729 4.76897 17.2088 4.77964 17.9469C4.78391 18.2901 4.68572 18.3505 4.39543 18.1671C3.70598 17.729 3.04428 17.2498 2.43594 16.7016C1.84681 16.1707 1.85321 15.3204 2.44661 14.7894C3.04641 14.2542 3.69104 13.7751 4.37195 13.3477C4.71774 13.1297 4.77324 13.1621 4.77751 13.5657C4.78391 14.2887 4.77751 15.0117 4.77751 15.7347H4.77537Z" fill="url(#paint8_linear_4440_129036)"/>
<path id="Vector_10" d="M15.493 15.739C15.493 15.0009 15.4994 14.265 15.4908 13.5268C15.4866 13.1988 15.5933 13.1535 15.858 13.3218C16.5474 13.7599 17.2155 14.2304 17.8132 14.7894C18.4215 15.3592 18.4279 16.1211 17.8281 16.6908C17.2219 17.2649 16.5432 17.7397 15.8388 18.1843C15.5933 18.3397 15.4887 18.2944 15.4908 17.9901C15.4972 17.239 15.493 16.488 15.493 15.7369V15.739Z" fill="url(#paint9_linear_4440_129036)"/>
<path id="Vector_11" d="M7.414 9.88377C7.414 9.50177 7.42254 9.1176 7.41187 8.73559C7.40333 8.46797 7.50579 8.3471 7.78114 8.35358C8.25714 8.36437 8.73527 8.36221 9.21127 8.35358C9.45034 8.34926 9.57414 8.43343 9.57627 8.69674C9.57841 9.36364 9.65738 10.0262 9.7513 10.6845C9.79186 10.9737 9.71715 11.114 9.41618 11.1204C8.86548 11.1312 8.32971 11.2435 7.80035 11.3794C7.52926 11.4485 7.40546 11.373 7.41614 11.0751C7.42894 10.678 7.4204 10.2809 7.4204 9.88377H7.41827H7.414Z" fill="url(#paint10_linear_4440_129036)"/>
</g>
</g>
<defs>
<linearGradient id="paint0_linear_4440_129036" x1="5.33691" y1="15.7485" x2="14.8894" y2="15.7485" gradientUnits="userSpaceOnUse">
<stop stop-color="#F2D71A"/>
<stop offset="1" stop-color="#ECB024"/>
</linearGradient>
<linearGradient id="paint1_linear_4440_129036" x1="7.40063" y1="4.30564" x2="11.2583" y2="4.30564" gradientUnits="userSpaceOnUse">
<stop stop-color="#F2D71A"/>
<stop offset="1" stop-color="#ECB024"/>
</linearGradient>
<linearGradient id="paint2_linear_4440_129036" x1="3.06299" y1="4.30576" x2="6.81587" y2="4.30576" gradientUnits="userSpaceOnUse">
<stop stop-color="#F2D71A"/>
<stop offset="1" stop-color="#ECB024"/>
</linearGradient>
<linearGradient id="paint3_linear_4440_129036" x1="0" y1="10.9671" x2="4.08547" y2="10.9671" gradientUnits="userSpaceOnUse">
<stop stop-color="#F2D71A"/>
<stop offset="1" stop-color="#ECB024"/>
</linearGradient>
<linearGradient id="paint4_linear_4440_129036" x1="0.00292969" y1="5.20105" x2="3.96007" y2="5.20105" gradientUnits="userSpaceOnUse">
<stop stop-color="#F2D71A"/>
<stop offset="1" stop-color="#ECB024"/>
</linearGradient>
<linearGradient id="paint5_linear_4440_129036" x1="10.2664" y1="5.24836" x2="14.2037" y2="5.24836" gradientUnits="userSpaceOnUse">
<stop stop-color="#F2D71A"/>
<stop offset="1" stop-color="#ECB024"/>
</linearGradient>
<linearGradient id="paint6_linear_4440_129036" x1="10.1418" y1="9.95799" x2="14.2021" y2="9.95799" gradientUnits="userSpaceOnUse">
<stop stop-color="#F2D71A"/>
<stop offset="1" stop-color="#ECB024"/>
</linearGradient>
<linearGradient id="paint7_linear_4440_129036" x1="3.54248" y1="10.8657" x2="6.85426" y2="10.8657" gradientUnits="userSpaceOnUse">
<stop stop-color="#F2D71A"/>
<stop offset="1" stop-color="#ECB024"/>
</linearGradient>
<linearGradient id="paint8_linear_4440_129036" x1="1.9978" y1="15.7413" x2="4.78036" y2="15.7413" gradientUnits="userSpaceOnUse">
<stop stop-color="#F2D71A"/>
<stop offset="1" stop-color="#ECB024"/>
</linearGradient>
<linearGradient id="paint9_linear_4440_129036" x1="15.4907" y1="15.7488" x2="18.2738" y2="15.7488" gradientUnits="userSpaceOnUse">
<stop stop-color="#F2D71A"/>
<stop offset="1" stop-color="#ECB024"/>
</linearGradient>
<linearGradient id="paint10_linear_4440_129036" x1="7.41138" y1="9.87827" x2="9.76147" y2="9.87827" gradientUnits="userSpaceOnUse">
<stop stop-color="#F2D71A"/>
<stop offset="1" stop-color="#ECB024"/>
</linearGradient>
</defs>
</svg>
