<svg width="53" height="53" viewBox="0 0 53 53" fill="none" xmlns="http://www.w3.org/2000/svg">
<path d="M52.4764 50.1921C52.476 48.3599 51.3865 46.7124 49.7005 45.9951L36.7688 40.4932V37.269C38.138 35.5501 39.0037 33.5029 39.2936 31.3049H41.9372C44.4529 31.3049 46.4997 29.2581 46.4997 26.7424V20.2016C46.4997 17.9014 44.788 15.9944 42.5717 15.6843C42.243 5.78899 36.7106 0.567871 26.5215 0.567871C16.3324 0.567871 10.8001 5.78899 10.4713 15.6843C8.25507 15.9944 6.54336 17.9014 6.54336 20.2016V26.7424C6.54336 29.2581 8.59012 31.3049 11.1058 31.3049H13.7494C14.0393 33.5033 14.9051 35.5505 16.2742 37.269V40.4932L3.3429 45.9951C1.65654 46.7124 0.567015 48.3599 0.566223 50.1925V50.9572C0.566223 51.3608 0.726226 51.7478 1.01178 52.0329C1.29693 52.3181 1.68387 52.4785 2.08704 52.4785H50.956C51.3596 52.4785 51.7465 52.3181 52.0317 52.0329C52.3168 51.7474 52.4768 51.3604 52.4768 50.9572L52.4764 50.1921ZM33.7288 41.5602C33.73 41.5966 33.8151 45.2878 31.6349 47.5583C30.4376 48.8047 28.7172 49.4364 26.5215 49.4364C24.3338 49.4364 22.6177 48.8091 21.4212 47.5718C19.2149 45.2894 19.3135 41.5923 19.3143 41.5602C19.3155 41.5396 19.3159 41.5194 19.3159 41.4988V39.993C21.3983 41.3107 23.8823 42.0184 26.5215 42.0184C29.1608 42.0184 31.6448 41.3107 33.7272 39.993V41.4988C33.7272 41.5194 33.7276 41.5396 33.7288 41.5602ZM36.3609 28.9702L33.4678 30.8993C32.549 31.512 31.4792 31.836 30.3743 31.836H27.8019C26.9623 31.836 26.2811 32.5168 26.2811 33.3568C26.2811 34.1968 26.9623 34.8776 27.8019 34.8776H30.3743C32.0816 34.8776 33.7351 34.377 35.1553 33.4297L35.7375 33.0415C34.3652 36.5826 30.8555 38.9767 26.5215 38.9767C20.9123 38.9767 16.6821 34.9667 16.6821 29.649V17.3196C17.2818 14.5322 18.1503 12.7606 19.1974 12.1927C20.2402 11.6264 21.7555 12.2153 23.2209 12.7844C24.3627 13.2276 25.4411 13.6466 26.5215 13.6466C27.6118 13.6466 28.6772 13.2232 29.8055 12.7753C31.2725 12.1923 32.6583 11.6418 33.6848 12.1773C34.4329 12.5674 35.4995 13.7821 36.3609 17.339V28.9702ZM43.458 20.2016V26.7424C43.458 27.5808 42.7757 28.2632 41.9372 28.2632H39.4025V18.6808H41.9372C42.7757 18.6808 43.458 19.3632 43.458 20.2016ZM16.2243 7.33517C18.3305 4.86303 21.7947 3.60953 26.5215 3.60953C31.2483 3.60953 34.7126 4.86303 36.8187 7.33517C38.477 9.28175 39.3855 12.0727 39.5261 15.6391H39.0596C38.1411 12.3773 36.8666 10.4061 35.0912 9.48017C32.8294 8.30074 30.5299 9.21403 28.6823 9.9483C27.8697 10.2711 27.0293 10.605 26.5211 10.605C26.0106 10.605 25.152 10.2715 24.3219 9.94909C22.409 9.20571 20.0279 8.28093 17.7463 9.51898C16.0259 10.4529 14.7803 12.4612 13.9554 15.6391H13.5169C13.6571 12.0727 14.5661 9.28175 16.2243 7.33517ZM9.58499 26.7424V20.2016C9.58499 19.3632 10.2674 18.6808 11.1058 18.6808H13.6405V28.2632H11.1058C10.2674 28.2632 9.58499 27.5808 9.58499 26.7424ZM4.53342 48.794L16.4485 43.7246C16.7154 45.3749 17.3784 47.6205 19.0038 49.4368H3.80905C3.97024 49.1552 4.22134 48.9267 4.53342 48.794ZM34.0393 49.4368C35.6646 47.6205 36.3276 45.3749 36.5946 43.7246L48.5096 48.794C48.8217 48.9267 49.0724 49.1552 49.234 49.4368H34.0393Z" fill="url(#paint0_linear_6033_112361)"/>
<defs>
<linearGradient id="paint0_linear_6033_112361" x1="0.566223" y1="26.5232" x2="52.4769" y2="26.5232" gradientUnits="userSpaceOnUse">
<stop stop-color="#F2D71A"/>
<stop offset="1" stop-color="#ECB024"/>
</linearGradient>
</defs>
</svg>
