<svg width="93" height="84" viewBox="0 0 93 84" fill="none" xmlns="http://www.w3.org/2000/svg">
<path d="M58.5838 6.97151L90.7841 62.7443C91.965 64.7896 92.644 67.1608 92.644 69.6922C92.644 77.3794 86.4121 83.6116 78.7246 83.6116H46.5245L35.3889 41.8058L46.5245 0.000244141C51.6805 0.000244141 56.1784 2.80579 58.5838 6.97151Z" fill="#3B4145"/>
<path d="M34.465 6.97126L2.26452 62.7441C1.08379 64.7894 0.404785 67.1606 0.404785 69.6919C0.404785 77.3791 6.63669 83.6114 14.3243 83.6114H46.5244V0C41.3683 0 36.8704 2.80555 34.465 6.97126Z" fill="#525A61"/>
<path d="M85.9627 65.528L53.7626 9.7557C52.3112 7.24092 49.6462 5.65412 46.7639 5.57251L74.304 78.0442H78.7248C83.3294 78.0442 87.0764 74.2974 87.0764 69.6926C87.0764 68.2301 86.6903 66.79 85.9627 65.528Z" fill="url(#paint0_linear_5670_104911)"/>
<path d="M80.5471 65.5279C81.1762 66.7899 81.5084 68.2301 81.5084 69.6926C81.5084 74.2972 78.2774 78.0442 74.3037 78.0442H14.3243C9.71969 78.0442 5.97266 74.2972 5.97266 69.6926C5.97266 68.2301 6.35873 66.7899 7.08619 65.5279L39.2863 9.75567C40.7785 7.17225 43.5513 5.56689 46.5244 5.56689C46.6042 5.56689 46.684 5.5687 46.7638 5.57248C49.2377 5.66904 51.5224 7.25206 52.7676 9.75567L80.5471 65.5279Z" fill="url(#paint1_linear_5670_104911)"/>
<path d="M46.5244 59.4843V68.7638C49.0875 68.7638 51.1643 66.687 51.1643 64.124C51.1643 61.5611 49.0875 59.4843 46.5244 59.4843Z" fill="#3B4145"/>
<path d="M46.5244 59.4843C47.0366 59.4843 47.4524 61.5611 47.4524 64.1241C47.4524 66.6872 47.0366 68.764 46.5244 68.764C43.9613 68.764 41.8845 66.6872 41.8845 64.1241C41.8845 61.5611 43.9613 59.4843 46.5244 59.4843Z" fill="#525A61"/>
<path d="M46.5244 19.5833V53.9178C49.0875 53.9178 51.1643 51.8392 51.1643 49.278V24.2231C51.1643 21.6601 49.0875 19.5833 46.5244 19.5833Z" fill="#3B4145"/>
<path d="M46.5244 19.5833C47.0366 19.5833 47.4524 21.6601 47.4524 24.2231V49.278C47.4524 51.839 47.0366 53.9178 46.5244 53.9178C43.9613 53.9178 41.8845 51.8392 41.8845 49.278V24.2231C41.8845 21.6601 43.9613 19.5833 46.5244 19.5833Z" fill="#525A61"/>
<defs>
<linearGradient id="paint0_linear_5670_104911" x1="46.7639" y1="41.8084" x2="87.0765" y2="41.8084" gradientUnits="userSpaceOnUse">
<stop stop-color="#F2D71A"/>
<stop offset="1" stop-color="#ECB024"/>
</linearGradient>
<linearGradient id="paint1_linear_5670_104911" x1="5.97266" y1="41.8055" x2="81.5086" y2="41.8055" gradientUnits="userSpaceOnUse">
<stop stop-color="#F2D71A"/>
<stop offset="1" stop-color="#ECB024"/>
</linearGradient>
</defs>
</svg>
