<svg width="480" height="220" viewBox="0 0 480 220" fill="none" xmlns="http://www.w3.org/2000/svg">
<rect width="480" height="220" fill="white"/>
<path d="M26.5131 56.4756C28.0391 56.4756 29.3777 56.7738 30.5292 57.3704C31.6944 57.9669 32.5892 58.82 33.2135 59.9298C33.8516 61.0257 34.1707 62.302 34.1707 63.7586C34.1707 65.2152 33.8516 66.4915 33.2135 67.5874C32.5892 68.6694 31.6944 69.5087 30.5292 70.1052C29.3777 70.7017 28.0391 71 26.5131 71H21.4358V56.4756H26.5131ZM26.4091 68.5238C27.935 68.5238 29.1142 68.1076 29.9465 67.2753C30.7789 66.4429 31.195 65.2707 31.195 63.7586C31.195 62.2465 30.7789 61.0674 29.9465 60.2211C29.1142 59.361 27.935 58.931 26.4091 58.931H24.349V68.5238H26.4091ZM47.1718 64.9863C47.1718 65.4025 47.1441 65.777 47.0886 66.11H38.6611C38.7305 66.9423 39.0218 67.5943 39.5351 68.066C40.0483 68.5376 40.6795 68.7735 41.4286 68.7735C42.5107 68.7735 43.2806 68.3088 43.7384 67.3793H46.8805C46.5476 68.4891 45.9094 69.4047 44.9661 70.126C44.0228 70.8335 42.8644 71.1873 41.4911 71.1873C40.3813 71.1873 39.3825 70.9445 38.4946 70.459C37.6207 69.9596 36.934 69.259 36.4346 68.3573C35.949 67.4556 35.7063 66.4152 35.7063 65.236C35.7063 64.043 35.949 62.9956 36.4346 62.0939C36.9201 61.1922 37.5999 60.4986 38.4738 60.0131C39.3478 59.5275 40.3535 59.2848 41.4911 59.2848C42.587 59.2848 43.565 59.5206 44.4251 59.9922C45.299 60.4639 45.9719 61.1367 46.4435 62.0107C46.9291 62.8708 47.1718 63.8626 47.1718 64.9863ZM44.1546 64.154C44.1407 63.4049 43.8702 62.8083 43.343 62.3644C42.8159 61.9066 42.1708 61.6777 41.4078 61.6777C40.6865 61.6777 40.0761 61.8997 39.5767 62.3436C39.0911 62.7737 38.7929 63.3771 38.6819 64.154H44.1546ZM52.3154 61.1575C52.69 60.6026 53.2033 60.1518 53.8553 59.805C54.5212 59.4582 55.2772 59.2848 56.1234 59.2848C57.1084 59.2848 57.9962 59.5275 58.7869 60.0131C59.5915 60.4986 60.2227 61.1922 60.6805 62.0939C61.1522 62.9817 61.388 64.0152 61.388 65.1944C61.388 66.3736 61.1522 67.4209 60.6805 68.3365C60.2227 69.2382 59.5915 69.9388 58.7869 70.4382C57.9962 70.9376 57.1084 71.1873 56.1234 71.1873C55.2633 71.1873 54.5073 71.0208 53.8553 70.6879C53.2172 70.3411 52.7039 69.8971 52.3154 69.3561V71H49.4022V55.6016H52.3154V61.1575ZM58.4124 65.1944C58.4124 64.5008 58.2667 63.9043 57.9754 63.4049C57.6979 62.8916 57.3234 62.5031 56.8517 62.2396C56.3939 61.976 55.8945 61.8442 55.3535 61.8442C54.8264 61.8442 54.3269 61.9829 53.8553 62.2604C53.3975 62.524 53.0229 62.9124 52.7316 63.4257C52.4542 63.9389 52.3154 64.5424 52.3154 65.236C52.3154 65.9296 52.4542 66.5331 52.7316 67.0464C53.0229 67.5596 53.3975 67.955 53.8553 68.2325C54.3269 68.496 54.8264 68.6278 55.3535 68.6278C55.8945 68.6278 56.3939 68.4891 56.8517 68.2116C57.3234 67.9342 57.6979 67.5388 57.9754 67.0256C58.2667 66.5123 58.4124 65.9019 58.4124 65.1944ZM65.0864 58.0987C64.5731 58.0987 64.1431 57.9391 63.7963 57.6201C63.4633 57.2871 63.2969 56.8779 63.2969 56.3924C63.2969 55.9068 63.4633 55.5045 63.7963 55.1855C64.1431 54.8525 64.5731 54.686 65.0864 54.686C65.5997 54.686 66.0228 54.8525 66.3557 55.1855C66.7025 55.5045 66.876 55.9068 66.876 56.3924C66.876 56.8779 66.7025 57.2871 66.3557 57.6201C66.0228 57.9391 65.5997 58.0987 65.0864 58.0987ZM66.5222 59.472V71H63.609V59.472H66.5222ZM72.8963 61.865V67.4417C72.8963 67.8302 72.9865 68.1145 73.1668 68.2949C73.361 68.4613 73.6801 68.5446 74.124 68.5446H75.4766V71H73.6454C71.19 71 69.9623 69.807 69.9623 67.4209V61.865H68.5889V59.472H69.9623V56.6212H72.8963V59.472H75.4766V61.865H72.8963ZM88.3924 64.9863C88.3924 65.4025 88.3646 65.777 88.3092 66.11H79.8817C79.951 66.9423 80.2423 67.5943 80.7556 68.066C81.2689 68.5376 81.9001 68.7735 82.6492 68.7735C83.7313 68.7735 84.5012 68.3088 84.959 67.3793H88.1011C87.7681 68.4891 87.13 69.4047 86.1867 70.126C85.2433 70.8335 84.085 71.1873 82.7116 71.1873C81.6018 71.1873 80.603 70.9445 79.7152 70.459C78.8412 69.9596 78.1545 69.259 77.6551 68.3573C77.1696 67.4556 76.9268 66.4152 76.9268 65.236C76.9268 64.043 77.1696 62.9956 77.6551 62.0939C78.1407 61.1922 78.8204 60.4986 79.6944 60.0131C80.5683 59.5275 81.5741 59.2848 82.7116 59.2848C83.8076 59.2848 84.7856 59.5206 85.6456 59.9922C86.5196 60.4639 87.1924 61.1367 87.6641 62.0107C88.1496 62.8708 88.3924 63.8626 88.3924 64.9863ZM85.3751 64.154C85.3613 63.4049 85.0908 62.8083 84.5636 62.3644C84.0364 61.9066 83.3914 61.6777 82.6284 61.6777C81.907 61.6777 81.2966 61.8997 80.7972 62.3436C80.3117 62.7737 80.0134 63.3771 79.9025 64.154H85.3751ZM89.8737 65.1944C89.8737 64.0291 90.1026 62.9956 90.5604 62.0939C91.032 61.1922 91.6702 60.4986 92.4748 60.0131C93.2794 59.5275 94.1741 59.2848 95.1591 59.2848C95.9082 59.2848 96.6226 59.4512 97.3024 59.7842C97.9821 60.1032 98.5231 60.5333 98.9254 61.0743V55.6016H101.88V71H98.9254V69.2937C98.5648 69.8625 98.0584 70.3203 97.4064 70.6671C96.7544 71.0139 95.9984 71.1873 95.1383 71.1873C94.1672 71.1873 93.2794 70.9376 92.4748 70.4382C91.6702 69.9388 91.032 69.2382 90.5604 68.3365C90.1026 67.4209 89.8737 66.3736 89.8737 65.1944ZM98.9463 65.236C98.9463 64.5285 98.8075 63.9251 98.5301 63.4257C98.2526 62.9124 97.8781 62.524 97.4064 62.2604C96.9348 61.9829 96.4284 61.8442 95.8874 61.8442C95.3464 61.8442 94.847 61.976 94.3892 62.2396C93.9314 62.5031 93.5568 62.8916 93.2655 63.4049C92.9881 63.9043 92.8493 64.5008 92.8493 65.1944C92.8493 65.888 92.9881 66.4984 93.2655 67.0256C93.5568 67.5388 93.9314 67.9342 94.3892 68.2116C94.8608 68.4891 95.3602 68.6278 95.8874 68.6278C96.4284 68.6278 96.9348 68.496 97.4064 68.2325C97.8781 67.955 98.2526 67.5666 98.5301 67.0672C98.8075 66.5539 98.9463 65.9435 98.9463 65.236ZM115.177 61.865H113.159V71H110.204V61.865H108.893V59.472H110.204V58.8894C110.204 57.4744 110.606 56.434 111.411 55.7681C112.216 55.1022 113.429 54.7901 115.052 54.8317V57.2871C114.345 57.2733 113.852 57.3912 113.575 57.6409C113.298 57.8906 113.159 58.3414 113.159 58.9934V59.472H115.177V61.865ZM120.082 61.2616C120.457 60.6512 120.943 60.1726 121.539 59.8258C122.149 59.479 122.843 59.3056 123.62 59.3056V62.3644H122.85C121.934 62.3644 121.241 62.5794 120.769 63.0095C120.311 63.4395 120.082 64.1886 120.082 65.2568V71H117.169V59.472H120.082V61.2616ZM130.805 71.1873C129.695 71.1873 128.696 70.9445 127.809 70.459C126.921 69.9596 126.22 69.259 125.707 68.3573C125.208 67.4556 124.958 66.4152 124.958 65.236C124.958 64.0569 125.214 63.0164 125.728 62.1147C126.255 61.213 126.969 60.5194 127.871 60.0339C128.773 59.5345 129.778 59.2848 130.888 59.2848C131.998 59.2848 133.004 59.5345 133.906 60.0339C134.807 60.5194 135.515 61.213 136.028 62.1147C136.555 63.0164 136.819 64.0569 136.819 65.236C136.819 66.4152 136.548 67.4556 136.007 68.3573C135.48 69.259 134.759 69.9596 133.843 70.459C132.941 70.9445 131.929 71.1873 130.805 71.1873ZM130.805 68.6486C131.332 68.6486 131.825 68.5238 132.282 68.2741C132.754 68.0105 133.129 67.6221 133.406 67.1088C133.684 66.5955 133.822 65.9713 133.822 65.236C133.822 64.1401 133.531 63.3008 132.948 62.7182C132.38 62.1217 131.679 61.8234 130.847 61.8234C130.014 61.8234 129.314 62.1217 128.745 62.7182C128.19 63.3008 127.913 64.1401 127.913 65.236C127.913 66.3319 128.183 67.1782 128.724 67.7747C129.279 68.3573 129.973 68.6486 130.805 68.6486ZM153.376 59.3056C154.791 59.3056 155.929 59.7425 156.789 60.6165C157.663 61.4766 158.1 62.6835 158.1 64.2372V71H155.186V64.6326C155.186 63.7309 154.958 63.0442 154.5 62.5725C154.042 62.087 153.418 61.8442 152.627 61.8442C151.836 61.8442 151.205 62.087 150.733 62.5725C150.276 63.0442 150.047 63.7309 150.047 64.6326V71H147.133V64.6326C147.133 63.7309 146.905 63.0442 146.447 62.5725C145.989 62.087 145.365 61.8442 144.574 61.8442C143.769 61.8442 143.131 62.087 142.66 62.5725C142.202 63.0442 141.973 63.7309 141.973 64.6326V71H139.06V59.472H141.973V60.8662C142.347 60.3807 142.826 59.9992 143.409 59.7217C144.005 59.4443 144.657 59.3056 145.365 59.3056C146.266 59.3056 147.071 59.4998 147.779 59.8882C148.486 60.2628 149.034 60.8038 149.422 61.5113C149.797 60.8454 150.338 60.3113 151.045 59.909C151.767 59.5067 152.544 59.3056 153.376 59.3056Z" fill="black"/>
<path d="M23.0443 150.964V159.051C23.0443 160.188 23.3194 161.032 23.8695 161.582C24.4319 162.132 25.2083 162.407 26.1986 162.407C27.1766 162.407 27.9408 162.132 28.4909 161.582C29.0533 161.032 29.3345 160.188 29.3345 159.051V150.964H31.0034V159.033C31.0034 160.097 30.7894 160.995 30.3615 161.729C29.9336 162.45 29.3529 162.988 28.6193 163.343C27.898 163.697 27.085 163.874 26.1802 163.874C25.2755 163.874 24.4564 163.697 23.7228 163.343C23.0015 162.988 22.4269 162.45 21.9989 161.729C21.5833 160.995 21.3754 160.097 21.3754 159.033V150.964H23.0443ZM41.7464 150.964V152.321H38.262V163.746H36.5932V152.321H33.0904V150.964H41.7464ZM50.6228 163.746L47.5785 158.519H45.5612V163.746H43.8924V150.964H48.0186C48.9845 150.964 49.7975 151.129 50.4577 151.459C51.1302 151.789 51.6314 152.235 51.9615 152.798C52.2916 153.36 52.4567 154.002 52.4567 154.723C52.4567 155.604 52.1999 156.38 51.6864 157.052C51.1852 157.725 50.4272 158.171 49.4124 158.391L52.6217 163.746H50.6228ZM45.5612 157.181H48.0186C48.9234 157.181 49.6019 156.961 50.0543 156.521C50.5066 156.068 50.7328 155.469 50.7328 154.723C50.7328 153.965 50.5066 153.378 50.0543 152.963C49.6141 152.547 48.9356 152.339 48.0186 152.339H45.5612V157.181ZM55.6733 163.856C55.3554 163.856 55.0864 163.746 54.8664 163.526C54.6463 163.306 54.5363 163.037 54.5363 162.719C54.5363 162.401 54.6463 162.132 54.8664 161.912C55.0864 161.692 55.3554 161.582 55.6733 161.582C55.9789 161.582 56.2357 161.692 56.4435 161.912C56.6636 162.132 56.7736 162.401 56.7736 162.719C56.7736 163.037 56.6636 163.306 56.4435 163.526C56.2357 163.746 55.9789 163.856 55.6733 163.856ZM55.6733 156.007C55.3554 156.007 55.0864 155.897 54.8664 155.677C54.6463 155.457 54.5363 155.188 54.5363 154.87C54.5363 154.552 54.6463 154.283 54.8664 154.063C55.0864 153.843 55.3554 153.733 55.6733 153.733C55.9789 153.733 56.2357 153.843 56.4435 154.063C56.6636 154.283 56.7736 154.552 56.7736 154.87C56.7736 155.188 56.6636 155.457 56.4435 155.677C56.2357 155.897 55.9789 156.007 55.6733 156.007ZM70.9697 160.188C71.092 160.885 71.3732 161.423 71.8133 161.802C72.2657 162.181 72.8709 162.371 73.6289 162.371C74.6436 162.371 75.3894 161.973 75.8662 161.179C76.3553 160.384 76.5875 159.045 76.5631 157.162C76.3064 157.713 75.8784 158.147 75.2794 158.464C74.6803 158.77 74.014 158.923 73.2804 158.923C72.4613 158.923 71.7277 158.758 71.0797 158.428C70.444 158.085 69.9427 157.59 69.576 156.942C69.2092 156.294 69.0258 155.512 69.0258 154.595C69.0258 153.287 69.4048 152.235 70.1628 151.441C70.9208 150.634 71.9967 150.23 73.3905 150.23C75.1021 150.23 76.3002 150.787 76.9849 151.899C77.6818 153.012 78.0302 154.668 78.0302 156.869C78.0302 158.409 77.8896 159.681 77.6084 160.683C77.3394 161.686 76.8749 162.45 76.2147 162.976C75.5667 163.502 74.6742 163.764 73.5372 163.764C72.2901 163.764 71.3182 163.428 70.6213 162.756C69.9244 162.083 69.527 161.228 69.4292 160.188H70.9697ZM73.5555 157.511C74.3746 157.511 75.0471 157.26 75.5728 156.759C76.0985 156.245 76.3614 155.555 76.3614 154.687C76.3614 153.77 76.1046 153.03 75.5911 152.468C75.0776 151.905 74.3563 151.624 73.4271 151.624C72.5713 151.624 71.8867 151.893 71.3732 152.431C70.8719 152.969 70.6213 153.678 70.6213 154.558C70.6213 155.451 70.8719 156.166 71.3732 156.704C71.8744 157.242 72.6019 157.511 73.5555 157.511ZM82.8879 156.851C82.2032 156.582 81.6775 156.19 81.3107 155.677C80.944 155.163 80.7606 154.54 80.7606 153.806C80.7606 153.146 80.9256 152.553 81.2557 152.027C81.5858 151.49 82.0749 151.068 82.7228 150.762C83.383 150.444 84.1777 150.285 85.1069 150.285C86.0361 150.285 86.8247 150.444 87.4726 150.762C88.1328 151.068 88.628 151.49 88.9581 152.027C89.3004 152.553 89.4716 153.146 89.4716 153.806C89.4716 154.515 89.2821 155.139 88.9031 155.677C88.5241 156.203 88.0045 156.594 87.3443 156.851C88.1023 157.083 88.7013 157.493 89.1415 158.079C89.5938 158.654 89.82 159.351 89.82 160.17C89.82 160.965 89.6244 161.662 89.2332 162.261C88.8419 162.847 88.2857 163.306 87.5643 163.636C86.8552 163.954 86.0361 164.113 85.1069 164.113C84.1777 164.113 83.3586 163.954 82.6495 163.636C81.9526 163.306 81.4085 162.847 81.0173 162.261C80.6261 161.662 80.4305 160.965 80.4305 160.17C80.4305 159.351 80.6505 158.648 81.0907 158.061C81.5308 157.474 82.1299 157.071 82.8879 156.851ZM87.8578 154.008C87.8578 153.262 87.6132 152.688 87.1242 152.284C86.6352 151.881 85.9627 151.679 85.1069 151.679C84.2633 151.679 83.597 151.881 83.108 152.284C82.6189 152.688 82.3744 153.268 82.3744 154.026C82.3744 154.711 82.625 155.261 83.1263 155.677C83.6398 156.093 84.3 156.3 85.1069 156.3C85.926 156.3 86.5862 156.093 87.0875 155.677C87.601 155.249 87.8578 154.693 87.8578 154.008ZM85.1069 157.584C84.2022 157.584 83.4625 157.798 82.8879 158.226C82.3133 158.642 82.026 159.271 82.026 160.115C82.026 160.897 82.301 161.527 82.8512 162.004C83.4136 162.481 84.1655 162.719 85.1069 162.719C86.0483 162.719 86.7941 162.481 87.3443 162.004C87.8944 161.527 88.1695 160.897 88.1695 160.115C88.1695 159.296 87.8883 158.672 87.3259 158.244C86.7635 157.804 86.0239 157.584 85.1069 157.584ZM91.7247 160.794V159.528L98.1617 150.615H100.161V159.345H101.995V160.794H100.161V163.746H98.5101V160.794H91.7247ZM98.5835 152.358L93.6503 159.345H98.5835V152.358ZM112.208 151.936H105.771V156.117C106.052 155.726 106.468 155.408 107.018 155.163C107.568 154.907 108.161 154.778 108.797 154.778C109.811 154.778 110.637 154.992 111.272 155.42C111.908 155.836 112.36 156.38 112.629 157.052C112.911 157.713 113.051 158.416 113.051 159.161C113.051 160.042 112.886 160.83 112.556 161.527C112.226 162.224 111.719 162.774 111.034 163.178C110.361 163.581 109.524 163.783 108.521 163.783C107.238 163.783 106.199 163.453 105.404 162.792C104.609 162.132 104.126 161.252 103.955 160.152H105.587C105.746 160.849 106.082 161.393 106.596 161.784C107.109 162.175 107.757 162.371 108.54 162.371C109.506 162.371 110.233 162.083 110.722 161.509C111.211 160.922 111.456 160.152 111.456 159.198C111.456 158.244 111.211 157.511 110.722 156.997C110.233 156.472 109.512 156.209 108.558 156.209C107.91 156.209 107.342 156.368 106.853 156.686C106.376 156.991 106.027 157.413 105.807 157.951H104.23V150.469H112.208V151.936ZM114.92 152.009V150.487H118.368V163.746H116.681V152.009H114.92ZM121.125 162.407C122.677 161.16 123.894 160.139 124.774 159.345C125.654 158.538 126.394 157.7 126.993 156.832C127.605 155.952 127.91 155.09 127.91 154.247C127.91 153.452 127.715 152.828 127.323 152.376C126.944 151.911 126.327 151.679 125.471 151.679C124.64 151.679 123.992 151.942 123.527 152.468C123.075 152.981 122.83 153.672 122.794 154.54H121.18C121.229 153.171 121.644 152.113 122.427 151.367C123.209 150.622 124.218 150.249 125.453 150.249C126.712 150.249 127.708 150.597 128.442 151.294C129.188 151.991 129.561 152.951 129.561 154.173C129.561 155.188 129.255 156.178 128.644 157.144C128.045 158.098 127.36 158.941 126.59 159.675C125.82 160.396 124.835 161.24 123.637 162.206H129.946V163.599H121.125V162.407ZM134.387 156.851C133.703 156.582 133.177 156.19 132.81 155.677C132.443 155.163 132.26 154.54 132.26 153.806C132.26 153.146 132.425 152.553 132.755 152.027C133.085 151.49 133.574 151.068 134.222 150.762C134.883 150.444 135.677 150.285 136.606 150.285C137.536 150.285 138.324 150.444 138.972 150.762C139.632 151.068 140.128 151.49 140.458 152.027C140.8 152.553 140.971 153.146 140.971 153.806C140.971 154.515 140.782 155.139 140.403 155.677C140.024 156.203 139.504 156.594 138.844 156.851C139.602 157.083 140.201 157.493 140.641 158.079C141.093 158.654 141.32 159.351 141.32 160.17C141.32 160.965 141.124 161.662 140.733 162.261C140.341 162.847 139.785 163.306 139.064 163.636C138.355 163.954 137.536 164.113 136.606 164.113C135.677 164.113 134.858 163.954 134.149 163.636C133.452 163.306 132.908 162.847 132.517 162.261C132.126 161.662 131.93 160.965 131.93 160.17C131.93 159.351 132.15 158.648 132.59 158.061C133.03 157.474 133.629 157.071 134.387 156.851ZM139.357 154.008C139.357 153.262 139.113 152.688 138.624 152.284C138.135 151.881 137.462 151.679 136.606 151.679C135.763 151.679 135.097 151.881 134.607 152.284C134.118 152.688 133.874 153.268 133.874 154.026C133.874 154.711 134.125 155.261 134.626 155.677C135.139 156.093 135.8 156.3 136.606 156.3C137.426 156.3 138.086 156.093 138.587 155.677C139.101 155.249 139.357 154.693 139.357 154.008ZM136.606 157.584C135.702 157.584 134.962 157.798 134.387 158.226C133.813 158.642 133.525 159.271 133.525 160.115C133.525 160.897 133.801 161.527 134.351 162.004C134.913 162.481 135.665 162.719 136.606 162.719C137.548 162.719 138.294 162.481 138.844 162.004C139.394 161.527 139.669 160.897 139.669 160.115C139.669 159.296 139.388 158.672 138.825 158.244C138.263 157.804 137.523 157.584 136.606 157.584ZM151.789 151.789L146.69 163.746H145.003L150.175 151.954H143.096V150.524H151.789V151.789ZM155.876 160.188C155.999 160.885 156.28 161.423 156.72 161.802C157.172 162.181 157.777 162.371 158.535 162.371C159.55 162.371 160.296 161.973 160.773 161.179C161.262 160.384 161.494 159.045 161.47 157.162C161.213 157.713 160.785 158.147 160.186 158.464C159.587 158.77 158.921 158.923 158.187 158.923C157.368 158.923 156.634 158.758 155.986 158.428C155.351 158.085 154.849 157.59 154.482 156.942C154.116 156.294 153.932 155.512 153.932 154.595C153.932 153.287 154.311 152.235 155.069 151.441C155.827 150.634 156.903 150.23 158.297 150.23C160.009 150.23 161.207 150.787 161.891 151.899C162.588 153.012 162.937 154.668 162.937 156.869C162.937 158.409 162.796 159.681 162.515 160.683C162.246 161.686 161.781 162.45 161.121 162.976C160.473 163.502 159.581 163.764 158.444 163.764C157.197 163.764 156.225 163.428 155.528 162.756C154.831 162.083 154.434 161.228 154.336 160.188H155.876ZM158.462 157.511C159.281 157.511 159.954 157.26 160.479 156.759C161.005 156.245 161.268 155.555 161.268 154.687C161.268 153.77 161.011 153.03 160.498 152.468C159.984 151.905 159.263 151.624 158.334 151.624C157.478 151.624 156.793 151.893 156.28 152.431C155.778 152.969 155.528 153.678 155.528 154.558C155.528 155.451 155.778 156.166 156.28 156.704C156.781 157.242 157.508 157.511 158.462 157.511ZM165.337 153.825C165.423 152.7 165.857 151.82 166.639 151.184C167.422 150.548 168.436 150.23 169.683 150.23C170.515 150.23 171.23 150.383 171.829 150.689C172.44 150.982 172.899 151.386 173.204 151.899C173.522 152.413 173.681 152.993 173.681 153.641C173.681 154.399 173.461 155.053 173.021 155.604C172.593 156.154 172.031 156.508 171.334 156.667V156.759C172.129 156.955 172.758 157.34 173.223 157.914C173.687 158.489 173.92 159.241 173.92 160.17C173.92 160.867 173.761 161.497 173.443 162.059C173.125 162.609 172.648 163.043 172.012 163.361C171.377 163.679 170.613 163.838 169.72 163.838C168.424 163.838 167.36 163.502 166.529 162.829C165.698 162.144 165.233 161.179 165.135 159.932H166.749C166.835 160.665 167.134 161.264 167.648 161.729C168.161 162.193 168.846 162.426 169.702 162.426C170.557 162.426 171.205 162.206 171.646 161.765C172.098 161.313 172.324 160.732 172.324 160.023C172.324 159.106 172.018 158.446 171.407 158.043C170.796 157.639 169.873 157.437 168.638 157.437H168.216V156.044H168.656C169.781 156.032 170.631 155.848 171.205 155.494C171.78 155.127 172.067 154.564 172.067 153.806C172.067 153.158 171.853 152.639 171.426 152.248C171.01 151.856 170.411 151.661 169.628 151.661C168.87 151.661 168.259 151.856 167.794 152.248C167.33 152.639 167.055 153.165 166.969 153.825H165.337ZM176.063 162.407C177.616 161.16 178.832 160.139 179.712 159.345C180.593 158.538 181.332 157.7 181.931 156.832C182.543 155.952 182.848 155.09 182.848 154.247C182.848 153.452 182.653 152.828 182.261 152.376C181.882 151.911 181.265 151.679 180.409 151.679C179.578 151.679 178.93 151.942 178.465 152.468C178.013 152.981 177.768 153.672 177.732 154.54H176.118C176.167 153.171 176.582 152.113 177.365 151.367C178.147 150.622 179.156 150.249 180.391 150.249C181.65 150.249 182.647 150.597 183.38 151.294C184.126 151.991 184.499 152.951 184.499 154.173C184.499 155.188 184.193 156.178 183.582 157.144C182.983 158.098 182.298 158.941 181.528 159.675C180.758 160.396 179.773 161.24 178.575 162.206H184.884V163.599H176.063V162.407ZM186.465 152.009V150.487H189.912V163.746H188.225V152.009H186.465Z" fill="#858585"/>
<rect x="61.7557" y="144.765" width="134.434" height="24.4425" stroke="#FF0808" stroke-width="2.03687"/>
<path d="M73.1429 104.426L73.918 105.826L70.9253 107.074L73.9395 108.302L73.1214 109.744L70.5162 107.849L70.8607 111.101H69.2459L69.5688 107.849L66.9636 109.766L66.1239 108.302L69.1167 107.053L66.1239 105.847L66.9206 104.404L69.5904 106.321L69.2459 103.048H70.8822L70.5162 106.321L73.1429 104.426ZM83.7215 104.426L84.4966 105.826L81.5039 107.074L84.5182 108.302L83.7 109.744L81.0948 107.849L81.4393 111.101H79.8245L80.1474 107.849L77.5422 109.766L76.7025 108.302L79.6953 107.053L76.7025 105.847L77.4992 104.404L80.169 106.321L79.8245 103.048H81.4608L81.0948 106.321L83.7215 104.426ZM94.3001 104.426L95.0752 105.826L92.0825 107.074L95.0968 108.302L94.2786 109.744L91.6734 107.849L92.0179 111.101H90.4031L90.726 107.849L88.1208 109.766L87.2811 108.302L90.2739 107.053L87.2811 105.847L88.0778 104.404L90.7476 106.321L90.4031 103.048H92.0394L91.6734 106.321L94.3001 104.426ZM104.879 104.426L105.654 105.826L102.661 107.074L105.675 108.302L104.857 109.744L102.252 107.849L102.597 111.101H100.982L101.305 107.849L98.6995 109.766L97.8598 108.302L100.853 107.053L97.8598 105.847L98.6564 104.404L101.326 106.321L100.982 103.048H102.618L102.252 106.321L104.879 104.426ZM115.457 104.426L116.232 105.826L113.24 107.074L116.254 108.302L115.436 109.744L112.831 107.849L113.175 111.101H111.56L111.883 107.849L109.278 109.766L108.438 108.302L111.431 107.053L108.438 105.847L109.235 104.404L111.905 106.321L111.56 103.048H113.197L112.831 106.321L115.457 104.426ZM126.036 104.426L126.811 105.826L123.818 107.074L126.833 108.302L126.014 109.744L123.409 107.849L123.754 111.101H122.139L122.462 107.849L119.857 109.766L119.017 108.302L122.01 107.053L119.017 105.847L119.814 104.404L122.483 106.321L122.139 103.048H123.775L123.409 106.321L126.036 104.426ZM129.617 110.907C129.617 108.438 130.019 106.515 130.823 105.137C131.627 103.744 133.033 103.048 135.043 103.048C137.038 103.048 138.438 103.744 139.241 105.137C140.045 106.515 140.447 108.438 140.447 110.907C140.447 113.419 140.045 115.371 139.241 116.763C138.438 118.155 137.038 118.852 135.043 118.852C133.033 118.852 131.627 118.155 130.823 116.763C130.019 115.371 129.617 113.419 129.617 110.907ZM138.509 110.907C138.509 109.658 138.423 108.603 138.251 107.742C138.093 106.866 137.756 106.163 137.239 105.632C136.737 105.101 136.005 104.835 135.043 104.835C134.067 104.835 133.32 105.101 132.804 105.632C132.301 106.163 131.964 106.866 131.792 107.742C131.634 108.603 131.555 109.658 131.555 110.907C131.555 112.199 131.634 113.282 131.792 114.158C131.964 115.033 132.301 115.737 132.804 116.268C133.32 116.799 134.067 117.065 135.043 117.065C136.005 117.065 136.737 116.799 137.239 116.268C137.756 115.737 138.093 115.033 138.251 114.158C138.423 113.282 138.509 112.199 138.509 110.907ZM142.771 115.385V113.9L150.328 103.436H152.675V113.684H154.828V115.385H152.675V118.852H150.737V115.385H142.771ZM150.823 105.481L145.032 113.684H150.823V105.481ZM166.819 104.986H159.261V109.895C159.591 109.435 160.079 109.062 160.725 108.775C161.371 108.474 162.067 108.323 162.814 108.323C164.005 108.323 164.974 108.574 165.72 109.077C166.467 109.565 166.998 110.203 167.314 110.993C167.644 111.768 167.809 112.593 167.809 113.469C167.809 114.502 167.615 115.428 167.228 116.246C166.84 117.065 166.244 117.71 165.441 118.184C164.651 118.658 163.668 118.895 162.491 118.895C160.984 118.895 159.764 118.507 158.831 117.732C157.898 116.957 157.331 115.923 157.13 114.632H159.046C159.233 115.45 159.627 116.088 160.23 116.548C160.833 117.007 161.594 117.237 162.512 117.237C163.646 117.237 164.5 116.899 165.075 116.225C165.649 115.536 165.936 114.632 165.936 113.512C165.936 112.392 165.649 111.531 165.075 110.928C164.5 110.311 163.654 110.002 162.534 110.002C161.773 110.002 161.106 110.189 160.532 110.562C159.972 110.921 159.563 111.416 159.304 112.048H157.453V103.263H166.819V104.986ZM170.004 105.072V103.285H174.051V118.852H172.071V105.072H170.004Z" fill="black"/>
<path d="M311.488 118.852L307.419 111.746V110.799H307.892C308.653 110.799 309.292 110.727 309.809 110.584C310.34 110.44 310.756 110.203 311.057 109.873C311.359 109.543 311.538 109.091 311.596 108.517H307.419V107.139H311.574C311.474 106.608 311.273 106.177 310.971 105.847C310.67 105.503 310.261 105.251 309.744 105.093C309.242 104.936 308.624 104.857 307.892 104.857H307.419V103.479H316.332V104.857H312.263C312.593 105.129 312.866 105.452 313.081 105.826C313.297 106.199 313.433 106.637 313.49 107.139H316.332V108.517H313.533C313.433 109.565 313.031 110.383 312.328 110.971C311.639 111.545 310.72 111.912 309.572 112.069L313.684 118.852H311.488ZM329.407 104.986H321.85V109.895C322.18 109.435 322.668 109.062 323.314 108.775C323.96 108.474 324.656 108.323 325.403 108.323C326.594 108.323 327.563 108.574 328.309 109.077C329.056 109.565 329.587 110.203 329.902 110.993C330.233 111.768 330.398 112.593 330.398 113.469C330.398 114.502 330.204 115.428 329.816 116.246C329.429 117.065 328.833 117.71 328.029 118.184C327.24 118.658 326.257 118.895 325.08 118.895C323.572 118.895 322.352 118.507 321.419 117.732C320.486 116.957 319.919 115.923 319.718 114.632H321.635C321.821 115.45 322.216 116.088 322.819 116.548C323.422 117.007 324.182 117.237 325.101 117.237C326.235 117.237 327.089 116.899 327.663 116.225C328.237 115.536 328.524 114.632 328.524 113.512C328.524 112.392 328.237 111.531 327.663 110.928C327.089 110.311 326.242 110.002 325.123 110.002C324.362 110.002 323.694 110.189 323.12 110.562C322.56 110.921 322.151 111.416 321.893 112.048H320.041V103.263H329.407V104.986ZM333.109 110.907C333.109 108.438 333.511 106.515 334.315 105.137C335.118 103.744 336.525 103.048 338.535 103.048C340.53 103.048 341.929 103.744 342.733 105.137C343.537 106.515 343.939 108.438 343.939 110.907C343.939 113.419 343.537 115.371 342.733 116.763C341.929 118.155 340.53 118.852 338.535 118.852C336.525 118.852 335.118 118.155 334.315 116.763C333.511 115.371 333.109 113.419 333.109 110.907ZM342.001 110.907C342.001 109.658 341.915 108.603 341.743 107.742C341.585 106.866 341.248 106.163 340.731 105.632C340.228 105.101 339.496 104.835 338.535 104.835C337.559 104.835 336.812 105.101 336.295 105.632C335.793 106.163 335.456 106.866 335.284 107.742C335.126 108.603 335.047 109.658 335.047 110.907C335.047 112.199 335.126 113.282 335.284 114.158C335.456 115.033 335.793 115.737 336.295 116.268C336.812 116.799 337.559 117.065 338.535 117.065C339.496 117.065 340.228 116.799 340.731 116.268C341.248 115.737 341.585 115.033 341.743 114.158C341.915 113.282 342.001 112.199 342.001 110.907ZM346.736 110.907C346.736 108.438 347.138 106.515 347.942 105.137C348.746 103.744 350.153 103.048 352.162 103.048C354.157 103.048 355.557 103.744 356.361 105.137C357.164 106.515 357.566 108.438 357.566 110.907C357.566 113.419 357.164 115.371 356.361 116.763C355.557 118.155 354.157 118.852 352.162 118.852C350.153 118.852 348.746 118.155 347.942 116.763C347.138 115.371 346.736 113.419 346.736 110.907ZM355.629 110.907C355.629 109.658 355.542 108.603 355.37 107.742C355.212 106.866 354.875 106.163 354.358 105.632C353.856 105.101 353.124 104.835 352.162 104.835C351.186 104.835 350.44 105.101 349.923 105.632C349.421 106.163 349.083 106.866 348.911 107.742C348.753 108.603 348.674 109.658 348.674 110.907C348.674 112.199 348.753 113.282 348.911 114.158C349.083 115.033 349.421 115.737 349.923 116.268C350.44 116.799 351.186 117.065 352.162 117.065C353.124 117.065 353.856 116.799 354.358 116.268C354.875 115.737 355.212 115.033 355.37 114.158C355.542 113.282 355.629 112.199 355.629 110.907ZM360.364 110.907C360.364 108.438 360.766 106.515 361.569 105.137C362.373 103.744 363.78 103.048 365.789 103.048C367.785 103.048 369.184 103.744 369.988 105.137C370.792 106.515 371.194 108.438 371.194 110.907C371.194 113.419 370.792 115.371 369.988 116.763C369.184 118.155 367.785 118.852 365.789 118.852C363.78 118.852 362.373 118.155 361.569 116.763C360.766 115.371 360.364 113.419 360.364 110.907ZM369.256 110.907C369.256 109.658 369.17 108.603 368.998 107.742C368.84 106.866 368.502 106.163 367.986 105.632C367.483 105.101 366.751 104.835 365.789 104.835C364.813 104.835 364.067 105.101 363.55 105.632C363.048 106.163 362.711 106.866 362.538 107.742C362.38 108.603 362.301 109.658 362.301 110.907C362.301 112.199 362.38 113.282 362.538 114.158C362.711 115.033 363.048 115.737 363.55 116.268C364.067 116.799 364.813 117.065 365.789 117.065C366.751 117.065 367.483 116.799 367.986 116.268C368.502 115.737 368.84 115.033 368.998 114.158C369.17 113.282 369.256 112.199 369.256 110.907Z" fill="black"/>
<path fill-rule="evenodd" clip-rule="evenodd" d="M36.567 127.449C36.4765 127.451 36.3858 127.451 36.295 127.451C36.2041 127.451 36.1135 127.451 36.023 127.449H36.567ZM37.9219 127.371C46.1575 126.555 52.59 119.607 52.59 111.156C52.59 102.157 45.2944 94.8613 36.295 94.8613C27.2955 94.8613 20 102.157 20 111.156C20 119.605 26.4297 126.552 34.6629 127.371V113.979C33.6883 113.415 33.0326 112.362 33.0326 111.155C33.0326 109.355 34.4917 107.896 36.2916 107.896C38.0915 107.896 39.5506 109.355 39.5506 111.155C39.5506 112.361 38.8955 113.414 37.9219 113.978V127.371Z" fill="#2A6AD5"/>
</svg>
