<svg width="480" height="220" viewBox="0 0 480 220" fill="none" xmlns="http://www.w3.org/2000/svg">
<g clip-path="url(#clip0_5244_105348)">
<rect width="480" height="220" fill="#F7F5F7"/>
<mask id="path-1-outside-1_5244_105348" maskUnits="userSpaceOnUse" x="-62.4658" y="126" width="605" height="102" fill="black">
<rect fill="white" x="-62.4658" y="126" width="605" height="102"/>
<path fill-rule="evenodd" clip-rule="evenodd" d="M240.259 176.315C267.495 176.315 289.574 154.236 289.574 127H541.982V227H-61.4658V127H190.943C190.943 154.236 213.023 176.315 240.259 176.315Z"/>
</mask>
<path fill-rule="evenodd" clip-rule="evenodd" d="M240.259 176.315C267.495 176.315 289.574 154.236 289.574 127H541.982V227H-61.4658V127H190.943C190.943 154.236 213.023 176.315 240.259 176.315Z" fill="white"/>
<path d="M289.574 127V126.75H289.324V127H289.574ZM541.982 127H542.232V126.75H541.982V127ZM541.982 227V227.25H542.232V227H541.982ZM-61.4658 227H-61.7158V227.25H-61.4658V227ZM-61.4658 127V126.75H-61.7158V127H-61.4658ZM190.943 127H191.193V126.75H190.943V127ZM289.324 127C289.324 127.808 289.304 128.611 289.266 129.409L289.765 129.433C289.804 128.627 289.824 127.816 289.824 127H289.324ZM288.799 134.202C288.563 135.803 288.25 137.379 287.864 138.926L288.349 139.047C288.739 137.485 289.056 135.893 289.293 134.275L288.799 134.202ZM286.468 143.535C285.924 145.053 285.308 146.537 284.623 147.983L285.075 148.197C285.767 146.737 286.39 145.237 286.939 143.703L286.468 143.535ZM282.35 152.228C281.521 153.607 280.627 154.942 279.671 156.229L280.072 156.527C281.038 155.227 281.942 153.878 282.779 152.485L282.35 152.228ZM276.614 159.95C275.535 161.14 274.398 162.276 273.209 163.355L273.544 163.726C274.746 162.636 275.894 161.488 276.984 160.286L276.614 159.95ZM269.488 166.412C268.201 167.368 266.865 168.263 265.486 169.091L265.744 169.52C267.137 168.683 268.486 167.78 269.786 166.814L269.488 166.412ZM261.241 171.365C259.796 172.05 258.312 172.666 256.793 173.209L256.962 173.68C258.496 173.131 259.995 172.509 261.455 171.817L261.241 171.365ZM252.185 174.606C250.638 174.992 249.062 175.305 247.461 175.54L247.534 176.035C249.151 175.797 250.743 175.481 252.306 175.091L252.185 174.606ZM242.667 176.007C241.869 176.046 241.066 176.065 240.259 176.065V176.565C241.074 176.565 241.885 176.545 242.691 176.506L242.667 176.007ZM240.259 176.065C239.451 176.065 238.648 176.046 237.85 176.007L237.826 176.506C238.632 176.545 239.443 176.565 240.259 176.565V176.065ZM233.056 175.54C231.455 175.305 229.879 174.992 228.332 174.606L228.211 175.091C229.774 175.481 231.366 175.797 232.983 176.035L233.056 175.54ZM223.724 173.209C222.205 172.666 220.721 172.05 219.276 171.365L219.062 171.817C220.522 172.509 222.021 173.131 223.555 173.68L223.724 173.209ZM215.031 169.091C213.652 168.263 212.316 167.368 211.029 166.412L210.731 166.814C212.031 167.78 213.38 168.683 214.774 169.52L215.031 169.091ZM207.308 163.355C206.119 162.276 204.982 161.14 203.903 159.95L203.533 160.286C204.623 161.488 205.771 162.636 206.973 163.726L207.308 163.355ZM200.846 156.229C199.89 154.942 198.996 153.607 198.167 152.228L197.739 152.485C198.576 153.878 199.479 155.227 200.445 156.527L200.846 156.229ZM195.894 147.983C195.209 146.537 194.593 145.053 194.049 143.535L193.578 143.703C194.127 145.237 194.75 146.737 195.442 148.197L195.894 147.983ZM192.653 138.926C192.267 137.379 191.954 135.803 191.718 134.202L191.224 134.275C191.462 135.893 191.778 137.485 192.168 139.047L192.653 138.926ZM191.252 129.409C191.213 128.611 191.193 127.808 191.193 127H190.693C190.693 127.816 190.713 128.627 190.752 129.433L191.252 129.409ZM190.943 126.75H188.419V127.25H190.943V126.75ZM183.371 126.75H178.323V127.25H183.371V126.75ZM173.275 126.75H168.227V127.25H173.275V126.75ZM163.178 126.75H158.13V127.25H163.178V126.75ZM153.082 126.75H148.034V127.25H153.082V126.75ZM142.986 126.75H137.938V127.25H142.986V126.75ZM132.889 126.75H127.841V127.25H132.889V126.75ZM122.793 126.75H117.745V127.25H122.793V126.75ZM112.697 126.75H107.648V127.25H112.697V126.75ZM102.6 126.75H97.552V127.25H102.6V126.75ZM92.5038 126.75H87.4557V127.25H92.5038V126.75ZM82.4075 126.75H77.3593V127.25H82.4075V126.75ZM72.3111 126.75H67.2629V127.25H72.3111V126.75ZM62.2147 126.75H57.1665V127.25H62.2147V126.75ZM52.1183 126.75H47.0702V127.25H52.1183V126.75ZM42.022 126.75H36.9738V127.25H42.022V126.75ZM31.9256 126.75H26.8774V127.25H31.9256V126.75ZM21.8292 126.75H16.781V127.25H21.8292V126.75ZM11.7329 126.75H6.68466V127.25H11.7329V126.75ZM1.63648 126.75H-3.41171V127.25H1.63648V126.75ZM-8.4599 126.75H-13.5081V127.25H-8.4599V126.75ZM-18.5563 126.75H-23.6045V127.25H-18.5563V126.75ZM-28.6526 126.75H-33.7008V127.25H-28.6526V126.75ZM-38.749 126.75H-43.7972V127.25H-38.749V126.75ZM-48.8454 126.75H-53.8936V127.25H-48.8454V126.75ZM-58.9418 126.75H-61.4658V127.25H-58.9418V126.75ZM-61.7158 127V129.5H-61.2158V127H-61.7158ZM-61.7158 134.5V139.5H-61.2158V134.5H-61.7158ZM-61.7158 144.5V149.5H-61.2158V144.5H-61.7158ZM-61.7158 154.5V159.5H-61.2158V154.5H-61.7158ZM-61.7158 164.5V169.5H-61.2158V164.5H-61.7158ZM-61.7158 174.5V179.5H-61.2158V174.5H-61.7158ZM-61.7158 184.5V189.5H-61.2158V184.5H-61.7158ZM-61.7158 194.5V199.5H-61.2158V194.5H-61.7158ZM-61.7158 204.5V209.5H-61.2158V204.5H-61.7158ZM-61.7158 214.5V219.5H-61.2158V214.5H-61.7158ZM-61.7158 224.5V227H-61.2158V224.5H-61.7158ZM-61.4658 227.25H-58.9515V226.75H-61.4658V227.25ZM-53.9227 227.25H-48.894V226.75H-53.9227V227.25ZM-43.8652 227.25H-38.8365V226.75H-43.8652V227.25ZM-33.8078 227.25H-28.779V226.75H-33.8078V227.25ZM-23.7503 227.25H-18.7216V226.75H-23.7503V227.25ZM-13.6928 227.25H-8.66409V226.75H-13.6928V227.25ZM-3.63536 227.25H1.39338V226.75H-3.63536V227.25ZM6.42211 227.25H11.4508V226.75H6.42211V227.25ZM16.4796 227.25H21.5083V226.75H16.4796V227.25ZM26.537 227.25H31.5658V226.75H26.537V227.25ZM36.5945 227.25H41.6232V226.75H36.5945V227.25ZM46.652 227.25H51.6807V226.75H46.652V227.25ZM56.7094 227.25H61.7382V226.75H56.7094V227.25ZM66.7669 227.25H71.7956V226.75H66.7669V227.25ZM76.8244 227.25H81.8531V226.75H76.8244V227.25ZM86.8818 227.25H91.9106V226.75H86.8818V227.25ZM96.9393 227.25H101.968V226.75H96.9393V227.25ZM106.997 227.25H112.025V226.75H106.997V227.25ZM117.054 227.25H122.083V226.75H117.054V227.25ZM127.112 227.25H132.14V226.75H127.112V227.25ZM137.169 227.25H142.198V226.75H137.169V227.25ZM147.227 227.25H152.255V226.75H147.227V227.25ZM157.284 227.25H162.313V226.75H157.284V227.25ZM167.342 227.25H172.37V226.75H167.342V227.25ZM177.399 227.25H182.428V226.75H177.399V227.25ZM187.456 227.25H192.485V226.75H187.456V227.25ZM197.514 227.25H202.543V226.75H197.514V227.25ZM207.571 227.25H212.6V226.75H207.571V227.25ZM217.629 227.25H222.658V226.75H217.629V227.25ZM227.686 227.25H232.715V226.75H227.686V227.25ZM237.744 227.25H242.773V226.75H237.744V227.25ZM247.801 227.25H252.83V226.75H247.801V227.25ZM257.859 227.25H262.888V226.75H257.859V227.25ZM267.916 227.25H272.945V226.75H267.916V227.25ZM277.974 227.25H283.003V226.75H277.974V227.25ZM288.031 227.25H293.06V226.75H288.031V227.25ZM298.089 227.25H303.118V226.75H298.089V227.25ZM308.146 227.25H313.175V226.75H308.146V227.25ZM318.204 227.25H323.233V226.75H318.204V227.25ZM328.261 227.25H333.29V226.75H328.261V227.25ZM338.319 227.25H343.348V226.75H338.319V227.25ZM348.376 227.25H353.405V226.75H348.376V227.25ZM358.434 227.25H363.463V226.75H358.434V227.25ZM368.491 227.25H373.52V226.75H368.491V227.25ZM378.549 227.25H383.578V226.75H378.549V227.25ZM388.606 227.25H393.635V226.75H388.606V227.25ZM398.664 227.25H403.693V226.75H398.664V227.25ZM408.721 227.25H413.75V226.75H408.721V227.25ZM418.779 227.25H423.808V226.75H418.779V227.25ZM428.836 227.25H433.865V226.75H428.836V227.25ZM438.894 227.25H443.923V226.75H438.894V227.25ZM448.951 227.25H453.98V226.75H448.951V227.25ZM459.009 227.25H464.038V226.75H459.009V227.25ZM469.066 227.25H474.095V226.75H469.066V227.25ZM479.124 227.25H484.153V226.75H479.124V227.25ZM489.181 227.25H494.21V226.75H489.181V227.25ZM499.239 227.25H504.268V226.75H499.239V227.25ZM509.296 227.25H514.325V226.75H509.296V227.25ZM519.354 227.25H524.383V226.75H519.354V227.25ZM529.411 227.25H534.44V226.75H529.411V227.25ZM539.469 227.25H541.982V226.75H539.469V227.25ZM542.232 227V224.5H541.732V227H542.232ZM542.232 219.5V214.5H541.732V219.5H542.232ZM542.232 209.5V204.5H541.732V209.5H542.232ZM542.232 199.5V194.5H541.732V199.5H542.232ZM542.232 189.5V184.5H541.732V189.5H542.232ZM542.232 179.5V174.5H541.732V179.5H542.232ZM542.232 169.5V164.5H541.732V169.5H542.232ZM542.232 159.5V154.5H541.732V159.5H542.232ZM542.232 149.5V144.5H541.732V149.5H542.232ZM542.232 139.5V134.5H541.732V139.5H542.232ZM542.232 129.5V127H541.732V129.5H542.232ZM541.982 126.75H539.458V127.25H541.982V126.75ZM534.41 126.75H529.362V127.25H534.41V126.75ZM524.314 126.75H519.266V127.25H524.314V126.75ZM514.218 126.75H509.169V127.25H514.218V126.75ZM504.121 126.75H499.073V127.25H504.121V126.75ZM494.025 126.75H488.977V127.25H494.025V126.75ZM483.928 126.75H478.88V127.25H483.928V126.75ZM473.832 126.75H468.784V127.25H473.832V126.75ZM463.736 126.75H458.688V127.25H463.736V126.75ZM453.639 126.75H448.591V127.25H453.639V126.75ZM443.543 126.75H438.495V127.25H443.543V126.75ZM433.447 126.75H428.398V127.25H433.447V126.75ZM423.35 126.75H418.302V127.25H423.35V126.75ZM413.254 126.75H408.206V127.25H413.254V126.75ZM403.158 126.75H398.109V127.25H403.158V126.75ZM393.061 126.75H388.013V127.25H393.061V126.75ZM382.965 126.75H377.917V127.25H382.965V126.75ZM372.869 126.75H367.82V127.25H372.869V126.75ZM362.772 126.75H357.724V127.25H362.772V126.75ZM352.676 126.75H347.628V127.25H352.676V126.75ZM342.58 126.75H337.531V127.25H342.58V126.75ZM332.483 126.75H327.435V127.25H332.483V126.75ZM322.387 126.75H317.339V127.25H322.387V126.75ZM312.29 126.75H307.242V127.25H312.29V126.75ZM302.194 126.75H297.146V127.25H302.194V126.75ZM292.098 126.75H289.574V127.25H292.098V126.75ZM289.574 127V126.5H289.074V127H289.574ZM541.982 127H542.482V126.5H541.982V127ZM541.982 227V227.5H542.482V227H541.982ZM-61.4658 227H-61.9658V227.5H-61.4658V227ZM-61.4658 127V126.5H-61.9658V127H-61.4658ZM190.943 127H191.443V126.5H190.943V127ZM289.074 127C289.074 127.804 289.054 128.603 289.016 129.397L290.015 129.445C290.054 128.635 290.074 127.82 290.074 127H289.074ZM288.551 134.166C288.317 135.759 288.006 137.327 287.622 138.866L288.592 139.108C288.984 137.537 289.302 135.937 289.541 134.311L288.551 134.166ZM286.233 143.45C285.692 144.961 285.079 146.438 284.398 147.876L285.301 148.304C285.997 146.836 286.622 145.329 287.174 143.787L286.233 143.45ZM282.136 152.099C281.311 153.471 280.421 154.8 279.47 156.08L280.273 156.676C281.244 155.37 282.152 154.014 282.993 152.614L282.136 152.099ZM276.429 159.782C275.355 160.966 274.224 162.097 273.041 163.17L273.712 163.911C274.92 162.816 276.074 161.662 277.169 160.454L276.429 159.782ZM269.339 166.212C268.058 167.163 266.73 168.053 265.357 168.877L265.872 169.734C267.273 168.893 268.628 167.985 269.935 167.015L269.339 166.212ZM261.134 171.139C259.696 171.82 258.22 172.433 256.709 172.974L257.046 173.915C258.588 173.364 260.095 172.738 261.562 172.043L261.134 171.139ZM252.124 174.363C250.585 174.747 249.017 175.059 247.425 175.293L247.57 176.282C249.196 176.043 250.796 175.725 252.367 175.333L252.124 174.363ZM242.655 175.757C241.861 175.796 241.062 175.815 240.259 175.815V176.815C241.078 176.815 241.893 176.795 242.703 176.756L242.655 175.757ZM240.259 175.815C239.455 175.815 238.656 175.796 237.862 175.757L237.814 176.756C238.624 176.795 239.439 176.815 240.259 176.815V175.815ZM233.093 175.293C231.5 175.059 229.932 174.747 228.393 174.363L228.151 175.333C229.721 175.725 231.321 176.043 232.947 176.282L233.093 175.293ZM223.808 172.974C222.297 172.433 220.821 171.82 219.383 171.139L218.955 172.043C220.422 172.738 221.929 173.364 223.471 173.915L223.808 172.974ZM215.16 168.877C213.787 168.053 212.459 167.163 211.178 166.212L210.582 167.015C211.889 167.985 213.244 168.893 214.645 169.734L215.16 168.877ZM207.476 163.17C206.293 162.097 205.162 160.966 204.088 159.782L203.348 160.454C204.443 161.662 205.597 162.816 206.805 163.911L207.476 163.17ZM201.047 156.08C200.096 154.8 199.206 153.471 198.381 152.099L197.524 152.614C198.365 154.014 199.274 155.37 200.244 156.676L201.047 156.08ZM196.12 147.876C195.438 146.438 194.825 144.961 194.285 143.45L193.343 143.787C193.895 145.329 194.521 146.836 195.216 148.304L196.12 147.876ZM192.896 138.866C192.511 137.327 192.2 135.759 191.966 134.166L190.976 134.311C191.215 135.937 191.533 137.537 191.925 139.108L192.896 138.866ZM191.501 129.397C191.463 128.603 191.443 127.804 191.443 127H190.443C190.443 127.82 190.463 128.635 190.502 129.445L191.501 129.397ZM190.943 126.5H188.419V127.5H190.943V126.5ZM183.371 126.5H178.323V127.5H183.371V126.5ZM173.275 126.5H168.227V127.5H173.275V126.5ZM163.178 126.5H158.13V127.5H163.178V126.5ZM153.082 126.5H148.034V127.5H153.082V126.5ZM142.986 126.5H137.938V127.5H142.986V126.5ZM132.889 126.5H127.841V127.5H132.889V126.5ZM122.793 126.5H117.745V127.5H122.793V126.5ZM112.697 126.5H107.648V127.5H112.697V126.5ZM102.6 126.5H97.552V127.5H102.6V126.5ZM92.5038 126.5H87.4557V127.5H92.5038V126.5ZM82.4075 126.5H77.3593V127.5H82.4075V126.5ZM72.3111 126.5H67.2629V127.5H72.3111V126.5ZM62.2147 126.5H57.1665V127.5H62.2147V126.5ZM52.1183 126.5H47.0702V127.5H52.1183V126.5ZM42.022 126.5H36.9738V127.5H42.022V126.5ZM31.9256 126.5H26.8774V127.5H31.9256V126.5ZM21.8292 126.5H16.781V127.5H21.8292V126.5ZM11.7329 126.5H6.68466V127.5H11.7329V126.5ZM1.63648 126.5H-3.41171V127.5H1.63648V126.5ZM-8.4599 126.5H-13.5081V127.5H-8.4599V126.5ZM-18.5563 126.5H-23.6045V127.5H-18.5563V126.5ZM-28.6526 126.5H-33.7008V127.5H-28.6526V126.5ZM-38.749 126.5H-43.7972V127.5H-38.749V126.5ZM-48.8454 126.5H-53.8936V127.5H-48.8454V126.5ZM-58.9418 126.5H-61.4658V127.5H-58.9418V126.5ZM-61.9658 127V129.5H-60.9658V127H-61.9658ZM-61.9658 134.5V139.5H-60.9658V134.5H-61.9658ZM-61.9658 144.5V149.5H-60.9658V144.5H-61.9658ZM-61.9658 154.5V159.5H-60.9658V154.5H-61.9658ZM-61.9658 164.5V169.5H-60.9658V164.5H-61.9658ZM-61.9658 174.5V179.5H-60.9658V174.5H-61.9658ZM-61.9658 184.5V189.5H-60.9658V184.5H-61.9658ZM-61.9658 194.5V199.5H-60.9658V194.5H-61.9658ZM-61.9658 204.5V209.5H-60.9658V204.5H-61.9658ZM-61.9658 214.5V219.5H-60.9658V214.5H-61.9658ZM-61.9658 224.5V227H-60.9658V224.5H-61.9658ZM-61.4658 227.5H-58.9515V226.5H-61.4658V227.5ZM-53.9227 227.5H-48.894V226.5H-53.9227V227.5ZM-43.8652 227.5H-38.8365V226.5H-43.8652V227.5ZM-33.8078 227.5H-28.779V226.5H-33.8078V227.5ZM-23.7503 227.5H-18.7216V226.5H-23.7503V227.5ZM-13.6928 227.5H-8.66409V226.5H-13.6928V227.5ZM-3.63536 227.5H1.39338V226.5H-3.63536V227.5ZM6.42211 227.5H11.4508V226.5H6.42211V227.5ZM16.4796 227.5H21.5083V226.5H16.4796V227.5ZM26.537 227.5H31.5658V226.5H26.537V227.5ZM36.5945 227.5H41.6232V226.5H36.5945V227.5ZM46.652 227.5H51.6807V226.5H46.652V227.5ZM56.7094 227.5H61.7382V226.5H56.7094V227.5ZM66.7669 227.5H71.7956V226.5H66.7669V227.5ZM76.8244 227.5H81.8531V226.5H76.8244V227.5ZM86.8818 227.5H91.9106V226.5H86.8818V227.5ZM96.9393 227.5H101.968V226.5H96.9393V227.5ZM106.997 227.5H112.025V226.5H106.997V227.5ZM117.054 227.5H122.083V226.5H117.054V227.5ZM127.112 227.5H132.14V226.5H127.112V227.5ZM137.169 227.5H142.198V226.5H137.169V227.5ZM147.227 227.5H152.255V226.5H147.227V227.5ZM157.284 227.5H162.313V226.5H157.284V227.5ZM167.342 227.5H172.37V226.5H167.342V227.5ZM177.399 227.5H182.428V226.5H177.399V227.5ZM187.456 227.5H192.485V226.5H187.456V227.5ZM197.514 227.5H202.543V226.5H197.514V227.5ZM207.571 227.5H212.6V226.5H207.571V227.5ZM217.629 227.5H222.658V226.5H217.629V227.5ZM227.686 227.5H232.715V226.5H227.686V227.5ZM237.744 227.5H242.773V226.5H237.744V227.5ZM247.801 227.5H252.83V226.5H247.801V227.5ZM257.859 227.5H262.888V226.5H257.859V227.5ZM267.916 227.5H272.945V226.5H267.916V227.5ZM277.974 227.5H283.003V226.5H277.974V227.5ZM288.031 227.5H293.06V226.5H288.031V227.5ZM298.089 227.5H303.118V226.5H298.089V227.5ZM308.146 227.5H313.175V226.5H308.146V227.5ZM318.204 227.5H323.233V226.5H318.204V227.5ZM328.261 227.5H333.29V226.5H328.261V227.5ZM338.319 227.5H343.348V226.5H338.319V227.5ZM348.376 227.5H353.405V226.5H348.376V227.5ZM358.434 227.5H363.463V226.5H358.434V227.5ZM368.491 227.5H373.52V226.5H368.491V227.5ZM378.549 227.5H383.578V226.5H378.549V227.5ZM388.606 227.5H393.635V226.5H388.606V227.5ZM398.664 227.5H403.693V226.5H398.664V227.5ZM408.721 227.5H413.75V226.5H408.721V227.5ZM418.779 227.5H423.808V226.5H418.779V227.5ZM428.836 227.5H433.865V226.5H428.836V227.5ZM438.894 227.5H443.923V226.5H438.894V227.5ZM448.951 227.5H453.98V226.5H448.951V227.5ZM459.009 227.5H464.038V226.5H459.009V227.5ZM469.066 227.5H474.095V226.5H469.066V227.5ZM479.124 227.5H484.153V226.5H479.124V227.5ZM489.181 227.5H494.21V226.5H489.181V227.5ZM499.239 227.5H504.268V226.5H499.239V227.5ZM509.296 227.5H514.325V226.5H509.296V227.5ZM519.354 227.5H524.383V226.5H519.354V227.5ZM529.411 227.5H534.44V226.5H529.411V227.5ZM539.469 227.5H541.982V226.5H539.469V227.5ZM542.482 227V224.5H541.482V227H542.482ZM542.482 219.5V214.5H541.482V219.5H542.482ZM542.482 209.5V204.5H541.482V209.5H542.482ZM542.482 199.5V194.5H541.482V199.5H542.482ZM542.482 189.5V184.5H541.482V189.5H542.482ZM542.482 179.5V174.5H541.482V179.5H542.482ZM542.482 169.5V164.5H541.482V169.5H542.482ZM542.482 159.5V154.5H541.482V159.5H542.482ZM542.482 149.5V144.5H541.482V149.5H542.482ZM542.482 139.5V134.5H541.482V139.5H542.482ZM542.482 129.5V127H541.482V129.5H542.482ZM541.982 126.5H539.458V127.5H541.982V126.5ZM534.41 126.5H529.362V127.5H534.41V126.5ZM524.314 126.5H519.266V127.5H524.314V126.5ZM514.218 126.5H509.169V127.5H514.218V126.5ZM504.121 126.5H499.073V127.5H504.121V126.5ZM494.025 126.5H488.977V127.5H494.025V126.5ZM483.928 126.5H478.88V127.5H483.928V126.5ZM473.832 126.5H468.784V127.5H473.832V126.5ZM463.736 126.5H458.688V127.5H463.736V126.5ZM453.639 126.5H448.591V127.5H453.639V126.5ZM443.543 126.5H438.495V127.5H443.543V126.5ZM433.447 126.5H428.398V127.5H433.447V126.5ZM423.35 126.5H418.302V127.5H423.35V126.5ZM413.254 126.5H408.206V127.5H413.254V126.5ZM403.158 126.5H398.109V127.5H403.158V126.5ZM393.061 126.5H388.013V127.5H393.061V126.5ZM382.965 126.5H377.917V127.5H382.965V126.5ZM372.869 126.5H367.82V127.5H372.869V126.5ZM362.772 126.5H357.724V127.5H362.772V126.5ZM352.676 126.5H347.628V127.5H352.676V126.5ZM342.58 126.5H337.531V127.5H342.58V126.5ZM332.483 126.5H327.435V127.5H332.483V126.5ZM322.387 126.5H317.339V127.5H322.387V126.5ZM312.29 126.5H307.242V127.5H312.29V126.5ZM302.194 126.5H297.146V127.5H302.194V126.5ZM292.098 126.5H289.574V127.5H292.098V126.5Z" fill="#858585" mask="url(#path-1-outside-1_5244_105348)"/>
<path d="M170.73 75.5707C170.73 76.4479 170.428 77.179 169.823 77.7638C169.228 78.3386 168.316 78.626 167.085 78.626H165.059V83.0273H163.682V72.4852H167.085C168.275 72.4852 169.178 72.7726 169.793 73.3473C170.418 73.9221 170.73 74.6632 170.73 75.5707ZM167.085 77.4916C167.852 77.4916 168.416 77.3252 168.779 76.9924C169.142 76.6597 169.324 76.1858 169.324 75.5707C169.324 74.2699 168.578 73.6196 167.085 73.6196H165.059V77.4916H167.085ZM172.003 78.8528C172.003 78.0058 172.174 77.2647 172.517 76.6294C172.86 75.9841 173.328 75.485 173.923 75.1321C174.528 74.7791 175.199 74.6027 175.935 74.6027C176.661 74.6027 177.291 74.759 177.826 75.0716C178.36 75.3842 178.758 75.7774 179.021 76.2513V74.7388H180.412V83.0273H179.021V81.4846C178.748 81.9686 178.34 82.3719 177.795 82.6946C177.261 83.0072 176.636 83.1635 175.92 83.1635C175.184 83.1635 174.518 82.982 173.923 82.619C173.328 82.256 172.86 81.7468 172.517 81.0913C172.174 80.4359 172.003 79.6897 172.003 78.8528ZM179.021 78.868C179.021 78.2428 178.895 77.6983 178.642 77.2344C178.39 76.7706 178.048 76.4177 177.614 76.1757C177.19 75.9236 176.722 75.7976 176.207 75.7976C175.693 75.7976 175.224 75.9186 174.801 76.1606C174.377 76.4026 174.039 76.7555 173.787 77.2193C173.535 77.6832 173.409 78.2277 173.409 78.8528C173.409 79.4881 173.535 80.0427 173.787 80.5166C174.039 80.9804 174.377 81.3384 174.801 81.5905C175.224 81.8325 175.693 81.9535 176.207 81.9535C176.722 81.9535 177.19 81.8325 177.614 81.5905C178.048 81.3384 178.39 80.9804 178.642 80.5166C178.895 80.0427 179.021 79.4931 179.021 78.868ZM189.953 74.7388L184.961 86.9296H183.54L185.173 82.9366L181.83 74.7388H183.358L185.96 81.4543L188.531 74.7388H189.953ZM201.379 74.5876C202.025 74.5876 202.599 74.7237 203.104 74.9959C203.608 75.2581 204.006 75.6564 204.298 76.1908C204.591 76.7252 204.737 77.3756 204.737 78.142V83.0273H203.376V78.3386C203.376 77.5117 203.169 76.8815 202.756 76.4479C202.352 76.0043 201.803 75.7824 201.107 75.7824C200.391 75.7824 199.821 76.0144 199.398 76.4782C198.974 76.9319 198.763 77.5924 198.763 78.4596V83.0273H197.401V78.3386C197.401 77.5117 197.195 76.8815 196.781 76.4479C196.378 76.0043 195.828 75.7824 195.133 75.7824C194.417 75.7824 193.847 76.0144 193.423 76.4782C193 76.9319 192.788 77.5924 192.788 78.4596V83.0273H191.412V74.7388H192.788V75.9337C193.06 75.5001 193.423 75.1674 193.877 74.9354C194.341 74.7035 194.85 74.5876 195.405 74.5876C196.101 74.5876 196.716 74.7439 197.25 75.0564C197.785 75.369 198.183 75.8278 198.445 76.4328C198.677 75.848 199.06 75.3942 199.595 75.0716C200.129 74.7489 200.724 74.5876 201.379 74.5876ZM214.633 78.5655C214.633 78.8276 214.618 79.1049 214.588 79.3973H207.963C208.013 80.2141 208.291 80.8544 208.795 81.3182C209.309 81.772 209.929 81.9988 210.655 81.9988C211.25 81.9988 211.744 81.8627 212.137 81.5905C212.541 81.3081 212.823 80.935 212.984 80.4712H214.467C214.245 81.2678 213.801 81.9182 213.136 82.4223C212.47 82.9164 211.643 83.1635 210.655 83.1635C209.869 83.1635 209.163 82.987 208.538 82.6341C207.922 82.2812 207.438 81.782 207.086 81.1367C206.733 80.4813 206.556 79.725 206.556 78.868C206.556 78.0109 206.728 77.2597 207.07 76.6143C207.413 75.969 207.892 75.4749 208.507 75.1321C209.132 74.7791 209.848 74.6027 210.655 74.6027C211.442 74.6027 212.137 74.7741 212.742 75.1169C213.347 75.4598 213.811 75.9337 214.134 76.5387C214.467 77.1336 214.633 77.8092 214.633 78.5655ZM213.211 78.2781C213.211 77.7537 213.095 77.305 212.863 76.9319C212.631 76.5488 212.314 76.2614 211.91 76.0698C211.517 75.8682 211.079 75.7673 210.595 75.7673C209.899 75.7673 209.304 75.9892 208.81 76.4328C208.326 76.8765 208.049 77.4916 207.978 78.2781H213.211ZM220.564 74.5876C221.572 74.5876 222.389 74.8951 223.014 75.5102C223.639 76.1152 223.952 76.9924 223.952 78.142V83.0273H222.591V78.3386C222.591 77.5117 222.384 76.8815 221.97 76.4479C221.557 76.0043 220.992 75.7824 220.276 75.7824C219.55 75.7824 218.971 76.0093 218.537 76.4631C218.113 76.9168 217.902 77.5773 217.902 78.4445V83.0273H216.525V74.7388H217.902V75.9186C218.174 75.4951 218.542 75.1674 219.006 74.9354C219.48 74.7035 219.999 74.5876 220.564 74.5876ZM227.955 75.8732V80.7586C227.955 81.1619 228.04 81.4493 228.212 81.6207C228.383 81.782 228.681 81.8627 229.104 81.8627H230.117V83.0273H228.877C228.111 83.0273 227.536 82.8509 227.153 82.498C226.77 82.145 226.578 81.5653 226.578 80.7586V75.8732H225.504V74.7388H226.578V72.6516H227.955V74.7388H230.117V75.8732H227.955ZM239.311 83.1332C238.616 83.1332 237.99 83.0122 237.436 82.7702C236.891 82.5181 236.463 82.1753 236.15 81.7417C235.838 81.298 235.676 80.7888 235.666 80.2141H237.133C237.184 80.7082 237.385 81.1266 237.738 81.4695C238.101 81.8022 238.626 81.9686 239.311 81.9686C239.967 81.9686 240.481 81.8073 240.854 81.4846C241.237 81.1518 241.429 80.7283 241.429 80.2141C241.429 79.8107 241.318 79.483 241.096 79.231C240.874 78.9789 240.597 78.7873 240.264 78.6562C239.931 78.5251 239.483 78.384 238.918 78.2327C238.222 78.0512 237.663 77.8697 237.239 77.6882C236.826 77.5067 236.468 77.2244 236.165 76.8412C235.873 76.4479 235.727 75.9236 235.727 75.2682C235.727 74.6934 235.873 74.1842 236.165 73.7406C236.458 73.2969 236.866 72.9541 237.39 72.7121C237.925 72.4701 238.535 72.3491 239.221 72.3491C240.209 72.3491 241.015 72.5961 241.641 73.0902C242.276 73.5843 242.634 74.2397 242.715 75.0564H241.202C241.152 74.6531 240.94 74.3002 240.567 73.9977C240.194 73.6851 239.7 73.5288 239.084 73.5288C238.51 73.5288 238.041 73.6801 237.678 73.9826C237.315 74.275 237.133 74.6884 237.133 75.2228C237.133 75.606 237.239 75.9186 237.451 76.1606C237.673 76.4026 237.94 76.5891 238.253 76.7202C238.575 76.8412 239.024 76.9824 239.599 77.1437C240.294 77.3353 240.854 77.5269 241.278 77.7185C241.701 77.9 242.064 78.1873 242.367 78.5806C242.669 78.9637 242.82 79.4881 242.82 80.1536C242.82 80.6678 242.684 81.1518 242.412 81.6056C242.14 82.0593 241.736 82.4274 241.202 82.7097C240.668 82.9921 240.037 83.1332 239.311 83.1332ZM252.272 74.7388V83.0273H250.896V81.8022C250.634 82.2257 250.266 82.5585 249.792 82.8005C249.328 83.0324 248.814 83.1483 248.249 83.1483C247.604 83.1483 247.024 83.0173 246.51 82.7551C245.995 82.4828 245.587 82.0795 245.284 81.5451C244.992 81.0107 244.846 80.3603 244.846 79.594V74.7388H246.207V79.4125C246.207 80.2292 246.414 80.8594 246.827 81.3031C247.241 81.7367 247.805 81.9535 248.521 81.9535C249.257 81.9535 249.837 81.7266 250.261 81.2728C250.684 80.8191 250.896 80.1586 250.896 79.2915V74.7388H252.272ZM254.158 78.868C254.158 78.0109 254.329 77.2647 254.672 76.6294C255.015 75.9841 255.489 75.485 256.094 75.1321C256.709 74.7791 257.409 74.6027 258.196 74.6027C259.214 74.6027 260.051 74.8497 260.707 75.3438C261.372 75.8379 261.811 76.5236 262.023 77.4008H260.54C260.399 76.8967 260.122 76.4984 259.708 76.2059C259.305 75.9135 258.801 75.7673 258.196 75.7673C257.409 75.7673 256.774 76.0396 256.29 76.5841C255.806 77.1185 255.564 77.8798 255.564 78.868C255.564 79.8662 255.806 80.6376 256.29 81.1821C256.774 81.7266 257.409 81.9988 258.196 81.9988C258.801 81.9988 259.305 81.8577 259.708 81.5753C260.112 81.293 260.389 80.8897 260.54 80.3653H262.023C261.801 81.2123 261.357 81.893 260.692 82.4072C260.026 82.9114 259.194 83.1635 258.196 83.1635C257.409 83.1635 256.709 82.987 256.094 82.6341C255.489 82.2812 255.015 81.782 254.672 81.1367C254.329 80.4914 254.158 79.7351 254.158 78.868ZM263.42 78.868C263.42 78.0109 263.592 77.2647 263.935 76.6294C264.278 75.9841 264.751 75.485 265.356 75.1321C265.972 74.7791 266.672 74.6027 267.459 74.6027C268.477 74.6027 269.314 74.8497 269.97 75.3438C270.635 75.8379 271.074 76.5236 271.285 77.4008H269.803C269.662 76.8967 269.385 76.4984 268.971 76.2059C268.568 75.9135 268.064 75.7673 267.459 75.7673C266.672 75.7673 266.037 76.0396 265.553 76.5841C265.069 77.1185 264.827 77.8798 264.827 78.868C264.827 79.8662 265.069 80.6376 265.553 81.1821C266.037 81.7266 266.672 81.9988 267.459 81.9988C268.064 81.9988 268.568 81.8577 268.971 81.5753C269.375 81.293 269.652 80.8897 269.803 80.3653H271.285C271.064 81.2123 270.62 81.893 269.954 82.4072C269.289 82.9114 268.457 83.1635 267.459 83.1635C266.672 83.1635 265.972 82.987 265.356 82.6341C264.751 82.2812 264.278 81.782 263.935 81.1367C263.592 80.4914 263.42 79.7351 263.42 78.868ZM280.76 78.5655C280.76 78.8276 280.745 79.1049 280.715 79.3973H274.09C274.14 80.2141 274.418 80.8544 274.922 81.3182C275.436 81.772 276.056 81.9988 276.782 81.9988C277.377 81.9988 277.871 81.8627 278.265 81.5905C278.668 81.3081 278.95 80.935 279.112 80.4712H280.594C280.372 81.2678 279.928 81.9182 279.263 82.4223C278.597 82.9164 277.77 83.1635 276.782 83.1635C275.996 83.1635 275.29 82.987 274.665 82.6341C274.05 82.2812 273.566 81.782 273.213 81.1367C272.86 80.4813 272.683 79.725 272.683 78.868C272.683 78.0109 272.855 77.2597 273.198 76.6143C273.54 75.969 274.019 75.4749 274.635 75.1321C275.26 74.7791 275.976 74.6027 276.782 74.6027C277.569 74.6027 278.265 74.7741 278.87 75.1169C279.475 75.4598 279.938 75.9337 280.261 76.5387C280.594 77.1336 280.76 77.8092 280.76 78.5655ZM279.338 78.2781C279.338 77.7537 279.222 77.305 278.991 76.9319C278.759 76.5488 278.441 76.2614 278.038 76.0698C277.644 75.8682 277.206 75.7673 276.722 75.7673C276.026 75.7673 275.431 75.9892 274.937 76.4328C274.453 76.8765 274.176 77.4916 274.105 78.2781H279.338ZM285.587 83.1635C284.952 83.1635 284.382 83.0576 283.878 82.8458C283.374 82.624 282.975 82.3215 282.683 81.9383C282.39 81.5451 282.229 81.0964 282.199 80.5922H283.621C283.661 81.0056 283.852 81.3434 284.195 81.6056C284.548 81.8678 285.007 81.9988 285.572 81.9988C286.096 81.9988 286.509 81.8829 286.812 81.651C287.114 81.419 287.266 81.1266 287.266 80.7737C287.266 80.4107 287.104 80.1435 286.782 79.9721C286.459 79.7906 285.96 79.6141 285.284 79.4427C284.669 79.2814 284.165 79.12 283.772 78.9587C283.389 78.7873 283.056 78.5402 282.774 78.2176C282.501 77.8848 282.365 77.4512 282.365 76.9168C282.365 76.4933 282.491 76.1051 282.743 75.7522C282.995 75.3993 283.353 75.122 283.817 74.9203C284.281 74.7086 284.81 74.6027 285.405 74.6027C286.323 74.6027 287.064 74.8346 287.629 75.2984C288.193 75.7623 288.496 76.3975 288.536 77.2042H287.16C287.13 76.7706 286.953 76.4227 286.63 76.1606C286.318 75.8984 285.894 75.7673 285.36 75.7673C284.866 75.7673 284.473 75.8732 284.18 76.0849C283.888 76.2967 283.742 76.574 283.742 76.9168C283.742 77.1891 283.827 77.4159 283.999 77.5974C284.18 77.7689 284.402 77.91 284.664 78.021C284.936 78.1218 285.31 78.2377 285.783 78.3688C286.378 78.5302 286.862 78.6915 287.235 78.8528C287.609 79.0041 287.926 79.236 288.188 79.5486C288.461 79.8612 288.602 80.2695 288.612 80.7737C288.612 81.2275 288.486 81.6358 288.234 81.9988C287.982 82.3618 287.624 82.6492 287.16 82.861C286.706 83.0626 286.182 83.1635 285.587 83.1635ZM293.565 83.1635C292.929 83.1635 292.36 83.0576 291.856 82.8458C291.351 82.624 290.953 82.3215 290.661 81.9383C290.368 81.5451 290.207 81.0964 290.177 80.5922H291.598C291.639 81.0056 291.83 81.3434 292.173 81.6056C292.526 81.8678 292.985 81.9988 293.55 81.9988C294.074 81.9988 294.487 81.8829 294.79 81.651C295.092 81.419 295.244 81.1266 295.244 80.7737C295.244 80.4107 295.082 80.1435 294.76 79.9721C294.437 79.7906 293.938 79.6141 293.262 79.4427C292.647 79.2814 292.143 79.12 291.75 78.9587C291.367 78.7873 291.034 78.5402 290.751 78.2176C290.479 77.8848 290.343 77.4512 290.343 76.9168C290.343 76.4933 290.469 76.1051 290.721 75.7522C290.973 75.3993 291.331 75.122 291.795 74.9203C292.259 74.7086 292.788 74.6027 293.383 74.6027C294.301 74.6027 295.042 74.8346 295.607 75.2984C296.171 75.7623 296.474 76.3975 296.514 77.2042H295.138C295.107 76.7706 294.931 76.4227 294.608 76.1606C294.296 75.8984 293.872 75.7673 293.338 75.7673C292.844 75.7673 292.45 75.8732 292.158 76.0849C291.866 76.2967 291.719 76.574 291.719 76.9168C291.719 77.1891 291.805 77.4159 291.977 77.5974C292.158 77.7689 292.38 77.91 292.642 78.021C292.914 78.1218 293.287 78.2377 293.761 78.3688C294.356 78.5302 294.84 78.6915 295.213 78.8528C295.586 79.0041 295.904 79.236 296.166 79.5486C296.438 79.8612 296.58 80.2695 296.59 80.7737C296.59 81.2275 296.464 81.6358 296.212 81.9988C295.959 82.3618 295.602 82.6492 295.138 82.861C294.684 83.0626 294.16 83.1635 293.565 83.1635ZM301.981 75.8732H300.242V83.0273H298.865V75.8732H297.792V74.7388H298.865V74.1489C298.865 73.2213 299.102 72.5457 299.576 72.1222C300.06 71.6886 300.832 71.4718 301.89 71.4718V72.6213C301.285 72.6213 300.857 72.7423 300.605 72.9843C300.363 73.2162 300.242 73.6044 300.242 74.1489V74.7388H301.981V75.8732ZM311.012 74.7388V83.0273H309.636V81.8022C309.374 82.2257 309.006 82.5585 308.532 82.8005C308.068 83.0324 307.554 83.1483 306.989 83.1483C306.344 83.1483 305.764 83.0173 305.25 82.7551C304.735 82.4828 304.327 82.0795 304.025 81.5451C303.732 81.0107 303.586 80.3603 303.586 79.594V74.7388H304.947V79.4125C304.947 80.2292 305.154 80.8594 305.567 81.3031C305.981 81.7367 306.545 81.9535 307.261 81.9535C307.997 81.9535 308.577 81.7266 309.001 81.2728C309.424 80.8191 309.636 80.1586 309.636 79.2915V74.7388H311.012ZM314.788 71.8348V83.0273H313.412V71.8348H314.788Z" fill="black"/>
<path fill-rule="evenodd" clip-rule="evenodd" d="M239.789 50.9494C250.545 50.9494 259.264 42.2303 259.264 31.4747C259.264 20.7191 250.545 12 239.789 12C229.034 12 220.314 20.7191 220.314 31.4747C220.314 42.2303 229.034 50.9494 239.789 50.9494ZM249.847 22.9273C250.321 22.4536 251.088 22.4536 251.562 22.9273C252.036 23.401 252.036 24.1691 251.562 24.6428L236.172 40.0329C235.699 40.5062 234.93 40.5066 234.457 40.0329L228.013 33.5892C227.539 33.1155 227.539 32.3475 228.013 31.8739C228.487 31.4002 229.255 31.4001 229.728 31.8739L235.314 37.4599L249.847 22.9273Z" fill="#7CAA53"/>
<path d="M369.212 157.232H364.728L363.902 159.518H362.487L366.203 149.297H367.752L371.453 159.518H370.037L369.212 157.232ZM368.828 156.14L366.97 150.949L365.112 156.14H368.828ZM382.865 151.288C383.495 151.288 384.055 151.421 384.547 151.687C385.038 151.942 385.427 152.331 385.712 152.852C385.997 153.373 386.139 154.007 386.139 154.754V159.518H384.812V154.946C384.812 154.14 384.611 153.525 384.207 153.102C383.814 152.67 383.278 152.453 382.6 152.453C381.902 152.453 381.346 152.68 380.933 153.132C380.521 153.574 380.314 154.218 380.314 155.064V159.518H378.987V154.946C378.987 154.14 378.785 153.525 378.382 153.102C377.989 152.67 377.453 152.453 376.775 152.453C376.077 152.453 375.521 152.68 375.108 153.132C374.695 153.574 374.489 154.218 374.489 155.064V159.518H373.147V151.436H374.489V152.601C374.754 152.178 375.108 151.854 375.551 151.628C376.003 151.401 376.499 151.288 377.04 151.288C377.718 151.288 378.318 151.441 378.839 151.746C379.36 152.05 379.749 152.498 380.004 153.088C380.23 152.517 380.604 152.075 381.125 151.76C381.646 151.446 382.226 151.288 382.865 151.288ZM391.939 159.65C391.182 159.65 390.494 159.478 389.875 159.134C389.265 158.79 388.783 158.303 388.429 157.674C388.085 157.035 387.913 156.298 387.913 155.462C387.913 154.636 388.09 153.909 388.444 153.279C388.808 152.64 389.299 152.154 389.919 151.819C390.538 151.475 391.231 151.303 391.998 151.303C392.765 151.303 393.458 151.475 394.078 151.819C394.697 152.154 395.184 152.635 395.538 153.265C395.901 153.894 396.083 154.626 396.083 155.462C396.083 156.298 395.897 157.035 395.523 157.674C395.159 158.303 394.663 158.79 394.033 159.134C393.404 159.478 392.706 159.65 391.939 159.65ZM391.939 158.47C392.421 158.47 392.873 158.357 393.296 158.131C393.719 157.905 394.058 157.566 394.314 157.114C394.579 156.661 394.712 156.111 394.712 155.462C394.712 154.813 394.584 154.262 394.328 153.81C394.073 153.358 393.738 153.024 393.326 152.807C392.913 152.581 392.465 152.468 391.984 152.468C391.492 152.468 391.04 152.581 390.627 152.807C390.224 153.024 389.899 153.358 389.653 153.81C389.408 154.262 389.285 154.813 389.285 155.462C389.285 156.121 389.403 156.676 389.639 157.128C389.884 157.581 390.209 157.92 390.612 158.146C391.015 158.362 391.458 158.47 391.939 158.47ZM405.089 151.436V159.518H403.747V158.323C403.491 158.736 403.132 159.06 402.67 159.296C402.218 159.522 401.717 159.636 401.166 159.636C400.537 159.636 399.972 159.508 399.47 159.252C398.969 158.987 398.571 158.593 398.276 158.072C397.99 157.551 397.848 156.917 397.848 156.17V151.436H399.175V155.993C399.175 156.789 399.377 157.404 399.78 157.836C400.183 158.259 400.734 158.47 401.432 158.47C402.149 158.47 402.715 158.249 403.128 157.807C403.54 157.364 403.747 156.72 403.747 155.875V151.436H405.089ZM411.366 151.288C412.349 151.288 413.146 151.588 413.755 152.188C414.365 152.778 414.67 153.633 414.67 154.754V159.518H413.342V154.946C413.342 154.14 413.141 153.525 412.738 153.102C412.335 152.67 411.784 152.453 411.086 152.453C410.378 152.453 409.813 152.675 409.39 153.117C408.977 153.56 408.771 154.204 408.771 155.049V159.518H407.429V151.436H408.771V152.586C409.036 152.173 409.395 151.854 409.847 151.628C410.309 151.401 410.816 151.288 411.366 151.288ZM418.573 152.542V157.305C418.573 157.699 418.656 157.979 418.823 158.146C418.991 158.303 419.281 158.382 419.694 158.382H420.682V159.518H419.472C418.725 159.518 418.165 159.346 417.791 159.001C417.418 158.657 417.231 158.092 417.231 157.305V152.542H416.184V151.436H417.231V149.401H418.573V151.436H420.682V152.542H418.573Z" fill="#858585"/>
<path d="M369.419 181.236L366.146 175.523V174.761H366.527C367.139 174.761 367.652 174.703 368.068 174.588C368.495 174.472 368.83 174.282 369.072 174.016C369.315 173.751 369.459 173.387 369.505 172.925H366.146V171.817H369.488C369.407 171.39 369.245 171.044 369.003 170.778C368.761 170.501 368.432 170.299 368.016 170.172C367.612 170.046 367.116 169.982 366.527 169.982H366.146V168.874H373.314V169.982H370.042C370.307 170.201 370.527 170.461 370.7 170.761C370.873 171.061 370.983 171.413 371.029 171.817H373.314V172.925H371.063C370.983 173.768 370.659 174.426 370.094 174.899C369.54 175.361 368.801 175.655 367.878 175.782L371.185 181.236H369.419ZM383.829 170.086H377.751V174.034C378.017 173.664 378.409 173.364 378.929 173.133C379.448 172.891 380.008 172.77 380.608 172.77C381.566 172.77 382.345 172.972 382.946 173.376C383.546 173.768 383.973 174.282 384.227 174.917C384.492 175.54 384.625 176.204 384.625 176.908C384.625 177.739 384.469 178.483 384.158 179.141C383.846 179.799 383.367 180.319 382.721 180.7C382.086 181.08 381.295 181.271 380.348 181.271C379.136 181.271 378.155 180.959 377.405 180.336C376.655 179.713 376.199 178.882 376.037 177.843H377.578C377.728 178.501 378.046 179.014 378.53 179.384C379.015 179.753 379.627 179.938 380.366 179.938C381.278 179.938 381.965 179.666 382.426 179.124C382.888 178.57 383.119 177.843 383.119 176.942C383.119 176.042 382.888 175.349 382.426 174.865C381.965 174.368 381.283 174.12 380.383 174.12C379.771 174.12 379.235 174.27 378.773 174.57C378.323 174.859 377.994 175.257 377.786 175.765H376.297V168.701H383.829V170.086ZM386.806 174.847C386.806 172.862 387.129 171.315 387.775 170.207C388.422 169.087 389.553 168.528 391.169 168.528C392.773 168.528 393.899 169.087 394.545 170.207C395.191 171.315 395.515 172.862 395.515 174.847C395.515 176.867 395.191 178.437 394.545 179.557C393.899 180.676 392.773 181.236 391.169 181.236C389.553 181.236 388.422 180.676 387.775 179.557C387.129 178.437 386.806 176.867 386.806 174.847ZM393.956 174.847C393.956 173.843 393.887 172.995 393.749 172.302C393.622 171.598 393.35 171.032 392.935 170.605C392.531 170.178 391.942 169.965 391.169 169.965C390.384 169.965 389.784 170.178 389.368 170.605C388.964 171.032 388.693 171.598 388.554 172.302C388.427 172.995 388.364 173.843 388.364 174.847C388.364 175.886 388.427 176.758 388.554 177.462C388.693 178.166 388.964 178.732 389.368 179.159C389.784 179.586 390.384 179.799 391.169 179.799C391.942 179.799 392.531 179.586 392.935 179.159C393.35 178.732 393.622 178.166 393.749 177.462C393.887 176.758 393.956 175.886 393.956 174.847ZM397.764 174.847C397.764 172.862 398.087 171.315 398.734 170.207C399.38 169.087 400.511 168.528 402.127 168.528C403.732 168.528 404.857 169.087 405.504 170.207C406.15 171.315 406.473 172.862 406.473 174.847C406.473 176.867 406.15 178.437 405.504 179.557C404.857 180.676 403.732 181.236 402.127 181.236C400.511 181.236 399.38 180.676 398.734 179.557C398.087 178.437 397.764 176.867 397.764 174.847ZM404.915 174.847C404.915 173.843 404.846 172.995 404.707 172.302C404.58 171.598 404.309 171.032 403.894 170.605C403.49 170.178 402.901 169.965 402.127 169.965C401.343 169.965 400.742 170.178 400.327 170.605C399.923 171.032 399.652 171.598 399.513 172.302C399.386 172.995 399.323 173.843 399.323 174.847C399.323 175.886 399.386 176.758 399.513 177.462C399.652 178.166 399.923 178.732 400.327 179.159C400.742 179.586 401.343 179.799 402.127 179.799C402.901 179.799 403.49 179.586 403.894 179.159C404.309 178.732 404.58 178.166 404.707 177.462C404.846 176.758 404.915 175.886 404.915 174.847ZM408.723 174.847C408.723 172.862 409.046 171.315 409.693 170.207C410.339 169.087 411.47 168.528 413.086 168.528C414.691 168.528 415.816 169.087 416.463 170.207C417.109 171.315 417.432 172.862 417.432 174.847C417.432 176.867 417.109 178.437 416.463 179.557C415.816 180.676 414.691 181.236 413.086 181.236C411.47 181.236 410.339 180.676 409.693 179.557C409.046 178.437 408.723 176.867 408.723 174.847ZM415.874 174.847C415.874 173.843 415.805 172.995 415.666 172.302C415.539 171.598 415.268 171.032 414.852 170.605C414.448 170.178 413.86 169.965 413.086 169.965C412.301 169.965 411.701 170.178 411.286 170.605C410.882 171.032 410.61 171.598 410.472 172.302C410.345 172.995 410.281 173.843 410.281 174.847C410.281 175.886 410.345 176.758 410.472 177.462C410.61 178.166 410.882 178.732 411.286 179.159C411.701 179.586 412.301 179.799 413.086 179.799C413.86 179.799 414.448 179.586 414.852 179.159C415.268 178.732 415.539 178.166 415.666 177.462C415.805 176.758 415.874 175.886 415.874 174.847Z" fill="black"/>
<path d="M53.5346 145.721V146.812H50.7325V156H49.3905V146.812H46.5737V145.721H53.5346ZM56.6023 149.231C56.8383 148.769 57.1726 148.41 57.6052 148.154C58.0476 147.899 58.5834 147.771 59.2127 147.771V149.157H58.8587C57.3545 149.157 56.6023 149.973 56.6023 151.605V156H55.2603V147.918H56.6023V149.231ZM60.3342 151.93C60.3342 151.104 60.5013 150.381 60.8356 149.762C61.1699 149.133 61.6271 148.646 62.2071 148.302C62.797 147.958 63.4509 147.786 64.1686 147.786C64.8765 147.786 65.4909 147.938 66.012 148.243C66.5331 148.548 66.9215 148.931 67.1771 149.393V147.918H68.5339V156H67.1771V154.496C66.9116 154.968 66.5135 155.361 65.9825 155.676C65.4615 155.98 64.8519 156.133 64.1538 156.133C63.4361 156.133 62.7872 155.956 62.2071 155.602C61.6271 155.248 61.1699 154.751 60.8356 154.112C60.5013 153.473 60.3342 152.746 60.3342 151.93ZM67.1771 151.944C67.1771 151.335 67.0542 150.804 66.8084 150.352C66.5626 149.899 66.2283 149.555 65.8056 149.319C65.3926 149.074 64.9355 148.951 64.434 148.951C63.9326 148.951 63.4754 149.069 63.0625 149.305C62.6496 149.541 62.3202 149.885 62.0744 150.337C61.8286 150.789 61.7057 151.32 61.7057 151.93C61.7057 152.549 61.8286 153.09 62.0744 153.552C62.3202 154.004 62.6496 154.353 63.0625 154.599C63.4754 154.835 63.9326 154.953 64.434 154.953C64.9355 154.953 65.3926 154.835 65.8056 154.599C66.2283 154.353 66.5626 154.004 66.8084 153.552C67.0542 153.09 67.1771 152.554 67.1771 151.944ZM74.8132 147.771C75.7963 147.771 76.5927 148.071 77.2023 148.67C77.8119 149.26 78.1166 150.116 78.1166 151.237V156H76.7893V151.428C76.7893 150.622 76.5878 150.008 76.1847 149.585C75.7816 149.152 75.231 148.936 74.533 148.936C73.8251 148.936 73.2597 149.157 72.837 149.6C72.424 150.042 72.2176 150.686 72.2176 151.531V156H70.8755V147.918H72.2176V149.069C72.483 148.656 72.8419 148.336 73.2942 148.11C73.7562 147.884 74.2626 147.771 74.8132 147.771ZM83.2436 156.133C82.6242 156.133 82.0687 156.029 81.5772 155.823C81.0856 155.607 80.6972 155.312 80.4121 154.938C80.127 154.555 79.9697 154.117 79.9402 153.626H81.3264C81.3658 154.029 81.5526 154.358 81.8869 154.614C82.231 154.869 82.6783 154.997 83.2289 154.997C83.7401 154.997 84.1432 154.884 84.4382 154.658C84.7332 154.432 84.8806 154.147 84.8806 153.803C84.8806 153.449 84.7233 153.188 84.4087 153.021C84.0941 152.844 83.6074 152.672 82.9487 152.505C82.3489 152.347 81.8574 152.19 81.4739 152.033C81.1003 151.866 80.7759 151.625 80.5006 151.31C80.2351 150.986 80.1024 150.563 80.1024 150.042C80.1024 149.629 80.2253 149.25 80.4711 148.906C80.7169 148.562 81.0659 148.292 81.5182 148.095C81.9704 147.889 82.4866 147.786 83.0667 147.786C83.9614 147.786 84.684 148.012 85.2346 148.464C85.7852 148.916 86.0801 149.536 86.1194 150.322H84.7774C84.7479 149.899 84.5758 149.56 84.2612 149.305C83.9564 149.049 83.5435 148.921 83.0224 148.921C82.5407 148.921 82.1572 149.024 81.8721 149.231C81.587 149.437 81.4444 149.708 81.4444 150.042C81.4444 150.307 81.528 150.529 81.6951 150.706C81.8721 150.873 82.0884 151.01 82.344 151.119C82.6095 151.217 82.9733 151.33 83.4354 151.458C84.0154 151.615 84.4874 151.772 84.8511 151.93C85.2149 152.077 85.5246 152.303 85.7802 152.608C86.0457 152.913 86.1833 153.311 86.1932 153.803C86.1932 154.245 86.0703 154.643 85.8245 154.997C85.5787 155.351 85.2297 155.631 84.7774 155.838C84.335 156.034 83.8237 156.133 83.2436 156.133ZM87.66 151.93C87.66 151.104 87.8271 150.381 88.1614 149.762C88.4957 149.133 88.9529 148.646 89.5329 148.302C90.1229 147.958 90.7767 147.786 91.4944 147.786C92.2023 147.786 92.8168 147.938 93.3378 148.243C93.8589 148.548 94.2473 148.931 94.5029 149.393V147.918H95.8597V156H94.5029V154.496C94.2374 154.968 93.8393 155.361 93.3083 155.676C92.7873 155.98 92.1777 156.133 91.4796 156.133C90.7619 156.133 90.113 155.956 89.5329 155.602C88.9529 155.248 88.4957 154.751 88.1614 154.112C87.8271 153.473 87.66 152.746 87.66 151.93ZM94.5029 151.944C94.5029 151.335 94.38 150.804 94.1342 150.352C93.8884 149.899 93.5541 149.555 93.1314 149.319C92.7184 149.074 92.2613 148.951 91.7598 148.951C91.2584 148.951 90.8012 149.069 90.3883 149.305C89.9754 149.541 89.646 149.885 89.4002 150.337C89.1544 150.789 89.0315 151.32 89.0315 151.93C89.0315 152.549 89.1544 153.09 89.4002 153.552C89.646 154.004 89.9754 154.353 90.3883 154.599C90.8012 154.835 91.2584 154.953 91.7598 154.953C92.2613 154.953 92.7184 154.835 93.1314 154.599C93.5541 154.353 93.8884 154.004 94.1342 153.552C94.38 153.09 94.5029 152.554 94.5029 151.944ZM97.6999 151.944C97.6999 151.109 97.8671 150.381 98.2013 149.762C98.5356 149.133 98.9977 148.646 99.5876 148.302C100.187 147.958 100.871 147.786 101.638 147.786C102.631 147.786 103.447 148.026 104.086 148.508C104.735 148.99 105.162 149.659 105.369 150.514H103.923C103.786 150.022 103.515 149.634 103.112 149.349C102.719 149.064 102.227 148.921 101.638 148.921C100.871 148.921 100.251 149.187 99.7793 149.717C99.3074 150.239 99.0715 150.981 99.0715 151.944C99.0715 152.918 99.3074 153.67 99.7793 154.201C100.251 154.732 100.871 154.997 101.638 154.997C102.227 154.997 102.719 154.86 103.112 154.584C103.506 154.309 103.776 153.916 103.923 153.404H105.369C105.152 154.23 104.72 154.894 104.071 155.395C103.422 155.887 102.611 156.133 101.638 156.133C100.871 156.133 100.187 155.961 99.5876 155.617C98.9977 155.272 98.5356 154.786 98.2013 154.157C97.8671 153.527 97.6999 152.79 97.6999 151.944ZM108.87 149.024V153.788C108.87 154.181 108.954 154.461 109.121 154.628C109.288 154.786 109.578 154.864 109.991 154.864H110.979V156H109.77C109.023 156 108.462 155.828 108.088 155.484C107.715 155.14 107.528 154.574 107.528 153.788V149.024H106.481V147.918H107.528V145.883H108.87V147.918H110.979V149.024H108.87ZM113.372 146.606C113.116 146.606 112.9 146.517 112.723 146.34C112.546 146.163 112.458 145.947 112.458 145.691C112.458 145.436 112.546 145.219 112.723 145.042C112.9 144.866 113.116 144.777 113.372 144.777C113.618 144.777 113.824 144.866 113.991 145.042C114.168 145.219 114.257 145.436 114.257 145.691C114.257 145.947 114.168 146.163 113.991 146.34C113.824 146.517 113.618 146.606 113.372 146.606ZM114.021 147.918V156H112.679V147.918H114.021ZM119.907 156.133C119.15 156.133 118.461 155.961 117.842 155.617C117.232 155.272 116.751 154.786 116.397 154.157C116.053 153.517 115.88 152.78 115.88 151.944C115.88 151.119 116.057 150.391 116.411 149.762C116.775 149.123 117.267 148.636 117.886 148.302C118.506 147.958 119.199 147.786 119.966 147.786C120.732 147.786 121.426 147.958 122.045 148.302C122.664 148.636 123.151 149.118 123.505 149.747C123.869 150.376 124.051 151.109 124.051 151.944C124.051 152.78 123.864 153.517 123.49 154.157C123.126 154.786 122.63 155.272 122.001 155.617C121.371 155.961 120.673 156.133 119.907 156.133ZM119.907 154.953C120.388 154.953 120.841 154.84 121.263 154.614C121.686 154.388 122.025 154.048 122.281 153.596C122.546 153.144 122.679 152.593 122.679 151.944C122.679 151.295 122.551 150.745 122.296 150.293C122.04 149.84 121.706 149.506 121.293 149.29C120.88 149.064 120.433 148.951 119.951 148.951C119.459 148.951 119.007 149.064 118.594 149.29C118.191 149.506 117.866 149.84 117.621 150.293C117.375 150.745 117.252 151.295 117.252 151.944C117.252 152.603 117.37 153.159 117.606 153.611C117.852 154.063 118.176 154.402 118.579 154.628C118.982 154.845 119.425 154.953 119.907 154.953ZM129.827 147.771C130.81 147.771 131.606 148.071 132.216 148.67C132.825 149.26 133.13 150.116 133.13 151.237V156H131.803V151.428C131.803 150.622 131.601 150.008 131.198 149.585C130.795 149.152 130.244 148.936 129.546 148.936C128.838 148.936 128.273 149.157 127.85 149.6C127.437 150.042 127.231 150.686 127.231 151.531V156H125.889V147.918H127.231V149.069C127.496 148.656 127.855 148.336 128.308 148.11C128.77 147.884 129.276 147.771 129.827 147.771ZM140.744 145.721V156H139.401V145.721H140.744ZM146.305 145.721C147.426 145.721 148.394 145.932 149.21 146.355C150.036 146.768 150.665 147.363 151.098 148.139C151.54 148.916 151.761 149.831 151.761 150.883C151.761 151.935 151.54 152.849 151.098 153.626C150.665 154.393 150.036 154.982 149.21 155.395C148.394 155.798 147.426 156 146.305 156H143.105V145.721H146.305ZM146.305 154.894C147.632 154.894 148.645 154.545 149.343 153.847C150.041 153.139 150.39 152.151 150.39 150.883C150.39 149.604 150.036 148.607 149.328 147.889C148.63 147.171 147.622 146.812 146.305 146.812H144.447V154.894H146.305Z" fill="#858585"/>
<path d="M45.3747 172.809H39.2974V176.756C39.5629 176.387 39.9553 176.087 40.4748 175.856C40.9942 175.613 41.554 175.492 42.1543 175.492C43.1123 175.492 43.8915 175.694 44.4917 176.098C45.0919 176.491 45.519 177.004 45.773 177.639C46.0384 178.263 46.1712 178.926 46.1712 179.63C46.1712 180.461 46.0154 181.206 45.7037 181.864C45.392 182.522 44.913 183.041 44.2666 183.422C43.6318 183.803 42.8411 183.994 41.8945 183.994C40.6825 183.994 39.7014 183.682 38.9511 183.059C38.2008 182.435 37.7449 181.604 37.5833 180.565H39.1243C39.2743 181.223 39.5917 181.737 40.0765 182.106C40.5613 182.476 41.1731 182.66 41.9119 182.66C42.8238 182.66 43.5106 182.389 43.9723 181.847C44.434 181.293 44.6648 180.565 44.6648 179.665C44.6648 178.765 44.434 178.072 43.9723 177.587C43.5106 177.091 42.8295 176.843 41.9292 176.843C41.3174 176.843 40.7807 176.993 40.3189 177.293C39.8688 177.582 39.5398 177.98 39.332 178.488H37.843V171.423H45.3747V172.809ZM50.3774 180.6C50.4928 181.258 50.7583 181.766 51.1738 182.124C51.6009 182.481 52.1723 182.66 52.8879 182.66C53.846 182.66 54.5501 182.285 55.0003 181.535C55.462 180.785 55.6813 179.521 55.6582 177.743C55.4158 178.263 55.0118 178.672 54.4462 178.972C53.8806 179.261 53.2515 179.405 52.559 179.405C51.7856 179.405 51.093 179.249 50.4812 178.938C49.881 178.615 49.4077 178.147 49.0615 177.535C48.7152 176.924 48.542 176.185 48.542 175.319C48.542 174.084 48.8999 173.091 49.6155 172.341C50.3312 171.579 51.347 171.198 52.6628 171.198C54.2788 171.198 55.41 171.724 56.0565 172.774C56.7144 173.824 57.0434 175.388 57.0434 177.466C57.0434 178.921 56.9106 180.121 56.6451 181.067C56.3912 182.014 55.9526 182.735 55.3292 183.232C54.7175 183.728 53.8748 183.976 52.8014 183.976C51.624 183.976 50.7063 183.659 50.0484 183.024C49.3904 182.389 49.0153 181.581 48.9229 180.6H50.3774ZM52.8187 178.072C53.592 178.072 54.2269 177.835 54.7232 177.362C55.2196 176.877 55.4678 176.225 55.4678 175.406C55.4678 174.54 55.2254 173.842 54.7406 173.311C54.2558 172.78 53.5747 172.514 52.6975 172.514C51.8895 172.514 51.2431 172.768 50.7583 173.276C50.285 173.784 50.0484 174.453 50.0484 175.285C50.0484 176.127 50.285 176.802 50.7583 177.31C51.2315 177.818 51.9183 178.072 52.8187 178.072ZM59.1537 182.695C60.6196 181.518 61.7681 180.554 62.5992 179.804C63.4303 179.042 64.1287 178.251 64.6943 177.431C65.2714 176.6 65.56 175.787 65.56 174.99C65.56 174.24 65.3753 173.651 65.0059 173.224C64.6481 172.785 64.0652 172.566 63.2572 172.566C62.4723 172.566 61.8605 172.814 61.4219 173.311C60.9948 173.795 60.7639 174.448 60.7293 175.267H59.2056C59.2518 173.974 59.6443 172.976 60.383 172.272C61.1217 171.568 62.074 171.216 63.2399 171.216C64.4288 171.216 65.3695 171.545 66.0621 172.203C66.7662 172.861 67.1183 173.767 67.1183 174.921C67.1183 175.879 66.8297 176.814 66.2526 177.726C65.687 178.626 65.0406 179.423 64.3134 180.115C63.5862 180.796 62.657 181.593 61.5257 182.505H67.4819V183.82H59.1537V182.695ZM77.3717 172.809H71.2944V176.756C71.5599 176.387 71.9524 176.087 72.4718 175.856C72.9912 175.613 73.551 175.492 74.1513 175.492C75.1093 175.492 75.8885 175.694 76.4887 176.098C77.0889 176.491 77.516 177.004 77.77 177.639C78.0355 178.263 78.1682 178.926 78.1682 179.63C78.1682 180.461 78.0124 181.206 77.7007 181.864C77.3891 182.522 76.91 183.041 76.2636 183.422C75.6288 183.803 74.8381 183.994 73.8916 183.994C72.6796 183.994 71.6984 183.682 70.9481 183.059C70.1978 182.435 69.7419 181.604 69.5803 180.565H71.1213C71.2713 181.223 71.5888 181.737 72.0736 182.106C72.5584 182.476 73.1701 182.66 73.9089 182.66C74.8208 182.66 75.5076 182.389 75.9693 181.847C76.431 181.293 76.6619 180.565 76.6619 179.665C76.6619 178.765 76.431 178.072 75.9693 177.587C75.5076 177.091 74.8265 176.843 73.9262 176.843C73.3144 176.843 72.7777 176.993 72.316 177.293C71.8658 177.582 71.5368 177.98 71.329 178.488H69.84V171.423H77.3717V172.809ZM79.9677 181.171V179.977L86.045 171.562H87.9323V179.804H89.6637V181.171H87.9323V183.959H86.374V181.171H79.9677ZM86.4432 173.207L81.7857 179.804H86.4432V173.207ZM99.0291 172.67L94.2157 183.959H92.6228L97.5055 172.826H90.8221V171.475H99.0291V172.67ZM103.148 177.449C102.502 177.195 102.005 176.825 101.659 176.341C101.313 175.856 101.14 175.267 101.14 174.575C101.14 173.951 101.296 173.391 101.607 172.895C101.919 172.387 102.381 171.989 102.992 171.7C103.616 171.4 104.366 171.25 105.243 171.25C106.12 171.25 106.865 171.4 107.477 171.7C108.1 171.989 108.568 172.387 108.879 172.895C109.202 173.391 109.364 173.951 109.364 174.575C109.364 175.244 109.185 175.833 108.827 176.341C108.469 176.837 107.979 177.206 107.356 177.449C108.071 177.668 108.637 178.055 109.052 178.609C109.479 179.151 109.693 179.809 109.693 180.583C109.693 181.333 109.508 181.991 109.139 182.557C108.77 183.111 108.244 183.543 107.563 183.855C106.894 184.155 106.12 184.305 105.243 184.305C104.366 184.305 103.593 184.155 102.923 183.855C102.265 183.543 101.751 183.111 101.382 182.557C101.013 181.991 100.828 181.333 100.828 180.583C100.828 179.809 101.036 179.146 101.451 178.592C101.867 178.037 102.433 177.657 103.148 177.449ZM107.84 174.765C107.84 174.061 107.609 173.518 107.148 173.138C106.686 172.757 106.051 172.566 105.243 172.566C104.447 172.566 103.818 172.757 103.356 173.138C102.894 173.518 102.663 174.067 102.663 174.782C102.663 175.429 102.9 175.948 103.373 176.341C103.858 176.733 104.481 176.929 105.243 176.929C106.017 176.929 106.64 176.733 107.113 176.341C107.598 175.937 107.84 175.411 107.84 174.765ZM105.243 178.141C104.389 178.141 103.691 178.343 103.148 178.747C102.606 179.14 102.334 179.734 102.334 180.531C102.334 181.269 102.594 181.864 103.114 182.314C103.645 182.764 104.354 182.989 105.243 182.989C106.132 182.989 106.836 182.764 107.356 182.314C107.875 181.864 108.135 181.269 108.135 180.531C108.135 179.757 107.869 179.169 107.338 178.765C106.807 178.349 106.109 178.141 105.243 178.141ZM113.898 180.6C114.013 181.258 114.279 181.766 114.694 182.124C115.121 182.481 115.693 182.66 116.409 182.66C117.367 182.66 118.071 182.285 118.521 181.535C118.983 180.785 119.202 179.521 119.179 177.743C118.936 178.263 118.532 178.672 117.967 178.972C117.401 179.261 116.772 179.405 116.08 179.405C115.306 179.405 114.614 179.249 114.002 178.938C113.402 178.615 112.928 178.147 112.582 177.535C112.236 176.924 112.063 176.185 112.063 175.319C112.063 174.084 112.42 173.091 113.136 172.341C113.852 171.579 114.868 171.198 116.183 171.198C117.799 171.198 118.931 171.724 119.577 172.774C120.235 173.824 120.564 175.388 120.564 177.466C120.564 178.921 120.431 180.121 120.166 181.067C119.912 182.014 119.473 182.735 118.85 183.232C118.238 183.728 117.395 183.976 116.322 183.976C115.145 183.976 114.227 183.659 113.569 183.024C112.911 182.389 112.536 181.581 112.444 180.6H113.898ZM116.339 178.072C117.113 178.072 117.747 177.835 118.244 177.362C118.74 176.877 118.988 176.225 118.988 175.406C118.988 174.54 118.746 173.842 118.261 173.311C117.776 172.78 117.095 172.514 116.218 172.514C115.41 172.514 114.764 172.768 114.279 173.276C113.806 173.784 113.569 174.453 113.569 175.285C113.569 176.127 113.806 176.802 114.279 177.31C114.752 177.818 115.439 178.072 116.339 178.072ZM129.842 174.419C129.588 173.138 128.798 172.497 127.47 172.497C126.443 172.497 125.675 172.895 125.168 173.692C124.66 174.477 124.411 175.775 124.423 177.587C124.689 176.987 125.127 176.52 125.739 176.185C126.362 175.839 127.055 175.665 127.817 175.665C129.006 175.665 129.952 176.035 130.656 176.774C131.372 177.512 131.73 178.534 131.73 179.838C131.73 180.623 131.574 181.327 131.262 181.951C130.962 182.574 130.5 183.07 129.877 183.44C129.265 183.809 128.521 183.994 127.643 183.994C126.455 183.994 125.525 183.728 124.856 183.197C124.186 182.666 123.719 181.933 123.453 180.998C123.188 180.063 123.055 178.909 123.055 177.535C123.055 173.299 124.533 171.181 127.488 171.181C128.619 171.181 129.508 171.487 130.154 172.099C130.8 172.71 131.181 173.484 131.297 174.419H129.842ZM127.488 176.999C126.991 176.999 126.524 177.103 126.085 177.31C125.647 177.507 125.289 177.812 125.012 178.228C124.746 178.632 124.613 179.128 124.613 179.717C124.613 180.594 124.867 181.31 125.375 181.864C125.883 182.406 126.61 182.678 127.557 182.678C128.365 182.678 129.006 182.43 129.479 181.933C129.964 181.425 130.206 180.744 130.206 179.89C130.206 178.99 129.975 178.286 129.513 177.778C129.052 177.258 128.376 176.999 127.488 176.999ZM133.942 177.57C133.942 175.585 134.265 174.038 134.911 172.93C135.558 171.81 136.689 171.25 138.305 171.25C139.91 171.25 141.035 171.81 141.681 172.93C142.328 174.038 142.651 175.585 142.651 177.57C142.651 179.59 142.328 181.16 141.681 182.279C141.035 183.399 139.91 183.959 138.305 183.959C136.689 183.959 135.558 183.399 134.911 182.279C134.265 181.16 133.942 179.59 133.942 177.57ZM141.093 177.57C141.093 176.566 141.023 175.717 140.885 175.025C140.758 174.321 140.487 173.755 140.071 173.328C139.667 172.901 139.078 172.687 138.305 172.687C137.52 172.687 136.92 172.901 136.504 173.328C136.1 173.755 135.829 174.321 135.691 175.025C135.564 175.717 135.5 176.566 135.5 177.57C135.5 178.609 135.564 179.48 135.691 180.184C135.829 180.889 136.1 181.454 136.504 181.881C136.92 182.308 137.52 182.522 138.305 182.522C139.078 182.522 139.667 182.308 140.071 181.881C140.487 181.454 140.758 180.889 140.885 180.184C141.023 179.48 141.093 178.609 141.093 177.57ZM144.71 182.695C146.176 181.518 147.325 180.554 148.156 179.804C148.987 179.042 149.685 178.251 150.251 177.431C150.828 176.6 151.116 175.787 151.116 174.99C151.116 174.24 150.932 173.651 150.562 173.224C150.205 172.785 149.622 172.566 148.814 172.566C148.029 172.566 147.417 172.814 146.978 173.311C146.551 173.795 146.32 174.448 146.286 175.267H144.762C144.808 173.974 145.201 172.976 145.939 172.272C146.678 171.568 147.63 171.216 148.796 171.216C149.985 171.216 150.926 171.545 151.619 172.203C152.323 172.861 152.675 173.767 152.675 174.921C152.675 175.879 152.386 176.814 151.809 177.726C151.243 178.626 150.597 179.423 149.87 180.115C149.143 180.796 148.213 181.593 147.082 182.505H153.038V183.82H144.71V182.695ZM154.912 174.592C154.992 173.53 155.402 172.699 156.141 172.099C156.88 171.498 157.838 171.198 159.015 171.198C159.8 171.198 160.475 171.343 161.041 171.631C161.618 171.908 162.051 172.289 162.339 172.774C162.64 173.259 162.79 173.807 162.79 174.419C162.79 175.134 162.582 175.752 162.166 176.271C161.762 176.791 161.231 177.126 160.573 177.276V177.362C161.324 177.547 161.918 177.911 162.357 178.453C162.795 178.996 163.015 179.705 163.015 180.583C163.015 181.241 162.865 181.835 162.565 182.366C162.264 182.885 161.814 183.295 161.214 183.595C160.614 183.895 159.892 184.046 159.05 184.046C157.826 184.046 156.822 183.728 156.037 183.093C155.252 182.447 154.814 181.535 154.721 180.358H156.245C156.326 181.05 156.608 181.616 157.093 182.054C157.578 182.493 158.224 182.712 159.032 182.712C159.84 182.712 160.452 182.505 160.868 182.089C161.295 181.662 161.508 181.114 161.508 180.444C161.508 179.578 161.22 178.955 160.643 178.574C160.066 178.193 159.194 178.003 158.028 178.003H157.63V176.687H158.046C159.107 176.675 159.91 176.502 160.452 176.168C160.995 175.821 161.266 175.29 161.266 174.575C161.266 173.963 161.064 173.472 160.66 173.103C160.268 172.734 159.702 172.549 158.963 172.549C158.248 172.549 157.67 172.734 157.232 173.103C156.793 173.472 156.533 173.969 156.453 174.592H154.912Z" fill="black"/>
<rect x="28.819" y="163.7" width="143.958" height="27.4812" stroke="#FF0808" stroke-width="1.63799"/>
<path d="M230.425 156L244.883 105L258.296 130.423L230.425 156Z" fill="#028C3C"/>
<path d="M221.321 156L235.78 105L249.193 130.423L221.321 156Z" fill="#FE7A09"/>
</g>
<defs>
<clipPath id="clip0_5244_105348">
<rect width="480" height="220" fill="white"/>
</clipPath>
</defs>
</svg>
