<svg width="480" height="220" viewBox="0 0 480 220" fill="none" xmlns="http://www.w3.org/2000/svg">
<rect width="480" height="220" fill="white"/>
<path d="M28.4608 31.9592V33.1314H23.6612V36.8539H27.5579V38.0261H23.6612V43H22.2197V31.9592H28.4608ZM36.0944 43L33.4649 38.4855H31.7225V43H30.281V31.9592H33.8451C34.6793 31.9592 35.3816 32.1018 35.9518 32.3869C36.5327 32.6721 36.9656 33.0575 37.2508 33.5433C37.5359 34.0291 37.6784 34.5835 37.6784 35.2065C37.6784 35.9669 37.4567 36.6374 37.0131 37.2183C36.5802 37.7991 35.9254 38.1845 35.0489 38.3746L37.821 43H36.0944ZM31.7225 37.3291H33.8451C34.6265 37.3291 35.2126 37.1391 35.6034 36.7589C35.9941 36.3682 36.1894 35.8507 36.1894 35.2065C36.1894 34.5518 35.9941 34.0449 35.6034 33.6859C35.2232 33.3268 34.6371 33.1473 33.8451 33.1473H31.7225V37.3291ZM45.003 43.1109C43.9787 43.1109 43.0441 42.8733 42.1993 42.3981C41.3544 41.9123 40.6839 41.2417 40.1875 40.3863C39.7018 39.5204 39.4589 38.5489 39.4589 37.4717C39.4589 36.3946 39.7018 35.4283 40.1875 34.5729C40.6839 33.707 41.3544 33.0364 42.1993 32.5612C43.0441 32.0754 43.9787 31.8325 45.003 31.8325C46.0379 31.8325 46.9778 32.0754 47.8226 32.5612C48.6674 33.0364 49.3327 33.7017 49.8185 34.5571C50.3043 35.4125 50.5472 36.384 50.5472 37.4717C50.5472 38.5594 50.3043 39.531 49.8185 40.3863C49.3327 41.2417 48.6674 41.9123 47.8226 42.3981C46.9778 42.8733 46.0379 43.1109 45.003 43.1109ZM45.003 41.8595C45.7739 41.8595 46.4656 41.68 47.0781 41.3209C47.7012 40.9619 48.1869 40.4497 48.5354 39.7844C48.8945 39.1191 49.074 38.3482 49.074 37.4717C49.074 36.5846 48.8945 35.8137 48.5354 35.159C48.1869 34.4937 47.7064 33.9815 47.0939 33.6225C46.4815 33.2634 45.7845 33.0839 45.003 33.0839C44.2216 33.0839 43.5246 33.2634 42.9121 33.6225C42.2996 33.9815 41.8138 34.4937 41.4548 35.159C41.1063 35.8137 40.932 36.5846 40.932 37.4717C40.932 38.3482 41.1063 39.1191 41.4548 39.7844C41.8138 40.4497 42.2996 40.9619 42.9121 41.3209C43.5351 41.68 44.2321 41.8595 45.003 41.8595ZM63.7285 32.0385V43H62.287V34.8264L58.6437 43H57.6299L53.9708 34.8105V43H52.5293V32.0385H54.0817L58.1368 41.0992L62.1919 32.0385H63.7285Z" fill="#CCCCCC"/>
<path d="M28.2676 89.8711C27.1266 89.8711 26.0951 89.6758 25.173 89.285C24.2665 88.8943 23.5476 88.3317 23.0162 87.5971C22.4848 86.8625 22.2113 85.9951 22.1956 84.9948H25.7122C25.7591 85.6669 25.9935 86.1983 26.4155 86.589C26.8531 86.9797 27.447 87.1751 28.1972 87.1751C28.9631 87.1751 29.5648 86.9954 30.0024 86.6359C30.44 86.2608 30.6588 85.7763 30.6588 85.1824C30.6588 84.6979 30.5104 84.2993 30.2134 83.9868C29.9164 83.6742 29.5413 83.4319 29.0881 83.26C28.6505 83.0724 28.0409 82.8693 27.2595 82.6505C26.1967 82.3379 25.3293 82.0331 24.6572 81.7361C24.0008 81.4236 23.4303 80.9625 22.9458 80.353C22.477 79.7278 22.2425 78.8995 22.2425 77.8679C22.2425 76.8989 22.4848 76.0549 22.9693 75.336C23.4538 74.6171 24.1337 74.07 25.0089 73.6949C25.8841 73.3042 26.8844 73.1088 28.0097 73.1088C29.6976 73.1088 31.0652 73.523 32.1123 74.3514C33.1751 75.1641 33.7612 76.305 33.8706 77.7742H30.2603C30.229 77.2115 29.9868 76.7504 29.5335 76.391C29.0959 76.0159 28.5098 75.8283 27.7753 75.8283C27.1345 75.8283 26.6187 75.9924 26.228 76.3206C25.8529 76.6488 25.6653 77.1255 25.6653 77.7507C25.6653 78.1883 25.806 78.5556 26.0873 78.8526C26.3843 79.1339 26.7437 79.3683 27.1657 79.5559C27.6033 79.7278 28.2129 79.931 28.9943 80.1654C30.0571 80.478 30.9245 80.7906 31.5966 81.1032C32.2686 81.4157 32.8469 81.8846 33.3314 82.5098C33.8159 83.135 34.0582 83.9555 34.0582 84.9714C34.0582 85.8466 33.8316 86.6593 33.3783 87.4095C32.9251 88.1597 32.2608 88.7615 31.3856 89.2147C30.5104 89.6523 29.471 89.8711 28.2676 89.8711ZM40.8422 79.4152V85.6981C40.8422 86.1358 40.9438 86.4562 41.147 86.6593C41.3658 86.8469 41.7253 86.9407 42.2254 86.9407H43.7493V89.707H41.6862C38.9198 89.707 37.5367 88.3629 37.5367 85.6747V79.4152H35.9894V76.7192H37.5367V73.5074H40.8422V76.7192H43.7493V79.4152H40.8422ZM45.3832 83.1662C45.3832 81.8534 45.6411 80.689 46.1568 79.6731C46.6882 78.6572 47.3993 77.8757 48.2902 77.3287C49.1967 76.7817 50.2048 76.5082 51.3144 76.5082C52.2835 76.5082 53.1274 76.7036 53.8464 77.0943C54.5809 77.485 55.167 77.9773 55.6047 78.5712V76.7192H58.9102V89.707H55.6047V87.8081C55.1827 88.4176 54.5966 88.9256 53.8464 89.3319C53.1118 89.7227 52.26 89.918 51.291 89.918C50.197 89.918 49.1967 89.6367 48.2902 89.074C47.3993 88.5114 46.6882 87.7221 46.1568 86.7062C45.6411 85.6747 45.3832 84.4947 45.3832 83.1662ZM55.6047 83.2131C55.6047 82.416 55.4484 81.7361 55.1358 81.1735C54.8232 80.5952 54.4012 80.1576 53.8698 79.8606C53.3384 79.5481 52.768 79.3918 52.1584 79.3918C51.5489 79.3918 50.9862 79.5402 50.4705 79.8372C49.9547 80.1342 49.5327 80.5718 49.2045 81.1501C48.8919 81.7127 48.7356 82.3848 48.7356 83.1662C48.7356 83.9477 48.8919 84.6354 49.2045 85.2293C49.5327 85.8075 49.9547 86.253 50.4705 86.5656C51.0019 86.8781 51.5645 87.0344 52.1584 87.0344C52.768 87.0344 53.3384 86.886 53.8698 86.589C54.4012 86.2764 54.8232 85.8388 55.1358 85.2762C55.4484 84.6979 55.6047 84.0102 55.6047 83.2131ZM66.0544 79.4152V85.6981C66.0544 86.1358 66.1559 86.4562 66.3591 86.6593C66.5779 86.8469 66.9374 86.9407 67.4375 86.9407H68.9614V89.707H66.8983C64.132 89.707 62.7488 88.3629 62.7488 85.6747V79.4152H61.2015V76.7192H62.7488V73.5074H66.0544V76.7192H68.9614V79.4152H66.0544ZM83.5128 82.9318C83.5128 83.4007 83.4816 83.8226 83.419 84.1977H73.9243C74.0025 85.1355 74.3307 85.8701 74.909 86.4015C75.4872 86.9329 76.1984 87.1985 77.0423 87.1985C78.2614 87.1985 79.1288 86.675 79.6446 85.6278H83.1846C82.8095 86.8781 82.0906 87.9097 81.0278 88.7224C79.965 89.5195 78.66 89.918 77.1127 89.918C75.8623 89.918 74.737 89.6445 73.7368 89.0975C72.7521 88.5348 71.9785 87.7456 71.4158 86.7297C70.8688 85.7138 70.5953 84.5416 70.5953 83.2131C70.5953 81.869 70.8688 80.689 71.4158 79.6731C71.9629 78.6572 72.7287 77.8757 73.7133 77.3287C74.698 76.7817 75.8311 76.5082 77.1127 76.5082C78.3474 76.5082 79.4492 76.7739 80.4182 77.3053C81.4029 77.8367 82.1609 78.5947 82.6923 79.5793C83.2393 80.5483 83.5128 81.6658 83.5128 82.9318ZM80.1135 81.994C80.0978 81.1501 79.7931 80.478 79.1992 79.9779C78.6053 79.4621 77.8785 79.2042 77.0189 79.2042C76.2062 79.2042 75.5185 79.4543 74.9558 79.9544C74.4088 80.4389 74.0728 81.1188 73.9478 81.994H80.1135ZM101.013 81.3142C101.935 81.4861 102.693 81.9471 103.287 82.6973C103.881 83.4475 104.178 84.3071 104.178 85.2762C104.178 86.1514 103.959 86.925 103.521 87.5971C103.099 88.2535 102.482 88.7693 101.669 89.1444C100.857 89.5195 99.8954 89.707 98.7857 89.707H91.7291V73.3433H98.4809C99.5906 73.3433 100.544 73.523 101.341 73.8825C102.154 74.242 102.763 74.7421 103.17 75.3829C103.592 76.0237 103.803 76.7504 103.803 77.5632C103.803 78.5165 103.545 79.3136 103.029 79.9544C102.529 80.5952 101.857 81.0485 101.013 81.3142ZM95.0113 80.0951H98.0121C98.7935 80.0951 99.3952 79.9232 99.8172 79.5793C100.239 79.2198 100.45 78.7119 100.45 78.0555C100.45 77.399 100.239 76.8911 99.8172 76.5316C99.3952 76.1722 98.7935 75.9924 98.0121 75.9924H95.0113V80.0951ZM98.3168 87.0344C99.1139 87.0344 99.7313 86.8469 100.169 86.4718C100.622 86.0967 100.849 85.5653 100.849 84.8776C100.849 84.1743 100.614 83.6273 100.145 83.2365C99.6766 82.8302 99.0436 82.627 98.2465 82.627H95.0113V87.0344H98.3168ZM106.067 83.1662C106.067 81.8534 106.325 80.689 106.84 79.6731C107.372 78.6572 108.083 77.8757 108.974 77.3287C109.88 76.7817 110.888 76.5082 111.998 76.5082C112.967 76.5082 113.811 76.7036 114.53 77.0943C115.265 77.485 115.851 77.9773 116.288 78.5712V76.7192H119.594V89.707H116.288V87.8081C115.866 88.4176 115.28 88.9256 114.53 89.3319C113.795 89.7227 112.944 89.918 111.975 89.918C110.881 89.918 109.88 89.6367 108.974 89.074C108.083 88.5114 107.372 87.7221 106.84 86.7062C106.325 85.6747 106.067 84.4947 106.067 83.1662ZM116.288 83.2131C116.288 82.416 116.132 81.7361 115.819 81.1735C115.507 80.5952 115.085 80.1576 114.553 79.8606C114.022 79.5481 113.452 79.3918 112.842 79.3918C112.233 79.3918 111.67 79.5402 111.154 79.8372C110.638 80.1342 110.216 80.5718 109.888 81.1501C109.576 81.7127 109.419 82.3848 109.419 83.1662C109.419 83.9477 109.576 84.6354 109.888 85.2293C110.216 85.8075 110.638 86.253 111.154 86.5656C111.686 86.8781 112.248 87.0344 112.842 87.0344C113.452 87.0344 114.022 86.886 114.553 86.589C115.085 86.2764 115.507 85.8388 115.819 85.2762C116.132 84.6979 116.288 84.0102 116.288 83.2131ZM130.114 76.5316C131.661 76.5316 132.912 77.0239 133.865 78.0086C134.818 78.9776 135.295 80.3373 135.295 82.0878V89.707H132.013V82.5332C132.013 81.5017 131.755 80.7124 131.239 80.1654C130.723 79.6028 130.02 79.3214 129.129 79.3214C128.223 79.3214 127.504 79.6028 126.972 80.1654C126.457 80.7124 126.199 81.5017 126.199 82.5332V89.707H122.917V76.7192H126.199V78.3368C126.636 77.7742 127.191 77.3365 127.863 77.0239C128.551 76.6957 129.301 76.5316 130.114 76.5316ZM146.223 89.707L141.815 84.1743V89.707H138.533V72.3586H141.815V82.2285L146.176 76.7192H150.443L144.722 83.2365L150.49 89.707H146.223ZM163.812 89.918C162.562 89.918 161.436 89.6445 160.436 89.0975C159.436 88.5348 158.647 87.7456 158.068 86.7297C157.506 85.7138 157.224 84.5416 157.224 83.2131C157.224 81.8846 157.513 80.7124 158.092 79.6965C158.686 78.6806 159.49 77.8992 160.506 77.3522C161.522 76.7895 162.655 76.5082 163.906 76.5082C165.156 76.5082 166.289 76.7895 167.305 77.3522C168.321 77.8992 169.118 78.6806 169.696 79.6965C170.29 80.7124 170.587 81.8846 170.587 83.2131C170.587 84.5416 170.282 85.7138 169.673 86.7297C169.079 87.7456 168.266 88.5348 167.235 89.0975C166.219 89.6445 165.078 89.918 163.812 89.918ZM163.812 87.0579C164.406 87.0579 164.961 86.9172 165.476 86.6359C166.008 86.3389 166.43 85.9013 166.742 85.323C167.055 84.7448 167.211 84.0415 167.211 83.2131C167.211 81.9784 166.883 81.0328 166.227 80.3764C165.586 79.7044 164.797 79.3683 163.859 79.3683C162.921 79.3683 162.132 79.7044 161.491 80.3764C160.866 81.0328 160.553 81.9784 160.553 83.2131C160.553 84.4478 160.858 85.4012 161.468 86.0732C162.093 86.7297 162.874 87.0579 163.812 87.0579ZM179.067 79.4152H176.793V89.707H173.464V79.4152H171.987V76.7192H173.464V76.0628C173.464 74.4686 173.917 73.2964 174.823 72.5462C175.73 71.796 177.097 71.4443 178.926 71.4912V74.2576C178.129 74.242 177.574 74.3748 177.262 74.6561C176.949 74.9375 176.793 75.4454 176.793 76.18V76.7192H179.067V79.4152ZM190.296 73.3433V89.707H187.014V73.3433H190.296ZM200.854 76.5316C202.401 76.5316 203.651 77.0239 204.605 78.0086C205.558 78.9776 206.035 80.3373 206.035 82.0878V89.707H202.753V82.5332C202.753 81.5017 202.495 80.7124 201.979 80.1654C201.463 79.6028 200.76 79.3214 199.869 79.3214C198.963 79.3214 198.244 79.6028 197.712 80.1654C197.196 80.7124 196.939 81.5017 196.939 82.5332V89.707H193.656V76.7192H196.939V78.3368C197.376 77.7742 197.931 77.3365 198.603 77.0239C199.291 76.6957 200.041 76.5316 200.854 76.5316ZM208.429 83.1662C208.429 81.8534 208.687 80.689 209.203 79.6731C209.734 78.6572 210.453 77.8757 211.36 77.3287C212.266 76.7817 213.274 76.5082 214.384 76.5082C215.228 76.5082 216.033 76.6957 216.799 77.0708C217.564 77.4303 218.174 77.9148 218.627 78.5244V72.3586H221.956V89.707H218.627V87.7846C218.221 88.4254 217.65 88.9412 216.916 89.3319C216.181 89.7227 215.329 89.918 214.36 89.918C213.266 89.918 212.266 89.6367 211.36 89.074C210.453 88.5114 209.734 87.7221 209.203 86.7062C208.687 85.6747 208.429 84.4947 208.429 83.1662ZM218.651 83.2131C218.651 82.416 218.494 81.7361 218.182 81.1735C217.869 80.5952 217.447 80.1576 216.916 79.8606C216.384 79.5481 215.814 79.3918 215.204 79.3918C214.595 79.3918 214.032 79.5402 213.516 79.8372C213.001 80.1342 212.579 80.5718 212.25 81.1501C211.938 81.7127 211.782 82.3848 211.782 83.1662C211.782 83.9477 211.938 84.6354 212.25 85.2293C212.579 85.8075 213.001 86.253 213.516 86.5656C214.048 86.8781 214.61 87.0344 215.204 87.0344C215.814 87.0344 216.384 86.886 216.916 86.589C217.447 86.2764 217.869 85.8388 218.182 85.2762C218.494 84.6979 218.651 84.0102 218.651 83.2131ZM226.943 75.1719C226.365 75.1719 225.881 74.9922 225.49 74.6327C225.115 74.2576 224.927 73.7965 224.927 73.2495C224.927 72.7025 225.115 72.2492 225.49 71.8898C225.881 71.5147 226.365 71.3271 226.943 71.3271C227.522 71.3271 227.998 71.5147 228.374 71.8898C228.764 72.2492 228.96 72.7025 228.96 73.2495C228.96 73.7965 228.764 74.2576 228.374 74.6327C227.998 74.9922 227.522 75.1719 226.943 75.1719ZM228.561 76.7192V89.707H225.279V76.7192H228.561ZM231.077 83.1662C231.077 81.8534 231.335 80.689 231.851 79.6731C232.382 78.6572 233.093 77.8757 233.984 77.3287C234.891 76.7817 235.899 76.5082 237.008 76.5082C237.977 76.5082 238.821 76.7036 239.54 77.0943C240.275 77.485 240.861 77.9773 241.299 78.5712V76.7192H244.604V89.707H241.299V87.8081C240.877 88.4176 240.29 88.9256 239.54 89.3319C238.806 89.7227 237.954 89.918 236.985 89.918C235.891 89.918 234.891 89.6367 233.984 89.074C233.093 88.5114 232.382 87.7221 231.851 86.7062C231.335 85.6747 231.077 84.4947 231.077 83.1662ZM241.299 83.2131C241.299 82.416 241.142 81.7361 240.83 81.1735C240.517 80.5952 240.095 80.1576 239.564 79.8606C239.032 79.5481 238.462 79.3918 237.852 79.3918C237.243 79.3918 236.68 79.5402 236.164 79.8372C235.649 80.1342 235.227 80.5718 234.898 81.1501C234.586 81.7127 234.43 82.3848 234.43 83.1662C234.43 83.9477 234.586 84.6354 234.898 85.2293C235.227 85.8075 235.649 86.253 236.164 86.5656C236.696 86.8781 237.258 87.0344 237.852 87.0344C238.462 87.0344 239.032 86.886 239.564 86.589C240.095 86.2764 240.517 85.8388 240.83 85.2762C241.142 84.6979 241.299 84.0102 241.299 83.2131Z" fill="black"/>
<path d="M30.094 131.086H24.4405L23.399 133.969H21.6137L26.3002 121.081H28.2529L32.9208 133.969H31.1355L30.094 131.086ZM29.6105 129.71L27.2673 123.164L24.924 129.71H29.6105ZM41.3794 116.45L36.2837 137.13H34.61L39.687 116.45H41.3794ZM43.3616 128.855C43.3616 127.801 43.5723 126.883 43.9939 126.102C44.4154 125.309 44.9981 124.695 45.742 124.261C46.4983 123.827 47.36 123.61 48.327 123.61C49.5792 123.61 50.6083 123.914 51.4142 124.521C52.2324 125.129 52.7718 125.972 53.0321 127.051H51.2096C51.036 126.431 50.6951 125.941 50.1867 125.581C49.6908 125.222 49.0709 125.042 48.327 125.042C47.36 125.042 46.5789 125.377 45.9838 126.046C45.3887 126.703 45.0911 127.639 45.0911 128.855C45.0911 130.082 45.3887 131.03 45.9838 131.7C46.5789 132.369 47.36 132.704 48.327 132.704C49.0709 132.704 49.6908 132.531 50.1867 132.183C50.6827 131.836 51.0236 131.34 51.2096 130.696H53.0321C52.7594 131.737 52.2138 132.574 51.3956 133.206C50.5773 133.826 49.5544 134.136 48.327 134.136C47.36 134.136 46.4983 133.919 45.742 133.485C44.9981 133.051 44.4154 132.438 43.9939 131.644C43.5723 130.851 43.3616 129.921 43.3616 128.855ZM70.6255 133.969H68.9332L62.1266 123.647V133.969H60.4343V120.988H62.1266L68.9332 131.291V120.988H70.6255V133.969ZM78.0481 134.136C77.0935 134.136 76.2256 133.919 75.4445 133.485C74.6759 133.051 74.0683 132.438 73.622 131.644C73.1881 130.838 72.9711 129.908 72.9711 128.855C72.9711 127.813 73.1943 126.896 73.6406 126.102C74.0993 125.296 74.7192 124.683 75.5003 124.261C76.2814 123.827 77.1555 123.61 78.1225 123.61C79.0896 123.61 79.9637 123.827 80.7447 124.261C81.5258 124.683 82.1395 125.29 82.5859 126.084C83.0446 126.877 83.274 127.801 83.274 128.855C83.274 129.908 83.0384 130.838 82.5673 131.644C82.1085 132.438 81.4824 133.051 80.689 133.485C79.8955 133.919 79.0152 134.136 78.0481 134.136ZM78.0481 132.648C78.6557 132.648 79.226 132.506 79.7591 132.221C80.2922 131.935 80.7199 131.508 81.0423 130.937C81.3771 130.367 81.5444 129.673 81.5444 128.855C81.5444 128.036 81.3833 127.342 81.0609 126.772C80.7385 126.201 80.317 125.78 79.7963 125.507C79.2756 125.222 78.7114 125.079 78.1039 125.079C77.484 125.079 76.9137 125.222 76.393 125.507C75.8847 125.78 75.4755 126.201 75.1656 126.772C74.8556 127.342 74.7006 128.036 74.7006 128.855C74.7006 129.685 74.8494 130.386 75.147 130.956C75.4569 131.526 75.8661 131.954 76.3744 132.239C76.8827 132.512 77.4406 132.648 78.0481 132.648ZM86.1314 134.08C85.8091 134.08 85.5363 133.969 85.3131 133.746C85.09 133.522 84.9784 133.25 84.9784 132.927C84.9784 132.605 85.09 132.332 85.3131 132.109C85.5363 131.886 85.8091 131.774 86.1314 131.774C86.4414 131.774 86.7017 131.886 86.9125 132.109C87.1357 132.332 87.2472 132.605 87.2472 132.927C87.2472 133.25 87.1357 133.522 86.9125 133.746C86.7017 133.969 86.4414 134.08 86.1314 134.08ZM99.941 127.497L103.921 133.969H102.005L98.8996 128.91L95.9426 133.969H94.0643L98.0255 127.497L94.0457 121.006H95.9426L99.0669 126.084L102.042 121.006H103.939L99.941 127.497ZM111.585 127.497L115.564 133.969H113.649L110.543 128.91L107.586 133.969H105.708L109.669 127.497L105.689 121.006H107.586L110.711 126.084L113.686 121.006H115.583L111.585 127.497ZM123.228 127.497L127.208 133.969H125.293L122.187 128.91L119.23 133.969H117.351L121.313 127.497L117.333 121.006H119.23L122.354 126.084L125.33 121.006H127.227L123.228 127.497ZM134.872 127.497L138.852 133.969H136.936L133.83 128.91L130.873 133.969H128.995L132.956 127.497L128.977 121.006H130.873L133.998 126.084L136.973 121.006H138.87L134.872 127.497ZM151.566 127.497L155.546 133.969H153.631L150.525 128.91L147.568 133.969H145.69L149.651 127.497L145.671 121.006H147.568L150.692 126.084L153.668 121.006H155.565L151.566 127.497ZM163.21 127.497L167.19 133.969H165.274L162.169 128.91L159.212 133.969H157.333L161.295 127.497L157.315 121.006H159.212L162.336 126.084L165.312 121.006H167.208L163.21 127.497ZM174.854 127.497L178.833 133.969H176.918L173.812 128.91L170.855 133.969H168.977L172.938 127.497L168.958 121.006H170.855L173.98 126.084L176.955 121.006H178.852L174.854 127.497ZM186.497 127.497L190.477 133.969H188.562L185.456 128.91L182.499 133.969H180.621L184.582 127.497L180.602 121.006H182.499L185.623 126.084L188.599 121.006H190.496L186.497 127.497ZM203.192 127.497L207.172 133.969H205.256L202.15 128.91L199.194 133.969H197.315L201.276 127.497L197.297 121.006H199.194L202.318 126.084L205.293 121.006H207.19L203.192 127.497ZM214.836 127.497L218.815 133.969H216.9L213.794 128.91L210.837 133.969H208.959L212.92 127.497L208.94 121.006H210.837L213.961 126.084L216.937 121.006H218.834L214.836 127.497ZM226.479 127.497L230.459 133.969H228.543L225.438 128.91L222.481 133.969H220.602L224.564 127.497L220.584 121.006H222.481L225.605 126.084L228.581 121.006H230.478L226.479 127.497ZM238.123 127.497L242.103 133.969H240.187L237.081 128.91L234.124 133.969H232.246L236.207 127.497L232.227 121.006H234.124L237.249 126.084L240.224 121.006H242.121L238.123 127.497ZM254.817 127.497L258.797 133.969H256.882L253.776 128.91L250.819 133.969H248.941L252.902 127.497L248.922 121.006H250.819L253.943 126.084L256.919 121.006H258.816L254.817 127.497ZM269.455 121.992H262.928V126.232C263.213 125.836 263.634 125.513 264.192 125.265C264.75 125.005 265.351 124.875 265.996 124.875C267.025 124.875 267.862 125.092 268.507 125.526C269.151 125.947 269.61 126.499 269.883 127.181C270.168 127.85 270.311 128.563 270.311 129.319C270.311 130.212 270.143 131.012 269.809 131.718C269.474 132.425 268.959 132.983 268.265 133.392C267.583 133.801 266.734 134.006 265.717 134.006C264.415 134.006 263.361 133.671 262.556 133.002C261.75 132.332 261.26 131.44 261.086 130.324H262.742C262.903 131.03 263.244 131.582 263.764 131.979C264.285 132.376 264.942 132.574 265.736 132.574C266.715 132.574 267.453 132.283 267.949 131.7C268.445 131.105 268.693 130.324 268.693 129.357C268.693 128.39 268.445 127.646 267.949 127.125C267.453 126.592 266.721 126.325 265.754 126.325C265.097 126.325 264.521 126.486 264.025 126.809C263.541 127.119 263.188 127.547 262.965 128.092H261.365V120.504H269.455V121.992ZM272.243 130.975V129.691L278.771 120.653H280.798V129.505H282.658V130.975H280.798V133.969H279.124V130.975H272.243ZM279.199 122.42L274.196 129.505H279.199V122.42ZM286.896 126.976C286.202 126.703 285.669 126.307 285.297 125.786C284.925 125.265 284.739 124.633 284.739 123.889C284.739 123.22 284.906 122.618 285.241 122.085C285.576 121.54 286.072 121.112 286.729 120.802C287.398 120.48 288.204 120.318 289.147 120.318C290.089 120.318 290.888 120.48 291.546 120.802C292.215 121.112 292.717 121.54 293.052 122.085C293.399 122.618 293.573 123.22 293.573 123.889C293.573 124.608 293.381 125.24 292.996 125.786C292.612 126.319 292.085 126.716 291.415 126.976C292.184 127.212 292.792 127.627 293.238 128.222C293.697 128.805 293.926 129.512 293.926 130.342C293.926 131.148 293.728 131.855 293.331 132.462C292.934 133.057 292.37 133.522 291.639 133.857C290.919 134.18 290.089 134.341 289.147 134.341C288.204 134.341 287.374 134.18 286.655 133.857C285.948 133.522 285.396 133.057 284.999 132.462C284.603 131.855 284.404 131.148 284.404 130.342C284.404 129.512 284.627 128.799 285.074 128.204C285.52 127.608 286.128 127.199 286.896 126.976ZM291.936 124.094C291.936 123.337 291.688 122.755 291.192 122.345C290.696 121.936 290.014 121.732 289.147 121.732C288.291 121.732 287.615 121.936 287.119 122.345C286.624 122.755 286.376 123.344 286.376 124.112C286.376 124.807 286.63 125.364 287.138 125.786C287.659 126.208 288.328 126.418 289.147 126.418C289.977 126.418 290.647 126.208 291.155 125.786C291.676 125.352 291.936 124.788 291.936 124.094ZM289.147 127.72C288.229 127.72 287.479 127.937 286.896 128.371C286.314 128.793 286.022 129.431 286.022 130.286C286.022 131.08 286.301 131.718 286.859 132.202C287.429 132.686 288.192 132.927 289.147 132.927C290.101 132.927 290.857 132.686 291.415 132.202C291.973 131.718 292.252 131.08 292.252 130.286C292.252 129.456 291.967 128.824 291.397 128.39C290.826 127.943 290.076 127.72 289.147 127.72ZM301.113 132.611C302.688 131.347 303.921 130.311 304.814 129.505C305.707 128.687 306.457 127.838 307.064 126.958C307.684 126.065 307.994 125.191 307.994 124.335C307.994 123.53 307.796 122.897 307.399 122.438C307.015 121.967 306.389 121.732 305.521 121.732C304.678 121.732 304.02 121.998 303.549 122.531C303.091 123.052 302.843 123.753 302.805 124.633H301.169C301.219 123.244 301.64 122.172 302.434 121.416C303.227 120.659 304.25 120.281 305.502 120.281C306.779 120.281 307.79 120.635 308.533 121.341C309.29 122.048 309.668 123.021 309.668 124.261C309.668 125.29 309.358 126.294 308.738 127.274C308.13 128.241 307.436 129.096 306.655 129.84C305.874 130.572 304.876 131.427 303.661 132.407H310.058V133.82H301.113V132.611Z" fill="black"/>
<rect x="21" y="155.191" width="43.984" height="1.75936" fill="#E3E3E3"/>
<path d="M23.6295 177.989V184.974C23.6295 185.956 23.8671 186.685 24.3423 187.16C24.8281 187.635 25.4987 187.873 26.3541 187.873C27.1989 187.873 27.8589 187.635 28.3341 187.16C28.8199 186.685 29.0628 185.956 29.0628 184.974V177.989H30.5042V184.958C30.5042 185.877 30.3194 186.653 29.9498 187.287C29.5802 187.91 29.0786 188.375 28.445 188.681C27.8219 188.987 27.1197 189.14 26.3382 189.14C25.5568 189.14 24.8492 188.987 24.2156 188.681C23.5925 188.375 23.0962 187.91 22.7266 187.287C22.3676 186.653 22.188 185.877 22.188 184.958V177.989H23.6295ZM40.3697 181.22C40.3697 182.139 40.0529 182.904 39.4193 183.517C38.7962 184.119 37.8405 184.42 36.5522 184.42H34.4296V189.029H32.9881V177.989H36.5522C37.7983 177.989 38.7434 178.29 39.3876 178.891C40.0423 179.493 40.3697 180.27 40.3697 181.22ZM36.5522 183.232C37.3547 183.232 37.9461 183.057 38.3263 182.709C38.7065 182.36 38.8965 181.864 38.8965 181.22C38.8965 179.858 38.1151 179.177 36.5522 179.177H34.4296V183.232H36.5522ZM43.682 177.989V189.029H42.2405V177.989H43.682ZM56.3336 189.029L53.7041 184.515H51.9617V189.029H50.5202V177.989H54.0843C54.9185 177.989 55.6208 178.131 56.191 178.416C56.7718 178.701 57.2048 179.087 57.4899 179.573C57.7751 180.058 57.9176 180.613 57.9176 181.236C57.9176 181.996 57.6959 182.667 57.2523 183.248C56.8194 183.828 56.1646 184.214 55.2881 184.404L58.0602 189.029H56.3336ZM51.9617 183.358H54.0843C54.8657 183.358 55.4518 183.168 55.8425 182.788C56.2333 182.397 56.4286 181.88 56.4286 181.236C56.4286 180.581 56.2333 180.074 55.8425 179.715C55.4624 179.356 54.8763 179.177 54.0843 179.177H51.9617V183.358ZM68.1568 184.356C68.1568 184.631 68.141 184.921 68.1093 185.228H61.1712C61.224 186.083 61.5144 186.754 62.0424 187.239C62.581 187.715 63.2305 187.952 63.9908 187.952C64.6139 187.952 65.1313 187.81 65.5432 187.524C65.9656 187.229 66.2613 186.838 66.4302 186.352H67.9826C67.7503 187.187 67.2856 187.868 66.5886 188.396C65.8917 188.913 65.0257 189.172 63.9908 189.172C63.1671 189.172 62.4279 188.987 61.7732 188.617C61.129 188.248 60.6221 187.725 60.2525 187.049C59.8829 186.363 59.6981 185.571 59.6981 184.673C59.6981 183.776 59.8776 182.989 60.2366 182.313C60.5957 181.637 61.0973 181.12 61.7415 180.761C62.3962 180.391 63.146 180.206 63.9908 180.206C64.8145 180.206 65.5432 180.386 66.1768 180.745C66.8104 181.104 67.2962 181.6 67.6341 182.234C67.9826 182.857 68.1568 183.564 68.1568 184.356ZM66.6678 184.055C66.6678 183.506 66.5464 183.036 66.3035 182.646C66.0606 182.244 65.728 181.943 65.3056 181.743C64.8937 181.532 64.4343 181.426 63.9275 181.426C63.1988 181.426 62.5757 181.658 62.0583 182.123C61.5514 182.588 61.261 183.232 61.1871 184.055H66.6678ZM73.6712 181.537H71.8495V189.029H70.408V181.537H69.2834V180.349H70.408V179.731C70.408 178.759 70.6562 178.052 71.1525 177.608C71.6594 177.154 72.4673 176.927 73.5761 176.927V178.131C72.9425 178.131 72.4937 178.258 72.2297 178.511C71.9762 178.754 71.8495 179.161 71.8495 179.731V180.349H73.6712V181.537ZM83.3512 184.356C83.3512 184.631 83.3354 184.921 83.3037 185.228H76.3656C76.4184 186.083 76.7088 186.754 77.2368 187.239C77.7754 187.715 78.4249 187.952 79.1852 187.952C79.8083 187.952 80.3257 187.81 80.7376 187.524C81.16 187.229 81.4557 186.838 81.6246 186.352H83.177C82.9447 187.187 82.48 187.868 81.783 188.396C81.0861 188.913 80.2201 189.172 79.1852 189.172C78.3615 189.172 77.6223 188.987 76.9676 188.617C76.3234 188.248 75.8165 187.725 75.4469 187.049C75.0773 186.363 74.8925 185.571 74.8925 184.673C74.8925 183.776 75.072 182.989 75.431 182.313C75.7901 181.637 76.2917 181.12 76.9359 180.761C77.5906 180.391 78.3404 180.206 79.1852 180.206C80.0089 180.206 80.7376 180.386 81.3712 180.745C82.0048 181.104 82.4906 181.6 82.8285 182.234C83.177 182.857 83.3512 183.564 83.3512 184.356ZM81.8622 184.055C81.8622 183.506 81.7408 183.036 81.4979 182.646C81.255 182.244 80.9224 181.943 80.5 181.743C80.0881 181.532 79.6287 181.426 79.1219 181.426C78.3932 181.426 77.7701 181.658 77.2527 182.123C76.7458 182.588 76.4554 183.232 76.3815 184.055H81.8622ZM86.7746 181.759C87.0281 181.262 87.3871 180.877 87.8518 180.602C88.327 180.328 88.9025 180.19 89.5784 180.19V181.679H89.1982C87.5825 181.679 86.7746 182.556 86.7746 184.309V189.029H85.3331V180.349H86.7746V181.759ZM99.2417 184.356C99.2417 184.631 99.2259 184.921 99.1942 185.228H92.2561C92.3089 186.083 92.5993 186.754 93.1274 187.239C93.6659 187.715 94.3154 187.952 95.0757 187.952C95.6988 187.952 96.2162 187.81 96.6281 187.524C97.0505 187.229 97.3462 186.838 97.5151 186.352H99.0675C98.8352 187.187 98.3705 187.868 97.6736 188.396C96.9766 188.913 96.1106 189.172 95.0757 189.172C94.252 189.172 93.5128 188.987 92.8581 188.617C92.2139 188.248 91.707 187.725 91.3374 187.049C90.9678 186.363 90.783 185.571 90.783 184.673C90.783 183.776 90.9625 182.989 91.3216 182.313C91.6806 181.637 92.1822 181.12 92.8264 180.761C93.4811 180.391 94.2309 180.206 95.0757 180.206C95.8994 180.206 96.6281 180.386 97.2617 180.745C97.8953 181.104 98.3811 181.6 98.719 182.234C99.0675 182.857 99.2417 183.564 99.2417 184.356ZM97.7528 184.055C97.7528 183.506 97.6313 183.036 97.3884 182.646C97.1455 182.244 96.8129 181.943 96.3905 181.743C95.9786 181.532 95.5193 181.426 95.0124 181.426C94.2837 181.426 93.6607 181.658 93.1432 182.123C92.6363 182.588 92.3459 183.232 92.272 184.055H97.7528ZM105.453 180.19C106.509 180.19 107.364 180.512 108.019 181.157C108.674 181.79 109.001 182.709 109.001 183.913V189.029H107.576V184.119C107.576 183.253 107.359 182.593 106.926 182.139C106.493 181.674 105.902 181.442 105.152 181.442C104.392 181.442 103.785 181.679 103.33 182.155C102.887 182.63 102.665 183.321 102.665 184.23V189.029H101.224V180.349H102.665V181.584C102.95 181.141 103.336 180.798 103.821 180.555C104.318 180.312 104.862 180.19 105.453 180.19ZM110.897 184.673C110.897 183.776 111.076 182.994 111.435 182.329C111.794 181.653 112.291 181.13 112.924 180.761C113.568 180.391 114.302 180.206 115.126 180.206C116.193 180.206 117.069 180.465 117.755 180.982C118.452 181.5 118.912 182.218 119.134 183.137H117.581C117.433 182.609 117.143 182.192 116.71 181.885C116.288 181.579 115.76 181.426 115.126 181.426C114.302 181.426 113.637 181.711 113.13 182.281C112.623 182.841 112.37 183.638 112.37 184.673C112.37 185.719 112.623 186.527 113.13 187.097C113.637 187.667 114.302 187.952 115.126 187.952C115.76 187.952 116.288 187.804 116.71 187.509C117.132 187.213 117.423 186.791 117.581 186.241H119.134C118.901 187.128 118.437 187.841 117.74 188.38C117.043 188.908 116.171 189.172 115.126 189.172C114.302 189.172 113.568 188.987 112.924 188.617C112.291 188.248 111.794 187.725 111.435 187.049C111.076 186.373 110.897 185.581 110.897 184.673ZM129.056 184.356C129.056 184.631 129.04 184.921 129.009 185.228H122.071C122.124 186.083 122.414 186.754 122.942 187.239C123.481 187.715 124.13 187.952 124.89 187.952C125.513 187.952 126.031 187.81 126.443 187.524C126.865 187.229 127.161 186.838 127.33 186.352H128.882C128.65 187.187 128.185 187.868 127.488 188.396C126.791 188.913 125.925 189.172 124.89 189.172C124.067 189.172 123.327 188.987 122.673 188.617C122.028 188.248 121.522 187.725 121.152 187.049C120.782 186.363 120.598 185.571 120.598 184.673C120.598 183.776 120.777 182.989 121.136 182.313C121.495 181.637 121.997 181.12 122.641 180.761C123.296 180.391 124.045 180.206 124.89 180.206C125.714 180.206 126.443 180.386 127.076 180.745C127.71 181.104 128.196 181.6 128.534 182.234C128.882 182.857 129.056 183.564 129.056 184.356ZM127.567 184.055C127.567 183.506 127.446 183.036 127.203 182.646C126.96 182.244 126.627 181.943 126.205 181.743C125.793 181.532 125.334 181.426 124.827 181.426C124.098 181.426 123.475 181.658 122.958 182.123C122.451 182.588 122.16 183.232 122.087 184.055H127.567ZM136.782 177.989V189.029H135.341V177.989H136.782ZM142.755 177.989C143.959 177.989 144.999 178.216 145.876 178.67C146.763 179.113 147.439 179.752 147.903 180.586C148.379 181.421 148.616 182.403 148.616 183.533C148.616 184.663 148.379 185.645 147.903 186.479C147.439 187.303 146.763 187.936 145.876 188.38C144.999 188.813 143.959 189.029 142.755 189.029H139.318V177.989H142.755ZM142.755 187.841C144.181 187.841 145.269 187.466 146.018 186.717C146.768 185.956 147.143 184.895 147.143 183.533C147.143 182.16 146.763 181.088 146.003 180.317C145.253 179.546 144.17 179.161 142.755 179.161H140.759V187.841H142.755ZM158.964 183.184C158.964 181.368 159.259 179.953 159.851 178.939C160.442 177.915 161.477 177.402 162.956 177.402C164.423 177.402 165.453 177.915 166.044 178.939C166.636 179.953 166.931 181.368 166.931 183.184C166.931 185.032 166.636 186.468 166.044 187.493C165.453 188.517 164.423 189.029 162.956 189.029C161.477 189.029 160.442 188.517 159.851 187.493C159.259 186.468 158.964 185.032 158.964 183.184ZM165.506 183.184C165.506 182.265 165.442 181.489 165.316 180.856C165.2 180.211 164.951 179.694 164.571 179.303C164.202 178.913 163.663 178.717 162.956 178.717C162.237 178.717 161.688 178.913 161.308 179.303C160.939 179.694 160.69 180.211 160.564 180.856C160.447 181.489 160.389 182.265 160.389 183.184C160.389 184.135 160.447 184.932 160.564 185.576C160.69 186.22 160.939 186.738 161.308 187.128C161.688 187.519 162.237 187.715 162.956 187.715C163.663 187.715 164.202 187.519 164.571 187.128C164.951 186.738 165.2 186.22 165.316 185.576C165.442 184.932 165.506 184.135 165.506 183.184ZM168.99 183.184C168.99 181.368 169.285 179.953 169.877 178.939C170.468 177.915 171.503 177.402 172.981 177.402C174.449 177.402 175.479 177.915 176.07 178.939C176.662 179.953 176.957 181.368 176.957 183.184C176.957 185.032 176.662 186.468 176.07 187.493C175.479 188.517 174.449 189.029 172.981 189.029C171.503 189.029 170.468 188.517 169.877 187.493C169.285 186.468 168.99 185.032 168.99 183.184ZM175.532 183.184C175.532 182.265 175.468 181.489 175.342 180.856C175.225 180.211 174.977 179.694 174.597 179.303C174.227 178.913 173.689 178.717 172.981 178.717C172.263 178.717 171.714 178.913 171.334 179.303C170.964 179.694 170.716 180.211 170.589 180.856C170.473 181.489 170.415 182.265 170.415 183.184C170.415 184.135 170.473 184.932 170.589 185.576C170.716 186.22 170.964 186.738 171.334 187.128C171.714 187.519 172.263 187.715 172.981 187.715C173.689 187.715 174.227 187.519 174.597 187.128C174.977 186.738 175.225 186.22 175.342 185.576C175.468 184.932 175.532 184.135 175.532 183.184ZM179.015 183.184C179.015 181.368 179.311 179.953 179.902 178.939C180.494 177.915 181.529 177.402 183.007 177.402C184.475 177.402 185.505 177.915 186.096 178.939C186.687 179.953 186.983 181.368 186.983 183.184C186.983 185.032 186.687 186.468 186.096 187.493C185.505 188.517 184.475 189.029 183.007 189.029C181.529 189.029 180.494 188.517 179.902 187.493C179.311 186.468 179.015 185.032 179.015 183.184ZM185.558 183.184C185.558 182.265 185.494 181.489 185.367 180.856C185.251 180.211 185.003 179.694 184.623 179.303C184.253 178.913 183.715 178.717 183.007 178.717C182.289 178.717 181.74 178.913 181.36 179.303C180.99 179.694 180.742 180.211 180.615 180.856C180.499 181.489 180.441 182.265 180.441 183.184C180.441 184.135 180.499 184.932 180.615 185.576C180.742 186.22 180.99 186.738 181.36 187.128C181.74 187.519 182.289 187.715 183.007 187.715C183.715 187.715 184.253 187.519 184.623 187.128C185.003 186.738 185.251 186.22 185.367 185.576C185.494 184.932 185.558 184.135 185.558 183.184ZM191.132 183.073C190.541 182.841 190.087 182.503 189.77 182.06C189.453 181.616 189.295 181.077 189.295 180.444C189.295 179.874 189.437 179.361 189.722 178.907C190.008 178.443 190.43 178.078 190.99 177.814C191.56 177.54 192.246 177.402 193.049 177.402C193.851 177.402 194.533 177.54 195.092 177.814C195.663 178.078 196.09 178.443 196.375 178.907C196.671 179.361 196.819 179.874 196.819 180.444C196.819 181.056 196.655 181.595 196.328 182.06C196 182.514 195.552 182.852 194.981 183.073C195.636 183.274 196.154 183.628 196.534 184.135C196.925 184.631 197.12 185.233 197.12 185.94C197.12 186.627 196.951 187.229 196.613 187.746C196.275 188.253 195.795 188.649 195.172 188.934C194.559 189.209 193.851 189.346 193.049 189.346C192.246 189.346 191.539 189.209 190.926 188.934C190.324 188.649 189.854 188.253 189.516 187.746C189.179 187.229 189.01 186.627 189.01 185.94C189.01 185.233 189.2 184.626 189.58 184.119C189.96 183.612 190.477 183.263 191.132 183.073ZM195.425 180.618C195.425 179.974 195.214 179.478 194.791 179.129C194.369 178.781 193.788 178.606 193.049 178.606C192.32 178.606 191.745 178.781 191.322 179.129C190.9 179.478 190.689 179.979 190.689 180.634C190.689 181.225 190.905 181.7 191.338 182.06C191.782 182.419 192.352 182.598 193.049 182.598C193.756 182.598 194.327 182.419 194.76 182.06C195.203 181.69 195.425 181.209 195.425 180.618ZM193.049 183.707C192.267 183.707 191.629 183.892 191.132 184.261C190.636 184.62 190.388 185.164 190.388 185.893C190.388 186.569 190.625 187.113 191.101 187.524C191.586 187.936 192.236 188.142 193.049 188.142C193.862 188.142 194.506 187.936 194.981 187.524C195.457 187.113 195.694 186.569 195.694 185.893C195.694 185.185 195.451 184.647 194.966 184.277C194.48 183.897 193.841 183.707 193.049 183.707ZM206.416 178.828H200.856V182.44C201.099 182.102 201.458 181.827 201.933 181.616C202.408 181.394 202.921 181.283 203.47 181.283C204.346 181.283 205.059 181.468 205.608 181.838C206.157 182.197 206.548 182.667 206.78 183.248C207.023 183.818 207.145 184.425 207.145 185.069C207.145 185.83 207.002 186.511 206.717 187.113C206.432 187.715 205.994 188.19 205.402 188.538C204.821 188.887 204.098 189.061 203.232 189.061C202.123 189.061 201.226 188.776 200.539 188.206C199.853 187.635 199.436 186.875 199.288 185.925H200.698C200.835 186.527 201.125 186.996 201.569 187.334C202.012 187.672 202.572 187.841 203.248 187.841C204.082 187.841 204.71 187.593 205.133 187.097C205.555 186.59 205.767 185.925 205.767 185.101C205.767 184.277 205.555 183.644 205.133 183.2C204.71 182.746 204.087 182.519 203.264 182.519C202.704 182.519 202.213 182.656 201.791 182.931C201.379 183.195 201.078 183.559 200.888 184.024H199.525V177.561H206.416V178.828ZM208.759 178.891V177.577H211.737V189.029H210.28V178.891H208.759ZM221.595 178.828H216.035V182.44C216.278 182.102 216.637 181.827 217.112 181.616C217.587 181.394 218.099 181.283 218.649 181.283C219.525 181.283 220.238 181.468 220.787 181.838C221.336 182.197 221.727 182.667 221.959 183.248C222.202 183.818 222.324 184.425 222.324 185.069C222.324 185.83 222.181 186.511 221.896 187.113C221.611 187.715 221.172 188.19 220.581 188.538C220 188.887 219.277 189.061 218.411 189.061C217.302 189.061 216.405 188.776 215.718 188.206C215.032 187.635 214.615 186.875 214.467 185.925H215.877C216.014 186.527 216.304 186.996 216.748 187.334C217.191 187.672 217.751 187.841 218.427 187.841C219.261 187.841 219.889 187.593 220.312 187.097C220.734 186.59 220.945 185.925 220.945 185.101C220.945 184.277 220.734 183.644 220.312 183.2C219.889 182.746 219.266 182.519 218.443 182.519C217.883 182.519 217.392 182.656 216.969 182.931C216.558 183.195 216.257 183.559 216.067 184.024H214.704V177.561H221.595V178.828ZM230.702 180.301C230.47 179.129 229.746 178.543 228.532 178.543C227.592 178.543 226.89 178.907 226.425 179.636C225.96 180.354 225.733 181.542 225.744 183.2C225.987 182.651 226.388 182.223 226.948 181.917C227.518 181.6 228.152 181.442 228.849 181.442C229.936 181.442 230.802 181.78 231.447 182.456C232.101 183.131 232.429 184.066 232.429 185.259C232.429 185.977 232.286 186.622 232.001 187.192C231.726 187.762 231.304 188.216 230.734 188.554C230.174 188.892 229.493 189.061 228.69 189.061C227.603 189.061 226.752 188.818 226.14 188.332C225.527 187.847 225.1 187.176 224.857 186.321C224.614 185.465 224.493 184.409 224.493 183.153C224.493 179.277 225.844 177.339 228.548 177.339C229.583 177.339 230.396 177.619 230.987 178.179C231.579 178.738 231.927 179.446 232.033 180.301H230.702ZM228.548 182.661C228.094 182.661 227.666 182.757 227.265 182.947C226.863 183.126 226.536 183.406 226.283 183.786C226.04 184.156 225.918 184.61 225.918 185.148C225.918 185.951 226.151 186.606 226.615 187.113C227.08 187.609 227.745 187.857 228.611 187.857C229.35 187.857 229.936 187.63 230.369 187.176C230.813 186.711 231.035 186.088 231.035 185.307C231.035 184.483 230.823 183.839 230.401 183.374C229.979 182.899 229.361 182.661 228.548 182.661ZM234.072 178.891V177.577H237.05V189.029H235.593V178.891H234.072ZM239.431 187.873C240.772 186.796 241.823 185.914 242.584 185.228C243.344 184.531 243.983 183.807 244.5 183.057C245.028 182.297 245.292 181.553 245.292 180.824C245.292 180.138 245.123 179.599 244.785 179.208C244.458 178.807 243.925 178.606 243.185 178.606C242.467 178.606 241.908 178.833 241.506 179.287C241.116 179.731 240.904 180.328 240.873 181.077H239.479C239.521 179.895 239.88 178.981 240.556 178.337C241.232 177.693 242.103 177.371 243.17 177.371C244.257 177.371 245.118 177.672 245.752 178.274C246.396 178.876 246.718 179.705 246.718 180.761C246.718 181.637 246.454 182.492 245.926 183.327C245.408 184.15 244.817 184.879 244.152 185.513C243.486 186.136 242.636 186.864 241.601 187.699H247.051V188.903H239.431V187.873ZM256.098 178.828H250.538V182.44C250.781 182.102 251.14 181.827 251.616 181.616C252.091 181.394 252.603 181.283 253.152 181.283C254.029 181.283 254.741 181.468 255.291 181.838C255.84 182.197 256.23 182.667 256.463 183.248C256.706 183.818 256.827 184.425 256.827 185.069C256.827 185.83 256.685 186.511 256.399 187.113C256.114 187.715 255.676 188.19 255.085 188.538C254.504 188.887 253.78 189.061 252.915 189.061C251.806 189.061 250.908 188.776 250.222 188.206C249.535 187.635 249.118 186.875 248.97 185.925H250.38C250.517 186.527 250.808 186.996 251.251 187.334C251.695 187.672 252.255 187.841 252.93 187.841C253.765 187.841 254.393 187.593 254.815 187.097C255.238 186.59 255.449 185.925 255.449 185.101C255.449 184.277 255.238 183.644 254.815 183.2C254.393 182.746 253.77 182.519 252.946 182.519C252.387 182.519 251.895 182.656 251.473 182.931C251.061 183.195 250.76 183.559 250.57 184.024H249.208V177.561H256.098V178.828ZM265.871 178.701L261.467 189.029H260.01L264.477 178.844H258.363V177.608H265.871V178.701Z" fill="#858585"/>
<rect x="153.832" y="171.909" width="116.118" height="21.1123" stroke="#FF0808" stroke-width="1.75936"/>
</svg>
