<svg width="480" height="220" viewBox="0 0 480 220" fill="none" xmlns="http://www.w3.org/2000/svg">
<g clip-path="url(#clip0_5244_105371)">
<rect width="480" height="220" fill="#F7F5F7"/>
<path d="M20.4564 144.223V150.749C20.4564 151.666 20.6784 152.347 21.1223 152.791C21.5761 153.235 22.2026 153.457 23.0016 153.457C23.7909 153.457 24.4074 153.235 24.8514 152.791C25.3052 152.347 25.5321 151.666 25.5321 150.749V144.223H26.8787V150.734C26.8787 151.592 26.706 152.317 26.3607 152.909C26.0155 153.491 25.5469 153.925 24.9549 154.212C24.3729 154.498 23.7169 154.641 22.9868 154.641C22.2568 154.641 21.5959 154.498 21.0039 154.212C20.4219 153.925 19.9582 153.491 19.613 152.909C19.2775 152.317 19.1098 151.592 19.1098 150.734V144.223H20.4564ZM36.0948 147.242C36.0948 148.1 35.7988 148.815 35.2069 149.387C34.6249 149.95 33.7321 150.231 32.5285 150.231H30.5456V154.537H29.199V144.223H32.5285C33.6926 144.223 34.5755 144.504 35.1773 145.067C35.789 145.629 36.0948 146.354 36.0948 147.242ZM32.5285 149.121C33.2783 149.121 33.8307 148.958 34.1859 148.633C34.541 148.307 34.7186 147.844 34.7186 147.242C34.7186 145.969 33.9886 145.333 32.5285 145.333H30.5456V149.121H32.5285ZM39.189 144.223V154.537H37.8424V144.223H39.189ZM51.9254 144.223V145.318H49.1138V154.537H47.7672V145.318H44.9408V144.223H51.9254ZM55.0035 147.745C55.2403 147.281 55.5757 146.921 56.0098 146.665C56.4537 146.408 56.9914 146.28 57.6227 146.28V147.671H57.2676C55.7582 147.671 55.0035 148.49 55.0035 150.127V154.537H53.6569V146.428H55.0035V147.745ZM58.7481 150.453C58.7481 149.624 58.9158 148.899 59.2512 148.278C59.5866 147.646 60.0453 147.158 60.6274 146.813C61.2193 146.467 61.8753 146.295 62.5955 146.295C63.3058 146.295 63.9224 146.448 64.4452 146.753C64.9681 147.059 65.3577 147.444 65.6142 147.908V146.428H66.9756V154.537H65.6142V153.028C65.3479 153.501 64.9483 153.896 64.4156 154.212C63.8928 154.517 63.2811 154.67 62.5807 154.67C61.8605 154.67 61.2094 154.493 60.6274 154.138C60.0453 153.782 59.5866 153.284 59.2512 152.643C58.9158 152.002 58.7481 151.272 58.7481 150.453ZM65.6142 150.468C65.6142 149.856 65.4909 149.323 65.2443 148.87C64.9977 148.416 64.6622 148.07 64.238 147.834C63.8237 147.587 63.365 147.464 62.8618 147.464C62.3587 147.464 61.9 147.582 61.4857 147.819C61.0713 148.056 60.7408 148.401 60.4942 148.855C60.2476 149.309 60.1243 149.841 60.1243 150.453C60.1243 151.074 60.2476 151.617 60.4942 152.081C60.7408 152.534 61.0713 152.885 61.4857 153.131C61.9 153.368 62.3587 153.486 62.8618 153.486C63.365 153.486 63.8237 153.368 64.238 153.131C64.6622 152.885 64.9977 152.534 65.2443 152.081C65.4909 151.617 65.6142 151.079 65.6142 150.468ZM73.2762 146.28C74.2627 146.28 75.0618 146.581 75.6735 147.183C76.2851 147.775 76.5909 148.633 76.5909 149.757V154.537H75.2591V149.95C75.2591 149.141 75.0569 148.524 74.6524 148.1C74.2479 147.666 73.6955 147.449 72.9951 147.449C72.2848 147.449 71.7175 147.671 71.2933 148.115C70.879 148.559 70.6718 149.205 70.6718 150.053V154.537H69.3252V146.428H70.6718V147.582C70.9382 147.168 71.2983 146.847 71.7521 146.62C72.2157 146.393 72.7238 146.28 73.2762 146.28ZM81.7353 154.67C81.1138 154.67 80.5565 154.567 80.0632 154.36C79.5699 154.143 79.1803 153.847 78.8942 153.472C78.6081 153.087 78.4502 152.648 78.4206 152.155H79.8116C79.8511 152.559 80.0385 152.89 80.374 153.146C80.7192 153.403 81.1681 153.531 81.7206 153.531C82.2335 153.531 82.638 153.417 82.934 153.191C83.2299 152.964 83.3779 152.678 83.3779 152.332C83.3779 151.977 83.2201 151.716 82.9044 151.548C82.5887 151.37 82.1004 151.198 81.4394 151.03C80.8376 150.872 80.3444 150.714 79.9596 150.557C79.5847 150.389 79.2592 150.147 78.983 149.831C78.7166 149.506 78.5834 149.082 78.5834 148.559C78.5834 148.144 78.7067 147.765 78.9534 147.419C79.2 147.074 79.5502 146.803 80.004 146.606C80.4578 146.398 80.9757 146.295 81.5578 146.295C82.4555 146.295 83.1806 146.522 83.733 146.975C84.2855 147.429 84.5815 148.051 84.6209 148.84H83.2743C83.2447 148.416 83.0721 148.075 82.7564 147.819C82.4506 147.562 82.0362 147.434 81.5134 147.434C81.03 147.434 80.6452 147.538 80.3592 147.745C80.0731 147.952 79.93 148.223 79.93 148.559C79.93 148.825 80.0139 149.047 80.1816 149.225C80.3592 149.392 80.5762 149.531 80.8327 149.639C81.099 149.738 81.4641 149.851 81.9277 149.979C82.5098 150.137 82.9833 150.295 83.3483 150.453C83.7133 150.601 84.0241 150.828 84.2806 151.134C84.5469 151.439 84.685 151.839 84.6949 152.332C84.6949 152.776 84.5716 153.176 84.325 153.531C84.0783 153.886 83.7281 154.167 83.2743 154.374C82.8304 154.572 82.3174 154.67 81.7353 154.67ZM86.1667 150.453C86.1667 149.624 86.3344 148.899 86.6698 148.278C87.0052 147.646 87.464 147.158 88.046 146.813C88.6379 146.467 89.294 146.295 90.0141 146.295C90.7244 146.295 91.341 146.448 91.8638 146.753C92.3867 147.059 92.7764 147.444 93.0329 147.908V146.428H94.3943V154.537H93.0329V153.028C92.7665 153.501 92.367 153.896 91.8342 154.212C91.3114 154.517 90.6997 154.67 89.9993 154.67C89.2792 154.67 88.6281 154.493 88.046 154.138C87.464 153.782 87.0052 153.284 86.6698 152.643C86.3344 152.002 86.1667 151.272 86.1667 150.453ZM93.0329 150.468C93.0329 149.856 92.9095 149.323 92.6629 148.87C92.4163 148.416 92.0809 148.07 91.6567 147.834C91.2423 147.587 90.7836 147.464 90.2805 147.464C89.7774 147.464 89.3186 147.582 88.9043 147.819C88.4899 148.056 88.1595 148.401 87.9128 148.855C87.6662 149.309 87.5429 149.841 87.5429 150.453C87.5429 151.074 87.6662 151.617 87.9128 152.081C88.1595 152.534 88.4899 152.885 88.9043 153.131C89.3186 153.368 89.7774 153.486 90.2805 153.486C90.7836 153.486 91.2423 153.368 91.6567 153.131C92.0809 152.885 92.4163 152.534 92.6629 152.081C92.9095 151.617 93.0329 151.079 93.0329 150.468ZM96.2407 150.468C96.2407 149.629 96.4084 148.899 96.7439 148.278C97.0793 147.646 97.5429 147.158 98.1348 146.813C98.7366 146.467 99.4223 146.295 100.192 146.295C101.188 146.295 102.007 146.536 102.648 147.02C103.299 147.503 103.728 148.174 103.936 149.032H102.485C102.347 148.539 102.076 148.149 101.672 147.863C101.277 147.577 100.784 147.434 100.192 147.434C99.4223 147.434 98.8007 147.701 98.3272 148.233C97.8537 148.756 97.6169 149.501 97.6169 150.468C97.6169 151.444 97.8537 152.199 98.3272 152.732C98.8007 153.265 99.4223 153.531 100.192 153.531C100.784 153.531 101.277 153.393 101.672 153.117C102.066 152.84 102.337 152.446 102.485 151.933H103.936C103.719 152.761 103.284 153.427 102.633 153.93C101.982 154.424 101.168 154.67 100.192 154.67C99.4223 154.67 98.7366 154.498 98.1348 154.152C97.5429 153.807 97.0793 153.319 96.7439 152.687C96.4084 152.056 96.2407 151.316 96.2407 150.468ZM107.449 147.538V152.317C107.449 152.712 107.533 152.993 107.7 153.161C107.868 153.319 108.159 153.398 108.574 153.398H109.565V154.537H108.352C107.602 154.537 107.039 154.364 106.665 154.019C106.29 153.674 106.102 153.107 106.102 152.317V147.538H105.052V146.428H106.102V144.386H107.449V146.428H109.565V147.538H107.449ZM111.966 145.111C111.71 145.111 111.492 145.022 111.315 144.845C111.137 144.667 111.049 144.45 111.049 144.193C111.049 143.937 111.137 143.72 111.315 143.542C111.492 143.365 111.71 143.276 111.966 143.276C112.213 143.276 112.42 143.365 112.588 143.542C112.765 143.72 112.854 143.937 112.854 144.193C112.854 144.45 112.765 144.667 112.588 144.845C112.42 145.022 112.213 145.111 111.966 145.111ZM112.617 146.428V154.537H111.271V146.428H112.617ZM118.523 154.67C117.763 154.67 117.073 154.498 116.451 154.152C115.839 153.807 115.356 153.319 115.001 152.687C114.656 152.046 114.483 151.306 114.483 150.468C114.483 149.639 114.661 148.909 115.016 148.278C115.381 147.636 115.874 147.148 116.496 146.813C117.117 146.467 117.813 146.295 118.582 146.295C119.351 146.295 120.047 146.467 120.668 146.813C121.29 147.148 121.778 147.631 122.133 148.263C122.498 148.894 122.681 149.629 122.681 150.468C122.681 151.306 122.494 152.046 122.119 152.687C121.754 153.319 121.255 153.807 120.624 154.152C119.993 154.498 119.292 154.67 118.523 154.67ZM118.523 153.486C119.006 153.486 119.46 153.373 119.884 153.146C120.308 152.919 120.649 152.579 120.905 152.125C121.172 151.671 121.305 151.119 121.305 150.468C121.305 149.817 121.177 149.264 120.92 148.81C120.664 148.357 120.328 148.021 119.914 147.804C119.499 147.577 119.051 147.464 118.567 147.464C118.074 147.464 117.62 147.577 117.206 147.804C116.801 148.021 116.476 148.357 116.229 148.81C115.983 149.264 115.859 149.817 115.859 150.468C115.859 151.129 115.978 151.686 116.214 152.14C116.461 152.594 116.787 152.934 117.191 153.161C117.595 153.378 118.039 153.486 118.523 153.486ZM128.477 146.28C129.463 146.28 130.262 146.581 130.874 147.183C131.485 147.775 131.791 148.633 131.791 149.757V154.537H130.459V149.95C130.459 149.141 130.257 148.524 129.853 148.1C129.448 147.666 128.896 147.449 128.195 147.449C127.485 147.449 126.918 147.671 126.494 148.115C126.079 148.559 125.872 149.205 125.872 150.053V154.537H124.526V146.428H125.872V147.582C126.138 147.168 126.499 146.847 126.952 146.62C127.416 146.393 127.924 146.28 128.477 146.28ZM139.431 144.223V154.537H138.084V144.223H139.431ZM145.011 144.223C146.135 144.223 147.107 144.435 147.926 144.859C148.755 145.274 149.386 145.871 149.82 146.65C150.264 147.429 150.486 148.347 150.486 149.402C150.486 150.458 150.264 151.375 149.82 152.155C149.386 152.924 148.755 153.516 147.926 153.93C147.107 154.335 146.135 154.537 145.011 154.537H141.8V144.223H145.011ZM145.011 153.427C146.342 153.427 147.359 153.077 148.059 152.377C148.759 151.666 149.11 150.675 149.11 149.402C149.11 148.12 148.755 147.118 148.044 146.398C147.344 145.678 146.333 145.318 145.011 145.318H143.146V153.427H145.011Z" fill="#858585"/>
<path d="M36.0821 170.582L31.1745 182.092H29.5503L34.5286 170.741H27.7144V169.364H36.0821V170.582ZM40.2818 175.454C39.6227 175.195 39.1167 174.819 38.7636 174.324C38.4105 173.83 38.234 173.23 38.234 172.524C38.234 171.888 38.3929 171.317 38.7106 170.811C39.0284 170.293 39.4992 169.887 40.1229 169.593C40.7584 169.287 41.5234 169.134 42.4178 169.134C43.3123 169.134 44.0714 169.287 44.6951 169.593C45.3307 169.887 45.8073 170.293 46.1251 170.811C46.4546 171.317 46.6193 171.888 46.6193 172.524C46.6193 173.206 46.4369 173.806 46.0721 174.324C45.7073 174.83 45.2071 175.207 44.5716 175.454C45.3012 175.678 45.8779 176.072 46.3016 176.637C46.737 177.19 46.9548 177.861 46.9548 178.649C46.9548 179.414 46.7665 180.085 46.3899 180.662C46.0132 181.227 45.4778 181.668 44.7834 181.986C44.1008 182.292 43.3123 182.445 42.4178 182.445C41.5234 182.445 40.7349 182.292 40.0523 181.986C39.3815 181.668 38.8578 181.227 38.4811 180.662C38.1045 180.085 37.9162 179.414 37.9162 178.649C37.9162 177.861 38.1281 177.184 38.5518 176.619C38.9754 176.054 39.5521 175.666 40.2818 175.454ZM45.0659 172.718C45.0659 172 44.8305 171.447 44.3597 171.058C43.889 170.67 43.2417 170.476 42.4178 170.476C41.6058 170.476 40.9644 170.67 40.4936 171.058C40.0229 171.447 39.7875 172.006 39.7875 172.736C39.7875 173.395 40.0288 173.924 40.5113 174.324C41.0056 174.724 41.6411 174.925 42.4178 174.925C43.2064 174.925 43.8419 174.724 44.3244 174.324C44.8187 173.912 45.0659 173.377 45.0659 172.718ZM42.4178 176.16C41.5469 176.16 40.8349 176.366 40.2818 176.778C39.7287 177.178 39.4521 177.784 39.4521 178.596C39.4521 179.35 39.7169 179.956 40.2465 180.415C40.7879 180.874 41.5116 181.103 42.4178 181.103C43.3241 181.103 44.042 180.874 44.5716 180.415C45.1012 179.956 45.366 179.35 45.366 178.596C45.366 177.808 45.0953 177.208 44.5539 176.796C44.0125 176.372 43.3005 176.16 42.4178 176.16ZM51.242 178.667C51.3597 179.338 51.6304 179.856 52.0541 180.221C52.4895 180.585 53.0721 180.768 53.8018 180.768C54.7786 180.768 55.4965 180.385 55.9555 179.62C56.4262 178.855 56.6499 177.567 56.6263 175.754C56.3792 176.284 55.9673 176.702 55.3906 177.008C54.8139 177.302 54.1725 177.449 53.4664 177.449C52.6778 177.449 51.9717 177.29 51.348 176.972C50.736 176.643 50.2535 176.166 49.9004 175.542C49.5473 174.919 49.3708 174.165 49.3708 173.283C49.3708 172.024 49.7356 171.011 50.4653 170.246C51.195 169.47 52.2306 169.081 53.5723 169.081C55.2199 169.081 56.3733 169.617 57.0323 170.688C57.7032 171.759 58.0386 173.353 58.0386 175.472C58.0386 176.955 57.9032 178.179 57.6326 179.144C57.3736 180.109 56.9264 180.844 56.2909 181.35C55.6671 181.856 54.808 182.109 53.7135 182.109C52.5131 182.109 51.5775 181.786 50.9066 181.139C50.2358 180.491 49.8533 179.667 49.7592 178.667H51.242ZM53.7312 176.09C54.5197 176.09 55.167 175.848 55.673 175.366C56.1791 174.872 56.4321 174.207 56.4321 173.371C56.4321 172.488 56.185 171.776 55.6907 171.235C55.1964 170.694 54.502 170.423 53.6076 170.423C52.7838 170.423 52.1247 170.682 51.6304 171.2C51.1479 171.718 50.9066 172.4 50.9066 173.247C50.9066 174.107 51.1479 174.795 51.6304 175.313C52.1129 175.831 52.8132 176.09 53.7312 176.09ZM68.5226 170.723H62.3263V174.748C62.597 174.371 62.9971 174.065 63.5267 173.83C64.0563 173.583 64.6271 173.459 65.2391 173.459C66.2159 173.459 67.0103 173.665 67.6223 174.077C68.2343 174.477 68.6697 175.001 68.9286 175.648C69.1993 176.284 69.3347 176.961 69.3347 177.678C69.3347 178.526 69.1758 179.285 68.858 179.956C68.5403 180.627 68.0518 181.156 67.3928 181.545C66.7455 181.933 65.9393 182.127 64.9743 182.127C63.7385 182.127 62.7382 181.809 61.9732 181.174C61.2082 180.538 60.7434 179.691 60.5786 178.632H62.1497C62.3027 179.303 62.6264 179.826 63.1207 180.203C63.615 180.579 64.2387 180.768 64.9919 180.768C65.9217 180.768 66.6219 180.491 67.0927 179.938C67.5634 179.373 67.7988 178.632 67.7988 177.714C67.7988 176.796 67.5634 176.09 67.0927 175.595C66.6219 175.089 65.9276 174.836 65.0096 174.836C64.3858 174.836 63.8386 174.989 63.3678 175.295C62.9088 175.589 62.5734 175.996 62.3616 176.513H60.8434V169.311H68.5226V170.723ZM71.1694 179.25V178.032L77.3657 169.452H79.2899V177.855H81.0552V179.25H79.2899V182.092H77.7011V179.25H71.1694ZM77.7717 171.129L73.023 177.855H77.7717V171.129ZM82.3246 170.794V169.328H85.6435V182.092H84.0194V170.794H82.3246ZM88.297 180.803C89.7916 179.603 90.9626 178.62 91.81 177.855C92.6574 177.078 93.3694 176.272 93.9461 175.436C94.5345 174.589 94.8287 173.759 94.8287 172.947C94.8287 172.182 94.6404 171.582 94.2638 171.147C93.899 170.699 93.3046 170.476 92.4808 170.476C91.6805 170.476 91.0568 170.729 90.6096 171.235C90.1741 171.729 89.9387 172.394 89.9034 173.23H88.3499C88.397 171.912 88.7972 170.894 89.5504 170.176C90.3036 169.458 91.2745 169.099 92.4632 169.099C93.6754 169.099 94.6345 169.434 95.3407 170.105C96.0586 170.776 96.4175 171.7 96.4175 172.877C96.4175 173.854 96.1233 174.807 95.5349 175.737C94.9582 176.655 94.2991 177.467 93.5577 178.173C92.8162 178.867 91.8688 179.679 90.7155 180.609H96.7882V181.951H88.297V180.803ZM105.848 172.365C105.589 171.058 104.783 170.405 103.429 170.405C102.382 170.405 101.599 170.811 101.081 171.623C100.564 172.424 100.311 173.748 100.322 175.595C100.593 174.983 101.04 174.507 101.664 174.165C102.3 173.812 103.006 173.636 103.782 173.636C104.995 173.636 105.96 174.012 106.678 174.766C107.407 175.519 107.772 176.56 107.772 177.89C107.772 178.691 107.613 179.408 107.295 180.044C106.989 180.68 106.519 181.186 105.883 181.562C105.259 181.939 104.5 182.127 103.606 182.127C102.394 182.127 101.446 181.856 100.764 181.315C100.081 180.774 99.6045 180.026 99.3338 179.073C99.0631 178.12 98.9277 176.943 98.9277 175.542C98.9277 171.223 100.434 169.064 103.447 169.064C104.6 169.064 105.507 169.375 106.166 169.999C106.825 170.623 107.213 171.412 107.331 172.365H105.848ZM103.447 174.995C102.941 174.995 102.464 175.101 102.017 175.313C101.57 175.513 101.205 175.825 100.923 176.249C100.652 176.66 100.517 177.167 100.517 177.767C100.517 178.661 100.775 179.391 101.293 179.956C101.811 180.509 102.553 180.785 103.518 180.785C104.341 180.785 104.995 180.532 105.477 180.026C105.971 179.509 106.219 178.814 106.219 177.943C106.219 177.025 105.983 176.307 105.512 175.79C105.042 175.26 104.353 174.995 103.447 174.995ZM118.166 170.723H111.969V174.748C112.24 174.371 112.64 174.065 113.17 173.83C113.699 173.583 114.27 173.459 114.882 173.459C115.859 173.459 116.653 173.665 117.265 174.077C117.877 174.477 118.313 175.001 118.572 175.648C118.842 176.284 118.978 176.961 118.978 177.678C118.978 178.526 118.819 179.285 118.501 179.956C118.183 180.627 117.695 181.156 117.036 181.545C116.389 181.933 115.582 182.127 114.617 182.127C113.382 182.127 112.381 181.809 111.616 181.174C110.851 180.538 110.387 179.691 110.222 178.632H111.793C111.946 179.303 112.27 179.826 112.764 180.203C113.258 180.579 113.882 180.768 114.635 180.768C115.565 180.768 116.265 180.491 116.736 179.938C117.207 179.373 117.442 178.632 117.442 177.714C117.442 176.796 117.207 176.09 116.736 175.595C116.265 175.089 115.571 174.836 114.653 174.836C114.029 174.836 113.482 174.989 113.011 175.295C112.552 175.589 112.217 175.996 112.005 176.513H110.487V169.311H118.166V170.723ZM129.057 170.582L124.149 182.092H122.525L127.503 170.741H120.689V169.364H129.057V170.582ZM133.256 175.454C132.597 175.195 132.091 174.819 131.738 174.324C131.385 173.83 131.209 173.23 131.209 172.524C131.209 171.888 131.367 171.317 131.685 170.811C132.003 170.293 132.474 169.887 133.097 169.593C133.733 169.287 134.498 169.134 135.392 169.134C136.287 169.134 137.046 169.287 137.67 169.593C138.305 169.887 138.782 170.293 139.1 170.811C139.429 171.317 139.594 171.888 139.594 172.524C139.594 173.206 139.411 173.806 139.047 174.324C138.682 174.83 138.182 175.207 137.546 175.454C138.276 175.678 138.852 176.072 139.276 176.637C139.712 177.19 139.929 177.861 139.929 178.649C139.929 179.414 139.741 180.085 139.364 180.662C138.988 181.227 138.452 181.668 137.758 181.986C137.075 182.292 136.287 182.445 135.392 182.445C134.498 182.445 133.709 182.292 133.027 181.986C132.356 181.668 131.832 181.227 131.456 180.662C131.079 180.085 130.891 179.414 130.891 178.649C130.891 177.861 131.103 177.184 131.526 176.619C131.95 176.054 132.527 175.666 133.256 175.454ZM138.04 172.718C138.04 172 137.805 171.447 137.334 171.058C136.864 170.67 136.216 170.476 135.392 170.476C134.58 170.476 133.939 170.67 133.468 171.058C132.997 171.447 132.762 172.006 132.762 172.736C132.762 173.395 133.003 173.924 133.486 174.324C133.98 174.724 134.616 174.925 135.392 174.925C136.181 174.925 136.816 174.724 137.299 174.324C137.793 173.912 138.04 173.377 138.04 172.718ZM135.392 176.16C134.522 176.16 133.809 176.366 133.256 176.778C132.703 177.178 132.427 177.784 132.427 178.596C132.427 179.35 132.691 179.956 133.221 180.415C133.762 180.874 134.486 181.103 135.392 181.103C136.299 181.103 137.017 180.874 137.546 180.415C138.076 179.956 138.341 179.35 138.341 178.596C138.341 177.808 138.07 177.208 137.528 176.796C136.987 176.372 136.275 176.16 135.392 176.16Z" fill="black"/>
<rect x="19.4844" y="161.808" width="129.812" height="28.0193" stroke="#FF0808" stroke-width="1.67007"/>
<rect x="-20" y="104.221" width="500" height="2.27273" fill="#D9D9D9"/>
<path d="M78.6509 41.2914C78.6509 42.406 78.2666 43.3349 77.4979 44.0779C76.742 44.8082 75.5825 45.1733 74.0195 45.1733H71.4444V50.7656H69.6956V37.371H74.0195C75.5313 37.371 76.6779 37.7362 77.4594 38.4664C78.2538 39.1967 78.6509 40.1384 78.6509 41.2914ZM74.0195 43.732C74.9932 43.732 75.7106 43.5206 76.1719 43.0979C76.6331 42.6751 76.8637 42.0729 76.8637 41.2914C76.8637 39.6387 75.9156 38.8124 74.0195 38.8124H71.4444V43.732H74.0195ZM80.2671 45.4616C80.2671 44.3854 80.4849 43.4438 80.9205 42.6366C81.3561 41.8167 81.9519 41.1825 82.7077 40.7341C83.4764 40.2857 84.3284 40.0615 85.2637 40.0615C86.1861 40.0615 86.9868 40.2601 87.6659 40.6572C88.3449 41.0544 88.8509 41.554 89.184 42.1562V40.2344H90.952V50.7656H89.184V48.8054C88.8381 49.4204 88.3193 49.9329 87.6274 50.3428C86.9484 50.74 86.1541 50.9386 85.2445 50.9386C84.3092 50.9386 83.4636 50.708 82.7077 50.2468C81.9519 49.7855 81.3561 49.1385 80.9205 48.3058C80.4849 47.473 80.2671 46.525 80.2671 45.4616ZM89.184 45.4808C89.184 44.6865 89.0239 43.9947 88.7036 43.4053C88.3833 42.816 87.9477 42.3676 87.3968 42.0601C86.8587 41.7398 86.263 41.5797 85.6096 41.5797C84.9562 41.5797 84.3605 41.7334 83.8224 42.0409C83.2843 42.3484 82.8551 42.7968 82.5348 43.3861C82.2145 43.9754 82.0544 44.6673 82.0544 45.4616C82.0544 46.2687 82.2145 46.9734 82.5348 47.5755C82.8551 48.1649 83.2843 48.6197 83.8224 48.94C84.3605 49.2474 84.9562 49.4012 85.6096 49.4012C86.263 49.4012 86.8587 49.2474 87.3968 48.94C87.9477 48.6197 88.3833 48.1649 88.7036 47.5755C89.0239 46.9734 89.184 46.2751 89.184 45.4808ZM94.9066 38.5241C94.5735 38.5241 94.2917 38.4088 94.0611 38.1782C93.8305 37.9476 93.7152 37.6657 93.7152 37.3326C93.7152 36.9995 93.8305 36.7176 94.0611 36.487C94.2917 36.2564 94.5735 36.1411 94.9066 36.1411C95.2269 36.1411 95.496 36.2564 95.7138 36.487C95.9444 36.7176 96.0597 36.9995 96.0597 37.3326C96.0597 37.6657 95.9444 37.9476 95.7138 38.1782C95.496 38.4088 95.2269 38.5241 94.9066 38.5241ZM95.7522 40.2344V50.7656H94.0034V40.2344H95.7522ZM98.1754 45.4616C98.1754 44.3854 98.3932 43.4438 98.8288 42.6366C99.2644 41.8167 99.8601 41.1825 100.616 40.7341C101.385 40.2857 102.243 40.0615 103.191 40.0615C104.011 40.0615 104.773 40.2537 105.478 40.638C106.183 41.0096 106.721 41.5028 107.092 42.1178V36.5447H108.86V50.7656H107.092V48.7862C106.746 49.414 106.234 49.9329 105.555 50.3428C104.876 50.74 104.082 50.9386 103.172 50.9386C102.237 50.9386 101.385 50.708 100.616 50.2468C99.8601 49.7855 99.2644 49.1385 98.8288 48.3058C98.3932 47.473 98.1754 46.525 98.1754 45.4616ZM107.092 45.4808C107.092 44.6865 106.932 43.9947 106.612 43.4053C106.292 42.816 105.856 42.3676 105.305 42.0601C104.767 41.7398 104.171 41.5797 103.518 41.5797C102.864 41.5797 102.269 41.7334 101.731 42.0409C101.193 42.3484 100.763 42.7968 100.443 43.3861C100.123 43.9754 99.9626 44.6673 99.9626 45.4616C99.9626 46.2687 100.123 46.9734 100.443 47.5755C100.763 48.1649 101.193 48.6197 101.731 48.94C102.269 49.2474 102.864 49.4012 103.518 49.4012C104.171 49.4012 104.767 49.2474 105.305 48.94C105.856 48.6197 106.292 48.1649 106.612 47.5755C106.932 46.9734 107.092 46.2751 107.092 45.4808ZM120.802 50.7656L117.17 44.4239V43.5783H117.592C118.271 43.5783 118.842 43.5142 119.303 43.3861C119.777 43.258 120.148 43.0466 120.417 42.7519C120.686 42.4573 120.847 42.0537 120.898 41.5412H117.17V40.3113H120.879C120.789 39.8373 120.61 39.4529 120.341 39.1583C120.071 38.8508 119.706 38.6266 119.245 38.4857C118.797 38.3447 118.246 38.2743 117.592 38.2743H117.17V37.0443H125.126V38.2743H121.494C121.788 38.5177 122.032 38.8059 122.224 39.1391C122.416 39.4722 122.538 39.8629 122.589 40.3113H125.126V41.5412H122.627C122.538 42.4765 122.179 43.2068 121.551 43.732C120.936 44.2445 120.116 44.5712 119.091 44.7121L122.762 50.7656H120.802ZM136.796 38.3896H130.05V42.7712C130.345 42.3612 130.781 42.0281 131.357 41.7718C131.934 41.5028 132.555 41.3683 133.221 41.3683C134.285 41.3683 135.149 41.5925 135.816 42.0409C136.482 42.4765 136.956 43.0466 137.238 43.7512C137.532 44.4431 137.68 45.1797 137.68 45.9613C137.68 46.8837 137.507 47.71 137.161 48.4403C136.815 49.1706 136.283 49.7471 135.566 50.1699C134.861 50.5927 133.984 50.8041 132.933 50.8041C131.588 50.8041 130.499 50.4581 129.666 49.7663C128.833 49.0745 128.327 48.152 128.148 46.999H129.858C130.025 47.7293 130.377 48.2994 130.915 48.7094C131.453 49.1193 132.132 49.3243 132.952 49.3243C133.964 49.3243 134.727 49.0232 135.239 48.4211C135.752 47.8061 136.008 46.999 136.008 45.9997C136.008 45.0004 135.752 44.2317 135.239 43.6936C134.727 43.1427 133.971 42.8672 132.972 42.8672C132.292 42.8672 131.697 43.0338 131.184 43.3669C130.685 43.6872 130.32 44.1292 130.089 44.6929H128.436V36.8522H136.796V38.3896ZM140.1 43.6744C140.1 41.4708 140.459 39.754 141.176 38.5241C141.893 37.2814 143.149 36.66 144.943 36.66C146.723 36.66 147.973 37.2814 148.69 38.5241C149.408 39.754 149.766 41.4708 149.766 43.6744C149.766 45.9164 149.408 47.6588 148.69 48.9015C147.973 50.1443 146.723 50.7656 144.943 50.7656C143.149 50.7656 141.893 50.1443 141.176 48.9015C140.459 47.6588 140.1 45.9164 140.1 43.6744ZM148.037 43.6744C148.037 42.5598 147.96 41.6181 147.806 40.8494C147.665 40.0679 147.364 39.4401 146.903 38.9661C146.454 38.4921 145.801 38.255 144.943 38.255C144.071 38.255 143.405 38.4921 142.944 38.9661C142.496 39.4401 142.195 40.0679 142.041 40.8494C141.9 41.6181 141.829 42.5598 141.829 43.6744C141.829 44.8274 141.9 45.7947 142.041 46.5762C142.195 47.3577 142.496 47.9855 142.944 48.4595C143.405 48.9336 144.071 49.1706 144.943 49.1706C145.801 49.1706 146.454 48.9336 146.903 48.4595C147.364 47.9855 147.665 47.3577 147.806 46.5762C147.96 45.7947 148.037 44.8274 148.037 43.6744ZM152.263 43.6744C152.263 41.4708 152.622 39.754 153.339 38.5241C154.057 37.2814 155.312 36.66 157.106 36.66C158.887 36.66 160.136 37.2814 160.853 38.5241C161.571 39.754 161.93 41.4708 161.93 43.6744C161.93 45.9164 161.571 47.6588 160.853 48.9015C160.136 50.1443 158.887 50.7656 157.106 50.7656C155.312 50.7656 154.057 50.1443 153.339 48.9015C152.622 47.6588 152.263 45.9164 152.263 43.6744ZM160.2 43.6744C160.2 42.5598 160.123 41.6181 159.969 40.8494C159.828 40.0679 159.527 39.4401 159.066 38.9661C158.618 38.4921 157.964 38.255 157.106 38.255C156.235 38.255 155.569 38.4921 155.107 38.9661C154.659 39.4401 154.358 40.0679 154.204 40.8494C154.063 41.6181 153.993 42.5598 153.993 43.6744C153.993 44.8274 154.063 45.7947 154.204 46.5762C154.358 47.3577 154.659 47.9855 155.107 48.4595C155.569 48.9336 156.235 49.1706 157.106 49.1706C157.964 49.1706 158.618 48.9336 159.066 48.4595C159.527 47.9855 159.828 47.3577 159.969 46.5762C160.123 45.7947 160.2 44.8274 160.2 43.6744ZM164.426 43.6744C164.426 41.4708 164.785 39.754 165.503 38.5241C166.22 37.2814 167.476 36.66 169.269 36.66C171.05 36.66 172.299 37.2814 173.017 38.5241C173.734 39.754 174.093 41.4708 174.093 43.6744C174.093 45.9164 173.734 47.6588 173.017 48.9015C172.299 50.1443 171.05 50.7656 169.269 50.7656C167.476 50.7656 166.22 50.1443 165.503 48.9015C164.785 47.6588 164.426 45.9164 164.426 43.6744ZM172.363 43.6744C172.363 42.5598 172.286 41.6181 172.133 40.8494C171.992 40.0679 171.691 39.4401 171.229 38.9661C170.781 38.4921 170.128 38.255 169.269 38.255C168.398 38.255 167.732 38.4921 167.271 38.9661C166.822 39.4401 166.521 40.0679 166.367 40.8494C166.227 41.6181 166.156 42.5598 166.156 43.6744C166.156 44.8274 166.227 45.7947 166.367 46.5762C166.521 47.3577 166.822 47.9855 167.271 48.4595C167.732 48.9336 168.398 49.1706 169.269 49.1706C170.128 49.1706 170.781 48.9336 171.229 48.4595C171.691 47.9855 171.992 47.3577 172.133 46.5762C172.286 45.7947 172.363 44.8274 172.363 43.6744Z" fill="black"/>
<path d="M75.0515 56.4766V57.4763H72.4848V65.8926H71.2554V57.4763H68.6751V56.4766H75.0515ZM79.8611 66.0142C79.1676 66.0142 78.5371 65.8566 77.9698 65.5413C77.4114 65.2261 76.9701 64.7803 76.6458 64.2039C76.3306 63.6185 76.173 62.943 76.173 62.1775C76.173 61.421 76.3351 60.7545 76.6594 60.1781C76.9926 59.5927 77.4429 59.1469 78.0103 58.8407C78.5777 58.5255 79.2126 58.3679 79.9151 58.3679C80.6176 58.3679 81.2525 58.5255 81.8199 58.8407C82.3873 59.1469 82.8331 59.5882 83.1573 60.1646C83.4906 60.741 83.6572 61.412 83.6572 62.1775C83.6572 62.943 83.4861 63.6185 83.1438 64.2039C82.8106 64.7803 82.3558 65.2261 81.7794 65.5413C81.203 65.8566 80.5635 66.0142 79.8611 66.0142ZM79.8611 64.9334C80.3024 64.9334 80.7167 64.8298 81.1039 64.6227C81.4912 64.4156 81.8019 64.1048 82.0361 63.6906C82.2792 63.2763 82.4008 62.7719 82.4008 62.1775C82.4008 61.5831 82.2837 61.0788 82.0496 60.6645C81.8154 60.2502 81.5092 59.944 81.1309 59.7458C80.7527 59.5387 80.3429 59.4351 79.9016 59.4351C79.4513 59.4351 79.037 59.5387 78.6587 59.7458C78.2895 59.944 77.9923 60.2502 77.7671 60.6645C77.542 61.0788 77.4294 61.5831 77.4294 62.1775C77.4294 62.7809 77.5375 63.2898 77.7536 63.7041C77.9788 64.1184 78.276 64.4291 78.6452 64.6362C79.0145 64.8343 79.4198 64.9334 79.8611 64.9334ZM84.8818 62.164C84.8818 61.4075 85.0349 60.7455 85.3411 60.1781C85.6473 59.6017 86.0661 59.1559 86.5975 58.8407C87.1378 58.5255 87.7413 58.3679 88.4077 58.3679C88.9841 58.3679 89.52 58.503 90.0153 58.7732C90.5107 59.0343 90.8889 59.3811 91.1501 59.8134V55.8957H92.393V65.8926H91.1501V64.5011C90.9069 64.9424 90.5467 65.3072 90.0694 65.5954C89.592 65.8746 89.0336 66.0142 88.3942 66.0142C87.7367 66.0142 87.1378 65.8521 86.5975 65.5278C86.0661 65.2036 85.6473 64.7488 85.3411 64.1634C85.0349 63.578 84.8818 62.9115 84.8818 62.164ZM91.1501 62.1775C91.1501 61.6191 91.0375 61.1328 90.8124 60.7185C90.5872 60.3042 90.281 59.989 89.8937 59.7729C89.5155 59.5477 89.0967 59.4351 88.6374 59.4351C88.1781 59.4351 87.7593 59.5432 87.381 59.7593C87.0027 59.9755 86.701 60.2907 86.4759 60.705C86.2507 61.1193 86.1381 61.6056 86.1381 62.164C86.1381 62.7314 86.2507 63.2267 86.4759 63.65C86.701 64.0643 87.0027 64.384 87.381 64.6092C87.7593 64.8253 88.1781 64.9334 88.6374 64.9334C89.0967 64.9334 89.5155 64.8253 89.8937 64.6092C90.281 64.384 90.5872 64.0643 90.8124 63.65C91.0375 63.2267 91.1501 62.7359 91.1501 62.1775ZM94.0787 62.164C94.0787 61.4075 94.2318 60.7455 94.538 60.1781C94.8442 59.6017 95.263 59.1559 95.7944 58.8407C96.3347 58.5255 96.9336 58.3679 97.5911 58.3679C98.2395 58.3679 98.8024 58.5075 99.2798 58.7867C99.7571 59.0659 100.113 59.4171 100.347 59.8404V58.4895H101.59V65.8926H100.347V64.5146C100.104 64.9469 99.7391 65.3072 99.2527 65.5954C98.7754 65.8746 98.217 66.0142 97.5776 66.0142C96.9201 66.0142 96.3257 65.8521 95.7944 65.5278C95.263 65.2036 94.8442 64.7488 94.538 64.1634C94.2318 63.578 94.0787 62.9115 94.0787 62.164ZM100.347 62.1775C100.347 61.6191 100.234 61.1328 100.009 60.7185C99.7841 60.3042 99.4779 59.989 99.0906 59.7729C98.7124 59.5477 98.2936 59.4351 97.8343 59.4351C97.3749 59.4351 96.9562 59.5432 96.5779 59.7593C96.1996 59.9755 95.8979 60.2907 95.6728 60.705C95.4476 61.1193 95.335 61.6056 95.335 62.164C95.335 62.7314 95.4476 63.2267 95.6728 63.65C95.8979 64.0643 96.1996 64.384 96.5779 64.6092C96.9562 64.8253 97.3749 64.9334 97.8343 64.9334C98.2936 64.9334 98.7124 64.8253 99.0906 64.6092C99.4779 64.384 99.7841 64.0643 100.009 63.65C100.234 63.2267 100.347 62.7359 100.347 62.1775ZM110.111 58.4895L105.653 69.378H104.383L105.842 65.8115L102.857 58.4895H104.221L106.545 64.4876L108.841 58.4895H110.111ZM116.813 63.0421C116.354 63.0421 115.962 62.8845 115.638 62.5693C115.322 62.2451 115.165 61.8533 115.165 61.394C115.165 60.9257 115.322 60.5339 115.638 60.2187C115.962 59.8944 116.354 59.7323 116.813 59.7323C117.281 59.7323 117.678 59.8944 118.002 60.2187C118.326 60.5339 118.488 60.9257 118.488 61.394C118.488 61.8533 118.326 62.2451 118.002 62.5693C117.678 62.8845 117.281 63.0421 116.813 63.0421ZM125.766 63.2718C125.856 63.7851 126.063 64.1814 126.387 64.4606C126.72 64.7398 127.166 64.8794 127.725 64.8794C128.472 64.8794 129.021 64.5867 129.373 64.0013C129.733 63.4159 129.904 62.4297 129.886 61.0427C129.697 61.448 129.382 61.7677 128.94 62.0019C128.499 62.2271 128.008 62.3396 127.468 62.3396C126.864 62.3396 126.324 62.218 125.847 61.9749C125.378 61.7227 125.009 61.358 124.739 60.8806C124.469 60.4033 124.334 59.8269 124.334 59.1514C124.334 58.1878 124.613 57.4132 125.171 56.8278C125.73 56.2334 126.522 55.9362 127.549 55.9362C128.81 55.9362 129.692 56.346 130.197 57.1656C130.71 57.9851 130.967 59.2055 130.967 60.8266C130.967 61.9614 130.863 62.898 130.656 63.6365C130.458 64.375 130.116 64.9379 129.629 65.3252C129.152 65.7125 128.495 65.9061 127.657 65.9061C126.738 65.9061 126.022 65.6584 125.509 65.1631C124.996 64.6677 124.703 64.0373 124.631 63.2718H125.766ZM127.671 61.2994C128.274 61.2994 128.769 61.1148 129.157 60.7455C129.544 60.3673 129.737 59.8584 129.737 59.219C129.737 58.5435 129.548 57.9986 129.17 57.5843C128.792 57.1701 128.26 56.9629 127.576 56.9629C126.946 56.9629 126.441 57.1611 126.063 57.5573C125.694 57.9536 125.509 58.476 125.509 59.1244C125.509 59.7819 125.694 60.3087 126.063 60.705C126.432 61.1013 126.968 61.2994 127.671 61.2994ZM133.356 65.9736C133.122 65.9736 132.924 65.8926 132.762 65.7305C132.6 65.5684 132.519 65.3702 132.519 65.1361C132.519 64.9019 132.6 64.7038 132.762 64.5416C132.924 64.3795 133.122 64.2985 133.356 64.2985C133.582 64.2985 133.771 64.3795 133.924 64.5416C134.086 64.7038 134.167 64.9019 134.167 65.1361C134.167 65.3702 134.086 65.5684 133.924 65.7305C133.771 65.8926 133.582 65.9736 133.356 65.9736ZM133.356 60.1916C133.122 60.1916 132.924 60.1106 132.762 59.9485C132.6 59.7864 132.519 59.5882 132.519 59.3541C132.519 59.1199 132.6 58.9218 132.762 58.7597C132.924 58.5975 133.122 58.5165 133.356 58.5165C133.582 58.5165 133.771 58.5975 133.924 58.7597C134.086 58.9218 134.167 59.1199 134.167 59.3541C134.167 59.5882 134.086 59.7864 133.924 59.9485C133.771 60.1106 133.582 60.1916 133.356 60.1916ZM135.408 63.7176V62.7854L140.15 56.2199H141.623V62.6503H142.974V63.7176H141.623V65.8926H140.407V63.7176H135.408ZM140.461 57.5033L136.827 62.6503H140.461V57.5033ZM150.281 57.0845L146.525 65.8926H145.282L149.092 57.2061H143.877V56.1524H150.281V57.0845ZM161.149 63.7986H157.042L156.286 65.8926H154.989L158.393 56.5306H159.812L163.202 65.8926H161.906L161.149 63.7986ZM160.798 62.7989L159.096 58.0437L157.393 62.7989H160.798ZM174.305 56.5441V65.8926H173.075V58.9218L169.968 65.8926H169.104L165.983 58.9083V65.8926H164.754V56.5441H166.078L169.536 64.2715L172.994 56.5441H174.305Z" fill="#858585"/>
<path fill-rule="evenodd" clip-rule="evenodd" d="M37.5797 70.4445C48.3932 70.4445 57.1593 61.6784 57.1593 50.8648C57.1593 40.0513 48.3932 31.2852 37.5797 31.2852C26.7661 31.2852 18 40.0513 18 50.8648C18 61.6784 26.7661 70.4445 37.5797 70.4445ZM47.691 42.2716C48.1673 41.7953 48.9395 41.7953 49.4157 42.2716C49.8919 42.7478 49.892 43.52 49.4157 43.9962L33.9426 59.4693C33.4667 59.9452 32.694 59.9456 32.2179 59.4693L25.7395 52.9909C25.2632 52.5147 25.2632 51.7425 25.7395 51.2663C26.2158 50.7901 26.9879 50.79 27.4641 51.2663L33.0803 56.8824L47.691 42.2716Z" fill="#39846F"/>
<path d="M432.543 46.7214H424.066L432.543 55.1987L441.02 46.7214H432.543Z" fill="black"/>
</g>
<defs>
<clipPath id="clip0_5244_105371">
<rect width="480" height="220" fill="white"/>
</clipPath>
</defs>
</svg>
